<svg width="23" height="20" viewBox="0 0 23 20" fill="none" xmlns="http://www.w3.org/2000/svg">
<path d="M10.6265 18.9593L22.7831 2.031C22.9115 1.84433 22.9698 1.611 22.9348 1.38933C22.8998 1.16767 22.7715 0.969332 22.5848 0.829332C22.1998 0.549332 21.6631 0.642665 21.3831 1.02767L9.8798 17.081L1.57313 7.246C1.39813 7.04767 1.1648 6.94267 0.919799 6.94267C0.721466 6.94267 0.523132 7.01267 0.359799 7.141C-0.00186778 7.44433 -0.0485344 7.99267 0.254799 8.35433L9.27313 19.0293C9.43647 19.2277 9.68147 19.3327 9.92647 19.3327C10.1831 19.3327 10.4748 19.181 10.6265 18.9593Z" fill="#FBFBFB"/>
</svg>
