<svg width="114" height="80" viewBox="0 0 114 80" fill="none" xmlns="http://www.w3.org/2000/svg">
<path d="M112.883 68.041L99.0835 58.2791C98.491 57.8589 97.6971 58.3071 97.6971 59.0596V65.7556L73.015 65.9317C83.0429 59.816 89.8041 48.3891 89.8041 35.3293C89.8041 15.8495 74.7623 0 56.2753 0C37.7883 0 22.7465 15.8495 22.7465 35.3293C22.7465 45.3153 26.7007 54.3447 33.0441 60.7766C35.1142 62.8739 37.4351 64.699 39.961 66.1879C40.2991 66.388 40.6371 66.5801 40.9828 66.7642L37.2641 66.8603L27.0995 69.3938C25.3029 69.8901 23.5404 68.8215 22.963 67.2245L4.68811 67.7808C2.84967 67.8649 1.38727 69.4819 1.40246 71.407C1.41386 73.3162 2.86866 74.9051 4.68811 74.9892C21.1239 74.4729 33.9177 73.9606 50.3573 73.4442C51.7627 73.4322 53.5518 73.2201 55.5878 72.7438C59.2533 71.8833 62.9909 71.8433 66.5804 72.1755C70.7891 72.5637 75.8144 73.056 77.7744 73.024L97.7009 72.6558V79.0596C97.7009 79.8121 98.4948 80.2563 99.0873 79.8401L112.887 70.0782C113.571 69.5939 113.571 68.5373 112.887 68.053L112.883 68.041ZM66.4361 60.8967C64.3812 61.8052 62.197 62.4416 59.918 62.7778C58.7253 62.9539 57.5098 63.05 56.2753 63.05C52.7845 63.05 49.4533 62.3215 46.3994 61.0168C43.786 59.8961 41.3778 58.3471 39.2583 56.45C33.5758 51.3589 29.9597 43.7824 29.9597 35.3253C29.9597 20.0361 41.7653 7.60057 56.2715 7.60057C70.7777 7.60057 82.5833 20.0401 82.5833 35.3253C82.5833 46.8202 75.9094 56.7022 66.4323 60.9007L66.4361 60.8967Z" fill="#456080"/>
<path d="M62.8298 26.3958C65.7091 25.6954 67.5019 22.6656 66.8372 19.6358C66.1725 16.6019 63.297 14.7128 60.4216 15.4132C57.5462 16.1136 55.7496 19.1435 56.4143 22.1733C57.079 25.2071 59.9544 27.0963 62.8298 26.3958Z" fill="#A1A3A6"/>
<path d="M77.4089 23.9345C76.1288 23.0019 74.222 23.4222 73.3597 24.9711L68.813 32.3236C68.5509 32.7478 68.0153 32.8799 67.6013 32.6157L58.8231 27.0524C58.0216 26.5441 57.0644 26.38 56.1528 26.5961L43.9295 29.4618C43.071 29.662 42.3379 30.2463 41.9201 31.0628C39.7968 35.2213 37.6696 39.3838 35.5463 43.5423C34.6879 45.0632 35.2994 47.0004 36.663 47.6528C37.9127 48.2492 39.5347 47.6528 40.1994 46.1959L45.2779 35.8137C45.5438 35.2653 46.0262 34.8731 46.5959 34.733L49.6993 33.9766C50.0791 33.8845 50.3906 34.3048 50.2045 34.669L39.2574 56.4461C41.3769 58.3432 43.7813 59.8922 46.3984 61.0129L49.3878 55.4415C49.8094 54.669 50.7476 54.4129 51.4731 54.8651L59.2409 59.7401C59.6512 59.9962 59.9019 60.4605 59.9057 60.9608C59.9057 61.245 60.0158 75.2254 60.0272 76.9544C60.0272 76.9945 60.031 77.0345 60.0386 77.0705C60.3843 78.6275 61.5314 79.7882 62.8343 79.9643C64.5587 80.1964 66.3972 78.6875 66.6213 76.4421C66.6213 76.4181 66.6213 76.3941 66.6213 76.3701L66.3668 56.0339C66.3516 54.7411 65.7173 53.5404 64.6803 52.8439L57.5089 48.029C56.9353 47.6448 56.734 46.8603 57.0416 46.2199L61.7175 36.6061C61.8391 36.358 62.1353 36.2699 62.3595 36.414L67.795 39.8961C69.208 40.8007 71.0541 40.3244 71.9087 38.8355C73.9941 35.2093 76.0756 31.5791 78.1609 27.9489C78.951 26.5561 78.575 24.783 77.4089 23.9345Z" fill="#A1A3A6"/>
<path d="M25.6008 62.5818C23.7433 62.962 22.543 64.7911 22.7899 66.5522C22.8203 66.7803 22.8811 67.0004 22.957 67.2125C23.5344 68.8095 25.2969 69.8782 27.0935 69.3819L39.955 66.1759C37.4291 64.687 35.1082 62.8619 33.0381 60.7647L25.6008 62.5818Z" fill="#A1A3A6"/>
<path d="M13.4152 32.8758H2.9185C1.63673 32.8758 0.597656 33.9707 0.597656 35.3213C0.597656 36.6719 1.63673 37.7667 2.9185 37.7667H13.4152C14.697 37.7667 15.7361 36.6719 15.7361 35.3213C15.7361 33.9707 14.697 32.8758 13.4152 32.8758Z" fill="#537399"/>
<path d="M17.3769 46.6642H6.88015C5.59838 46.6642 4.55931 47.759 4.55931 49.1096C4.55931 50.4602 5.59838 51.5551 6.88015 51.5551H17.3769C18.6586 51.5551 19.6977 50.4602 19.6977 49.1096C19.6977 47.759 18.6586 46.6642 17.3769 46.6642Z" fill="#537399"/>
<path d="M17.3769 19.0874H6.88015C5.59838 19.0874 4.55931 20.1823 4.55931 21.5329C4.55931 22.8835 5.59838 23.9783 6.88015 23.9783H17.3769C18.6586 23.9783 19.6977 22.8835 19.6977 21.5329C19.6977 20.1823 18.6586 19.0874 17.3769 19.0874Z" fill="#537399"/>
</svg>
