<svg width="388" height="581" viewBox="0 0 388 581" fill="none" xmlns="http://www.w3.org/2000/svg">
<g clip-path="url(#clip0_1792_187378)">
<rect width="388" height="581" fill="#EFF3F6"/>
<g opacity="0.1">
<path d="M307.383 -1.16113L206.582 236.952L161.899 135.063L307.383 -1.16113Z" fill="#6687AD"/>
<path d="M276.61 277.864L206.582 236.952L307.383 -1.16113L276.61 277.864Z" fill="#99AFC8"/>
<path d="M-6.77356 -260.679L108.886 -165.144L130.227 59.0349L-6.77356 -260.679Z" fill="#537399"/>
<path d="M66.6912 80.2158L161.906 135.062L42.5581 230.709L66.6912 80.2158Z" fill="#537399"/>
<path d="M-35.3209 -104.723L66.6914 80.2167L35.0233 -163.136" fill="#537399"/>
<path d="M-23.7814 111.095L42.5583 230.709L66.6914 80.2158" fill="#809BBA"/>
<path d="M66.6796 80.2166L130.227 59.0361L86.808 -42.2959" fill="#99AFC8"/>
<path d="M130.231 59.0361L307.383 -1.16113L161.899 135.063L130.231 59.0361Z" fill="#537399"/>
<path d="M-107.358 408.737L77.75 552.542L-9.24508 295.589" fill="#6687AD"/>
<path d="M-9.24509 295.589L77.75 552.542L42.5515 230.709" fill="#537399"/>
<path d="M161.899 135.062L206.582 236.952L42.5507 230.709L161.899 135.062Z" fill="#99AFC8"/>
<path d="M276.609 277.864L269.127 380.422L220.755 269.726L276.609 277.864Z" fill="#537399"/>
<path d="M116.321 452.436L195.148 264.152L42.5514 230.709" fill="#99AFC8"/>
<path d="M42.551 230.709L116.32 452.436L77.7495 552.542L42.551 230.709Z" fill="#809BBA"/>
<path d="M142.93 532.142L116.321 452.437L195.148 264.153L142.93 532.142Z" fill="#537399"/>
<path d="M77.7493 552.541L142.93 532.141L116.32 452.436" fill="#99AFC8"/>
<path d="M-80.5378 534.816L77.75 552.541L-77.1655 432.147" fill="#99AFC8"/>
<path d="M220.755 269.727L276.609 277.865L206.581 236.953" fill="#809BBA"/>
<path d="M-9.24968 295.588L42.5469 230.709L-23.7927 111.095" fill="#99AFC8"/>
<path d="M-35.3209 -104.723L-23.7813 111.095L66.6914 80.2165" fill="#6687AD"/>
<path d="M66.6821 80.2167L86.8633 -42.2958L35.014 -163.136" fill="#6687AD"/>
<path d="M66.6912 80.2159L161.906 135.062L130.238 59.0354" fill="#809BBA"/>
<path d="M206.587 236.952L220.762 269.726L42.5562 230.709L206.587 236.952Z" fill="#809BBA"/>
<path d="M220.765 269.727L269.137 380.423L195.157 264.153L220.765 269.727Z" fill="#6687AD"/>
<path d="M195.157 264.153L269.137 380.423L142.939 532.142L195.157 264.153Z" fill="#809BBA"/>
<path d="M142.939 532.141L269.137 380.421L262.656 487.104L142.939 532.141Z" fill="#99AFC8"/>
<path d="M262.65 487.104L269.131 380.421L309.02 469.714L262.65 487.104Z" fill="#809BBA"/>
<path d="M269.131 380.422L276.614 277.863L309.02 469.714L269.131 380.422Z" fill="#99AFC8"/>
<path d="M276.618 277.863L309.234 303.057L309.024 469.714" fill="#809BBA"/>
<path d="M276.407 277.864L308.866 251.778L309.234 303.057" fill="#809BBA"/>
<path d="M276.614 277.864L309.02 180.768L308.861 251.778" fill="#809BBA"/>
<path d="M276.614 277.864L307.386 -1.16113L309.02 180.768" fill="#809BBA"/>
<path d="M200.469 703.815L142.929 532.141L77.7483 552.541" fill="#6687AD"/>
<path d="M309.02 469.714L176.604 632.581L142.933 532.141L309.02 469.714Z" fill="#537399"/>
<path d="M309.02 469.714L200.473 703.814L176.604 632.581L309.02 469.714Z" fill="#99AFC8"/>
<path d="M160.059 653.985L100.569 729.231L77.7531 552.541L160.059 653.985Z" fill="#537399"/>
<path d="M100.562 729.231L77.7467 552.541L79.064 749.186" fill="#99AFC8"/>
<path d="M-16.2532 633.251L77.75 552.542L-80.5378 534.817" fill="#6687AD"/>
<path d="M-16.2501 633.25L79.0703 749.186L77.753 552.541" fill="#809BBA"/>
<path d="M469.945 -23.2341L501.402 142.197L307.389 -1.16181L469.945 -23.2341Z" fill="#537399"/>
<path d="M307.387 -1.16113L481.113 127.26L399.967 186.008" fill="#6687AD"/>
<path d="M307.382 -1.16113L338.629 62.046L309.016 180.768" fill="#537399"/>
<path d="M338.632 62.0454L369.668 124.695L309.019 180.768" fill="#809BBA"/>
<path d="M369.667 124.695L399.965 186.007L308.86 251.778" fill="#537399"/>
<path d="M369.668 124.695L308.861 251.778L309.019 180.768" fill="#99AFC8"/>
<path d="M308.859 251.778L399.964 186.007L430.367 252.67" fill="#6687AD"/>
<path d="M309.231 303.057L430.371 252.67L456.98 383.878" fill="#537399"/>
<path d="M308.859 251.778L430.367 252.67L309.227 303.057" fill="#99AFC8"/>
<path d="M309.231 303.058L456.98 383.878L445.335 407.957" fill="#6687AD"/>
<path d="M309.232 303.058L445.336 407.957L309.021 469.715" fill="#99AFC8"/>
<path d="M309.021 469.714L445.336 407.957L379.523 548.082L309.021 469.714Z" fill="#6687AD"/>
<path d="M309.017 469.714L379.52 548.082L268.339 782.517L309.017 469.714Z" fill="#537399"/>
<path d="M309.02 469.714L268.341 782.517L200.473 703.814L309.02 469.714Z" fill="#809BBA"/>
<path d="M452.445 626.785L379.519 548.082L445.332 407.957" fill="#537399"/>
<path d="M122.696 -20.2241L307.383 -1.16167L130.231 59.0355L122.696 -20.2241Z" fill="#809BBA"/>
<path d="M452.445 626.785L268.338 782.517L379.519 548.083" fill="#809BBA"/>
</g>
</g>
<defs>
<clipPath id="clip0_1792_187378">
<rect width="388" height="581" fill="white"/>
</clipPath>
</defs>
</svg>
