<svg width="388" height="582" viewBox="0 0 388 582" fill="none" xmlns="http://www.w3.org/2000/svg">
<g clip-path="url(#clip0_1790_207652)">
<rect width="388" height="582" fill="#EFF3F6"/>
<g opacity="0.1">
<path d="M307.383 -0.519531L206.582 237.594L161.899 135.705L307.383 -0.519531Z" fill="#7B9586"/>
<path d="M276.61 278.506L206.582 237.594L307.383 -0.519531L276.61 278.506Z" fill="#A7B8AF"/>
<path d="M-6.77356 -260.038L108.886 -164.502L130.227 59.6765L-6.77356 -260.038Z" fill="#688173"/>
<path d="M66.6912 80.8574L161.906 135.704L42.5581 231.35L66.6912 80.8574Z" fill="#688173"/>
<path d="M-35.3209 -104.081L66.6914 80.8583L35.0233 -162.495" fill="#688173"/>
<path d="M-23.7814 111.736L42.5583 231.35L66.6914 80.8574" fill="#91A79A"/>
<path d="M66.6796 80.8582L130.227 59.6777L86.808 -41.6543" fill="#A7B8AF"/>
<path d="M130.231 59.6777L307.383 -0.519531L161.899 135.705L130.231 59.6777Z" fill="#688173"/>
<path d="M-107.358 409.379L77.75 553.184L-9.24508 296.23" fill="#7B9586"/>
<path d="M-9.24509 296.23L77.75 553.183L42.5515 231.351" fill="#688173"/>
<path d="M161.899 135.704L206.582 237.593L42.5507 231.351L161.899 135.704Z" fill="#A7B8AF"/>
<path d="M276.609 278.505L269.127 381.064L220.755 270.368L276.609 278.505Z" fill="#688173"/>
<path d="M116.321 453.078L195.148 264.794L42.5514 231.351" fill="#A7B8AF"/>
<path d="M42.551 231.351L116.32 453.078L77.7495 553.183L42.551 231.351Z" fill="#91A79A"/>
<path d="M142.93 532.784L116.321 453.078L195.148 264.795L142.93 532.784Z" fill="#688173"/>
<path d="M77.7493 553.183L142.93 532.783L116.32 453.077" fill="#A7B8AF"/>
<path d="M-80.5378 535.458L77.75 553.183L-77.1655 432.788" fill="#A7B8AF"/>
<path d="M220.755 270.368L276.609 278.506L206.581 237.594" fill="#91A79A"/>
<path d="M-9.24968 296.23L42.5469 231.351L-23.7927 111.737" fill="#A7B8AF"/>
<path d="M-35.3209 -104.081L-23.7813 111.737L66.6914 80.8581" fill="#7B9586"/>
<path d="M66.6821 80.8583L86.8633 -41.6542L35.014 -162.495" fill="#7B9586"/>
<path d="M66.6912 80.8575L161.906 135.704L130.238 59.677" fill="#91A79A"/>
<path d="M206.587 237.594L220.762 270.368L42.5562 231.351L206.587 237.594Z" fill="#91A79A"/>
<path d="M220.765 270.368L269.137 381.065L195.157 264.795L220.765 270.368Z" fill="#7B9586"/>
<path d="M195.157 264.795L269.137 381.065L142.939 532.784L195.157 264.795Z" fill="#91A79A"/>
<path d="M142.939 532.782L269.137 381.063L262.656 487.746L142.939 532.782Z" fill="#A7B8AF"/>
<path d="M262.65 487.746L269.131 381.063L309.02 470.356L262.65 487.746Z" fill="#91A79A"/>
<path d="M269.131 381.063L276.614 278.505L309.02 470.356L269.131 381.063Z" fill="#A7B8AF"/>
<path d="M276.618 278.505L309.234 303.699L309.024 470.356" fill="#91A79A"/>
<path d="M276.407 278.505L308.866 252.42L309.234 303.699" fill="#91A79A"/>
<path d="M276.614 278.505L309.02 181.409L308.861 252.42" fill="#91A79A"/>
<path d="M276.614 278.506L307.386 -0.519531L309.02 181.41" fill="#91A79A"/>
<path d="M200.469 704.456L142.929 532.783L77.7483 553.183" fill="#7B9586"/>
<path d="M309.02 470.356L176.604 633.223L142.933 532.783L309.02 470.356Z" fill="#688173"/>
<path d="M309.02 470.356L200.473 704.456L176.604 633.223L309.02 470.356Z" fill="#A7B8AF"/>
<path d="M160.059 654.626L100.569 729.873L77.7531 553.183L160.059 654.626Z" fill="#688173"/>
<path d="M100.562 729.873L77.7467 553.183L79.064 749.827" fill="#A7B8AF"/>
<path d="M-16.2532 633.892L77.75 553.183L-80.5378 535.458" fill="#7B9586"/>
<path d="M-16.2501 633.892L79.0703 749.827L77.753 553.183" fill="#91A79A"/>
<path d="M469.945 -22.5925L501.402 142.838L307.389 -0.520212L469.945 -22.5925Z" fill="#688173"/>
<path d="M307.387 -0.519531L481.113 127.901L399.967 186.649" fill="#7B9586"/>
<path d="M307.382 -0.519531L338.629 62.6876L309.016 181.41" fill="#688173"/>
<path d="M338.632 62.687L369.668 125.337L309.019 181.409" fill="#91A79A"/>
<path d="M369.667 125.337L399.965 186.649L308.86 252.42" fill="#688173"/>
<path d="M369.668 125.337L308.861 252.42L309.019 181.409" fill="#A7B8AF"/>
<path d="M308.859 252.42L399.964 186.649L430.367 253.312" fill="#7B9586"/>
<path d="M309.231 303.699L430.371 253.312L456.98 384.519" fill="#688173"/>
<path d="M308.859 252.42L430.367 253.312L309.227 303.699" fill="#A7B8AF"/>
<path d="M309.231 303.699L456.98 384.52L445.335 408.599" fill="#7B9586"/>
<path d="M309.232 303.699L445.336 408.599L309.021 470.357" fill="#A7B8AF"/>
<path d="M309.021 470.356L445.336 408.598L379.523 548.724L309.021 470.356Z" fill="#7B9586"/>
<path d="M309.017 470.356L379.52 548.724L268.339 783.158L309.017 470.356Z" fill="#688173"/>
<path d="M309.02 470.356L268.341 783.158L200.473 704.456L309.02 470.356Z" fill="#91A79A"/>
<path d="M452.445 627.426L379.519 548.724L445.332 408.598" fill="#688173"/>
<path d="M122.696 -19.5825L307.383 -0.520071L130.231 59.6771L122.696 -19.5825Z" fill="#91A79A"/>
<path d="M452.445 627.426L268.338 783.159L379.519 548.724" fill="#91A79A"/>
</g>
</g>
<defs>
<clipPath id="clip0_1790_207652">
<rect width="388" height="582" fill="white"/>
</clipPath>
</defs>
</svg>
