<svg width="20" height="30" viewBox="0 0 20 30" fill="none" xmlns="http://www.w3.org/2000/svg">
<path d="M16.7461 0H3.24609C1.59609 0 0.246094 1.35 0.246094 3V27C0.246094 28.65 1.59609 30 3.24609 30H16.7461C18.3961 30 19.7461 28.65 19.7461 27V3C19.7461 1.35 18.3961 0 16.7461 0ZM17.4961 27C17.4961 27.42 17.1661 27.75 16.7461 27.75H3.24609C2.82609 27.75 2.49609 27.42 2.49609 27V3C2.49609 2.58 2.82609 2.25 3.24609 2.25H5.66109C5.66109 2.865 6.17109 3.375 6.78609 3.375H13.2061C13.8211 3.375 14.3311 2.865 14.3311 2.25H16.7461C17.1661 2.25 17.4961 2.58 17.4961 3V27Z" fill="#3C5470"/>
</svg>
