<svg width="31" height="24" viewBox="0 0 31 24" fill="none" xmlns="http://www.w3.org/2000/svg">
<path d="M27.9961 0H3.99609C2.34609 0 0.996094 1.35 0.996094 3V21C0.996094 22.65 2.34609 24 3.99609 24H27.9961C29.6461 24 30.9961 22.65 30.9961 21V3C30.9961 1.35 29.6461 0 27.9961 0ZM27.0211 2.25L17.1361 11.205C16.4611 11.715 15.5311 11.715 14.8561 11.205L5.00109 2.25H27.0211ZM27.9961 21.75H3.99609C3.57609 21.75 3.24609 21.42 3.24609 21V3.765L13.4911 12.99C14.2261 13.56 15.1111 13.83 15.9961 13.83C16.8811 13.83 17.7661 13.545 18.5011 12.99L28.7461 3.795V21C28.7461 21.42 28.4161 21.75 27.9961 21.75Z" fill="#3C5470"/>
</svg>
