<svg width="31" height="30" viewBox="0 0 31 30" fill="none" xmlns="http://www.w3.org/2000/svg">
<path d="M15.9961 2.25C23.0311 2.25 28.7461 7.965 28.7461 15C28.7461 22.035 23.0311 27.75 15.9961 27.75C8.96109 27.75 3.24609 22.035 3.24609 15C3.24609 7.965 8.96109 2.25 15.9961 2.25ZM15.9961 0C7.71609 0 0.996094 6.72 0.996094 15C0.996094 23.28 7.71609 30 15.9961 30C24.2761 30 30.9961 23.28 30.9961 15C30.9961 6.72 24.2911 0 15.9961 0Z" fill="#3C5470"/>
<path d="M12.0558 11.7151H8.80078V21.1501H12.0558V11.7151Z" fill="#3C5470"/>
<path d="M10.4201 10.68C11.2982 10.68 12.0101 9.96813 12.0101 9.09C12.0101 8.21187 11.2982 7.5 10.4201 7.5C9.54194 7.5 8.83008 8.21187 8.83008 9.09C8.83008 9.96813 9.54194 10.68 10.4201 10.68Z" fill="#3C5470"/>
<path d="M21.9368 12.1803C20.5118 11.3103 18.5168 11.3553 16.9268 13.3353V11.7153H14.0918V21.1503H17.0468V15.8553C17.1818 14.7453 18.1868 14.0253 19.1168 14.1903C19.8518 14.3253 20.4668 15.0003 20.5418 15.8553V21.1503H23.5118V15.4803C23.5118 14.0553 23.1668 12.9153 21.9518 12.1803H21.9368Z" fill="#3C5470"/>
</svg>
