<svg width="22" height="32" viewBox="0 0 22 32" fill="none" xmlns="http://www.w3.org/2000/svg">
<path fill-rule="evenodd" clip-rule="evenodd" d="M18.1001 6.67754C16.6301 4.48754 14.2901 3.22754 11.6501 3.22754H10.3151C7.61506 3.22754 5.15505 4.60754 3.73005 6.90254C2.30505 9.21254 2.17006 12.0325 3.38506 14.4475L10.5851 28.3675C10.7501 28.7125 11.0801 28.7725 11.2451 28.7725C11.4101 28.7725 11.7251 28.7275 11.9051 28.3675L18.8201 13.9225C19.8101 11.4925 19.5551 8.85254 18.1001 6.67754ZM10.3151 0.977539H11.6651H11.6801C18.8051 0.977539 23.6501 8.23754 20.9051 14.8225L13.9451 29.3725C13.3901 30.4675 12.3251 31.0225 11.2601 31.0225C10.1951 31.0225 9.13006 30.4825 8.57506 29.3725L1.37505 15.4525C-1.95495 8.79254 2.89006 0.977539 10.3151 0.977539ZM6.17578 11.0572C6.17578 13.6972 8.32077 15.8422 10.9608 15.8422C13.6008 15.8422 15.7458 13.6972 15.7458 11.0572C15.7458 8.41722 13.6008 6.27222 10.9608 6.27222C8.32077 6.27222 6.17578 8.41722 6.17578 11.0572ZM8.42578 11.0422C8.42578 9.64722 9.56577 8.50722 10.9608 8.50722C12.3558 8.50722 13.4958 9.64722 13.4958 11.0422C13.4958 12.4372 12.3558 13.5772 10.9608 13.5772C9.56577 13.5772 8.42578 12.4372 8.42578 11.0422Z" fill="#3C5470"/>
</svg>
