<svg width="1160" height="730" viewBox="0 0 1160 730" fill="none" xmlns="http://www.w3.org/2000/svg">
<g clip-path="url(#clip0_1604_158377)">
<rect width="1160" height="730" fill="white"/>
<g opacity="0.1">
<path d="M-28.6154 105.689L185.344 -87.5338L55.3826 -367.184" fill="#809BBA"/>
<path d="M-28.6024 105.691L375.07 351.265L185.357 -87.5322" fill="#6687AD"/>
<path d="M185.357 -87.5323L375.07 351.265L298.312 -198.326" fill="#537399"/>
<path d="M808.73 -117.801L792.413 57.3371L686.928 -131.698L808.73 -117.801Z" fill="#537399"/>
<path d="M459.179 180.315L631.082 -141.216L298.308 -198.326" fill="#99AFC8"/>
<path d="M298.312 -198.326L459.184 180.315L375.071 351.265L298.312 -198.326Z" fill="#809BBA"/>
<path d="M517.208 316.428L459.179 180.315L631.082 -141.215L517.208 316.428Z" fill="#537399"/>
<path d="M375.066 351.264L517.207 316.427L459.178 180.314" fill="#99AFC8"/>
<path d="M29.8841 320.995L37.2383 145.667L-28.6043 105.689" fill="#537399"/>
<path d="M29.8859 320.995L375.07 351.263L37.24 145.667" fill="#99AFC8"/>
<path d="M686.94 -131.697L792.426 57.338L631.095 -141.215L686.94 -131.697Z" fill="#6687AD"/>
<path d="M631.095 -141.215L792.426 57.338L517.221 316.428L631.095 -141.215Z" fill="#809BBA"/>
<path d="M517.221 316.426L792.426 57.3359L778.292 239.518L517.221 316.426Z" fill="#99AFC8"/>
<path d="M778.283 239.518L792.417 57.3359L879.402 209.82L778.283 239.518Z" fill="#809BBA"/>
<path d="M792.417 57.3358L808.734 -117.802L879.402 209.82L792.417 57.3358Z" fill="#99AFC8"/>
<path d="M808.735 -117.802L879.863 -74.7792L879.404 209.82" fill="#809BBA"/>
<path d="M642.684 609.592L517.204 316.426L375.062 351.263" fill="#6687AD"/>
<path d="M879.402 209.82L590.638 487.947L517.211 316.426L879.402 209.82Z" fill="#537399"/>
<path d="M879.402 209.82L642.691 609.592L590.638 487.947L879.402 209.82Z" fill="#99AFC8"/>
<path d="M554.555 524.498L424.823 652.996L375.068 351.264L554.555 524.498Z" fill="#537399"/>
<path d="M424.812 652.996L375.057 351.264L377.93 687.072" fill="#99AFC8"/>
<path d="M170.074 489.09L375.07 351.264L29.8859 320.996" fill="#6687AD"/>
<path d="M170.072 489.09L377.941 687.072L375.069 351.264" fill="#809BBA"/>
<path d="M17.8168 586.558L170.07 489.09L29.8822 320.996" fill="#537399"/>
<path d="M-163.849 416.37L21.4984 504.129L29.8867 320.996" fill="#6687AD"/>
<path d="M-163.855 416.369L17.8151 586.558L21.4922 504.129" fill="#99AFC8"/>
<path d="M879.868 -74.7791L1144.04 -160.825L1202.07 63.2373" fill="#537399"/>
<path d="M879.868 -74.7778L1202.07 63.2385L1176.68 104.358" fill="#6687AD"/>
<path d="M879.864 -74.7778L1176.67 104.358L879.404 209.822" fill="#99AFC8"/>
<path d="M879.404 209.82L1176.67 104.356L1033.15 343.648L879.404 209.82Z" fill="#6687AD"/>
<path d="M879.405 209.82L1033.15 343.649L790.696 743.991L879.405 209.82Z" fill="#537399"/>
<path d="M879.402 209.82L790.693 743.991L642.691 609.592L879.402 209.82Z" fill="#809BBA"/>
<path d="M1192.18 478.048L1033.15 343.648L1176.67 104.356" fill="#537399"/>
<path d="M1192.18 478.049L790.694 743.992L1033.15 343.65" fill="#809BBA"/>
<path d="M1339.04 599.124L914.338 829.849L1192.19 478.05" fill="#537399"/>
<path d="M1192.18 478.05L914.335 829.849L790.694 743.993" fill="#99AFC8"/>
<path d="M554.549 524.497L642.684 609.591L424.818 652.995L554.549 524.497Z" fill="#99AFC8"/>
<path d="M479.06 799.771L790.691 743.993L642.69 609.593" fill="#99AFC8"/>
<path d="M424.818 652.997L479.054 799.771L642.684 609.593" fill="#809BBA"/>
<path d="M377.941 687.07L94.5776 537.441L170.072 489.088L377.941 687.07Z" fill="#6687AD"/>
<path d="M479.059 799.769L377.939 687.071L424.822 652.996" fill="#6687AD"/>
<path d="M377.941 687.073L17.8189 586.559L94.5776 537.444" fill="#99AFC8"/>
<path d="M17.8203 586.558L-163.85 416.369L-250.261 473.479" fill="#537399"/>
<path d="M1343.86 745.325L914.332 829.848L1339.03 599.123" fill="#99AFC8"/>
<path d="M339.677 1030.31L229.02 922.367L377.941 687.072" fill="#809BBA"/>
<path d="M229.027 922.366L-132.014 810.621L17.8261 586.558" fill="#537399"/>
<path d="M-132.02 810.62L-148.682 686.311L17.8203 586.558" fill="#809BBA"/>
<path d="M377.941 687.072L229.02 922.366L17.8189 586.558" fill="#6687AD"/>
<path d="M377.939 687.072L479.059 799.77L339.675 1030.31" fill="#6687AD"/>
</g>
</g>
<defs>
<clipPath id="clip0_1604_158377">
<rect width="1160" height="730" fill="white"/>
</clipPath>
</defs>
</svg>
