<svg width="85" height="80" viewBox="0 0 85 80" fill="none" xmlns="http://www.w3.org/2000/svg">
<path d="M26.7329 39.2022L23.586 37.1542C22.9856 36.7622 22.1782 36.9597 21.8233 37.5814L11.6225 55.5159C11.2972 56.0876 11.4776 56.8155 12.0336 57.1721L15.2574 59.2349C15.8578 59.6209 16.6593 59.4235 17.0113 58.8046C19.0431 55.2242 25.2718 44.2384 27.147 40.8348C27.4605 40.266 27.28 39.5558 26.7329 39.2022Z" fill="#A1A3A6"/>
<path d="M79.7926 55.513L69.5919 37.5814C69.237 36.9597 68.4295 36.7622 67.8291 37.1542L64.6823 39.1993C64.1381 39.5529 63.9577 40.2631 64.2682 40.8318C66.1404 44.2354 72.372 55.2242 74.4039 58.8017C74.7558 59.4205 75.5574 59.618 76.1577 59.2319L79.3815 57.1691C79.9376 56.8126 80.118 56.0876 79.7926 55.513Z" fill="#A1A3A6"/>
<path d="M63.866 43.4221C63.6768 43.0803 63.31 42.8887 62.9255 42.9329C61.846 43.0567 60.6363 43.1274 59.3173 43.0979C56.6229 43.0361 54.3337 42.5705 52.5798 42.0666C51.4234 41.8279 49.9712 41.6275 48.2913 41.6245C46.57 41.6216 42.3643 42.0695 41.3912 42.2964C39.4925 42.7384 38.1704 43.6932 37.4636 44.2944C35.8191 46.8051 34.1777 49.3158 32.5332 51.8265C32.4593 51.9385 32.2552 52.2774 32.2878 52.743C32.2878 52.7459 32.2878 52.7489 32.2878 52.7548C32.3203 53.182 32.622 53.5504 33.0301 53.6889C33.1957 53.7449 33.388 53.792 33.6009 53.8097C37.4931 54.1339 41.0186 48.7235 41.341 48.1989C41.9443 48.1636 42.6394 48.087 43.3935 47.9337C44.1596 47.7805 44.8369 47.5801 45.4136 47.3768C48.9213 49.2539 52.6242 51.3992 56.4543 53.8598C60.4204 56.4059 64.0257 58.9667 67.285 61.4597C67.6015 61.7014 68.0303 61.725 68.3705 61.5157C68.9235 61.1768 69.5417 60.7407 70.1746 60.1779C70.7691 59.6474 71.2512 59.1199 71.6386 58.6367C71.8841 58.3331 71.9225 57.9117 71.7303 57.5728L63.866 43.4221Z" fill="#A1A3A6"/>
<path d="M53.7063 53.8539H53.7034C50.4559 51.9001 47.3416 50.3589 44.4934 49.136C44.2036 49.1065 43.6978 49.0888 43.1152 49.2863C42.6656 49.4366 42.3403 49.6605 42.1333 49.8226C38.4599 55.1387 33.6035 56.2939 31.6959 54.7114C30.7879 53.957 30.5128 52.6339 30.8264 51.4286C32.0685 49.4601 33.3107 47.4916 34.5529 45.5261C34.6683 45.3434 34.5352 45.1017 34.3163 45.1106C33.5355 45.1371 32.4708 45.0782 31.2789 44.7187C29.8149 44.2737 28.7412 43.5546 28.061 42.9947C27.854 42.8238 27.5464 42.8857 27.4192 43.1215C24.6893 48.1694 21.9595 53.2144 19.2267 58.2624C19.1202 58.4568 19.1172 58.6926 19.2207 58.89C19.4662 59.3556 19.7945 59.889 20.2352 60.4371C20.5605 60.8438 20.8888 61.1856 21.1994 61.4715C21.4271 61.6836 21.7672 61.7131 22.0245 61.5422C22.6131 61.1503 23.7843 60.5697 25.2395 60.8526C26.7537 61.1473 27.6351 62.1993 28.064 62.8977C28.2296 63.1659 28.6052 63.1836 28.8004 62.939C29.7912 61.7013 31.3853 61.1178 32.8553 61.4656C34.7008 61.9047 36.0258 63.7435 35.8779 65.7798C35.8602 66.0214 36.0288 66.2306 36.2683 66.263C36.8658 66.3367 37.8832 66.5872 38.7438 67.4359C39.8618 68.535 39.9949 69.923 39.986 70.6096C39.9831 70.8336 40.1458 71.0222 40.3676 71.0575C41.8671 71.2904 43.1536 72.2746 43.7481 73.6743C44.316 75.0093 44.1681 76.5416 43.3814 77.7528C43.2631 77.9355 43.334 78.1801 43.5322 78.2685C44.5851 78.737 46.1911 79.2733 48.1845 79.2969C49.3823 79.3117 50.4057 79.1378 51.1983 78.9374C51.4822 78.7871 51.8667 78.5455 52.2512 78.1683C52.4937 77.9266 52.683 77.6821 52.8309 77.461C52.9965 77.2106 52.9019 76.8717 52.6298 76.7361C50.6541 75.7519 48.6784 74.7676 46.7027 73.7834C46.265 73.583 46.0757 73.1233 46.194 72.8109C46.333 72.4485 46.9157 72.2186 47.4185 72.5192L53.9577 75.5957C55.8033 76.3737 57.5157 75.8344 57.9682 74.8501C58.0599 74.6498 58.0954 74.4405 58.0954 74.2342C58.0954 73.5918 57.7139 73.0084 57.1519 72.6901L49.687 68.4555C49.1753 68.258 48.9594 67.6775 49.1605 67.2591C49.3705 66.8229 49.9975 66.6314 50.4737 66.9467C53.1237 68.4319 55.7767 69.9142 58.4267 71.3994C59.4796 72.3777 61.0589 72.4013 62.032 71.5556C62.0882 71.5055 62.1414 71.4554 62.1946 71.4023C63.1766 70.3709 62.8424 68.6677 61.6061 67.9604C58.4976 66.1835 55.3922 64.4036 52.2837 62.6266C51.914 62.3732 51.7839 61.9017 51.9554 61.5304C52.1506 61.1031 52.7008 60.8968 53.171 61.1208C56.8207 63.2602 60.4674 65.3996 64.1171 67.539C65.0724 68.1431 66.3353 67.9722 67.0895 67.1382C67.8496 66.2984 67.8851 65.0165 67.1723 64.1354C63.7592 60.8762 59.311 57.2221 53.7063 53.8539Z" fill="#A1A3A6"/>
<path d="M25.5795 67.4418L26.378 66.3809C27.1648 65.3348 26.9518 63.8525 25.9019 63.0686C24.8519 62.2848 23.3642 62.497 22.5775 63.5431L21.779 64.6039C20.9922 65.6501 21.2052 67.1323 22.2551 67.9162C23.3051 68.7001 24.7928 68.4879 25.5795 67.4418Z" fill="#A1A3A6"/>
<path d="M33.3525 63.5874C32.3025 62.8035 30.8148 63.0157 30.0281 64.0618L25.8283 69.649C25.0416 70.6952 25.2546 72.1774 26.3045 72.9613C27.3545 73.7451 28.8421 73.533 29.6288 72.4868L33.8286 66.8996C34.6154 65.8535 34.4024 64.3712 33.3525 63.5874Z" fill="#A1A3A6"/>
<path d="M37.5012 68.5705C36.4512 67.7867 34.9636 67.9988 34.1768 69.045L31.0862 73.1558C30.2994 74.2019 30.5124 75.6842 31.5623 76.4681C32.6123 77.2519 34.1 77.0398 34.8867 75.9936L37.9774 71.8828C38.7641 70.8366 38.5511 69.3544 37.5012 68.5705Z" fill="#A1A3A6"/>
<path d="M41.7727 73.2501C40.7228 72.4662 39.2351 72.6784 38.4484 73.7245L36.5762 76.2146C35.7895 77.2607 36.0024 78.743 37.0524 79.5269C38.1023 80.3107 39.59 80.0985 40.3767 79.0524L42.2489 76.5623C43.0356 75.5162 42.8226 74.0339 41.7727 73.2501Z" fill="#A1A3A6"/>
<path d="M22.9099 34.891C23.5547 34.891 24.1817 35.0766 24.717 35.4273L27.8639 37.4724L28.9641 38.1915C29.4758 38.5244 29.6681 39.1786 29.4196 39.7327C29.2096 40.2012 28.973 40.714 28.8399 40.9468C28.7689 41.0705 28.8577 41.2296 28.973 41.3092C31.1971 42.8651 32.1376 43.3307 35.1337 43.7698C35.3555 43.8022 35.5803 43.7492 35.7607 43.6195C36.6095 43.0154 38.3634 41.5803 39.4636 40.8731C39.7091 40.7169 39.6647 40.3544 39.3956 40.2483C37.0354 39.3113 34.6664 36.5648 33.7111 33.5001C32.5606 29.7988 33.5336 26.2096 36.4557 23.3953L36.5445 23.3099L36.6421 23.2333C38.0292 22.1341 39.7298 21.5536 41.5606 21.5536C42.8294 21.5536 43.7788 21.8335 44.042 21.9219L44.2845 22.0015L44.5063 22.1282L45.3463 22.6056L45.6184 22.7618C45.8994 22.9239 46.2513 22.7205 46.2513 22.3964V14.0686C46.2513 12.7484 45.1777 11.6787 43.8527 11.6787H37.5412C37.4939 11.664 36.2605 11.3369 36.1866 10.2259C36.0624 8.36349 39.0318 6.32133 37.4613 3.124C34.9562 -1.97109 27.0683 -0.067428 26.0834 3.43048C24.9773 7.35567 27.4794 8.19847 27.7486 8.91455C27.7841 8.97054 28.346 9.93416 27.8521 10.8595C27.577 11.3722 27.1245 11.5991 26.9471 11.6787H15.2586C14.0579 11.6787 13.0818 12.6482 13.0818 13.8476V24.3265C13.0671 25.1782 12.5347 25.912 11.7864 26.1389C10.9228 26.4011 10.1952 25.856 10.1213 25.8C9.25767 25.3078 8.39701 24.8187 7.53339 24.3265C7.3441 24.2647 4.73255 23.4543 2.51139 25.2165C-3.15833 30.6799 2.49069 37.6109 5.11112 38.05C6.70822 38.3182 8.14857 37.4577 8.89093 36.9125C8.97078 36.8182 9.86398 35.775 11.2629 35.8988C11.4138 35.9135 11.5469 35.9371 11.819 36.1257C12.656 36.7121 13.144 37.6816 13.144 38.7013V48.3109C13.144 48.417 13.1528 48.5172 13.1676 48.6203L20.0233 36.5648C20.6119 35.5334 21.718 34.8939 22.907 34.8939L22.9099 34.891Z" fill="#456080"/>
<path d="M76.7332 24.1115C78.3303 23.8433 79.7707 24.7038 80.513 25.2519C80.5929 25.3462 81.4861 26.3894 82.885 26.2656C82.9028 26.2656 82.9175 26.2656 82.9353 26.2597C83.6924 26.1772 84.3076 25.6792 84.5916 25.0161V13.8446C84.5916 12.6482 83.6155 11.6758 82.4148 11.6758H73.2521C73.2048 11.661 71.9715 11.3339 71.8975 10.223C71.7733 8.36057 74.7427 6.3184 73.1723 3.12108C70.6672 -1.97402 62.7793 -0.0703577 61.7944 3.42755C60.6882 7.35274 63.1904 8.19554 63.4595 8.91163C63.495 8.96762 64.0569 9.93123 63.563 10.8565C63.288 11.3693 62.8355 11.5962 62.658 11.6758H50.9696C49.7688 11.6758 48.7928 12.6453 48.7928 13.8446V24.3236C48.778 25.1753 48.2456 25.909 47.4974 26.1359C46.6337 26.3982 45.9062 25.853 45.8322 25.797C44.9686 25.3049 44.108 24.8157 43.2443 24.3236C43.055 24.2617 40.4435 23.4514 38.2223 25.2136C32.5526 30.677 38.2016 37.608 40.8221 38.0471C42.4192 38.3152 43.8595 37.4548 44.6019 36.9067C44.6817 36.8124 45.5749 35.7692 46.9739 35.8929C46.9916 35.8929 47.0064 35.8959 47.0241 35.8988C48.0741 36.0138 48.8549 36.9214 48.8549 37.9734V38.4184C48.8549 39.0608 49.3547 39.5883 49.9965 39.6325C51.0051 39.7062 52.0136 39.8417 53.0014 40.048L53.0783 40.0627L53.1552 40.0834C55.1842 40.6668 57.2752 40.9851 59.3662 41.0352C59.5525 41.0381 59.7359 41.0411 59.9163 41.0411C60.2416 41.0411 60.5699 41.0352 60.8953 41.0204C61.4957 40.9969 62.0132 40.549 62.0665 39.9537C62.1552 38.9724 62.6757 38.0412 63.5542 37.4725L66.6981 35.4303C67.2393 35.0767 67.8663 34.891 68.5111 34.891C69.703 34.891 70.8062 35.5305 71.3977 36.5648L77.727 47.6921V47.6567L78.9603 49.8374C79.1851 50.2323 79.605 50.4769 80.0605 50.4769H82.4177C83.6185 50.4739 84.5945 49.5044 84.5945 48.305V37.2043C84.3993 36.6385 83.9645 36.1906 83.4115 36.0226C82.5478 35.7603 81.8203 36.3055 81.7463 36.3615C80.8827 36.8536 80.0221 37.3428 79.1584 37.8349C78.9692 37.8968 76.3576 38.7072 74.1364 36.945C68.4667 31.4815 74.1157 24.5505 76.7362 24.1115H76.7332Z" fill="#537399"/>
</svg>
