<svg width="88" height="80" viewBox="0 0 88 80" fill="none" xmlns="http://www.w3.org/2000/svg">
<path d="M11.0176 57.9572L18.9887 73.185C19.3578 73.8881 20.2329 74.1461 20.9213 73.7508L24.235 71.8453C24.94 71.4375 25.7695 71.3044 26.5658 71.4625L51.3167 76.4386C53.7056 76.9171 56.1774 76.6633 58.7404 76.0059L85.2498 64.6724C86.5977 64.0983 87.6054 62.875 87.7838 61.4188C87.846 60.8987 87.8087 60.387 87.6386 59.9085C87.0663 58.2609 85.0839 57.2582 83.1803 57.899C76.47 60.154 70.95 62.8293 64.8327 65.2965C64.2811 65.517 63.6839 65.6252 63.0909 65.6086L42.1927 65.0427C41.0439 65.0594 40.2518 64.2896 40.256 63.6905C40.2601 63.0581 41.1601 62.2509 42.4001 62.409C47.8621 62.5713 53.3199 62.7336 58.7819 62.8958C60.9094 63.212 62.8296 62.0512 63.3439 60.4702C63.9825 58.5022 62.4646 55.827 59.6818 55.4068C54.0374 54.4581 48.3929 53.5095 42.7485 52.5651C37.7012 51.0381 36.5732 49.1118 30.825 48.7872C26.0681 48.521 22.3107 49.6693 20.2163 50.4848C17.363 52.2156 14.5096 53.9464 11.6522 55.673C10.8725 56.1473 10.5946 57.15 11.0176 57.9572Z" fill="#A1A3A6"/>
<path d="M7.73291 58.2483L16.6413 75.8144C16.9813 76.4842 16.7449 77.2997 16.1021 77.6825L12.5479 79.8002C11.8636 80.208 10.9802 79.9708 10.5904 79.276L1.0392 62.3257C0.670089 61.6725 0.873307 60.8404 1.50369 60.4326L5.70074 57.6991C6.40578 57.2414 7.35136 57.4952 7.73291 58.2483Z" fill="#A1A3A6"/>
<path d="M66.4741 58.8558V61.1234C66.4741 61.4104 66.7727 61.5935 67.0257 61.4645C68.6307 60.6407 70.3518 59.8211 72.1932 59.0306C75.0631 57.7949 77.7962 56.8088 80.3302 56.0141C79.9777 55.7895 79.6293 55.5648 79.2768 55.3401C78.9035 55.2361 78.3851 55.1404 77.7755 55.1487C76.9253 55.1612 76.2493 55.3734 75.8221 55.5481C72.7946 56.53 69.7671 57.5119 66.7354 58.498C66.5778 58.5479 66.4741 58.6936 66.4741 58.8558Z" fill="#A1A3A6"/>
<path d="M65.4256 55.9892C66.6698 55.5232 68.0093 55.0781 69.4484 54.6578C71.2359 54.1378 72.9322 53.7342 74.5123 53.4263C74.4252 53.2848 74.2883 53.0976 74.081 52.9229C73.7658 52.6566 73.4423 52.5401 73.2515 52.4902C72.9902 52.4361 72.6958 52.3903 72.3723 52.3695C71.717 52.3279 71.1488 52.3986 70.7134 52.4902C68.6231 53.0102 66.5329 53.5261 64.4427 54.0462C64.2104 54.1045 64.115 54.3874 64.2685 54.5705L65.4256 55.9892Z" fill="#A1A3A6"/>
<path d="M49.318 23.9235C55.9031 23.9235 61.2414 18.568 61.2414 11.9617C61.2414 5.35545 55.9031 0 49.318 0C42.7328 0 37.3945 5.35545 37.3945 11.9617C37.3945 18.568 42.7328 23.9235 49.318 23.9235Z" fill="#537399"/>
<path d="M35.5805 45.2799H63.811C67.162 45.2799 70.1315 42.8792 70.6043 39.5507C70.6665 39.1264 70.6872 38.6937 70.6665 38.2526C70.2601 30.0563 57.5652 26.6903 49.2292 26.811C41.4655 26.9233 35.7132 29.6444 32.9884 31.1547C30.1641 32.6982 28.4928 35.7147 28.7292 38.831C28.8121 39.8961 29.1024 40.8239 29.5006 41.6227C30.6411 43.9027 33.0382 45.2757 35.5805 45.2757V45.2799Z" fill="#456080"/>
</svg>
