<svg width="1031" height="536" viewBox="0 0 1031 536" fill="none" xmlns="http://www.w3.org/2000/svg">
<g clip-path="url(#clip0_1970_218350)">
<rect width="1030" height="536" transform="translate(0.171875)" fill="#525457"/>
<g opacity="0.12">
<path d="M-38.8155 112.881L151.363 -27.614L35.8466 -230.952" fill="#688173"/>
<path d="M-38.8107 112.883L319.996 291.443L151.368 -27.6128" fill="#566B5F"/>
<path d="M151.368 -27.6132L319.996 291.443L251.769 -108.173" fill="#4B5E53"/>
<path d="M705.461 -49.622L690.958 77.7236L597.196 -59.7266L705.461 -49.622Z" fill="#4B5E53"/>
<path d="M394.762 167.143L547.559 -66.6474L251.77 -108.173" fill="#7B9586"/>
<path d="M251.774 -108.173L394.766 167.142L320.002 291.443L251.774 -108.173Z" fill="#688173"/>
<path d="M446.341 266.113L394.762 167.143L547.559 -66.6465L446.341 266.113Z" fill="#4B5E53"/>
<path d="M319.997 291.442L446.34 266.112L394.761 167.142" fill="#7B9586"/>
<path d="M13.182 269.433L19.7188 141.949L-38.8058 112.881" fill="#4B5E53"/>
<path d="M13.177 269.433L319.996 291.442L19.7138 141.949" fill="#7B9586"/>
<path d="M597.207 -59.7255L690.969 77.7246L547.569 -66.6465L597.207 -59.7255Z" fill="#566B5F"/>
<path d="M547.569 -66.6465L690.969 77.7246L446.351 266.113L547.569 -66.6465Z" fill="#688173"/>
<path d="M446.351 266.111L690.969 77.7227L678.406 210.19L446.351 266.111Z" fill="#7B9586"/>
<path d="M678.397 210.19L690.96 77.7227L768.277 188.596L678.397 210.19Z" fill="#688173"/>
<path d="M690.96 77.7228L705.463 -49.6228L768.277 188.596L690.96 77.7228Z" fill="#7B9586"/>
<path d="M705.465 -49.6228L768.688 -18.3401L768.279 188.596" fill="#688173"/>
<path d="M557.867 479.277L446.334 266.111L319.991 291.442" fill="#566B5F"/>
<path d="M768.277 188.597L511.607 390.827L446.342 266.111L768.277 188.597Z" fill="#4B5E53"/>
<path d="M768.277 188.597L557.875 479.277L511.607 390.827L768.277 188.597Z" fill="#7B9586"/>
<path d="M479.531 417.404L364.219 510.836L319.993 291.442L479.531 417.404Z" fill="#4B5E53"/>
<path d="M364.215 510.836L319.99 291.442L322.543 535.613" fill="#7B9586"/>
<path d="M137.784 391.658L319.996 291.443L13.177 269.434" fill="#566B5F"/>
<path d="M137.789 391.658L322.555 535.613L320.001 291.442" fill="#688173"/>
<path d="M2.44991 462.529L137.781 391.658L13.1743 269.434" fill="#4B5E53"/>
<path d="M-159.023 338.782L5.7237 402.593L13.1797 269.434" fill="#566B5F"/>
<path d="M-159.028 338.781L2.45036 462.528L5.71875 402.593" fill="#7B9586"/>
<path d="M768.686 -18.3396L1003.5 -80.905L1055.08 82.0142" fill="#4B5E53"/>
<path d="M768.686 -18.3389L1055.08 82.0149L1032.51 111.913" fill="#566B5F"/>
<path d="M768.688 -18.3389L1032.51 111.913L768.28 188.598" fill="#7B9586"/>
<path d="M768.28 188.597L1032.51 111.913L904.939 285.905L768.28 188.597Z" fill="#566B5F"/>
<path d="M768.282 188.597L904.941 285.905L689.433 577.001L768.282 188.597Z" fill="#4B5E53"/>
<path d="M768.277 188.597L689.428 577.001L557.875 479.277L768.277 188.597Z" fill="#688173"/>
<path d="M1046.29 383.629L904.936 285.905L1032.5 111.913" fill="#4B5E53"/>
<path d="M1046.29 383.63L689.427 577.001L904.936 285.906" fill="#688173"/>
<path d="M1176.83 471.665L799.33 639.429L1046.3 383.63" fill="#4B5E53"/>
<path d="M1046.29 383.63L799.326 639.429L689.427 577.002" fill="#7B9586"/>
<path d="M479.528 417.403L557.867 479.276L364.216 510.836L479.528 417.403Z" fill="#7B9586"/>
<path d="M412.431 617.558L689.426 577.001L557.874 479.277" fill="#7B9586"/>
<path d="M364.216 510.837L412.424 617.558L557.867 479.277" fill="#688173"/>
<path d="M322.555 535.613L70.6852 426.815L137.789 391.657L322.555 535.613Z" fill="#566B5F"/>
<path d="M412.434 617.557L322.553 535.613L364.225 510.836" fill="#566B5F"/>
<path d="M322.555 535.614L2.45785 462.529L70.6852 426.817" fill="#7B9586"/>
<path d="M2.45703 462.528L-159.021 338.781L-235.828 380.307" fill="#4B5E53"/>
<path d="M1181.11 577.97L799.326 639.428L1176.82 471.664" fill="#7B9586"/>
<path d="M288.543 785.184L190.185 706.7L322.555 535.614" fill="#688173"/>
<path d="M190.188 706.7L-130.726 625.448L2.46011 462.528" fill="#4B5E53"/>
<path d="M-130.729 625.447L-145.539 535.06L2.45703 462.528" fill="#688173"/>
<path d="M322.555 535.614L190.185 706.7L2.45785 462.528" fill="#566B5F"/>
<path d="M322.553 535.614L412.434 617.558L288.541 785.184" fill="#566B5F"/>
</g>
<path opacity="0.5" d="M717.16 504.065C847.393 504.065 952.968 398.404 952.968 268.065C952.968 137.726 847.393 32.0652 717.16 32.0652C586.927 32.0652 481.352 137.726 481.352 268.065C481.352 398.404 586.927 504.065 717.16 504.065Z" fill="#91A79A"/>
<path d="M559.599 424.651C565.028 420.811 566.019 420.719 569.576 416.938C574.905 411.263 576.692 407.675 578.513 401.74C578.865 400.592 579.654 398.102 581.945 396.023C585.88 392.46 588.003 393.491 591.67 393.097C593.516 392.904 595.001 392.477 596.176 391.932C605.65 387.548 605.683 376.407 606.145 371.88C606.858 365.392 608.15 363.564 610.525 358.45C612.555 354.083 614.863 350.529 616.952 347.754C617.674 346.798 618.521 345.968 619.411 345.172C621.249 343.52 622.214 341.073 621.945 338.6C621.609 335.548 620.116 334.693 616.482 332.078L609.275 326.151C608.469 325.489 607.94 324.558 607.781 323.535L607.496 321.666C607.353 320.761 606.917 319.914 606.245 319.294C602.889 316.167 599.356 313.233 596.184 309.921C595.312 309.016 594.54 307.893 592.098 307.515C589.841 307.172 589.665 307.423 587.835 307.868C584.202 308.756 580.3 309.301 576.583 309.745C576.029 309.812 575.542 309.326 575.66 308.781C575.777 308.22 575.719 307.641 575.467 307.13C575.047 306.292 574.166 305.747 573.193 305.696C572.748 305.68 572.446 305.244 572.538 304.808C573.47 300.692 574.829 297.825 575.391 293.399C575.66 291.043 575.677 290.397 575.601 289.702C575.131 285.074 569.962 282.719 569.492 282.509L554.791 274.302C553.189 273.405 551.88 272.072 551.015 270.454L548.129 265.022C547.466 263.773 546.509 262.7 545.343 261.904C540.434 258.534 535.534 255.155 530.625 251.786C530.038 251.358 527.806 249.849 524.684 250.092C521.017 250.386 520.203 251.76 518.508 253.328C517.728 254.049 516.033 255.298 513.549 255.86C511.082 256.421 508.968 256.019 507.65 255.608C507.348 255.516 507.138 255.508 506.929 255.617C506.467 255.86 505.905 255.6 505.704 255.122L505.527 254.703C505.334 254.242 505.234 253.747 505.217 253.253L504.973 239.949C504.881 233.871 503.589 235.229 501.869 233.544C501.399 233.083 501.206 231.96 501.139 230.677C501.088 229.738 501.466 229.101 501.751 228.59C504.067 224.356 504.151 219.905 505.225 214.976C505.427 214.071 505.552 213.459 505.015 212.981C504.445 212.478 503.623 212.662 502.926 213.123C499.469 215.403 498.529 217.7 497.145 221.431C496.935 221.825 495.995 223.443 493.973 224.105C493.469 224.273 492.991 224.348 492.555 224.373C491.665 224.423 491.036 223.518 491.405 222.705L507.054 189.039C507.382 188.326 508.305 188.134 508.892 188.637C509.152 188.855 509.412 189.081 509.672 189.299C510.369 189.894 511.46 189.559 511.695 188.67C511.753 188.452 511.812 188.268 511.879 188.092C513.096 185.015 517.417 183.188 522.645 183.598C524.265 183.716 525.85 184.504 528.544 183.196C530.281 182.349 531.313 181.075 532.572 179.583C547.508 165.072 560.791 152.179 575.735 137.668C577.12 135.924 579.528 134.323 581.651 135.17C583.455 135.891 584.596 137.819 584.437 139.856C584.387 140.543 584.898 141.139 585.578 141.206C587.995 141.466 588.129 141.667 590.529 142.069C595.882 142.958 597.896 142.203 598.517 140.476C598.987 139.169 598.19 138.247 596.805 136.344C594.909 133.745 592.627 131.465 590.529 129.017C590.302 128.841 587.491 126.535 587.995 124.582C588.481 122.679 594.473 121.564 597.812 122.939L601.874 125.236C604.198 126.695 606.296 126.401 606.346 125.915C606.489 124.649 603.871 123.283 605.465 122.813C607.185 122.31 612.48 121.388 617.338 119.293C621.626 117.44 624.89 115.118 627.24 113.24C628.415 111.874 631.226 109.929 626.25 110.49C624.42 110.633 621.819 109.158 620.754 106.022C619.931 103.608 620.544 101.269 623.363 98.3603C623.69 98.025 623.372 97.4633 622.91 97.522L611.137 99.9028C610.239 100.045 609.686 99.819 609.761 98.9136L609.988 96.2059C610.147 94.4036 609.493 93.406 608.385 92.8192C606.866 92.0228 604.76 92.5006 603.099 93.8251C601.462 95.091 601.848 94.6802 600.036 96.164C598.425 97.4885 596.629 100.129 595.354 100.766C594.38 101.236 593.298 101.403 592.232 101.261L590.327 101.009C589.95 100.959 589.581 101.185 589.463 101.546L588.742 103.675C588.272 105.058 587.374 106.257 586.182 107.104C582.616 109.627 575.492 114.338 574.502 115.001C573.646 115.571 572.941 116.333 572.429 117.222C570.315 120.877 568.603 123.677 568.091 123.467C567.428 123.191 566.396 121.263 569.887 113.416C569.996 113.165 569.795 112.896 569.526 112.938C564.693 113.718 561.135 111.396 560.858 109.225C560.631 107.439 562.545 105.226 565.372 103.943C576.348 98.6873 588.909 95.9125 598.291 88.1666C599.105 87.496 599.675 86.6661 599.415 85.3499C599.096 83.7069 597.51 81.7201 593.634 82.8854L567.487 96.8179C566.732 97.2202 565.826 97.2202 565.07 96.8262L558.374 93.3222C520.153 128.019 493.369 175.073 484.34 228.162L488.275 226.134C488.762 229.328 489.249 232.521 489.735 235.715C489.853 236.478 490.507 237.031 491.279 237.065C491.43 237.065 491.565 237.09 491.69 237.107C492.278 237.199 495.273 238.867 495.794 242.288C496.591 247.359 497.531 250.847 499.461 255.147C501.575 259.875 503.824 262.7 505.871 264.72C507.054 265.886 507.533 267.596 507.096 269.197C502.7 280.313 507.592 278.812 502.934 284.538C502.599 284.907 500.434 287.354 501.005 290.456C501.198 291.512 501.642 292.317 501.995 292.803C502.859 294.036 503.195 294.581 503.077 295.763C502.943 297.104 501.709 297.883 501.432 298.059C499.427 299.669 497.463 301.237 497.707 306.107C497.858 309.083 499.385 311.179 500.535 312.361C501.483 313.325 502.23 314.473 502.75 315.722C504.395 319.679 506.048 323.628 507.692 327.584C508.129 328.632 508.363 329.756 508.405 330.896C508.515 333.964 509.01 337.887 510.486 342.204C513.029 349.64 517.275 354.728 520.22 357.637C521.151 358.559 521.319 359.741 521.63 360.362C523.921 366.674 524.844 365.702 525.397 370.622C525.783 374.051 525.162 377.354 524.743 379.19C523.568 385.871 523.811 388.663 525.037 395.084C526.614 403.375 531.431 412.521 535.29 418.481C542.121 426.705 549.497 434.459 557.367 441.685C557.25 435.49 554.884 427.962 559.591 424.634L559.599 424.651Z" fill="#7B9586"/>
<path d="M635.592 76.02C633.519 75.7182 632.118 76.02 631.002 76.3134C630.566 76.4308 630.112 76.4475 629.668 76.3888C628.417 76.2212 625.682 76.129 623.819 78.0487C623.089 78.8031 622.712 79.6498 622.502 80.3037L620.328 84.2772C619.984 84.9059 619.397 85.3586 618.701 85.5179C617.383 85.8113 616.955 86.4568 616.863 86.5993C615.923 88.1082 617.123 91.2519 620.589 93.6829C626.336 94.538 627.411 94.3871 630.524 94.0937C631.312 94.0182 632.051 93.6578 632.588 93.0793L640.341 84.7718C640.71 84.3694 640.979 83.8832 641.096 83.3551C641.222 82.7934 641.315 82.1479 641.348 81.4354C641.415 79.8762 641.826 79.1133 640.878 77.7301C639.838 77.1852 637.681 76.3302 635.592 76.0284V76.02Z" fill="#7B9586"/>
<path d="M691.808 93.2978C691.917 93.3146 692.017 93.3481 692.126 93.3817C693.217 93.784 694.862 94.2116 696.834 94.1026C701.055 93.8679 703.899 91.3446 704.948 90.28C705.124 90.0955 705.342 89.9614 705.577 89.8692C715.714 85.8873 716.821 88.3519 720.497 88.9806C722.091 89.2572 723.61 89.9446 725.221 90.1039C729.844 90.5566 732.991 90.6488 735.173 90.5566C737.27 90.4644 738.37 87.9998 737.027 86.3903C736.171 85.3675 735.45 83.9927 735.215 82.1904C735.206 82.1149 735.198 82.0395 735.198 81.9641C735.181 80.5725 736.843 79.7761 737.992 80.5725C738.361 80.824 738.814 81.0755 739.351 81.2683C741.5 82.0144 743.438 81.2096 744.05 80.9162C744.109 80.8826 744.176 80.8575 744.243 80.8324C750.856 78.4097 758.282 77.2109 764.323 73.9248C765.028 73.5392 764.827 72.4745 764.038 72.3572C756.352 70.9572 748.456 69.6327 740.35 68.4088C731.413 67.0507 722.678 65.8771 714.161 64.8628C712.139 64.6197 710.117 64.4688 708.086 64.3766C698.202 63.9239 687.797 63.7562 676.913 63.9742C670.956 64.0916 665.158 64.3179 659.519 64.6281C657.74 64.7287 656.372 66.2208 656.422 67.9896L656.716 78.8456C656.741 79.7593 657.438 80.5138 658.344 80.6228C666.836 81.6036 671.098 82.7185 671.132 83.9676C671.166 85.1328 667.507 86.407 660.148 87.7986C660.005 87.8238 659.854 87.8657 659.72 87.9327C655.416 89.886 655.441 94.5134 656.431 97.3468C657.891 101.513 665.166 104.472 672.961 100.968C673.096 100.91 673.23 100.826 673.347 100.734C684.147 92.3086 686.815 92.426 691.824 93.3146L691.808 93.2978Z" fill="#7B9586"/>
<path d="M631.484 125.135L626.785 122.201C626.324 121.237 625.711 120.759 625.35 120.525C623.756 120.206 621.6 120.34 619.242 121.355C615.978 122.503 614.19 121.405 612.806 122.905C611.505 124.314 610.767 124.976 610.364 125.722C608.317 126.074 607.049 126.166 606.982 127.156C606.94 127.742 607.595 128.187 609.735 129.947C614.341 134.549 616.07 132.387 618.688 130.794C621.767 128.916 622.103 127.751 625.468 127.013C626.29 126.829 627.071 126.745 627.767 126.72C628.187 126.703 628.598 126.653 629.009 126.552C629.789 126.359 630.57 126.175 631.358 125.982C631.761 125.881 631.845 125.353 631.493 125.135H631.484Z" fill="#7B9586"/>
<path d="M915.541 140.016H909.718C903.953 139.781 898.868 133.796 897.265 131.708C896.804 131.105 896.283 130.543 895.713 130.04C893.825 128.38 890.72 126.159 886.382 124.868C882.572 123.736 879.258 123.761 877.152 123.954C875.784 124.113 872.671 124.39 872.428 123.602C872.167 122.764 879.568 118.17 883 115.898C883.344 115.672 883.168 115.135 882.757 115.16L875.004 115.579C874.207 115.621 872.411 115.336 871.765 114.875C871.765 114.875 859.463 108.152 846.885 95.6194C844.813 93.5572 842.446 93.0459 836.279 98.3271C830.002 105.159 822.895 106.76 820.747 102.602C819.715 100.616 815.981 101.001 815.981 101.001C805.761 102.058 802.958 110.39 804.091 113.534C805.391 117.13 811.425 116.677 814.143 117.197C817.953 118.513 819.01 121.028 818.372 122.688C817.768 124.256 816.442 124.365 814.429 124.516C804.594 125.253 797.378 124.742 788.559 124.792C788.047 124.792 787.552 124.926 787.107 125.186L777.969 130.451C777.407 130.769 777.315 131.532 777.76 131.993C778.288 132.546 778.876 133.326 779.287 134.374C780.151 136.595 779.765 138.599 779.463 139.161C776.392 144.861 775.41 148.642 775.972 153.42C776.014 153.797 775.653 154.091 775.301 153.965C774.218 152.808 766.02 144.283 758.317 146.588H758.292C756.933 147.007 755.674 147.887 755.464 149.455C752.561 171.368 752.863 174.956 758.393 177.731C759.475 178.276 761.724 179.005 765.693 177.664C766.398 177.42 767.145 177.32 767.892 177.32H774.722C775.284 177.32 775.796 177.01 776.048 176.507C776.971 174.671 778.49 172.231 780.948 169.926C785.169 165.961 789.776 164.586 792.016 164.083C801.112 162.532 799.618 160.252 806.851 161.476C810.921 162.163 814.395 163.379 815.696 165.064C821.125 172.106 824.716 175.015 829.23 179.994C829.49 180.371 830.9 181.486 831.697 181.788C833.342 182.417 834.575 179.676 836.388 178.862C838.116 178.091 838.586 179.525 838.964 179.986L843.193 186.038C843.722 187.48 844.208 188.084 845.308 188.327C846.457 188.578 847.07 186.977 848.27 187.027C849.965 187.094 849.394 186.994 850.527 188.293C851.123 190.339 851.282 190.531 852.18 190.548C853.103 190.565 853.875 189.576 853.908 188.293C853.967 186.038 856.594 186.097 859.757 187.17C862.921 188.142 866.378 187.103 868.467 184.563C870.598 181.956 870.892 178.276 869.205 175.342C866.822 167.998 874.953 167.487 877.454 170.261C880.491 175.124 882.489 177.362 883.445 176.985C883.831 176.834 884.041 176.188 884.083 175.182C884.116 174.411 884.385 173.648 884.939 173.103C885.652 172.391 886.743 172.139 887.884 175.752L893.665 190.255C894.37 192.015 894.723 193.415 893.808 194.061C893.053 194.589 892.088 193.6 890.703 193.357C863.139 188.486 857.978 194.58 872.805 201.371C874.248 202.033 875.826 202.351 877.412 202.343C879.174 202.335 881.758 202.712 883.512 204.699C884.276 205.562 884.687 206.509 884.922 207.306C885.132 211.875 885.341 216.452 885.56 221.02C885.602 221.833 884.947 222.521 884.133 222.521H869.575C869.038 222.521 868.626 222.982 868.677 223.51L869.348 229.973C869.398 230.426 869.633 230.837 870.011 231.097L880.978 238.801C885.677 241.986 901.041 283.817 901.041 283.817C903.869 292.41 904.649 293.944 905.656 293.994C906.512 294.036 906.521 291.957 908.056 290.968C912.638 288.009 915.197 288.528 920.366 287.237C926.483 285.527 931.266 280.942 932.659 275.191C934.505 267.546 929.974 259.213 921.776 255.407C915.247 252.373 911.228 250.964 912.78 243.78C914.047 241.542 918.092 238.742 923.143 243.923C926.206 247.066 928.572 250.864 930.838 252.104C931.66 252.557 932.424 253.102 933.02 253.815C933.867 254.829 934.765 255.793 935.755 256.673C936.879 257.679 938.071 258.911 939.221 260.404C942.879 265.173 944.113 270.069 944.574 272.894C945.64 288.243 946.714 303.601 947.779 318.95C951.404 302.528 953.309 285.469 953.309 267.965C953.309 220.794 939.447 176.85 915.574 139.991L915.541 140.016Z" fill="#7B9586"/>
<path d="M854.094 375.359C854.547 373.716 855.168 372.123 855.898 370.589C858.684 364.737 860.916 360.756 861.638 360.253C862.98 359.322 863.467 360.043 865.976 358.911C868.275 357.176 870.197 354.837 872.496 353.102C877.086 349.589 884.906 342.464 888.708 331.03C889.664 328.163 890.503 327.618 890.537 322.965C890.302 321.926 890.117 320.358 890.57 318.598C891.074 316.653 892.106 315.378 892.651 314.792C893.851 313.467 894.925 311.489 896.335 309.284C897.182 307.96 897.585 307.113 897.375 306.66C896.511 305.311 895.58 306.417 890.965 305.78C890.251 305.596 889.572 305.369 888.917 305.109C878.496 300.935 880.04 288.176 873.964 281.838C873.251 281.251 872.278 280.287 871.439 278.904C869.265 275.341 869.618 271.645 869.819 270.286C870.063 268.157 870.423 264.234 869.559 260.193C868.77 256.513 868.107 255.105 866.496 252.313C865.976 251.408 865.607 250.419 865.422 249.388C864.155 242.43 861.487 237.752 861.713 236.235C861.848 235.329 862.276 234.483 862.905 233.812C863.291 233.401 863.71 232.949 864.021 232.613C864.231 232.379 864.399 232.11 864.491 231.809C865.171 229.663 865.271 227.927 865.162 226.838C865.078 225.932 864.885 225.127 864.667 224.44C864.264 223.208 863.266 222.26 862.015 221.9C853.792 219.553 848.229 216.786 840.006 214.439C839.225 214.213 838.504 213.819 837.891 213.274C837.17 212.98 836.288 212.536 835.382 211.849C833.738 210.608 832.789 209.166 832.278 208.236C830.927 206.274 829.592 205.285 828.602 207.448C827.62 209.594 826.681 211.614 826.681 211.614C825.791 213.4 825.917 215.353 825.128 215.889C823.886 216.728 822.703 216.166 820.194 214.531C818.374 213.341 816.838 212.645 815.932 211.941C813.633 210.147 810.989 207.364 809.63 203.382C809.496 202.98 809.311 202.602 809.009 202.326C808.397 201.764 807.457 201.622 806.618 201.94C805.611 202.317 804.486 202.317 803.446 202.049C803.421 202.049 803.404 202.041 803.379 202.032C802.389 201.772 801.264 201.345 800.131 200.632C798.059 199.333 796.758 197.614 795.961 196.131C795.457 195.209 795.181 194.177 795.13 193.13C795.004 190.288 794.073 183.581 787.083 183.984L768.505 183.783L749.986 183.12C741.62 183.028 738.709 180.429 730.905 187.379C728.304 189.693 726.768 192.35 725.854 194.597C724.847 197.061 722.715 198.88 720.122 199.492C715.591 200.549 708.702 203.29 704.179 210.373C700.269 216.501 700.085 222.814 700.513 226.77C700.739 228.875 699.69 230.928 697.819 231.909C694.89 233.443 692.877 235.715 692.482 238.322C692.44 238.582 692.415 238.875 692.407 239.194C692.39 240.502 692.096 241.793 691.459 242.933C689.696 246.118 687.733 250.905 687.615 256.84C687.582 258.416 687.691 259.875 687.867 261.208C688.027 262.373 688.11 263.555 688.11 264.729V286.114C688.11 287.405 688.731 288.62 689.78 289.375L708.971 303.24C709.801 303.693 712.218 304.875 715.381 304.439C719.46 303.877 720.139 301.572 722.22 300.423C729.495 296.341 732.088 297.338 734.555 297.774C741.646 299.401 750.649 302.284 756.053 300.985C757.026 300.733 758.008 301.052 758.52 301.756C758.948 302.351 758.898 303.022 758.872 303.232C758.83 303.525 758.386 307.306 761.272 309.829C763.471 311.749 766.408 311.036 769.445 310.835C770.116 310.793 774.077 311.447 775.931 315.345C777.266 318.153 776.737 320.718 776.217 321.397C772.877 325.815 771.879 329.889 773.33 331.398C773.641 331.717 774.262 331.7 775.512 332.103C776.15 332.304 776.435 332.782 776.359 333.863C776.292 334.768 775.604 335.271 775.512 335.338C774.438 336.135 773.985 337.526 774.388 338.792C774.774 340.024 776.166 340.192 777.207 340.972C778.717 342.103 778.961 343.562 779.179 346.186C779.355 348.307 778.818 349.967 778.474 350.83C776.242 354.058 773.154 359.389 771.425 366.607C770.561 370.237 770.226 373.573 770.158 376.423C770.091 379.575 769.848 382.727 769.311 385.837C768.724 389.182 768.338 393.122 768.463 397.523C768.598 402.092 769.252 406.066 770.016 409.285C772.038 420.836 774.06 432.38 776.074 443.931C776.636 446.639 776.813 447.871 778.398 449.28C780.815 451.132 784.75 450.822 787.494 448.156C800.568 437.418 807.188 435.984 810.679 435.238C813.045 434.735 815.294 434.467 817.383 434.35C817.744 434.325 821.151 433.998 823.089 430.896C824.994 427.844 823.861 424.701 823.727 424.349C823.358 423.72 823.341 422.949 823.693 422.345C824.113 421.616 824.961 421.448 825.842 421.398C828.199 421.255 828.988 420.317 830.843 418.12C832.865 415.739 833.226 413.174 833.31 412.244C833.318 411.422 833.402 410.131 833.771 408.614C834.87 404.07 837.673 401.111 839.234 399.703C852.626 385.938 852.911 379.206 853.507 377.345C853.725 376.666 853.918 376.004 854.103 375.334L854.094 375.359Z" fill="#7B9586"/>
<path d="M894.955 389.728L895.022 387.775C895.039 387.356 894.569 387.096 894.225 387.339L891.59 389.158C891.238 389.401 890.751 389.359 890.441 389.057L887.437 386.107C887.151 385.822 886.656 385.989 886.606 386.392C886.161 389.519 886.497 391.941 885.263 395.781C884.542 398.019 883.006 400.752 880.825 403.669C879.004 406.092 877.132 407.944 875.538 409.302C875.538 409.302 854.955 422.824 854.955 423.386C853.017 424.417 851.934 426.555 852.278 428.667C852.589 430.62 854.057 432.23 856.012 432.749C861.122 433.487 863.698 432.255 866.937 428.944C867.281 428.592 868.238 427.829 869.69 427.602C871.678 427.301 873.13 428.34 873.499 428.516C875.933 429.715 879.222 429.505 883.3 426.471C887.47 423.369 889.115 416.579 887.462 411.893C887.126 410.945 887.386 408.187 889.081 405.413C890.6 402.923 891.968 401.682 893.596 401.255C895.459 400.768 897.204 399.989 897.758 398.228C898.144 396.979 897.724 394.607 896.214 392.972C895.391 392.084 894.93 390.919 894.972 389.711L894.955 389.728Z" fill="#7B9586"/>
<path d="M997.284 425.364L994.676 394.472C994.567 393.186 994.013 391.985 993.099 391.078L990.524 388.498C988.972 386.944 988.746 384.508 989.987 382.693L994.81 375.627C995.657 374.384 996.034 372.88 995.858 371.385C996.823 351.784 993.149 328.251 990.272 321.967C990.105 321.606 989.677 320.161 988.813 318.926C988.796 318.901 988.779 318.884 988.763 318.867L986.414 316.514C986.037 316.136 985.76 315.658 985.626 315.137L975.352 275.473C975.159 274.717 976.039 274.146 976.643 274.633L982.799 279.565C985.248 281.816 989.987 282.825 990.465 276.33C990.667 273.566 991.17 269.643 991.371 266.887C991.799 261.913 991.899 260.804 990.465 259.964C983.848 256.125 975.955 255.167 968.659 252.873C968.306 252.764 967.988 252.571 967.728 252.319L967.627 252.168C966.981 250.445 966.855 245.547 957.437 240.313C956.631 239.868 955.784 239.473 954.912 239.154C943.178 234.785 938.851 233.105 923.469 230.71C922.445 230.551 921.481 230.088 920.718 229.391L915.87 224.989C914.125 223.401 912.129 222.107 909.948 221.191C869.749 204.304 819.602 192.047 782.396 189.845C780.769 189.753 779.31 190.82 778.924 192.408C778.916 192.45 778.907 192.492 778.89 192.534C778.748 193.139 778.035 193.626 777.523 193.265C772.776 189.963 764.85 187.686 761.009 186.905C760.003 186.703 758.963 186.72 757.964 186.964C651.951 213.084 551.959 237.734 440.074 265.299C438.38 265.719 437.172 267.257 437.172 269.021V395.95C437.172 397.496 438.422 398.748 439.965 398.748H441.382C443.236 398.748 444.737 400.252 444.737 402.109V415.207C444.737 416.5 445.769 417.551 447.06 417.576L493.089 418.408C494.188 418.424 495.127 419.197 495.354 420.273L496.78 426.927C497.157 428.288 497.669 430.161 499.606 431.674C501.678 433.287 504.076 432.656 505.083 432.278C507.934 438.109 512.212 441.957 517.026 442.352C517.068 442.36 517.102 442.385 517.144 442.385H517.538C517.638 442.385 517.747 442.385 517.848 442.385C518.133 442.385 518.427 442.369 518.712 442.352L529.33 442.133C530.907 442.1 532.408 441.47 533.54 440.369C535.436 438.521 538.153 435.421 540.217 431.573C543.052 438.269 547.706 442.89 553.083 443.696C553.116 443.696 553.141 443.721 553.175 443.721H553.309C553.787 443.788 554.274 443.822 554.768 443.822C555.213 443.822 555.649 443.788 556.085 443.738L568.07 443.814C569.597 443.822 571.081 443.31 572.247 442.327C575.074 439.957 579.452 434.849 582.169 424.373C582.22 424.188 582.379 424.062 582.572 424.062C599.288 424.557 616.724 425.062 633.44 425.557C633.658 425.557 633.834 425.742 633.834 425.969V434.866C633.834 435.093 634.01 435.269 634.237 435.278L682.128 436.168C682.354 436.168 682.547 435.992 682.547 435.757V423.566C682.547 423.331 682.74 423.146 682.975 423.154L715.031 424.389C715.249 424.398 715.425 424.583 715.425 424.801V436.731C715.425 436.958 715.601 437.135 715.827 437.143L778.337 438.143C778.563 438.143 778.756 437.958 778.756 437.731V428.136C778.756 427.884 778.991 427.691 779.234 427.733L780.836 428.027C780.887 428.036 780.92 428.069 780.97 428.103C780.97 428.246 780.962 428.389 780.962 428.531C780.962 448.325 793.618 465.263 811.978 465.263C812.07 465.263 812.313 465.271 812.338 465.271L836.284 464.372C838.137 464.372 839.924 463.717 841.333 462.507C842.767 461.28 847.288 457.39 849.779 452.996C850.299 452.089 851.255 451.518 852.303 451.535C860.716 451.703 868.558 451.862 876.928 452.03C878.421 452.064 879.57 453.307 879.604 454.803C879.629 456.139 880.828 457.147 882.153 456.937L940.788 447.712C940.788 447.712 942.122 454.357 944.948 454.374L958.955 453.501C961.244 453.358 963.308 452.081 964.499 450.123C966.193 447.317 966.797 444.763 967.191 443.57C975.326 442.293 983.47 441.008 991.606 439.731C996.529 438.916 997.989 437.504 997.334 425.381L997.284 425.364Z" fill="#566B5F"/>
<path d="M503.402 392.808H474.517C474.131 392.808 473.795 393.043 473.653 393.404L470.432 401.892C470.264 402.345 469.828 402.639 469.342 402.639H467.522C467.077 402.639 466.708 402.27 466.716 401.825L466.901 391.449C466.901 391.256 466.75 391.089 466.549 391.089H464.217C464.024 391.089 463.873 391.24 463.865 391.424L463.504 401.842C463.487 402.287 463.127 402.631 462.682 402.631H448.097C447.694 402.631 447.367 402.958 447.367 403.36V411.656C447.367 412.05 447.678 412.369 448.072 412.386L496.357 414.147C496.759 414.164 497.095 413.854 497.112 413.451L497.64 402.849C497.665 402.37 497.279 401.968 496.801 401.968H490.167C489.764 401.968 489.488 401.557 489.647 401.188L492.096 395.476C492.247 395.132 492.582 394.914 492.952 394.914H503.402C503.586 394.914 503.729 394.771 503.729 394.586V393.127C503.729 392.942 503.586 392.8 503.402 392.8V392.808ZM489.404 395.325L486.837 401.641C486.653 402.094 486.217 402.396 485.722 402.404L473.141 402.631C472.822 402.631 472.596 402.312 472.713 402.01L475.506 395.148C475.649 394.805 475.984 394.578 476.353 394.578H488.892C489.278 394.578 489.546 394.972 489.395 395.333L489.404 395.325Z" fill="#91A79A"/>
<path d="M516.32 431.46C521.355 431.46 525.437 423.874 525.437 414.516C525.437 405.158 521.355 397.572 516.32 397.572C511.285 397.572 507.203 405.158 507.203 414.516C507.203 423.874 511.285 431.46 516.32 431.46Z" fill="#91A79A"/>
<path d="M553.718 433.993C558.754 433.993 562.835 426.072 562.835 416.302C562.835 406.532 558.754 398.612 553.718 398.612C548.683 398.612 544.602 406.532 544.602 416.302C544.602 426.072 548.683 433.993 553.718 433.993Z" fill="#91A79A"/>
<path d="M536.985 420.044H533.454C533.135 420.044 532.875 420.262 532.808 420.564C532.279 423.005 531.365 426.024 529.738 429.27C527.331 434.085 524.312 437.507 521.963 439.722C521.686 439.982 521.863 440.443 522.24 440.46L529.478 440.804C529.679 440.812 529.872 440.762 530.04 440.653C531.231 439.881 532.749 438.724 534.225 437.029C535.71 435.335 536.666 433.649 537.287 432.299C537.53 431.762 537.656 431.183 537.656 430.587V420.698C537.656 420.329 537.354 420.027 536.985 420.027V420.044Z" fill="#91A79A"/>
<path d="M579.392 424.28H572.188C571.945 424.28 571.735 424.448 571.676 424.682C571.181 426.889 570.334 429.623 568.808 432.567C566.652 436.736 563.96 439.747 561.813 441.744C561.469 442.062 561.687 442.624 562.148 442.641L568.128 442.91C568.229 442.91 568.33 442.893 568.414 442.843C572.8 440.41 578.034 432.399 579.904 424.917C579.988 424.59 579.728 424.271 579.392 424.271V424.28Z" fill="#91A79A"/>
<path d="M634.465 395.366L593.074 394.486C592.622 394.477 592.219 394.754 592.06 395.173L586.784 409.383C586.658 409.727 586.34 409.961 585.97 409.978L581.257 410.213C580.888 410.23 580.569 409.945 580.561 409.567L580.091 393.362C580.083 393.018 579.806 392.749 579.462 392.749H576.317C575.965 392.749 575.688 393.034 575.688 393.378L575.738 409.483C575.738 409.735 575.537 409.936 575.285 409.936H571.184C570.815 409.936 570.53 410.263 570.58 410.633L571.326 415.858C571.368 416.152 571.612 416.37 571.914 416.378L632.989 418.157C633.333 418.165 633.618 417.888 633.618 417.544V411.74C633.618 411.404 633.35 411.136 633.014 411.127L614.797 410.985C614.504 410.985 614.294 410.7 614.386 410.423L617.808 399.468C617.917 399.107 618.244 398.864 618.622 398.856L634.474 398.554C634.843 398.554 635.136 398.243 635.136 397.883V396.004C635.136 395.635 634.843 395.341 634.474 395.333L634.465 395.366ZM613.497 399.376L610.134 410.146C610 410.565 609.606 410.851 609.169 410.842L591.171 410.356C590.743 410.347 590.449 409.92 590.592 409.517L594.24 399.191C594.366 398.822 594.718 398.579 595.104 398.579H612.91C613.321 398.579 613.615 398.982 613.497 399.376Z" fill="#91A79A"/>
<path d="M678.836 406.271H643.065C642.947 406.271 642.83 406.304 642.746 406.371C641.479 407.353 637.219 412.528 637.219 421.017V429.556C637.219 429.858 637.462 430.101 637.756 430.11L673.862 431.133C674.223 431.141 674.5 430.822 674.424 430.47C673.82 427.635 673.183 422.636 674.735 416.781C675.875 412.478 677.779 409.249 679.297 407.143C679.566 406.774 679.297 406.271 678.844 406.271H678.836Z" fill="#91A79A"/>
<path d="M712.806 413.308H699.672C699.303 413.308 699.001 413.015 698.992 412.646L698.565 392.271C698.565 391.902 698.254 391.609 697.885 391.609H694.841C694.472 391.609 694.161 391.911 694.161 392.28L693.952 412.637C693.952 413.006 693.641 413.308 693.272 413.308H682.679C682.302 413.308 682 413.61 682 413.988V420.136C682 420.505 682.294 420.807 682.654 420.816L712.412 421.898C712.781 421.915 713.1 421.621 713.116 421.252L713.494 414.013C713.511 413.627 713.2 413.3 712.815 413.3L712.806 413.308Z" fill="#91A79A"/>
<path d="M778.182 401.733C760.778 401.138 743.576 400.324 726.768 400.324C726.592 400.324 726.424 400.383 726.282 400.492C724.487 401.859 718.918 408.268 718.918 420.003V432.576C718.918 433.012 719.27 433.373 719.706 433.373L771.246 433.994C771.757 433.994 772.143 433.532 772.034 433.029C771.179 429.087 770.289 422.141 772.47 414.022C774.039 408.175 776.647 405.474 778.761 403.067C779.205 402.564 778.861 401.767 778.19 401.742L778.182 401.733Z" fill="#91A79A"/>
<path d="M812.446 453.177C824.475 453.177 834.227 442.328 834.227 428.944C834.227 415.561 824.475 404.711 812.446 404.711C800.416 404.711 790.664 415.561 790.664 428.944C790.664 442.328 800.416 453.177 812.446 453.177Z" fill="#91A79A"/>
<path d="M849.567 402.79L845.499 388.572C844.769 385.578 840.81 367.468 817.746 363.836C802.875 361.965 792.358 362.167 777.227 362.905C776.9 362.922 776.598 363.131 776.481 363.442L769.075 382.633C768.899 383.103 769.159 383.615 769.645 383.741L786.118 388.002C786.411 388.077 786.721 387.985 786.931 387.767C791.46 383.061 795.93 381.216 798.69 380.411C811.329 376.72 826.628 383.548 837.229 397.589C837.296 397.681 837.388 397.757 837.489 397.816C841.112 399.795 844.736 401.775 848.367 403.754C849.021 404.107 849.776 403.503 849.575 402.79H849.567Z" fill="#91A79A"/>
<path d="M882.987 418.962C882.551 416.949 881.645 414.684 879.909 414.592C870.498 414.114 861.063 414.525 851.636 414.516C851.359 414.516 851.107 414.34 851.023 414.072L848.91 407.873C848.818 407.596 848.549 407.412 848.256 407.437L840.657 407.957C840.263 407.982 839.986 408.36 840.07 408.745L848.348 446.315C848.415 446.609 848.667 446.819 848.969 446.827L878.349 447.263C878.609 447.263 878.852 447.112 878.953 446.869L880.37 443.547C880.555 443.12 880.244 442.65 879.783 442.641L853.053 442.239C852.785 442.239 852.541 442.071 852.449 441.811C851.258 438.355 848.499 423.081 851.426 420.539C851.543 420.438 851.703 420.396 851.862 420.405C861.415 420.891 870.968 421.378 880.521 421.856C882.098 421.94 883.314 420.497 882.987 418.954V418.962Z" fill="#91A79A"/>
<path d="M784.414 214.302C784.414 214.302 784.473 214.302 784.506 214.302L810.398 212.675C810.733 212.65 811.043 212.482 811.245 212.214L814.365 207.953C814.868 207.265 815.916 207.357 816.294 208.12L822.567 220.795C822.76 221.181 823.146 221.424 823.574 221.424L883.341 222.019C883.567 222.019 883.785 222.095 883.97 222.221L888.818 225.542C888.927 225.618 889.044 225.668 889.17 225.702L913.577 232.135C914.29 232.32 914.759 231.414 914.197 230.944L907.421 225.165C907.328 225.089 907.228 225.022 907.11 224.98C886.503 216.517 861.559 208.154 832.708 202.131C815.12 198.457 798.656 196.201 783.659 194.867C783.148 194.825 782.67 195.136 782.493 195.622L777.344 210.075C776.287 213.136 780.808 214.302 784.406 214.311L784.414 214.302Z" fill="#91A79A"/>
<path d="M774.432 342.857L779.556 342.765C780.521 342.748 781.293 341.96 781.293 341.003V303.886C781.293 303.534 781.578 303.249 781.93 303.249H807.435C807.788 303.249 808.073 303.534 808.073 303.886V342.387C808.073 342.958 808.761 343.235 809.163 342.832L814.07 337.808C814.204 337.673 814.388 337.606 814.573 337.615L856.19 341.951C856.459 341.976 856.677 342.153 856.752 342.413L868.444 383.875C868.645 384.579 869.677 384.445 869.685 383.707L870.39 312.794C870.39 312.459 870.13 312.174 869.794 312.157L825.753 308.718C822.625 308.533 820.083 306.118 819.765 302.997L815.948 266.535C815.605 263.221 817.76 260.168 820.998 259.396L830.425 257.132C830.425 257.132 830.483 257.123 830.517 257.115L854.639 255.035C861.893 254.414 868.461 259.338 869.886 266.476L877.351 303.803C877.351 303.803 877.359 303.878 877.359 303.92L877.955 386.794C877.955 387.171 878.29 387.465 878.676 387.414L886.803 386.332C886.954 386.315 887.097 386.24 887.198 386.123L892.708 379.907C892.851 379.739 893.077 379.664 893.287 379.706L915.06 383.422C915.437 383.489 915.789 383.195 915.798 382.809L916.175 354.382C916.192 353.845 916.821 353.569 917.224 353.921L922.608 357.041C922.726 357.142 922.885 357.201 923.044 357.192L983.86 357.578C984.195 357.57 984.481 357.821 984.514 358.157L986.124 375.839C986.175 376.426 986.93 376.627 987.273 376.149C988.313 374.698 989.353 373.255 990.393 371.804C990.469 371.695 990.511 371.561 990.511 371.427C990.427 365.899 990.125 358.09 989.152 348.787C987.785 335.652 985.982 319.639 984.011 319.438C957.205 316.72 905.465 310.077 898.587 310.463C898.294 310.479 898.025 310.278 897.95 309.993L880.345 244.592C880.228 244.147 880.605 243.728 881.058 243.803L959.873 256.133C960.418 256.217 960.804 255.605 960.493 255.152L952.081 242.805C951.989 242.671 951.854 242.578 951.695 242.545L889.261 228.252C889.194 228.235 889.135 228.21 889.076 228.176L883.264 224.687C883.163 224.628 883.054 224.594 882.937 224.594H783.482C776.311 224.594 770.532 230.483 770.674 237.655L772.662 341.129C772.679 342.102 773.484 342.874 774.457 342.857H774.432Z" fill="#91A79A"/>
<path d="M958.844 261.695L930.755 307.368C930.395 307.963 930.755 308.727 931.451 308.819L970.838 313.692C971.492 313.776 972.029 313.181 971.886 312.535L960.597 261.997C960.412 261.158 959.305 260.974 958.852 261.704L958.844 261.695Z" fill="#91A79A"/>
<path d="M967.745 262.122C967.896 262.5 968.299 262.701 968.693 262.601C970.572 262.114 975.444 261.267 979.823 264.152C981.768 265.436 982.976 267.046 983.689 268.229C983.832 268.472 984.1 268.615 984.377 268.615H985.023C985.484 268.615 985.853 268.229 985.836 267.768L985.526 261.217C985.509 260.847 985.249 260.546 984.888 260.462L966.814 256.469C966.177 256.326 965.64 256.964 965.891 257.568L967.753 262.122H967.745Z" fill="#91A79A"/>
<path d="M921.495 369.968C930.838 369.842 940.182 369.724 949.525 369.599C949.693 369.599 949.844 369.523 949.944 369.397C950.666 368.533 953.727 365.245 958.407 365.656C962.416 366.008 964.756 368.81 965.427 369.724C965.536 369.875 965.712 369.959 965.897 369.959C971.466 369.842 977.026 369.716 982.595 369.599C982.897 369.599 983.141 369.347 983.141 369.037V361.747C983.141 361.261 982.57 361.009 982.21 361.328L980.809 362.561C980.7 362.653 980.566 362.704 980.423 362.704L922.501 361.429C922.392 361.429 922.283 361.387 922.191 361.328L919.667 359.558C919.289 359.29 918.769 359.558 918.777 360.028C918.819 361.622 919.029 363.526 919.566 365.623C919.96 367.166 920.463 368.508 920.967 369.64C921.059 369.842 921.26 369.968 921.487 369.968H921.495Z" fill="#91A79A"/>
<path d="M929.266 383.657C929.266 383.657 929.308 383.657 929.325 383.657L945.889 384.663C946.275 384.688 946.569 384.336 946.468 383.959C946.141 382.768 945.847 381.191 945.856 379.337C945.856 377.533 946.158 375.998 946.476 374.833C946.577 374.472 946.3 374.12 945.923 374.128C939.825 374.245 933.728 374.371 927.63 374.489C927.53 374.489 927.437 374.463 927.345 374.422L921.281 371.066C920.887 370.848 920.417 371.159 920.451 371.603L920.971 378.129C921.298 380.243 920.895 382.281 929.257 383.648L929.266 383.657Z" fill="#91A79A"/>
<path d="M984.092 372.232C984.042 371.754 983.463 371.552 983.127 371.896L981.643 373.423C981.534 373.532 981.383 373.599 981.232 373.591L969.062 373.381C968.651 373.381 968.374 373.784 968.542 374.161C968.97 375.143 969.406 376.418 969.657 377.927C969.976 379.865 969.876 381.543 969.683 382.792C969.624 383.195 969.985 383.522 970.379 383.422C975.034 382.18 979.697 380.93 984.352 379.689C984.62 379.622 984.788 379.362 984.763 379.093L984.092 372.224V372.232Z" fill="#91A79A"/>
<path d="M923.219 390.442C935.011 400.13 943.55 397.169 958.798 398C960.559 398.092 962.32 397.773 963.922 397.043L984.278 387.749C984.563 387.615 984.689 387.28 984.546 386.995L982.751 383.287C982.626 383.019 982.315 382.901 982.038 383.01L967.554 388.731C967.436 388.781 967.336 388.865 967.269 388.982C966.673 390.039 964.719 392.967 961.725 394.015C956.29 395.802 952.281 394.082 949.312 390.66C949.219 390.559 949.102 390.492 948.959 390.476C942.166 389.645 935.372 388.815 928.579 387.984C928.486 387.976 928.402 387.942 928.335 387.892L922.582 383.983C922.313 383.807 921.953 383.883 921.785 384.151L921.164 385.166C920.988 385.451 920.929 385.795 921.005 386.122C921.307 387.414 921.709 389.209 923.202 390.434L923.219 390.442Z" fill="#91A79A"/>
<path d="M990.556 411.597C990.514 411.186 990.17 410.876 989.759 410.867C988.367 410.834 986.975 410.792 985.574 410.758C985.138 410.75 984.794 410.397 984.777 409.97L984.442 400.516C984.442 400.281 984.526 400.055 984.694 399.896L987.772 396.943C987.948 396.767 988.04 396.524 988.023 396.28L987.478 390.132C987.428 389.562 986.824 389.218 986.304 389.461L959.968 402.018C959.834 402.085 959.683 402.11 959.54 402.093L932.324 399.485C932.232 399.459 932.131 399.434 932.039 399.401L900.293 383.648C900.159 383.573 900.008 383.547 899.857 383.556L892.46 384.034C892.091 384.059 891.789 384.319 891.713 384.68L890.556 387.699C890.514 387.884 890.413 388.043 890.271 388.161L885.515 391.969C885.322 392.128 885.205 392.363 885.205 392.606V429.489C885.205 429.849 885.44 430.176 885.784 430.277C889.239 431.3 893.651 432.273 898.817 432.651C904.009 433.028 908.521 432.701 912.086 432.198C912.304 432.164 912.505 432.047 912.631 431.862C914.602 429.145 916.573 426.419 918.544 423.692C918.695 423.491 918.93 423.365 919.181 423.357L923.97 423.181C924.49 423.164 924.901 423.625 924.809 424.145L923.283 432.877C923.216 433.246 922.905 433.532 922.536 433.557L906.181 436.04C905.561 436.048 904.94 436.065 904.319 436.073L885.951 433.993C885.532 433.976 885.163 434.278 885.104 434.689L882.798 450.165C882.722 450.693 883.15 451.155 883.678 451.104C899.597 449.645 916.313 447.64 933.716 444.948C945.559 443.111 980.794 436.769 988.879 435.41C989.214 435.352 989.474 435.1 989.533 434.773C989.961 432.609 990.321 430.285 990.581 427.803C991.219 421.713 991.051 416.235 990.556 411.597ZM926.889 404.157L925.052 409.181C925.002 409.307 924.994 409.45 925.01 409.584L926.302 418.232C926.369 418.66 926.092 419.054 925.673 419.154L912.874 422.107C912.723 422.141 912.564 422.132 912.421 422.082L897.492 416.948C897.148 416.831 896.922 416.504 896.939 416.135L897.408 405.088C897.425 404.677 897.735 404.35 898.146 404.308L903.355 403.771C904.261 403.679 904.361 402.404 903.489 402.16C902.516 401.892 902.793 400.441 903.799 400.55L926.201 403.049C926.73 403.108 927.065 403.645 926.881 404.148L926.889 404.157ZM981.33 427.861L979.41 425.722C979.234 425.529 978.974 425.429 978.705 425.454L930.605 430.78C930.001 430.847 929.531 430.252 929.741 429.681L935.897 413.048C936.006 412.746 936.291 412.536 936.618 412.511L979.494 409.793C979.921 409.768 980.299 410.07 980.357 410.498L982.739 427.19C982.857 427.995 981.859 428.457 981.314 427.853L981.33 427.861ZM988.048 423.256C988.015 423.885 987.327 424.246 986.79 423.91L984.736 422.627C984.492 422.476 984.35 422.216 984.35 421.931V416.101C984.35 415.648 984.719 415.279 985.172 415.279H987.57C988.04 415.279 988.418 415.673 988.392 416.143L988.048 423.265V423.256Z" fill="#91A79A"/>
<path d="M757.395 379.706L758.636 372.937C758.77 372.19 758.183 371.511 757.42 371.545L445.676 384.781C444.855 384.814 444.15 384.21 444.049 383.397L439.99 349.09C439.864 348.05 440.451 347.043 441.416 346.64L459.624 338.932C460.379 338.613 461.159 338.37 461.964 338.211L753.864 279.704C755.449 279.385 756.573 277.959 756.514 276.341L753.604 202.862C753.52 200.79 751.574 199.313 749.561 199.783L437.172 272.474V395.92C437.172 396.86 437.642 397.69 438.354 398.193L438.304 391.927C438.304 391.24 438.841 390.678 439.529 390.652L756.271 380.671C756.824 380.654 757.294 380.251 757.395 379.698V379.706Z" fill="#91A79A"/>
</g>
<defs>
<clipPath id="clip0_1970_218350">
<rect width="1030" height="536" fill="white" transform="translate(0.171875)"/>
</clipPath>
</defs>
</svg>
