<svg width="1031" height="536" viewBox="0 0 1031 536" fill="none" xmlns="http://www.w3.org/2000/svg">
<g clip-path="url(#clip0_1970_218464)">
<rect width="1030" height="536" transform="translate(0.171875)" fill="#525457"/>
<g opacity="0.12">
<path d="M-38.8155 112.881L151.363 -27.614L35.8466 -230.952" fill="#537399"/>
<path d="M-38.8107 112.883L319.996 291.443L151.368 -27.6128" fill="#456080"/>
<path d="M151.368 -27.6132L319.996 291.443L251.769 -108.173" fill="#3C5470"/>
<path d="M705.461 -49.622L690.958 77.7236L597.196 -59.7266L705.461 -49.622Z" fill="#3C5470"/>
<path d="M394.762 167.143L547.559 -66.6474L251.77 -108.173" fill="#6687AD"/>
<path d="M251.774 -108.173L394.766 167.142L320.002 291.443L251.774 -108.173Z" fill="#537399"/>
<path d="M446.341 266.113L394.762 167.143L547.559 -66.6465L446.341 266.113Z" fill="#3C5470"/>
<path d="M319.997 291.442L446.34 266.112L394.761 167.142" fill="#6687AD"/>
<path d="M13.182 269.433L19.7188 141.949L-38.8058 112.881" fill="#3C5470"/>
<path d="M13.177 269.433L319.996 291.442L19.7138 141.949" fill="#6687AD"/>
<path d="M597.207 -59.7255L690.969 77.7246L547.569 -66.6465L597.207 -59.7255Z" fill="#456080"/>
<path d="M547.569 -66.6465L690.969 77.7246L446.351 266.113L547.569 -66.6465Z" fill="#537399"/>
<path d="M446.351 266.111L690.969 77.7227L678.406 210.19L446.351 266.111Z" fill="#6687AD"/>
<path d="M678.397 210.19L690.96 77.7227L768.277 188.596L678.397 210.19Z" fill="#537399"/>
<path d="M690.96 77.7228L705.463 -49.6228L768.277 188.596L690.96 77.7228Z" fill="#6687AD"/>
<path d="M705.465 -49.6228L768.688 -18.3401L768.279 188.596" fill="#537399"/>
<path d="M557.867 479.277L446.334 266.111L319.991 291.442" fill="#456080"/>
<path d="M768.277 188.597L511.607 390.827L446.342 266.111L768.277 188.597Z" fill="#3C5470"/>
<path d="M768.277 188.597L557.875 479.277L511.607 390.827L768.277 188.597Z" fill="#6687AD"/>
<path d="M479.531 417.404L364.219 510.836L319.993 291.442L479.531 417.404Z" fill="#3C5470"/>
<path d="M364.215 510.836L319.99 291.442L322.543 535.613" fill="#6687AD"/>
<path d="M137.784 391.658L319.996 291.443L13.177 269.434" fill="#456080"/>
<path d="M137.789 391.658L322.555 535.613L320.001 291.442" fill="#537399"/>
<path d="M2.44991 462.529L137.781 391.658L13.1743 269.434" fill="#3C5470"/>
<path d="M-159.023 338.782L5.7237 402.593L13.1797 269.434" fill="#456080"/>
<path d="M-159.028 338.781L2.45036 462.528L5.71875 402.593" fill="#6687AD"/>
<path d="M768.686 -18.3396L1003.5 -80.905L1055.08 82.0142" fill="#3C5470"/>
<path d="M768.686 -18.3389L1055.08 82.0149L1032.51 111.913" fill="#456080"/>
<path d="M768.688 -18.3389L1032.51 111.913L768.28 188.598" fill="#6687AD"/>
<path d="M768.28 188.597L1032.51 111.913L904.939 285.905L768.28 188.597Z" fill="#456080"/>
<path d="M768.282 188.597L904.941 285.905L689.433 577.001L768.282 188.597Z" fill="#3C5470"/>
<path d="M768.277 188.597L689.428 577.001L557.875 479.277L768.277 188.597Z" fill="#537399"/>
<path d="M1046.29 383.629L904.936 285.905L1032.5 111.913" fill="#3C5470"/>
<path d="M1046.29 383.63L689.427 577.001L904.936 285.906" fill="#537399"/>
<path d="M1176.83 471.665L799.33 639.429L1046.3 383.63" fill="#3C5470"/>
<path d="M1046.29 383.63L799.326 639.429L689.427 577.002" fill="#6687AD"/>
<path d="M479.528 417.403L557.867 479.276L364.216 510.836L479.528 417.403Z" fill="#6687AD"/>
<path d="M412.431 617.558L689.426 577.001L557.874 479.277" fill="#6687AD"/>
<path d="M364.216 510.837L412.424 617.558L557.867 479.277" fill="#537399"/>
<path d="M322.555 535.613L70.6852 426.815L137.789 391.657L322.555 535.613Z" fill="#456080"/>
<path d="M412.434 617.557L322.553 535.613L364.225 510.836" fill="#456080"/>
<path d="M322.555 535.614L2.45785 462.529L70.6852 426.817" fill="#6687AD"/>
<path d="M2.45703 462.528L-159.021 338.781L-235.828 380.307" fill="#3C5470"/>
<path d="M1181.11 577.97L799.326 639.428L1176.82 471.664" fill="#6687AD"/>
<path d="M288.543 785.184L190.185 706.7L322.555 535.614" fill="#537399"/>
<path d="M190.188 706.7L-130.726 625.448L2.46011 462.528" fill="#3C5470"/>
<path d="M-130.729 625.447L-145.539 535.06L2.45703 462.528" fill="#537399"/>
<path d="M322.555 535.614L190.185 706.7L2.45785 462.528" fill="#456080"/>
<path d="M322.553 535.614L412.434 617.558L288.541 785.184" fill="#456080"/>
</g>
<path opacity="0.5" d="M717.72 504C847.954 504 953.529 398.339 953.529 268C953.529 137.661 847.954 32 717.72 32C587.486 32 481.91 137.661 481.91 268C481.91 398.339 587.486 504 717.72 504Z" fill="#809BBA"/>
<path d="M560.158 424.585C565.587 420.746 566.578 420.653 570.135 416.873C575.464 411.197 577.251 407.61 579.072 401.674C579.424 400.526 580.213 398.036 582.504 395.957C586.439 392.394 588.562 393.426 592.229 393.032C594.075 392.839 595.56 392.411 596.735 391.866C606.209 387.482 606.242 376.341 606.704 371.814C607.417 365.326 608.709 363.498 611.084 358.385C613.115 354.017 615.422 350.463 617.512 347.688C618.233 346.732 619.081 345.903 619.97 345.106C621.808 343.455 622.773 341.007 622.504 338.534C622.169 335.482 620.675 334.627 617.042 332.012L609.834 326.085C609.028 325.423 608.5 324.492 608.34 323.47L608.055 321.6C607.912 320.695 607.476 319.848 606.805 319.228C603.448 316.101 599.915 313.167 596.744 309.856C595.871 308.95 595.099 307.827 592.657 307.45C590.4 307.106 590.224 307.358 588.394 307.802C584.761 308.691 580.859 309.235 577.142 309.68C576.588 309.747 576.101 309.261 576.219 308.716C576.336 308.154 576.278 307.576 576.026 307.064C575.606 306.226 574.725 305.681 573.752 305.631C573.307 305.614 573.005 305.178 573.097 304.742C574.029 300.626 575.388 297.759 575.95 293.333C576.219 290.977 576.236 290.332 576.16 289.636C575.69 285.009 570.521 282.653 570.051 282.443L555.35 274.236C553.748 273.34 552.439 272.007 551.574 270.389L548.688 264.957C548.025 263.707 547.068 262.634 545.902 261.838C540.993 258.468 536.093 255.09 531.184 251.72C530.596 251.292 528.364 249.783 525.243 250.026C521.576 250.32 520.762 251.695 519.067 253.262C518.287 253.983 516.592 255.232 514.108 255.794C511.641 256.356 509.526 255.953 508.209 255.542C507.907 255.45 507.697 255.442 507.487 255.551C507.026 255.794 506.464 255.534 506.262 255.056L506.086 254.637C505.893 254.176 505.792 253.681 505.776 253.187L505.532 239.883C505.44 233.805 504.148 235.163 502.427 233.478C501.958 233.017 501.765 231.894 501.697 230.611C501.647 229.673 502.025 229.036 502.31 228.524C504.626 224.291 504.71 219.839 505.784 214.91C505.985 214.005 506.111 213.393 505.574 212.915C505.004 212.412 504.181 212.596 503.485 213.058C500.028 215.338 499.088 217.635 497.703 221.365C497.493 221.759 496.554 223.377 494.531 224.039C494.028 224.207 493.55 224.282 493.113 224.308C492.224 224.358 491.595 223.452 491.964 222.639L507.613 188.973C507.94 188.261 508.863 188.068 509.451 188.571C509.711 188.789 509.971 189.015 510.231 189.233C510.928 189.828 512.019 189.493 512.253 188.604C512.312 188.386 512.371 188.202 512.438 188.026C513.655 184.949 517.976 183.122 523.204 183.533C524.823 183.65 526.409 184.438 529.103 183.13C530.84 182.284 531.872 181.009 533.131 179.517C548.067 165.006 561.35 152.113 576.294 137.602C577.679 135.859 580.087 134.258 582.21 135.104C584.014 135.825 585.155 137.753 584.996 139.79C584.946 140.478 585.458 141.073 586.137 141.14C588.554 141.4 588.688 141.601 591.088 142.003C596.442 142.892 598.455 142.138 599.076 140.411C599.546 139.103 598.749 138.181 597.365 136.278C595.468 133.679 593.186 131.399 591.088 128.951C590.861 128.775 588.05 126.47 588.554 124.517C589.041 122.614 595.032 121.499 598.371 122.874L602.433 125.17C604.757 126.629 606.855 126.336 606.905 125.849C607.048 124.584 604.43 123.217 606.024 122.748C607.744 122.245 613.039 121.323 617.898 119.227C622.185 117.374 625.45 115.052 627.799 113.174C628.974 111.808 631.785 109.863 626.809 110.425C624.98 110.567 622.378 109.092 621.313 105.957C620.49 103.542 621.103 101.204 623.922 98.2946C624.25 97.9593 623.931 97.3977 623.469 97.4564L611.697 99.8371C610.799 99.9796 610.245 99.7533 610.32 98.8479L610.547 96.1402C610.706 94.3379 610.052 93.3403 608.944 92.7535C607.426 91.9571 605.319 92.4349 603.658 93.7595C602.022 95.0253 602.408 94.6145 600.595 96.0983C598.984 97.4228 597.188 100.063 595.913 100.701C594.94 101.17 593.857 101.338 592.791 101.195L590.887 100.944C590.509 100.893 590.14 101.12 590.022 101.48L589.301 103.609C588.831 104.993 587.933 106.191 586.741 107.038C583.175 109.561 576.051 114.273 575.061 114.935C574.205 115.505 573.5 116.268 572.988 117.156C570.874 120.811 569.162 123.611 568.65 123.402C567.987 123.125 566.955 121.197 570.446 113.35C570.555 113.099 570.354 112.831 570.085 112.873C565.252 113.652 561.694 111.33 561.417 109.159C561.19 107.373 563.104 105.16 565.931 103.878C576.907 98.6216 589.469 95.8468 598.85 88.101C599.664 87.4303 600.234 86.6004 599.974 85.2843C599.655 83.6412 598.069 81.6544 594.193 82.8197L568.046 96.7522C567.291 97.1546 566.385 97.1546 565.629 96.7606L558.933 93.2565C520.712 127.954 493.927 175.007 484.898 228.097L488.834 226.068C489.321 229.262 489.807 232.456 490.294 235.65C490.411 236.413 491.066 236.966 491.838 236.999C491.989 236.999 492.123 237.024 492.249 237.041C492.836 237.133 495.832 238.802 496.352 242.222C497.149 247.294 498.089 250.781 500.019 255.081C502.134 259.809 504.383 262.634 506.43 264.655C507.613 265.82 508.091 267.53 507.655 269.131C503.258 280.247 508.15 278.747 503.493 284.472C503.158 284.841 500.993 287.289 501.563 290.39C501.756 291.447 502.201 292.252 502.553 292.738C503.418 293.97 503.753 294.515 503.636 295.697C503.502 297.038 502.268 297.818 501.991 297.994C499.986 299.603 498.022 301.171 498.265 306.041C498.417 309.017 499.944 311.113 501.093 312.295C502.041 313.259 502.788 314.408 503.309 315.657C504.953 319.614 506.606 323.562 508.251 327.519C508.687 328.567 508.922 329.69 508.964 330.83C509.073 333.898 509.568 337.821 511.045 342.139C513.588 349.574 517.834 354.663 520.779 357.572C521.71 358.494 521.878 359.676 522.189 360.296C524.479 366.608 525.402 365.636 525.956 370.557C526.342 373.985 525.721 377.288 525.302 379.124C524.127 385.805 524.37 388.597 525.595 395.018C527.173 403.309 531.989 412.455 535.849 418.415C542.68 426.639 550.055 434.393 557.926 441.619C557.809 435.424 555.443 427.896 560.15 424.568L560.158 424.585Z" fill="#6687AD"/>
<path d="M636.15 75.9548C634.078 75.653 632.677 75.9548 631.561 76.2482C631.124 76.3656 630.671 76.3823 630.226 76.3237C628.976 76.156 626.241 76.0638 624.378 77.9835C623.648 78.738 623.27 79.5846 623.06 80.2385L620.887 84.212C620.543 84.8408 619.956 85.2934 619.259 85.4527C617.942 85.7461 617.514 86.3916 617.422 86.5341C616.482 88.0431 617.682 91.1867 621.147 93.6177C626.895 94.4728 627.969 94.3219 631.082 94.0285C631.871 93.953 632.609 93.5926 633.146 93.0142L640.9 84.7066C641.269 84.3042 641.538 83.818 641.655 83.2899C641.781 82.7282 641.873 82.0828 641.907 81.3702C641.974 79.811 642.385 79.0481 641.437 77.6649C640.396 77.12 638.24 76.265 636.15 75.9632V75.9548Z" fill="#6687AD"/>
<path d="M692.366 93.2319C692.475 93.2487 692.576 93.2822 692.685 93.3157C693.776 93.7181 695.421 94.1457 697.393 94.0367C701.613 93.802 704.458 91.2787 705.507 90.214C705.683 90.0296 705.901 89.8955 706.136 89.8033C716.273 85.8214 717.38 88.286 721.056 88.9147C722.65 89.1913 724.169 89.8787 725.78 90.038C730.403 90.4907 733.55 90.5829 735.732 90.4907C737.829 90.3985 738.929 87.9339 737.586 86.3243C736.73 85.3016 736.009 83.9268 735.774 82.1245C735.765 82.049 735.757 81.9736 735.757 81.8981C735.74 80.5066 737.401 79.7102 738.551 80.5066C738.92 80.7581 739.373 81.0095 739.91 81.2024C742.059 81.9484 743.997 81.1437 744.609 80.8503C744.668 80.8167 744.735 80.7916 744.802 80.7664C751.415 78.3438 758.841 77.145 764.882 73.8589C765.587 73.4733 765.386 72.4086 764.597 72.2912C756.911 70.8913 749.015 69.5668 740.909 68.3429C731.972 66.9848 723.237 65.8112 714.72 64.7969C712.698 64.5538 710.676 64.4029 708.645 64.3107C698.76 63.858 688.355 63.6903 677.472 63.9083C671.514 64.0256 665.716 64.252 660.077 64.5622C658.298 64.6628 656.931 66.1549 656.981 67.9237L657.275 78.7797C657.3 79.6934 657.996 80.4479 658.903 80.5569C667.394 81.5377 671.657 82.6526 671.691 83.9017C671.724 85.0669 668.066 86.3411 660.707 87.7327C660.564 87.7578 660.413 87.7997 660.279 87.8668C655.974 89.82 655.999 94.4474 656.989 97.2809C658.449 101.447 665.725 104.406 673.52 100.902C673.654 100.844 673.788 100.76 673.906 100.668C684.705 92.2427 687.374 92.3601 692.383 93.2487L692.366 93.2319Z" fill="#6687AD"/>
<path d="M632.043 125.07L627.344 122.136C626.882 121.172 626.27 120.694 625.909 120.46C624.315 120.141 622.158 120.275 619.8 121.29C616.536 122.438 614.749 121.34 613.364 122.84C612.064 124.249 611.325 124.911 610.923 125.657C608.875 126.009 607.608 126.101 607.541 127.091C607.499 127.677 608.153 128.122 610.293 129.882C614.9 134.484 616.629 132.322 619.247 130.729C622.326 128.851 622.662 127.686 626.027 126.948C626.849 126.764 627.629 126.68 628.326 126.655C628.745 126.638 629.156 126.588 629.568 126.487C630.348 126.294 631.128 126.11 631.917 125.917C632.32 125.816 632.404 125.288 632.051 125.07H632.043Z" fill="#6687AD"/>
<path d="M916.096 139.95H910.273C904.508 139.715 899.423 133.73 897.821 131.642C897.359 131.039 896.839 130.477 896.268 129.974C894.38 128.314 891.276 126.093 886.937 124.802C883.128 123.67 879.813 123.695 877.707 123.888C876.339 124.047 873.226 124.324 872.983 123.536C872.723 122.698 880.124 118.104 883.556 115.832C883.9 115.606 883.723 115.069 883.312 115.094L875.559 115.514C874.762 115.556 872.966 115.271 872.32 114.809C872.32 114.809 860.019 108.086 847.44 95.5538C845.368 93.4916 843.001 92.9802 836.834 98.2615C830.557 105.094 823.45 106.695 821.302 102.537C820.27 100.55 816.536 100.936 816.536 100.936C806.315 101.992 803.513 110.325 804.646 113.468C805.946 117.064 811.979 116.612 814.698 117.132C818.508 118.448 819.565 120.963 818.927 122.622C818.323 124.19 816.997 124.299 814.983 124.45C805.149 125.188 797.933 124.676 789.114 124.727C788.602 124.727 788.107 124.861 787.662 125.121L778.524 130.385C777.962 130.704 777.87 131.466 778.314 131.927C778.843 132.481 779.43 133.26 779.842 134.308C780.706 136.53 780.32 138.533 780.018 139.095C776.947 144.795 775.965 148.576 776.527 153.354C776.569 153.732 776.208 154.025 775.856 153.899C774.773 152.742 766.575 144.217 758.872 146.522H758.847C757.488 146.941 756.229 147.822 756.019 149.389C753.116 171.302 753.418 174.89 758.948 177.665C760.03 178.21 762.279 178.939 766.248 177.598C766.953 177.355 767.7 177.254 768.446 177.254H775.277C775.839 177.254 776.351 176.944 776.603 176.441C777.526 174.605 779.044 172.166 781.503 169.86C785.724 165.895 790.33 164.52 792.571 164.018C801.667 162.467 800.173 160.186 807.406 161.41C811.476 162.098 814.95 163.313 816.251 164.998C821.68 172.04 825.271 174.949 829.785 179.928C830.046 180.306 831.455 181.421 832.252 181.722C833.897 182.351 835.131 179.61 836.943 178.797C838.672 178.025 839.142 179.459 839.519 179.92L843.748 185.973C844.277 187.414 844.764 188.018 845.863 188.261C847.012 188.513 847.625 186.911 848.825 186.962C850.52 187.029 849.949 186.928 851.082 188.228C851.678 190.273 851.837 190.466 852.735 190.483C853.658 190.499 854.43 189.51 854.464 188.228C854.522 185.973 857.149 186.031 860.312 187.104C863.476 188.077 866.933 187.037 869.022 184.497C871.154 181.89 871.447 178.21 869.761 175.276C867.378 167.932 875.509 167.421 878.009 170.196C881.047 175.058 883.044 177.296 884 176.919C884.386 176.768 884.596 176.123 884.638 175.117C884.672 174.345 884.94 173.582 885.494 173.038C886.207 172.325 887.298 172.074 888.439 175.687L894.221 190.189C894.926 191.95 895.278 193.35 894.363 193.995C893.608 194.523 892.643 193.534 891.259 193.291C863.694 188.42 858.533 194.515 873.36 201.305C874.804 201.967 876.381 202.286 877.967 202.277C879.729 202.269 882.314 202.646 884.068 204.633C884.831 205.496 885.242 206.444 885.477 207.24C885.687 211.809 885.897 216.386 886.115 220.955C886.157 221.768 885.502 222.455 884.688 222.455H870.13C869.593 222.455 869.182 222.916 869.232 223.444L869.903 229.908C869.954 230.36 870.189 230.771 870.566 231.031L881.533 238.735C886.232 241.92 901.597 283.752 901.597 283.752C904.424 292.344 905.205 293.878 906.212 293.928C907.068 293.97 907.076 291.891 908.612 290.902C913.193 287.943 915.752 288.463 920.921 287.172C927.038 285.462 931.821 280.876 933.214 275.125C935.06 267.48 930.529 259.147 922.331 255.342C915.803 252.307 911.783 250.899 913.336 243.714C914.603 241.476 918.647 238.676 923.699 243.857C926.762 247.001 929.128 250.798 931.393 252.039C932.216 252.491 932.979 253.036 933.575 253.749C934.423 254.763 935.32 255.727 936.311 256.607C937.435 257.613 938.627 258.846 939.776 260.338C943.435 265.108 944.668 270.003 945.13 272.829C946.195 288.178 947.269 303.535 948.335 318.885C951.96 302.462 953.865 285.403 953.865 267.899C953.865 220.728 940.003 176.785 916.13 139.925L916.096 139.95Z" fill="#6687AD"/>
<path d="M854.658 375.293C855.111 373.65 855.732 372.057 856.462 370.523C859.248 364.672 861.48 360.69 862.201 360.187C863.544 359.257 864.031 359.978 866.539 358.846C868.839 357.111 870.76 354.772 873.059 353.036C877.649 349.524 885.47 342.398 889.271 330.964C890.228 328.097 891.067 327.552 891.1 322.9C890.865 321.86 890.681 320.293 891.134 318.532C891.637 316.587 892.669 315.313 893.215 314.726C894.415 313.402 895.489 311.423 896.899 309.219C897.746 307.894 898.149 307.047 897.939 306.595C897.075 305.245 896.143 306.352 891.528 305.715C890.815 305.53 890.135 305.304 889.481 305.044C879.059 300.869 880.603 288.11 874.528 281.773C873.815 281.186 872.841 280.222 872.002 278.839C869.829 275.276 870.181 271.579 870.383 270.221C870.626 268.092 870.987 264.169 870.122 260.128C869.334 256.448 868.671 255.039 867.06 252.248C866.539 251.343 866.17 250.353 865.986 249.322C864.719 242.364 862.05 237.687 862.277 236.169C862.411 235.264 862.839 234.417 863.468 233.747C863.854 233.336 864.274 232.883 864.584 232.548C864.794 232.313 864.962 232.045 865.054 231.743C865.734 229.597 865.835 227.862 865.726 226.772C865.642 225.867 865.449 225.062 865.23 224.375C864.828 223.142 863.829 222.195 862.579 221.835C854.356 219.487 848.792 216.721 840.569 214.374C839.789 214.147 839.067 213.753 838.454 213.208C837.733 212.915 836.852 212.471 835.945 211.783C834.301 210.543 833.353 209.101 832.841 208.17C831.49 206.209 830.156 205.219 829.165 207.382C828.184 209.528 827.244 211.549 827.244 211.549C826.354 213.334 826.48 215.287 825.692 215.824C824.45 216.662 823.266 216.101 820.758 214.466C818.937 213.276 817.401 212.58 816.495 211.876C814.196 210.082 811.552 207.298 810.193 203.317C810.059 202.914 809.874 202.537 809.572 202.26C808.96 201.699 808.02 201.556 807.181 201.875C806.174 202.252 805.049 202.252 804.009 201.984C803.984 201.984 803.967 201.975 803.942 201.967C802.952 201.707 801.827 201.279 800.694 200.567C798.622 199.268 797.321 197.549 796.524 196.065C796.021 195.143 795.744 194.112 795.693 193.064C795.567 190.222 794.636 183.516 787.646 183.918L769.068 183.717L750.549 183.055C742.183 182.963 739.271 180.364 731.468 187.313C728.866 189.627 727.331 192.285 726.416 194.531C725.409 196.996 723.278 198.815 720.685 199.427C716.154 200.483 709.265 203.224 704.742 210.308C700.832 216.436 700.647 222.748 701.075 226.705C701.302 228.809 700.253 230.863 698.382 231.844C695.453 233.378 693.439 235.65 693.045 238.257C693.003 238.517 692.978 238.81 692.969 239.129C692.952 240.436 692.659 241.727 692.021 242.867C690.259 246.053 688.295 250.84 688.178 256.775C688.144 258.351 688.253 259.809 688.43 261.142C688.589 262.308 688.673 263.489 688.673 264.663V286.048C688.673 287.339 689.294 288.555 690.343 289.309L709.533 303.174C710.364 303.627 712.781 304.809 715.944 304.373C720.022 303.812 720.702 301.506 722.783 300.358C730.058 296.275 732.651 297.273 735.118 297.709C742.208 299.335 751.212 302.219 756.616 300.919C757.589 300.668 758.571 300.987 759.083 301.691C759.511 302.286 759.46 302.957 759.435 303.166C759.393 303.46 758.949 307.24 761.835 309.764C764.034 311.683 766.97 310.971 770.008 310.769C770.679 310.728 774.64 311.381 776.494 315.28C777.829 318.088 777.3 320.653 776.78 321.332C773.44 325.75 772.441 329.824 773.893 331.333C774.204 331.651 774.825 331.635 776.075 332.037C776.713 332.238 776.998 332.716 776.922 333.797C776.855 334.703 776.167 335.206 776.075 335.273C775.001 336.069 774.548 337.461 774.95 338.727C775.336 339.959 776.729 340.127 777.77 340.906C779.28 342.038 779.524 343.497 779.742 346.12C779.918 348.241 779.381 349.901 779.037 350.765C776.805 353.992 773.717 359.324 771.988 366.541C771.124 370.171 770.788 373.508 770.721 376.358C770.654 379.51 770.411 382.662 769.874 385.772C769.286 389.117 768.9 393.057 769.026 397.458C769.161 402.027 769.815 406 770.579 409.219C772.601 420.771 774.623 432.314 776.637 443.866C777.199 446.574 777.375 447.806 778.961 449.214C781.378 451.067 785.313 450.757 788.057 448.091C801.131 437.352 807.751 435.919 811.242 435.173C813.608 434.67 815.857 434.402 817.947 434.284C818.307 434.259 821.714 433.932 823.652 430.83C825.557 427.779 824.424 424.635 824.29 424.283C823.921 423.655 823.904 422.883 824.257 422.28C824.676 421.55 825.524 421.383 826.405 421.333C828.763 421.19 829.551 420.251 831.406 418.055C833.428 415.674 833.789 413.109 833.873 412.178C833.881 411.357 833.965 410.066 834.334 408.548C835.434 404.005 838.236 401.046 839.797 399.637C853.189 385.873 853.475 379.141 854.07 377.28C854.288 376.601 854.481 375.939 854.666 375.268L854.658 375.293Z" fill="#6687AD"/>
<path d="M895.51 389.662L895.577 387.709C895.594 387.29 895.124 387.03 894.78 387.273L892.145 389.092C891.793 389.336 891.306 389.294 890.996 388.992L887.992 386.041C887.706 385.756 887.211 385.924 887.161 386.326C886.716 389.453 887.052 391.876 885.818 395.715C885.097 397.953 883.561 400.686 881.379 403.603C879.558 406.026 877.687 407.879 876.093 409.237C876.093 409.237 855.51 422.758 855.51 423.32C853.571 424.351 852.489 426.489 852.833 428.601C853.143 430.555 854.612 432.164 856.567 432.684C861.677 433.422 864.253 432.189 867.492 428.878C867.836 428.526 868.793 427.763 870.244 427.537C872.233 427.235 873.685 428.274 874.054 428.45C876.487 429.649 879.777 429.44 883.855 426.405C888.025 423.303 889.67 416.513 888.017 411.827C887.681 410.88 887.941 408.122 889.636 405.347C891.155 402.857 892.523 401.617 894.151 401.189C896.014 400.703 897.759 399.923 898.313 398.163C898.699 396.914 898.279 394.541 896.769 392.907C895.946 392.018 895.485 390.853 895.527 389.646L895.51 389.662Z" fill="#809BBA"/>
<path fill-rule="evenodd" clip-rule="evenodd" d="M891.812 234.116H964.033C967.112 234.116 969.602 236.607 969.602 239.687C969.602 242.766 967.112 245.257 964.033 245.257H962.511C965.532 248.613 968.334 251.646 970.94 254.471C998.534 284.363 1003.37 289.599 992.492 374.535L983.717 449.047C983.232 453.094 979.808 456.151 975.726 456.151H880.096C876.014 456.151 872.578 453.094 872.105 449.047L863.33 374.535C852.444 289.599 857.288 284.363 884.882 254.471C887.488 251.646 890.302 248.601 893.311 245.257H891.801C888.722 245.257 886.231 242.766 886.231 239.687C886.231 236.607 888.733 234.116 891.812 234.116Z" fill="#456080"/>
<path d="M955.913 253.734H899.929C897.507 253.734 895.178 254.76 893.54 256.559C863.605 289.38 857.874 289.461 868.529 372.61L876.601 441.124C877.039 444.849 880.199 447.652 883.946 447.652H971.884C975.632 447.652 978.791 444.849 979.229 441.124L987.301 372.61C997.956 289.45 992.225 289.38 962.29 256.559C960.652 254.772 958.346 253.734 955.913 253.734Z" fill="#809BBA"/>
<path d="M971.983 310.393H883.837C881.497 310.393 879.605 312.284 879.605 314.625V333.815C879.605 336.157 881.497 338.048 883.837 338.048H971.983C974.324 338.048 976.215 336.157 976.215 333.815V314.625C976.215 312.284 974.324 310.393 971.983 310.393Z" fill="#456080"/>
<path fill-rule="evenodd" clip-rule="evenodd" d="M917.192 314.926C912.233 314.926 908.774 318.813 908.774 324.371C908.774 329.93 912.13 333.517 916.938 333.517C921.124 333.517 925.356 330.587 925.356 324.048C925.356 318.594 922.07 314.926 917.192 314.926ZM921.897 324.141C921.897 327.347 920.398 330.576 917.065 330.576C913.733 330.576 912.257 327.335 912.257 324.314C912.257 321.096 913.756 317.856 917.088 317.856C920.421 317.856 921.897 321.119 921.897 324.141ZM909.731 315.203H896.078V318.213H901.21V333.24H904.565V318.213H909.731V315.203ZM935.757 315.203H939.632L934.131 324.002L939.736 333.24H935.85L933.532 329.215C932.955 328.281 932.494 327.508 932.079 326.782C931.721 327.462 931.306 328.212 930.695 329.25L928.516 333.24H924.653L930.165 324.118L924.86 315.203H928.746L931.145 319.459C931.283 319.712 931.422 319.954 931.548 320.185C931.791 320.623 932.01 321.015 932.217 321.396C932.54 320.75 932.874 320.15 933.29 319.447L935.757 315.203ZM944.014 315.203H940.681V333.24H944.014V315.203ZM955.026 330.507C956.248 330.507 957.517 330.253 958.336 329.861H958.313L958.947 329.561L959.696 332.421L959.281 332.629C958.451 333.044 956.767 333.494 954.565 333.494C949.157 333.494 945.651 329.93 945.651 324.371C945.651 318.813 949.514 314.926 955.038 314.926C957.563 314.926 958.947 315.549 959.316 315.745L959.742 315.964L958.889 318.847L958.278 318.547C957.794 318.305 956.721 317.902 955.13 317.902C951.371 317.902 949.122 320.393 949.122 324.291C949.122 328.189 951.325 330.507 955.026 330.507Z" fill="#809BBA"/>
<path fill-rule="evenodd" clip-rule="evenodd" d="M921.771 374.536V371.884C921.252 371.607 920.71 371.595 920.156 371.584C918.23 371.526 916.316 371.469 915.74 360.536C915.659 358.933 916.005 357.341 916.789 355.934C917.285 355.058 917.954 354.101 918.876 353.201C922.416 349.753 926.925 349.73 927.894 349.753C928.862 349.73 933.359 349.753 936.911 353.201C937.834 354.101 938.502 355.046 938.998 355.934C939.771 357.33 940.128 358.933 940.048 360.536C939.471 371.469 937.557 371.526 935.62 371.584C935.066 371.595 934.524 371.619 934.005 371.884V374.536C934.005 375.828 932.956 376.877 931.664 376.877H924.111C922.82 376.877 921.771 375.828 921.771 374.536ZM933.21 361.285C932.16 360.57 930.304 360.801 929.554 361.654H929.566C929.324 361.931 929.231 362.358 929.254 362.831C929.3 363.996 929.946 365.045 930.869 365.737C931.445 366.175 931.964 366.452 932.979 366.833C934.051 367.248 936.346 366.256 935.308 363.869C934.616 362.635 934.19 362.116 933.21 361.285ZM930.488 368.17L928.021 365.333H928.044C927.813 365.08 927.421 365.08 927.202 365.333L924.734 368.17C924.55 368.378 924.527 368.678 924.665 368.908L925.288 369.946C925.437 370.177 925.691 370.327 925.968 370.327H929.254C929.531 370.327 929.796 370.188 929.935 369.946L930.557 368.908C930.696 368.678 930.673 368.378 930.488 368.17ZM922.001 361.285C921.021 362.116 920.594 362.635 919.902 363.869C918.865 366.256 921.159 367.248 922.232 366.833C923.247 366.452 923.765 366.175 924.342 365.737C925.265 365.033 925.91 363.984 925.956 362.831C925.979 362.369 925.887 361.931 925.645 361.654C924.896 360.801 923.039 360.57 922.001 361.285ZM943.38 389.332C943.818 388.479 944.799 387.948 945.871 388.225C946.62 388.421 947.22 389.044 947.393 389.794C947.601 390.693 947.232 391.535 946.586 392.019C946.355 392.192 946.205 392.446 946.205 392.734C946.217 393.161 946.079 393.634 945.56 394.187C945.121 394.66 944.51 394.983 943.864 394.926C942.769 394.833 941.916 393.911 941.916 392.792C941.916 392.377 942.043 391.985 942.25 391.65L927.905 384.8L913.56 391.65C913.768 391.985 913.895 392.365 913.895 392.792C913.895 393.899 913.041 394.822 911.946 394.926C911.3 394.983 910.7 394.66 910.251 394.187C909.732 393.634 909.593 393.161 909.605 392.734C909.605 392.446 909.455 392.192 909.224 392.019C908.579 391.547 908.21 390.705 908.417 389.794C908.59 389.044 909.19 388.421 909.939 388.225C911.012 387.948 911.992 388.479 912.43 389.332L924.919 383.37L912.488 377.431C912.096 378.365 911.069 378.965 909.951 378.676C909.201 378.48 908.602 377.858 908.429 377.108C908.221 376.208 908.59 375.367 909.236 374.882C909.467 374.709 909.617 374.455 909.617 374.167C909.593 373.74 909.743 373.268 910.262 372.714C910.7 372.241 911.312 371.918 911.957 371.976C913.053 372.068 913.906 372.991 913.906 374.11C913.906 374.479 913.791 374.813 913.629 375.113L927.905 381.928L942.181 375.113C942.019 374.813 941.904 374.479 941.904 374.11C941.904 373.002 942.757 372.08 943.853 371.976C944.499 371.918 945.098 372.241 945.548 372.714C946.067 373.268 946.205 373.74 946.194 374.167C946.194 374.455 946.344 374.709 946.574 374.882C947.22 375.355 947.589 376.197 947.382 377.108C947.209 377.858 946.609 378.48 945.859 378.676C944.741 378.965 943.715 378.365 943.323 377.431L930.892 383.37L943.38 389.332Z" fill="#456080"/>
<path d="M788.531 246.409C790.999 246.409 792.947 244.195 792.509 241.646C792.163 239.674 790.307 238.336 788.312 238.336H786.778C786.698 238.336 786.617 238.267 786.617 238.175V176.719C786.617 176.638 786.686 176.557 786.778 176.557H788.312C790.307 176.557 792.175 175.208 792.509 173.247C792.947 170.699 790.999 168.484 788.531 168.484H617.072C615.146 168.484 613.394 169.788 613.013 171.679C612.494 174.274 614.466 176.557 616.968 176.557H618.894V238.325H617.084C615.158 238.325 613.405 239.628 613.025 241.519C612.506 244.114 614.478 246.398 616.98 246.398H618.906V358.793H616.934C615.4 358.793 613.936 359.646 613.324 361.053C612.044 364.005 614.189 366.865 616.98 366.865H618.906V428.633H616.934C615.4 428.633 613.936 429.487 613.324 430.894C612.044 433.846 614.189 436.706 616.98 436.706H788.473C790.226 436.706 791.864 435.633 792.394 433.961C793.259 431.182 791.206 428.633 788.566 428.633H786.64V366.865H788.485C790.238 366.865 791.875 365.793 792.406 364.121C793.27 361.341 791.218 358.793 788.577 358.793H786.651V246.559C786.651 246.478 786.721 246.398 786.813 246.398L788.531 246.409Z" fill="#456080"/>
<path fill-rule="evenodd" clip-rule="evenodd" d="M778.469 180.34H626.901C625.137 180.34 623.719 181.781 623.719 183.534V234.842C623.719 236.607 625.149 238.025 626.901 238.025H778.469C780.314 238.025 781.813 236.526 781.813 234.681V183.684C781.813 181.839 780.314 180.34 778.469 180.34ZM778.481 250.128H626.914C625.15 250.128 623.731 251.558 623.731 253.311V351.89C623.731 353.654 625.161 355.073 626.914 355.073H778.631C780.396 355.073 781.814 353.643 781.814 351.89V253.461C781.814 251.615 780.326 250.128 778.481 250.128ZM626.901 367.177H778.63C780.383 367.177 781.813 368.607 781.813 370.36V421.667C781.813 423.42 780.383 424.85 778.63 424.85H626.901C625.137 424.85 623.719 423.42 623.719 421.667V370.36C623.719 368.607 625.137 367.177 626.901 367.177Z" fill="#809BBA"/>
<path d="M702.771 265.888C682.499 265.888 666.066 282.321 666.066 302.595C666.066 322.869 682.499 339.303 702.771 339.303C723.043 339.303 739.475 322.869 739.475 302.595C739.475 282.321 723.043 265.888 702.771 265.888Z" fill="#456080"/>
<path d="M674.516 314.053C676.442 306.811 682.184 302.048 687.996 302.071C687.881 302.821 687.8 303.582 687.8 304.366C687.8 310.375 691.375 315.553 696.495 317.928V317.951C693.739 323.176 686.682 325.932 679.325 324.041C684.848 328.296 691.594 329.507 696.748 326.924C699.182 325.713 700.796 323.879 701.811 322.38C702.652 323.291 706.688 327.408 713.273 327.766C720.653 328.169 725.461 323.522 726.211 322.772C719.315 326.082 711.716 324.294 708.268 319.381C708.061 319.082 707.876 318.782 707.703 318.482C713.527 316.429 717.712 310.894 717.712 304.378C717.712 303.594 717.632 302.832 717.516 302.083C723.328 302.048 729.094 306.811 731.019 314.053C732.023 307.146 729.774 300.676 725 297.447C722.74 295.924 720.365 295.417 718.554 295.267C718.935 294.079 720.549 288.544 717.632 282.628C714.357 275.996 707.945 274.082 706.931 273.794C713.181 278.176 715.348 285.684 712.754 291.092C712.5 291.611 712.212 292.084 711.901 292.534C709.364 290.573 706.216 289.397 702.768 289.397C699.32 289.397 696.16 290.573 693.635 292.534C693.324 292.084 693.035 291.611 692.782 291.092C690.176 285.684 692.355 278.176 698.605 273.794C697.579 274.082 691.167 275.996 687.904 282.628C684.998 288.544 686.612 294.091 686.981 295.267C685.171 295.406 682.796 295.924 680.535 297.447C675.761 300.687 673.513 307.146 674.516 314.053ZM690.279 302.336C693.67 303.098 696.022 305.323 696.864 306.188L701.638 297.7C700.969 297.539 697.74 296.732 695.134 294.287C697.256 292.684 699.897 291.715 702.756 291.715C705.616 291.715 708.257 292.672 710.378 294.287C707.772 296.732 704.544 297.539 703.875 297.7L708.649 306.188C709.502 305.312 711.843 303.109 715.222 302.348C715.337 303.005 715.406 303.686 715.406 304.378C715.406 309.936 711.808 314.653 706.815 316.348C705.697 312.658 706.665 309.106 706.861 308.414H697.129C697.463 309.533 698.213 312.554 697.337 315.783C693.07 313.742 690.106 309.394 690.106 304.366C690.106 303.674 690.176 302.994 690.279 302.336Z" fill="#809BBA"/>
<path d="M637.56 288.952C640.062 288.952 642.034 286.669 641.515 284.074C641.134 282.183 639.382 280.88 637.456 280.88H635.646V219.112H637.456C639.382 219.112 641.134 217.809 641.515 215.917C642.034 213.322 640.062 211.039 637.56 211.039H476.998C475.072 211.039 473.319 212.342 472.939 214.234C472.42 216.828 474.392 219.112 476.894 219.112H478.82V280.88H477.009C475.084 280.88 473.331 282.183 472.95 284.074C472.432 286.669 474.403 288.952 476.906 288.952H478.831V381.858H477.021C475.095 381.858 473.343 383.161 472.962 385.052C472.443 387.647 474.415 389.93 476.917 389.93H478.843V451.698H477.033C475.107 451.698 473.354 453.001 472.974 454.893C472.455 457.487 474.426 459.771 476.929 459.771H637.64C639.174 459.771 640.639 458.917 641.25 457.51C642.53 454.558 640.385 451.698 637.594 451.698H635.669V389.93H637.64C639.174 389.93 640.639 389.077 641.25 387.67C642.53 384.718 640.385 381.858 637.594 381.858H635.669V288.952H637.56Z" fill="#456080"/>
<path fill-rule="evenodd" clip-rule="evenodd" d="M627.842 222.715H486.645C484.888 222.715 483.469 224.135 483.469 225.891V277.073C483.469 278.829 484.888 280.249 486.645 280.249H627.842C629.599 280.249 631.018 278.829 631.018 277.073V225.891C631.018 224.135 629.599 222.715 627.842 222.715ZM627.842 292.236H486.645C484.888 292.236 483.469 293.656 483.469 295.412V375.601C483.469 377.358 484.888 378.777 486.645 378.777H627.842C629.599 378.777 631.018 377.358 631.018 375.601V295.412C631.018 293.656 629.599 292.236 627.842 292.236ZM486.645 390.765H627.842C629.599 390.765 631.018 392.185 631.018 393.941V445.123C631.018 446.879 629.599 448.299 627.842 448.299H486.645C484.888 448.299 483.469 446.879 483.469 445.123V393.941C483.469 392.185 484.888 390.765 486.645 390.765Z" fill="#809BBA"/>
<path fill-rule="evenodd" clip-rule="evenodd" d="M571.527 308.884C567.26 306.681 562.406 305.424 557.263 305.424C551.393 305.424 545.916 307.05 541.234 309.864L542.337 311.676C534.017 316.686 528.402 325.749 528.244 336.113H526.141V336.562C526.141 348.106 532.437 358.186 541.766 363.56L542.774 361.706C547.041 364.175 551.991 365.589 557.265 365.589C562.858 365.589 568.086 363.999 572.521 361.248L573.626 363.064C582.505 357.574 588.409 347.76 588.409 336.562V336.112H586.286C586.118 325.066 579.75 315.498 570.517 310.74L571.527 308.884ZM542.93 312.652C534.942 317.461 529.551 326.161 529.397 336.113H549.564C549.718 333.444 551.225 331.139 553.41 329.873L542.93 312.652ZM543.33 360.685C547.431 363.063 552.192 364.424 557.265 364.424C562.637 364.424 567.658 362.898 571.917 360.255L561.457 343.062C560.252 343.839 558.817 344.29 557.277 344.29C555.68 344.29 554.197 343.805 552.965 342.975L543.33 360.685ZM585.133 336.112H564.99C564.818 333.121 562.945 330.586 560.323 329.46L569.97 311.743C578.847 316.308 584.969 325.499 585.133 336.112Z" fill="#456080"/>
<path fill-rule="evenodd" clip-rule="evenodd" d="M462.755 354.552H482.911C484.226 354.552 485.298 355.624 485.298 356.939C485.298 358.254 484.226 359.326 482.911 359.326H482.346V360.468C482.346 362.094 482.669 363.72 483.338 365.208C483.742 366.096 484.272 367.053 484.987 368.022C485.748 369.037 486.532 369.832 487.259 370.455C487.708 370.847 488.193 371.193 488.689 371.516C491.491 373.35 494.281 375.183 497.083 377.028C499.874 378.862 502.676 380.696 505.467 382.529C509.549 385.217 508.626 390.937 504.809 392.759V452.37C506.804 453.592 508.142 455.772 508.142 458.286C508.142 462.103 505.04 465.206 501.223 465.206H444.489C440.672 465.206 437.57 462.103 437.57 458.286C437.57 455.784 438.896 453.592 440.891 452.381V392.759C437.074 390.937 436.152 385.205 440.234 382.529C443.036 380.696 445.827 378.862 448.629 377.028C451.431 375.195 454.221 373.35 457.012 371.516C457.508 371.193 457.992 370.847 458.442 370.455C459.168 369.844 459.964 369.037 460.714 368.022C461.429 367.053 461.959 366.096 462.363 365.208C463.031 363.72 463.354 362.106 463.354 360.468V359.326H462.755C461.44 359.326 460.368 358.254 460.368 356.939C460.368 355.624 461.44 354.552 462.755 354.552Z" fill="#456080"/>
<path fill-rule="evenodd" clip-rule="evenodd" d="M501.287 382.23C498.854 380.627 496.409 379.035 493.965 377.432C491.531 375.829 489.087 374.226 486.642 372.635C486.204 372.347 485.789 372.047 485.397 371.712C484.763 371.17 484.071 370.467 483.425 369.59C482.779 368.714 482.306 367.86 481.949 367.042C481.372 365.761 481.119 364.366 481.119 362.971C481.119 361.875 480.231 360.987 479.135 360.987H466.532C465.436 360.987 464.548 361.875 464.548 362.971C464.548 364.412 464.271 365.819 463.683 367.122C463.337 367.895 462.865 368.737 462.242 369.579C461.585 370.467 460.893 371.159 460.27 371.701C459.878 372.035 459.463 372.347 459.025 372.623C456.58 374.215 454.147 375.818 451.714 377.421L450.088 378.724C448.497 379.993 446.721 380.973 444.91 381.918C439.987 384.49 441.912 391.64 447.205 391.64H498.439C503.536 391.64 505.507 385.021 501.252 382.218L501.287 382.23ZM498.681 393.312H447.021C445.902 393.312 444.991 394.224 444.991 395.342V447.665C444.991 448.784 445.902 449.695 447.021 449.695H498.681C499.799 449.695 500.71 448.784 500.71 447.665V395.342C500.71 394.224 499.799 393.312 498.681 393.312ZM447.171 451.367H498.266C501.541 451.367 504.458 453.754 504.769 457.018C505.127 460.754 502.198 463.891 498.542 463.891H447.447C444.172 463.891 441.255 461.504 440.944 458.24C440.586 454.504 443.515 451.367 447.171 451.367Z" fill="#809BBA"/>
<path d="M487.655 395.885H458.054C456.705 395.885 455.621 396.969 455.621 398.318V444.69C455.621 446.039 456.705 447.123 458.054 447.123H487.655C488.993 447.123 490.088 446.039 490.088 444.69V398.318C490.088 396.969 488.993 395.885 487.655 395.885Z" fill="#456080"/>
<path fill-rule="evenodd" clip-rule="evenodd" d="M465.275 416.976C463.626 422.108 467.466 427.355 472.851 427.355C478.248 427.355 482.065 422.108 480.427 416.976L473.635 400.012C473.359 399.308 472.355 399.308 472.079 400.012L465.275 416.976ZM460.098 437.123C460.098 433.248 462.519 430.538 465.99 430.538C469.461 430.538 471.71 433.156 471.71 436.904C471.71 441.471 468.746 443.512 465.817 443.512C462.45 443.512 460.098 440.998 460.098 437.123ZM465.909 441.148C468.043 441.148 469 439.049 469 436.973C469 434.897 468.054 432.891 465.921 432.891C463.788 432.891 462.831 435.001 462.831 437.089C462.831 439.038 463.776 441.148 465.909 441.148ZM475.665 430.919H473.036V443.524H475.665V430.919ZM480.716 430.919V441.125H485.616V443.512H478.086V430.919H480.716Z" fill="#809BBA"/>
<path fill-rule="evenodd" clip-rule="evenodd" d="M810.46 291.561H829.671C834.595 291.561 838.585 295.551 838.585 300.476C838.585 304.258 836.233 307.476 832.923 308.779V310.959C832.923 312.665 833.984 314.188 835.587 314.787L864.611 325.605C870.78 327.911 874.874 333.793 874.874 340.378L874.839 346.986C874.839 351.726 871.161 355.566 866.422 355.566C871.08 355.566 874.851 359.349 874.851 363.996V383.682C874.851 388.341 871.069 392.112 866.422 392.112C871.08 392.112 874.851 395.895 874.851 400.543V420.228C874.851 424.888 871.069 428.659 866.422 428.659C871.08 428.659 874.851 432.441 874.851 437.089V456.775C874.851 461.434 871.069 465.205 866.422 465.205H773.664C769.005 465.205 765.234 461.422 765.234 456.775V437.089C765.234 432.43 769.017 428.659 773.664 428.659C769.005 428.659 765.234 424.876 765.234 420.228V400.543C765.234 395.884 769.017 392.112 773.664 392.112C769.005 392.112 765.234 388.33 765.234 383.682V363.996C765.234 359.337 769.017 355.566 773.664 355.566C768.924 355.566 765.246 351.726 765.246 346.986V340.378C765.246 333.793 769.34 327.9 775.509 325.605L804.533 314.787C806.136 314.199 807.197 312.665 807.197 310.959V308.767C803.887 307.464 801.546 304.235 801.546 300.476C801.546 295.551 805.536 291.561 810.46 291.561Z" fill="#456080"/>
<path fill-rule="evenodd" clip-rule="evenodd" d="M868.345 340.435V346.258C868.345 349.914 865.75 352.97 862.302 353.674H777.801C774.353 352.97 771.759 349.914 771.759 346.258V340.435C771.759 334.634 775.368 329.444 780.799 327.414L806.376 317.877C807.782 317.347 808.716 316.009 808.716 314.498C808.716 313.126 809.835 312.007 811.207 312.007H828.896C830.268 312.007 831.387 313.126 831.387 314.498C831.387 316.009 832.321 317.347 833.728 317.877L859.304 327.414C864.736 329.444 868.345 334.634 868.345 340.435ZM778.827 357.56H861.299C865.439 357.56 868.795 360.916 868.795 365.056V382.551C868.795 386.691 865.439 390.047 861.299 390.047H778.827C774.688 390.047 771.332 386.691 771.332 382.551V365.056C771.332 360.916 774.688 357.56 778.827 357.56ZM861.299 393.841H778.827C774.688 393.841 771.332 397.197 771.332 401.337V418.832C771.332 422.972 774.688 426.328 778.827 426.328H861.299C865.439 426.328 868.795 422.972 868.795 418.832V401.337C868.795 397.197 865.439 393.841 861.299 393.841ZM778.827 430.122H861.299C865.439 430.122 868.795 433.478 868.795 437.618V455.113C868.795 459.253 865.439 462.609 861.299 462.609H778.827C774.688 462.609 771.332 459.253 771.332 455.113V437.618C771.332 433.478 774.688 430.122 778.827 430.122Z" fill="#809BBA"/>
<path d="M843.128 351.306H796.98C794.443 351.306 792.379 353.37 792.379 355.907V429.934C792.379 432.471 794.443 434.535 796.98 434.535H843.128C845.665 434.535 847.729 432.471 847.729 429.934V355.907C847.729 353.37 845.665 351.306 843.128 351.306Z" fill="#456080"/>
<path fill-rule="evenodd" clip-rule="evenodd" d="M813.222 395.374L813.198 392.41C812.622 392.11 811.999 392.098 811.388 392.075C809.243 392.018 807.098 391.96 806.464 379.77C806.372 377.983 806.776 376.195 807.64 374.638C808.194 373.647 808.943 372.586 809.97 371.582C813.925 367.742 818.941 367.719 820.025 367.742C821.109 367.719 826.125 367.742 830.08 371.582C831.107 372.586 831.856 373.647 832.41 374.638C833.286 376.195 833.678 377.983 833.586 379.77C832.94 391.949 830.807 392.018 828.662 392.075C828.051 392.098 827.44 392.11 826.852 392.41V395.374C826.852 396.815 825.687 397.98 824.245 397.98H815.828C814.386 397.98 813.222 396.815 813.222 395.374ZM825.975 380.601C824.81 379.805 822.746 380.059 821.905 381.016C821.628 381.327 821.547 381.811 821.57 382.33C821.616 383.611 822.343 384.787 823.369 385.56C824.015 386.055 824.591 386.367 825.721 386.782C826.921 387.243 829.469 386.148 828.316 383.484C827.543 382.111 827.059 381.535 825.975 380.601ZM822.931 388.281L820.186 385.121C819.944 384.833 819.495 384.833 819.252 385.121L816.508 388.281C816.312 388.512 816.277 388.846 816.439 389.112L817.131 390.265C817.281 390.53 817.569 390.691 817.88 390.691H821.547C821.847 390.691 822.135 390.53 822.297 390.265L822.989 389.112C823.15 388.846 823.127 388.512 822.931 388.281ZM813.475 380.601C812.38 381.535 811.907 382.111 811.134 383.484C809.981 386.136 812.541 387.243 813.74 386.782C814.871 386.355 815.447 386.044 816.093 385.56C817.119 384.787 817.834 383.622 817.892 382.33C817.915 381.811 817.823 381.327 817.546 381.016C816.704 380.07 814.64 379.805 813.475 380.601ZM837.299 411.854C837.783 410.896 838.879 410.308 840.066 410.62C840.897 410.839 841.565 411.531 841.762 412.372C841.992 413.387 841.589 414.321 840.862 414.863C840.608 415.048 840.447 415.336 840.447 415.659C840.447 416.132 840.297 416.663 839.72 417.274C839.225 417.793 838.556 418.162 837.829 418.093C836.619 417.977 835.661 416.951 835.661 415.705C835.661 415.244 835.811 414.806 836.042 414.437L820.06 406.802L804.077 414.437C804.319 414.806 804.458 415.233 804.458 415.705C804.458 416.951 803.501 417.977 802.29 418.093C801.575 418.162 800.895 417.804 800.399 417.274C799.822 416.663 799.661 416.132 799.672 415.659C799.684 415.348 799.511 415.06 799.257 414.863C798.542 414.321 798.127 413.387 798.358 412.372C798.554 411.531 799.223 410.839 800.053 410.62C801.241 410.32 802.336 410.908 802.82 411.854L816.727 405.211L802.878 398.591C802.44 399.629 801.298 400.298 800.041 399.975C799.211 399.756 798.542 399.064 798.346 398.222C798.116 397.207 798.519 396.273 799.246 395.731C799.499 395.547 799.661 395.258 799.661 394.935C799.661 394.463 799.811 393.932 800.387 393.321C800.883 392.802 801.552 392.433 802.278 392.502C803.489 392.617 804.446 393.644 804.446 394.889C804.446 395.293 804.331 395.673 804.146 396.008L820.06 403.608L835.973 396.008C835.8 395.673 835.673 395.304 835.673 394.889C835.673 393.644 836.63 392.617 837.841 392.502C838.556 392.433 839.236 392.79 839.732 393.321C840.309 393.932 840.47 394.463 840.458 394.935C840.458 395.247 840.62 395.535 840.874 395.731C841.589 396.273 842.004 397.207 841.773 398.222C841.577 399.064 840.908 399.756 840.078 399.975C838.821 400.298 837.679 399.629 837.241 398.591L823.392 405.211L837.299 411.854Z" fill="#809BBA"/>
</g>
<defs>
<clipPath id="clip0_1970_218464">
<rect width="1030" height="536" fill="white" transform="translate(0.171875)"/>
</clipPath>
</defs>
</svg>
