<svg width="1240" height="748" viewBox="0 0 1240 748" fill="none" xmlns="http://www.w3.org/2000/svg">
<g clip-path="url(#clip0_1964_212765)">
<rect width="1240" height="748" fill="#3A3C3F"/>
<g opacity="0.12">
<path d="M28.7797 -285.936L172.375 5.53775L137.333 -322.842" fill="#456080"/>
<path d="M-64.0303 206.93L172.375 5.53757L28.7798 -285.937" fill="#537399"/>
<path d="M-64.0176 206.932L382.004 462.889L172.388 5.53906" fill="#456080"/>
<path d="M172.388 5.53878L382.004 462.889L297.192 -109.94" fill="#3C5470"/>
<path d="M861.16 -26.0098L843.131 156.533L726.579 -40.4943L861.16 -26.0098Z" fill="#3C5470"/>
<path d="M474.938 284.711L664.875 -50.4147L297.19 -109.94" fill="#6687AD"/>
<path d="M297.193 -109.94L474.941 284.711L382.004 462.889L297.193 -109.94Z" fill="#537399"/>
<path d="M539.054 426.58L474.938 284.712L664.875 -50.4136L539.054 426.58Z" fill="#3C5470"/>
<path d="M381.997 462.889L539.051 426.578L474.934 284.71" fill="#6687AD"/>
<path d="M0.604787 431.339L8.73047 248.598L-64.0196 206.93" fill="#3C5470"/>
<path d="M0.606628 431.34L382.004 462.888L8.7323 248.598" fill="#6687AD"/>
<path d="M172.375 5.53775L297.18 -109.941L137.333 -322.842" fill="#6687AD"/>
<path d="M726.588 -40.4927L843.141 156.535L664.884 -50.4136L726.588 -40.4927Z" fill="#456080"/>
<path d="M664.884 -50.4136L843.141 156.535L539.064 426.58L664.884 -50.4136Z" fill="#537399"/>
<path d="M539.064 426.577L843.141 156.532L827.524 346.417L539.064 426.577Z" fill="#6687AD"/>
<path d="M827.515 346.417L843.131 156.532L939.242 315.464L827.515 346.417Z" fill="#537399"/>
<path d="M843.131 156.532L861.16 -26.0112L939.242 315.464L843.131 156.532Z" fill="#6687AD"/>
<path d="M861.164 -26.0111L939.754 18.8311L939.246 315.464" fill="#537399"/>
<path d="M860.656 -26.0099L938.865 -72.4395L939.754 18.8322" fill="#537399"/>
<path d="M677.688 732.139L539.044 426.578L381.99 462.888" fill="#456080"/>
<path d="M939.242 315.465L620.184 605.352L539.054 426.578L939.242 315.465Z" fill="#3C5470"/>
<path d="M939.242 315.465L677.698 732.14L620.184 605.351L939.242 315.465Z" fill="#6687AD"/>
<path d="M580.316 643.448L436.975 777.379L382 462.888L580.316 643.448Z" fill="#3C5470"/>
<path d="M436.961 777.379L381.986 462.888L385.16 812.895" fill="#6687AD"/>
<path d="M155.502 606.543L382.004 462.889L0.606628 431.341" fill="#456080"/>
<path d="M155.5 606.542L385.176 812.895L382.002 462.888" fill="#537399"/>
<path d="M-12.7301 708.132L155.496 606.543L0.601028 431.341" fill="#3C5470"/>
<path d="M-213.451 530.747L-8.65893 622.217L0.609375 431.341" fill="#456080"/>
<path d="M939.753 18.832L1231.64 -70.8523L1295.76 162.684" fill="#3C5470"/>
<path d="M938.86 -72.4397L1231.64 -70.8524L939.749 18.832" fill="#6687AD"/>
<path d="M939.753 18.833L1295.76 162.685L1267.7 205.543" fill="#456080"/>
<path d="M939.754 18.833L1267.7 205.543L939.246 315.466" fill="#6687AD"/>
<path d="M939.246 315.465L1267.7 205.542L1109.12 454.951L939.246 315.465Z" fill="#456080"/>
<path d="M939.248 315.465L1109.12 454.952L841.233 872.222L939.248 315.465Z" fill="#3C5470"/>
<path d="M939.242 315.465L841.227 872.222L677.698 732.14L939.242 315.465Z" fill="#537399"/>
<path d="M1284.84 595.033L1109.12 454.951L1267.7 205.542" fill="#3C5470"/>
<path d="M1284.84 595.034L841.227 872.222L1109.12 454.952" fill="#537399"/>
<path d="M1447.1 721.228L977.842 961.71L1284.84 595.035" fill="#3C5470"/>
<path d="M1284.84 595.035L977.839 961.71L841.227 872.224" fill="#6687AD"/>
<path d="M580.307 643.446L677.688 732.139L436.965 777.378L580.307 643.446Z" fill="#6687AD"/>
<path d="M496.899 930.359L841.223 872.222L677.694 732.14" fill="#6687AD"/>
<path d="M436.965 777.379L496.892 930.359L677.688 732.14" fill="#537399"/>
<path d="M385.176 812.894L72.0847 656.939L155.499 606.541L385.176 812.894Z" fill="#456080"/>
<path d="M385.176 812.897L-12.7266 708.133L72.0847 656.941" fill="#6687AD"/>
<path d="M1452.43 873.61L977.838 961.707L1447.09 721.227" fill="#6687AD"/>
<path d="M220.641 1058.14L-178.277 941.668L-12.7174 708.131" fill="#3C5470"/>
<path d="M385.176 812.895L220.632 1058.14L-12.7266 708.131" fill="#456080"/>
</g>
</g>
<defs>
<clipPath id="clip0_1964_212765">
<rect width="1240" height="748" fill="white"/>
</clipPath>
</defs>
</svg>
