<svg width="1030" height="536" viewBox="0 0 1030 536" fill="none" xmlns="http://www.w3.org/2000/svg">
<g clip-path="url(#clip0_1964_213062)">
<rect width="1030" height="536" fill="#525457"/>
<g opacity="0.12">
<path d="M-38.9874 112.881L151.191 -27.614L35.6747 -230.952" fill="#537399"/>
<path d="M-38.9825 112.883L319.824 291.443L151.196 -27.6128" fill="#456080"/>
<path d="M151.196 -27.6132L319.824 291.443L251.597 -108.173" fill="#3C5470"/>
<path d="M705.289 -49.622L690.786 77.7236L597.024 -59.7266L705.289 -49.622Z" fill="#3C5470"/>
<path d="M394.59 167.143L547.387 -66.6474L251.598 -108.173" fill="#6687AD"/>
<path d="M251.602 -108.173L394.594 167.142L319.83 291.443L251.602 -108.173Z" fill="#537399"/>
<path d="M446.169 266.113L394.59 167.143L547.387 -66.6465L446.169 266.113Z" fill="#3C5470"/>
<path d="M319.825 291.442L446.168 266.112L394.589 167.142" fill="#6687AD"/>
<path d="M13.0101 269.433L19.5469 141.949L-38.9777 112.881" fill="#3C5470"/>
<path d="M13.0052 269.433L319.824 291.442L19.5419 141.949" fill="#6687AD"/>
<path d="M597.035 -59.7255L690.797 77.7246L547.397 -66.6465L597.035 -59.7255Z" fill="#456080"/>
<path d="M547.397 -66.6465L690.797 77.7246L446.179 266.113L547.397 -66.6465Z" fill="#537399"/>
<path d="M446.179 266.111L690.797 77.7227L678.234 210.19L446.179 266.111Z" fill="#6687AD"/>
<path d="M678.225 210.19L690.788 77.7227L768.105 188.596L678.225 210.19Z" fill="#537399"/>
<path d="M690.788 77.7228L705.291 -49.6228L768.105 188.596L690.788 77.7228Z" fill="#6687AD"/>
<path d="M705.293 -49.6228L768.516 -18.3401L768.107 188.596" fill="#537399"/>
<path d="M557.695 479.277L446.162 266.111L319.819 291.442" fill="#456080"/>
<path d="M768.105 188.597L511.436 390.827L446.17 266.111L768.105 188.597Z" fill="#3C5470"/>
<path d="M768.105 188.597L557.703 479.277L511.436 390.827L768.105 188.597Z" fill="#6687AD"/>
<path d="M479.359 417.404L364.047 510.836L319.822 291.442L479.359 417.404Z" fill="#3C5470"/>
<path d="M364.043 510.836L319.818 291.442L322.371 535.613" fill="#6687AD"/>
<path d="M137.612 391.658L319.824 291.443L13.0052 269.434" fill="#456080"/>
<path d="M137.617 391.658L322.383 535.613L319.829 291.442" fill="#537399"/>
<path d="M2.27803 462.529L137.609 391.658L13.0024 269.434" fill="#3C5470"/>
<path d="M-159.195 338.782L5.55183 402.593L13.0078 269.434" fill="#456080"/>
<path d="M-159.2 338.781L2.27848 462.528L5.54688 402.593" fill="#6687AD"/>
<path d="M768.515 -18.3396L1003.33 -80.905L1054.91 82.0142" fill="#3C5470"/>
<path d="M768.515 -18.3389L1054.91 82.0149L1032.33 111.913" fill="#456080"/>
<path d="M768.517 -18.3389L1032.34 111.913L768.108 188.598" fill="#6687AD"/>
<path d="M768.108 188.597L1032.34 111.913L904.767 285.905L768.108 188.597Z" fill="#456080"/>
<path d="M768.11 188.597L904.77 285.905L689.261 577.001L768.11 188.597Z" fill="#3C5470"/>
<path d="M768.105 188.597L689.256 577.001L557.704 479.277L768.105 188.597Z" fill="#537399"/>
<path d="M1046.12 383.629L904.764 285.905L1032.33 111.913" fill="#3C5470"/>
<path d="M1046.12 383.63L689.255 577.001L904.764 285.906" fill="#537399"/>
<path d="M1176.66 471.665L799.158 639.429L1046.13 383.63" fill="#3C5470"/>
<path d="M1046.12 383.63L799.154 639.429L689.255 577.002" fill="#6687AD"/>
<path d="M479.356 417.403L557.695 479.276L364.044 510.836L479.356 417.403Z" fill="#6687AD"/>
<path d="M412.259 617.558L689.254 577.001L557.702 479.277" fill="#6687AD"/>
<path d="M364.044 510.837L412.252 617.558L557.695 479.277" fill="#537399"/>
<path d="M322.383 535.613L70.5133 426.815L137.617 391.657L322.383 535.613Z" fill="#456080"/>
<path d="M412.262 617.557L322.381 535.613L364.053 510.836" fill="#456080"/>
<path d="M322.383 535.614L2.28597 462.529L70.5134 426.817" fill="#6687AD"/>
<path d="M2.28516 462.528L-159.193 338.781L-236 380.307" fill="#3C5470"/>
<path d="M1180.94 577.97L799.154 639.428L1176.65 471.664" fill="#6687AD"/>
<path d="M288.371 785.184L190.013 706.7L322.383 535.614" fill="#537399"/>
<path d="M190.016 706.7L-130.898 625.448L2.28824 462.528" fill="#3C5470"/>
<path d="M-130.901 625.447L-145.711 535.06L2.28516 462.528" fill="#537399"/>
<path d="M322.383 535.614L190.013 706.7L2.28597 462.528" fill="#456080"/>
<path d="M322.381 535.614L412.262 617.558L288.37 785.184" fill="#456080"/>
</g>
<path opacity="0.5" d="M718.524 504C848.759 504 954.334 398.339 954.334 268C954.334 137.661 848.759 32 718.524 32C588.29 32 482.715 137.661 482.715 268C482.715 398.339 588.29 504 718.524 504Z" fill="#809BBA"/>
<path d="M560.963 424.585C566.392 420.746 567.382 420.653 570.94 416.873C576.268 411.197 578.056 407.61 579.877 401.674C580.229 400.526 581.018 398.036 583.309 395.957C587.244 392.394 589.367 393.426 593.034 393.032C594.88 392.839 596.365 392.411 597.54 391.866C607.013 387.482 607.047 376.341 607.509 371.814C608.222 365.326 609.514 363.498 611.889 358.385C613.919 354.017 616.227 350.463 618.316 347.688C619.038 346.732 619.885 345.903 620.775 345.106C622.613 343.455 623.578 341.007 623.309 338.534C622.973 335.482 621.48 334.627 617.846 332.012L610.638 326.085C609.833 325.423 609.304 324.492 609.145 323.47L608.86 321.6C608.717 320.695 608.281 319.848 607.609 319.228C604.253 316.101 600.72 313.167 597.548 309.856C596.676 308.95 595.904 307.827 593.462 307.45C591.205 307.106 591.028 307.358 589.199 307.802C585.566 308.691 581.664 309.235 577.947 309.68C577.393 309.747 576.906 309.261 577.024 308.716C577.141 308.154 577.082 307.576 576.831 307.064C576.411 306.226 575.53 305.681 574.557 305.631C574.112 305.614 573.81 305.178 573.902 304.742C574.834 300.626 576.193 297.759 576.755 293.333C577.024 290.977 577.04 290.332 576.965 289.636C576.495 285.009 571.326 282.653 570.856 282.443L556.155 274.236C554.552 273.34 553.243 272.007 552.379 270.389L549.492 264.957C548.829 263.707 547.873 262.634 546.707 261.838C541.798 258.468 536.897 255.09 531.989 251.72C531.401 251.292 529.169 249.783 526.048 250.026C522.381 250.32 521.567 251.695 519.872 253.262C519.091 253.983 517.396 255.232 514.913 255.794C512.446 256.356 510.331 255.953 509.014 255.542C508.712 255.45 508.502 255.442 508.292 255.551C507.83 255.794 507.268 255.534 507.067 255.056L506.891 254.637C506.698 254.176 506.597 253.681 506.58 253.187L506.337 239.883C506.245 233.805 504.952 235.163 503.232 233.478C502.762 233.017 502.569 231.894 502.502 230.611C502.452 229.673 502.829 229.036 503.115 228.524C505.431 224.291 505.515 219.839 506.589 214.91C506.79 214.005 506.916 213.393 506.379 212.915C505.808 212.412 504.986 212.596 504.289 213.058C500.832 215.338 499.892 217.635 498.508 221.365C498.298 221.759 497.358 223.377 495.336 224.039C494.833 224.207 494.354 224.282 493.918 224.308C493.029 224.358 492.399 223.452 492.768 222.639L508.418 188.973C508.745 188.261 509.668 188.068 510.256 188.571C510.516 188.789 510.776 189.015 511.036 189.233C511.732 189.828 512.823 189.493 513.058 188.604C513.117 188.386 513.176 188.202 513.243 188.026C514.459 184.949 518.781 183.122 524.009 183.533C525.628 183.65 527.214 184.438 529.908 183.13C531.644 182.284 532.677 181.009 533.935 179.517C548.871 165.006 562.155 152.113 577.099 137.602C578.484 135.859 580.892 134.258 583.015 135.104C584.819 135.825 585.96 137.753 585.801 139.79C585.75 140.478 586.262 141.073 586.942 141.14C589.359 141.4 589.493 141.601 591.893 142.003C597.246 142.892 599.26 142.138 599.881 140.411C600.351 139.103 599.554 138.181 598.169 136.278C596.273 133.679 593.99 131.399 591.893 128.951C591.666 128.775 588.855 126.47 589.359 124.517C589.845 122.614 595.837 121.499 599.176 122.874L603.237 125.17C605.562 126.629 607.66 126.336 607.71 125.849C607.853 124.584 605.235 123.217 606.829 122.748C608.549 122.245 613.844 121.323 618.702 119.227C622.99 117.374 626.254 115.052 628.604 113.174C629.779 111.808 632.59 109.863 627.614 110.425C625.784 110.567 623.183 109.092 622.117 105.957C621.295 103.542 621.908 101.204 624.727 98.2946C625.054 97.9593 624.736 97.3977 624.274 97.4564L612.501 99.8371C611.603 99.9796 611.05 99.7533 611.125 98.8479L611.352 96.1402C611.511 94.3379 610.857 93.3403 609.749 92.7535C608.23 91.9571 606.124 92.4349 604.463 93.7595C602.826 95.0253 603.212 94.6145 601.4 96.0983C599.789 97.4228 597.993 100.063 596.718 100.701C595.744 101.17 594.662 101.338 593.596 101.195L591.691 100.944C591.314 100.893 590.944 101.12 590.827 101.48L590.105 103.609C589.635 104.993 588.738 106.191 587.546 107.038C583.98 109.561 576.856 114.273 575.866 114.935C575.01 115.505 574.305 116.268 573.793 117.156C571.678 120.811 569.967 123.611 569.455 123.402C568.792 123.125 567.76 121.197 571.251 113.35C571.36 113.099 571.158 112.831 570.89 112.873C566.056 113.652 562.499 111.33 562.222 109.159C561.995 107.373 563.908 105.16 566.736 103.878C577.712 98.6216 590.273 95.8468 599.654 88.101C600.468 87.4303 601.039 86.6004 600.779 85.2843C600.46 83.6412 598.874 81.6544 594.997 82.8197L568.851 96.7522C568.095 97.1546 567.189 97.1546 566.434 96.7606L559.738 93.2565C521.516 127.954 494.732 175.007 485.703 228.097L489.639 226.068C490.125 229.262 490.612 232.456 491.099 235.65C491.216 236.413 491.871 236.966 492.643 236.999C492.794 236.999 492.928 237.024 493.054 237.041C493.641 237.133 496.637 238.802 497.157 242.222C497.954 247.294 498.894 250.781 500.824 255.081C502.938 259.809 505.187 262.634 507.235 264.655C508.418 265.82 508.896 267.53 508.46 269.131C504.063 280.247 508.955 278.747 504.298 284.472C503.962 284.841 501.797 287.289 502.368 290.39C502.561 291.447 503.006 292.252 503.358 292.738C504.222 293.97 504.558 294.515 504.44 295.697C504.306 297.038 503.073 297.818 502.796 297.994C500.79 299.603 498.827 301.171 499.07 306.041C499.221 309.017 500.748 311.113 501.898 312.295C502.846 313.259 503.593 314.408 504.113 315.657C505.758 319.614 507.411 323.562 509.056 327.519C509.492 328.567 509.727 329.69 509.769 330.83C509.878 333.898 510.373 337.821 511.85 342.139C514.392 349.574 518.638 354.663 521.584 357.572C522.515 358.494 522.683 359.676 522.993 360.296C525.284 366.608 526.207 365.636 526.761 370.557C527.147 373.985 526.526 377.288 526.106 379.124C524.932 385.805 525.175 388.597 526.4 395.018C527.978 403.309 532.794 412.455 536.654 418.415C543.484 426.639 550.86 434.393 558.731 441.619C558.614 435.424 556.247 427.896 560.955 424.568L560.963 424.585Z" fill="#6687AD"/>
<path d="M636.955 75.9548C634.883 75.653 633.481 75.9548 632.365 76.2482C631.929 76.3656 631.476 76.3823 631.031 76.3237C629.781 76.156 627.045 76.0638 625.182 77.9835C624.452 78.738 624.075 79.5846 623.865 80.2385L621.692 84.212C621.348 84.8408 620.76 85.2934 620.064 85.4527C618.746 85.7461 618.319 86.3916 618.226 86.5341C617.286 88.0431 618.486 91.1867 621.952 93.6177C627.7 94.4728 628.774 94.3219 631.887 94.0285C632.676 93.953 633.414 93.5926 633.951 93.0142L641.705 84.7066C642.074 84.3042 642.342 83.818 642.46 83.2899C642.586 82.7282 642.678 82.0828 642.711 81.3702C642.779 79.811 643.19 79.0481 642.242 77.6649C641.201 77.12 639.045 76.265 636.955 75.9632V75.9548Z" fill="#6687AD"/>
<path d="M693.171 93.2319C693.28 93.2487 693.381 93.2822 693.49 93.3157C694.581 93.7181 696.225 94.1457 698.197 94.0367C702.418 93.802 705.263 91.2787 706.312 90.214C706.488 90.0296 706.706 89.8955 706.941 89.8033C717.077 85.8214 718.185 88.286 721.86 88.9147C723.455 89.1913 724.973 89.8787 726.585 90.038C731.208 90.4907 734.355 90.5829 736.536 90.4907C738.634 90.3985 739.733 87.9339 738.391 86.3243C737.535 85.3016 736.813 83.9268 736.578 82.1245C736.57 82.049 736.562 81.9736 736.562 81.8981C736.545 80.5066 738.206 79.7102 739.356 80.5066C739.725 80.7581 740.178 81.0095 740.715 81.2024C742.863 81.9484 744.802 81.1437 745.414 80.8503C745.473 80.8167 745.54 80.7916 745.607 80.7664C752.219 78.3438 759.645 77.145 765.687 73.8589C766.392 73.4733 766.191 72.4086 765.402 72.2912C757.716 70.8913 749.819 69.5668 741.714 68.3429C732.777 66.9848 724.042 65.8112 715.525 64.7969C713.503 64.5538 711.48 64.4029 709.45 64.3107C699.565 63.858 689.16 63.6903 678.277 63.9083C672.319 64.0256 666.521 64.252 660.882 64.5622C659.103 64.6628 657.735 66.1549 657.786 67.9237L658.079 78.7797C658.105 79.6934 658.801 80.4479 659.707 80.5569C668.199 81.5377 672.462 82.6526 672.495 83.9017C672.529 85.0669 668.87 86.3411 661.511 87.7327C661.369 87.7578 661.218 87.7997 661.083 87.8668C656.779 89.82 656.804 94.4474 657.794 97.2809C659.254 101.447 666.529 104.406 674.325 100.902C674.459 100.844 674.593 100.76 674.711 100.668C685.51 92.2427 688.178 92.3601 693.188 93.2487L693.171 93.2319Z" fill="#6687AD"/>
<path d="M632.848 125.07L628.149 122.136C627.687 121.172 627.075 120.694 626.714 120.46C625.119 120.141 622.963 120.275 620.605 121.29C617.341 122.438 615.554 121.34 614.169 122.84C612.868 124.249 612.13 124.911 611.727 125.657C609.68 126.009 608.413 126.101 608.346 127.091C608.304 127.677 608.958 128.122 611.098 129.882C615.705 134.484 617.433 132.322 620.051 130.729C623.131 128.851 623.466 127.686 626.831 126.948C627.654 126.764 628.434 126.68 629.13 126.655C629.55 126.638 629.961 126.588 630.372 126.487C631.153 126.294 631.933 126.11 632.722 125.917C633.125 125.816 633.208 125.288 632.856 125.07H632.848Z" fill="#456080"/>
<path d="M916.901 139.95H911.078C905.313 139.715 900.228 133.73 898.625 131.642C898.164 131.039 897.643 130.477 897.073 129.974C895.185 128.314 892.08 126.093 887.742 124.802C883.932 123.67 880.618 123.695 878.512 123.888C877.144 124.047 874.031 124.324 873.788 123.536C873.527 122.698 880.928 118.104 884.36 115.832C884.704 115.606 884.528 115.069 884.117 115.094L876.364 115.514C875.566 115.556 873.771 115.271 873.125 114.809C873.125 114.809 860.823 108.086 848.245 95.5538C846.172 93.4916 843.806 92.9802 837.639 98.2615C831.362 105.094 824.255 106.695 822.107 102.537C821.075 100.55 817.341 100.936 817.341 100.936C807.12 101.992 804.318 110.325 805.45 113.468C806.751 117.064 812.784 116.612 815.503 117.132C819.312 118.448 820.37 120.963 819.732 122.622C819.128 124.19 817.802 124.299 815.788 124.45C805.954 125.188 798.737 124.676 789.918 124.727C789.407 124.727 788.911 124.861 788.467 125.121L779.329 130.385C778.767 130.704 778.674 131.466 779.119 131.927C779.648 132.481 780.235 133.26 780.646 134.308C781.51 136.53 781.124 138.533 780.822 139.095C777.751 144.795 776.769 148.576 777.332 153.354C777.374 153.732 777.013 154.025 776.66 153.899C775.578 152.742 767.38 144.217 759.677 146.522H759.652C758.292 146.941 757.034 147.822 756.824 149.389C753.921 171.302 754.223 174.89 759.752 177.665C760.835 178.21 763.084 178.939 767.053 177.598C767.757 177.355 768.504 177.254 769.251 177.254H776.081C776.644 177.254 777.156 176.944 777.407 176.441C778.33 174.605 779.849 172.166 782.308 169.86C786.528 165.895 791.135 164.52 793.376 164.018C802.471 162.467 800.978 160.186 808.211 161.41C812.281 162.098 815.755 163.313 817.055 164.998C822.484 172.04 826.076 174.949 830.59 179.928C830.85 180.306 832.26 181.421 833.057 181.722C834.702 182.351 835.935 179.61 837.748 178.797C839.476 178.025 839.946 179.459 840.324 179.92L844.553 185.973C845.082 187.414 845.568 188.018 846.667 188.261C847.817 188.513 848.43 186.911 849.63 186.962C851.325 187.029 850.754 186.928 851.887 188.228C852.483 190.273 852.642 190.466 853.54 190.483C854.463 190.499 855.235 189.51 855.268 188.228C855.327 185.973 857.954 186.031 861.117 187.104C864.28 188.077 867.738 187.037 869.827 184.497C871.958 181.89 872.252 178.21 870.565 175.276C868.182 167.932 876.313 167.421 878.814 170.196C881.851 175.058 883.849 177.296 884.805 176.919C885.191 176.768 885.401 176.123 885.443 175.117C885.476 174.345 885.745 173.582 886.299 173.038C887.012 172.325 888.103 172.074 889.244 175.687L895.025 190.189C895.73 191.95 896.083 193.35 895.168 193.995C894.413 194.523 893.448 193.534 892.063 193.291C864.499 188.42 859.338 194.515 874.165 201.305C875.608 201.967 877.186 202.286 878.772 202.277C880.534 202.269 883.118 202.646 884.872 204.633C885.636 205.496 886.047 206.444 886.282 207.24C886.492 211.809 886.702 216.386 886.92 220.955C886.962 221.768 886.307 222.455 885.493 222.455H870.935C870.398 222.455 869.986 222.916 870.037 223.444L870.708 229.908C870.758 230.36 870.993 230.771 871.371 231.031L882.338 238.735C887.037 241.92 902.401 283.752 902.401 283.752C905.229 292.344 906.009 293.878 907.016 293.928C907.872 293.97 907.881 291.891 909.416 290.902C913.998 287.943 916.557 288.463 921.726 287.172C927.843 285.462 932.626 280.876 934.019 275.125C935.865 267.48 931.334 259.147 923.136 255.342C916.607 252.307 912.588 250.899 914.14 243.714C915.408 241.476 919.452 238.676 924.503 243.857C927.566 247.001 929.932 250.798 932.198 252.039C933.02 252.491 933.784 253.036 934.38 253.749C935.227 254.763 936.125 255.727 937.115 256.607C938.24 257.613 939.431 258.846 940.581 260.338C944.239 265.108 945.473 270.003 945.934 272.829C947 288.178 948.074 303.535 949.14 318.885C952.765 302.462 954.67 285.403 954.67 267.899C954.67 220.728 940.807 176.785 916.935 139.925L916.901 139.95Z" fill="#6687AD"/>
<path d="M855.462 375.293C855.915 373.65 856.536 372.057 857.266 370.523C860.052 364.672 862.284 360.69 863.006 360.187C864.349 359.257 864.835 359.978 867.344 358.846C869.643 357.111 871.565 354.772 873.864 353.036C878.454 349.524 886.275 342.398 890.076 330.964C891.032 328.097 891.871 327.552 891.905 322.9C891.67 321.86 891.485 320.293 891.939 318.532C892.442 316.587 893.474 315.313 894.019 314.726C895.219 313.402 896.293 311.423 897.703 309.219C898.551 307.894 898.953 307.047 898.744 306.595C897.879 305.245 896.948 306.352 892.333 305.715C891.62 305.53 890.94 305.304 890.285 305.044C879.864 300.869 881.408 288.11 875.333 281.773C874.619 281.186 873.646 280.222 872.807 278.839C870.633 275.276 870.986 271.579 871.187 270.221C871.431 268.092 871.791 264.169 870.927 260.128C870.138 256.448 869.475 255.039 867.864 252.248C867.344 251.343 866.975 250.353 866.79 249.322C865.523 242.364 862.855 237.687 863.081 236.169C863.216 235.264 863.644 234.417 864.273 233.747C864.659 233.336 865.079 232.883 865.389 232.548C865.599 232.313 865.767 232.045 865.859 231.743C866.539 229.597 866.639 227.862 866.53 226.772C866.446 225.867 866.253 225.062 866.035 224.375C865.632 223.142 864.634 222.195 863.384 221.835C855.16 219.487 849.597 216.721 841.374 214.374C840.593 214.147 839.872 213.753 839.259 213.208C838.537 212.915 837.656 212.471 836.75 211.783C835.105 210.543 834.157 209.101 833.645 208.17C832.294 206.209 830.96 205.219 829.97 207.382C828.988 209.528 828.049 211.549 828.049 211.549C827.159 213.334 827.285 215.287 826.496 215.824C825.254 216.662 824.071 216.101 821.562 214.466C819.741 213.276 818.206 212.58 817.3 211.876C815 210.082 812.357 207.298 810.998 203.317C810.864 202.914 810.679 202.537 810.377 202.26C809.764 201.699 808.825 201.556 807.985 201.875C806.978 202.252 805.854 202.252 804.814 201.984C804.788 201.984 804.772 201.975 804.746 201.967C803.756 201.707 802.632 201.279 801.499 200.567C799.426 199.268 798.126 197.549 797.329 196.065C796.825 195.143 796.548 194.112 796.498 193.064C796.372 190.222 795.441 183.516 788.451 183.918L769.873 183.717L751.354 183.055C742.988 182.963 740.076 180.364 732.272 187.313C729.671 189.627 728.136 192.285 727.221 194.531C726.214 196.996 724.083 198.815 721.49 199.427C716.959 200.483 710.069 203.224 705.547 210.308C701.636 216.436 701.452 222.748 701.88 226.705C702.106 228.809 701.057 230.863 699.186 231.844C696.258 233.378 694.244 235.65 693.849 238.257C693.807 238.517 693.782 238.81 693.774 239.129C693.757 240.436 693.463 241.727 692.826 242.867C691.064 246.053 689.1 250.84 688.983 256.775C688.949 258.351 689.058 259.809 689.234 261.142C689.394 262.308 689.478 263.489 689.478 264.663V286.048C689.478 287.339 690.099 288.555 691.148 289.309L710.338 303.174C711.169 303.627 713.585 304.809 716.749 304.373C720.827 303.812 721.507 301.506 723.588 300.358C730.863 296.275 733.456 297.273 735.923 297.709C743.013 299.335 752.017 302.219 757.421 300.919C758.394 300.668 759.376 300.987 759.888 301.691C760.315 302.286 760.265 302.957 760.24 303.166C760.198 303.46 759.753 307.24 762.64 309.764C764.838 311.683 767.775 310.971 770.813 310.769C771.484 310.728 775.445 311.381 777.299 315.28C778.633 318.088 778.105 320.653 777.584 321.332C774.245 325.75 773.246 329.824 774.698 331.333C775.008 331.651 775.629 331.635 776.88 332.037C777.517 332.238 777.803 332.716 777.727 333.797C777.66 334.703 776.972 335.206 776.88 335.273C775.805 336.069 775.352 337.461 775.755 338.727C776.141 339.959 777.534 340.127 778.575 340.906C780.085 342.038 780.328 343.497 780.546 346.12C780.723 348.241 780.186 349.901 779.842 350.765C777.61 353.992 774.522 359.324 772.793 366.541C771.929 370.171 771.593 373.508 771.526 376.358C771.459 379.51 771.216 382.662 770.679 385.772C770.091 389.117 769.705 393.057 769.831 397.458C769.965 402.027 770.62 406 771.383 409.219C773.406 420.771 775.428 432.314 777.442 443.866C778.004 446.574 778.18 447.806 779.766 449.214C782.183 451.067 786.118 450.757 788.862 448.091C801.935 437.352 808.556 435.919 812.047 435.173C814.413 434.67 816.662 434.402 818.751 434.284C819.112 434.259 822.519 433.932 824.457 430.83C826.362 427.779 825.229 424.635 825.095 424.283C824.726 423.655 824.709 422.883 825.061 422.28C825.481 421.55 826.328 421.383 827.209 421.333C829.567 421.19 830.356 420.251 832.211 418.055C834.233 415.674 834.594 413.109 834.678 412.178C834.686 411.357 834.77 410.066 835.139 408.548C836.238 404.005 839.041 401.046 840.602 399.637C853.994 385.873 854.279 379.141 854.875 377.28C855.093 376.601 855.286 375.939 855.471 375.268L855.462 375.293Z" fill="#6687AD"/>
<path d="M896.315 389.662L896.382 387.709C896.399 387.29 895.929 387.03 895.585 387.273L892.95 389.092C892.597 389.336 892.111 389.294 891.8 388.992L888.796 386.041C888.511 385.756 888.016 385.924 887.966 386.326C887.521 389.453 887.856 391.876 886.623 395.715C885.901 397.953 884.366 400.686 882.184 403.603C880.363 406.026 878.492 407.879 876.898 409.237C876.898 409.237 856.314 422.758 856.314 423.32C854.376 424.351 853.293 426.489 853.637 428.601C853.948 430.555 855.416 432.164 857.372 432.684C862.482 433.422 865.058 432.189 868.297 428.878C868.641 428.526 869.597 427.763 871.049 427.537C873.038 427.235 874.489 428.274 874.859 428.45C877.292 429.649 880.581 429.44 884.659 426.405C888.83 423.303 890.474 416.513 888.821 411.827C888.486 410.88 888.746 408.122 890.441 405.347C891.96 402.857 893.327 401.617 894.955 401.189C896.818 400.703 898.564 399.923 899.117 398.163C899.503 396.914 899.084 394.541 897.573 392.907C896.751 392.018 896.29 390.853 896.331 389.646L896.315 389.662Z" fill="#6687AD"/>
<path d="M707.973 145.717L586.175 141.011L449.071 124.326C447.578 124.141 446.06 124.435 444.743 125.156L438.72 128.453C437.68 129.023 437.915 130.584 439.081 130.819L588.071 160.263C589.287 160.506 590.512 160.674 591.745 160.766L690.3 168.467C690.853 168.509 691.122 169.172 690.744 169.583L686.97 173.718C686.425 174.314 685.628 174.633 684.823 174.565L650.391 171.848C648.773 171.722 647.288 170.891 646.332 169.583L596.215 101.089C595.519 100.141 594.328 99.6965 593.179 99.9566L579.591 103.086C577.981 103.455 576.991 105.082 577.402 106.684L586.192 141.002L603.488 186.754C603.781 187.534 603.395 188.415 602.624 188.726L596.727 191.074C596.249 191.267 595.737 191.36 595.217 191.343L506.602 189.866C506.535 189.866 506.476 189.866 506.409 189.892L497.694 192.173C496.922 192.375 497.023 193.499 497.812 193.566L587.09 201.065C587.736 201.124 588.214 201.711 588.113 202.357C587.593 205.713 587.702 211.509 606.071 211.241H672.401C674.456 211.241 676.502 210.93 678.473 210.31L846.562 157.645C847.023 157.503 847.501 157.444 847.979 157.469L854.916 157.838C855.512 157.872 855.654 158.686 855.109 158.921L805.714 180.194C804.431 180.748 803.114 181.209 801.78 181.587L719.9 204.664C719.564 204.756 719.657 205.268 720.009 205.218C738.864 202.785 781.541 195.705 790.809 192.677C832.269 179.892 849.833 174.331 850.521 173.844C851.234 173.341 852.081 173.097 852.953 173.156C862.079 173.71 871.205 174.263 880.331 174.825C881.052 174.867 881.454 175.69 881.043 176.285L878.812 179.532C876.103 183.474 879.039 188.809 883.82 188.642L925.85 187.115C926.656 187.115 936.209 186.654 941.309 179.121C945.947 172.275 943.423 162.184 943.205 161.672C953.89 160.061 964.962 157.855 976.512 155.724C988.389 153.535 998.353 151.513 998.328 150.8C998.378 150.532 998.395 150.154 998.278 149.76C997.909 148.552 996.416 147.713 994.529 147.621L901.023 148.653C900.486 148.653 900.36 147.906 900.864 147.738C921.908 140.424 929.516 138.612 947.969 128.101C957.95 122.421 965.608 113.538 971.295 107.339C984.371 88.3382 970.674 83.1289 968.376 81.6273C968.376 81.6273 963.603 71.9048 945.402 70.9401C938.013 70.5459 928.66 70.9401 923.091 72.2655C902.541 76.829 798.257 112.909 711.294 145.18C710.237 145.574 709.113 145.75 707.989 145.708L707.973 145.717Z" fill="#456080"/>
<path d="M724.523 146.313H746.373C747.346 146.313 748.31 146.145 749.225 145.809L896.168 92.3652C896.688 92.1722 897.233 92.5581 897.233 93.1117V95.2341C897.233 95.7206 896.931 96.1484 896.47 96.3162L758.434 145.566C758.023 145.709 758.132 146.321 758.568 146.321H784.243C784.948 146.321 785.652 146.229 786.332 146.053L865.167 125.643C953.338 102.759 967.642 90.6851 973.824 85.5596C973.711 85.1085 971.713 83.304 968.443 81.6768L951.661 81.9967C951.132 81.9967 950.604 82.0806 950.109 82.2568L938.425 86.2498C937.762 86.4763 937.192 85.7297 937.586 85.1509L940.857 80.2771C941.101 79.908 941.486 79.6647 941.923 79.5892L948.767 78.4819C949.228 78.4064 949.69 78.3561 950.151 78.3393L961.114 77.8444C960.426 77.2068 959.478 76.477 958.253 75.8478C955.888 74.6315 953.674 74.4218 952.365 74.405C945.68 73.9017 938.157 73.9101 931.665 74.4302C929.148 74.6315 926.665 75.1768 924.283 76.0072L724.397 145.566C723.986 145.709 724.087 146.321 724.523 146.321V146.313Z" fill="#809BBA"/>
<path d="M893.755 151.27L888.991 154.483C888.538 154.794 888.781 155.507 889.326 155.473L981.699 150.373C982.228 150.272 982.027 149.828 981.607 149.828C953.005 150.096 924.395 150.365 895.793 150.633C895.063 150.633 894.35 150.859 893.747 151.27H893.755Z" fill="#809BBA"/>
<path d="M930.034 155.129C923.659 155.129 918.492 161.236 918.492 168.761C918.492 176.285 923.659 182.392 930.034 182.392C936.409 182.392 941.576 176.285 941.576 168.761C941.576 161.236 936.409 155.129 930.034 155.129ZM930.629 178.836C930.218 178.919 929.933 178.441 930.202 178.123C931.854 176.185 935.553 173.089 935.746 167.955C935.931 163.174 931.158 159.869 929.464 158.183C929.22 157.939 929.43 157.52 929.774 157.57C934.907 158.25 938.917 162.469 939.252 167.561C939.604 172.863 935.872 177.711 930.621 178.844L930.629 178.836Z" fill="#809BBA"/>
<path d="M750.144 148.653C742.721 148.653 736.707 154.567 736.707 161.865C736.707 169.163 742.721 175.077 750.144 175.077C757.568 175.077 763.582 169.163 763.582 161.865C763.582 154.567 757.568 148.653 750.144 148.653ZM754.011 172.032C751.537 173.173 751.092 172.309 751.319 171.931C752.191 170.489 753.625 164.365 752.443 160.338C751.537 157.251 748.123 154.693 743.728 153.317C743.375 153.208 744.583 152.201 744.952 152.033C749.415 150.012 757.4 151.01 760.025 157.394C761.988 162.159 759.648 169.44 754.003 172.04L754.011 172.032Z" fill="#809BBA"/>
<path d="M700.665 169.793C704.707 166.689 713.867 159.76 716.509 157.772C716.995 157.403 717.49 157.075 718.019 156.782C720.636 155.339 723.865 153.821 727.656 152.52C731.875 151.077 735.708 150.297 738.87 149.861C739.005 149.861 739.298 149.861 739.424 150.046C739.541 150.205 739.558 150.44 739.399 150.624C738.241 152.017 737.025 153.779 735.977 155.934C734.14 159.718 734.895 164.801 735.784 168.45C736.086 169.675 735.054 169.667 734.593 168.912C732.202 165.045 731.992 160.372 732.202 158.057C732.227 157.805 732.034 157.587 731.783 157.579C730.432 157.537 728.931 157.562 727.304 157.713C724.846 157.948 722.674 158.409 720.845 158.938C720.107 159.156 719.394 159.458 718.723 159.835C712.768 163.249 706.821 166.672 700.866 170.086C700.673 170.195 700.488 169.927 700.665 169.793Z" fill="#809BBA"/>
<path d="M707.136 149.534L703.957 153.141C703.814 153.309 703.596 153.392 703.378 153.384L586.521 148.745C585.59 148.712 584.659 148.619 583.728 148.468L457.502 128.545C457.234 128.528 457.083 128.336 457.108 128.21C457.125 128.101 457.293 128 457.502 128.017C500.59 133.461 543.677 138.905 586.765 144.349C587.654 144.459 588.551 144.534 589.44 144.559L706.607 148.309C707.228 148.326 707.538 149.056 707.136 149.525V149.534Z" fill="#809BBA"/>
<path d="M599.375 164.927L607.881 184.33C608.115 184.859 608.728 185.119 609.265 184.909L641.783 172.469C642.396 172.234 642.664 171.512 642.354 170.933L640.768 168.023C640.601 167.704 640.282 167.494 639.921 167.46L600.474 163.4C599.644 163.316 599.032 164.155 599.367 164.919L599.375 164.927Z" fill="#809BBA"/>
<path d="M591.753 139.291L617.185 141.195C618.318 141.279 619.031 140.013 618.377 139.09L593.397 104.017C593.045 103.522 592.399 103.329 591.829 103.547L583.995 106.542C583.374 106.777 583.022 107.431 583.164 108.077L589.556 137.395C589.782 138.444 590.671 139.216 591.745 139.3L591.753 139.291Z" fill="#809BBA"/>
</g>
<defs>
<clipPath id="clip0_1964_213062">
<rect width="1030" height="536" fill="white"/>
</clipPath>
</defs>
</svg>
