<svg width="1240" height="795" viewBox="0 0 1240 795" fill="none" xmlns="http://www.w3.org/2000/svg">
<g clip-path="url(#clip0_1964_213214)">
<rect width="1240" height="795" fill="#3A3C3F"/>
<g opacity="0.12">
<path d="M-45.2641 57.2665L185.188 -133.949L45.2086 -410.693" fill="#537399"/>
<path d="M-45.2575 57.2677L389.531 300.29L185.194 -133.948" fill="#456080"/>
<path d="M185.194 -133.948L389.531 300.29L306.856 -243.591" fill="#3C5470"/>
<path d="M856.625 -163.902L839.05 9.41612L725.433 -177.655L856.625 -163.902Z" fill="#3C5470"/>
<path d="M480.128 131.116L665.281 -187.074L306.856 -243.591" fill="#6687AD"/>
<path d="M306.853 -243.591L480.125 131.116L389.529 300.29L306.853 -243.591Z" fill="#537399"/>
<path d="M542.629 265.815L480.128 131.116L665.281 -187.074L542.629 265.815Z" fill="#3C5470"/>
<path d="M389.527 300.289L542.625 265.814L480.123 131.115" fill="#6687AD"/>
<path d="M17.743 270.335L25.6641 96.828L-45.2538 57.2661" fill="#3C5470"/>
<path d="M17.7392 270.335L389.531 300.289L25.6602 96.8281" fill="#6687AD"/>
<path d="M725.446 -177.654L839.062 9.41672L665.296 -187.074L725.446 -177.654Z" fill="#456080"/>
<path d="M665.296 -187.074L839.062 9.41672L542.644 265.815L665.296 -187.074Z" fill="#537399"/>
<path d="M542.644 265.813L839.062 9.41504L823.839 189.704L542.644 265.813Z" fill="#6687AD"/>
<path d="M823.828 189.704L839.052 9.41504L932.742 160.315L823.828 189.704Z" fill="#537399"/>
<path d="M838.606 9.70711L856.181 -163.611L932.297 160.607L838.606 9.70711Z" fill="#6687AD"/>
<path d="M856.623 -163.904L933.234 -121.328L932.739 160.315" fill="#537399"/>
<path d="M677.781 555.934L542.629 265.814L389.531 300.289" fill="#456080"/>
<path d="M932.742 160.315L621.719 435.552L542.633 265.813L932.742 160.315Z" fill="#3C5470"/>
<path d="M932.742 160.315L677.785 555.933L621.719 435.552L932.742 160.315Z" fill="#6687AD"/>
<path d="M582.859 471.724L443.128 598.887L389.537 300.289L582.859 471.724Z" fill="#3C5470"/>
<path d="M443.109 598.887L389.519 300.289L392.613 632.608" fill="#6687AD"/>
<path d="M168.733 436.683L389.531 300.289L17.7392 270.335" fill="#456080"/>
<path d="M168.733 436.683L392.625 632.608L389.531 300.289" fill="#537399"/>
<path d="M4.74483 533.139L168.734 436.684L17.7402 270.335" fill="#3C5470"/>
<path d="M-190.919 364.719L8.71512 451.567L17.75 270.336" fill="#456080"/>
<path d="M-190.931 364.718L4.74261 533.138L8.70312 451.565" fill="#6687AD"/>
<path d="M933.242 -121.327L1217.78 -206.479L1280.28 15.2551" fill="#3C5470"/>
<path d="M933.242 -121.326L1280.28 15.2562L1252.93 55.9483" fill="#456080"/>
<path d="M933.235 -121.326L1252.92 55.9485L932.74 160.316" fill="#6687AD"/>
<path d="M932.74 160.315L1252.92 55.9473L1098.34 292.753L932.74 160.315Z" fill="#456080"/>
<path d="M932.745 160.315L1098.34 292.753L837.198 688.936L932.745 160.315Z" fill="#3C5470"/>
<path d="M932.742 160.315L837.195 688.936L677.785 555.933L932.742 160.315Z" fill="#537399"/>
<path d="M1269.63 425.756L1098.34 292.753L1252.92 55.9473" fill="#3C5470"/>
<path d="M1269.63 425.757L837.196 688.937L1098.34 292.754" fill="#537399"/>
<path d="M1427.81 545.574L970.375 773.903L1269.64 425.758" fill="#3C5470"/>
<path d="M1269.63 425.758L970.367 773.903L837.196 688.939" fill="#6687AD"/>
<path d="M582.853 471.723L677.781 555.933L443.122 598.886L582.853 471.723Z" fill="#6687AD"/>
<path d="M501.543 744.137L837.195 688.938L677.785 555.935" fill="#6687AD"/>
<path d="M443.122 598.888L501.539 744.137L677.781 555.935" fill="#537399"/>
<path d="M392.625 632.607L87.4189 484.533L168.733 436.682L392.625 632.607Z" fill="#456080"/>
<path d="M501.539 744.134L392.625 632.608L443.122 598.886" fill="#456080"/>
<path d="M392.625 632.609L4.7435 533.139L87.4189 484.535" fill="#6687AD"/>
<path d="M4.75 533.139L-190.923 364.718L-283.995 421.235" fill="#3C5470"/>
<path d="M1433 690.256L970.364 773.901L1427.8 545.573" fill="#6687AD"/>
<path d="M1405.91 891.079L1215.8 878.834L1199.47 732.455" fill="#456080"/>
<path d="M1405.91 891.079L1199.47 732.455L1350.21 809.318" fill="#6687AD"/>
<path d="M1350.2 809.318L1199.45 732.455L1433 690.256" fill="#456080"/>
<path d="M1157.37 1064.21L1038.19 957.392L1199.45 732.455" fill="#3C5470"/>
<path d="M1215.79 878.834L1157.37 1064.21L1199.45 732.455" fill="#537399"/>
<path d="M351.411 972.276L232.225 865.459L392.625 632.609" fill="#537399"/>
<path d="M970.375 773.901L677.422 913.121L837.203 688.938" fill="#3C5470"/>
<path d="M232.234 865.458L-156.637 754.873L4.75328 533.139" fill="#3C5470"/>
<path d="M-156.64 754.873L-174.586 631.855L4.75 533.139" fill="#537399"/>
<path d="M392.625 632.609L232.225 865.458L4.7435 533.139" fill="#456080"/>
<path d="M837.195 688.938L351.415 972.276L501.543 744.136" fill="#3C5470"/>
<path d="M837.195 688.938L677.414 913.121L351.415 972.276" fill="#456080"/>
<path d="M392.625 632.609L501.539 744.136L351.411 972.276" fill="#456080"/>
<path d="M1038.19 957.392L970.363 773.901L1199.45 732.455" fill="#537399"/>
<path d="M1038.19 957.392L677.411 913.12L970.364 773.9" fill="#6687AD"/>
</g>
</g>
<defs>
<clipPath id="clip0_1964_213214">
<rect width="1240" height="795" fill="white"/>
</clipPath>
</defs>
</svg>
