<svg width="1240" height="460" viewBox="0 0 1240 460" fill="none" xmlns="http://www.w3.org/2000/svg">
<g clip-path="url(#clip0_1964_212905)">
<rect width="1240" height="460" fill="#3A3C3F"/>
<g opacity="0.12">
<path d="M28.7797 -309.481L172.375 5.99362L137.333 -349.426" fill="#566B5F"/>
<path d="M-64.0303 223.97L172.375 5.99362L28.7798 -309.481" fill="#688173"/>
<path d="M-64.0137 223.971L382.008 501.005L172.392 5.99512" fill="#566B5F"/>
<path d="M172.392 5.99497L382.008 501.005L297.196 -118.992" fill="#4B5E53"/>
<path d="M861.164 -28.1515L843.135 169.423L726.583 -43.8286L861.164 -28.1515Z" fill="#4B5E53"/>
<path d="M474.942 308.155L664.879 -54.5659L297.194 -118.992" fill="#7B9586"/>
<path d="M297.197 -118.992L474.945 308.155L382.008 501.005L297.197 -118.992Z" fill="#688173"/>
<path d="M539.058 461.706L474.942 308.156L664.879 -54.5649L539.058 461.706Z" fill="#4B5E53"/>
<path d="M382.001 501.004L539.055 461.704L474.938 308.154" fill="#7B9586"/>
<path d="M0.608692 466.857L8.73438 269.068L-64.0157 223.969" fill="#4B5E53"/>
<path d="M0.610535 466.858L382.008 501.004L8.73621 269.068" fill="#7B9586"/>
<path d="M172.379 5.99362L297.184 -118.994L137.337 -349.426" fill="#7B9586"/>
<path d="M726.592 -43.8272L843.145 169.424L664.888 -54.5649L726.592 -43.8272Z" fill="#566B5F"/>
<path d="M664.888 -54.5649L843.145 169.424L539.068 461.706L664.888 -54.5649Z" fill="#688173"/>
<path d="M539.068 461.703L843.145 169.422L827.528 374.942L539.068 461.703Z" fill="#7B9586"/>
<path d="M827.518 374.942L843.135 169.422L939.246 341.44L827.518 374.942Z" fill="#688173"/>
<path d="M843.135 169.422L861.164 -28.1528L939.246 341.44L843.135 169.422Z" fill="#7B9586"/>
<path d="M861.168 -28.1525L939.758 20.3822L939.25 341.441" fill="#688173"/>
<path d="M860.66 -28.1516L938.869 -78.4043L939.758 20.383" fill="#688173"/>
<path d="M939.246 341.441L620.188 655.198L539.058 461.704L939.246 341.441Z" fill="#4B5E53"/>
<path d="M939.246 341.441L677.702 792.426L620.188 655.198L939.246 341.441Z" fill="#7B9586"/>
<path d="M939.757 20.3825L1231.65 -76.6867L1295.76 176.08" fill="#4B5E53"/>
<path d="M938.864 -78.4043L1231.64 -76.6863L939.752 20.383" fill="#7B9586"/>
<path d="M939.757 20.3837L1295.76 176.081L1267.7 222.468" fill="#566B5F"/>
<path d="M939.757 20.3837L1267.7 222.468L939.25 341.442" fill="#7B9586"/>
<path d="M939.25 341.441L1267.7 222.467L1109.13 492.413L939.25 341.441Z" fill="#566B5F"/>
<path d="M939.252 341.441L1109.13 492.413L841.237 944.043L939.252 341.441Z" fill="#4B5E53"/>
<path d="M939.246 341.441L841.231 944.043L677.702 792.426L939.246 341.441Z" fill="#688173"/>
<path d="M1284.84 644.03L1109.12 492.413L1267.7 222.467" fill="#4B5E53"/>
</g>
</g>
<defs>
<clipPath id="clip0_1964_212905">
<rect width="1240" height="460" fill="white"/>
</clipPath>
</defs>
</svg>
