<svg width="17" height="18" viewBox="0 0 17 18" fill="none" xmlns="http://www.w3.org/2000/svg">
<path d="M9.24406 17.4993C4.52781 17.4993 0.695312 13.6668 0.695312 8.95928C0.695312 4.75053 3.82781 1.11928 7.99281 0.506784C8.21156 0.471784 8.42156 0.585534 8.52656 0.778034C8.63156 0.970534 8.60531 1.20678 8.46531 1.37303C7.39781 2.59803 6.83781 4.07678 6.83781 5.64303C6.83781 9.97428 11.2128 13.4393 16.1566 12.3018C16.3578 12.258 16.5678 12.328 16.6903 12.4943C16.8128 12.6605 16.8303 12.8793 16.7341 13.063C15.2291 15.8018 12.3591 17.4993 9.24406 17.4993ZM6.82031 1.87178C3.84531 2.89553 1.74531 5.73053 1.74531 8.95928C1.74531 13.0893 5.10531 16.458 9.24406 16.458C11.5891 16.458 13.7766 15.3555 15.1853 13.5268C10.0841 14.0255 5.78781 10.2718 5.78781 5.64303C5.78781 4.30428 6.13781 3.02678 6.82031 1.87178Z" fill="#090C10"/>
</svg>
