<svg width="1240" height="452" viewBox="0 0 1240 452" fill="none" xmlns="http://www.w3.org/2000/svg">
<g clip-path="url(#clip0_1964_212657)">
<rect width="1240" height="452" rx="12" fill="#3A3C3F"/>
<g opacity="0.12">
<path d="M28.7797 -327.724L172.375 6.34741L137.333 -370.023" fill="#456080"/>
<path d="M-64.0303 237.173L172.375 6.34705L28.7798 -327.725" fill="#537399"/>
<path d="M-64.0137 237.174L382.008 530.539L172.392 6.34875" fill="#456080"/>
<path d="M172.392 6.34868L382.008 530.539L297.196 -126.007" fill="#3C5470"/>
<path d="M861.164 -29.8107L843.135 179.411L726.583 -46.412L861.164 -29.8107Z" fill="#3C5470"/>
<path d="M474.942 326.321L664.879 -57.7822L297.194 -126.007" fill="#6687AD"/>
<path d="M297.197 -126.007L474.945 326.321L382.008 530.539L297.197 -126.007Z" fill="#537399"/>
<path d="M539.058 488.923L474.942 326.322L664.879 -57.7814L539.058 488.923Z" fill="#3C5470"/>
<path d="M382.001 530.538L539.055 488.922L474.938 326.32" fill="#6687AD"/>
<path d="M0.608692 494.378L8.73438 284.93L-64.0157 237.172" fill="#3C5470"/>
<path d="M0.610535 494.379L382.008 530.538L8.73621 284.93" fill="#6687AD"/>
<path d="M172.379 6.34741L297.184 -126.008L137.337 -370.023" fill="#6687AD"/>
<path d="M726.592 -46.4106L843.145 179.412L664.888 -57.7814L726.592 -46.4106Z" fill="#456080"/>
<path d="M664.888 -57.7814L843.145 179.412L539.068 488.923L664.888 -57.7814Z" fill="#537399"/>
<path d="M539.068 488.92L843.145 179.409L827.528 397.045L539.068 488.92Z" fill="#6687AD"/>
<path d="M827.518 397.045L843.135 179.409L939.246 361.568L827.518 397.045Z" fill="#537399"/>
<path d="M843.135 179.409L861.164 -29.8123L939.246 361.568L843.135 179.409Z" fill="#6687AD"/>
<path d="M861.168 -29.812L939.758 21.5837L939.25 361.568" fill="#537399"/>
<path d="M860.66 -29.8111L938.869 -83.0261L939.758 21.5846" fill="#537399"/>
<path d="M939.246 361.568L620.188 693.821L539.058 488.921L939.246 361.568Z" fill="#3C5470"/>
<path d="M939.246 361.568L677.702 839.139L620.188 693.821L939.246 361.568Z" fill="#6687AD"/>
<path d="M939.757 21.5844L1231.65 -81.2069L1295.76 186.46" fill="#3C5470"/>
<path d="M938.864 -83.0261L1231.64 -81.2068L939.752 21.5846" fill="#6687AD"/>
<path d="M939.757 21.5854L1295.76 186.461L1267.7 235.582" fill="#456080"/>
<path d="M939.757 21.5854L1267.7 235.582L939.25 361.57" fill="#6687AD"/>
<path d="M939.25 361.569L1267.7 235.581L1109.13 521.441L939.25 361.569Z" fill="#456080"/>
<path d="M939.252 361.568L1109.13 521.441L841.237 999.693L939.252 361.568Z" fill="#3C5470"/>
<path d="M939.246 361.568L841.231 999.693L677.702 839.139L939.246 361.568Z" fill="#537399"/>
<path d="M1284.84 681.995L1109.12 521.441L1267.7 235.581" fill="#3C5470"/>
</g>
</g>
<defs>
<clipPath id="clip0_1964_212657">
<rect width="1240" height="452" rx="12" fill="white"/>
</clipPath>
</defs>
</svg>
