<svg width="21" height="22" viewBox="0 0 21 22" fill="none" xmlns="http://www.w3.org/2000/svg">
<path d="M10.5 20.1875C15.5741 20.1875 19.6875 16.0741 19.6875 11C19.6875 5.92588 15.5741 1.8125 10.5 1.8125C5.42588 1.8125 1.3125 5.92588 1.3125 11C1.3125 16.0741 5.42588 20.1875 10.5 20.1875Z" fill="#D9DADC"/>
<path d="M19.2208 10.3381C19.1869 9.88394 19.1184 9.43954 19.0176 9.00758C18.9108 8.54908 18.7677 8.10469 18.592 7.67709C18.4009 7.21221 18.1712 6.76715 17.9065 6.3466C17.6066 5.8703 17.2623 5.42456 16.879 5.01611C16.4074 4.51328 15.8771 4.0662 15.2987 3.68562C13.9202 2.77837 12.27 2.25 10.4966 2.25C10.5231 2.25 10.5493 2.25067 10.5755 2.25101C10.549 2.25101 10.5224 2.25 10.4959 2.25C5.66351 2.25 1.74609 6.16757 1.74609 11.0001C1.74609 11.2329 1.7555 11.4637 1.7733 11.6917C1.80823 12.1378 1.87642 12.5748 1.97584 12.9997C2.08299 13.4582 2.22641 13.9026 2.40275 14.3302C2.5942 14.7951 2.82462 15.2402 3.08997 15.6607C3.39058 16.1373 3.73554 16.5827 4.11979 16.9912C4.59272 17.4944 5.12476 17.9414 5.70449 18.3217C7.08095 19.2246 8.72711 19.7499 10.4962 19.7499C12.2653 19.7499 13.9115 19.2242 15.2879 18.3217C15.8677 17.9414 16.3997 17.4944 16.8726 16.9912C17.2566 16.5827 17.6019 16.137 17.9025 15.6607C18.1678 15.2402 18.3982 14.7951 18.5897 14.3302C18.7657 13.9026 18.9094 13.4582 19.0166 12.9997C19.116 12.5748 19.1842 12.1381 19.2191 11.6917C19.2191 11.6917 19.2463 11.2403 19.2463 11.0112C19.2463 10.7821 19.2379 10.5604 19.2215 10.3384L19.2208 10.3381Z" fill="white"/>
<path d="M19.2495 10.9999H10.437L3.20703 15.8333C4.77297 18.1916 7.45505 19.75 10.4953 19.75C15.3264 19.75 19.2495 15.8333 19.2495 10.9999Z" fill="#D7141A"/>
<path d="M3.20375 6.16663C2.28751 7.54998 1.74609 9.20833 1.74609 11C1.74609 12.7917 2.27918 14.4501 3.20375 15.8334L10.4337 11L3.20375 6.16663Z" fill="#11457E"/>
</svg>
