<svg width="521" height="438" viewBox="0 0 521 438" fill="none" xmlns="http://www.w3.org/2000/svg">
<g opacity="0.3">
<path d="M260.845 438C381.71 438 479.69 339.95 479.69 219C479.69 98.0496 381.71 0 260.845 0C139.98 0 42 98.0496 42 219C42 339.95 139.98 438 260.845 438Z" fill="#CCD7E4"/>
<path d="M114.619 364.306C119.657 360.743 120.576 360.657 123.878 357.149C128.823 351.882 130.482 348.553 132.172 343.045C132.499 341.98 133.231 339.669 135.357 337.74C139.009 334.434 140.98 335.391 144.383 335.025C146.096 334.846 147.474 334.449 148.564 333.944C157.357 329.875 157.388 319.537 157.816 315.336C158.478 309.315 159.677 307.619 161.881 302.874C163.766 298.821 165.907 295.523 167.846 292.948C168.516 292.061 169.302 291.291 170.128 290.552C171.833 289.019 172.729 286.748 172.48 284.453C172.168 281.621 170.782 280.828 167.41 278.401L160.721 272.901C159.973 272.286 159.482 271.423 159.335 270.474L159.07 268.739C158.937 267.899 158.532 267.113 157.909 266.538C154.794 263.636 151.516 260.913 148.572 257.841C147.762 257 147.046 255.958 144.78 255.608C142.685 255.289 142.521 255.522 140.824 255.935C137.452 256.759 133.831 257.265 130.381 257.677C129.867 257.74 129.415 257.288 129.524 256.783C129.633 256.261 129.579 255.725 129.345 255.25C128.956 254.472 128.138 253.967 127.235 253.92C126.822 253.904 126.542 253.5 126.627 253.095C127.492 249.276 128.753 246.615 129.275 242.508C129.524 240.322 129.54 239.723 129.47 239.077C129.034 234.783 124.237 232.597 123.8 232.403L110.157 224.787C108.669 223.955 107.455 222.718 106.652 221.217L103.974 216.176C103.358 215.017 102.471 214.021 101.388 213.282C96.8325 210.155 92.2846 207.02 87.729 203.893C87.1839 203.496 85.1124 202.096 82.2155 202.321C78.8124 202.593 78.057 203.869 76.4839 205.324C75.7597 205.993 74.1866 207.152 71.8815 207.673C69.592 208.194 67.6296 207.821 66.407 207.44C66.1266 207.354 65.9319 207.346 65.7372 207.448C65.3089 207.673 64.7872 207.432 64.6003 206.989L64.4367 206.6C64.2576 206.172 64.1642 205.713 64.1486 205.254L63.9228 192.908C63.8371 187.269 62.6378 188.529 61.0414 186.965C60.6053 186.537 60.4262 185.495 60.3639 184.305C60.3172 183.433 60.6676 182.842 60.9324 182.368C63.0817 178.439 63.1596 174.309 64.1564 169.734C64.3433 168.894 64.4601 168.326 63.9617 167.883C63.4321 167.416 62.669 167.587 62.0226 168.015C58.8142 170.131 57.942 172.263 56.6571 175.724C56.4624 176.09 55.5902 177.591 53.7134 178.206C53.2462 178.361 52.8023 178.431 52.3973 178.455C51.5719 178.501 50.9878 177.661 51.3305 176.907L65.854 145.666C66.1578 145.005 67.0144 144.826 67.5595 145.292C67.8009 145.495 68.0423 145.705 68.2837 145.907C68.9301 146.459 69.9425 146.148 70.1605 145.324C70.215 145.121 70.2695 144.95 70.3318 144.787C71.461 141.932 75.4715 140.236 80.3231 140.617C81.8261 140.726 83.2979 141.457 85.7977 140.244C87.4097 139.458 88.3675 138.276 89.5357 136.891C103.397 123.425 115.725 111.461 129.594 97.9954C130.879 96.3773 133.114 94.8915 135.084 95.6772C136.759 96.3462 137.818 98.1354 137.67 100.026C137.623 100.664 138.098 101.216 138.729 101.278C140.972 101.519 141.096 101.706 143.324 102.079C148.292 102.904 150.161 102.204 150.737 100.601C151.173 99.3879 150.433 98.5322 149.149 96.7663C147.389 94.3548 145.27 92.2389 143.324 89.9674C143.113 89.804 140.504 87.6647 140.972 85.8522C141.423 84.0863 146.984 83.0517 150.083 84.3275L153.852 86.459C156.009 87.8125 157.956 87.5403 158.003 87.0891C158.135 85.9144 155.706 84.6464 157.185 84.2108C158.782 83.7441 163.695 82.8884 168.204 80.9436C172.184 79.2244 175.213 77.0696 177.394 75.3271C178.484 74.0591 181.093 72.2543 176.475 72.7755C174.777 72.9078 172.363 71.5386 171.374 68.6292C170.611 66.3889 171.179 64.2185 173.796 61.5191C174.1 61.208 173.804 60.6868 173.375 60.7412L162.449 62.9505C161.616 63.0827 161.102 62.8727 161.172 62.0326L161.383 59.5199C161.531 57.8474 160.923 56.9217 159.895 56.3771C158.486 55.6381 156.531 56.0815 154.989 57.3106C153.471 58.4853 153.829 58.1041 152.147 59.481C150.652 60.7101 148.985 63.1605 147.801 63.7517C146.898 64.1874 145.893 64.343 144.904 64.2107L143.137 63.9773C142.786 63.9307 142.444 64.1407 142.335 64.4752L141.665 66.4511C141.229 67.7346 140.395 68.8471 139.29 69.6328C135.98 71.9743 129.368 76.3461 128.45 76.9607C127.655 77.4897 127.001 78.1975 126.526 79.0221C124.564 82.4138 122.975 85.0121 122.5 84.8176C121.885 84.5609 120.927 82.7717 124.166 75.4904C124.268 75.257 124.081 75.0081 123.832 75.047C119.346 75.7705 116.044 73.6157 115.787 71.6009C115.577 69.9439 117.352 67.8902 119.977 66.7C130.163 61.8225 141.821 59.2476 150.527 52.0597C151.282 51.4374 151.812 50.6673 151.57 49.4459C151.275 47.9212 149.803 46.0776 146.205 47.1589L121.939 60.0878C121.238 60.4612 120.397 60.4612 119.696 60.0956L113.482 56.8439C78.0102 89.0416 53.1527 132.706 44.7734 181.971L48.4257 180.088C48.8774 183.052 49.3291 186.016 49.7808 188.98C49.8898 189.688 50.4972 190.201 51.2137 190.232C51.3538 190.232 51.4784 190.256 51.5952 190.271C52.1404 190.357 54.9205 191.905 55.4033 195.079C56.1431 199.785 57.0153 203.021 58.8064 207.012C60.7688 211.399 62.8559 214.021 64.756 215.896C65.854 216.977 66.2979 218.564 65.893 220.05C61.8124 230.365 66.3524 228.972 62.0304 234.285C61.7189 234.628 59.7098 236.899 60.2393 239.778C60.4184 240.758 60.8311 241.505 61.1582 241.956C61.9603 243.099 62.2718 243.605 62.1628 244.702C62.0382 245.946 60.8934 246.67 60.6365 246.833C58.7753 248.327 56.953 249.781 57.1788 254.301C57.319 257.063 58.7363 259.008 59.8032 260.104C60.6832 260.999 61.3763 262.065 61.8591 263.224C63.3854 266.896 64.9196 270.559 66.4459 274.231C66.8508 275.204 67.0689 276.246 67.1078 277.304C67.2091 280.151 67.6685 283.792 69.0391 287.798C71.3987 294.698 75.3392 299.42 78.0725 302.119C78.937 302.975 79.0927 304.072 79.3808 304.648C81.5068 310.505 82.3634 309.603 82.8774 314.169C83.2356 317.351 82.6593 320.416 82.27 322.119C81.1797 328.319 81.4056 330.91 82.5425 336.869C84.0066 344.562 88.4766 353.049 92.0588 358.58C98.3978 366.211 105.243 373.407 112.548 380.113C112.439 374.364 110.242 367.378 114.611 364.29L114.619 364.306Z" fill="#6687AD"/>
<path d="M185.144 40.7886C183.221 40.5085 181.92 40.7886 180.884 41.0608C180.48 41.1697 180.059 41.1853 179.646 41.1308C178.486 40.9753 175.947 40.8897 174.218 42.6711C173.541 43.3712 173.19 44.1569 172.996 44.7637L170.979 48.451C170.66 49.0344 170.114 49.4545 169.468 49.6023C168.245 49.8746 167.848 50.4736 167.763 50.6058C166.89 52.006 168.004 54.9232 171.22 57.1792C176.555 57.9726 177.551 57.8326 180.441 57.5603C181.173 57.4903 181.858 57.1558 182.356 56.6191L189.552 48.91C189.895 48.5366 190.144 48.0854 190.253 47.5953C190.37 47.0741 190.455 46.4751 190.486 45.8139C190.549 44.367 190.93 43.6591 190.05 42.3755C189.085 41.8699 187.083 41.0764 185.144 40.7963V40.7886Z" fill="#6687AD"/>
<path d="M237.317 56.821C237.419 56.8366 237.512 56.8677 237.613 56.8988C238.626 57.2722 240.152 57.669 241.982 57.5678C245.899 57.35 248.539 55.0085 249.512 54.0206C249.676 53.8494 249.878 53.725 250.097 53.6394C259.504 49.9443 260.532 52.2314 263.943 52.8148C265.422 53.0715 266.832 53.7094 268.327 53.8572C272.618 54.2773 275.538 54.3628 277.563 54.2773C279.51 54.1917 280.53 51.9046 279.284 50.4111C278.49 49.462 277.82 48.1862 277.602 46.5137C277.594 46.4437 277.586 46.3737 277.586 46.3037C277.571 45.0123 279.113 44.2733 280.179 45.0123C280.522 45.2457 280.943 45.4791 281.441 45.658C283.435 46.3504 285.233 45.6036 285.802 45.3313C285.856 45.3002 285.919 45.2768 285.981 45.2535C292.118 43.0053 299.009 41.8929 304.616 38.8435C305.271 38.4857 305.084 37.4977 304.352 37.3888C297.218 36.0897 289.89 34.8606 282.368 33.7249C274.074 32.4646 265.967 31.3756 258.063 30.4343C256.186 30.2087 254.31 30.0687 252.425 29.9831C243.251 29.563 233.595 29.4074 223.495 29.6097C217.966 29.7186 212.584 29.9286 207.351 30.2165C205.7 30.3098 204.431 31.6945 204.478 33.3359L204.75 43.4099C204.774 44.2578 205.42 44.9579 206.261 45.059C214.142 45.9692 218.098 47.0038 218.129 48.1629C218.16 49.2442 214.765 50.4266 207.935 51.7179C207.803 51.7413 207.663 51.7802 207.538 51.8424C203.543 53.6549 203.567 57.949 204.485 60.5784C205.84 64.4446 212.592 67.1906 219.827 63.9389C219.951 63.8845 220.076 63.8067 220.185 63.7211C230.207 55.9031 232.684 56.012 237.333 56.8366L237.317 56.821Z" fill="#6687AD"/>
<path d="M181.331 86.3659L176.97 83.6433C176.542 82.7487 175.973 82.3052 175.638 82.0874C174.159 81.7918 172.157 81.9163 169.969 82.8576C166.94 83.9233 165.281 82.9042 163.996 84.2967C162.789 85.6036 162.104 86.2181 161.73 86.9105C159.83 87.2372 158.654 87.3228 158.592 88.2407C158.553 88.7853 159.16 89.1975 161.146 90.8312C165.421 95.1019 167.025 93.0949 169.455 91.6168C172.313 89.8743 172.625 88.793 175.747 88.1085C176.51 87.9373 177.235 87.8595 177.881 87.8362C178.27 87.8206 178.652 87.774 179.034 87.6806C179.758 87.5017 180.482 87.3306 181.214 87.1516C181.588 87.0583 181.666 86.5682 181.339 86.3659H181.331Z" fill="#6687AD"/>
<path d="M444.95 100.174H439.545C434.195 99.9561 429.476 94.4018 427.988 92.4648C427.56 91.9047 427.077 91.3835 426.548 90.9167C424.796 89.3765 421.914 87.315 417.888 86.117C414.353 85.0669 411.277 85.0902 409.322 85.2691C408.053 85.4169 405.163 85.6736 404.938 84.9424C404.696 84.1645 411.565 79.9015 414.75 77.7934C415.069 77.5833 414.906 77.0855 414.524 77.1088L407.328 77.4978C406.589 77.5367 404.922 77.2722 404.322 76.8443C404.322 76.8443 392.906 70.6055 381.233 58.9757C379.309 57.062 377.113 56.5875 371.389 61.4884C365.564 67.8283 358.968 69.3141 356.975 65.4557C356.017 63.6121 352.552 63.9699 352.552 63.9699C343.066 64.9501 340.465 72.6825 341.517 75.5997C342.724 78.9369 348.323 78.5168 350.846 78.9991C354.382 80.2205 355.363 82.5542 354.771 84.0945C354.21 85.5492 352.98 85.6503 351.111 85.7903C341.984 86.4749 335.287 86.0003 327.102 86.047C326.627 86.047 326.168 86.1715 325.755 86.4126L317.274 91.2979C316.753 91.5935 316.667 92.3014 317.08 92.7293C317.57 93.2427 318.115 93.9662 318.497 94.9385C319.299 97 318.941 98.8592 318.661 99.3804C315.81 104.67 314.899 108.179 315.421 112.613C315.46 112.963 315.125 113.235 314.798 113.118C313.793 112.045 306.185 104.133 299.036 106.273H299.013C297.751 106.662 296.583 107.478 296.388 108.933C293.694 129.268 293.974 132.597 299.106 135.172C300.111 135.678 302.198 136.355 305.881 135.11C306.536 134.884 307.229 134.791 307.922 134.791H314.261C314.782 134.791 315.257 134.503 315.491 134.036C316.348 132.333 317.757 130.069 320.039 127.93C323.956 124.25 328.231 122.974 330.311 122.508C338.752 121.069 337.366 118.953 344.079 120.088C347.856 120.726 351.08 121.854 352.287 123.418C357.325 129.952 360.658 132.652 364.848 137.272C365.089 137.623 366.398 138.657 367.137 138.937C368.664 139.521 369.808 136.977 371.491 136.222C373.095 135.507 373.531 136.837 373.881 137.265L377.806 142.881C378.297 144.219 378.748 144.779 379.769 145.005C380.836 145.238 381.404 143.752 382.518 143.799C384.091 143.861 383.561 143.768 384.612 144.974C385.165 146.872 385.313 147.051 386.147 147.066C387.003 147.082 387.72 146.164 387.751 144.974C387.805 142.881 390.243 142.936 393.179 143.931C396.114 144.834 399.323 143.869 401.262 141.512C403.24 139.093 403.513 135.678 401.947 132.955C399.736 126.141 407.282 125.666 409.602 128.241C412.421 132.753 414.275 134.83 415.163 134.48C415.521 134.34 415.715 133.741 415.754 132.807C415.786 132.092 416.035 131.384 416.549 130.878C417.211 130.217 418.223 129.983 419.282 133.336L424.648 146.794C425.302 148.428 425.629 149.727 424.78 150.326C424.079 150.816 423.184 149.898 421.899 149.672C396.317 145.153 391.528 150.808 405.288 157.109C406.628 157.724 408.092 158.019 409.563 158.012C411.199 158.004 413.597 158.354 415.225 160.198C415.934 160.999 416.315 161.878 416.533 162.617C416.728 166.856 416.923 171.104 417.125 175.343C417.164 176.098 416.557 176.736 415.801 176.736H402.29C401.792 176.736 401.41 177.164 401.457 177.654L402.08 183.652C402.126 184.072 402.344 184.453 402.695 184.694L412.873 191.843C417.234 194.799 431.493 233.617 431.493 233.617C434.117 241.59 434.841 243.014 435.776 243.061C436.57 243.1 436.578 241.17 438.003 240.252C442.255 237.506 444.63 237.989 449.427 236.791C455.104 235.204 459.543 230.949 460.836 225.612C462.549 218.518 458.344 210.785 450.736 207.253C444.677 204.437 440.947 203.13 442.387 196.464C443.563 194.387 447.317 191.789 452.005 196.596C454.847 199.513 457.043 203.037 459.146 204.188C459.909 204.608 460.618 205.114 461.171 205.775C461.957 206.717 462.791 207.611 463.71 208.428C464.753 209.362 465.859 210.505 466.926 211.89C470.321 216.316 471.466 220.859 471.894 223.481C472.883 237.724 473.88 251.976 474.869 266.219C478.233 250.98 480.001 235.149 480.001 218.907C480.001 175.133 467.136 134.355 444.981 100.151L444.95 100.174Z" fill="#6687AD"/>
<path d="M387.93 318.564C388.351 317.04 388.927 315.562 389.605 314.138C392.19 308.708 394.262 305.013 394.931 304.546C396.177 303.683 396.629 304.352 398.957 303.302C401.091 301.691 402.874 299.521 405.008 297.911C409.268 294.651 416.526 288.039 420.054 277.428C420.941 274.768 421.72 274.262 421.751 269.945C421.533 268.98 421.362 267.526 421.782 265.892C422.25 264.087 423.207 262.905 423.714 262.36C424.827 261.131 425.824 259.295 427.132 257.249C427.919 256.02 428.293 255.235 428.098 254.814C427.296 253.562 426.432 254.589 422.148 253.998C421.486 253.826 420.856 253.616 420.248 253.375C410.576 249.501 412.009 237.662 406.371 231.78C405.709 231.236 404.806 230.341 404.027 229.058C402.01 225.752 402.337 222.321 402.524 221.061C402.75 219.085 403.085 215.444 402.283 211.695C401.551 208.28 400.935 206.973 399.44 204.382C398.957 203.542 398.615 202.624 398.443 201.668C397.268 195.211 394.791 190.87 395.001 189.462C395.126 188.622 395.523 187.836 396.107 187.214C396.465 186.833 396.855 186.413 397.143 186.102C397.338 185.884 397.493 185.635 397.579 185.355C398.21 183.363 398.303 181.753 398.202 180.742C398.124 179.902 397.945 179.155 397.743 178.517C397.369 177.373 396.442 176.494 395.282 176.16C387.65 173.982 382.487 171.415 374.855 169.236C374.131 169.026 373.461 168.661 372.893 168.155C372.223 167.883 371.405 167.471 370.564 166.833C369.038 165.681 368.158 164.343 367.683 163.48C366.429 161.66 365.191 160.742 364.272 162.749C363.361 164.74 362.489 166.615 362.489 166.615C361.663 168.272 361.78 170.084 361.048 170.582C359.896 171.36 358.798 170.839 356.469 169.322C354.779 168.217 353.354 167.572 352.513 166.918C350.379 165.254 347.926 162.671 346.665 158.976C346.54 158.602 346.369 158.252 346.088 157.996C345.52 157.474 344.648 157.342 343.869 157.638C342.935 157.988 341.891 157.988 340.925 157.739C340.902 157.739 340.886 157.731 340.863 157.723C339.944 157.482 338.901 157.085 337.849 156.424C335.926 155.218 334.719 153.624 333.979 152.247C333.512 151.391 333.255 150.434 333.208 149.462C333.091 146.825 332.227 140.601 325.74 140.975L308.498 140.788L291.312 140.174C283.547 140.088 280.845 137.677 273.603 144.125C271.189 146.272 269.764 148.738 268.915 150.823C267.98 153.11 266.002 154.798 263.596 155.366C259.391 156.346 252.997 158.89 248.8 165.464C245.171 171.15 245 177.008 245.397 180.679C245.607 182.632 244.634 184.538 242.897 185.448C240.179 186.872 238.31 188.98 237.944 191.399C237.905 191.64 237.882 191.913 237.874 192.208C237.859 193.422 237.586 194.62 236.994 195.678C235.359 198.634 233.537 203.076 233.427 208.583C233.396 210.046 233.498 211.399 233.661 212.636C233.809 213.717 233.887 214.814 233.887 215.903V235.748C233.887 236.946 234.463 238.074 235.437 238.774L253.247 251.641C254.018 252.061 256.26 253.158 259.196 252.753C262.981 252.232 263.612 250.093 265.543 249.027C272.295 245.238 274.701 246.164 276.99 246.569C283.571 248.078 291.927 250.754 296.942 249.548C297.845 249.315 298.756 249.61 299.231 250.264C299.629 250.816 299.582 251.438 299.558 251.633C299.52 251.905 299.107 255.413 301.786 257.755C303.826 259.536 306.552 258.875 309.371 258.688C309.994 258.65 313.669 259.256 315.39 262.874C316.629 265.48 316.138 267.86 315.655 268.49C312.556 272.59 311.629 276.37 312.976 277.771C313.264 278.066 313.841 278.051 315.001 278.424C315.593 278.611 315.858 279.054 315.787 280.058C315.725 280.898 315.087 281.365 315.001 281.427C314.004 282.166 313.584 283.457 313.957 284.632C314.316 285.775 315.608 285.931 316.574 286.654C317.976 287.705 318.202 289.058 318.404 291.493C318.568 293.461 318.069 295.001 317.75 295.803C315.678 298.798 312.813 303.745 311.208 310.443C310.406 313.811 310.095 316.907 310.033 319.552C309.97 322.477 309.744 325.402 309.246 328.288C308.701 331.392 308.343 335.048 308.46 339.132C308.584 343.372 309.192 347.059 309.9 350.046C311.777 360.766 313.654 371.478 315.523 382.197C316.044 384.71 316.208 385.854 317.68 387.161C319.923 388.88 323.575 388.592 326.121 386.118C338.254 376.153 344.399 374.823 347.638 374.131C349.834 373.664 351.921 373.415 353.86 373.306C354.195 373.283 357.357 372.979 359.156 370.101C360.924 367.269 359.872 364.352 359.748 364.025C359.405 363.442 359.389 362.726 359.716 362.166C360.106 361.489 360.892 361.334 361.71 361.287C363.898 361.155 364.63 360.284 366.351 358.246C368.228 356.036 368.563 353.656 368.641 352.792C368.649 352.03 368.727 350.832 369.069 349.424C370.089 345.208 372.69 342.462 374.139 341.155C386.568 328.382 386.832 322.135 387.385 320.408C387.588 319.778 387.767 319.163 387.938 318.541L387.93 318.564Z" fill="#6687AD"/>
<path d="M425.845 331.899L425.908 330.086C425.923 329.697 425.487 329.456 425.168 329.681L422.723 331.37C422.396 331.595 421.944 331.556 421.656 331.276L418.868 328.538C418.603 328.273 418.144 328.429 418.097 328.802C417.684 331.704 417.996 333.952 416.851 337.515C416.181 339.592 414.756 342.128 412.731 344.835C411.041 347.083 409.305 348.803 407.825 350.063C407.825 350.063 388.723 362.61 388.723 363.132C386.924 364.089 385.919 366.072 386.238 368.033C386.527 369.845 387.889 371.339 389.704 371.821C394.446 372.505 396.837 371.362 399.843 368.289C400.162 367.963 401.05 367.255 402.397 367.045C404.243 366.765 405.59 367.729 405.933 367.892C408.191 369.005 411.244 368.81 415.029 365.994C418.899 363.116 420.425 356.815 418.891 352.467C418.58 351.587 418.821 349.028 420.394 346.453C421.804 344.143 423.073 342.992 424.584 342.595C426.313 342.144 427.932 341.42 428.446 339.787C428.805 338.627 428.415 336.426 427.013 334.909C426.25 334.084 425.822 333.003 425.861 331.883L425.845 331.899Z" fill="#6687AD"/>
</g>
<path d="M251.051 105.525L138.016 101.158L10.7747 85.6752C9.38909 85.5039 7.98017 85.7764 6.75804 86.4458L1.16892 89.5051C0.203676 90.0344 0.421676 91.4823 1.50368 91.7003L139.775 119.024C140.904 119.249 142.04 119.405 143.185 119.491L234.649 126.637C235.163 126.676 235.412 127.291 235.062 127.672L231.559 131.51C231.053 132.062 230.313 132.358 229.566 132.296L197.612 129.774C196.11 129.657 194.732 128.886 193.844 127.672L147.334 64.1124C146.687 63.2327 145.582 62.8202 144.516 63.0615L131.905 65.965C130.411 66.3076 129.492 67.8177 129.874 69.3046L138.031 101.151L154.082 143.607C154.355 144.331 153.997 145.148 153.281 145.436L147.808 147.616C147.365 147.795 146.89 147.88 146.407 147.865L64.1668 146.495C64.1045 146.495 64.05 146.495 63.9878 146.518L55.8999 148.635C55.1838 148.822 55.2772 149.865 56.0089 149.928L138.864 156.887C139.464 156.941 139.907 157.486 139.814 158.086C139.331 161.2 139.433 166.579 156.48 166.329H218.038C219.945 166.329 221.844 166.041 223.674 165.465L379.67 116.595C380.098 116.463 380.541 116.408 380.985 116.431L387.423 116.774C387.975 116.805 388.108 117.56 387.602 117.778L341.76 137.519C340.569 138.033 339.347 138.461 338.109 138.812L262.12 160.226C261.808 160.312 261.894 160.787 262.221 160.74C279.72 158.483 319.326 151.913 327.928 149.103C366.405 137.239 382.705 132.078 383.344 131.627C384.005 131.159 384.792 130.934 385.601 130.988C394.07 131.502 402.54 132.016 411.009 132.537C411.678 132.576 412.052 133.339 411.671 133.892L409.6 136.904C407.086 140.563 409.81 145.514 414.247 145.358L453.254 143.941C454.001 143.941 462.868 143.513 467.6 136.523C471.905 130.171 469.562 120.806 469.36 120.331C479.277 118.837 489.552 116.789 500.271 114.812C511.293 112.78 520.541 110.904 520.518 110.243C520.564 109.994 520.58 109.643 520.471 109.277C520.128 108.157 518.743 107.378 516.991 107.292L430.213 108.25C429.714 108.25 429.598 107.557 430.065 107.401C449.595 100.613 456.656 98.932 473.781 89.1782C483.044 83.9081 490.151 75.6644 495.429 69.9117C507.565 52.2801 494.853 47.4459 492.72 46.0525C492.72 46.0525 488.291 37.0304 471.399 36.1352C464.541 35.7693 455.862 36.1352 450.693 37.3651C431.622 41.5999 334.84 75.0806 254.133 105.027C253.152 105.393 252.109 105.557 251.066 105.518L251.051 105.525Z" fill="#6687AD"/>
<path d="M266.409 106.078H286.687C287.59 106.078 288.485 105.923 289.334 105.611L425.706 56.0168C426.188 55.8378 426.694 56.1959 426.694 56.7096V58.6791C426.694 59.1306 426.414 59.5276 425.986 59.6833L297.881 105.386C297.499 105.518 297.601 106.086 298.005 106.086H321.833C322.487 106.086 323.141 106.001 323.771 105.837L396.935 86.8976C478.763 65.6617 492.038 54.4578 497.775 49.7015C497.67 49.2829 495.816 47.6084 492.781 46.0984L477.206 46.3953C476.716 46.3953 476.226 46.4731 475.766 46.6366L464.923 50.342C464.308 50.5522 463.778 49.8594 464.144 49.3222L467.18 44.7995C467.406 44.457 467.764 44.2312 468.169 44.1612L474.521 43.1336C474.949 43.0636 475.377 43.0169 475.805 43.0013L485.979 42.542C485.341 41.9504 484.461 41.2732 483.325 40.6893C481.13 39.5606 479.074 39.366 477.86 39.3504C471.656 38.8833 464.674 38.8911 458.649 39.3738C456.313 39.5606 454.009 40.0666 451.799 40.8372L266.292 105.386C265.911 105.518 266.004 106.086 266.409 106.086V106.078Z" fill="#CCD7E4"/>
<path d="M423.465 110.679L419.044 113.66C418.624 113.948 418.849 114.61 419.355 114.579L505.083 109.846C505.574 109.753 505.387 109.34 504.998 109.34C478.453 109.589 451.901 109.838 425.357 110.087C424.68 110.087 424.018 110.297 423.458 110.679H423.465Z" fill="#CCD7E4"/>
<path d="M457.137 114.26C451.221 114.26 446.426 119.927 446.426 126.909C446.426 133.892 451.221 139.559 457.137 139.559C463.053 139.559 467.848 133.892 467.848 126.909C467.848 119.927 463.053 114.26 457.137 114.26ZM457.69 136.258C457.308 136.336 457.044 135.893 457.293 135.597C458.826 133.799 462.259 130.926 462.438 126.162C462.61 121.725 458.18 118.658 456.608 117.093C456.382 116.868 456.577 116.478 456.896 116.525C461.66 117.156 465.381 121.071 465.692 125.796C466.019 130.716 462.555 135.215 457.682 136.266L457.69 136.258Z" fill="#CCD7E4"/>
<path d="M290.189 108.25C283.3 108.25 277.719 113.738 277.719 120.51C277.719 127.283 283.3 132.771 290.189 132.771C297.079 132.771 302.66 127.283 302.66 120.51C302.66 113.738 297.079 108.25 290.189 108.25ZM293.778 129.945C291.482 131.004 291.069 130.202 291.279 129.852C292.089 128.513 293.42 122.83 292.322 119.094C291.482 116.229 288.313 113.855 284.234 112.578C283.907 112.477 285.028 111.543 285.371 111.387C289.512 109.511 296.923 110.437 299.359 116.361C301.181 120.783 299.009 127.54 293.77 129.953L293.778 129.945Z" fill="#CCD7E4"/>
<path d="M244.269 127.867C248.021 124.987 256.521 118.557 258.973 116.712C259.425 116.369 259.884 116.066 260.374 115.793C262.803 114.454 265.8 113.045 269.319 111.839C273.234 110.5 276.791 109.776 279.726 109.371C279.851 109.371 280.123 109.371 280.24 109.542C280.349 109.69 280.364 109.908 280.216 110.079C279.142 111.372 278.014 113.006 277.041 115.007C275.336 118.518 276.036 123.235 276.861 126.621C277.142 127.758 276.184 127.75 275.756 127.049C273.538 123.461 273.343 119.125 273.538 116.976C273.561 116.743 273.382 116.541 273.148 116.533C271.895 116.494 270.502 116.517 268.992 116.657C266.711 116.875 264.695 117.303 262.998 117.794C262.313 117.996 261.651 118.276 261.028 118.627C255.502 121.795 249.983 124.971 244.456 128.139C244.277 128.24 244.105 127.991 244.269 127.867Z" fill="#CCD7E4"/>
<path d="M250.273 109.067L247.323 112.415C247.191 112.57 246.988 112.648 246.786 112.64L138.336 108.336C137.472 108.304 136.608 108.219 135.744 108.079L18.5988 89.5908C18.3497 89.5752 18.2096 89.3961 18.233 89.2794C18.2486 89.1782 18.4042 89.0848 18.5988 89.1003C58.5864 94.1524 98.574 99.2045 138.562 104.257C139.387 104.358 140.22 104.428 141.045 104.451L249.783 107.931C250.359 107.946 250.647 108.624 250.273 109.06V109.067Z" fill="#CCD7E4"/>
<path d="M150.267 123.352L158.16 141.357C158.378 141.848 158.946 142.089 159.444 141.894L189.624 130.35C190.192 130.132 190.441 129.463 190.153 128.925L188.682 126.224C188.526 125.928 188.23 125.734 187.896 125.703L151.286 121.935C150.516 121.857 149.947 122.636 150.259 123.344L150.267 123.352Z" fill="#CCD7E4"/>
<path d="M143.192 99.5625L166.794 101.33C167.845 101.407 168.507 100.232 167.9 99.3756L144.718 66.829C144.391 66.3697 143.791 66.1907 143.262 66.3931L135.991 69.1721C135.415 69.3901 135.088 69.9973 135.221 70.5967L141.152 97.8032C141.363 98.7762 142.188 99.4924 143.184 99.5702L143.192 99.5625Z" fill="#CCD7E4"/>
</svg>
