<svg width="42" height="42" viewBox="0 0 42 42" fill="none" xmlns="http://www.w3.org/2000/svg">
<g filter="url(#filter0_d_1116_143905)">
<path d="M20.9973 35.9849C29.2758 35.9849 35.9868 29.2738 35.9868 20.9954C35.9868 12.7169 29.2758 6.00586 20.9973 6.00586C12.7188 6.00586 6.00781 12.7169 6.00781 20.9954C6.00781 29.2738 12.7188 35.9849 20.9973 35.9849Z" fill="#293476"/>
<path d="M26.0017 35.1271C24.9968 35.4974 24.1008 35.6994 23.3938 35.8134C23.0649 35.8678 22.1533 36.005 20.9594 35.9999C19.7992 35.9947 18.9032 35.86 18.5017 35.7901C17.8051 35.671 16.9531 35.4715 16.0078 35.1323C16.0078 25.7056 16.0078 16.2789 16.0078 6.85217C17.1965 6.43781 19.0819 5.94317 21.4256 6.00532C23.3368 6.05453 24.8984 6.45594 25.9784 6.82627C25.9861 16.2633 25.9939 25.6952 26.0017 35.1271Z" fill="white"/>
<path d="M35.131 16.0459C35.5014 17.0507 35.7034 17.9468 35.8173 18.6538C35.8717 18.9827 36.0089 19.8943 36.0038 21.0882C35.9986 22.2484 35.8639 23.1444 35.794 23.5458C35.6749 24.2425 35.4755 25.0945 35.1362 26.0398C25.7095 26.0398 16.2828 26.0398 6.85608 26.0398C6.44172 24.8511 5.94707 22.9657 6.00923 20.622C6.05843 18.7108 6.45984 17.1491 6.83018 16.0692C16.2647 16.0614 25.6991 16.0537 35.131 16.0459Z" fill="white"/>
<path d="M6.28979 23.9476C6.19138 23.4996 6.1085 22.992 6.05412 22.43C6.00491 21.8991 5.99455 21.4122 6.00232 20.9746C5.99714 20.5369 6.01268 20.0526 6.06448 19.5295C6.11627 18.9856 6.19656 18.4858 6.28979 18.043C16.0894 18.043 25.8865 18.043 35.6861 18.043C35.8596 18.8976 36.002 19.9775 35.9865 21.2258C35.971 22.272 35.8492 23.1914 35.699 23.9476C25.8968 23.9476 16.0946 23.9476 6.28979 23.9476Z" fill="#D1202D"/>
<path d="M23.9476 35.6998C23.4996 35.7982 22.992 35.8811 22.43 35.9355C21.8991 35.9847 21.4122 35.9951 20.9746 35.9873C20.5369 35.9925 20.0526 35.9769 19.5295 35.9251C18.9856 35.8733 18.4858 35.7931 18.043 35.6998C18.043 25.9002 18.043 16.1032 18.043 6.30353C18.8976 6.13001 19.9775 5.98758 21.2258 6.00311C22.272 6.01865 23.1914 6.14037 23.9476 6.29058C23.9476 16.0954 23.9476 25.8976 23.9476 35.6998Z" fill="#D1202D"/>
<path d="M20.9973 35.9849C29.2758 35.9849 35.9868 29.2738 35.9868 20.9954C35.9868 12.7169 29.2758 6.00586 20.9973 6.00586C12.7188 6.00586 6.00781 12.7169 6.00781 20.9954C6.00781 29.2738 12.7188 35.9849 20.9973 35.9849Z" stroke="white" stroke-width="0.5" stroke-miterlimit="10"/>
</g>
<defs>
<filter id="filter0_d_1116_143905" x="0.757812" y="0.755859" width="40.4805" height="40.479" filterUnits="userSpaceOnUse" color-interpolation-filters="sRGB">
<feFlood flood-opacity="0" result="BackgroundImageFix"/>
<feColorMatrix in="SourceAlpha" type="matrix" values="0 0 0 0 0 0 0 0 0 0 0 0 0 0 0 0 0 0 127 0" result="hardAlpha"/>
<feOffset/>
<feGaussianBlur stdDeviation="2.5"/>
<feComposite in2="hardAlpha" operator="out"/>
<feColorMatrix type="matrix" values="0 0 0 0 0.2 0 0 0 0 0.2 0 0 0 0 0.2 0 0 0 0.4 0"/>
<feBlend mode="normal" in2="BackgroundImageFix" result="effect1_dropShadow_1116_143905"/>
<feBlend mode="normal" in="SourceGraphic" in2="effect1_dropShadow_1116_143905" result="shape"/>
</filter>
</defs>
</svg>
