<svg width="96" height="80" viewBox="0 0 96 80" fill="none" xmlns="http://www.w3.org/2000/svg">
<path d="M54.9171 10.211C54.0035 9.20741 52.2956 9.16766 51.2762 10.2474L46.0465 15.2817C45.742 15.5732 45.2653 15.5732 44.9608 15.2817L38.5462 9.07161C37.9604 8.50525 37.1792 8.18398 36.3617 8.17735L25.4522 8.08792C24.6876 8.0813 23.9561 8.4092 23.4497 8.98549C20.8712 11.92 18.2928 14.8578 15.7144 17.7955C14.7015 18.8554 14.8604 20.5346 15.8997 21.3295C16.8497 22.0548 18.3391 21.8925 19.1732 20.8526L25.4224 13.4799C25.7501 13.0924 26.2333 12.8672 26.743 12.8672H29.5167C29.8577 12.8672 30.0397 13.268 29.8179 13.5263L15.0027 30.5767C14.6618 30.9675 14.1686 31.1927 13.649 31.1927H3.72254C2.07751 31.1331 0.713826 32.3718 0.597979 33.8424C0.468892 35.4686 1.89216 37.022 3.72254 36.969L17.8195 36.8994C18.5411 36.8961 19.2262 36.5947 19.7161 36.0648L25.2436 30.1097C25.7434 29.5698 26.5908 29.5467 27.1204 30.0567L32.8068 35.5117C33.108 35.7998 33.2338 36.2238 33.1444 36.6278C32.1845 40.9335 31.228 45.2391 30.2681 49.5448C30.2615 49.5779 30.2582 49.6077 30.2582 49.6409C30.2615 50.9657 31.0194 52.1249 32.0952 52.5223C33.5151 53.0456 35.3588 52.1944 35.9645 50.4291C35.9711 50.4092 35.9777 50.3927 35.981 50.3728L39.5557 33.9252C39.7841 32.8786 39.4697 31.7856 38.7183 31.0238L33.5284 25.7312C33.1113 25.3072 33.0881 24.6349 33.4688 24.1811L39.228 17.3484C39.377 17.1729 39.6451 17.1596 39.8106 17.3186L43.7759 21.1937C44.8086 22.2006 46.4602 22.1807 47.4664 21.144C49.9125 18.6269 52.3585 16.113 54.8012 13.5959C55.7313 12.6287 55.7412 11.1218 54.9104 10.211H54.9171Z" fill="#537399"/>
<path d="M42.0718 9.32673C44.6469 9.32673 46.7321 7.23682 46.7321 4.66336C46.7321 2.08991 44.6436 0 42.0718 0C39.5 0 37.4114 2.08991 37.4114 4.66336C37.4114 7.23682 39.5 9.32673 42.0718 9.32673Z" fill="#537399"/>
<path d="M33.4679 65.5586H12.2679C11.3886 65.5586 10.6758 66.2719 10.6758 67.1517V78.4068C10.6758 79.2867 11.3886 79.9999 12.2679 79.9999H33.4679C34.3472 79.9999 35.06 79.2867 35.06 78.4068V67.1517C35.06 66.2719 34.3472 65.5586 33.4679 65.5586Z" fill="#A1A3A6"/>
<path d="M48.8507 55.6226H27.6507C26.7714 55.6226 26.0586 56.3358 26.0586 57.2157V78.4069C26.0586 79.2868 26.7714 80 27.6507 80H48.8507C49.73 80 50.4428 79.2868 50.4428 78.4069V57.2157C50.4428 56.3358 49.73 55.6226 48.8507 55.6226Z" fill="#456080"/>
<path d="M64.2257 45.6865H43.0257C42.1464 45.6865 41.4336 46.3998 41.4336 47.2796V78.407C41.4336 79.2869 42.1464 80.0001 43.0257 80.0001H64.2257C65.105 80.0001 65.8178 79.2869 65.8178 78.407V47.2796C65.8178 46.3998 65.105 45.6865 64.2257 45.6865Z" fill="#A1A3A6"/>
<path d="M95.2159 31.4245L76.9484 9.17088C76.5148 8.64096 75.7039 8.64096 75.2703 9.17088L56.9995 31.4245C56.5527 31.9677 56.94 32.7891 57.645 32.7891H61.0774V78.3438C61.0774 79.2584 61.8183 79.9998 62.7323 79.9998H89.4864C90.4004 79.9998 91.1414 79.2584 91.1414 78.3438V32.7891H94.5738C95.2788 32.7891 95.666 31.971 95.2192 31.4245H95.2159Z" fill="#456080"/>
</svg>
