<svg width="56" height="81" viewBox="0 0 56 81" fill="none" xmlns="http://www.w3.org/2000/svg">
<path d="M23.0267 0.952687C21.8604 0.756574 20.604 1.06786 19.5776 1.80874C18.881 2.31303 18.3367 2.97296 17.9791 3.72939C19.7083 4.26481 21.3535 5.24849 22.697 6.65864C23.2164 7.20028 23.3128 8.05634 22.8712 8.66646C22.2803 9.48516 21.1296 9.53185 20.4733 8.83456C18.0382 6.2633 14.1164 5.61581 11.5412 7.36838C10.1324 8.32715 9.18693 9.98634 8.94746 11.9163C8.73597 13.6222 9.1154 15.3405 9.98932 16.8098C12.1881 14.6059 15.7149 14.0611 18.5109 15.6269C19.1827 16.0036 19.5434 16.8098 19.2822 17.5351C18.9432 18.4783 17.8609 18.8457 17.0367 18.3694C15.2671 17.3452 12.9625 17.8309 11.7901 19.4714C10.6642 21.0465 10.8726 23.2535 12.2628 24.6294C12.7697 25.1306 12.9221 26.052 12.5271 26.6466C12.2161 27.1135 11.7216 27.347 11.2271 27.347C10.8384 27.347 10.4527 27.2038 10.151 26.9112C8.19171 25.0279 7.52616 22.2263 8.25702 19.7391C7.95224 19.3655 7.67233 18.9764 7.42353 18.5717C5.97735 18.9857 4.79864 19.9414 4.23571 21.2115C3.78165 22.2325 3.75676 23.3936 4.08643 24.4862C4.2637 25.0092 4.41921 25.4513 4.77686 25.9555C5.16873 26.5501 5.67256 27.0855 6.28524 27.5182C6.8917 27.9447 7.14051 28.7572 6.83572 29.4358C6.56515 30.0366 5.9929 30.3634 5.41132 30.3634C5.10342 30.3634 4.79241 30.2731 4.52184 30.0833C3.69456 29.5043 2.99169 28.807 2.42255 28.0381C1.04479 29.0809 0.205078 30.6249 0.239288 32.2125C0.295269 34.6872 2.66202 37.3394 6.10175 37.355C6.82328 37.3581 7.47951 37.8593 7.6319 38.5659C7.8496 39.5776 7.08453 40.4679 6.11419 40.4679H6.11108C5.5295 40.4679 4.96036 40.4119 4.40677 40.3091C3.68523 41.931 3.7661 43.8112 4.65868 45.3583C5.27759 46.4353 6.335 47.6587 8.04243 48.0323C8.25702 46.9272 8.652 45.8501 9.23047 44.8384C9.60368 44.1847 10.3967 43.8516 11.1058 44.1038C12.0575 44.44 12.4276 45.5264 11.9456 46.3575C11.0467 47.914 10.7544 49.6914 11.1245 51.3662C11.4604 52.8915 12.3219 54.1522 13.4819 54.8246C15.1707 55.8021 17.609 55.5593 19.559 54.2176C20.1126 53.8378 20.8528 53.7942 21.3908 54.1989C22.2989 54.8838 22.2181 56.16 21.3721 56.7484C20.2867 57.5048 19.1049 58.0216 17.9044 58.2986V60.5897C17.9044 61.1251 18.3367 61.5578 18.8717 61.5578H26.9205V5.90532C26.9765 3.4648 25.3033 1.33557 23.0298 0.949571L23.0267 0.952687ZM16.6013 34.4693C15.2858 34.681 14.2501 35.7581 14.135 37.0313C14.0355 38.1612 14.6669 39.2757 15.7149 39.8235C16.2996 40.1286 16.7071 40.7294 16.6293 41.3831C16.5236 42.264 15.8176 42.7995 15.0743 42.7995C14.841 42.7995 14.6047 42.7465 14.3838 42.6376C12.1695 41.5356 10.8228 39.1698 11.0405 36.7573C11.2831 34.0335 13.3762 31.8296 16.1317 31.3938C17.2016 31.2288 18.1937 32.1938 17.864 33.4109C17.7085 33.9868 17.186 34.3759 16.6013 34.4693Z" fill="#456080"/>
<path d="M54.9544 28.4831C53.9592 16.4829 45.5901 9.4384 43.0616 7.57688C40.5269 5.55661 35.4824 2.30673 28.4723 1.4787C27.6481 1.3822 26.9204 2.01723 26.9204 2.84838V22.385C26.9795 22.3725 26.8602 22.3974 26.9193 22.385C26.9846 22.3694 27.2314 22.3227 27.2967 22.304C27.4149 22.276 27.533 22.2418 27.6481 22.2106C27.5921 22.2262 27.7041 22.1951 27.6481 22.2106C27.7943 22.1639 28.1084 22.0706 28.2484 22.0176C28.2297 22.0239 28.267 22.0114 28.2484 22.0176C28.407 21.9585 28.6216 21.8776 28.7709 21.8091C28.7273 21.8309 28.8175 21.7904 28.7709 21.8091C28.8735 21.7624 29.1067 21.6534 29.2032 21.6036C29.2529 21.5787 29.3027 21.5507 29.3524 21.5258C29.4395 21.4791 29.5266 21.4355 29.6106 21.3888C29.6572 21.3608 29.707 21.3359 29.7536 21.3079C29.8376 21.2612 29.9154 21.2114 29.9931 21.1616C30.0335 21.1367 30.074 21.1118 30.1144 21.0869C30.2015 21.0309 30.2855 20.9748 30.3694 20.9188C30.3477 20.9375 30.3943 20.9032 30.3694 20.9188C30.4752 20.8472 30.6431 20.7258 30.7364 20.6542C30.7209 20.6666 30.752 20.6417 30.7364 20.6542C30.8111 20.5982 30.9292 20.5048 30.9945 20.4519C30.9697 20.4705 31.0225 20.4301 30.9945 20.4519C31.0474 20.4083 31.1749 20.3055 31.2216 20.2651C31.1998 20.2869 31.2465 20.2433 31.2216 20.2651C31.2651 20.2277 31.3771 20.1281 31.4144 20.097C31.3957 20.1125 31.4331 20.0814 31.4144 20.097C31.4517 20.0627 31.5419 19.9818 31.573 19.9507C31.5637 19.9631 31.5855 19.9413 31.573 19.9507C31.6103 19.9133 31.6788 19.8448 31.7036 19.8199C32.223 19.2876 33.0627 19.1849 33.7034 19.63C34.1357 19.9289 34.3721 20.4456 34.3721 20.9717V61.5609H36.0919C36.5584 61.5609 36.9659 61.262 37.084 60.8387C37.4013 59.6962 37.9082 58.6285 38.5924 57.6698C39.4663 56.4402 40.586 55.4378 41.9202 54.6907C43.3633 53.8813 44.6166 52.9537 45.6429 51.9296C49.5274 48.0602 55.8968 39.867 54.9544 28.4831Z" fill="#A1A3A6"/>
<path d="M30.7695 24.3057C30.6327 24.3773 30.4958 24.4458 30.3528 24.5143C30.3372 24.5236 30.3186 24.5299 30.303 24.5361C30.1724 24.5983 30.0356 24.6575 29.8987 24.7166C29.8676 24.7291 29.8334 24.7446 29.8023 24.7571C29.6499 24.8193 29.4944 24.8816 29.3358 24.9408C29.3078 24.9501 29.2798 24.9594 29.2518 24.9688C29.1088 25.0217 28.9595 25.0715 28.8102 25.1182C28.7791 25.1275 28.7511 25.1369 28.7231 25.1462C28.5552 25.1991 28.3841 25.2458 28.21 25.2925C28.1757 25.3019 28.1384 25.3112 28.1011 25.3205C27.9363 25.361 27.7714 25.3984 27.6035 25.4326C27.5817 25.4357 27.5631 25.4419 27.5413 25.445C27.3578 25.4824 27.1681 25.5135 26.9784 25.5384C26.9597 25.5384 26.941 25.5447 26.9193 25.5478V61.5579H31.2578V24.038C31.1303 24.1127 30.9997 24.1843 30.8628 24.2559C30.8317 24.2715 30.8006 24.2871 30.7695 24.3057Z" fill="#A1A3A6"/>
<path d="M22.92 73.91H32.8784C34.0509 73.91 35.0025 74.8625 35.0025 76.0361V76.7271C35.0025 79.0276 33.1365 80.8953 30.8382 80.8953H24.9602C22.6618 80.8953 20.7958 79.0276 20.7958 76.7271V76.0361C20.7958 74.8625 21.7475 73.91 22.92 73.91Z" fill="#537399"/>
<path d="M19.9462 65.0662H35.851C36.7405 65.0662 37.4651 65.7884 37.4651 66.6818V69.3526C37.4651 70.0935 36.8649 70.6943 36.1247 70.6943H19.6725C18.9323 70.6943 18.332 70.0935 18.332 69.3526V66.6818C18.332 65.7915 19.0536 65.0662 19.9462 65.0662Z" fill="#537399"/>
</svg>
