<svg width="19" height="20" viewBox="0 0 19 20" fill="none" xmlns="http://www.w3.org/2000/svg">
<path fill-rule="evenodd" clip-rule="evenodd" d="M9.25438 15.7483C9.61682 15.7483 9.91063 16.0421 9.91063 16.4045V18.5356C9.91063 18.8981 9.61682 19.1919 9.25438 19.1919C8.89194 19.1919 8.59813 18.8981 8.59813 18.5356V16.4045C8.59813 16.0421 8.89194 15.7483 9.25438 15.7483Z" fill="#344860"/>
<path fill-rule="evenodd" clip-rule="evenodd" d="M9.25438 0.808105C9.61682 0.808105 9.91063 1.10192 9.91063 1.46436V3.59546C9.91063 3.9579 9.61682 4.25171 9.25438 4.25171C8.89194 4.25171 8.59813 3.9579 8.59813 3.59546V1.46436C8.59813 1.10192 8.89194 0.808105 9.25438 0.808105Z" fill="#344860"/>
<path fill-rule="evenodd" clip-rule="evenodd" d="M3.5061 9.99998C3.5061 10.3624 3.21229 10.6562 2.84985 10.6562H0.71875C0.356313 10.6562 0.0625 10.3624 0.0625 9.99998C0.0625 9.63755 0.356313 9.34373 0.71875 9.34373H2.84985C3.21229 9.34373 3.5061 9.63755 3.5061 9.99998Z" fill="#344860"/>
<path fill-rule="evenodd" clip-rule="evenodd" d="M18.4463 9.99998C18.4463 10.3624 18.1524 10.6562 17.79 10.6562H15.6589C15.2965 10.6562 15.0027 10.3624 15.0027 9.99998C15.0027 9.63755 15.2965 9.34373 15.6589 9.34373H17.79C18.1524 9.34373 18.4463 9.63755 18.4463 9.99998Z" fill="#344860"/>
<path fill-rule="evenodd" clip-rule="evenodd" d="M13.3185 14.0634C13.5748 13.8071 13.9903 13.8071 14.2466 14.0634L15.7535 15.5703C16.0098 15.8266 16.0098 16.2421 15.7535 16.4984C15.4972 16.7547 15.0817 16.7547 14.8254 16.4984L13.3185 14.9915C13.0622 14.7352 13.0622 14.3197 13.3185 14.0634Z" fill="#344860"/>
<path fill-rule="evenodd" clip-rule="evenodd" d="M2.75424 3.49914C3.01052 3.24285 3.42603 3.24285 3.68232 3.49914L5.18923 5.00605C5.44552 5.26234 5.44552 5.67785 5.18923 5.93413C4.93295 6.19041 4.51744 6.19041 4.26116 5.93413L2.75424 4.42721C2.49796 4.17093 2.49796 3.75542 2.75424 3.49914Z" fill="#344860"/>
<path fill-rule="evenodd" clip-rule="evenodd" d="M5.18848 14.064C5.44476 14.3203 5.44476 14.7358 5.18848 14.9921L3.68156 16.499C3.42528 16.7553 3.00976 16.7553 2.75348 16.499C2.4972 16.2427 2.4972 15.8272 2.75348 15.5709L4.2604 14.064C4.51668 13.8077 4.9322 13.8077 5.18848 14.064Z" fill="#344860"/>
<path fill-rule="evenodd" clip-rule="evenodd" d="M15.7528 3.49974C16.009 3.75602 16.009 4.17154 15.7528 4.42782L14.2458 5.93474C13.9896 6.19102 13.574 6.19102 13.3178 5.93474C13.0615 5.67845 13.0615 5.26294 13.3178 5.00666L14.8247 3.49974C15.081 3.24346 15.4965 3.24346 15.7528 3.49974Z" fill="#344860"/>
<path fill-rule="evenodd" clip-rule="evenodd" d="M9.25427 13.226C11.036 13.226 12.4803 11.7817 12.4803 9.99998C12.4803 8.2183 11.036 6.77396 9.25427 6.77396C7.47259 6.77396 6.02824 8.2183 6.02824 9.99998C6.02824 11.7817 7.47259 13.226 9.25427 13.226ZM9.25427 14.5385C11.7608 14.5385 13.7928 12.5065 13.7928 9.99998C13.7928 7.49342 11.7608 5.46146 9.25427 5.46146C6.74771 5.46146 4.71574 7.49342 4.71574 9.99998C4.71574 12.5065 6.74771 14.5385 9.25427 14.5385Z" fill="#344860"/>
</svg>
