<svg width="153" height="49" viewBox="0 0 153 49" fill="none" xmlns="http://www.w3.org/2000/svg">
<path d="M15.61 48.5H0.25V0.5H15.61V48.5Z" fill="#6A6D70"/>
<path d="M42.8965 30.964L49.4885 0.5H65.6805L53.7765 48.5H31.3765L19.4725 0.5H35.6645L42.1925 30.964H42.8965Z" fill="#6A6D70"/>
<path d="M100.22 19.252V30.388H84.86V36.212H103.676V48.5H69.5V0.5H103.292L101.372 12.788H84.86V19.252H100.22Z" fill="#6A6D70"/>
<path d="M143.723 32.5L152.043 48.5H135.147L128.875 34.228H125.547V48.5H110.187V0.5H134.379C145.387 0.5 150.891 6.11067 150.891 17.332C150.891 25.012 148.502 30.068 143.723 32.5ZM129.067 12.788H125.547V22.388H129.067C130.945 22.388 132.289 22.196 133.099 21.812C133.953 21.428 134.379 20.5533 134.379 19.188V15.988C134.379 14.6227 133.953 13.748 133.099 13.364C132.289 12.98 130.945 12.788 129.067 12.788Z" fill="#6A6D70"/>
</svg>
