<svg width="122" height="49" viewBox="0 0 122 49" fill="none" xmlns="http://www.w3.org/2000/svg">
<path d="M39.6935 6C37.9411 4.08 35.618 2.69 32.7141 1.84C29.8102 0.94 26.2053 0.5 21.8995 0.5H0.390625V48.5H21.8995C26.2053 48.5 29.8202 48.05 32.7141 47.16C35.608 46.27 37.9411 44.86 39.6935 42.94C41.4458 41.02 42.6775 38.55 43.4085 35.52C44.1795 32.45 44.56 28.76 44.56 24.45C44.56 20.14 44.1795 16.47 43.4085 13.44C42.6875 10.41 41.4458 7.94 39.6935 6.02V6ZM28.1079 32.11C28.1079 33.86 27.6373 34.99 26.696 35.5C25.7948 35.97 24.2827 36.2 22.1499 36.2H15.7513V12.79H22.1499C24.2827 12.79 25.7948 13.05 26.696 13.56C27.6373 14.03 28.1079 15.14 28.1079 16.89V32.11Z" fill="#6A6D70"/>
<path d="M65.8294 30.39H81.1901V19.25H65.8294V12.79H82.3416L84.2642 0.5H50.4688V48.5H84.6447V36.21H65.8294V30.39Z" fill="#6A6D70"/>
<path d="M105.876 36.21V0.5H90.5156V48.5H121.237V36.21H105.876Z" fill="#6A6D70"/>
</svg>
