<svg width="179" height="36" viewBox="0 0 179 36" fill="none" xmlns="http://www.w3.org/2000/svg">
<path d="M32.5037 20.115H32.1657L28.0352 0H19.2484L15.0728 20.115H14.7348L12.0462 0H0L5.66261 36H20.6903L23.2813 22.755H23.9572L26.5933 36H41.6735L47.2836 0H35.2374L32.5037 20.115Z" fill="#456080"/>
<path d="M63.3408 22.4175H74.8688V14.0625H63.3408V9.2175H75.7325L77.1669 0H51.8203V36H77.4598V26.7825H63.3408V22.4175Z" fill="#456080"/>
<path d="M117.344 4.125C116.03 2.685 114.288 1.6425 112.11 1.005C109.932 0.33 107.228 0 103.999 0H87.8672V36H103.999C107.228 36 109.939 35.6625 112.11 34.995C114.28 34.3275 116.03 33.27 117.344 31.83C118.659 30.39 119.582 28.5375 120.131 26.265C120.709 23.9625 120.994 21.195 120.994 17.9625C120.994 14.73 120.709 11.9775 120.131 9.705C119.59 7.4325 118.659 5.58 117.344 4.14V4.125ZM108.655 23.7075C108.655 25.02 108.302 25.8675 107.596 26.25C106.92 26.6025 105.786 26.775 104.187 26.775H99.3877V9.2175H104.187C105.786 9.2175 106.92 9.4125 107.596 9.795C108.302 10.1475 108.655 10.98 108.655 12.2925V23.7075Z" fill="#566B5F"/>
<path d="M136.938 22.4175H148.459V14.0625H136.938V9.2175H149.323L150.765 0H125.418V36H151.05V26.7825H136.938V22.4175Z" fill="#566B5F"/>
<path d="M166.981 26.7825V0H155.461V36H178.502V26.7825H166.981Z" fill="#566B5F"/>
<path d="M81.8594 0L81.8594 36L83.3614 36L83.3614 -6.55672e-08L81.8594 0Z" fill="#6A6D70"/>
</svg>
