<svg width="14" height="878" viewBox="0 0 14 878" fill="none" xmlns="http://www.w3.org/2000/svg">
    <path d="M12 34C12 36.7614 9.76142 39 7 39C4.23858 39 2 36.7614 2 34C2 31.2386 4.23858 29 7 29C9.76142 29 12 31.2386 12 34Z" fill="#456080"/>
    <path d="M11 277C11 279.209 9.20914 281 7 281C4.79086 281 3 279.209 3 277C3 274.791 4.79086 273 7 273C9.20914 273 11 274.791 11 277Z" fill="#456080"/>
    <path d="M12 393C12 395.761 9.76142 398 7 398C4.23858 398 2 395.761 2 393C2 390.239 4.23858 388 7 388C9.76142 388 12 390.239 12 393Z" fill="#456080"/>
    <path d="M10.5 509C10.5 510.933 8.933 512.5 7 512.5C5.067 512.5 3.5 510.933 3.5 509C3.5 507.067 5.067 505.5 7 505.5C8.933 505.5 10.5 507.067 10.5 509Z" fill="#456080"/>
    <path d="M11.5 625C11.5 627.485 9.48528 629.5 7 629.5C4.51472 629.5 2.5 627.485 2.5 625C2.5 622.515 4.51472 620.5 7 620.5C9.48528 620.5 11.5 622.515 11.5 625Z" fill="#456080"/>
    <path d="M13.5 730C13.5 733.59 10.5899 736.5 7 736.5C3.41015 736.5 0.5 733.59 0.5 730C0.5 726.41 3.41015 723.5 7 723.5C10.5899 723.5 13.5 726.41 13.5 730Z" fill="#456080"/>
    <path d="M9.5 846C9.5 847.381 8.38071 848.5 7 848.5C5.61929 848.5 4.5 847.381 4.5 846C4.5 844.619 5.61929 843.5 7 843.5C8.38071 843.5 9.5 844.619 9.5 846Z" fill="#456080"/>
    <path d="M9.5 150C9.5 151.381 8.38071 152.5 7 152.5C5.61929 152.5 4.5 151.381 4.5 150C4.5 148.619 5.61929 147.5 7 147.5C8.38071 147.5 9.5 148.619 9.5 150Z" fill="#456080"/>
    <path fill-rule="evenodd" clip-rule="evenodd" d="M7 0C7.55228 -2.41411e-08 8 0.447715 8 1V877C8 877.552 7.55228 878 7 878C6.44772 878 6 877.552 6 877V1C6 0.447715 6.44772 2.41411e-08 7 0Z" fill="#456080"/>
</svg>
