<svg width="14" height="640" viewBox="0 0 14 640" fill="none" xmlns="http://www.w3.org/2000/svg">
<path fill-rule="evenodd" clip-rule="evenodd" d="M6.63284 3.5C7.18512 3.5 7.63284 3.94772 7.63284 4.5L7.63286 635C7.63286 635.552 7.18515 636 6.63286 636C6.08058 636 5.63286 635.552 5.63286 635L5.63284 4.5C5.63284 3.94772 6.08055 3.5 6.63284 3.5Z" fill="#456080"/>
<path d="M6.63284 9C4.14755 9 2.13284 6.98528 2.13284 4.5C2.13284 2.01472 4.14755 -1.08635e-07 6.63284 0C9.11812 1.08635e-07 11.1328 2.01472 11.1328 4.5C11.1328 6.98528 9.11812 9 6.63284 9Z" fill="#456080"/>
<path d="M6.63283 96C5.25212 96 4.13283 94.8807 4.13283 93.5C4.13283 92.1193 5.25212 91 6.63283 91C8.01354 91 9.13283 92.1193 9.13283 93.5C9.13283 94.8807 8.01354 96 6.63283 96Z" fill="#456080"/>
<path d="M6.63281 640C5.2521 640 4.13281 638.881 4.13281 637.5C4.13281 636.119 5.2521 635 6.63281 635C8.01352 635 9.13281 636.119 9.13281 637.5C9.13281 638.881 8.01352 640 6.63281 640Z" fill="#456080"/>
<path d="M6.63282 367C4.69982 367 3.13282 365.433 3.13282 363.5C3.13282 361.567 4.69982 360 6.63282 360C8.56582 360 10.1328 361.567 10.1328 363.5C10.1328 365.433 8.56582 367 6.63282 367Z" fill="#456080"/>
<path d="M6.63283 186C4.42369 186 2.63283 184.209 2.63283 182C2.63283 179.791 4.42369 178 6.63283 178C8.84197 178 10.6328 179.791 10.6328 182C10.6328 184.209 8.84197 186 6.63283 186Z" fill="#456080"/>
<path d="M6.63282 278C3.8714 278 1.63282 275.761 1.63282 273C1.63282 270.239 3.8714 268 6.63282 268C9.39425 268 11.6328 270.239 11.6328 273C11.6328 275.761 9.39425 278 6.63282 278Z" fill="#456080"/>
<path d="M6.63282 458C4.14753 458 2.13282 455.985 2.13282 453.5C2.13282 451.015 4.14754 449 6.63282 449C9.1181 449 11.1328 451.015 11.1328 453.5C11.1328 455.985 9.1181 458 6.63282 458Z" fill="#456080"/>
<path d="M6.63281 553C3.04296 553 0.132812 550.09 0.132812 546.5C0.132813 542.91 3.04296 540 6.63281 540C10.2227 540 13.1328 542.91 13.1328 546.5C13.1328 550.09 10.2227 553 6.63281 553Z" fill="#456080"/>
</svg>
