<svg width="1086" height="517" viewBox="0 0 1086 517" fill="none" xmlns="http://www.w3.org/2000/svg">
<path d="M792.399 177.828L720.77 236.654" stroke="#F8F8F8" stroke-width="0.5" stroke-miterlimit="10"/>
<path d="M800.159 177.218L831.925 192.124" stroke="#F8F8F8" stroke-width="0.5" stroke-miterlimit="10"/>
<path d="M836.787 196.256L837.211 232.063" stroke="#F8F8F8" stroke-width="0.5" stroke-miterlimit="10"/>
<path d="M688.038 201.202L740.168 237.687" stroke="#F8F8F8" stroke-width="0.5" stroke-miterlimit="10"/>
<path d="M675.35 216.904L740.084 221.833" stroke="#F8F8F8" stroke-width="0.5" stroke-miterlimit="10"/>
<path d="M793.806 229.607L738.508 221.714" stroke="#F8F8F8" stroke-width="0.5" stroke-miterlimit="10"/>
<path d="M686.463 201.914L693.697 229.607" stroke="#F8F8F8" stroke-width="0.5" stroke-miterlimit="10"/>
<path d="M710.3 168.884L695.459 231.454" stroke="#F8F8F8" stroke-width="0.5" stroke-miterlimit="10"/>
<path d="M763.463 146.78L695.086 234.096" stroke="#F8F8F8" stroke-width="0.5" stroke-miterlimit="10"/>
<path d="M792.569 175.27L707.759 169.935" stroke="#F8F8F8" stroke-width="0.5" stroke-miterlimit="10"/>
<path d="M791.163 177.031L688.141 199.61" stroke="#F8F8F8" stroke-width="0.5" stroke-miterlimit="10"/>
<path d="M679.924 190.447L792.569 176.591" stroke="#F8F8F8" stroke-width="0.5" stroke-miterlimit="10"/>
<path d="M765.581 146.611L794.246 174.389" stroke="#F8F8F8" stroke-width="0.5" stroke-miterlimit="10"/>
<path d="M783.42 228.117L694.984 231.623" stroke="#F8F8F8" stroke-width="0.5" stroke-miterlimit="10"/>
<path d="M837.041 218.056L741.235 237.45" stroke="#F8F8F8" stroke-width="0.5" stroke-miterlimit="10"/>
<path d="M804.835 229.878L837.041 218.056" stroke="#F8F8F8" stroke-width="0.5" stroke-miterlimit="10"/>
<path d="M855.118 277.576L869.857 242.48L837.041 218.056" stroke="#F8F8F8" stroke-width="0.5" stroke-miterlimit="10"/>
<path d="M835.652 251.729L869.858 242.48" stroke="#F8F8F8" stroke-width="0.5" stroke-miterlimit="10"/>
<path d="M863.03 289.5L930.645 260.604" stroke="#F8F8F8" stroke-width="0.5" stroke-miterlimit="10"/>
<path d="M929.255 258.148L842.191 234.807" stroke="#F8F8F8" stroke-width="0.5" stroke-miterlimit="10"/>
<path d="M891.882 276.814L835.652 251.729" stroke="#F8F8F8" stroke-width="0.5" stroke-miterlimit="10"/>
<path d="M863.759 290.991L935.88 285.3" stroke="#F8F8F8" stroke-width="0.5" stroke-miterlimit="10"/>
<path d="M1026.65 286.282L935.879 285.3" stroke="#F8F8F8" stroke-width="0.5" stroke-miterlimit="10"/>
<path d="M920.92 328.458L863.098 292.871" stroke="#F8F8F8" stroke-width="0.5" stroke-miterlimit="10"/>
<path d="M928.595 329.39L973.592 308.878" stroke="#F8F8F8" stroke-width="0.5" stroke-miterlimit="10"/>
<path d="M1028.64 288.146L973.592 308.878" stroke="#F8F8F8" stroke-width="0.5" stroke-miterlimit="10"/>
<path d="M844.716 316.822L898.015 288.281" stroke="#F8F8F8" stroke-width="0.5" stroke-miterlimit="10"/>
<path d="M851.052 275.052L896.608 289.043" stroke="#F8F8F8" stroke-width="0.5" stroke-miterlimit="10"/>
<path d="M877.125 365.247L858.642 294.209" stroke="#F8F8F8" stroke-width="0.5" stroke-miterlimit="10"/>
<path d="M859.185 338.062L895.287 312.688" stroke="#F8F8F8" stroke-width="0.5" stroke-miterlimit="10"/>
<path d="M878.582 365.84L895.287 312.688" stroke="#F8F8F8" stroke-width="0.5" stroke-miterlimit="10"/>
<path d="M845.698 314.637L895.287 312.688" stroke="#F8F8F8" stroke-width="0.5" stroke-miterlimit="10"/>
<path d="M858.201 334.861L891.288 356.778" stroke="#F8F8F8" stroke-width="0.5" stroke-miterlimit="10"/>
<path d="M877.125 365.248L920.005 332.828" stroke="#F8F8F8" stroke-width="0.5" stroke-miterlimit="10"/>
<path d="M928.137 387.402L891.289 356.778" stroke="#F8F8F8" stroke-width="0.5" stroke-miterlimit="10"/>
<path d="M961.546 370.329L927.663 333.76" stroke="#F8F8F8" stroke-width="0.5" stroke-miterlimit="10"/>
<path d="M879.446 376.681L933.033 366.958" stroke="#F8F8F8" stroke-width="0.5" stroke-miterlimit="10"/>
<path d="M976.37 361.267L932.729 367.009" stroke="#F8F8F8" stroke-width="0.5" stroke-miterlimit="10"/>
<path d="M879.243 375.631L926.477 387.199" stroke="#F8F8F8" stroke-width="0.5" stroke-miterlimit="10"/>
<path d="M928.459 387.267L954.549 363.452" stroke="#F8F8F8" stroke-width="0.5" stroke-miterlimit="10"/>
<path d="M992.312 340.179L954.549 363.452" stroke="#F8F8F8" stroke-width="0.5" stroke-miterlimit="10"/>
<path d="M977.556 358.964L972.914 309.199" stroke="#F8F8F8" stroke-width="0.5" stroke-miterlimit="10"/>
<path d="M994.498 339.976L972.914 309.199" stroke="#F8F8F8" stroke-width="0.5" stroke-miterlimit="10"/>
<path d="M1011.42 331.71L973.27 309.691" stroke="#F8F8F8" stroke-width="0.5" stroke-miterlimit="10"/>
<path d="M1033.11 304.44L1011.42 331.71" stroke="#F8F8F8" stroke-width="0.5" stroke-miterlimit="10"/>
<path d="M1036.7 317.482L973.27 309.691" stroke="#F8F8F8" stroke-width="0.5" stroke-miterlimit="10"/>
<path d="M1011.42 333.031L998.801 277.407" stroke="#F8F8F8" stroke-width="0.5" stroke-miterlimit="10"/>
<path d="M1049.05 277L998.801 277.407" stroke="#F8F8F8" stroke-width="0.5" stroke-miterlimit="10"/>
<path d="M1026.72 285.3L940.251 260.011" stroke="#F8F8F8" stroke-width="0.5" stroke-miterlimit="10"/>
<path d="M1036.04 315.636L999.648 278" stroke="#F8F8F8" stroke-width="0.5" stroke-miterlimit="10"/>
<path d="M1071.04 245.461L1048.15 277.017" stroke="#F8F8F8" stroke-width="0.5" stroke-miterlimit="10"/>
<path d="M1074.28 245.258L1092.1 266.583" stroke="#F8F8F8" stroke-width="0.5" stroke-miterlimit="10"/>
<path d="M1108.82 247.511L1059.93 260.773" stroke="#F8F8F8" stroke-width="0.5" stroke-miterlimit="10"/>
<path d="M1092.1 266.583L1059.93 260.773" stroke="#F8F8F8" stroke-width="0.5" stroke-miterlimit="10"/>
<path d="M1071.84 270.987L1060.52 259.96" stroke="#F8F8F8" stroke-width="0.5" stroke-miterlimit="10"/>
<path d="M1039.95 220.376L1060.52 259.96" stroke="#F8F8F8" stroke-width="0.5" stroke-miterlimit="10"/>
<path d="M1066.18 243.582L1005.53 248.239" stroke="#F8F8F8" stroke-width="0.5" stroke-miterlimit="10"/>
<path d="M938.472 257.826L1006.05 248.188" stroke="#F8F8F8" stroke-width="0.5" stroke-miterlimit="10"/>
<path d="M1069.82 271.851L1015.13 264.432" stroke="#F8F8F8" stroke-width="0.5" stroke-miterlimit="10"/>
<path d="M937.336 259.944L1015.13 264.432" stroke="#F8F8F8" stroke-width="0.5" stroke-miterlimit="10"/>
<path d="M972.271 193.258L1062.69 237.687" stroke="#F8F8F8" stroke-width="0.5" stroke-miterlimit="10"/>
<path d="M968.035 193.14L936.015 257.166" stroke="#F8F8F8" stroke-width="0.5" stroke-miterlimit="10"/>
<path d="M838.888 195.121L931.779 257.42" stroke="#F8F8F8" stroke-width="0.5" stroke-miterlimit="10"/>
<path d="M841.142 192.733L964.054 190.887" stroke="#F8F8F8" stroke-width="0.5" stroke-miterlimit="10"/>
<path d="M840.209 192.123L907.163 160.009" stroke="#F8F8F8" stroke-width="0.5" stroke-miterlimit="10"/>
<path d="M914.228 159.314L966.171 191.768" stroke="#F8F8F8" stroke-width="0.5" stroke-miterlimit="10"/>
<path d="M799.278 175.456L906.553 157.807" stroke="#F8F8F8" stroke-width="0.5" stroke-miterlimit="10"/>
<path d="M1007.2 175.406L972.728 189.82" stroke="#F8F8F8" stroke-width="0.5" stroke-miterlimit="10"/>
<path d="M761.617 147.576L687.869 197.933" stroke="#F8F8F8" stroke-width="0.5" stroke-miterlimit="10"/>
<path d="M965.561 191.327L804.479 140.174L680.635 190.447" stroke="#F8F8F8" stroke-width="0.5" stroke-miterlimit="10"/>
<path d="M1049.46 213.11L1134.84 235.417" stroke="#F8F8F8" stroke-width="0.5" stroke-miterlimit="10"/>
<path d="M1145.77 219.106L1067.36 231.979" stroke="#F8F8F8" stroke-width="0.5" stroke-miterlimit="10"/>
<path d="M1104.94 237.009L1098.05 203.049L1097.79 202.439L1066.47 230.929" stroke="#F8F8F8" stroke-width="0.5" stroke-miterlimit="10"/>
<path d="M1014.47 174.356L1106.18 173.813" stroke="#F8F8F8" stroke-width="0.5" stroke-miterlimit="10"/>
<path d="M1177.71 140.615L1114.29 121.204L1111.99 120.424L1055.45 107.094" stroke="#F8F8F8" stroke-width="0.5" stroke-miterlimit="10"/>
<path d="M1054.13 108.957L1093.91 144.138" stroke="#F8F8F8" stroke-width="0.5" stroke-miterlimit="10"/>
<path d="M1019.5 124.608L1049.02 107.535" stroke="#F8F8F8" stroke-width="0.5" stroke-miterlimit="10"/>
<path d="M1048.34 102.775L1035.58 87.0396" stroke="#F8F8F8" stroke-width="0.5" stroke-miterlimit="10"/>
<path d="M1053.96 104.096L1071.63 89.0552" stroke="#F8F8F8" stroke-width="0.5" stroke-miterlimit="10"/>
<path d="M1055.01 105.909L1120.15 100.522" stroke="#F8F8F8" stroke-width="0.5" stroke-miterlimit="10"/>
<path d="M937.421 93.6455L933.711 112.125" stroke="#F8F8F8" stroke-width="0.5" stroke-miterlimit="10"/>
<path d="M941.471 93.6963L1046.1 105.248" stroke="#F8F8F8" stroke-width="0.5" stroke-miterlimit="10"/>
<path d="M923.376 63.5803L1046.36 103.842" stroke="#F8F8F8" stroke-width="0.5" stroke-miterlimit="10"/>
<path d="M931.593 115.563L917.312 127.386" stroke="#F8F8F8" stroke-width="0.5" stroke-miterlimit="10"/>
<path d="M851.679 96.2539L829.756 117.986" stroke="#F8F8F8" stroke-width="0.5" stroke-miterlimit="10"/>
<path d="M810.036 107.365L824.064 119.442" stroke="#F8F8F8" stroke-width="0.5" stroke-miterlimit="10"/>
<path d="M744.945 140.344L785.606 122.22" stroke="#F8F8F8" stroke-width="0.5" stroke-miterlimit="10"/>
<path d="M752.654 122.796L782.336 148.864" stroke="#F8F8F8" stroke-width="0.5" stroke-miterlimit="10"/>
<path d="M766.699 143.393L851.493 96.4402" stroke="#F8F8F8" stroke-width="0.5" stroke-miterlimit="10"/>
<path d="M752.654 123.101L787.639 131.925" stroke="#F8F8F8" stroke-width="0.5" stroke-miterlimit="10"/>
<path d="M731.273 159.839L856.964 145.459" stroke="#F8F8F8" stroke-width="0.5" stroke-miterlimit="10"/>
<path d="M765.852 144.934L856.964 145.459" stroke="#F8F8F8" stroke-width="0.5" stroke-miterlimit="10"/>
<path d="M888.019 69.0006L901.995 89.1907" stroke="#F8F8F8" stroke-width="0.5" stroke-miterlimit="10"/>
<path d="M852.289 100.844L902.691 89.4618" stroke="#F8F8F8" stroke-width="0.5" stroke-miterlimit="10"/>
<path d="M923.834 63.4956L860.811 84.9222" stroke="#F8F8F8" stroke-width="0.5" stroke-miterlimit="10"/>
<path d="M812.34 105.959L929.221 113.802" stroke="#F8F8F8" stroke-width="0.5" stroke-miterlimit="10"/>
<path d="M937.591 115.309L1013.98 125.438" stroke="#F8F8F8" stroke-width="0.5" stroke-miterlimit="10"/>
<path d="M887.765 69.0852L972.609 70.9315" stroke="#F8F8F8" stroke-width="0.5" stroke-miterlimit="10"/>
<path d="M494.411 318.228L508.71 369.567" stroke="#F8F8F8" stroke-width="0.5" stroke-miterlimit="10"/>
<path d="M538.341 312.943L534.105 330.761" stroke="#F8F8F8" stroke-width="0.5" stroke-miterlimit="10"/>
<path d="M493.802 318.414L534.208 331.117" stroke="#F8F8F8" stroke-width="0.5" stroke-miterlimit="10"/>
<path d="M389.711 400.428L443.247 364.807L448.363 361.267L534.292 313.468" stroke="#F8F8F8" stroke-width="0.5" stroke-miterlimit="10"/>
<path d="M454.547 390.113L512.945 350.511" stroke="#F8F8F8" stroke-width="0.5" stroke-miterlimit="10"/>
<path d="M458.698 418.857L504.915 370.973" stroke="#F8F8F8" stroke-width="0.5" stroke-miterlimit="10"/>
<path d="M497.512 386.844L449.702 393.636" stroke="#F8F8F8" stroke-width="0.5" stroke-miterlimit="10"/>
<path d="M453.04 391.163L505.187 371.142" stroke="#F8F8F8" stroke-width="0.5" stroke-miterlimit="10"/>
<path d="M371.889 476.361L432.93 425.124L433.641 424.412L504.56 372.92" stroke="#F8F8F8" stroke-width="0.5" stroke-miterlimit="10"/>
<path d="M449.346 396.464L454.632 422.125" stroke="#F8F8F8" stroke-width="0.5" stroke-miterlimit="10"/>
<path d="M444.044 398.141L370.042 476.632" stroke="#F8F8F8" stroke-width="0.5" stroke-miterlimit="10"/>
<path d="M385.646 404.662L443.349 397.43" stroke="#F8F8F8" stroke-width="0.5" stroke-miterlimit="10"/>
<path d="M380.444 407.22L318.353 476.632" stroke="#F8F8F8" stroke-width="0.5" stroke-miterlimit="10"/>
<path d="M365.095 480.867L326.807 450.819" stroke="#F8F8F8" stroke-width="0.5" stroke-miterlimit="10"/>
<path d="M327.264 450.971L308.916 451.31H305.206L279.895 476.548" stroke="#F8F8F8" stroke-width="0.5" stroke-miterlimit="10"/>
<path d="M406.331 487.879L443.129 448.82" stroke="#F8F8F8" stroke-width="0.5" stroke-miterlimit="10"/>
<path d="M370.127 481.477L399.504 489.776" stroke="#F8F8F8" stroke-width="0.5" stroke-miterlimit="10"/>
<path d="M389 486.863L442.112 455.985" stroke="#F8F8F8" stroke-width="0.5" stroke-miterlimit="10"/>
<path d="M365 485L364 502" stroke="#F8F8F8" stroke-width="0.5" stroke-miterlimit="10"/>
<path d="M389 487V501" stroke="#F8F8F8" stroke-width="0.5" stroke-miterlimit="10"/>
<path d="M318.522 481.223L364.401 481.477" stroke="#F8F8F8" stroke-width="0.5" stroke-miterlimit="10"/>
<path d="M351 481L338 503" stroke="#F8F8F8" stroke-width="0.5" stroke-miterlimit="10"/>
<path d="M334 482L321 500" stroke="#F8F8F8" stroke-width="0.5" stroke-miterlimit="10"/>
<path d="M314.105 486L312.357 508.135" stroke="#F8F8F8" stroke-width="0.5" stroke-miterlimit="10"/>
<path d="M346.137 466.215L334.227 481.832" stroke="#F8F8F8" stroke-width="0.5" stroke-miterlimit="10"/>
<path d="M326.807 450.819L311.915 470.281" stroke="#F8F8F8" stroke-width="0.5" stroke-miterlimit="10"/>
<path d="M318.606 476.277L327.264 450.971" stroke="#F8F8F8" stroke-width="0.5" stroke-miterlimit="10"/>
<path d="M305.121 452.106L311.118 470.552" stroke="#F8F8F8" stroke-width="0.5" stroke-miterlimit="10"/>
<path d="M285.469 430.95L305.375 452.208" stroke="#F8F8F8" stroke-width="0.5" stroke-miterlimit="10"/>
<path d="M258.362 437.743L286.147 431.12" stroke="#F8F8F8" stroke-width="0.5" stroke-miterlimit="10"/>
<path d="M256.159 452.953L285.672 431.458" stroke="#F8F8F8" stroke-width="0.5" stroke-miterlimit="10"/>
<path d="M280.166 475.768L285.537 431.188" stroke="#F8F8F8" stroke-width="0.5" stroke-miterlimit="10"/>
<path d="M268.866 457.713L285.401 432.187" stroke="#F8F8F8" stroke-width="0.5" stroke-miterlimit="10"/>
<path d="M353.896 377.765L269.916 456.967" stroke="#F8F8F8" stroke-width="0.5" stroke-miterlimit="10"/>
<path d="M258.277 435.795L355.659 376.173" stroke="#F8F8F8" stroke-width="0.5" stroke-miterlimit="10"/>
<path d="M280.233 396.024L301.58 381.034L302.122 380.763L353.1 375.478" stroke="#F8F8F8" stroke-width="0.5" stroke-miterlimit="10"/>
<path d="M257.65 437.302L302.275 380.78" stroke="#F8F8F8" stroke-width="0.5" stroke-miterlimit="10"/>
<path d="M295.65 364.807L301.766 380.813" stroke="#F8F8F8" stroke-width="0.5" stroke-miterlimit="10"/>
<path d="M280.437 395.533L323.113 350.24" stroke="#F8F8F8" stroke-width="0.5" stroke-miterlimit="10"/>
<path d="M266.308 459.694L279.895 396.38" stroke="#F8F8F8" stroke-width="0.5" stroke-miterlimit="10"/>
<path d="M356.979 375.478L380.986 402.189" stroke="#F8F8F8" stroke-width="0.5" stroke-miterlimit="10"/>
<path d="M439.198 312.773L386.797 399.717" stroke="#F8F8F8" stroke-width="0.5" stroke-miterlimit="10"/>
<path d="M362.367 370.532L436.725 312.672" stroke="#F8F8F8" stroke-width="0.5" stroke-miterlimit="10"/>
<path d="M448.821 331.896L370.127 334.336" stroke="#F8F8F8" stroke-width="0.5" stroke-miterlimit="10"/>
<path d="M326.027 351.663L355.218 374.682" stroke="#F8F8F8" stroke-width="0.5" stroke-miterlimit="10"/>
<path d="M328.365 349.461L370.347 334.37" stroke="#F8F8F8" stroke-width="0.5" stroke-miterlimit="10"/>
<path d="M338.683 361.708L390.321 316.432" stroke="#F8F8F8" stroke-width="0.5" stroke-miterlimit="10"/>
<path d="M412.379 318.719L339.208 361.589" stroke="#F8F8F8" stroke-width="0.5" stroke-miterlimit="10"/>
<path d="M370.618 333.98L411.854 318.583" stroke="#F8F8F8" stroke-width="0.5" stroke-miterlimit="10"/>
<path d="M414.666 318.939L428.236 332.625" stroke="#F8F8F8" stroke-width="0.5" stroke-miterlimit="10"/>
<path d="M453.039 331.287L514.978 350.071" stroke="#F8F8F8" stroke-width="0.5" stroke-miterlimit="10"/>
<path d="M494.767 318.583L484.179 340.806" stroke="#F8F8F8" stroke-width="0.5" stroke-miterlimit="10"/>
<path d="M231.882 362.198L233.864 376.088" stroke="#F8F8F8" stroke-width="0.5" stroke-miterlimit="10"/>
<path d="M237.1 396.922L259.073 388.131" stroke="#F8F8F8" stroke-width="0.5" stroke-miterlimit="10"/>
<path d="M233.593 377.409L195.762 405.458" stroke="#F8F8F8" stroke-width="0.5" stroke-miterlimit="10"/>
<path d="M153.153 430.391L192.983 392.89" stroke="#F8F8F8" stroke-width="0.5" stroke-miterlimit="10"/>
<path d="M149.444 432.576L146.598 398.971" stroke="#F8F8F8" stroke-width="0.5" stroke-miterlimit="10"/>
<path d="M126.69 407.644L146.19 399.666" stroke="#F8F8F8" stroke-width="0.5" stroke-miterlimit="10"/>
<path d="M132.925 417.366L192.983 392.89" stroke="#F8F8F8" stroke-width="0.5" stroke-miterlimit="10"/>
<path d="M191.052 337.283L149.596 433.677" stroke="#F8F8F8" stroke-width="0.5" stroke-miterlimit="10"/>
<path d="M101.956 404.391L128.86 392.145L128.775 391.705L191.053 337.283" stroke="#F8F8F8" stroke-width="0.5" stroke-miterlimit="10"/>
<path d="M127.013 407.999L129.164 391.163" stroke="#F8F8F8" stroke-width="0.5" stroke-miterlimit="10"/>
<path d="M112.544 410.489L128.689 392.585" stroke="#F8F8F8" stroke-width="0.5" stroke-miterlimit="10"/>
<path d="M123.794 419.924L113.527 435.845" stroke="#F8F8F8" stroke-width="0.5" stroke-miterlimit="10"/>
<path d="M128.774 391.705L112.256 383.032" stroke="#F8F8F8" stroke-width="0.5" stroke-miterlimit="10"/>
<path d="M141.125 343.025L139.719 360.031" stroke="#F8F8F8" stroke-width="0.5" stroke-miterlimit="10"/>
<path d="M102.142 405.018L139.871 359.641" stroke="#F8F8F8" stroke-width="0.5" stroke-miterlimit="10"/>
<path d="M113.527 380.814L139.855 359.506" stroke="#F8F8F8" stroke-width="0.5" stroke-miterlimit="10"/>
<path d="M261.632 246.529L197.05 330.135" stroke="#F8F8F8" stroke-width="0.5" stroke-miterlimit="10"/>
<path d="M232.068 333.048L196.169 333.76" stroke="#F8F8F8" stroke-width="0.5" stroke-miterlimit="10"/>
<path d="M160.27 323.529L191.68 334.014" stroke="#F8F8F8" stroke-width="0.5" stroke-miterlimit="10"/>
<path d="M149.376 307.031L189.426 291.076" stroke="#F8F8F8" stroke-width="0.5" stroke-miterlimit="10"/>
<path d="M162.607 320.226L188.545 291.465" stroke="#F8F8F8" stroke-width="0.5" stroke-miterlimit="10"/>
<path d="M159.558 322.123L154.34 312.333" stroke="#F8F8F8" stroke-width="0.5" stroke-miterlimit="10"/>
<path d="M162.082 322.123L261.852 245.919" stroke="#F8F8F8" stroke-width="0.5" stroke-miterlimit="10"/>
<path d="M86.0469 341.873L107.868 319.328" stroke="#F8F8F8" stroke-width="0.5" stroke-miterlimit="10"/>
<path d="M61.2451 378.544L81.4905 347.192" stroke="#F8F8F8" stroke-width="0.5" stroke-miterlimit="10"/>
<path d="M57.2803 367.161L61.3802 378.798" stroke="#F8F8F8" stroke-width="0.5" stroke-miterlimit="10"/>
<path d="M112.409 314.044L134.433 313.688" stroke="#F8F8F8" stroke-width="0.5" stroke-miterlimit="10"/>
<path d="M245.181 220.918L225.393 240.82L223.343 242.074L178.617 262.586L111.663 315.958" stroke="#F8F8F8" stroke-width="0.5" stroke-miterlimit="10"/>
<path d="M215.229 237.941L212.941 246.935" stroke="#F8F8F8" stroke-width="0.5" stroke-miterlimit="10"/>
<path d="M148.189 307.557L213.28 246.8" stroke="#F8F8F8" stroke-width="0.5" stroke-miterlimit="10"/>
<path d="M243.098 222.714L262.072 244.513" stroke="#F8F8F8" stroke-width="0.5" stroke-miterlimit="10"/>
<path d="M335.718 179.945L266.308 241.854" stroke="#F8F8F8" stroke-width="0.5" stroke-miterlimit="10"/>
<path d="M363.163 224.221L266.121 244.411" stroke="#F8F8F8" stroke-width="0.5" stroke-miterlimit="10"/>
<path d="M341.546 236.925L364.57 224.577" stroke="#F8F8F8" stroke-width="0.5" stroke-miterlimit="10"/>
<path d="M351.253 243.802L338.106 241.413" stroke="#F8F8F8" stroke-width="0.5" stroke-miterlimit="10"/>
<path d="M358.573 193.8L311.915 252.626" stroke="#F8F8F8" stroke-width="0.5" stroke-miterlimit="10"/>
<path d="M358.217 192.208L340.31 177.658" stroke="#F8F8F8" stroke-width="0.5" stroke-miterlimit="10"/>
<path d="M381.714 171.069L244.689 221.494" stroke="#F8F8F8" stroke-width="0.5" stroke-miterlimit="10"/>
<path d="M393.066 153.403L381.478 171.239" stroke="#F8F8F8" stroke-width="0.5" stroke-miterlimit="10"/>
<path d="M389.931 153.183L343.562 173.288" stroke="#F8F8F8" stroke-width="0.5" stroke-miterlimit="10"/>
<path d="M312.44 254.473L290.822 302.102" stroke="#F8F8F8" stroke-width="0.5" stroke-miterlimit="10"/>
<path d="M308.645 256.505L239.404 327.408" stroke="#F8F8F8" stroke-width="0.5" stroke-miterlimit="10"/>
<path d="M240.285 328.729L291.263 286.045L292.771 284.809L349.051 247.155" stroke="#F8F8F8" stroke-width="0.5" stroke-miterlimit="10"/>
<path d="M334.312 264.788L349.051 247.155" stroke="#F8F8F8" stroke-width="0.5" stroke-miterlimit="10"/>
<path d="M313.321 253.897L312.796 280.625" stroke="#F8F8F8" stroke-width="0.5" stroke-miterlimit="10"/>
<path d="M427.305 163.363L405.484 204.844" stroke="#F8F8F8" stroke-width="0.5" stroke-miterlimit="10"/>
<path d="M437.232 189.43L389.863 191.209" stroke="#F8F8F8" stroke-width="0.5" stroke-miterlimit="10"/>
<path d="M449.702 173.068L371.719 219.106" stroke="#F8F8F8" stroke-width="0.5" stroke-miterlimit="10"/>
<path d="M471.489 135.33L449.516 170.951" stroke="#F8F8F8" stroke-width="0.5" stroke-miterlimit="10"/>
<path d="M437.91 189.125L449.515 170.951" stroke="#F8F8F8" stroke-width="0.5" stroke-miterlimit="10"/>
<path d="M431.608 160.636L503.323 143.257" stroke="#F8F8F8" stroke-width="0.5" stroke-miterlimit="10"/>
<path d="M396.86 186.737L502.272 144.053" stroke="#F8F8F8" stroke-width="0.5" stroke-miterlimit="10"/>
<path d="M431.608 161.245L497.851 152.776" stroke="#F8F8F8" stroke-width="0.5" stroke-miterlimit="10"/>
<path d="M449.702 173.068L394.828 188.499" stroke="#F8F8F8" stroke-width="0.5" stroke-miterlimit="10"/>
<path d="M432.015 160.585L470.506 135.584" stroke="#F8F8F8" stroke-width="0.5" stroke-miterlimit="10"/>
<path d="M382.528 169.85L435.099 126.15" stroke="#F8F8F8" stroke-width="0.5" stroke-miterlimit="10"/>
<path d="M517.943 114.293L510.269 103.249" stroke="#F8F8F8" stroke-width="0.5" stroke-miterlimit="10"/>
<path d="M528.329 101.725L517.943 114.293" stroke="#F8F8F8" stroke-width="0.5" stroke-miterlimit="10"/>
<path d="M534.071 105.333L489.955 115.411" stroke="#F8F8F8" stroke-width="0.5" stroke-miterlimit="10"/>
<path d="M493.31 94.052L490.159 115.445" stroke="#F8F8F8" stroke-width="0.5" stroke-miterlimit="10"/>
<path d="M465.051 114.513L497.376 104.401" stroke="#F8F8F8" stroke-width="0.5" stroke-miterlimit="10"/>
<path d="M421.375 147.542L439.282 138.667" stroke="#F8F8F8" stroke-width="0.5" stroke-miterlimit="10"/>
<path d="M464.882 122.288L410.448 144.714" stroke="#F8F8F8" stroke-width="0.5" stroke-miterlimit="10"/>
<path d="M670.233 67.7639L590.827 103.741" stroke="#F8F8F8" stroke-width="0.5" stroke-miterlimit="10"/>
<path d="M582.542 95.8982L619.204 97.592" stroke="#F8F8F8" stroke-width="0.5" stroke-miterlimit="10"/>
<path d="M604.414 86.7009L619.204 97.5921" stroke="#F8F8F8" stroke-width="0.5" stroke-miterlimit="10"/>
<path d="M629.233 75.6572L621.694 95.8304" stroke="#F8F8F8" stroke-width="0.5" stroke-miterlimit="10"/>
<path d="M591.115 77.7745L628.658 76.1484" stroke="#F8F8F8" stroke-width="0.5" stroke-miterlimit="10"/>
<path d="M604.414 86.8533L628.539 76.3687" stroke="#F8F8F8" stroke-width="0.5" stroke-miterlimit="10"/>
<path d="M643.702 58.2109L591.538 77.9606" stroke="#F8F8F8" stroke-width="0.5" stroke-miterlimit="10"/>
<path d="M667.708 67.1542L611.479 63.5803" stroke="#F8F8F8" stroke-width="0.5" stroke-miterlimit="10"/>
<path d="M484.534 104.062L504.39 94.052" stroke="#F8F8F8" stroke-width="0.5" stroke-miterlimit="10"/>
<path d="M513.775 96.9144L546.998 76.7582" stroke="#F8F8F8" stroke-width="0.5" stroke-miterlimit="10"/>
<path d="M599.653 64.1562L554.182 84.5666" stroke="#F8F8F8" stroke-width="0.5" stroke-miterlimit="10"/>
<path d="M676.01 67.5269L685.396 75.3353" stroke="#F8F8F8" stroke-width="0.5" stroke-miterlimit="10"/>
<path d="M679.009 66.968L734.29 64.478" stroke="#F8F8F8" stroke-width="0.5" stroke-miterlimit="10"/>
<path d="M749.114 54.1628L656.883 56.5511" stroke="#F8F8F8" stroke-width="0.5" stroke-miterlimit="10"/>
<path d="M726.615 45.1687L728.343 60.4807" stroke="#F8F8F8" stroke-width="0.5" stroke-miterlimit="10"/>
<path d="M748.419 51.8422L726.581 45.3718" stroke="#F8F8F8" stroke-width="0.5" stroke-miterlimit="10"/>
<path d="M679.567 65.8331L748.69 54.095" stroke="#F8F8F8" stroke-width="0.5" stroke-miterlimit="10"/>
<path d="M720.601 65.054L684.803 75.1661" stroke="#F8F8F8" stroke-width="0.5" stroke-miterlimit="10"/>
<path d="M784.369 47.5738L771.883 45.1348" stroke="#F8F8F8" stroke-width="0.5" stroke-miterlimit="10"/>
<path d="M1059.33 336.131L1069.79 348.835" stroke="#F8F8F8" stroke-width="0.5" stroke-miterlimit="10"/>
<path d="M1094.27 344.736L1075.07 349.241" stroke="#F8F8F8" stroke-width="0.5" stroke-miterlimit="10"/>
<path d="M1070.45 352.679L1050.07 366.823" stroke="#F8F8F8" stroke-width="0.5" stroke-miterlimit="10"/>
<path d="M965.375 375.088L951.093 385.014L949.771 385.488L930.458 387.199L929.001 387.927L901.47 386.403L899.285 386.674L893.338 389.181L891.543 390.113L880.632 385.946L878.582 384.15V371.599" stroke="#F8F8F8" stroke-width="1.5" stroke-miterlimit="10"/>
<path d="M1030.57 289.043L1030.31 302.272L1030.97 303.322L1035.95 305.93L1037.11 308.048L1037 326.12L1036.75 326.341L1032.77 331.202L1031.5 331.642L1007.54 332.337L1006.22 333.048L997.004 338.214L992.82 339.315L998.902 349.19L999.207 351.002L995.378 356.694L994.277 357.964L979.842 359.201L977.386 359.556L977.471 366.298L977.166 367.703L969.305 372.04" stroke="#F8F8F8" stroke-width="1.5" stroke-miterlimit="10"/>
<path d="M1071.02 243.581L1107.72 245.953L1109.21 246.664L1110.28 255.794L1110.09 257.471L1102.42 262.501L1101.5 263.738L1094.27 265.364L1092.89 265.855L1087.47 270.869L1086.49 271.275L1072.95 271.665L1071.8 271.8L1049.05 277L1048.08 277.356L1031.8 285.3" stroke="#F8F8F8" stroke-width="1.5" stroke-miterlimit="10"/>
<path d="M1006.93 173.746L1006.53 183.011L1008.12 183.942L1016.59 192.598L1018.91 193.004L1023.33 204.183L1024.86 205.369L1034.92 211.721L1035.72 213.381L1040.61 219.461L1043.17 221.037L1055.57 232.419L1056.62 233.215L1067.6 241.278" stroke="#F8F8F8" stroke-width="1.5" stroke-miterlimit="10"/>
<path d="M1046.36 365.84L1047.02 354.983L1049.07 354.39L1058.44 353.408L1060.32 349.969L1056.55 346.649L1054.76 344.939L1055.03 337.52" stroke="#F8F8F8" stroke-width="1.5" stroke-miterlimit="10"/>
<path d="M1095.25 345.735L1077.71 362.724L1076.14 364.18L1074.21 375.224L1072.16 376.359L1054.44 375.292L1052.12 374.377L1050.13 371.396" stroke="#F8F8F8" stroke-width="1.5" stroke-miterlimit="10"/>
<path d="M1060.25 336.012L1082.48 333.556L1084.2 332.371L1088.57 328.797L1089.9 325.748L1095.18 330.541L1096.5 332.574L1096.38 339.451" stroke="#F8F8F8" stroke-width="1.5" stroke-miterlimit="10"/>
<path d="M1342.04 307.031L1327.23 299.358L1324.49 298.884L1321.85 302.627L1320.69 302.983L1291.42 302.882L1287.54 302.932L1287.76 310.029L1285.56 310.605L1285.64 319.464L1283.39 321.005L1269.8 320.7L1266.75 320.26L1265.34 313.112L1264.87 311.537L1257.42 305.321L1256.65 304.033L1250.79 289.704L1249.03 288.332L1240.34 280.083L1238.85 279.083L1238.53 271.665L1238.36 271.444L1239.24 263.331L1212.99 245.478L1199.36 234.807L1185.46 231.623L1166.96 222.493L1096.28 190.802L1089.68 200.846L1163.73 230.268L1161.66 232.334L1160.42 233.435L1141.37 237.619L1140.09 237.534L1122.88 235.858L1122 236.129L1108.19 238.466L1106.79 237.941L1070.75 234.723L1069.43 234.147L1064.04 231.098L1063.43 229.997L1052.49 219.546L1050.95 218.31L1049.02 212.754L1047.9 211.822L1040.22 206.487L1039.22 205.877L1030.31 195.325L1029.43 194.19L1019.37 187.313L1018.44 186.652L1011.42 175.456" stroke="#F8F8F8" stroke-width="1.5" stroke-miterlimit="10"/>
<path d="M807.24 105.096L782.014 106.993L780.337 107.348L780.421 106.281L779.625 105.18L787.876 104.367L788.723 102.961L786.419 101.691L784.962 100.556L793.331 96.4233L794.889 94.8819L792.128 94.5093L790.146 94.3398L786.351 91.274L786.063 89.8852L788.147 87.6155L788.824 86.7346L801.327 86.8193L803.055 87.4799L799.464 90.2578L797.38 91.4435L802.039 91.3588L803.377 91.5959L808.24 95.136L808.866 96.2538L818.811 97.5751L820.234 98.1509L811.611 102.182L812.119 103.029L825.723 101.522L826.621 100.963L838.938 97.1855L839.938 96.2031L856.659 96.0336L857.845 95.0174L858.286 91.5282L858.421 90.1223L862.843 87.8357L864.52 88.0559L872.195 91.85L873.601 91.6298L876.413 89.106L875.583 88.1405L869.094 84.702L865.96 84.8376L853.169 85.0917H851.509L844.58 83.635L842.716 83.1946L845.85 77.2493L846.952 76.6226L859.743 76.3685H860.844L900.149 65.5112L901.216 64.9015L922.427 63.5803L923.393 63.4956L953.295 66.4428L954.447 66.2735L964.409 69.1698L965.645 69.7965L984.485 72.8793L985.721 73.235L1005.48 78.5197L1007.1 79.4005L1007.95 82.2799L1008.25 83.2963L1016.37 83.9907H1017.91L1017.88 81.433L1018.1 79.8917L1029.38 83.906L1039.17 85.1764L1048.52 85.3627L1049.54 85.5321L1112.62 96.3386" stroke="#F8F8F8" stroke-width="0.5" stroke-miterlimit="10"/>
<path d="M779.015 100.997L775.508 102.081L758.872 103.741L756.313 103.3L763.87 95.7627L765.581 94.9327L784.233 93.8656L783.929 95.0174L778.558 101.234" stroke="#F8F8F8" stroke-width="0.5" stroke-miterlimit="10"/>
<path d="M751.197 122.491L784.894 122.118L785.826 122.254L796.771 118.324L797.279 116.935L795.652 113.006L794.585 112.735L782.116 112.006L780.659 112.311L780.761 110.228L781.032 109.296L803.751 106.417" stroke="#F8F8F8" stroke-width="0.5" stroke-miterlimit="10"/>
<path d="M716.399 239.702L697.898 235.011L695.12 234.977L694.984 232.131V230.539L678.517 223.95L676.077 223.188L676.772 221.511L677.06 219.851L674.587 217.141L672.655 216.311L673.197 213.381L673.299 211.856L684.243 203.116L680.804 199.966L678.958 193.614L679.229 191.412L706.217 170.866L707.759 169.934L730.647 160.415L732.324 159.67L733.476 155.757L733.205 154.114L757.906 145.747L761.532 144.46L747.165 140.97L744.658 140.699L745.098 135.889L745.945 134.991L752.383 122.322" stroke="#F8F8F8" stroke-miterlimit="10"/>
<path d="M873.025 368.059L862.707 360.471L860.403 358.625L860.844 343.109L859.878 340.365L855.914 327.408L853.796 325.375L848.409 322.462L844.885 321.056L846.477 308.539L846.647 306.591L856.27 293.091L859.963 290.364L860.319 283.403L859.709 281.099L855.118 277.576L851.712 276.306L851.018 267.921L849.205 266.295L837.82 260.028L834.482 257.826L834.652 253.592L835.719 250.594L842.055 243.717L840.565 240.888L834.923 239.126H828.57L840.209 235.163L836.058 233.842L827.587 231.284L825.215 232.859L819.387 235.417L817.27 234.536L811.018 230.827L807.579 229.861L797.516 229.607L794.517 229.946L765.58 236.399L762.141 236.569L741.235 237.45L737.711 238.246L719.804 238.33" stroke="#F8F8F8" stroke-miterlimit="10"/>
<path d="M406.822 491.351L426.051 482.103L427.813 479.546L439.469 461.202L441.756 459.965L443.078 453.698L442.722 450.09L450.041 442.146L452.514 439.233L453.31 427.241L453.581 424.243L466.728 413.487L469.015 410.743L494.597 398.497L496.529 397.43L499.087 390.468L504.559 385.082L505.186 374.157L505.084 371.769L509.235 370.447L510.828 368.245L513.301 354.39L513.199 351.223L524.584 343.634L526.346 341.348L527.227 338.248L528.108 336.317L540.12 327.238L541.56 324.63L542.102 311.266" stroke="#F8F8F8" stroke-miterlimit="10"/>
<path d="M444.229 310.554L444.924 316.737L447.313 316.822L448.634 316.55L452.074 316.822L449.075 321.141L447.838 324.325L453.751 322.123L455.513 320.7L458.071 322.733L459.054 324.935L474.132 318.227L477.401 317.092L479.604 320.7L481.332 322.225L514.656 310.639L517.536 310.3L522.822 312.418L524.737 312.553H536.528" stroke="#F8F8F8" stroke-miterlimit="10"/>
<path d="M149.596 436.15L177.211 423.633L179.057 422.295L194.153 408.897L196.355 405.73L204.995 407.305L207.469 407.051L229.696 392.67L232.255 393.382L232.966 390.824L231.899 397.345L233.847 396.905L236.134 396.549L236.575 398.666L235.067 401.664L242.572 402.986L245.215 402.274L267.714 391.603L270.001 389.672L270.441 385.963L271.153 383.592L278.472 379.967L281.826 378.29L280.064 391.874L280.437 395.533L252.923 433.169L251.992 436.218L257.023 435.422L258.413 437.404L251.331 447.262L249.603 449.701L249.671 453.817L249.417 457.713L253.449 454.206L256.092 453.41L265.291 458.576L267.443 463.048L267.629 469.044L269.967 468.434L272.661 468.299L275.659 468.214L277.235 475.091L279.624 476.328L308.73 470.365L311.118 470.552L316.709 477.327L314.371 481.832L313.677 490.827" stroke="#F8F8F8" stroke-miterlimit="10"/>
<path d="M110.341 315.416L78.0504 341.161L76.5426 343.55L74.7468 346.514L74.4249 348.631L84.6747 341.5L85.2676 343.482L86.7924 341.161L83.9462 345.125L57.4154 366.823L56.1617 368.55L54.7725 374.428L54.3659 376.155L48.809 381.051L47.2334 382.829L45.6409 385.539L45.0479 387.335L50.8589 384.354L51.6552 385.607L26.4459 410.675L24.3281 412.539L23.5488 416.637L23.9385 418.297L59.3976 379.797L61.5153 378.069L60.7868 380.661L61.583 381.643L78.186 366.89L79.5074 365.637L79.9818 361.402L80.3037 360.014L119.337 324.427L120.744 322.733L133.45 314.891L134.738 313.603H137.431L138.482 313.214L149.731 306.371L147.833 311.571L145.224 318.109L144.665 320.751L151.273 317.042L153.085 317.177L150.341 327.713L148.054 329.525L141.887 333.98L140.735 335.911L144.479 335.606L145.885 334.776L153.882 329.881L154.983 330.101L153.661 332.794L153.17 333.895L143.513 340.365L142.226 341.568L114.441 379.272L112.73 382.169L103.463 396.244L102.582 397.345L101.786 415.503L103.904 418.416L108.308 413.131L112.815 410.133L109.376 419.737L109.189 423.972L112.103 423.633L113.255 425.564L110.07 433.593L109.291 436.506L112.188 435.354L114.052 435.879L113.34 439.063L113.611 442.316L126.317 436.15L128.079 434.744V433.677L127.198 431.645L125.25 430.764L121.896 429.714L124.013 423.887L125.165 421.245L120.93 416.485L121.015 414.622L124.098 407.745L127.283 407.576L127.639 414.808L128.418 416.925L130.095 416.739L132.755 417.01L132.925 419.923L133.45 422.21L144.75 422.922L145.275 425.394L139.007 434.998L139.989 437.302L144.31 436.76" stroke="#F8F8F8" stroke-width="0.5" stroke-miterlimit="10"/>
<path d="M112.544 313.027L121.896 301.12" stroke="#F8F8F8" stroke-width="0.5" stroke-miterlimit="10"/>
<path d="M358.961 191.209L357.216 187.11L356.979 186.026L413.751 151.692L414.445 150.93L417.58 147.983L418.647 146.763L420.239 146.797L421.646 147.525L419.697 150.862L418.206 152.319L418.681 153.386L419.596 153.877L428.931 148.525L430.218 147.254L434.725 146.763L436.741 146.408L441.366 144.68L442.586 144.053L445.008 141.445L445.635 139.531L441.23 139.395L439.689 138.464L442.992 137.346L444.381 136.685L454.208 133.247L455.495 132.078L466.372 126.658L467.659 125.862L467.897 124.303L467.575 123.05L466.185 122.914L464.881 122.288L465.643 121.237L466.812 120.272H471.166L473.386 120.374L485.533 115.309L488.735 115.275L502.17 117.172L502.034 118.595L491.751 120.17L488.938 120.577L482.45 125.032L479.807 126.454L473.86 126.895L470.844 128.318L459.866 133.399L455.987 134.856L461.086 135.127L463.051 134.703L472.284 130.604L473.03 129.639L488.904 130.74L490.531 130.689L504.169 127.251L505.761 126.861V126.15L505.795 124.337L513.605 123.592L515.367 122.491L518.722 117.901L517.79 117.105L515.943 117.071L514.791 116.088L515.503 115.258L517.519 114.479L523.94 115.699L525.38 115.919L536.104 110.888L537.019 110.008L537.51 107.45L538.222 105.468L534.071 105.333L531.547 104.858L529.31 102.199L528.463 101.284L513.656 102.606H511.318L505.27 104.723L502.746 105.383H498.646L497.595 104.198L506.541 101.81L508.218 101.2L509.675 98.8623L509.98 97.4904L516.824 96.7789L518.671 95.678L552.199 81.433L554.13 80.7725L554.316 83.11L553.91 85.3119L578.357 79.5021L580.373 79.2819L588.945 77.9946L591.317 77.8591L595.112 82.1783L596.569 83.4148L598.636 83.0252L601.279 82.805L605.209 85.278L604.328 86.5144L583.287 95.0682L582.05 96.6435L581.66 104.892L585.1 105.993L594.096 106.569L595.468 106.62L613.02 101.454L615.273 100.963L618.356 98.2864L620.864 96.4233L634.061 89.9529L636.569 88.276L654.781 84.6174L657.305 83.4656L686.411 75.2676L689.545 75.1321L720.989 70.6774L723.192 69.8305L734.221 65.3927L735.542 63.665L726.106 63.0891L721.515 62.5641L726.987 60.938L729.104 60.5315L740.659 59.2949L746.046 57.6689L751.908 54.9419L754.958 51.1478L763.547 48.8103L765.716 48.0989L780.658 48.9797L782.742 48.8103L789.129 44.4403L788.96 43.2885H780.269L778.591 43.0344L773.882 45.2364L770.256 44.9654L762.852 44.3556L759.888 43.9999L729.596 45.1009L727.698 45.1856L699.287 48.9797L697.44 49.2507L658.627 55.8226L656.458 56.822L626.421 60.1757L624.184 61.1582L614.29 61.8188H612.664L611.613 63.7158L610.461 64.1563L609.089 64.2409L608.174 64.4103L606.497 62.5132L605.294 62.835L574.782 69.966L572.885 69.6103L511.623 86.4637L509.319 88.1744L514.181 88.9366L515.638 90.5626L507.693 93.7809L504.609 94.306L505.05 91.6298L505.626 89.7666L477.706 99.3028L475.978 100.844L482.958 100.438L485.33 101.454L484.364 104.672L483.297 106.349L463.627 110.634L460.713 111.464L460.493 112.396L458.816 114.513L464.695 114.767L462.39 116.986L453.937 120.95L450.447 122.576L452.344 119.933L451.192 118.917L437.435 124.693L434.657 126.421L430.506 126.725L428.253 126.59L400.553 139.378L396.318 141.58L409.109 140.53L410.701 141.411L411.582 143.782L409.82 145.103L402.501 144.934L400.214 145.899L393.15 148.999L391.303 149.694L388.914 148.813L388.643 146.17L385.746 149.524L389.88 143.528L380.884 147.847L378.427 149.168L374.717 149.964L372.498 150.625L361.943 156.706L358.927 157.891L355.929 157.722L353.015 158.078L335.463 163.904L332.905 165.751L304.324 184.095L302.562 186.466L303.968 188.058L303.003 189.735L283.147 199.881L280.148 199.525L246.451 219.987L237.624 227.134L219.819 235.332L217.43 236.738L194.406 249.171L192.034 250.848L171.382 262.755L167.858 265.855L124.098 299.189" stroke="#F8F8F8" stroke-width="0.5" stroke-miterlimit="10"/>
<path d="M748.571 71.5413L724.039 75.996L722.515 76.1823L715.365 79.5022L717.025 81.5516L732.036 81.7379L734.56 80.62L758.042 76.1823L760.159 75.1998L760.295 73.4722L758.973 71.8969L748.385 71.5582" stroke="#F8F8F8" stroke-width="0.5" stroke-miterlimit="10"/>
<path d="M364.332 188.634L388.61 181.554L391.388 181.3L383.375 189.955L381.257 191.869L387.153 191.751L389.067 191.276L401.977 206.758L407.533 205.166L434.522 190.887L446.635 187.177L468.659 177.861L470.506 176.523L471.37 174.355L471.048 172.763L457.274 178.319L454.632 180.03L451.718 181.029L449.278 180.572L456.817 174.948L458.545 173.288L462.238 170.121L461.849 168.918L451.463 172.424L449.6 173.491L449.803 171.577L449.142 171.035L475.334 162.109L477.062 160.991L495.715 154.707L497.443 152.844L502.068 152.251L501.137 154.368L484.398 163.633L481.959 164.684L481.366 167.597L481.959 169.257L517.35 157.553L520.196 156.689L522.382 154.572L520.958 152.912L510.963 153.606L508.066 154.114L509.845 151.065L509.421 149.71L519.01 142.969L519.705 142.105L519.298 139.547L517.824 139.615L510.929 140.378L506.151 139.683L504.813 131.604L504.915 129.944L502.085 130.909L499.968 130.994L483.839 140.259L481.095 141.936L479.688 141.58L477.13 142.207L478.723 136.99L478.536 135.33L470.252 135.499L467.168 136.905L447.923 143.528L444.839 146.001L433.116 153.233L431.692 154.809L429.846 160.551" stroke="#F8F8F8" stroke-width="0.5" stroke-miterlimit="10"/>
<path d="M327.738 347.446L330.72 341.229L331.77 338.824L341.851 332.184L343.155 331.05L347.052 332.303L348.78 332.574L383.256 315.365L383.985 313.824L384.104 310.334L383.053 308.979L393.608 296.733L394.37 294.954L383.223 296.581L381.291 297.292L379.021 295.327L377.208 294.463L377.666 290.923L377.818 289.924L384.154 286.214L387.543 285.164L387.644 287.891L388.153 288.992L404.163 279.456L405.941 278.897L406.433 280.083L407.331 281.692L403.451 286.13L402.146 286.655V288.925L402.35 290.297L404.179 289.941L405.636 289.907L405.196 292.634L404.976 293.989L413.447 291.245L415.022 291.076L414.141 295.835L412.82 297.512L405.941 300.51L403.146 300.832L403.891 297.275L402.418 295.564L392.269 304.999L390.067 307.658L396.234 305.354L398.267 305.1V307.997L397.471 309.589L391.473 310.385L389.711 311.622L390.592 314.264L390.067 316.551L411.854 318.414L414.582 319.108L428.796 311.435L431.693 310.47L438.927 311.537" stroke="#F8F8F8" stroke-width="0.5" stroke-miterlimit="10"/>
<path d="M231.611 335.538L212.161 353.408L209.247 356.253L197.608 378.002L194.627 379.865L192.306 390.638L192.644 393.212L200.455 393.551L202.572 392.755L208.129 388.588L210.637 387.131L229.357 365.501L230.628 363.198L243.182 355.39L245.503 352.798L250.924 352.408L250.992 354.001L244.978 364.773L241.674 368.415L236.371 374.834L234.067 376.088L233.406 380.187L234.186 382.067L242.335 375.546L243.317 373.107L253.906 367.416L254.634 365.434L259.141 365.247L260.056 366.958L255.888 382.761L255.041 385.675L259.073 388.131L260.716 387.131L275.219 377.68L277.065 376.748L290.89 370.668L293.465 368.093L300.818 358.167L301.749 356.253L311.271 351.883L312.728 348.902L319.809 342.889L319.996 340.958L326.095 336.791L328.212 337.52L324.367 347.378" stroke="#F8F8F8" stroke-width="0.5" stroke-miterlimit="10"/>
<path d="M403.891 209.265L366.518 234.147L363.265 235.722L360.419 240.227L359.504 243.005L354.726 243.141L353.151 244.852L351.626 251.271L350.559 252.863L340.648 262.179L337.988 263.179L333.82 265.228L331.719 266.752L316.37 278.457L313.914 280.049L304.528 290.364L302.207 293.667L303.19 300.679L301.546 304.711L296.786 313.383L294.261 315.161L291.754 314.975L289.297 315.229L291.686 306.506L293.939 302.272H288.111L285.333 303.525L268.933 310.995L266.206 312.333L259.006 320.531L257.752 322.377L246.757 329.728L245.046 331.117L237.574 330.457" stroke="#F8F8F8" stroke-width="0.5" stroke-miterlimit="10"/>
<path d="M284.842 330.389L295.057 326.51L296.819 325.985L296.277 328.424L296.972 329.948L324.824 314.874L325.756 313.451L325.519 311.334L325.197 309.911L331.414 306.896L333.193 305.354L334.464 302.577L333.769 300.51L331.042 302.898L328.958 302.543L329.195 296.293L328.738 294.396L322.554 298.969L320.894 300.646L318.844 305.642L317.692 308.979L322.384 305.947L323.943 306.201L321.758 309.877L321.707 310.91L316.929 313.383L314.032 314.62L302.292 316.466L300.259 317.533L278.827 328.814L276.184 330.236L261.801 342.313" stroke="#F8F8F8" stroke-width="0.5" stroke-miterlimit="10"/>
<path d="M284.621 330.423L265.545 342.11" stroke="#F8F8F8" stroke-width="0.5" stroke-miterlimit="10"/>
<path d="M265.85 342.008L261.428 342.449L265.85 342.008Z" stroke="#F8F8F8" stroke-width="0.5" stroke-miterlimit="10"/>
<path d="M353.151 300.815L329.72 311.994L329.924 313.451L326.823 317.414L324.57 318.346L315.1 323.631L314.371 326.68L337.598 315.043L338.852 314.179L354.676 304.524L355.59 303.203L356.522 299.223" stroke="#F8F8F8" stroke-width="0.5" stroke-miterlimit="10"/>
<path d="M353.032 300.866L356.082 299.714" stroke="#F8F8F8" stroke-width="0.5" stroke-miterlimit="10"/>
<path d="M372.634 293.498L360.961 298.749L359.572 298.765L359.402 304.44L360.69 303.966L371.871 299.291L373.125 298.24L374.345 293.142" stroke="#F8F8F8" stroke-width="0.5" stroke-miterlimit="10"/>
<path d="M372.277 293.549L373.617 293.684" stroke="#F8F8F8" stroke-width="0.5" stroke-miterlimit="10"/>
<path d="M318.318 292.482L305.629 303.153L305.375 304.694L304.324 309.725V311.384L312.643 305.067L313.185 304.033L319.301 296.767L320.809 295.785L320.063 290.263" stroke="#F8F8F8" stroke-width="0.5" stroke-miterlimit="10"/>
<path d="M318.25 292.549L319.893 290.822" stroke="#F8F8F8" stroke-width="0.5" stroke-miterlimit="10"/>
<path d="M999.868 136.77L1005.29 139.48" stroke="#F8F8F8" stroke-width="0.5" stroke-miterlimit="10"/>
<path d="M1005.14 139.429L1019.3 144.781L1023.26 145.307L1033.06 146.035H1036.7L1039.61 145.645L1041.21 144.443L1040.93 142.732L1037.83 141.546L1020.89 136.719L1017.61 135.178L1012.07 132.62L1013.81 131.028L1018.77 127.657L1013.74 126.2L997.073 126.454L999.123 128.114L1006 130.435L1003.56 131.553L998.326 131.824L995.294 131.028L990.397 130.486L988.805 128.047L982.181 122.626L978.674 122.762L968.949 124.812L966.713 126.658L959.563 132.874L962.935 135.059L975.709 137.041L979.284 136.77L988.737 135.33H991.448L1000.05 136.838" stroke="#F8F8F8" stroke-width="0.5" stroke-miterlimit="10"/>
<path d="M914.177 160.195L916.82 154.961L917.413 153.115L950.89 159.399L957.04 161.177L997.412 166.936L1001.51 167.275L1010.3 155.368L1011.83 152.979L1001.51 152.454L998.598 153.183L998.394 156.824L996.615 157.214L991.973 156.892L989.466 156.757L993.176 153.115L992.109 151.946L982.588 149.998L980.927 149.151L974.32 149.287L972.135 148.948L964.663 147.627L961.411 148.152L957.582 141.614L954.515 138.768L951.838 136.109L952.55 133.992L945.739 132.942L944.808 134.788L940.572 134.602L938.065 133.738L933.558 135.381L933.49 136.77L937.929 140.022L936.54 141.8L933.558 143.257L931.576 144.392L924.698 142.003L922.512 140.682L927.798 138.43L929.187 137.108L925.494 136.177L922.445 136.38H915.227L912.855 135.584L914.313 130.299" stroke="#F8F8F8" stroke-width="0.5" stroke-miterlimit="10"/>
<path d="M830.823 120.425L853.932 120.899L857.219 121.17L872.483 126.844L875.533 127.657L887.985 130.367L890.221 131.875L890.763 137.38L890.628 139.548L898.895 134.534L898.624 132.739L904.452 133.873L906.163 133.67L905.909 131.875L904.977 130.096L900.488 129.097L897.049 128.318L874.025 121.034L872.89 118.528L875.533 117.206L878.446 117.46L885.393 119.51L887.646 119.849L892.339 122.813L894.27 124.473L906.231 124.879L908.027 124.608L910.534 127.183" stroke="#F8F8F8" stroke-width="0.5" stroke-miterlimit="10"/>
<path d="M943.113 92.1548L954.261 92.0701L957.225 92.104L957.479 89.2923L956.26 88.8011L943.418 87.3952L937.505 86.6838L930.322 86.5483L926.883 86.633L924.714 80.2812L923.393 78.8415L930.847 78.2656L932.084 76.5887L931.118 74.1157L927.798 73.506L917.921 77.1985L915.007 77.9099L904.52 79.5021L903.656 81.6871L903.249 83.4825L905.401 84.5157L910.077 85.2272" stroke="#F8F8F8" stroke-width="0.5" stroke-miterlimit="10"/>
<path d="M869.789 85.1255L881.157 85.3796L884.274 86.379L898.489 87.9542L901.995 89.4109L899.217 91.274L897.641 92.1379L886.528 92.3242H881.699L872.686 94.0519L870.179 95.4408L869.586 97.5581L869.722 99.0826L888.696 98.676L890.085 98.4727L892.152 97.6936L893.796 97.4226L915.43 97.2871L917.684 96.3555L920.665 93.1203L921.258 91.4604L925.748 91.9346L927.866 92.3242L934.354 92.5953" stroke="#F8F8F8" stroke-width="0.5" stroke-miterlimit="10"/>
<path d="M869.519 84.8546L875.279 82.805L878.515 82.2799H888.442L891.949 82.0767L899.827 84.0585L901.216 85.0578L909.145 85.1764" stroke="#F8F8F8" stroke-width="0.5" stroke-miterlimit="10"/>
<path d="M972.389 70.762L951.618 71.5581L953.414 73.2857V75.2676L956.718 75.132L970.813 75.5894L975.777 77.5033L983.638 79.5021L984.367 81.2128L988.873 84.99L993.176 84.719L998.259 83.7874L1001.24 84.7868L1005.34 85.9046L1010.83 85.7183H1014.34L1014.61 87.6324L1015.2 91.7991L1019.1 92.5952L1028.77 93.3235L1036.7 92.5952L1045.83 93.1203L1045.44 91.5958L1045.03 90.478L1043.32 90.1392L1033.92 89.9529L1030.82 89.4786L1022.67 88.5639L1024.26 86.8362L1031.01 84.5835" stroke="#F8F8F8" stroke-width="0.5" stroke-miterlimit="10"/>
<path d="M1127.02 102.182L1130.78 105.163L1141.64 112.768L1148.9 113.294L1152.21 113.954H1154.39L1155.66 112.311L1155.19 110.787L1152.75 108.991L1144.6 105.553L1142.37 105.688L1140.64 107.467L1138.59 108.737L1134.49 107.873L1132.37 109.533L1121.26 106.806L1114.83 105.892L1103.52 103.91L1099.1 103.571L1072.5 98.6083L1072.36 96.5587L1080.38 97.3549L1084.93 97.8122L1100.55 100.861L1102.67 101.064V99.4721L1102.06 98.1509L1098.37 97.8122L1096.05 97.1516L1071.36 89.2246" stroke="#F8F8F8" stroke-width="0.5" stroke-miterlimit="10"/>
<path d="M1107.23 174.22L1083.61 164.616L1082.15 163.108L1084 161.313L1084.73 159.535L1083.81 153.776L1081.88 152.319L1078.78 151.794L1077.19 151.862L1071.36 147.17L1069.58 145.307L1066.53 144.51L1063.57 143.46L1068.65 141.733L1071.04 141.665H1083.88L1085.14 141.733L1092.08 143.122" stroke="#F8F8F8" stroke-width="0.5" stroke-miterlimit="10"/>
<path d="M765.225 143.968L804.75 139.294L811.459 139.819L842.326 139.903L844.088 139.988L848.595 138.328L850.17 137.092L859.522 136.38L861.386 136.905V143.782L860.505 145.645L864.91 148.897L867.637 150.32L884.579 150.845L887.222 151.37L892.169 155.52L894.202 157.011L906.282 157.553" stroke="#F8F8F8" stroke-width="0.5" stroke-miterlimit="10"/>
<path d="M890.763 139.819L888.036 145.307L886.257 146.441L879.243 146.103L877.193 145.832L876.854 143.714L875.143 142.275L880.429 141.546L882.225 140.682L882.885 139.751L881.242 138.921L875.126 138.345L873.229 137.837L873.55 136.177L874.55 134.466L880.31 135.194L882.546 135.516L890.492 134.923" stroke="#F8F8F8" stroke-width="0.5" stroke-miterlimit="10"/>
<path d="M811.103 131.553L828.435 127.843L831.416 128.25V130.367L828.502 131.875L817.253 134.602L815.474 135.127L806.207 134.72" stroke="#F8F8F8" stroke-width="0.5" stroke-miterlimit="10"/>
<path d="M811.34 131.451L806.63 134.602" stroke="#F8F8F8" stroke-width="0.5" stroke-miterlimit="10"/>
<path d="M946.993 146.916L952.77 147.847L954.481 148.067L958.056 150.71L957.802 151.997H945.316H944.248L933.185 149.389L931.678 148.067L944.791 147.136" stroke="#F8F8F8" stroke-width="0.5" stroke-miterlimit="10"/>
<path d="M944.688 147.136L947.179 146.933" stroke="#F8F8F8" stroke-width="0.5" stroke-miterlimit="10"/>
<path d="M1050.15 316.957L1064.75 319.023L1066.25 321.056L1063.65 326.612L1061.32 327.933L1049.13 323.783L1046.93 323.122L1047.24 316.957" stroke="#F8F8F8" stroke-miterlimit="10"/>
<path d="M1050.76 316.906L1046.27 318.21" stroke="#F8F8F8" stroke-miterlimit="10"/>
<path d="M765.31 142.139L791.84 137.244L794.687 135.72L796.669 133.806L798.261 131.824L811.561 126.522L814.61 125.336L818.185 125.065L818.642 123.676L823.996 120.763" stroke="#F8F8F8" stroke-width="0.5" stroke-miterlimit="10"/>
<path d="M121.743 301.272L124.217 299.087" stroke="#F8F8F8" stroke-width="0.5" stroke-miterlimit="10"/>
<g opacity="0.32">
<path d="M646 503L816 265" stroke="#F8F8F8" stroke-miterlimit="10"/>
<path d="M573.19 371.057L758.974 476.548" stroke="#F8F8F8" stroke-miterlimit="10"/>
<path d="M913.787 222.629L787.283 400.699" stroke="#F8F8F8" stroke-miterlimit="10"/>
<path d="M784.369 409.947L765.31 475.565" stroke="#F8F8F8" stroke-miterlimit="10"/>
<path d="M791.247 408.372L934.422 463.658" stroke="#F8F8F8" stroke-miterlimit="10"/>
<path d="M919.598 223.154L936.268 462.337" stroke="#F8F8F8" stroke-miterlimit="10"/>
<path d="M1074 404L735 503" stroke="#F8F8F8" stroke-miterlimit="10"/>
<path d="M765 479L801 502" stroke="#F8F8F8" stroke-miterlimit="10"/>
<path d="M761.972 482.882L757.906 498.415" stroke="#F8F8F8" stroke-miterlimit="10"/>
<path d="M777.762 407.305L618.188 500.701" stroke="#F8F8F8" stroke-miterlimit="10"/>
<path d="M575.579 367.619L782.522 404.662" stroke="#F8F8F8" stroke-miterlimit="10"/>
<path d="M783.318 398.836L573.715 162.312" stroke="#F8F8F8" stroke-miterlimit="10"/>
<path d="M600.975 284.012L629.03 503.344" stroke="#F8F8F8" stroke-miterlimit="10"/>
<path d="M563.144 371.599L281.301 515.251" stroke="#F8F8F8" stroke-miterlimit="10"/>
<path d="M599.653 497.009L505.711 402.545" stroke="#F8F8F8" stroke-miterlimit="10"/>
<path d="M268.323 169.714L500.679 396.718" stroke="#F8F8F8" stroke-miterlimit="10"/>
<path d="M570.022 165.48L568.955 361.267" stroke="#F8F8F8" stroke-miterlimit="10"/>
<path d="M163 506L301 138" stroke="#F8F8F8" stroke-miterlimit="10"/>
<path d="M387 219L302 143" stroke="#F8F8F8" stroke-miterlimit="10"/>
<path d="M397.114 221.308L564.363 162.041" stroke="#F8F8F8" stroke-miterlimit="10"/>
<path d="M452.158 88.6656L565.787 158.874" stroke="#F8F8F8" stroke-miterlimit="10"/>
<path d="M443.704 91.4943L392.185 219.902" stroke="#F8F8F8" stroke-miterlimit="10"/>
<path d="M172.704 264.347L441.587 89.7327" stroke="#F8F8F8" stroke-miterlimit="10"/>
<path d="M264.105 169.104L175.533 265.414" stroke="#F8F8F8" stroke-miterlimit="10"/>
<path d="M265.681 262.586L194.763 499.651" stroke="#F8F8F8" stroke-miterlimit="10"/>
<path d="M398.537 514.997L264.104 258.351" stroke="#F8F8F8" stroke-miterlimit="10"/>
<path d="M442.468 509.695L745.2 60.9719" stroke="#F8F8F8" stroke-miterlimit="10"/>
<path d="M817.982 262.857L747.063 60.4468" stroke="#F8F8F8" stroke-miterlimit="10"/>
<path d="M869.586 48.5393L919.869 215.481" stroke="#F8F8F8" stroke-miterlimit="10"/>
<path d="M862.962 46.9471L575.037 158.349" stroke="#F8F8F8" stroke-miterlimit="10"/>
<path d="M736.204 184.535L865.351 49.3354" stroke="#F8F8F8" stroke-miterlimit="10"/>
<path d="M575.308 162.041L911.669 214.956" stroke="#F8F8F8" stroke-miterlimit="10"/>
<path d="M1000.58 500.176L1073.62 406.509" stroke="#F8F8F8" stroke-miterlimit="10"/>
<path d="M1007.73 489.861L938.387 462.878" stroke="#F8F8F8" stroke-miterlimit="10"/>
<path d="M939.708 501.227L937.336 465.775" stroke="#F8F8F8" stroke-miterlimit="10"/>
<path d="M1124.42 495.671L1078.65 406.255" stroke="#F8F8F8" stroke-miterlimit="10"/>
<path d="M1051 502L1199 383" stroke="#F8F8F8" stroke-miterlimit="10"/>
<path d="M1119.66 336.927L1075.48 403.341" stroke="#F8F8F8" stroke-miterlimit="10"/>
<path d="M1068.85 305.185L1123.37 334.285" stroke="#F8F8F8" stroke-miterlimit="10"/>
<path d="M1069.13 300.679L1232.14 240.617" stroke="#F8F8F8" stroke-miterlimit="10"/>
<path d="M1195.36 380.847L786.758 404.137" stroke="#F8F8F8" stroke-miterlimit="10"/>
<path d="M1077.33 404.137L1195.36 377.409" stroke="#F8F8F8" stroke-miterlimit="10"/>
<path d="M960.885 144.053L1075.48 403.341" stroke="#F8F8F8" stroke-miterlimit="10"/>
<path d="M819.303 265.753L1074.41 404.662" stroke="#F8F8F8" stroke-miterlimit="10"/>
<path d="M600.975 284.013L814.796 264.703" stroke="#F8F8F8" stroke-miterlimit="10"/>
<path d="M1 504L600 283" stroke="#F8F8F8" stroke-miterlimit="10"/>
<path d="M345.611 501.057L268.323 169.714" stroke="#F8F8F8" stroke-miterlimit="10"/>
<path d="M600.009 281.98L265.867 167.682" stroke="#F8F8F8" stroke-miterlimit="10"/>
<path d="M442 87L268 167" stroke="#F8F8F8" stroke-miterlimit="10"/>
<path d="M72.7144 358.015L55.5693 496.823" stroke="#F8F8F8" stroke-miterlimit="10"/>
<path d="M86.6064 259.757L291.974 187.093" stroke="#F8F8F8" stroke-miterlimit="10"/>
<path d="M82.7261 266.82L79.2021 347.954" stroke="#F8F8F8" stroke-miterlimit="10"/>
<path d="M387.593 228.727L201.641 503.53" stroke="#F8F8F8" stroke-miterlimit="10"/>
<path d="M264.8 166.987L498.748 143.342" stroke="#F8F8F8" stroke-miterlimit="10"/>
<path d="M507.202 143.003L817.016 263.297" stroke="#F8F8F8" stroke-miterlimit="10"/>
<path d="M573.546 363.825L733.036 191.327" stroke="#F8F8F8" stroke-miterlimit="10"/>
<path d="M804.666 273.172L780.659 516.234" stroke="#F8F8F8" stroke-miterlimit="10"/>
<path d="M962.206 141.411L1286.91 85.312" stroke="#F8F8F8" stroke-miterlimit="10"/>
<path d="M957.175 144.324L817.186 262.315" stroke="#F8F8F8" stroke-miterlimit="10"/>
<path d="M923.309 220.512L1049.27 293.278" stroke="#F8F8F8" stroke-miterlimit="10"/>
<path d="M1056.25 307.235L930.187 350.698" stroke="#F8F8F8" stroke-miterlimit="10"/>
<path d="M787.554 403.341L923.833 353.594" stroke="#F8F8F8" stroke-miterlimit="10"/>
<path d="M912 405L793 501" stroke="#F8F8F8" stroke-miterlimit="10"/>
<path d="M917.227 408.897L923.834 497.534" stroke="#F8F8F8" stroke-miterlimit="10"/>
<path d="M976.234 411.81L996.073 505.207" stroke="#F8F8F8" stroke-miterlimit="10"/>
<path d="M965 409L854 502" stroke="#F8F8F8" stroke-miterlimit="10"/>
<path d="M980.47 407.305L1153.8 476.361" stroke="#F8F8F8" stroke-miterlimit="10"/>
<path d="M1039.75 498.059L1130.78 347.513" stroke="#F8F8F8" stroke-miterlimit="10"/>
<path d="M1070.18 299.104L1355.46 329.254" stroke="#F8F8F8" stroke-miterlimit="10"/>
<path d="M1474.54 475.04L1077.05 405.729" stroke="#F8F8F8" stroke-miterlimit="10"/>
<path d="M872.415 47.0488L1232.31 235.773" stroke="#F8F8F8" stroke-miterlimit="10"/>
<path d="M960.225 143.122L1474.71 471.432" stroke="#F8F8F8" stroke-miterlimit="10"/>
<path d="M511.929 433.101L464.949 501.633" stroke="#F8F8F8" stroke-miterlimit="10"/>
<path d="M518.418 434.168L524.229 505.732" stroke="#F8F8F8" stroke-miterlimit="10"/>
<path d="M80.6084 484.475L231.627 281.641" stroke="#F8F8F8" stroke-miterlimit="10"/>
<path d="M564.634 164.074L405.331 323.343" stroke="#F8F8F8" stroke-miterlimit="10"/>
<path d="M228.104 498.94L396.776 332.083" stroke="#F8F8F8" stroke-miterlimit="10"/>
<path d="M748.029 61.1582L956.921 140.53" stroke="#F8F8F8" stroke-miterlimit="10"/>
<path d="M504.915 141.224L743.624 60.2773" stroke="#F8F8F8" stroke-miterlimit="10"/>
<path d="M501.391 144.934L598.416 280.93" stroke="#F8F8F8" stroke-miterlimit="10"/>
<path d="M599.399 279.778L526.889 164.955" stroke="#F8F8F8" stroke-miterlimit="10"/>
</g>
<path d="M1017.26 175.635C1017.57 173.895 1014.52 171.889 1010.44 171.154C1006.36 170.419 1002.8 171.233 1002.49 172.973C1002.17 174.713 1005.22 176.719 1009.3 177.454C1013.38 178.19 1016.94 177.375 1017.26 175.635Z" fill="#F8F8F8"/>
<path d="M1076.81 244.09C1077.2 241.963 1074.64 239.723 1071.11 239.085C1067.57 238.448 1064.39 239.656 1064.01 241.782C1063.63 243.909 1066.18 246.149 1069.72 246.787C1073.25 247.424 1076.43 246.216 1076.81 244.09Z" fill="#F8F8F8"/>
<path d="M934.101 262.84C938.133 262.84 941.403 261.088 941.403 258.927C941.403 256.766 938.133 255.015 934.101 255.015C930.068 255.015 926.799 256.766 926.799 258.927C926.799 261.088 930.068 262.84 934.101 262.84Z" fill="#F8F8F8"/>
<path d="M1037.44 287.566C1037.85 285.329 1034.95 282.934 1030.97 282.217C1026.99 281.5 1023.44 282.733 1023.04 284.97C1022.63 287.207 1025.53 289.601 1029.51 290.318C1033.49 291.035 1037.04 289.803 1037.44 287.566Z" fill="#F8F8F8"/>
<path d="M923.919 335.166C928.111 335.166 931.509 333.156 931.509 330.677C931.509 328.198 928.111 326.188 923.919 326.188C919.727 326.188 916.329 328.198 916.329 330.677C916.329 333.156 919.727 335.166 923.919 335.166Z" fill="#F8F8F8"/>
<path d="M858.643 295.479C862.834 295.479 866.232 293.47 866.232 290.991C866.232 288.512 862.834 286.502 858.643 286.502C854.451 286.502 851.053 288.512 851.053 290.991C851.053 293.47 854.451 295.479 858.643 295.479Z" fill="#F8F8F8"/>
<path d="M836.788 198.373C840.83 198.373 844.106 196.394 844.106 193.953C844.106 191.511 840.83 189.532 836.788 189.532C832.746 189.532 829.469 191.511 829.469 193.953C829.469 196.394 832.746 198.373 836.788 198.373Z" fill="#F8F8F8"/>
<path d="M795.873 179.572C799.475 179.572 802.396 177.964 802.396 175.981C802.396 173.998 799.475 172.39 795.873 172.39C792.271 172.39 789.351 173.998 789.351 175.981C789.351 177.964 792.271 179.572 795.873 179.572Z" fill="#F8F8F8"/>
<path d="M763.094 148.506C766.563 147.872 769.056 145.605 768.661 143.442C768.265 141.28 765.132 140.041 761.662 140.675C758.192 141.309 755.699 143.576 756.095 145.739C756.49 147.901 759.624 149.14 763.094 148.506Z" fill="#F8F8F8"/>
<path d="M718.533 242.23C722.077 241.583 724.66 239.476 724.304 237.525C723.947 235.575 720.785 234.518 717.241 235.166C713.698 235.813 711.114 237.92 711.471 239.87C711.828 241.821 714.989 242.878 718.533 242.23Z" fill="#F8F8F8"/>
<path d="M684.532 203.816C688.665 203.061 691.726 200.867 691.369 198.916C691.013 196.965 687.373 195.996 683.241 196.751C679.108 197.506 676.047 199.7 676.404 201.651C676.76 203.602 680.4 204.571 684.532 203.816Z" fill="#F8F8F8"/>
<path d="M838.888 238.11C843.051 238.11 846.427 236.313 846.427 234.096C846.427 231.879 843.051 230.082 838.888 230.082C834.724 230.082 831.349 231.879 831.349 234.096C831.349 236.313 834.724 238.11 838.888 238.11Z" fill="#F8F8F8"/>
<path d="M833.468 119.698C833.533 117.856 830.803 116.266 827.371 116.145C823.94 116.025 821.105 117.421 821.041 119.263C820.976 121.105 823.706 122.695 827.138 122.815C830.57 122.935 833.404 121.54 833.468 119.698Z" fill="#F8F8F8"/>
<path d="M939.686 114.069C939.825 112.306 937.186 110.659 933.791 110.391C930.395 110.122 927.53 111.333 927.39 113.096C927.251 114.858 929.89 116.505 933.285 116.774C936.681 117.042 939.546 115.831 939.686 114.069Z" fill="#F8F8F8"/>
<path d="M944.443 92.3888C944.603 90.3651 941.98 88.5069 938.585 88.2382C935.19 87.9695 932.308 89.3922 932.147 91.4159C931.987 93.4396 934.61 95.2979 938.005 95.5665C941.4 95.8352 944.283 94.4125 944.443 92.3888Z" fill="#F8F8F8"/>
<path d="M968.899 195.325C972.979 195.325 976.286 193.626 976.286 191.53C976.286 189.435 972.979 187.736 968.899 187.736C964.82 187.736 961.513 189.435 961.513 191.53C961.513 193.626 964.82 195.325 968.899 195.325Z" fill="#F8F8F8"/>
<path d="M875.499 372.92C879.673 372.92 883.056 370.698 883.056 367.958C883.056 365.217 879.673 362.995 875.499 362.995C871.326 362.995 867.943 365.217 867.943 367.958C867.943 370.698 871.326 372.92 875.499 372.92Z" fill="#F8F8F8"/>
<path d="M964.155 377.883C968.048 377.883 971.203 375.661 971.203 372.92C971.203 370.18 968.048 367.958 964.155 367.958C960.263 367.958 957.107 370.18 957.107 372.92C957.107 375.661 960.263 377.883 964.155 377.883Z" fill="#F8F8F8"/>
<path d="M1053.54 370.531C1054.37 368.016 1051.84 364.928 1047.91 363.634C1043.97 362.34 1040.11 363.329 1039.28 365.844C1038.45 368.359 1040.97 371.447 1044.91 372.741C1048.85 374.036 1052.71 373.046 1053.54 370.531Z" fill="#F8F8F8"/>
<path d="M1081.62 352.285C1082.06 349.855 1078.91 347.253 1074.59 346.475C1070.27 345.697 1066.42 347.036 1065.98 349.466C1065.54 351.897 1068.69 354.498 1073.01 355.276C1077.32 356.055 1081.18 354.715 1081.62 352.285Z" fill="#F8F8F8"/>
<path d="M1062.96 337.09C1063.73 334.744 1061.39 331.866 1057.72 330.663C1054.06 329.459 1050.47 330.385 1049.7 332.731C1048.93 335.078 1051.27 337.955 1054.93 339.159C1058.59 340.363 1062.19 339.436 1062.96 337.09Z" fill="#F8F8F8"/>
<path d="M1023.18 126.54C1023.47 124.947 1020.71 123.117 1017.02 122.451C1013.32 121.786 1010.1 122.538 1009.81 124.13C1009.52 125.723 1012.28 127.553 1015.98 128.219C1019.67 128.884 1022.89 128.133 1023.18 126.54Z" fill="#F8F8F8"/>
<path d="M1057.51 107.155C1057.88 105.302 1055.15 103.197 1051.41 102.454C1047.68 101.711 1044.35 102.612 1043.98 104.465C1043.61 106.318 1046.34 108.423 1050.08 109.166C1053.81 109.909 1057.14 109.008 1057.51 107.155Z" fill="#F8F8F8"/>
<path d="M1041.28 86.226C1041.59 84.5044 1038.8 82.5614 1035.06 81.886C1031.31 81.2105 1028.02 82.0585 1027.71 83.78C1027.4 85.5016 1030.19 87.4446 1033.93 88.1201C1037.68 88.7955 1040.97 87.9475 1041.28 86.226Z" fill="#F8F8F8"/>
<path d="M809.176 108.58C812.942 108.256 815.855 106.368 815.682 104.365C815.51 102.361 812.317 100.999 808.551 101.324C804.785 101.648 801.871 103.535 802.044 105.539C802.217 107.543 805.41 108.904 809.176 108.58Z" fill="#F8F8F8"/>
<path d="M673.925 69.5142C678.651 69.1072 682.376 67.5384 682.244 66.0099C682.113 64.4814 678.175 63.5722 673.448 63.9791C668.722 64.3861 664.997 65.955 665.129 67.4835C665.261 69.012 669.199 69.9211 673.925 69.5142Z" fill="#F8F8F8"/>
<path d="M587.344 107.903C590.857 106.457 593.13 103.89 592.421 102.169C591.712 100.447 588.29 100.224 584.777 101.669C581.265 103.115 578.991 105.682 579.7 107.403C580.409 109.125 583.831 109.348 587.344 107.903Z" fill="#F8F8F8"/>
<path d="M429.277 164.209C432.551 162.319 434.59 159.723 433.832 158.411C433.074 157.098 429.806 157.566 426.533 159.456C423.259 161.346 421.22 163.941 421.978 165.254C422.736 166.566 426.004 166.098 429.277 164.209Z" fill="#F8F8F8"/>
<path d="M405.32 210.124C408.594 208.235 410.549 205.495 409.689 204.004C408.828 202.513 405.476 202.837 402.203 204.727C398.929 206.616 396.973 209.356 397.834 210.847C398.695 212.338 402.046 212.014 405.32 210.124Z" fill="#F8F8F8"/>
<path d="M362.613 192.935C366.058 190.309 368.124 187.227 367.227 186.052C366.331 184.876 362.811 186.053 359.367 188.679C355.922 191.306 353.856 194.388 354.752 195.563C355.649 196.738 359.168 195.562 362.613 192.935Z" fill="#F8F8F8"/>
<path d="M341.245 179.553C344.504 177.069 346.277 173.915 345.204 172.509C344.132 171.103 340.621 171.977 337.362 174.462C334.103 176.947 332.33 180.1 333.403 181.506C334.475 182.912 337.986 182.038 341.245 179.553Z" fill="#F8F8F8"/>
<path d="M313.709 256.035C317.461 253.87 319.823 250.939 318.986 249.488C318.149 248.038 314.428 248.618 310.677 250.784C306.925 252.95 304.563 255.881 305.4 257.331C306.238 258.781 309.958 258.201 313.709 256.035Z" fill="#F8F8F8"/>
<path d="M326.705 352.758C330.274 350.302 332.31 347.068 331.255 345.535C330.199 344.001 326.45 344.749 322.882 347.205C319.314 349.661 317.277 352.894 318.332 354.428C319.388 355.961 323.137 355.213 326.705 352.758Z" fill="#F8F8F8"/>
<path d="M359.258 377.295C362.827 374.84 364.709 371.381 363.462 369.57C362.215 367.759 358.312 368.282 354.743 370.738C351.175 373.194 349.293 376.653 350.54 378.463C351.786 380.274 355.69 379.751 359.258 377.295Z" fill="#F8F8F8"/>
<path d="M386.461 406.285C390.283 403.655 392.329 399.992 391.029 398.104C389.729 396.216 385.576 396.818 381.754 399.449C377.931 402.08 375.886 405.743 377.186 407.631C378.485 409.519 382.638 408.916 386.461 406.285Z" fill="#F8F8F8"/>
<path d="M449.953 397.699C454.442 395.108 457.137 391.372 455.972 389.355C454.807 387.337 450.223 387.803 445.735 390.394C441.246 392.985 438.551 396.721 439.716 398.738C440.881 400.756 445.464 400.29 449.953 397.699Z" fill="#F8F8F8"/>
<path d="M443.856 313.53C448.053 311.107 450.617 307.691 449.583 305.901C448.55 304.11 444.309 304.623 440.112 307.046C435.914 309.469 433.35 312.884 434.384 314.675C435.418 316.465 439.658 315.952 443.856 313.53Z" fill="#F8F8F8"/>
<path d="M504.376 389.584C508.752 387.058 511.465 383.565 510.435 381.783C509.406 380.001 505.025 380.604 500.649 383.129C496.274 385.655 493.561 389.148 494.59 390.93C495.619 392.712 500.001 392.109 504.376 389.584Z" fill="#F8F8F8"/>
<path d="M369.984 483.257C373.633 480.039 375.361 476.037 373.845 474.318C372.328 472.599 368.141 473.815 364.492 477.033C360.844 480.251 359.115 484.254 360.632 485.972C362.149 487.691 366.336 486.475 369.984 483.257Z" fill="#F8F8F8"/>
<path d="M404.971 494.969C408.62 491.751 410.097 487.464 408.271 485.395C406.445 483.326 402.007 484.257 398.358 487.475C394.71 490.694 393.232 494.98 395.058 497.049C396.885 499.119 401.323 498.188 404.971 494.969Z" fill="#F8F8F8"/>
<path d="M318.619 483.188C322.268 479.97 324.026 476.002 322.547 474.325C321.067 472.648 316.91 473.898 313.262 477.116C309.613 480.335 307.855 484.303 309.334 485.979C310.814 487.656 314.971 486.406 318.619 483.188Z" fill="#F8F8F8"/>
<path d="M268.365 464.47C271.211 460.653 272.07 456.479 270.285 455.149C268.499 453.819 264.745 455.835 261.9 459.653C259.054 463.471 258.195 467.644 259.98 468.974C261.766 470.305 265.52 468.288 268.365 464.47Z" fill="#F8F8F8"/>
<path d="M150.76 436.985C154.062 433.684 155.703 429.974 154.426 428.697C153.149 427.42 149.437 429.061 146.136 432.362C142.835 435.663 141.193 439.373 142.47 440.65C143.747 441.927 147.459 440.286 150.76 436.985Z" fill="#F8F8F8"/>
<path d="M111.81 318.403C114.232 315.429 115.06 312.093 113.66 310.953C112.259 309.814 109.161 311.301 106.738 314.275C104.316 317.249 103.488 320.585 104.888 321.725C106.289 322.865 109.387 321.377 111.81 318.403Z" fill="#F8F8F8"/>
<path d="M196.266 335.409C199.268 332.145 200.875 328.739 199.856 327.802C198.836 326.865 195.576 328.751 192.574 332.015C189.572 335.279 187.965 338.685 188.984 339.622C190.004 340.559 193.264 338.673 196.266 335.409Z" fill="#F8F8F8"/>
<path d="M265.839 246.666C268.773 244.065 270.25 240.941 269.138 239.688C268.027 238.435 264.748 239.528 261.815 242.129C258.882 244.729 257.405 247.853 258.516 249.106C259.627 250.359 262.906 249.266 265.839 246.666Z" fill="#F8F8F8"/>
<path d="M353.783 245.878C356.962 243.585 358.936 240.89 358.192 239.858C357.447 238.827 354.266 239.849 351.087 242.142C347.908 244.435 345.934 247.13 346.678 248.162C347.422 249.194 350.603 248.171 353.783 245.878Z" fill="#F8F8F8"/>
<path d="M541.265 314.454C545.478 312.671 548.128 309.416 547.183 307.185C546.238 304.954 542.057 304.591 537.843 306.374C533.63 308.158 530.98 311.413 531.925 313.644C532.87 315.875 537.051 316.238 541.265 314.454Z" fill="#F8F8F8"/>
<path d="M452.93 332.68C456.135 331.324 458.201 328.967 457.545 327.416C456.888 325.865 453.757 325.708 450.552 327.065C447.347 328.422 445.28 330.779 445.937 332.329C446.594 333.88 449.725 334.037 452.93 332.68Z" fill="#F8F8F8"/>
<path d="M760.931 53.8262C761.052 52.4376 757.659 51.0082 753.352 50.6335C749.046 50.2588 745.457 51.0807 745.336 52.4693C745.215 53.8578 748.608 55.2872 752.915 55.6619C757.221 56.0366 760.81 55.2147 760.931 53.8262Z" fill="#F8F8F8"/>
<path d="M438.672 195.01C441.946 193.121 443.754 190.124 442.71 188.318C441.667 186.511 438.168 186.579 434.894 188.468C431.621 190.358 429.813 193.354 430.856 195.161C431.899 196.967 435.399 196.9 438.672 195.01Z" fill="#F8F8F8"/>
<path d="M509.811 144.504C513.563 142.338 515.891 139.348 515.011 137.825C514.132 136.302 510.378 136.823 506.626 138.989C502.874 141.154 500.546 144.144 501.425 145.667C502.305 147.19 506.059 146.669 509.811 144.504Z" fill="#F8F8F8"/>
<path d="M396.316 154.089C399.727 152.12 401.836 149.387 401.027 147.986C400.218 146.584 396.796 147.044 393.385 149.013C389.973 150.983 387.864 153.715 388.674 155.117C389.483 156.518 392.904 156.058 396.316 154.089Z" fill="#F8F8F8"/>
<path d="M340.294 241.323C343.474 239.03 345.448 236.335 344.704 235.303C343.959 234.271 340.778 235.293 337.599 237.586C334.419 239.879 332.445 242.575 333.19 243.606C333.934 244.638 337.115 243.616 340.294 241.323Z" fill="#F8F8F8"/>
<path d="M368.077 224.28C371.586 222.531 373.969 220.19 373.401 219.051C372.833 217.913 369.529 218.408 366.021 220.157C362.512 221.906 360.128 224.248 360.696 225.386C361.264 226.525 364.569 226.029 368.077 224.28Z" fill="#F8F8F8"/>
<path d="M236.882 334.351C240.988 331.455 243.485 327.93 242.46 326.478C241.436 325.026 237.277 326.196 233.171 329.092C229.065 331.988 226.568 335.513 227.593 336.965C228.618 338.418 232.777 337.247 236.882 334.351Z" fill="#F8F8F8"/>
<path d="M921.315 129.689C921.684 127.835 919.327 125.805 916.051 125.153C912.774 124.502 909.82 125.476 909.451 127.329C909.082 129.183 911.439 131.213 914.715 131.865C917.992 132.516 920.946 131.542 921.315 129.689Z" fill="#F8F8F8"/>
<path d="M910.399 162.871C914.123 162.871 917.142 161.006 917.142 158.705C917.142 156.403 914.123 154.538 910.399 154.538C906.675 154.538 903.656 156.403 903.656 158.705C903.656 161.006 906.675 162.871 910.399 162.871Z" fill="#F8F8F8"/>
<path d="M162.484 326.958C165.503 323.683 166.483 319.677 164.674 318.01C162.865 316.342 158.951 317.645 155.932 320.919C152.913 324.193 151.933 328.199 153.742 329.867C155.552 331.534 159.466 330.232 162.484 326.958Z" fill="#F8F8F8"/>
<path d="M154.175 317.233C155.812 315.458 156.519 313.449 155.755 312.745C154.992 312.042 153.046 312.91 151.41 314.684C149.774 316.459 149.066 318.468 149.83 319.172C150.594 319.876 152.539 319.008 154.175 317.233Z" fill="#F8F8F8"/>
<path d="M76.3405 357.004C79.5625 353.783 80.7424 349.74 78.9759 347.974C77.2094 346.208 73.1654 347.387 69.9434 350.609C66.7214 353.83 65.5414 357.873 67.3079 359.639C69.0744 361.405 73.1184 360.226 76.3405 357.004Z" fill="#F8F8F8"/>
<path d="M570.547 169.46C575.712 169.46 579.899 165.274 579.899 160.11C579.899 154.947 575.712 150.76 570.547 150.76C565.382 150.76 561.195 154.947 561.195 160.11C561.195 165.274 565.382 169.46 570.547 169.46Z" fill="#F8F8F8"/>
<path d="M569.141 376.173C574.306 376.173 578.493 371.987 578.493 366.823C578.493 361.659 574.306 357.473 569.141 357.473C563.976 357.473 559.789 361.659 559.789 366.823C559.789 371.987 563.976 376.173 569.141 376.173Z" fill="#F8F8F8"/>
<path d="M503.407 406.593C506.813 406.593 509.574 403.833 509.574 400.428C509.574 397.023 506.813 394.262 503.407 394.262C500.001 394.262 497.24 397.023 497.24 400.428C497.24 403.833 500.001 406.593 503.407 406.593Z" fill="#F8F8F8"/>
<path d="M354.811 456.662C358.582 456.662 361.638 453.606 361.638 449.836C361.638 446.066 358.582 443.01 354.811 443.01C351.04 443.01 347.983 446.066 347.983 449.836C347.983 453.606 351.04 456.662 354.811 456.662Z" fill="#F8F8F8"/>
<path d="M514.488 437.082C520.326 437.082 525.059 432.35 525.059 426.513C525.059 420.675 520.326 415.943 514.488 415.943C508.649 415.943 503.916 420.675 503.916 426.513C503.916 432.35 508.649 437.082 514.488 437.082Z" fill="#F8F8F8"/>
<path d="M785.759 413.199C790.587 413.199 794.5 409.286 794.5 404.459C794.5 399.632 790.587 395.719 785.759 395.719C780.931 395.719 777.017 399.632 777.017 404.459C777.017 409.286 780.931 413.199 785.759 413.199Z" fill="#F8F8F8"/>
<path d="M762.853 484.475C766.446 484.475 769.359 481.563 769.359 477.971C769.359 474.378 766.446 471.466 762.853 471.466C759.26 471.466 756.348 474.378 756.348 477.971C756.348 481.563 759.26 484.475 762.853 484.475Z" fill="#F8F8F8"/>
<path d="M711.96 463.421C715.852 463.421 719.008 460.266 719.008 456.375C719.008 452.483 715.852 449.328 711.96 449.328C708.068 449.328 704.912 452.483 704.912 456.375C704.912 460.266 708.068 463.421 711.96 463.421Z" fill="#F8F8F8"/>
<path d="M916.888 410.709C920.359 410.709 923.173 407.896 923.173 404.425C923.173 400.955 920.359 398.141 916.888 398.141C913.417 398.141 910.603 400.955 910.603 404.425C910.603 407.896 913.417 410.709 916.888 410.709Z" fill="#F8F8F8"/>
<path d="M973.863 416.011C979.542 416.011 984.146 411.408 984.146 405.73C984.146 400.051 979.542 395.448 973.863 395.448C968.183 395.448 963.579 400.051 963.579 405.73C963.579 411.408 968.183 416.011 973.863 416.011Z" fill="#F8F8F8"/>
<path d="M937.963 472.381C941.631 472.381 944.604 469.408 944.604 465.741C944.604 462.074 941.631 459.101 937.963 459.101C934.296 459.101 931.322 462.074 931.322 465.741C931.322 469.408 934.296 472.381 937.963 472.381Z" fill="#F8F8F8"/>
<path d="M1075.67 410.845C1078.49 410.845 1080.78 408.555 1080.78 405.73C1080.78 402.904 1078.49 400.614 1075.67 400.614C1072.84 400.614 1070.55 402.904 1070.55 405.73C1070.55 408.555 1072.84 410.845 1075.67 410.845Z" fill="#F8F8F8"/>
<path d="M927.662 359.099C930.993 359.099 933.693 356.399 933.693 353.069C933.693 349.739 930.993 347.039 927.662 347.039C924.331 347.039 921.631 349.739 921.631 353.069C921.631 356.399 924.331 359.099 927.662 359.099Z" fill="#F8F8F8"/>
<path d="M816.355 268.125C818.891 268.125 820.946 266.069 820.946 263.534C820.946 260.999 818.891 258.944 816.355 258.944C813.819 258.944 811.764 260.999 811.764 263.534C811.764 266.069 813.819 268.125 816.355 268.125Z" fill="#F8F8F8"/>
<path d="M917.684 227.016C922.718 227.016 926.799 222.936 926.799 217.903C926.799 212.87 922.718 208.791 917.684 208.791C912.65 208.791 908.569 212.87 908.569 217.903C908.569 222.936 912.65 227.016 917.684 227.016Z" fill="#F8F8F8"/>
<path d="M600.01 287.265C602.583 287.265 604.669 285.179 604.669 282.607C604.669 280.034 602.583 277.949 600.01 277.949C597.436 277.949 595.351 280.034 595.351 282.607C595.351 285.179 597.436 287.265 600.01 287.265Z" fill="#F8F8F8"/>
<path d="M645.752 155.334C651.572 155.334 656.29 150.617 656.29 144.798C656.29 138.98 651.572 134.263 645.752 134.263C639.932 134.263 635.214 138.98 635.214 144.798C635.214 150.617 639.932 155.334 645.752 155.334Z" fill="#F8F8F8"/>
<path d="M868.146 53.4683C873.077 53.4683 877.074 49.4719 877.074 44.542C877.074 39.6121 873.077 35.6156 868.146 35.6156C863.215 35.6156 859.218 39.6121 859.218 44.542C859.218 49.4719 863.215 53.4683 868.146 53.4683Z" fill="#F8F8F8"/>
<path d="M446.788 95.1191C451.662 95.1191 455.614 91.1681 455.614 86.2943C455.614 81.4205 451.662 77.4696 446.788 77.4696C441.913 77.4696 437.961 81.4205 437.961 86.2943C437.961 91.1681 441.913 95.1191 446.788 95.1191Z" fill="#F8F8F8"/>
<path d="M297.827 146.649C302.701 146.649 306.653 142.698 306.653 137.825C306.653 132.951 302.701 129 297.827 129C292.952 129 289 132.951 289 137.825C289 142.698 292.952 146.649 297.827 146.649Z" fill="#F8F8F8"/>
<path d="M266.731 172.679C269.061 172.679 270.95 170.79 270.95 168.461C270.95 166.132 269.061 164.243 266.731 164.243C264.401 164.243 262.513 166.132 262.513 168.461C262.513 170.79 264.401 172.679 266.731 172.679Z" fill="#F8F8F8"/>
<path d="M83.3031 267.786C87.4481 267.786 90.8083 264.426 90.8083 260.282C90.8083 256.138 87.4481 252.779 83.3031 252.779C79.158 252.779 75.7979 256.138 75.7979 260.282C75.7979 264.426 79.158 267.786 83.3031 267.786Z" fill="#F8F8F8"/>
<path d="M264.63 268.65C269.608 268.65 273.643 264.615 273.643 259.639C273.643 254.662 269.608 250.628 264.63 250.628C259.652 250.628 255.617 254.662 255.617 259.639C255.617 264.615 259.652 268.65 264.63 268.65Z" fill="#F8F8F8"/>
<path d="M231.865 287.654C235.374 287.654 238.218 284.81 238.218 281.302C238.218 277.794 235.374 274.951 231.865 274.951C228.356 274.951 225.512 277.794 225.512 281.302C225.512 284.81 228.356 287.654 231.865 287.654Z" fill="#F8F8F8"/>
<path d="M171.214 272.901C174.722 272.901 177.567 270.057 177.567 266.549C177.567 263.042 174.722 260.198 171.214 260.198C167.705 260.198 164.86 263.042 164.86 266.549C164.86 270.057 167.705 272.901 171.214 272.901Z" fill="#F8F8F8"/>
<path d="M76.238 496.517C82.114 496.517 86.8775 491.755 86.8775 485.88C86.8775 480.006 82.114 475.243 76.238 475.243C70.3621 475.243 65.5986 480.006 65.5986 485.88C65.5986 491.755 70.3621 496.517 76.238 496.517Z" fill="#F8F8F8"/>
<path d="M381.494 481.257C384.62 481.257 387.153 478.724 387.153 475.599C387.153 472.475 384.62 469.942 381.494 469.942C378.369 469.942 375.836 472.475 375.836 475.599C375.836 478.724 378.369 481.257 381.494 481.257Z" fill="#F8F8F8"/>
<path d="M526.787 168.563C532.542 168.563 537.207 163.899 537.207 158.146C537.207 152.393 532.542 147.729 526.787 147.729C521.033 147.729 516.368 152.393 516.368 158.146C516.368 163.899 521.033 168.563 526.787 168.563Z" fill="#F8F8F8"/>
<path d="M1065.52 308.539C1068.98 308.539 1071.79 305.733 1071.79 302.272C1071.79 298.811 1068.98 296.005 1065.52 296.005C1062.06 296.005 1059.25 298.811 1059.25 302.272C1059.25 305.733 1062.06 308.539 1065.52 308.539Z" fill="#F8F8F8"/>
<path d="M390.05 232.453C394.69 232.453 398.453 228.692 398.453 224.052C398.453 219.412 394.69 215.65 390.05 215.65C385.409 215.65 381.646 219.412 381.646 224.052C381.646 228.692 385.409 232.453 390.05 232.453Z" fill="#F8F8F8"/>
<path d="M746.521 63.0554C748.992 63.0554 750.994 61.0533 750.994 58.5837C750.994 56.1141 748.992 54.1121 746.521 54.1121C744.051 54.1121 742.049 56.1141 742.049 58.5837C742.049 61.0533 744.051 63.0554 746.521 63.0554Z" fill="#F8F8F8"/>
<path d="M1054.1 307.438C1060.09 307.438 1064.94 302.584 1064.94 296.597C1064.94 290.611 1060.09 285.757 1054.1 285.757C1048.11 285.757 1043.26 290.611 1043.26 296.597C1043.26 302.584 1048.11 307.438 1054.1 307.438Z" fill="#F8F8F8"/>
<path d="M960.224 147.966C962.9 147.966 965.07 145.797 965.07 143.122C965.07 140.446 962.9 138.277 960.224 138.277C957.548 138.277 955.379 140.446 955.379 143.122C955.379 145.797 957.548 147.966 960.224 147.966Z" fill="#F8F8F8"/>
<path d="M802.988 277.237C807.255 277.237 810.713 273.779 810.713 269.514C810.713 265.248 807.255 261.79 802.988 261.79C798.721 261.79 795.263 265.248 795.263 269.514C795.263 273.779 798.721 277.237 802.988 277.237Z" fill="#F8F8F8"/>
<path d="M733.73 194.681C737.239 194.681 740.083 191.837 740.083 188.329C740.083 184.821 737.239 181.978 733.73 181.978C730.221 181.978 727.377 184.821 727.377 188.329C727.377 191.837 730.221 194.681 733.73 194.681Z" fill="#F8F8F8"/>
<path d="M403.214 336.283C408.023 336.283 411.922 332.386 411.922 327.577C411.922 322.769 408.023 318.871 403.214 318.871C398.405 318.871 394.506 322.769 394.506 327.577C394.506 332.386 398.405 336.283 403.214 336.283Z" fill="#F8F8F8"/>
<path d="M502.983 148.271C505.884 148.271 508.235 145.92 508.235 143.02C508.235 140.12 505.884 137.769 502.983 137.769C500.083 137.769 497.731 140.12 497.731 143.02C497.731 145.92 500.083 148.271 502.983 148.271Z" fill="#F8F8F8"/>
<g filter="url(#filter0_d_978_64661)">
<circle cx="0.25" cy="0.25" r="0.25" transform="matrix(1 0 0 -1 298 138.5)" fill="#B3D5FC"/>
</g>
<g filter="url(#filter1_d_978_64661)">
<circle cx="0.25" cy="0.25" r="0.25" transform="matrix(1 0 0 -1 836 194.5)" fill="#71917E"/>
</g>
<defs>
<filter id="filter0_d_978_64661" x="276" y="116" width="44.5" height="44.5" filterUnits="userSpaceOnUse" color-interpolation-filters="sRGB">
<feFlood flood-opacity="0" result="BackgroundImageFix"/>
<feColorMatrix in="SourceAlpha" type="matrix" values="0 0 0 0 0 0 0 0 0 0 0 0 0 0 0 0 0 0 127 0" result="hardAlpha"/>
<feMorphology radius="15" operator="dilate" in="SourceAlpha" result="effect1_dropShadow_978_64661"/>
<feOffset/>
<feGaussianBlur stdDeviation="3.5"/>
<feComposite in2="hardAlpha" operator="out"/>
<feColorMatrix type="matrix" values="0 0 0 0 0.46816 0 0 0 0 0.623832 0 0 0 0 0.808333 0 0 0 1 0"/>
<feBlend mode="normal" in2="BackgroundImageFix" result="effect1_dropShadow_978_64661"/>
<feBlend mode="normal" in="SourceGraphic" in2="effect1_dropShadow_978_64661" result="shape"/>
</filter>
<filter id="filter1_d_978_64661" x="815" y="173" width="42.5" height="42.5" filterUnits="userSpaceOnUse" color-interpolation-filters="sRGB">
<feFlood flood-opacity="0" result="BackgroundImageFix"/>
<feColorMatrix in="SourceAlpha" type="matrix" values="0 0 0 0 0 0 0 0 0 0 0 0 0 0 0 0 0 0 127 0" result="hardAlpha"/>
<feMorphology radius="14" operator="dilate" in="SourceAlpha" result="effect1_dropShadow_978_64661"/>
<feOffset/>
<feGaussianBlur stdDeviation="3.5"/>
<feComposite in2="hardAlpha" operator="out"/>
<feColorMatrix type="matrix" values="0 0 0 0 0.575 0 0 0 0 0.666667 0 0 0 0 0.614286 0 0 0 1 0"/>
<feBlend mode="normal" in2="BackgroundImageFix" result="effect1_dropShadow_978_64661"/>
<feBlend mode="normal" in="SourceGraphic" in2="effect1_dropShadow_978_64661" result="shape"/>
</filter>
</defs>
</svg>
