<svg width="984" height="502" viewBox="0 0 984 502" fill="none" xmlns="http://www.w3.org/2000/svg">
<g clip-path="url(#clip0_1563_154750)">
<rect width="984" height="502" fill="#EFF3F6"/>
<g opacity="0.1">
<path d="M22.8392 -190.515L136.789 3.68982L108.982 -215.105" fill="#7B9586"/>
<path d="M-50.81 137.875L136.789 3.68962L22.8393 -190.516" fill="#91A79A"/>
<path d="M-50.8029 137.876L303.137 308.417L136.796 3.69067" fill="#7B9586"/>
<path d="M136.796 3.69025L303.137 308.416L235.835 -73.2515" fill="#688173"/>
<path d="M683.371 -17.3301L669.064 104.296L576.575 -26.9808L683.371 -17.3301Z" fill="#688173"/>
<path d="M376.885 189.699L527.609 -33.5908L235.833 -73.2515" fill="#A7B8AF"/>
<path d="M235.835 -73.2515L376.887 189.699L303.137 308.416L235.835 -73.2515Z" fill="#91A79A"/>
<path d="M427.765 284.224L376.885 189.7L527.609 -33.59L427.765 284.224Z" fill="#688173"/>
<path d="M303.132 308.416L427.762 284.223L376.882 189.698" fill="#A7B8AF"/>
<path d="M0.481565 287.395L6.92969 165.637L-50.801 137.875" fill="#688173"/>
<path d="M0.479553 287.396L303.137 308.416L6.92767 165.637" fill="#A7B8AF"/>
<path d="M136.786 3.68982L235.824 -73.2519L108.978 -215.105" fill="#A7B8AF"/>
<path d="M576.584 -26.9799L669.074 104.297L527.619 -33.59L576.584 -26.9799Z" fill="#7B9586"/>
<path d="M527.619 -33.59L669.074 104.297L427.775 284.224L527.619 -33.59Z" fill="#91A79A"/>
<path d="M427.775 284.222L669.074 104.295L656.682 230.813L427.775 284.222Z" fill="#A7B8AF"/>
<path d="M656.675 230.813L669.067 104.295L745.336 210.189L656.675 230.813Z" fill="#91A79A"/>
<path d="M669.067 104.295L683.374 -17.3308L745.336 210.189L669.067 104.295Z" fill="#A7B8AF"/>
<path d="M683.373 -17.3308L745.738 12.5469L745.335 210.189" fill="#91A79A"/>
<path d="M682.97 -17.33L745.033 -48.2654L745.738 12.5477" fill="#91A79A"/>
<path d="M537.777 487.814L427.757 284.223L303.127 308.416" fill="#7B9586"/>
<path d="M745.336 210.189L492.148 403.337L427.768 284.223L745.336 210.189Z" fill="#688173"/>
<path d="M745.336 210.189L537.788 487.814L492.148 403.337L745.336 210.189Z" fill="#A7B8AF"/>
<path d="M460.508 428.72L346.759 517.957L303.134 308.416L460.508 428.72Z" fill="#688173"/>
<path d="M346.754 517.956L303.129 308.416L305.647 541.621" fill="#A7B8AF"/>
<path d="M123.396 404.131L303.137 308.416L0.479553 287.396" fill="#7B9586"/>
<path d="M123.397 404.13L305.656 541.621L303.137 308.416" fill="#91A79A"/>
<path d="M-10.105 471.818L123.391 404.131L0.4739 287.396" fill="#688173"/>
<path d="M-169.386 353.629L-6.87438 414.575L0.480469 287.396" fill="#7B9586"/>
<path d="M745.739 12.5474L977.367 -47.208L1028.25 108.394" fill="#688173"/>
<path d="M745.031 -48.2654L977.363 -47.2078L745.736 12.5477" fill="#A7B8AF"/>
<path d="M745.739 12.5481L1028.25 108.395L1005.98 136.95" fill="#7B9586"/>
<path d="M745.74 12.5481L1005.98 136.95L745.337 210.19" fill="#A7B8AF"/>
<path d="M745.337 210.19L1005.98 136.95L880.142 303.128L745.337 210.19Z" fill="#7B9586"/>
<path d="M745.339 210.189L880.145 303.128L667.559 581.149L745.339 210.189Z" fill="#688173"/>
<path d="M745.336 210.189L667.556 581.149L537.788 487.814L745.336 210.189Z" fill="#91A79A"/>
<path d="M1019.58 396.462L880.138 303.128L1005.98 136.95" fill="#688173"/>
<path d="M1019.58 396.463L667.553 581.15L880.138 303.128" fill="#91A79A"/>
<path d="M1148.34 480.544L775.967 640.773L1019.58 396.463" fill="#688173"/>
<path d="M1019.58 396.463L775.961 640.773L667.553 581.15" fill="#A7B8AF"/>
<path d="M460.501 428.719L537.777 487.814L346.753 517.956L460.501 428.719Z" fill="#A7B8AF"/>
<path d="M394.313 619.885L667.551 581.15L537.783 487.815" fill="#A7B8AF"/>
<path d="M346.753 517.957L394.307 619.885L537.777 487.815" fill="#91A79A"/>
<path d="M305.656 541.62L57.2033 437.709L123.397 404.13L305.656 541.62Z" fill="#7B9586"/>
<path d="M305.656 541.621L-10.0986 471.819L57.2033 437.71" fill="#A7B8AF"/>
<path d="M1152.57 582.074L775.962 640.772L1148.34 480.543" fill="#A7B8AF"/>
<path d="M175.09 705.023L-141.471 627.42L-10.0911 471.818" fill="#688173"/>
<path d="M305.656 541.621L175.082 705.023L-10.0986 471.818" fill="#7B9586"/>
</g>
<g opacity="0.3">
<path d="M643.555 470.061C764.419 470.061 862.399 372.011 862.399 251.061C862.399 130.11 764.419 32.0605 643.555 32.0605C522.691 32.0605 424.711 130.11 424.711 251.061C424.711 372.011 522.691 470.061 643.555 470.061Z" fill="#D3DCD7"/>
<path d="M497.33 396.367C502.368 392.804 503.287 392.718 506.589 389.21C511.534 383.943 513.193 380.614 514.882 375.106C515.209 374.04 515.941 371.73 518.067 369.801C521.72 366.495 523.69 367.452 527.093 367.086C528.806 366.907 530.185 366.51 531.275 366.005C540.067 361.936 540.098 351.598 540.526 347.397C541.188 341.376 542.388 339.68 544.591 334.935C546.476 330.882 548.617 327.584 550.557 325.009C551.226 324.122 552.013 323.352 552.838 322.613C554.544 321.08 555.439 318.809 555.19 316.514C554.879 313.682 553.492 312.889 550.12 310.462L543.431 304.962C542.683 304.347 542.193 303.484 542.045 302.535L541.78 300.8C541.648 299.96 541.243 299.174 540.62 298.599C537.505 295.697 534.226 292.974 531.283 289.902C530.473 289.061 529.756 288.019 527.49 287.669C525.395 287.35 525.232 287.583 523.534 287.996C520.162 288.82 516.541 289.326 513.091 289.738C512.577 289.8 512.126 289.349 512.235 288.844C512.344 288.322 512.289 287.786 512.056 287.311C511.666 286.533 510.849 286.028 509.945 285.981C509.532 285.965 509.252 285.561 509.338 285.156C510.202 281.337 511.464 278.676 511.985 274.569C512.235 272.383 512.25 271.784 512.18 271.138C511.744 266.844 506.947 264.658 506.511 264.464L492.867 256.848C491.38 256.016 490.165 254.779 489.363 253.277L486.684 248.237C486.069 247.078 485.181 246.082 484.099 245.343C479.543 242.216 474.995 239.081 470.44 235.953C469.895 235.557 467.823 234.156 464.926 234.382C461.523 234.654 460.768 235.93 459.195 237.385C458.47 238.054 456.897 239.213 454.592 239.734C452.303 240.255 450.34 239.882 449.118 239.501C448.837 239.415 448.643 239.407 448.448 239.508C448.02 239.734 447.498 239.493 447.311 239.049L447.148 238.661C446.968 238.233 446.875 237.774 446.859 237.315L446.634 224.969C446.548 219.329 445.349 220.59 443.752 219.026C443.316 218.598 443.137 217.556 443.075 216.366C443.028 215.494 443.378 214.903 443.643 214.429C445.793 210.5 445.87 206.369 446.867 201.795C447.054 200.955 447.171 200.387 446.673 199.944C446.143 199.477 445.38 199.648 444.733 200.076C441.525 202.192 440.653 204.324 439.368 207.785C439.173 208.151 438.301 209.652 436.424 210.267C435.957 210.422 435.513 210.492 435.108 210.516C434.283 210.562 433.699 209.722 434.041 208.968L448.565 177.727C448.869 177.066 449.725 176.887 450.27 177.353C450.512 177.556 450.753 177.766 450.995 177.968C451.641 178.52 452.653 178.209 452.871 177.384C452.926 177.182 452.98 177.011 453.043 176.848C454.172 173.993 458.182 172.297 463.034 172.678C464.537 172.787 466.009 173.518 468.508 172.305C470.12 171.519 471.078 170.337 472.246 168.952C486.108 155.486 498.435 143.522 512.305 130.056C513.59 128.438 515.825 126.952 517.795 127.738C519.469 128.407 520.528 130.196 520.38 132.087C520.334 132.725 520.809 133.277 521.439 133.339C523.682 133.58 523.807 133.767 526.034 134.14C531.002 134.965 532.871 134.265 533.448 132.662C533.884 131.449 533.144 130.593 531.859 128.827C530.099 126.416 527.981 124.3 526.034 122.028C525.824 121.865 523.215 119.726 523.682 117.913C524.134 116.147 529.694 115.113 532.793 116.388L536.563 118.52C538.72 119.873 540.667 119.601 540.713 119.15C540.846 117.975 538.416 116.707 539.896 116.272C541.492 115.805 546.406 114.949 550.915 113.004C554.894 111.285 557.923 109.13 560.104 107.388C561.194 106.12 563.803 104.315 559.185 104.836C557.487 104.969 555.073 103.6 554.084 100.69C553.321 98.4498 553.89 96.2794 556.506 93.58C556.81 93.2689 556.514 92.7477 556.086 92.8021L545.16 95.0114C544.327 95.1436 543.813 94.9336 543.883 94.0935L544.093 91.5808C544.241 89.9083 543.633 88.9826 542.606 88.4381C541.196 87.699 539.241 88.1424 537.699 89.3715C536.181 90.5462 536.539 90.165 534.857 91.5419C533.362 92.771 531.695 95.2214 530.512 95.8126C529.608 96.2483 528.604 96.4039 527.615 96.2716L525.847 96.0382C525.497 95.9916 525.154 96.2016 525.045 96.5361L524.375 98.512C523.939 99.7956 523.106 100.908 522 101.694C518.69 104.035 512.079 108.407 511.16 109.022C510.366 109.551 509.712 110.258 509.237 111.083C507.274 114.475 505.685 117.073 505.21 116.878C504.595 116.622 503.637 114.833 506.877 107.551C506.978 107.318 506.791 107.069 506.542 107.108C502.057 107.831 498.755 105.677 498.498 103.662C498.287 102.005 500.063 99.9511 502.687 98.7609C512.873 93.8834 524.531 91.3085 533.237 84.1206C533.993 83.4983 534.522 82.7282 534.281 81.5069C533.985 79.9822 532.513 78.1385 528.915 79.2198L504.65 92.1487C503.949 92.5221 503.108 92.5221 502.407 92.1565L496.193 88.9048C460.721 121.103 435.864 164.767 427.484 214.032L431.137 212.149C431.588 215.113 432.04 218.077 432.492 221.041C432.601 221.749 433.208 222.262 433.925 222.293C434.065 222.293 434.189 222.317 434.306 222.332C434.851 222.418 437.631 223.966 438.114 227.14C438.854 231.846 439.726 235.082 441.517 239.073C443.48 243.46 445.567 246.082 447.467 247.957C448.565 249.038 449.009 250.625 448.604 252.111C444.523 262.426 449.063 261.033 444.741 266.346C444.43 266.689 442.421 268.96 442.95 271.838C443.129 272.819 443.542 273.565 443.869 274.017C444.671 275.16 444.983 275.666 444.874 276.763C444.749 278.007 443.604 278.731 443.347 278.894C441.486 280.388 439.664 281.842 439.89 286.362C440.03 289.124 441.447 291.068 442.514 292.165C443.394 293.06 444.087 294.126 444.57 295.285C446.096 298.956 447.63 302.62 449.157 306.292C449.562 307.265 449.78 308.307 449.819 309.365C449.92 312.212 450.379 315.853 451.75 319.859C454.11 326.759 458.05 331.481 460.783 334.18C461.648 335.036 461.803 336.133 462.092 336.708C464.218 342.566 465.074 341.664 465.588 346.23C465.946 349.412 465.37 352.477 464.981 354.18C463.89 360.38 464.116 362.971 465.253 368.93C466.717 376.623 471.187 385.11 474.769 390.641C481.108 398.272 487.954 405.468 495.258 412.174C495.149 406.425 492.953 399.439 497.322 396.351L497.33 396.367Z" fill="#7B9586"/>
<path d="M567.855 72.8491C565.932 72.5691 564.631 72.8491 563.595 73.1214C563.19 73.2303 562.77 73.2458 562.357 73.1914C561.197 73.0358 558.658 72.9502 556.929 74.7317C556.252 75.4318 555.901 76.2175 555.707 76.8242L553.69 80.5115C553.37 81.095 552.825 81.515 552.179 81.6628C550.956 81.9351 550.559 82.5341 550.474 82.6664C549.601 84.0666 550.715 86.9838 553.931 89.2397C559.266 90.0332 560.262 89.8931 563.151 89.6209C563.883 89.5509 564.569 89.2164 565.067 88.6796L572.263 80.9705C572.605 80.5971 572.855 80.1459 572.964 79.6558C573.08 79.1346 573.166 78.5356 573.197 77.8744C573.26 76.4275 573.641 75.7196 572.761 74.436C571.795 73.9304 569.794 73.1369 567.855 72.8569V72.8491Z" fill="#7B9586"/>
<path d="M620.028 88.8823C620.129 88.8979 620.223 88.929 620.324 88.9601C621.336 89.3335 622.863 89.7302 624.693 89.6291C628.61 89.4113 631.25 87.0698 632.223 86.0818C632.387 85.9107 632.589 85.7862 632.807 85.7007C642.214 82.0056 643.242 84.2926 646.653 84.8761C648.133 85.1328 649.542 85.7707 651.038 85.9185C655.328 86.3386 658.249 86.4241 660.273 86.3386C662.22 86.253 663.24 83.9659 661.994 82.4723C661.2 81.5233 660.53 80.2475 660.312 78.575C660.305 78.505 660.297 78.435 660.297 78.365C660.281 77.0736 661.823 76.3346 662.89 77.0736C663.233 77.307 663.653 77.5404 664.152 77.7193C666.145 78.4116 667.944 77.6648 668.512 77.3926C668.567 77.3615 668.629 77.3381 668.692 77.3148C674.828 75.0666 681.72 73.9542 687.327 70.9048C687.981 70.547 687.794 69.559 687.062 69.4501C679.929 68.151 672.601 66.9219 665.078 65.7861C656.785 64.5259 648.678 63.4368 640.774 62.4956C638.897 62.27 637.02 62.1299 635.136 62.0444C625.962 61.6243 616.306 61.4687 606.205 61.671C600.676 61.7799 595.295 61.9899 590.062 62.2778C588.411 62.3711 587.142 63.7558 587.189 65.3972L587.461 75.4711C587.485 76.3191 588.131 77.0192 588.972 77.1203C596.853 78.0305 600.809 79.0651 600.84 80.2242C600.871 81.3055 597.476 82.4879 590.646 83.7792C590.514 83.8026 590.374 83.8415 590.249 83.9037C586.254 85.7162 586.277 90.0103 587.196 92.6396C588.551 96.5059 595.303 99.2519 602.538 96.0002C602.662 95.9458 602.787 95.868 602.896 95.7824C612.918 87.9644 615.395 88.0733 620.044 88.8979L620.028 88.8823Z" fill="#7B9586"/>
<path d="M564.042 118.426L559.681 115.704C559.252 114.809 558.684 114.366 558.349 114.148C556.87 113.852 554.868 113.977 552.68 114.918C549.651 115.984 547.992 114.965 546.707 116.357C545.5 117.664 544.815 118.279 544.441 118.971C542.541 119.298 541.365 119.383 541.303 120.301C541.264 120.846 541.871 121.258 543.857 122.892C548.132 127.162 549.736 125.155 552.166 123.677C555.024 121.935 555.335 120.853 558.458 120.169C559.221 119.998 559.946 119.92 560.592 119.897C560.981 119.881 561.363 119.834 561.744 119.741C562.469 119.562 563.193 119.391 563.925 119.212C564.299 119.119 564.377 118.629 564.05 118.426H564.042Z" fill="#7B9586"/>
<path d="M827.664 132.235H822.259C816.909 132.017 812.19 126.463 810.703 124.526C810.274 123.966 809.792 123.445 809.262 122.978C807.51 121.438 804.628 119.376 800.602 118.178C797.067 117.128 793.991 117.151 792.036 117.33C790.767 117.478 787.878 117.735 787.652 117.003C787.411 116.226 794.279 111.963 797.464 109.854C797.783 109.644 797.62 109.147 797.238 109.17L790.043 109.559C789.303 109.598 787.636 109.333 787.037 108.905C787.037 108.905 775.62 102.667 763.947 91.0367C762.024 89.1231 759.828 88.6485 754.104 93.5494C748.279 99.8894 741.683 101.375 739.689 97.5167C738.731 95.6731 735.266 96.0309 735.266 96.0309C725.781 97.0111 723.18 104.744 724.231 107.661C725.438 110.998 731.038 110.578 733.561 111.06C737.096 112.281 738.077 114.615 737.486 116.155C736.925 117.61 735.694 117.711 733.825 117.851C724.699 118.536 718.001 118.061 709.817 118.108C709.342 118.108 708.882 118.233 708.47 118.474L699.989 123.359C699.467 123.655 699.382 124.362 699.794 124.79C700.285 125.304 700.83 126.027 701.212 127C702.014 129.061 701.656 130.92 701.375 131.441C698.525 136.731 697.614 140.24 698.136 144.674C698.175 145.024 697.84 145.296 697.513 145.179C696.508 144.106 688.9 136.194 681.751 138.334H681.728C680.466 138.723 679.298 139.54 679.103 140.994C676.409 161.329 676.689 164.658 681.821 167.233C682.826 167.739 684.913 168.416 688.596 167.171C689.25 166.945 689.943 166.852 690.636 166.852H696.975C697.497 166.852 697.972 166.564 698.206 166.097C699.062 164.394 700.472 162.13 702.754 159.991C706.671 156.311 710.946 155.036 713.025 154.569C721.467 153.13 720.081 151.014 726.793 152.149C730.57 152.787 733.794 153.915 735.001 155.479C740.04 162.013 743.373 164.713 747.562 169.334C747.804 169.684 749.112 170.718 749.852 170.998C751.378 171.582 752.523 169.038 754.205 168.283C755.809 167.568 756.245 168.898 756.596 169.326L760.521 174.942C761.011 176.28 761.463 176.84 762.483 177.066C763.55 177.299 764.118 175.814 765.232 175.86C766.805 175.922 766.276 175.829 767.327 177.035C767.88 178.933 768.028 179.112 768.861 179.127C769.718 179.143 770.434 178.225 770.465 177.035C770.52 174.942 772.957 174.997 775.893 175.992C778.829 176.895 782.037 175.93 783.976 173.573C785.954 171.154 786.227 167.739 784.662 165.016C782.45 158.202 789.996 157.727 792.317 160.302C795.136 164.814 796.989 166.891 797.877 166.541C798.235 166.401 798.43 165.802 798.469 164.868C798.5 164.153 798.749 163.445 799.263 162.939C799.925 162.278 800.937 162.044 801.996 165.397L807.362 178.855C808.016 180.489 808.343 181.788 807.494 182.387C806.793 182.877 805.898 181.959 804.613 181.733C779.031 177.214 774.242 182.869 788.002 189.17C789.342 189.785 790.806 190.08 792.278 190.073C793.913 190.065 796.312 190.415 797.939 192.259C798.648 193.06 799.029 193.939 799.247 194.678C799.442 198.917 799.637 203.165 799.839 207.405C799.878 208.159 799.271 208.797 798.515 208.797H785.004C784.506 208.797 784.124 209.225 784.171 209.715L784.794 215.713C784.841 216.133 785.059 216.514 785.409 216.755L795.587 223.904C799.948 226.86 814.207 265.678 814.207 265.678C816.831 273.651 817.556 275.075 818.49 275.122C819.284 275.161 819.292 273.231 820.717 272.313C824.969 269.567 827.344 270.05 832.141 268.852C837.818 267.265 842.257 263.01 843.55 257.673C845.263 250.579 841.058 242.846 833.45 239.314C827.391 236.498 823.661 235.191 825.102 228.525C826.277 226.448 830.031 223.85 834.719 228.657C837.561 231.574 839.757 235.098 841.86 236.249C842.623 236.67 843.332 237.175 843.885 237.836C844.671 238.778 845.505 239.672 846.424 240.489C847.467 241.423 848.573 242.566 849.64 243.951C853.035 248.377 854.18 252.92 854.608 255.542C855.597 269.785 856.594 284.037 857.583 298.28C860.947 283.041 862.715 267.21 862.715 250.968C862.715 207.194 849.85 166.416 827.695 132.212L827.664 132.235Z" fill="#7B9586"/>
<path d="M770.637 350.625C771.057 349.1 771.633 347.622 772.311 346.199C774.896 340.769 776.968 337.074 777.638 336.607C778.884 335.744 779.335 336.413 781.664 335.362C783.797 333.752 785.581 331.582 787.714 329.972C791.974 326.712 799.232 320.1 802.76 309.489C803.647 306.829 804.426 306.323 804.457 302.006C804.239 301.041 804.068 299.586 804.488 297.953C804.956 296.148 805.914 294.966 806.42 294.421C807.533 293.192 808.53 291.356 809.838 289.31C810.625 288.081 810.999 287.295 810.804 286.875C810.002 285.623 809.138 286.65 804.855 286.058C804.193 285.887 803.562 285.677 802.954 285.436C793.282 281.562 794.715 269.722 789.077 263.841C788.415 263.297 787.512 262.402 786.733 261.119C784.716 257.812 785.043 254.382 785.23 253.122C785.456 251.146 785.791 247.505 784.989 243.756C784.257 240.341 783.642 239.034 782.146 236.443C781.664 235.603 781.321 234.685 781.15 233.728C779.974 227.272 777.497 222.931 777.708 221.523C777.832 220.683 778.229 219.897 778.813 219.275C779.172 218.894 779.561 218.473 779.849 218.162C780.044 217.945 780.2 217.696 780.285 217.416C780.916 215.424 781.009 213.814 780.908 212.803C780.83 211.962 780.651 211.216 780.449 210.578C780.075 209.434 779.148 208.555 777.988 208.221C770.356 206.042 765.193 203.475 757.562 201.297C756.837 201.087 756.168 200.722 755.599 200.216C754.929 199.944 754.112 199.531 753.271 198.893C751.744 197.742 750.864 196.404 750.389 195.541C749.136 193.72 747.897 192.802 746.978 194.809C746.067 196.801 745.195 198.676 745.195 198.676C744.37 200.333 744.487 202.145 743.755 202.643C742.602 203.421 741.504 202.9 739.176 201.383C737.486 200.278 736.061 199.632 735.22 198.979C733.086 197.314 730.633 194.732 729.371 191.037C729.247 190.663 729.075 190.313 728.795 190.056C728.226 189.535 727.354 189.403 726.576 189.699C725.641 190.049 724.598 190.049 723.632 189.8C723.609 189.8 723.593 189.792 723.57 189.784C722.651 189.543 721.607 189.146 720.556 188.485C718.632 187.279 717.425 185.685 716.685 184.308C716.218 183.452 715.961 182.495 715.915 181.523C715.798 178.886 714.933 172.662 708.446 173.036L691.205 172.849L674.018 172.234C666.254 172.149 663.552 169.737 656.31 176.186C653.896 178.333 652.471 180.799 651.622 182.884C650.687 185.171 648.709 186.859 646.303 187.427C642.098 188.407 635.704 190.951 631.507 197.524C627.878 203.211 627.707 209.069 628.104 212.74C628.314 214.693 627.341 216.599 625.604 217.509C622.886 218.932 621.017 221.041 620.651 223.46C620.612 223.701 620.589 223.973 620.581 224.269C620.566 225.482 620.293 226.68 619.701 227.738C618.066 230.694 616.244 235.136 616.135 240.644C616.103 242.106 616.205 243.46 616.368 244.697C616.516 245.778 616.594 246.875 616.594 247.964V267.809C616.594 269.007 617.17 270.135 618.144 270.835L635.953 283.701C636.724 284.121 638.967 285.218 641.903 284.814C645.688 284.293 646.318 282.153 648.25 281.088C655.001 277.299 657.408 278.225 659.697 278.629C666.278 280.139 674.634 282.815 679.649 281.609C680.552 281.375 681.463 281.671 681.938 282.324C682.335 282.877 682.289 283.499 682.265 283.694C682.226 283.966 681.813 287.474 684.492 289.816C686.533 291.597 689.258 290.936 692.077 290.749C692.7 290.71 696.376 291.317 698.097 294.934C699.335 297.54 698.845 299.921 698.362 300.551C695.262 304.651 694.336 308.431 695.683 309.831C695.971 310.127 696.547 310.111 697.708 310.485C698.299 310.672 698.564 311.115 698.494 312.118C698.432 312.959 697.793 313.425 697.708 313.488C696.711 314.227 696.29 315.518 696.664 316.693C697.022 317.836 698.315 317.992 699.281 318.715C700.682 319.765 700.908 321.119 701.111 323.554C701.274 325.522 700.776 327.062 700.457 327.863C698.385 330.858 695.519 335.806 693.915 342.504C693.113 345.872 692.802 348.968 692.739 351.613C692.677 354.538 692.451 357.463 691.953 360.349C691.408 363.453 691.049 367.109 691.166 371.193C691.291 375.433 691.898 379.12 692.607 382.107C694.484 392.827 696.36 403.539 698.229 414.258C698.751 416.771 698.915 417.914 700.386 419.221C702.629 420.941 706.282 420.653 708.828 418.179C720.961 408.214 727.105 406.884 730.345 406.191C732.541 405.725 734.628 405.476 736.567 405.367C736.902 405.343 740.063 405.04 741.862 402.162C743.63 399.33 742.579 396.413 742.454 396.086C742.111 395.503 742.096 394.787 742.423 394.227C742.812 393.55 743.599 393.395 744.416 393.348C746.605 393.216 747.337 392.344 749.058 390.306C750.935 388.097 751.269 385.717 751.347 384.853C751.355 384.091 751.433 382.893 751.776 381.485C752.796 377.269 755.397 374.523 756.845 373.216C769.274 360.442 769.539 354.196 770.092 352.469C770.294 351.839 770.473 351.224 770.644 350.602L770.637 350.625Z" fill="#7B9586"/>
<path d="M808.56 363.959L808.622 362.147C808.638 361.758 808.202 361.517 807.882 361.742L805.437 363.43C805.11 363.656 804.659 363.617 804.37 363.337L801.582 360.599C801.318 360.334 800.858 360.49 800.812 360.863C800.399 363.765 800.71 366.013 799.566 369.576C798.896 371.653 797.471 374.189 795.446 376.896C793.756 379.144 792.02 380.863 790.54 382.124C790.54 382.124 771.437 394.671 771.437 395.193C769.639 396.149 768.634 398.133 768.953 400.093C769.241 401.906 770.604 403.4 772.419 403.882C777.161 404.566 779.552 403.423 782.558 400.35C782.877 400.023 783.765 399.316 785.112 399.105C786.958 398.825 788.305 399.79 788.648 399.953C790.906 401.066 793.959 400.871 797.743 398.055C801.614 395.177 803.14 388.876 801.606 384.527C801.294 383.648 801.536 381.089 803.109 378.514C804.518 376.204 805.788 375.052 807.298 374.656C809.027 374.205 810.647 373.481 811.161 371.847C811.519 370.688 811.13 368.487 809.728 366.97C808.965 366.145 808.537 365.064 808.576 363.944L808.56 363.959Z" fill="#7B9586"/>
</g>
<path d="M903.528 397.028L901.107 368.362C901.006 367.169 900.492 366.054 899.644 365.212L897.254 362.818C895.814 361.376 895.604 359.115 896.756 357.431L901.231 350.874C902.018 349.721 902.368 348.325 902.204 346.937C903.1 328.749 899.69 306.911 897.02 301.08C896.865 300.744 896.468 299.403 895.666 298.257C895.65 298.234 895.635 298.218 895.619 298.203L893.44 296.02C893.09 295.669 892.833 295.225 892.708 294.741L883.173 257.935C882.994 257.233 883.811 256.703 884.372 257.155L890.085 261.732C892.358 263.821 896.756 264.757 897.199 258.73C897.386 256.165 897.853 252.524 898.04 249.967C898.437 245.352 898.53 244.323 897.199 243.543C891.058 239.98 883.733 239.091 876.962 236.963C876.635 236.862 876.339 236.682 876.098 236.448L876.004 236.308C875.405 234.71 875.288 230.165 866.547 225.307C865.8 224.894 865.013 224.528 864.204 224.232C853.314 220.177 849.298 218.618 835.023 216.396C834.073 216.248 833.178 215.819 832.47 215.172L827.97 211.087C826.351 209.614 824.499 208.413 822.475 207.563C785.167 191.893 738.628 180.518 704.099 178.475C702.589 178.389 701.235 179.38 700.877 180.853C700.869 180.892 700.861 180.931 700.846 180.97C700.713 181.531 700.052 181.983 699.577 181.648C695.171 178.584 687.816 176.472 684.251 175.746C683.317 175.559 682.351 175.575 681.425 175.801C583.038 200.04 490.24 222.914 386.404 248.494C384.832 248.883 383.711 250.31 383.711 251.947V369.734C383.711 371.168 384.871 372.33 386.303 372.33H387.618C389.339 372.33 390.732 373.725 390.732 375.448V387.603C390.732 388.803 391.689 389.778 392.888 389.801L435.605 390.573C436.625 390.589 437.497 391.306 437.707 392.304L439.03 398.479C439.381 399.742 439.855 401.48 441.653 402.883C443.576 404.38 445.802 403.796 446.736 403.445C449.383 408.855 453.352 412.426 457.82 412.792C457.859 412.8 457.89 412.824 457.929 412.824H458.295C458.389 412.824 458.49 412.824 458.583 412.824C458.848 412.824 459.12 412.808 459.385 412.792L469.239 412.59C470.703 412.559 472.096 411.974 473.147 410.953C474.906 409.237 477.428 406.361 479.343 402.79C481.973 409.004 486.293 413.291 491.283 414.04C491.314 414.04 491.337 414.063 491.368 414.063H491.493C491.937 414.126 492.388 414.157 492.847 414.157C493.26 414.157 493.665 414.126 494.069 414.079L505.192 414.149C506.609 414.157 507.987 413.681 509.069 412.769C511.692 410.571 515.755 405.83 518.277 396.108C518.324 395.937 518.472 395.82 518.651 395.82C534.164 396.28 550.346 396.748 565.859 397.208C566.062 397.208 566.225 397.379 566.225 397.59V405.846C566.225 406.057 566.389 406.22 566.599 406.228L611.044 407.054C611.254 407.054 611.433 406.891 611.433 406.672V395.36C611.433 395.142 611.612 394.97 611.83 394.978L641.58 396.124C641.782 396.132 641.946 396.303 641.946 396.506V407.577C641.946 407.787 642.109 407.951 642.319 407.959L700.332 408.887C700.542 408.887 700.721 408.715 700.721 408.505V399.601C700.721 399.367 700.939 399.188 701.165 399.227L702.652 399.5C702.698 399.508 702.729 399.539 702.776 399.57C702.776 399.703 702.768 399.835 702.768 399.968C702.768 418.336 714.514 434.053 731.553 434.053C731.638 434.053 731.864 434.061 731.887 434.061L754.11 433.227C755.83 433.227 757.488 432.618 758.796 431.496C760.127 430.358 764.322 426.748 766.634 422.67C767.117 421.828 768.004 421.298 768.977 421.314C776.784 421.47 784.062 421.618 791.83 421.774C793.216 421.805 794.282 422.959 794.313 424.347C794.337 425.586 795.45 426.522 796.68 426.327L851.096 417.767C851.096 417.767 852.334 423.933 854.957 423.949L867.956 423.138C870.081 423.006 871.996 421.821 873.101 420.004C874.673 417.4 875.234 415.03 875.599 413.923C883.15 412.738 890.708 411.545 898.258 410.36C902.827 409.604 904.182 408.294 903.574 397.044L903.528 397.028Z" fill="#7B9586"/>
<path d="M445.175 366.818H418.368C418.01 366.818 417.699 367.036 417.566 367.37L414.577 375.248C414.422 375.668 414.017 375.94 413.565 375.94H411.876C411.464 375.94 411.121 375.598 411.129 375.185L411.3 365.557C411.3 365.378 411.16 365.222 410.973 365.222H408.81C408.63 365.222 408.49 365.362 408.483 365.534L408.148 375.201C408.132 375.614 407.798 375.933 407.385 375.933H393.849C393.475 375.933 393.172 376.236 393.172 376.61V384.308C393.172 384.674 393.46 384.97 393.826 384.985L438.637 386.62C439.011 386.635 439.322 386.347 439.338 385.974L439.828 376.135C439.851 375.691 439.493 375.318 439.05 375.318H432.893C432.519 375.318 432.262 374.936 432.41 374.594L434.683 369.293C434.823 368.974 435.134 368.772 435.477 368.772H445.175C445.347 368.772 445.479 368.639 445.479 368.468V367.114C445.479 366.942 445.347 366.81 445.175 366.81V366.818ZM432.184 369.153L429.802 375.014C429.631 375.434 429.226 375.715 428.767 375.722L417.091 375.933C416.796 375.933 416.586 375.637 416.695 375.357L419.287 368.99C419.419 368.67 419.73 368.46 420.073 368.46H431.709C432.068 368.46 432.317 368.826 432.176 369.161L432.184 369.153Z" fill="#D3DCD7"/>
<path d="M457.164 402.685C461.837 402.685 465.625 395.646 465.625 386.962C465.625 378.278 461.837 371.239 457.164 371.239C452.491 371.239 448.703 378.278 448.703 386.962C448.703 395.646 452.491 402.685 457.164 402.685Z" fill="#D3DCD7"/>
<path d="M491.871 405.036C496.544 405.036 500.332 397.686 500.332 388.62C500.332 379.553 496.544 372.204 491.871 372.204C487.198 372.204 483.41 379.553 483.41 388.62C483.41 397.686 487.198 405.036 491.871 405.036Z" fill="#D3DCD7"/>
<path d="M476.344 392.091H473.067C472.771 392.091 472.529 392.294 472.467 392.574C471.977 394.839 471.128 397.641 469.618 400.653C467.384 405.121 464.582 408.297 462.403 410.352C462.146 410.593 462.309 411.021 462.66 411.037L469.377 411.356C469.564 411.364 469.743 411.317 469.899 411.216C471.004 410.5 472.413 409.426 473.783 407.853C475.16 406.281 476.048 404.717 476.624 403.463C476.849 402.965 476.966 402.428 476.966 401.875V392.698C476.966 392.356 476.686 392.076 476.344 392.076V392.091Z" fill="#D3DCD7"/>
<path d="M515.702 396.022H509.015C508.79 396.022 508.595 396.178 508.54 396.396C508.081 398.443 507.295 400.981 505.878 403.713C503.878 407.581 501.379 410.376 499.387 412.228C499.068 412.524 499.27 413.046 499.698 413.061L505.248 413.31C505.341 413.31 505.435 413.295 505.513 413.248C509.584 410.991 514.441 403.557 516.176 396.614C516.254 396.31 516.013 396.015 515.702 396.015V396.022Z" fill="#D3DCD7"/>
<path d="M566.81 369.192L528.397 368.374C527.977 368.367 527.603 368.624 527.455 369.013L522.559 382.198C522.443 382.518 522.147 382.736 521.804 382.751L517.43 382.969C517.087 382.985 516.791 382.72 516.784 382.37L516.348 367.331C516.34 367.012 516.083 366.763 515.764 366.763H512.845C512.518 366.763 512.261 367.028 512.261 367.347L512.308 382.292C512.308 382.525 512.121 382.712 511.888 382.712H508.081C507.739 382.712 507.474 383.016 507.521 383.358L508.214 388.208C508.253 388.48 508.478 388.682 508.759 388.69L565.44 390.34C565.759 390.348 566.024 390.091 566.024 389.772V384.386C566.024 384.074 565.775 383.825 565.464 383.817L548.557 383.685C548.285 383.685 548.09 383.421 548.176 383.164L551.352 372.998C551.453 372.663 551.756 372.438 552.107 372.43L566.818 372.15C567.16 372.15 567.433 371.862 567.433 371.527V369.783C567.433 369.441 567.16 369.168 566.818 369.161L566.81 369.192ZM547.351 372.912L544.229 382.907C544.105 383.296 543.739 383.561 543.334 383.553L526.63 383.101C526.233 383.094 525.961 382.697 526.093 382.323L529.479 372.741C529.596 372.399 529.923 372.173 530.281 372.173H546.806C547.187 372.173 547.46 372.547 547.351 372.912Z" fill="#D3DCD7"/>
<path d="M607.99 379.311H574.792C574.684 379.311 574.575 379.342 574.497 379.404C573.321 380.315 569.367 385.117 569.367 392.994V400.918C569.367 401.199 569.593 401.424 569.865 401.432L603.375 402.382C603.709 402.389 603.966 402.094 603.896 401.767C603.336 399.136 602.744 394.497 604.184 389.064C605.243 385.071 607.01 382.074 608.418 380.12C608.668 379.778 608.418 379.311 607.998 379.311H607.99Z" fill="#D3DCD7"/>
<path d="M639.516 385.841H627.326C626.984 385.841 626.704 385.569 626.696 385.226L626.299 366.319C626.299 365.977 626.011 365.705 625.668 365.705H622.843C622.5 365.705 622.212 365.985 622.212 366.327L622.018 385.219C622.018 385.561 621.73 385.841 621.387 385.841H611.556C611.206 385.841 610.926 386.121 610.926 386.472V392.177C610.926 392.52 611.198 392.8 611.533 392.808L639.15 393.812C639.492 393.827 639.788 393.555 639.804 393.213L640.154 386.495C640.169 386.137 639.881 385.833 639.523 385.833L639.516 385.841Z" fill="#D3DCD7"/>
<path d="M700.188 375.1C684.036 374.548 668.072 373.792 652.473 373.792C652.31 373.792 652.154 373.847 652.022 373.948C650.356 375.217 645.188 381.164 645.188 392.053V403.721C645.188 404.126 645.514 404.461 645.919 404.461L693.751 405.037C694.225 405.037 694.583 404.609 694.482 404.141C693.688 400.483 692.863 394.038 694.887 386.503C696.343 381.078 698.763 378.572 700.725 376.338C701.137 375.871 700.818 375.131 700.196 375.108L700.188 375.1Z" fill="#D3DCD7"/>
<path d="M731.988 422.838C743.152 422.838 752.202 412.77 752.202 400.351C752.202 387.931 743.152 377.863 731.988 377.863C720.824 377.863 711.773 387.931 711.773 400.351C711.773 412.77 720.824 422.838 731.988 422.838Z" fill="#D3DCD7"/>
<path d="M766.436 376.08L762.661 362.887C761.984 360.108 758.31 343.303 736.904 339.932C723.104 338.196 713.343 338.383 699.301 339.068C698.997 339.084 698.717 339.278 698.608 339.566L691.735 357.376C691.571 357.812 691.813 358.286 692.264 358.403L707.552 362.357C707.824 362.427 708.112 362.342 708.307 362.139C712.51 357.773 716.659 356.06 719.219 355.313C730.95 351.888 745.147 358.224 754.986 371.254C755.048 371.34 755.134 371.41 755.227 371.464C758.59 373.301 761.952 375.138 765.323 376.975C765.93 377.302 766.631 376.742 766.444 376.08H766.436Z" fill="#D3DCD7"/>
<path d="M797.453 391.088C797.048 389.22 796.208 387.118 794.596 387.032C785.863 386.589 777.106 386.97 768.357 386.962C768.1 386.962 767.867 386.799 767.789 386.55L765.827 380.797C765.742 380.541 765.493 380.369 765.22 380.393L758.168 380.875C757.802 380.899 757.545 381.249 757.623 381.607L765.306 416.471C765.368 416.743 765.602 416.938 765.882 416.945L793.149 417.35C793.39 417.35 793.616 417.21 793.709 416.984L795.024 413.902C795.196 413.505 794.908 413.069 794.48 413.061L769.673 412.688C769.424 412.688 769.198 412.532 769.112 412.291C768.007 409.084 765.446 394.91 768.163 392.551C768.272 392.458 768.419 392.419 768.567 392.426C777.433 392.878 786.299 393.329 795.165 393.773C796.628 393.851 797.757 392.512 797.453 391.08V391.088Z" fill="#D3DCD7"/>
<path d="M705.972 201.17C705.972 201.17 706.027 201.17 706.058 201.17L730.087 199.66C730.398 199.637 730.686 199.481 730.873 199.232L733.768 195.278C734.235 194.64 735.208 194.725 735.559 195.434L741.381 207.195C741.56 207.553 741.918 207.779 742.315 207.779L797.782 208.331C797.992 208.331 798.195 208.402 798.366 208.518L802.865 211.601C802.966 211.671 803.075 211.717 803.192 211.749L825.843 217.719C826.504 217.89 826.94 217.049 826.419 216.613L820.129 211.25C820.044 211.18 819.95 211.118 819.841 211.079C800.717 203.225 777.568 195.465 750.791 189.876C734.469 186.467 719.189 184.373 705.272 183.135C704.797 183.096 704.353 183.384 704.19 183.836L699.411 197.247C698.43 200.088 702.625 201.17 705.965 201.178L705.972 201.17Z" fill="#D3DCD7"/>
<path d="M696.708 320.465L701.464 320.379C702.359 320.364 703.075 319.632 703.075 318.745V284.301C703.075 283.974 703.34 283.71 703.667 283.71H727.338C727.664 283.71 727.929 283.974 727.929 284.301V320.029C727.929 320.558 728.567 320.815 728.941 320.442L733.494 315.779C733.619 315.655 733.79 315.592 733.962 315.6L772.585 319.624C772.834 319.648 773.036 319.811 773.106 320.052L783.957 358.528C784.144 359.182 785.101 359.057 785.109 358.372L785.763 292.568C785.763 292.256 785.521 291.992 785.21 291.976L744.337 288.785C741.434 288.614 739.075 286.372 738.78 283.476L735.238 249.64C734.919 246.566 736.919 243.732 739.924 243.016L748.673 240.915C748.673 240.915 748.727 240.907 748.759 240.899L771.145 238.969C777.878 238.393 783.972 242.962 785.296 249.586L792.223 284.224C792.223 284.224 792.231 284.294 792.231 284.333L792.784 361.236C792.784 361.587 793.095 361.859 793.453 361.812L800.996 360.808C801.136 360.793 801.268 360.723 801.361 360.614L806.475 354.846C806.608 354.69 806.818 354.62 807.012 354.659L827.219 358.107C827.569 358.17 827.896 357.897 827.904 357.539L828.254 331.16C828.27 330.662 828.854 330.405 829.227 330.732L834.225 333.627C834.334 333.721 834.481 333.775 834.629 333.767L891.07 334.125C891.381 334.118 891.646 334.351 891.677 334.663L893.171 351.071C893.218 351.616 893.919 351.802 894.238 351.359C895.203 350.012 896.168 348.673 897.133 347.327C897.203 347.226 897.242 347.101 897.242 346.977C897.164 341.847 896.884 334.6 895.981 325.968C894.712 313.779 893.039 298.919 891.21 298.733C866.333 296.211 818.315 290.046 811.932 290.404C811.659 290.419 811.41 290.233 811.34 289.968L795.002 229.278C794.893 228.865 795.243 228.476 795.664 228.546L868.808 239.988C869.314 240.066 869.672 239.498 869.384 239.078L861.577 227.62C861.491 227.495 861.367 227.41 861.219 227.379L803.276 214.115C803.214 214.099 803.159 214.076 803.105 214.045L797.711 210.807C797.617 210.752 797.516 210.721 797.407 210.721H705.107C698.452 210.721 693.089 216.185 693.221 222.841L695.066 318.861C695.081 319.764 695.829 320.48 696.732 320.465H696.708Z" fill="#D3DCD7"/>
<path d="M867.852 245.149L841.784 287.532C841.449 288.085 841.784 288.793 842.43 288.879L878.983 293.401C879.59 293.479 880.088 292.926 879.956 292.327L869.479 245.429C869.308 244.651 868.28 244.48 867.86 245.157L867.852 245.149Z" fill="#D3DCD7"/>
<path d="M876.115 245.546C876.255 245.896 876.629 246.083 876.995 245.989C878.738 245.538 883.26 244.752 887.324 247.429C889.129 248.62 890.25 250.115 890.912 251.212C891.044 251.438 891.293 251.57 891.55 251.57H892.15C892.578 251.57 892.92 251.212 892.905 250.784L892.617 244.705C892.601 244.363 892.36 244.082 892.025 244.005L875.251 240.3C874.659 240.167 874.161 240.759 874.395 241.319L876.123 245.546H876.115Z" fill="#D3DCD7"/>
<path d="M833.19 345.622C841.861 345.506 850.532 345.397 859.203 345.28C859.359 345.28 859.499 345.21 859.593 345.093C860.262 344.291 863.103 341.24 867.446 341.622C871.167 341.948 873.339 344.548 873.962 345.397C874.063 345.537 874.226 345.615 874.397 345.615C879.566 345.506 884.727 345.389 889.895 345.28C890.175 345.28 890.401 345.046 890.401 344.758V337.994C890.401 337.543 889.872 337.309 889.537 337.605L888.237 338.749C888.136 338.835 888.011 338.882 887.879 338.882L834.124 337.699C834.023 337.699 833.922 337.66 833.836 337.605L831.493 335.963C831.143 335.714 830.66 335.963 830.668 336.399C830.707 337.878 830.902 339.644 831.4 341.59C831.766 343.023 832.233 344.268 832.7 345.319C832.785 345.506 832.972 345.622 833.182 345.622H833.19Z" fill="#D3DCD7"/>
<path d="M840.401 358.325C840.401 358.325 840.44 358.325 840.456 358.325L855.829 359.26C856.187 359.283 856.459 358.956 856.366 358.606C856.062 357.5 855.79 356.037 855.797 354.317C855.797 352.643 856.078 351.219 856.373 350.137C856.467 349.802 856.21 349.475 855.86 349.483C850.201 349.592 844.542 349.709 838.883 349.818C838.79 349.818 838.704 349.794 838.619 349.755L832.991 346.642C832.625 346.44 832.189 346.728 832.22 347.14L832.703 353.196C833.006 355.157 832.633 357.049 840.393 358.318L840.401 358.325Z" fill="#D3DCD7"/>
<path d="M891.286 347.724C891.239 347.28 890.702 347.093 890.391 347.412L889.013 348.829C888.912 348.93 888.772 348.992 888.632 348.985L877.337 348.79C876.956 348.79 876.699 349.164 876.855 349.514C877.252 350.425 877.657 351.608 877.89 353.009C878.186 354.807 878.092 356.364 877.913 357.523C877.859 357.897 878.194 358.201 878.559 358.107C882.879 356.955 887.207 355.795 891.527 354.643C891.776 354.581 891.932 354.34 891.909 354.091L891.286 347.716V347.724Z" fill="#D3DCD7"/>
<path d="M834.792 364.622C845.736 373.612 853.66 370.865 867.811 371.635C869.445 371.721 871.08 371.425 872.567 370.748L891.458 362.123C891.723 361.999 891.839 361.688 891.707 361.423L890.041 357.982C889.924 357.733 889.636 357.624 889.38 357.726L875.937 363.034C875.828 363.081 875.735 363.159 875.672 363.268C875.12 364.248 873.306 366.965 870.527 367.938C865.483 369.596 861.763 368 859.007 364.824C858.922 364.731 858.813 364.669 858.68 364.653C852.375 363.883 846.071 363.112 839.766 362.341C839.68 362.334 839.602 362.302 839.54 362.256L834.2 358.628C833.951 358.465 833.617 358.535 833.461 358.784L832.885 359.726C832.721 359.991 832.667 360.31 832.737 360.613C833.017 361.812 833.391 363.478 834.776 364.614L834.792 364.622Z" fill="#D3DCD7"/>
<path d="M897.284 384.253C897.245 383.872 896.926 383.584 896.544 383.576C895.252 383.545 893.96 383.506 892.66 383.475C892.255 383.467 891.936 383.14 891.921 382.743L891.609 373.971C891.609 373.753 891.687 373.543 891.843 373.395L894.7 370.655C894.863 370.491 894.949 370.266 894.933 370.04L894.427 364.334C894.38 363.805 893.82 363.486 893.337 363.712L868.896 375.364C868.772 375.426 868.632 375.45 868.499 375.434L843.241 373.013C843.155 372.99 843.062 372.967 842.976 372.935L813.515 358.318C813.39 358.247 813.25 358.224 813.11 358.232L806.245 358.676C805.902 358.699 805.622 358.94 805.552 359.275L804.478 362.077C804.439 362.248 804.345 362.396 804.213 362.505L799.8 366.039C799.62 366.187 799.512 366.405 799.512 366.631V400.856C799.512 401.191 799.729 401.494 800.049 401.588C803.256 402.537 807.35 403.44 812.145 403.79C816.963 404.141 821.15 403.837 824.459 403.37C824.661 403.339 824.848 403.23 824.965 403.059C826.794 400.537 828.623 398.007 830.452 395.477C830.592 395.291 830.81 395.174 831.044 395.166L835.488 395.003C835.971 394.987 836.352 395.415 836.267 395.898L834.85 404.001C834.788 404.343 834.5 404.608 834.157 404.631L818.979 406.935C818.403 406.943 817.827 406.958 817.251 406.966L800.204 405.036C799.815 405.02 799.473 405.301 799.418 405.682L797.278 420.043C797.208 420.533 797.604 420.961 798.095 420.915C812.869 419.56 828.382 417.7 844.533 415.201C855.524 413.497 888.223 407.612 895.727 406.351C896.038 406.297 896.28 406.063 896.334 405.76C896.731 403.752 897.066 401.595 897.307 399.291C897.899 393.64 897.743 388.558 897.284 384.253ZM838.197 377.349L836.492 382.011C836.446 382.128 836.438 382.26 836.453 382.385L837.652 390.41C837.714 390.807 837.458 391.173 837.068 391.266L825.19 394.006C825.05 394.037 824.902 394.03 824.77 393.983L810.915 389.219C810.596 389.11 810.385 388.807 810.401 388.464L810.837 378.213C810.853 377.831 811.141 377.528 811.522 377.489L816.356 376.991C817.196 376.905 817.29 375.722 816.48 375.496C815.577 375.247 815.834 373.901 816.768 374.002L837.559 376.321C838.049 376.376 838.36 376.874 838.189 377.341L838.197 377.349ZM888.722 399.346L886.939 397.361C886.776 397.182 886.534 397.089 886.285 397.112L841.645 402.055C841.085 402.117 840.649 401.564 840.843 401.035L846.557 385.6C846.658 385.32 846.923 385.125 847.226 385.102L887.017 382.58C887.414 382.556 887.764 382.836 887.819 383.233L890.029 398.723C890.138 399.47 889.212 399.899 888.706 399.338L888.722 399.346ZM894.956 395.073C894.925 395.656 894.287 395.991 893.789 395.68L891.882 394.489C891.656 394.349 891.524 394.107 891.524 393.843V388.433C891.524 388.013 891.866 387.67 892.287 387.67H894.513C894.949 387.67 895.299 388.036 895.276 388.472L894.956 395.08V395.073Z" fill="#D3DCD7"/>
<path d="M680.896 354.659L682.048 348.378C682.173 347.685 681.628 347.055 680.92 347.086L391.604 359.369C390.841 359.4 390.187 358.839 390.094 358.084L386.326 326.249C386.21 325.283 386.754 324.349 387.65 323.976L404.548 316.822C405.249 316.527 405.973 316.301 406.72 316.153L677.619 261.861C679.09 261.565 680.133 260.242 680.079 258.74L677.378 190.554C677.3 188.631 675.494 187.261 673.626 187.697L383.711 255.151V369.705C383.711 370.577 384.147 371.348 384.808 371.815L384.762 366C384.762 365.362 385.26 364.841 385.898 364.817L679.853 355.554C680.367 355.539 680.803 355.165 680.896 354.652V354.659Z" fill="#D3DCD7"/>
</g>
<defs>
<clipPath id="clip0_1563_154750">
<rect width="984" height="502" fill="white"/>
</clipPath>
</defs>
</svg>
