<svg width="984" height="502" viewBox="0 0 984 502" fill="none" xmlns="http://www.w3.org/2000/svg">
<g clip-path="url(#clip0_1563_154866)">
<rect width="984" height="502" fill="#EFF3F6"/>
<g opacity="0.1">
<path d="M22.8392 -190.515L136.789 3.68982L108.982 -215.105" fill="#6687AD"/>
<path d="M-50.81 137.875L136.789 3.68962L22.8393 -190.516" fill="#809BBA"/>
<path d="M-50.8029 137.876L303.137 308.417L136.796 3.69067" fill="#6687AD"/>
<path d="M136.796 3.69025L303.137 308.416L235.835 -73.2515" fill="#537399"/>
<path d="M683.371 -17.3301L669.064 104.296L576.575 -26.9808L683.371 -17.3301Z" fill="#537399"/>
<path d="M376.885 189.699L527.609 -33.5908L235.833 -73.2515" fill="#99AFC8"/>
<path d="M235.835 -73.2515L376.887 189.699L303.137 308.416L235.835 -73.2515Z" fill="#809BBA"/>
<path d="M427.765 284.224L376.885 189.7L527.609 -33.59L427.765 284.224Z" fill="#537399"/>
<path d="M303.132 308.416L427.762 284.223L376.882 189.698" fill="#99AFC8"/>
<path d="M0.481565 287.395L6.92969 165.637L-50.801 137.875" fill="#537399"/>
<path d="M0.479553 287.396L303.137 308.416L6.92767 165.637" fill="#99AFC8"/>
<path d="M136.786 3.68982L235.824 -73.2519L108.978 -215.105" fill="#99AFC8"/>
<path d="M576.584 -26.9799L669.074 104.297L527.619 -33.59L576.584 -26.9799Z" fill="#6687AD"/>
<path d="M527.619 -33.59L669.074 104.297L427.775 284.224L527.619 -33.59Z" fill="#809BBA"/>
<path d="M427.775 284.222L669.074 104.295L656.682 230.813L427.775 284.222Z" fill="#99AFC8"/>
<path d="M656.675 230.813L669.067 104.295L745.336 210.189L656.675 230.813Z" fill="#809BBA"/>
<path d="M669.067 104.295L683.374 -17.3308L745.336 210.189L669.067 104.295Z" fill="#99AFC8"/>
<path d="M683.373 -17.3308L745.738 12.5469L745.335 210.189" fill="#809BBA"/>
<path d="M682.97 -17.33L745.033 -48.2654L745.738 12.5477" fill="#809BBA"/>
<path d="M537.777 487.814L427.757 284.223L303.127 308.416" fill="#6687AD"/>
<path d="M745.336 210.189L492.148 403.337L427.768 284.223L745.336 210.189Z" fill="#537399"/>
<path d="M745.336 210.189L537.788 487.814L492.148 403.337L745.336 210.189Z" fill="#99AFC8"/>
<path d="M460.508 428.72L346.759 517.957L303.134 308.416L460.508 428.72Z" fill="#537399"/>
<path d="M346.754 517.956L303.129 308.416L305.647 541.621" fill="#99AFC8"/>
<path d="M123.396 404.131L303.137 308.416L0.479553 287.396" fill="#6687AD"/>
<path d="M123.397 404.13L305.656 541.621L303.137 308.416" fill="#809BBA"/>
<path d="M-10.105 471.818L123.391 404.131L0.4739 287.396" fill="#537399"/>
<path d="M-169.386 353.629L-6.87438 414.575L0.480469 287.396" fill="#6687AD"/>
<path d="M745.739 12.5474L977.367 -47.208L1028.25 108.394" fill="#537399"/>
<path d="M745.031 -48.2654L977.363 -47.2078L745.736 12.5477" fill="#99AFC8"/>
<path d="M745.739 12.5481L1028.25 108.395L1005.98 136.95" fill="#6687AD"/>
<path d="M745.74 12.5481L1005.98 136.95L745.337 210.19" fill="#99AFC8"/>
<path d="M745.337 210.19L1005.98 136.95L880.142 303.128L745.337 210.19Z" fill="#6687AD"/>
<path d="M745.339 210.189L880.145 303.128L667.559 581.149L745.339 210.189Z" fill="#537399"/>
<path d="M745.336 210.189L667.556 581.149L537.788 487.814L745.336 210.189Z" fill="#809BBA"/>
<path d="M1019.58 396.462L880.138 303.128L1005.98 136.95" fill="#537399"/>
<path d="M1019.58 396.463L667.553 581.15L880.138 303.128" fill="#809BBA"/>
<path d="M1148.34 480.544L775.967 640.773L1019.58 396.463" fill="#537399"/>
<path d="M1019.58 396.463L775.961 640.773L667.553 581.15" fill="#99AFC8"/>
<path d="M460.501 428.719L537.777 487.814L346.753 517.956L460.501 428.719Z" fill="#99AFC8"/>
<path d="M394.313 619.885L667.551 581.15L537.783 487.815" fill="#99AFC8"/>
<path d="M346.753 517.957L394.307 619.885L537.777 487.815" fill="#809BBA"/>
<path d="M305.656 541.62L57.2033 437.709L123.397 404.13L305.656 541.62Z" fill="#6687AD"/>
<path d="M305.656 541.621L-10.0986 471.819L57.2033 437.71" fill="#99AFC8"/>
<path d="M1152.57 582.074L775.962 640.772L1148.34 480.543" fill="#99AFC8"/>
<path d="M175.09 705.023L-141.471 627.42L-10.0911 471.818" fill="#537399"/>
<path d="M305.656 541.621L175.082 705.023L-10.0986 471.818" fill="#6687AD"/>
</g>
<g opacity="0.3">
<path d="M644.076 470C764.94 470 862.921 371.95 862.921 251C862.921 130.05 764.94 32 644.076 32C523.211 32 425.23 130.05 425.23 251C425.23 371.95 523.211 470 644.076 470Z" fill="#CCD7E4"/>
<path d="M497.849 396.306C502.888 392.743 503.807 392.657 507.109 389.149C512.054 383.882 513.713 380.553 515.402 375.045C515.729 373.98 516.461 371.669 518.587 369.74C522.24 366.434 524.21 367.391 527.613 367.025C529.326 366.846 530.705 366.449 531.795 365.944C540.587 361.875 540.618 351.537 541.046 347.336C541.708 341.315 542.908 339.619 545.111 334.874C546.996 330.821 549.138 327.523 551.077 324.948C551.746 324.061 552.533 323.291 553.358 322.552C555.064 321.019 555.959 318.748 555.71 316.453C555.399 313.621 554.013 312.828 550.641 310.401L543.951 304.901C543.204 304.286 542.713 303.423 542.565 302.474L542.3 300.739C542.168 299.899 541.763 299.113 541.14 298.538C538.025 295.636 534.746 292.913 531.803 289.841C530.993 289 530.276 287.958 528.01 287.608C525.915 287.289 525.752 287.522 524.054 287.935C520.682 288.759 517.061 289.265 513.611 289.677C513.097 289.74 512.646 289.288 512.755 288.783C512.864 288.261 512.809 287.725 512.576 287.25C512.186 286.472 511.368 285.967 510.465 285.92C510.052 285.904 509.772 285.5 509.858 285.095C510.722 281.276 511.984 278.615 512.505 274.508C512.755 272.322 512.77 271.723 512.7 271.077C512.264 266.783 507.467 264.597 507.031 264.403L493.387 256.787C491.9 255.955 490.685 254.718 489.883 253.217L487.204 248.176C486.589 247.017 485.701 246.021 484.619 245.282C480.063 242.155 475.515 239.02 470.959 235.893C470.414 235.496 468.343 234.096 465.446 234.321C462.043 234.593 461.287 235.869 459.714 237.324C458.99 237.993 457.417 239.152 455.112 239.673C452.822 240.194 450.86 239.821 449.637 239.44C449.357 239.354 449.162 239.346 448.968 239.448C448.539 239.673 448.018 239.432 447.831 238.989L447.667 238.6C447.488 238.172 447.395 237.713 447.379 237.254L447.153 224.908C447.068 219.269 445.868 220.529 444.272 218.965C443.836 218.537 443.657 217.495 443.594 216.305C443.548 215.433 443.898 214.842 444.163 214.368C446.312 210.439 446.39 206.309 447.387 201.734C447.574 200.894 447.691 200.326 447.192 199.883C446.663 199.416 445.899 199.587 445.253 200.015C442.045 202.131 441.172 204.263 439.888 207.724C439.693 208.09 438.821 209.591 436.944 210.206C436.477 210.361 436.033 210.431 435.628 210.455C434.802 210.501 434.218 209.661 434.561 208.907L449.085 177.666C449.388 177.005 450.245 176.826 450.79 177.292C451.031 177.495 451.273 177.705 451.514 177.907C452.161 178.459 453.173 178.148 453.391 177.324C453.445 177.121 453.5 176.95 453.562 176.787C454.691 173.932 458.702 172.236 463.554 172.617C465.057 172.726 466.528 173.457 469.028 172.244C470.64 171.458 471.598 170.276 472.766 168.891C486.628 155.425 498.955 143.461 512.825 129.995C514.11 128.377 516.345 126.892 518.315 127.677C519.989 128.346 521.048 130.135 520.9 132.026C520.854 132.664 521.329 133.216 521.959 133.278C524.202 133.519 524.327 133.706 526.554 134.079C531.522 134.904 533.391 134.204 533.968 132.601C534.404 131.388 533.664 130.532 532.379 128.766C530.619 126.355 528.501 124.239 526.554 121.967C526.344 121.804 523.735 119.665 524.202 117.852C524.654 116.086 530.214 115.052 533.314 116.327L537.083 118.459C539.24 119.813 541.187 119.54 541.233 119.089C541.366 117.914 538.936 116.646 540.416 116.211C542.012 115.744 546.926 114.888 551.435 112.944C555.414 111.224 558.444 109.07 560.624 107.327C561.714 106.059 564.323 104.254 559.705 104.776C558.007 104.908 555.593 103.539 554.604 100.629C553.841 98.3889 554.41 96.2185 557.026 93.5191C557.33 93.208 557.034 92.6868 556.606 92.7412L545.68 94.9505C544.847 95.0827 544.333 94.8727 544.403 94.0326L544.613 91.5199C544.761 89.8474 544.154 88.9217 543.126 88.3771C541.716 87.6381 539.762 88.0815 538.22 89.3106C536.701 90.4853 537.059 90.1041 535.377 91.481C533.882 92.7101 532.215 95.1605 531.032 95.7517C530.128 96.1874 529.124 96.343 528.135 96.2107L526.367 95.9773C526.017 95.9307 525.674 96.1407 525.565 96.4752L524.895 98.4511C524.459 99.7346 523.626 100.847 522.52 101.633C519.21 103.974 512.599 108.346 511.68 108.961C510.886 109.49 510.232 110.198 509.756 111.022C507.794 114.414 506.205 117.012 505.73 116.818C505.115 116.561 504.157 114.772 507.397 107.49C507.498 107.257 507.311 107.008 507.062 107.047C502.576 107.77 499.275 105.616 499.018 103.601C498.807 101.944 500.583 99.8902 503.207 98.7C513.393 93.8225 525.051 91.2476 533.757 84.0597C534.513 83.4374 535.042 82.6673 534.801 81.4459C534.505 79.9212 533.033 78.0776 529.435 79.1589L505.17 92.0878C504.469 92.4612 503.628 92.4612 502.927 92.0956L496.713 88.8439C461.241 121.042 436.383 164.706 428.004 213.971L431.656 212.088C432.108 215.052 432.56 218.016 433.011 220.98C433.12 221.688 433.728 222.201 434.444 222.232C434.584 222.232 434.709 222.256 434.826 222.271C435.371 222.357 438.151 223.905 438.634 227.079C439.374 231.785 440.246 235.021 442.037 239.012C443.999 243.399 446.086 246.021 447.986 247.896C449.085 248.977 449.528 250.564 449.123 252.05C445.043 262.365 449.583 260.972 445.261 266.285C444.949 266.628 442.94 268.899 443.47 271.778C443.649 272.758 444.062 273.505 444.389 273.956C445.191 275.099 445.502 275.605 445.393 276.702C445.269 277.946 444.124 278.67 443.867 278.833C442.006 280.327 440.183 281.781 440.409 286.301C440.549 289.063 441.967 291.008 443.034 292.104C443.914 292.999 444.607 294.065 445.09 295.224C446.616 298.896 448.15 302.559 449.676 306.231C450.081 307.204 450.299 308.246 450.338 309.304C450.44 312.151 450.899 315.792 452.27 319.798C454.629 326.698 458.57 331.42 461.303 334.119C462.167 334.975 462.323 336.072 462.611 336.648C464.737 342.505 465.594 341.603 466.108 346.169C466.466 349.351 465.89 352.416 465.5 354.119C464.41 360.319 464.636 362.91 465.773 368.869C467.237 376.562 471.707 385.049 475.289 390.58C481.628 398.211 488.473 405.407 495.778 412.113C495.669 406.364 493.473 399.378 497.842 396.29L497.849 396.306Z" fill="#6687AD"/>
<path d="M568.375 72.7886C566.451 72.5085 565.151 72.7886 564.115 73.0608C563.71 73.1697 563.289 73.1853 562.877 73.1308C561.716 72.9753 559.178 72.8897 557.449 74.6711C556.771 75.3712 556.421 76.1569 556.226 76.7637L554.209 80.451C553.89 81.0344 553.345 81.4545 552.699 81.6023C551.476 81.8746 551.079 82.4736 550.993 82.6058C550.121 84.006 551.235 86.9232 554.451 89.1792C559.785 89.9726 560.782 89.8326 563.671 89.5603C564.403 89.4903 565.088 89.1558 565.587 88.6191L572.782 80.91C573.125 80.5366 573.374 80.0854 573.483 79.5953C573.6 79.0741 573.686 78.4751 573.717 77.8139C573.779 76.367 574.161 75.6591 573.281 74.3755C572.315 73.8699 570.314 73.0764 568.375 72.7963V72.7886Z" fill="#6687AD"/>
<path d="M620.548 88.821C620.649 88.8366 620.742 88.8677 620.844 88.8988C621.856 89.2722 623.382 89.669 625.212 89.5678C629.13 89.35 631.769 87.0085 632.743 86.0206C632.906 85.8494 633.109 85.725 633.327 85.6394C642.734 81.9443 643.762 84.2314 647.173 84.8148C648.653 85.0715 650.062 85.7094 651.557 85.8572C655.848 86.2773 658.769 86.3628 660.793 86.2773C662.74 86.1917 663.76 83.9046 662.514 82.4111C661.72 81.462 661.05 80.1862 660.832 78.5137C660.824 78.4437 660.817 78.3737 660.817 78.3037C660.801 77.0123 662.343 76.2733 663.41 77.0123C663.753 77.2457 664.173 77.4791 664.671 77.658C666.665 78.3504 668.464 77.6036 669.032 77.3313C669.087 77.3002 669.149 77.2768 669.212 77.2535C675.348 75.0053 682.24 73.8929 687.847 70.8435C688.501 70.4857 688.314 69.4977 687.582 69.3888C680.449 68.0897 673.121 66.8606 665.598 65.7249C657.305 64.4646 649.198 63.3756 641.294 62.4343C639.417 62.2087 637.54 62.0687 635.655 61.9831C626.482 61.563 616.825 61.4074 606.725 61.6097C601.196 61.7186 595.815 61.9286 590.582 62.2165C588.931 62.3098 587.661 63.6945 587.708 65.3359L587.981 75.4099C588.004 76.2578 588.65 76.9579 589.491 77.059C597.372 77.9692 601.328 79.0038 601.36 80.1629C601.391 81.2442 597.995 82.4266 591.166 83.7179C591.033 83.7413 590.893 83.7802 590.769 83.8424C586.774 85.6549 586.797 89.949 587.716 92.5784C589.071 96.4446 595.823 99.1906 603.057 95.9389C603.182 95.8845 603.306 95.8067 603.415 95.7211C613.438 87.9031 615.914 88.012 620.563 88.8366L620.548 88.821Z" fill="#6687AD"/>
<path d="M564.561 118.366L560.2 115.643C559.772 114.749 559.204 114.305 558.869 114.087C557.389 113.792 555.388 113.916 553.2 114.858C550.17 115.923 548.511 114.904 547.227 116.297C546.019 117.604 545.334 118.218 544.96 118.91C543.06 119.237 541.884 119.323 541.822 120.241C541.783 120.785 542.391 121.198 544.376 122.831C548.652 127.102 550.256 125.095 552.686 123.617C555.544 121.874 555.855 120.793 558.978 120.108C559.741 119.937 560.465 119.86 561.112 119.836C561.501 119.821 561.883 119.774 562.264 119.681C562.988 119.502 563.713 119.331 564.445 119.152C564.818 119.058 564.896 118.568 564.569 118.366H564.561Z" fill="#6687AD"/>
<path d="M828.18 132.174H822.776C817.426 131.956 812.706 126.402 811.219 124.465C810.791 123.905 810.308 123.383 809.778 122.917C808.026 121.376 805.145 119.315 801.119 118.117C797.583 117.067 794.507 117.09 792.552 117.269C791.283 117.417 788.394 117.674 788.168 116.942C787.927 116.164 794.795 111.902 797.98 109.793C798.3 109.583 798.136 109.085 797.754 109.109L790.559 109.498C789.819 109.537 788.153 109.272 787.553 108.844C787.553 108.844 776.137 102.605 764.463 90.9757C762.54 89.062 760.344 88.5875 754.62 93.4884C748.795 99.8283 742.199 101.314 740.205 97.4557C739.247 95.6121 735.782 95.9699 735.782 95.9699C726.297 96.9501 723.696 104.682 724.747 107.6C725.954 110.937 731.553 110.517 734.077 110.999C737.612 112.22 738.593 114.554 738.001 116.094C737.441 117.549 736.21 117.65 734.341 117.79C725.214 118.475 718.517 118 710.333 118.047C709.858 118.047 709.398 118.171 708.985 118.413L700.505 123.298C699.983 123.594 699.897 124.301 700.31 124.729C700.801 125.243 701.346 125.966 701.728 126.939C702.53 129 702.171 130.859 701.891 131.38C699.041 136.67 698.13 140.179 698.651 144.613C698.69 144.963 698.356 145.235 698.028 145.118C697.024 144.045 689.416 136.133 682.267 138.273H682.243C680.982 138.662 679.814 139.478 679.619 140.933C676.925 161.268 677.205 164.597 682.337 167.172C683.341 167.678 685.428 168.355 689.112 167.11C689.766 166.884 690.459 166.791 691.152 166.791H697.491C698.013 166.791 698.488 166.503 698.722 166.036C699.578 164.333 700.988 162.069 703.269 159.93C707.187 156.25 711.462 154.974 713.541 154.508C721.983 153.069 720.596 150.953 727.309 152.088C731.086 152.726 734.31 153.854 735.517 155.418C740.556 161.952 743.889 164.652 748.078 169.272C748.32 169.623 749.628 170.657 750.368 170.937C751.894 171.521 753.039 168.977 754.721 168.222C756.325 167.507 756.761 168.837 757.112 169.265L761.037 174.881C761.527 176.219 761.979 176.779 762.999 177.005C764.066 177.238 764.634 175.752 765.748 175.799C767.321 175.861 766.792 175.768 767.843 176.974C768.396 178.872 768.544 179.051 769.377 179.066C770.234 179.082 770.95 178.164 770.981 176.974C771.036 174.881 773.473 174.936 776.409 175.931C779.345 176.834 782.553 175.869 784.492 173.512C786.47 171.093 786.743 167.678 785.178 164.955C782.966 158.141 790.512 157.666 792.833 160.241C795.652 164.753 797.505 166.83 798.393 166.48C798.751 166.34 798.946 165.741 798.985 164.807C799.016 164.092 799.265 163.384 799.779 162.878C800.441 162.217 801.453 161.983 802.513 165.336L807.878 178.794C808.532 180.428 808.859 181.727 808.011 182.326C807.31 182.816 806.414 181.898 805.129 181.672C779.547 177.153 774.758 182.808 788.519 189.109C789.858 189.724 791.322 190.019 792.794 190.012C794.429 190.004 796.828 190.354 798.455 192.198C799.164 192.999 799.546 193.878 799.764 194.617C799.958 198.856 800.153 203.104 800.355 207.343C800.394 208.098 799.787 208.736 799.032 208.736H785.52C785.022 208.736 784.64 209.164 784.687 209.654L785.31 215.652C785.357 216.072 785.575 216.453 785.925 216.694L796.104 223.843C800.464 226.799 814.723 265.617 814.723 265.617C817.348 273.59 818.072 275.014 819.006 275.061C819.801 275.1 819.809 273.17 821.234 272.252C825.486 269.506 827.861 269.989 832.658 268.791C838.335 267.204 842.774 262.949 844.066 257.612C845.78 250.518 841.574 242.785 833.966 239.253C827.907 236.437 824.177 235.13 825.618 228.464C826.794 226.387 830.547 223.789 835.235 228.596C838.078 231.513 840.274 235.037 842.376 236.188C843.14 236.608 843.848 237.114 844.401 237.775C845.188 238.717 846.021 239.611 846.94 240.428C847.983 241.362 849.089 242.505 850.156 243.89C853.551 248.316 854.696 252.859 855.125 255.481C856.114 269.724 857.11 283.976 858.099 298.219C861.464 282.98 863.231 267.149 863.231 250.907C863.231 207.133 850.366 166.355 828.211 132.151L828.18 132.174Z" fill="#6687AD"/>
<path d="M771.161 350.564C771.581 349.04 772.158 347.562 772.835 346.138C775.421 340.708 777.492 337.013 778.162 336.546C779.408 335.683 779.859 336.352 782.188 335.302C784.322 333.691 786.105 331.521 788.239 329.911C792.498 326.651 799.756 320.039 803.284 309.428C804.172 306.768 804.951 306.262 804.982 301.945C804.764 300.98 804.592 299.526 805.013 297.892C805.48 296.087 806.438 294.905 806.944 294.36C808.058 293.131 809.055 291.295 810.363 289.249C811.149 288.02 811.523 287.235 811.328 286.814C810.526 285.562 809.662 286.589 805.379 285.998C804.717 285.827 804.086 285.616 803.479 285.375C793.807 281.501 795.24 269.662 789.602 263.78C788.94 263.236 788.036 262.341 787.257 261.058C785.241 257.752 785.568 254.321 785.755 253.061C785.98 251.085 786.315 247.444 785.513 243.695C784.781 240.28 784.166 238.973 782.671 236.382C782.188 235.542 781.845 234.624 781.674 233.668C780.498 227.211 778.022 222.87 778.232 221.462C778.356 220.622 778.754 219.836 779.338 219.214C779.696 218.833 780.085 218.413 780.373 218.102C780.568 217.884 780.724 217.635 780.809 217.355C781.44 215.363 781.534 213.753 781.432 212.742C781.355 211.902 781.175 211.155 780.973 210.517C780.599 209.373 779.673 208.494 778.512 208.16C770.88 205.982 765.717 203.415 758.086 201.236C757.362 201.026 756.692 200.661 756.123 200.155C755.454 199.883 754.636 199.471 753.795 198.833C752.269 197.681 751.389 196.343 750.913 195.48C749.66 193.66 748.421 192.742 747.503 194.749C746.591 196.74 745.719 198.615 745.719 198.615C744.894 200.272 745.011 202.084 744.279 202.582C743.126 203.36 742.028 202.839 739.7 201.322C738.01 200.217 736.585 199.572 735.744 198.918C733.61 197.254 731.157 194.671 729.895 190.976C729.771 190.602 729.599 190.252 729.319 189.996C728.75 189.474 727.878 189.342 727.099 189.638C726.165 189.988 725.121 189.988 724.156 189.739C724.132 189.739 724.117 189.731 724.094 189.723C723.175 189.482 722.131 189.085 721.08 188.424C719.156 187.218 717.949 185.624 717.209 184.247C716.742 183.391 716.485 182.434 716.438 181.462C716.322 178.825 715.457 172.601 708.97 172.975L691.729 172.788L674.542 172.174C666.778 172.088 664.076 169.677 656.833 176.125C654.419 178.272 652.994 180.738 652.145 182.823C651.211 185.11 649.233 186.798 646.827 187.366C642.621 188.346 636.228 190.89 632.03 197.464C628.401 203.15 628.23 209.008 628.627 212.679C628.838 214.632 627.864 216.538 626.127 217.448C623.41 218.872 621.541 220.98 621.175 223.399C621.136 223.64 621.112 223.913 621.105 224.208C621.089 225.422 620.816 226.62 620.225 227.678C618.589 230.634 616.767 235.076 616.658 240.583C616.627 242.046 616.728 243.399 616.892 244.636C617.04 245.717 617.117 246.814 617.117 247.903V267.748C617.117 268.946 617.694 270.074 618.667 270.774L636.477 283.641C637.248 284.061 639.491 285.158 642.427 284.753C646.211 284.232 646.842 282.093 648.773 281.027C655.525 277.238 657.931 278.164 660.221 278.569C666.801 280.078 675.157 282.754 680.172 281.548C681.076 281.315 681.987 281.61 682.462 282.264C682.859 282.816 682.812 283.438 682.789 283.633C682.75 283.905 682.337 287.413 685.016 289.755C687.056 291.536 689.782 290.875 692.601 290.688C693.224 290.65 696.9 291.256 698.621 294.874C699.859 297.48 699.368 299.86 698.886 300.49C695.786 304.59 694.859 308.37 696.207 309.771C696.495 310.066 697.071 310.051 698.231 310.424C698.823 310.611 699.088 311.054 699.018 312.058C698.956 312.898 698.317 313.365 698.231 313.427C697.235 314.166 696.814 315.457 697.188 316.632C697.546 317.775 698.839 317.931 699.804 318.654C701.206 319.705 701.432 321.058 701.635 323.493C701.798 325.461 701.3 327.001 700.98 327.803C698.909 330.798 696.043 335.745 694.439 342.443C693.637 345.811 693.325 348.907 693.263 351.552C693.201 354.477 692.975 357.402 692.477 360.288C691.931 363.392 691.573 367.048 691.69 371.132C691.815 375.372 692.422 379.059 693.131 382.046C695.007 392.766 696.884 403.478 698.753 414.197C699.275 416.71 699.438 417.854 700.91 419.161C703.153 420.88 706.805 420.592 709.352 418.118C721.485 408.153 727.629 406.823 730.869 406.131C733.065 405.664 735.152 405.415 737.091 405.306C737.426 405.283 740.587 404.979 742.386 402.101C744.154 399.269 743.103 396.352 742.978 396.025C742.635 395.442 742.62 394.726 742.947 394.166C743.336 393.489 744.123 393.334 744.941 393.287C747.129 393.155 747.861 392.284 749.582 390.246C751.459 388.036 751.793 385.656 751.871 384.792C751.879 384.03 751.957 382.832 752.3 381.424C753.32 377.208 755.921 374.462 757.369 373.155C769.798 360.382 770.063 354.135 770.616 352.408C770.818 351.778 770.997 351.163 771.169 350.541L771.161 350.564Z" fill="#6687AD"/>
<path d="M809.076 363.899L809.138 362.086C809.154 361.697 808.718 361.456 808.398 361.681L805.953 363.37C805.626 363.595 805.174 363.556 804.886 363.276L802.098 360.538C801.833 360.273 801.374 360.429 801.327 360.802C800.915 363.704 801.226 365.952 800.081 369.515C799.412 371.592 797.986 374.128 795.962 376.835C794.272 379.083 792.535 380.803 791.056 382.063C791.056 382.063 771.953 394.61 771.953 395.132C770.154 396.088 769.15 398.072 769.469 400.033C769.757 401.845 771.12 403.339 772.934 403.821C777.677 404.505 780.068 403.362 783.074 400.289C783.393 399.963 784.281 399.255 785.628 399.045C787.473 398.765 788.821 399.729 789.163 399.892C791.422 401.005 794.474 400.81 798.259 397.994C802.129 395.116 803.656 388.815 802.122 384.467C801.81 383.587 802.052 381.028 803.625 378.453C805.034 376.143 806.303 374.992 807.814 374.595C809.543 374.144 811.163 373.42 811.677 371.787C812.035 370.627 811.646 368.426 810.244 366.909C809.481 366.084 809.052 365.003 809.091 363.883L809.076 363.899Z" fill="#6687AD"/>
</g>
<path fill-rule="evenodd" clip-rule="evenodd" d="M805.645 219.557H872.67C875.527 219.557 877.839 221.869 877.839 224.726C877.839 227.583 875.527 229.895 872.67 229.895H871.257C874.061 233.009 876.662 235.824 879.08 238.446C904.689 266.185 909.174 271.043 899.082 349.861L890.938 419.005C890.488 422.761 887.31 425.597 883.521 425.597H794.772C790.984 425.597 787.795 422.761 787.356 419.005L779.212 349.861C769.109 271.043 773.604 266.185 799.213 238.446C801.632 235.824 804.243 232.998 807.036 229.895H805.634C802.777 229.895 800.465 227.583 800.465 224.726C800.465 221.869 802.788 219.557 805.645 219.557Z" fill="#6687AD"/>
<path d="M865.133 237.761H813.177C810.929 237.761 808.767 238.714 807.248 240.383C779.466 270.84 774.147 270.915 784.036 348.075L791.527 411.653C791.934 415.11 794.866 417.711 798.344 417.711H879.955C883.433 417.711 886.366 415.11 886.772 411.653L894.263 348.075C904.152 270.904 898.833 270.84 871.051 240.383C869.532 238.724 867.391 237.761 865.133 237.761Z" fill="#CCD7E4"/>
<path d="M880.048 290.339H798.244C796.072 290.339 794.316 292.094 794.316 294.267V312.075C794.316 314.247 796.072 316.002 798.244 316.002H880.048C882.22 316.002 883.975 314.247 883.975 312.075V294.267C883.975 292.094 882.22 290.339 880.048 290.339Z" fill="#6687AD"/>
<path fill-rule="evenodd" clip-rule="evenodd" d="M829.2 294.546C824.599 294.546 821.388 298.152 821.388 303.311C821.388 308.469 824.502 311.797 828.965 311.797C832.85 311.797 836.777 309.079 836.777 303.011C836.777 297.949 833.727 294.546 829.2 294.546ZM833.567 303.097C833.567 306.072 832.175 309.068 829.083 309.068C825.99 309.068 824.62 306.061 824.62 303.257C824.62 300.271 826.011 297.264 829.104 297.264C832.197 297.264 833.567 300.293 833.567 303.097ZM822.276 294.803H809.605V297.596H814.368V311.54H817.482V297.596H822.276V294.803ZM846.43 294.803H850.026L844.921 302.968L850.122 311.54H846.516L844.365 307.805C843.83 306.938 843.401 306.221 843.016 305.547C842.684 306.179 842.299 306.874 841.732 307.837L839.709 311.54H836.124L841.24 303.075L836.317 294.803H839.923L842.149 298.752C842.278 298.987 842.406 299.212 842.524 299.426C842.749 299.833 842.952 300.196 843.145 300.55C843.444 299.95 843.755 299.394 844.14 298.741L846.43 294.803ZM854.093 294.803H851V311.54H854.093V294.803ZM864.313 309.004C865.447 309.004 866.624 308.768 867.384 308.405H867.363L867.951 308.126L868.647 310.78L868.262 310.973C867.491 311.358 865.929 311.776 863.885 311.776C858.865 311.776 855.612 308.469 855.612 303.311C855.612 298.152 859.197 294.546 864.323 294.546C866.667 294.546 867.951 295.124 868.294 295.306L868.69 295.509L867.898 298.184L867.331 297.906C866.881 297.682 865.886 297.307 864.409 297.307C860.92 297.307 858.833 299.619 858.833 303.236C858.833 306.853 860.877 309.004 864.313 309.004Z" fill="#CCD7E4"/>
<path fill-rule="evenodd" clip-rule="evenodd" d="M833.446 349.862V347.401C832.965 347.144 832.462 347.133 831.948 347.122C830.161 347.069 828.384 347.015 827.849 336.87C827.774 335.383 828.095 333.906 828.823 332.6C829.283 331.787 829.904 330.899 830.76 330.064C834.046 326.864 838.23 326.843 839.129 326.864C840.028 326.843 844.202 326.864 847.498 330.064C848.354 330.899 848.975 331.776 849.435 332.6C850.152 333.895 850.483 335.383 850.409 336.87C849.873 347.015 848.097 347.069 846.299 347.122C845.785 347.133 845.282 347.155 844.801 347.401V349.862C844.801 351.061 843.827 352.035 842.628 352.035H835.619C834.42 352.035 833.446 351.061 833.446 349.862ZM844.062 337.566C843.089 336.902 841.366 337.116 840.67 337.908H840.681C840.456 338.165 840.37 338.561 840.392 339C840.435 340.081 841.034 341.055 841.89 341.697C842.425 342.103 842.907 342.36 843.848 342.713C844.844 343.099 846.973 342.178 846.01 339.963C845.368 338.818 844.972 338.336 844.062 337.566ZM841.537 343.955L839.247 341.322H839.268C839.054 341.087 838.69 341.087 838.487 341.322L836.197 343.955C836.025 344.147 836.004 344.426 836.132 344.64L836.71 345.603C836.849 345.817 837.085 345.956 837.342 345.956H840.392C840.649 345.956 840.895 345.828 841.023 345.603L841.601 344.64C841.729 344.426 841.708 344.147 841.537 343.955ZM833.66 337.566C832.751 338.336 832.355 338.818 831.713 339.963C830.75 342.178 832.879 343.099 833.874 342.713C834.816 342.36 835.298 342.103 835.833 341.697C836.689 341.044 837.288 340.07 837.331 339C837.352 338.572 837.267 338.165 837.042 337.908C836.347 337.116 834.624 336.902 833.66 337.566ZM853.501 363.592C853.908 362.8 854.818 362.308 855.813 362.565C856.509 362.747 857.065 363.325 857.226 364.02C857.418 364.855 857.076 365.636 856.476 366.086C856.262 366.246 856.123 366.482 856.123 366.749C856.134 367.145 856.006 367.584 855.524 368.098C855.117 368.537 854.55 368.836 853.951 368.783C852.934 368.697 852.142 367.841 852.142 366.803C852.142 366.418 852.26 366.054 852.453 365.743L839.14 359.387L825.827 365.743C826.019 366.054 826.137 366.407 826.137 366.803C826.137 367.83 825.345 368.686 824.328 368.783C823.729 368.836 823.173 368.537 822.755 368.098C822.274 367.584 822.145 367.145 822.156 366.749C822.156 366.482 822.017 366.246 821.803 366.086C821.204 365.647 820.861 364.866 821.054 364.02C821.214 363.325 821.771 362.747 822.466 362.565C823.462 362.308 824.371 362.8 824.778 363.592L836.368 358.06L824.831 352.548C824.468 353.415 823.515 353.972 822.477 353.704C821.781 353.522 821.225 352.944 821.064 352.249C820.872 351.414 821.214 350.633 821.814 350.183C822.028 350.023 822.167 349.787 822.167 349.52C822.145 349.124 822.284 348.685 822.766 348.171C823.173 347.732 823.74 347.433 824.339 347.486C825.356 347.572 826.148 348.428 826.148 349.466C826.148 349.809 826.041 350.119 825.891 350.397L839.14 356.722L852.388 350.397C852.239 350.119 852.132 349.809 852.132 349.466C852.132 348.439 852.923 347.583 853.94 347.486C854.539 347.433 855.096 347.732 855.513 348.171C855.995 348.685 856.123 349.124 856.113 349.52C856.113 349.787 856.252 350.023 856.466 350.183C857.065 350.622 857.407 351.403 857.215 352.249C857.054 352.944 856.498 353.522 855.802 353.704C854.764 353.972 853.812 353.415 853.448 352.548L841.911 358.06L853.501 363.592Z" fill="#6687AD"/>
<path d="M709.792 230.964C712.083 230.964 713.891 228.91 713.485 226.545C713.163 224.715 711.441 223.473 709.589 223.473H708.166C708.091 223.473 708.016 223.409 708.016 223.323V166.294C708.016 166.219 708.08 166.144 708.166 166.144H709.589C711.441 166.144 713.174 164.892 713.485 163.073C713.891 160.708 712.083 158.653 709.792 158.653H550.669C548.881 158.653 547.255 159.862 546.902 161.617C546.42 164.025 548.25 166.144 550.572 166.144H552.36V223.462H550.679C548.892 223.462 547.266 224.672 546.912 226.427C546.431 228.835 548.261 230.954 550.583 230.954H552.37V335.253H550.54C549.117 335.253 547.758 336.044 547.191 337.35C546.003 340.09 547.993 342.744 550.583 342.744H552.37V400.062H550.54C549.117 400.062 547.758 400.854 547.191 402.16C546.003 404.899 547.993 407.553 550.583 407.553H709.739C711.366 407.553 712.885 406.558 713.378 405.006C714.18 402.427 712.275 400.062 709.825 400.062H708.037V342.744H709.75C711.376 342.744 712.896 341.748 713.388 340.197C714.191 337.618 712.286 335.253 709.835 335.253H708.048V231.103C708.048 231.029 708.112 230.954 708.198 230.954L709.792 230.964Z" fill="#6687AD"/>
<path fill-rule="evenodd" clip-rule="evenodd" d="M700.453 169.654H559.79C558.152 169.654 556.836 170.992 556.836 172.619V220.231C556.836 221.868 558.163 223.184 559.79 223.184H700.453C702.165 223.184 703.556 221.793 703.556 220.081V172.758C703.556 171.046 702.165 169.654 700.453 169.654ZM700.465 234.415H559.801C558.164 234.415 556.848 235.742 556.848 237.369V328.847C556.848 330.484 558.175 331.801 559.801 331.801H700.604C702.241 331.801 703.557 330.474 703.557 328.847V237.508C703.557 235.796 702.177 234.415 700.465 234.415ZM559.79 343.033H700.603C702.229 343.033 703.556 344.36 703.556 345.986V393.598C703.556 395.225 702.229 396.552 700.603 396.552H559.79C558.152 396.552 556.836 395.225 556.836 393.598V345.986C556.836 344.36 558.152 343.033 559.79 343.033Z" fill="#CCD7E4"/>
<path d="M630.2 249.04C611.387 249.04 596.137 264.29 596.137 283.103C596.137 301.917 611.387 317.167 630.2 317.167C649.014 317.167 664.264 301.917 664.264 283.103C664.264 264.29 649.014 249.04 630.2 249.04Z" fill="#6687AD"/>
<path d="M603.98 293.736C605.767 287.015 611.096 282.595 616.49 282.617C616.383 283.312 616.308 284.019 616.308 284.746C616.308 290.322 619.626 295.127 624.377 297.332V297.353C621.819 302.201 615.27 304.759 608.442 303.004C613.568 306.953 619.829 308.076 624.613 305.679C626.871 304.555 628.369 302.854 629.311 301.463C630.092 302.308 633.837 306.128 639.948 306.46C646.797 306.835 651.26 302.522 651.955 301.826C645.556 304.898 638.503 303.239 635.304 298.68C635.111 298.402 634.94 298.124 634.779 297.845C640.184 295.94 644.068 290.804 644.068 284.757C644.068 284.029 643.993 283.323 643.886 282.628C649.28 282.595 654.631 287.015 656.418 293.736C657.349 287.326 655.262 281.322 650.832 278.325C648.734 276.913 646.53 276.442 644.85 276.303C645.203 275.201 646.701 270.064 643.993 264.574C640.954 258.42 635.004 256.644 634.062 256.376C639.863 260.443 641.874 267.41 639.467 272.429C639.231 272.91 638.964 273.349 638.675 273.767C636.32 271.947 633.399 270.856 630.199 270.856C626.999 270.856 624.067 271.947 621.723 273.767C621.434 273.349 621.167 272.91 620.931 272.429C618.513 267.41 620.535 260.443 626.336 256.376C625.383 256.644 619.433 258.42 616.404 264.574C613.708 270.064 615.206 275.211 615.548 276.303C613.868 276.431 611.664 276.913 609.566 278.325C605.135 281.333 603.049 287.326 603.98 293.736ZM618.609 282.863C621.755 283.569 623.938 285.635 624.72 286.437L629.15 278.561C628.529 278.411 625.533 277.662 623.114 275.393C625.083 273.906 627.534 273.007 630.188 273.007C632.842 273.007 635.293 273.895 637.262 275.393C634.843 277.662 631.847 278.411 631.226 278.561L635.657 286.437C636.449 285.624 638.621 283.58 641.757 282.874C641.864 283.484 641.928 284.115 641.928 284.757C641.928 289.915 638.589 294.292 633.955 295.866C632.917 292.441 633.816 289.145 633.998 288.503H624.966C625.276 289.541 625.972 292.345 625.158 295.341C621.199 293.447 618.448 289.412 618.448 284.746C618.448 284.104 618.513 283.473 618.609 282.863Z" fill="#CCD7E4"/>
<path d="M569.683 270.443C572.006 270.443 573.836 268.324 573.354 265.916C573.001 264.161 571.374 262.952 569.587 262.952H567.907V205.633H569.587C571.374 205.633 573.001 204.424 573.354 202.669C573.836 200.261 572.006 198.142 569.683 198.142H420.673C418.885 198.142 417.259 199.351 416.906 201.106C416.424 203.514 418.254 205.633 420.576 205.633H422.363V262.952H420.683C418.896 262.952 417.269 264.161 416.916 265.916C416.435 268.324 418.265 270.443 420.587 270.443H422.374V356.656H420.694C418.907 356.656 417.28 357.865 416.927 359.62C416.445 362.028 418.275 364.147 420.598 364.147H422.385V421.465H420.705C418.917 421.465 417.291 422.675 416.938 424.43C416.456 426.838 418.286 428.957 420.608 428.957H569.758C571.182 428.957 572.541 428.165 573.108 426.859C574.296 424.12 572.305 421.465 569.715 421.465H567.928V364.147H569.758C571.182 364.147 572.541 363.355 573.108 362.05C574.296 359.31 572.305 356.656 569.715 356.656H567.928V270.443H569.683Z" fill="#6687AD"/>
<path fill-rule="evenodd" clip-rule="evenodd" d="M560.663 208.977H429.623C427.993 208.977 426.676 210.294 426.676 211.925V259.419C426.676 261.049 427.993 262.366 429.623 262.366H560.663C562.293 262.366 563.61 261.049 563.61 259.419V211.925C563.61 210.294 562.293 208.977 560.663 208.977ZM560.663 273.49H429.623C427.993 273.49 426.676 274.808 426.676 276.438V350.85C426.676 352.48 427.993 353.798 429.623 353.798H560.663C562.293 353.798 563.61 352.48 563.61 350.85V276.438C563.61 274.808 562.293 273.49 560.663 273.49ZM429.623 364.922H560.663C562.293 364.922 563.61 366.239 563.61 367.869V415.364C563.61 416.994 562.293 418.311 560.663 418.311H429.623C427.993 418.311 426.676 416.994 426.676 415.364V367.869C426.676 366.239 427.993 364.922 429.623 364.922Z" fill="#CCD7E4"/>
<path fill-rule="evenodd" clip-rule="evenodd" d="M508.402 288.939C504.443 286.895 499.937 285.729 495.164 285.729C489.717 285.729 484.634 287.237 480.289 289.849L481.312 291.53C473.591 296.179 468.38 304.589 468.234 314.206H466.281V314.624C466.281 325.336 472.124 334.689 480.782 339.676L481.718 337.956C485.678 340.247 490.272 341.559 495.167 341.559C500.357 341.559 505.209 340.084 509.325 337.531L510.351 339.216C518.591 334.122 524.07 325.015 524.07 314.623V314.206H522.1C521.943 303.956 516.034 295.077 507.465 290.661L508.402 288.939ZM481.863 292.435C474.45 296.898 469.447 304.972 469.304 314.206H488.02C488.162 311.73 489.561 309.591 491.589 308.416L481.863 292.435ZM482.234 337.009C486.04 339.215 490.458 340.479 495.167 340.479C500.152 340.479 504.812 339.062 508.765 336.61L499.057 320.655C497.939 321.376 496.607 321.794 495.178 321.794C493.696 321.794 492.319 321.345 491.176 320.574L482.234 337.009ZM521.03 314.206H502.336C502.176 311.431 500.438 309.078 498.005 308.033L506.958 291.592C515.195 295.828 520.877 304.357 521.03 314.206Z" fill="#6687AD"/>
<path fill-rule="evenodd" clip-rule="evenodd" d="M407.455 331.317H426.161C427.381 331.317 428.376 332.312 428.376 333.532C428.376 334.752 427.381 335.748 426.161 335.748H425.637V336.807C425.637 338.316 425.936 339.825 426.557 341.206C426.932 342.03 427.424 342.918 428.087 343.817C428.794 344.758 429.522 345.497 430.196 346.075C430.613 346.439 431.063 346.76 431.523 347.059C434.123 348.761 436.713 350.463 439.314 352.175C441.903 353.876 444.504 355.578 447.094 357.28C450.882 359.773 450.026 365.081 446.484 366.772V422.089C448.335 423.223 449.577 425.246 449.577 427.579C449.577 431.121 446.698 434 443.156 434H390.503C386.961 434 384.082 431.121 384.082 427.579C384.082 425.257 385.313 423.223 387.164 422.1V366.772C383.622 365.081 382.766 359.762 386.554 357.28C389.155 355.578 391.744 353.876 394.345 352.175C396.945 350.473 399.535 348.761 402.125 347.059C402.585 346.76 403.035 346.439 403.452 346.075C404.126 345.508 404.865 344.758 405.56 343.817C406.224 342.918 406.716 342.03 407.091 341.206C407.711 339.825 408.011 338.327 408.011 336.807V335.748H407.455C406.235 335.748 405.239 334.752 405.239 333.532C405.239 332.312 406.235 331.317 407.455 331.317Z" fill="#6687AD"/>
<path fill-rule="evenodd" clip-rule="evenodd" d="M443.213 357.001C440.955 355.514 438.686 354.037 436.418 352.549C434.159 351.062 431.891 349.574 429.622 348.098C429.215 347.83 428.83 347.552 428.466 347.241C427.878 346.738 427.235 346.086 426.636 345.272C426.037 344.459 425.598 343.667 425.266 342.907C424.731 341.719 424.496 340.424 424.496 339.13C424.496 338.113 423.672 337.289 422.655 337.289H410.958C409.941 337.289 409.117 338.113 409.117 339.13C409.117 340.467 408.861 341.773 408.315 342.982C407.994 343.699 407.555 344.48 406.977 345.262C406.367 346.086 405.725 346.728 405.147 347.231C404.783 347.541 404.398 347.83 403.991 348.087C401.723 349.564 399.465 351.051 397.206 352.539L395.698 353.748C394.221 354.925 392.573 355.835 390.892 356.712C386.323 359.099 388.11 365.734 393.022 365.734H440.57C445.3 365.734 447.13 359.591 443.181 356.991L443.213 357.001ZM440.795 367.286H392.851C391.813 367.286 390.967 368.131 390.967 369.169V417.723C390.967 418.761 391.813 419.606 392.851 419.606H440.795C441.833 419.606 442.678 418.761 442.678 417.723V369.169C442.678 368.131 441.833 367.286 440.795 367.286ZM392.99 421.158H440.409C443.449 421.158 446.156 423.373 446.445 426.402C446.777 429.869 444.059 432.78 440.666 432.78H393.247C390.208 432.78 387.5 430.565 387.211 427.536C386.879 424.069 389.598 421.158 392.99 421.158Z" fill="#CCD7E4"/>
<path d="M430.565 369.673H403.094C401.842 369.673 400.836 370.679 400.836 371.931V414.962C400.836 416.214 401.842 417.22 403.094 417.22H430.565C431.807 417.22 432.823 416.214 432.823 414.962V371.931C432.823 370.679 431.807 369.673 430.565 369.673Z" fill="#6687AD"/>
<path fill-rule="evenodd" clip-rule="evenodd" d="M409.797 389.245C408.267 394.007 411.831 398.876 416.828 398.876C421.837 398.876 425.379 394.007 423.859 389.245L417.556 373.503C417.299 372.85 416.368 372.85 416.111 373.503L409.797 389.245ZM404.992 407.941C404.992 404.345 407.24 401.83 410.461 401.83C413.682 401.83 415.769 404.259 415.769 407.737C415.769 411.975 413.018 413.869 410.3 413.869C407.175 413.869 404.992 411.536 404.992 407.941ZM410.386 411.676C412.366 411.676 413.254 409.728 413.254 407.802C413.254 405.875 412.376 404.013 410.397 404.013C408.417 404.013 407.529 405.972 407.529 407.909C407.529 409.717 408.406 411.676 410.386 411.676ZM419.44 402.183H417V413.88H419.44V402.183ZM424.127 402.183V411.654H428.675V413.869H421.687V402.183H424.127Z" fill="#CCD7E4"/>
<path fill-rule="evenodd" clip-rule="evenodd" d="M730.144 272.864H747.973C752.543 272.864 756.245 276.567 756.245 281.136C756.245 284.646 754.062 287.632 750.991 288.841V290.864C750.991 292.448 751.975 293.861 753.463 294.417L780.399 304.455C786.125 306.596 789.924 312.053 789.924 318.164L789.892 324.296C789.892 328.695 786.478 332.258 782.079 332.258C786.403 332.258 789.902 335.768 789.902 340.081V358.349C789.902 362.673 786.392 366.172 782.079 366.172C786.403 366.172 789.902 369.682 789.902 373.995V392.263C789.902 396.586 786.392 400.086 782.079 400.086C786.403 400.086 789.902 403.596 789.902 407.909V426.177C789.902 430.5 786.392 433.999 782.079 433.999H695.995C691.671 433.999 688.172 430.489 688.172 426.177V407.909C688.172 403.585 691.682 400.086 695.995 400.086C691.671 400.086 688.172 396.576 688.172 392.263V373.995C688.172 369.672 691.682 366.172 695.995 366.172C691.671 366.172 688.172 362.662 688.172 358.349V340.081C688.172 335.758 691.682 332.258 695.995 332.258C691.596 332.258 688.183 328.695 688.183 324.296V318.164C688.183 312.053 691.982 306.585 697.707 304.455L724.643 294.417C726.131 293.871 727.115 292.448 727.115 290.864V288.831C724.044 287.621 721.872 284.625 721.872 281.136C721.872 276.567 725.574 272.864 730.144 272.864Z" fill="#6687AD"/>
<path fill-rule="evenodd" clip-rule="evenodd" d="M783.866 318.217V323.621C783.866 327.013 781.458 329.849 778.258 330.502H699.836C696.636 329.849 694.228 327.013 694.228 323.621V318.217C694.228 312.834 697.578 308.018 702.618 306.134L726.355 297.284C727.66 296.792 728.527 295.55 728.527 294.148C728.527 292.875 729.565 291.837 730.839 291.837H747.255C748.528 291.837 749.567 292.875 749.567 294.148C749.567 295.55 750.433 296.792 751.739 297.284L775.475 306.134C780.516 308.018 783.866 312.834 783.866 318.217ZM700.788 334.109H777.327C781.169 334.109 784.283 337.223 784.283 341.065V357.299C784.283 361.141 781.169 364.255 777.327 364.255H700.788C696.946 364.255 693.832 361.141 693.832 357.299V341.065C693.832 337.223 696.946 334.109 700.788 334.109ZM777.327 367.776H700.788C696.946 367.776 693.832 370.89 693.832 374.732V390.967C693.832 394.809 696.946 397.923 700.788 397.923H777.327C781.169 397.923 784.283 394.809 784.283 390.967V374.732C784.283 370.89 781.169 367.776 777.327 367.776ZM700.788 401.444H777.327C781.169 401.444 784.283 404.558 784.283 408.4V424.635C784.283 428.476 781.169 431.591 777.327 431.591H700.788C696.946 431.591 693.832 428.476 693.832 424.635V408.4C693.832 404.558 696.946 401.444 700.788 401.444Z" fill="#CCD7E4"/>
<path d="M760.462 328.305H717.633C715.279 328.305 713.363 330.22 713.363 332.575V401.269C713.363 403.623 715.279 405.539 717.633 405.539H760.462C762.816 405.539 764.732 403.623 764.732 401.269V332.575C764.732 330.22 762.816 328.305 760.462 328.305Z" fill="#6687AD"/>
<path fill-rule="evenodd" clip-rule="evenodd" d="M732.705 369.198L732.684 366.448C732.149 366.17 731.571 366.159 731.004 366.137C729.013 366.084 727.023 366.03 726.434 354.719C726.348 353.06 726.723 351.401 727.526 349.957C728.039 349.036 728.735 348.052 729.687 347.121C733.358 343.557 738.013 343.535 739.019 343.557C740.025 343.535 744.681 343.557 748.351 347.121C749.304 348.052 749.999 349.036 750.513 349.957C751.326 351.401 751.69 353.06 751.605 354.719C751.005 366.02 749.025 366.084 747.035 366.137C746.468 366.159 745.901 366.17 745.355 366.448V369.198C745.355 370.536 744.274 371.617 742.936 371.617H735.124C733.786 371.617 732.705 370.536 732.705 369.198ZM744.541 355.489C743.461 354.751 741.545 354.986 740.764 355.875C740.507 356.164 740.432 356.613 740.453 357.095C740.496 358.282 741.17 359.374 742.123 360.091C742.722 360.551 743.257 360.84 744.306 361.225C745.419 361.653 747.784 360.637 746.714 358.165C745.997 356.891 745.547 356.356 744.541 355.489ZM741.716 362.617L739.169 359.684C738.944 359.417 738.527 359.417 738.302 359.684L735.755 362.617C735.573 362.831 735.541 363.141 735.691 363.387L736.333 364.457C736.472 364.703 736.74 364.853 737.029 364.853H740.432C740.71 364.853 740.978 364.703 741.128 364.457L741.77 363.387C741.919 363.141 741.898 362.831 741.716 362.617ZM732.941 355.489C731.924 356.356 731.485 356.891 730.768 358.165C729.698 360.626 732.074 361.653 733.187 361.225C734.236 360.829 734.771 360.54 735.37 360.091C736.322 359.374 736.986 358.293 737.04 357.095C737.061 356.613 736.975 356.164 736.718 355.875C735.937 354.997 734.022 354.751 732.941 355.489ZM755.05 384.491C755.5 383.603 756.517 383.057 757.619 383.346C758.389 383.549 759.01 384.191 759.192 384.973C759.406 385.914 759.032 386.781 758.357 387.284C758.122 387.455 757.972 387.723 757.972 388.023C757.972 388.461 757.833 388.954 757.298 389.521C756.838 390.002 756.217 390.345 755.543 390.281C754.419 390.174 753.531 389.221 753.531 388.065C753.531 387.637 753.67 387.231 753.884 386.888L739.051 379.804L724.219 386.888C724.444 387.231 724.572 387.627 724.572 388.065C724.572 389.221 723.684 390.174 722.56 390.281C721.897 390.345 721.265 390.013 720.805 389.521C720.27 388.954 720.12 388.461 720.131 388.023C720.141 387.734 719.981 387.466 719.746 387.284C719.082 386.781 718.697 385.914 718.911 384.973C719.093 384.191 719.713 383.549 720.484 383.346C721.586 383.068 722.603 383.613 723.052 384.491L735.959 378.327L723.106 372.184C722.699 373.147 721.64 373.768 720.473 373.468C719.703 373.265 719.082 372.623 718.9 371.842C718.686 370.9 719.061 370.033 719.735 369.53C719.97 369.359 720.12 369.091 720.12 368.792C720.12 368.353 720.259 367.86 720.794 367.293C721.254 366.812 721.875 366.469 722.549 366.533C723.673 366.64 724.561 367.593 724.561 368.749C724.561 369.123 724.454 369.476 724.283 369.787L739.051 376.839L753.82 369.787C753.659 369.476 753.542 369.134 753.542 368.749C753.542 367.593 754.43 366.64 755.553 366.533C756.217 366.469 756.848 366.801 757.309 367.293C757.844 367.86 757.993 368.353 757.983 368.792C757.983 369.08 758.133 369.348 758.368 369.53C759.032 370.033 759.417 370.9 759.203 371.842C759.021 372.623 758.4 373.265 757.63 373.468C756.463 373.768 755.404 373.147 754.997 372.184L742.144 378.327L755.05 384.491Z" fill="#CCD7E4"/>
</g>
<defs>
<clipPath id="clip0_1563_154866">
<rect width="984" height="502" fill="white"/>
</clipPath>
</defs>
</svg>
