<svg width="984" height="502" viewBox="0 0 984 502" fill="none" xmlns="http://www.w3.org/2000/svg">
<g clip-path="url(#clip0_1563_155099)">
<rect width="984" height="502" fill="#EFF3F6"/>
<g opacity="0.1">
<path d="M22.8392 -190.515L136.789 3.68982L108.982 -215.105" fill="#6687AD"/>
<path d="M427.765 284.224L376.885 189.7L527.609 -33.59L427.765 284.224Z" fill="#537399"/>
<path d="M303.132 308.416L427.762 284.223L376.882 189.698" fill="#99AFC8"/>
<path d="M0.481565 287.395L6.92969 165.637L-50.801 137.875" fill="#537399"/>
<path d="M0.479553 287.396L303.137 308.416L6.92767 165.637" fill="#99AFC8"/>
<path d="M136.786 3.68982L235.824 -73.2519L108.978 -215.105" fill="#99AFC8"/>
<path d="M427.775 284.222L669.074 104.295L656.682 230.813L427.775 284.222Z" fill="#99AFC8"/>
<path d="M656.675 230.813L669.067 104.295L745.336 210.189L656.675 230.813Z" fill="#809BBA"/>
<path d="M669.067 104.295L683.374 -17.3308L745.336 210.189L669.067 104.295Z" fill="#99AFC8"/>
<path d="M682.97 -17.33L745.033 -48.2654L745.738 12.5477" fill="#809BBA"/>
<path d="M745.336 210.189L492.148 403.337L427.768 284.223L745.336 210.189Z" fill="#537399"/>
<path d="M123.396 404.131L303.137 308.416L0.479553 287.396" fill="#6687AD"/>
<path d="M-169.386 353.629L-6.87438 414.575L0.480469 287.396" fill="#6687AD"/>
<path d="M745.031 -48.2654L977.363 -47.2078L745.736 12.5477" fill="#99AFC8"/>
<path d="M745.739 12.5481L1028.25 108.395L1005.98 136.95" fill="#6687AD"/>
<path d="M1152.57 582.074L775.962 640.772L1148.34 480.543" fill="#99AFC8"/>
<path d="M-50.81 137.875L136.789 3.68962L22.8393 -190.516" fill="#809BBA"/>
<path d="M-50.8029 137.876L303.137 308.417L136.796 3.69067" fill="#6687AD"/>
<path d="M136.796 3.69025L303.137 308.416L235.835 -73.2515" fill="#537399"/>
<path d="M683.371 -17.3301L669.064 104.296L576.575 -26.9808L683.371 -17.3301Z" fill="#537399"/>
<path d="M376.885 189.699L527.609 -33.5908L235.833 -73.2515" fill="#99AFC8"/>
<path d="M235.835 -73.2515L376.887 189.699L303.137 308.416L235.835 -73.2515Z" fill="#809BBA"/>
<path d="M576.584 -26.9799L669.074 104.297L527.619 -33.59L576.584 -26.9799Z" fill="#6687AD"/>
<path d="M527.619 -33.59L669.074 104.297L427.775 284.224L527.619 -33.59Z" fill="#809BBA"/>
<path d="M683.373 -17.3308L745.738 12.5469L745.335 210.189" fill="#809BBA"/>
<path d="M537.777 487.814L427.757 284.223L303.127 308.416" fill="#6687AD"/>
<path d="M745.336 210.189L537.788 487.814L492.148 403.337L745.336 210.189Z" fill="#99AFC8"/>
<path d="M460.508 428.72L346.759 517.957L303.134 308.416L460.508 428.72Z" fill="#537399"/>
<path d="M346.754 517.956L303.129 308.416L305.647 541.621" fill="#99AFC8"/>
<path d="M123.397 404.13L305.656 541.621L303.137 308.416" fill="#809BBA"/>
<path d="M-10.105 471.818L123.391 404.131L0.4739 287.396" fill="#537399"/>
<path d="M745.739 12.5474L977.367 -47.208L1028.25 108.394" fill="#537399"/>
<path d="M745.74 12.5481L1005.98 136.95L745.337 210.19" fill="#99AFC8"/>
<path d="M745.337 210.19L1005.98 136.95L880.142 303.128L745.337 210.19Z" fill="#6687AD"/>
<path d="M745.339 210.189L880.145 303.128L667.559 581.149L745.339 210.189Z" fill="#537399"/>
<path d="M745.336 210.189L667.556 581.149L537.788 487.814L745.336 210.189Z" fill="#809BBA"/>
<path d="M1019.58 396.462L880.138 303.128L1005.98 136.95" fill="#537399"/>
<path d="M1019.58 396.463L667.553 581.15L880.138 303.128" fill="#809BBA"/>
<path d="M1148.34 480.544L775.967 640.773L1019.58 396.463" fill="#537399"/>
<path d="M1019.58 396.463L775.961 640.773L667.553 581.15" fill="#99AFC8"/>
<path d="M460.501 428.719L537.777 487.814L346.753 517.956L460.501 428.719Z" fill="#99AFC8"/>
<path d="M394.313 619.885L667.551 581.15L537.783 487.815" fill="#99AFC8"/>
<path d="M346.753 517.957L394.307 619.885L537.777 487.815" fill="#809BBA"/>
<path d="M305.656 541.62L57.2033 437.709L123.397 404.13L305.656 541.62Z" fill="#6687AD"/>
<path d="M305.656 541.621L-10.0986 471.819L57.2033 437.71" fill="#99AFC8"/>
<path d="M175.09 705.023L-141.471 627.42L-10.0911 471.818" fill="#537399"/>
<path d="M305.656 541.621L175.082 705.023L-10.0986 471.818" fill="#6687AD"/>
</g>
<g opacity="0.3">
<path d="M643.556 470C764.421 470 862.401 371.95 862.401 251C862.401 130.05 764.421 32 643.556 32C522.691 32 424.711 130.05 424.711 251C424.711 371.95 522.691 470 643.556 470Z" fill="#CCD7E4"/>
<path d="M497.33 396.306C502.368 392.743 503.287 392.657 506.589 389.149C511.534 383.882 513.193 380.553 514.883 375.045C515.21 373.98 515.942 371.669 518.068 369.74C521.72 366.434 523.69 367.391 527.094 367.025C528.807 366.846 530.185 366.449 531.275 365.944C540.067 361.875 540.099 351.537 540.527 347.336C541.189 341.315 542.388 339.619 544.592 334.874C546.477 330.821 548.618 327.523 550.557 324.948C551.227 324.061 552.013 323.291 552.839 322.552C554.544 321.019 555.44 318.748 555.191 316.453C554.879 313.621 553.493 312.828 550.121 310.401L543.432 304.901C542.684 304.286 542.193 303.423 542.045 302.474L541.781 300.739C541.648 299.899 541.243 299.113 540.62 298.538C537.505 295.636 534.227 292.913 531.283 289.841C530.473 289 529.757 287.958 527.491 287.608C525.396 287.289 525.232 287.522 523.535 287.935C520.163 288.759 516.542 289.265 513.092 289.677C512.578 289.74 512.126 289.288 512.235 288.783C512.344 288.261 512.29 287.725 512.056 287.25C511.667 286.472 510.849 285.967 509.946 285.92C509.533 285.904 509.253 285.5 509.338 285.095C510.203 281.276 511.464 278.615 511.986 274.508C512.235 272.322 512.251 271.723 512.181 271.077C511.745 266.783 506.947 264.597 506.511 264.403L492.868 256.787C491.38 255.955 490.166 254.718 489.363 253.217L486.685 248.176C486.069 247.017 485.182 246.021 484.099 245.282C479.543 242.155 474.996 239.02 470.44 235.893C469.895 235.496 467.823 234.096 464.926 234.321C461.523 234.593 460.768 235.869 459.195 237.324C458.471 237.993 456.898 239.152 454.592 239.673C452.303 240.194 450.341 239.821 449.118 239.44C448.838 239.354 448.643 239.346 448.448 239.448C448.02 239.673 447.498 239.432 447.311 238.989L447.148 238.6C446.969 238.172 446.875 237.713 446.86 237.254L446.634 224.908C446.548 219.269 445.349 220.529 443.752 218.965C443.316 218.537 443.137 217.495 443.075 216.305C443.028 215.433 443.379 214.842 443.643 214.368C445.793 210.439 445.871 206.309 446.867 201.734C447.054 200.894 447.171 200.326 446.673 199.883C446.143 199.416 445.38 199.587 444.734 200.015C441.525 202.131 440.653 204.263 439.368 207.724C439.173 208.09 438.301 209.591 436.424 210.206C435.957 210.361 435.513 210.431 435.108 210.455C434.283 210.501 433.699 209.661 434.041 208.907L448.565 177.666C448.869 177.005 449.725 176.826 450.27 177.292C450.512 177.495 450.753 177.705 450.995 177.907C451.641 178.459 452.653 178.148 452.871 177.324C452.926 177.121 452.98 176.95 453.043 176.787C454.172 173.932 458.182 172.236 463.034 172.617C464.537 172.726 466.009 173.457 468.509 172.244C470.121 171.458 471.078 170.276 472.247 168.891C486.108 155.425 498.436 143.461 512.305 129.995C513.59 128.377 515.825 126.892 517.795 127.677C519.47 128.346 520.529 130.135 520.381 132.026C520.334 132.664 520.809 133.216 521.44 133.278C523.683 133.519 523.807 133.706 526.034 134.079C531.003 134.904 532.872 134.204 533.448 132.601C533.884 131.388 533.144 130.532 531.859 128.766C530.1 126.355 527.981 124.239 526.034 121.967C525.824 121.804 523.215 119.665 523.683 117.852C524.134 116.086 529.695 115.052 532.794 116.327L536.563 118.459C538.72 119.813 540.667 119.54 540.714 119.089C540.846 117.914 538.417 116.646 539.896 116.211C541.493 115.744 546.406 114.888 550.915 112.944C554.895 111.224 557.924 109.07 560.105 107.327C561.195 106.059 563.804 104.254 559.186 104.776C557.488 104.908 555.074 103.539 554.085 100.629C553.322 98.3889 553.89 96.2185 556.507 93.5191C556.81 93.208 556.515 92.6868 556.086 92.7412L545.16 94.9505C544.327 95.0827 543.813 94.8727 543.883 94.0326L544.094 91.5199C544.242 89.8474 543.634 88.9217 542.606 88.3771C541.197 87.6381 539.242 88.0815 537.7 89.3106C536.182 90.4853 536.54 90.1041 534.858 91.481C533.362 92.7101 531.696 95.1605 530.512 95.7517C529.609 96.1874 528.604 96.343 527.615 96.2107L525.848 95.9773C525.497 95.9307 525.154 96.1407 525.045 96.4752L524.376 98.4511C523.94 99.7346 523.106 100.847 522.001 101.633C518.691 103.974 512.079 108.346 511.16 108.961C510.366 109.49 509.712 110.198 509.237 111.022C507.275 114.414 505.686 117.012 505.211 116.818C504.596 116.561 503.638 114.772 506.877 107.49C506.979 107.257 506.792 107.008 506.543 107.047C502.057 107.77 498.755 105.616 498.498 103.601C498.288 101.944 500.063 99.8902 502.688 98.7C512.874 93.8225 524.531 91.2476 533.238 84.0597C533.993 83.4374 534.523 82.6673 534.281 81.4459C533.985 79.9212 532.514 78.0776 528.916 79.1589L504.65 92.0878C503.949 92.4612 503.108 92.4612 502.407 92.0956L496.193 88.8439C460.721 121.042 435.864 164.706 427.484 213.971L431.137 212.088C431.588 215.052 432.04 218.016 432.492 220.98C432.601 221.688 433.208 222.201 433.925 222.232C434.065 222.232 434.189 222.256 434.306 222.271C434.851 222.357 437.631 223.905 438.114 227.079C438.854 231.785 439.726 235.021 441.517 239.012C443.48 243.399 445.567 246.021 447.467 247.896C448.565 248.977 449.009 250.564 448.604 252.05C444.523 262.365 449.063 260.972 444.741 266.285C444.43 266.628 442.421 268.899 442.95 271.778C443.129 272.758 443.542 273.505 443.869 273.956C444.671 275.099 444.983 275.605 444.874 276.702C444.749 277.946 443.604 278.67 443.347 278.833C441.486 280.327 439.664 281.781 439.89 286.301C440.03 289.063 441.447 291.008 442.514 292.104C443.394 292.999 444.087 294.065 444.57 295.224C446.096 298.896 447.63 302.559 449.157 306.231C449.562 307.204 449.78 308.246 449.819 309.304C449.92 312.151 450.379 315.792 451.75 319.798C454.11 326.698 458.05 331.42 460.783 334.119C461.648 334.975 461.804 336.072 462.092 336.648C464.218 342.505 465.074 341.603 465.588 346.169C465.947 349.351 465.37 352.416 464.981 354.119C463.891 360.319 464.117 362.91 465.253 368.869C466.718 376.562 471.188 385.049 474.77 390.58C481.109 398.211 487.954 405.407 495.258 412.113C495.149 406.364 492.953 399.378 497.322 396.29L497.33 396.306Z" fill="#6687AD"/>
<path d="M567.855 72.7886C565.932 72.5085 564.631 72.7886 563.595 73.0608C563.19 73.1697 562.77 73.1853 562.357 73.1308C561.197 72.9753 558.658 72.8897 556.929 74.6711C556.252 75.3712 555.901 76.1569 555.707 76.7637L553.69 80.451C553.371 81.0344 552.825 81.4545 552.179 81.6023C550.956 81.8746 550.559 82.4736 550.474 82.6058C549.601 84.006 550.715 86.9232 553.931 89.1792C559.266 89.9726 560.262 89.8326 563.152 89.5603C563.884 89.4903 564.569 89.1558 565.067 88.6191L572.263 80.91C572.605 80.5366 572.855 80.0854 572.964 79.5953C573.081 79.0741 573.166 78.4751 573.197 77.8139C573.26 76.367 573.641 75.6591 572.761 74.3755C571.796 73.8699 569.794 73.0764 567.855 72.7963V72.7886Z" fill="#6687AD"/>
<path d="M620.028 88.821C620.129 88.8366 620.223 88.8677 620.324 88.8988C621.337 89.2722 622.863 89.669 624.693 89.5678C628.61 89.35 631.25 87.0085 632.223 86.0206C632.387 85.8494 632.589 85.725 632.807 85.6394C642.215 81.9443 643.243 84.2314 646.654 84.8148C648.133 85.0715 649.543 85.7094 651.038 85.8572C655.329 86.2773 658.249 86.3628 660.274 86.2773C662.221 86.1917 663.241 83.9046 661.995 82.4111C661.2 81.462 660.531 80.1862 660.313 78.5137C660.305 78.4437 660.297 78.3737 660.297 78.3037C660.282 77.0123 661.823 76.2733 662.89 77.0123C663.233 77.2457 663.654 77.4791 664.152 77.658C666.145 78.3504 667.944 77.6036 668.513 77.3313C668.567 77.3002 668.63 77.2768 668.692 77.2535C674.828 75.0053 681.72 73.8929 687.327 70.8435C687.981 70.4857 687.795 69.4977 687.063 69.3888C679.929 68.0897 672.601 66.8606 665.079 65.7249C656.785 64.4646 648.678 63.3756 640.774 62.4343C638.897 62.2087 637.02 62.0687 635.136 61.9831C625.962 61.563 616.306 61.4074 606.206 61.6097C600.676 61.7186 595.295 61.9286 590.062 62.2165C588.411 62.3098 587.142 63.6945 587.189 65.3359L587.461 75.4099C587.485 76.2578 588.131 76.9579 588.972 77.059C596.853 77.9692 600.809 79.0038 600.84 80.1629C600.871 81.2442 597.476 82.4266 590.646 83.7179C590.514 83.7413 590.374 83.7802 590.249 83.8424C586.254 85.6549 586.277 89.949 587.196 92.5784C588.551 96.4446 595.303 99.1906 602.538 95.9389C602.662 95.8845 602.787 95.8067 602.896 95.7211C612.918 87.9031 615.395 88.012 620.044 88.8366L620.028 88.821Z" fill="#6687AD"/>
<path d="M564.042 118.366L559.681 115.643C559.253 114.749 558.684 114.305 558.349 114.087C556.87 113.792 554.868 113.916 552.68 114.858C549.651 115.923 547.992 114.904 546.707 116.297C545.5 117.604 544.815 118.218 544.441 118.91C542.541 119.237 541.365 119.323 541.303 120.241C541.264 120.785 541.871 121.198 543.857 122.831C548.132 127.102 549.736 125.095 552.166 123.617C555.024 121.874 555.335 120.793 558.458 120.108C559.221 119.937 559.946 119.86 560.592 119.836C560.981 119.821 561.363 119.774 561.745 119.681C562.469 119.502 563.193 119.331 563.925 119.152C564.299 119.058 564.377 118.568 564.05 118.366H564.042Z" fill="#6687AD"/>
<path d="M827.66 132.174H822.256C816.906 131.956 812.187 126.402 810.699 124.465C810.271 123.905 809.788 123.383 809.259 122.917C807.507 121.376 804.625 119.315 800.599 118.117C797.064 117.067 793.988 117.09 792.033 117.269C790.764 117.417 787.874 117.674 787.649 116.942C787.407 116.164 794.276 111.902 797.461 109.793C797.78 109.583 797.617 109.085 797.235 109.109L790.039 109.498C789.3 109.537 787.633 109.272 787.033 108.844C787.033 108.844 775.617 102.605 763.944 90.9757C762.02 89.062 759.824 88.5875 754.1 93.4884C748.275 99.8283 741.679 101.314 739.686 97.4557C738.728 95.6121 735.262 95.9699 735.262 95.9699C725.777 96.9501 723.176 104.682 724.228 107.6C725.435 110.937 731.034 110.517 733.557 110.999C737.093 112.22 738.074 114.554 737.482 116.094C736.921 117.549 735.691 117.65 733.822 117.79C724.695 118.475 717.998 118 709.813 118.047C709.338 118.047 708.879 118.171 708.466 118.413L699.985 123.298C699.464 123.594 699.378 124.301 699.791 124.729C700.281 125.243 700.826 125.966 701.208 126.939C702.01 129 701.652 130.859 701.372 131.38C698.521 136.67 697.61 140.179 698.132 144.613C698.171 144.963 697.836 145.235 697.509 145.118C696.504 144.045 688.896 136.133 681.747 138.273H681.724C680.462 138.662 679.294 139.478 679.099 140.933C676.405 161.268 676.685 164.597 681.817 167.172C682.822 167.678 684.909 168.355 688.592 167.11C689.246 166.884 689.94 166.791 690.633 166.791H696.972C697.493 166.791 697.968 166.503 698.202 166.036C699.059 164.333 700.468 162.069 702.75 159.93C706.667 156.25 710.942 154.974 713.022 154.508C721.463 153.069 720.077 150.953 726.79 152.088C730.567 152.726 733.791 153.854 734.998 155.418C740.036 161.952 743.369 164.652 747.559 169.272C747.8 169.623 749.109 170.657 749.848 170.937C751.375 171.521 752.519 168.977 754.202 168.222C755.806 167.507 756.242 168.837 756.592 169.265L760.517 174.881C761.008 176.219 761.459 176.779 762.48 177.005C763.546 177.238 764.115 175.752 765.229 175.799C766.802 175.861 766.272 175.768 767.323 176.974C767.876 178.872 768.024 179.051 768.857 179.066C769.714 179.082 770.431 178.164 770.462 176.974C770.516 174.881 772.954 174.936 775.89 175.931C778.825 176.834 782.034 175.869 783.973 173.512C785.951 171.093 786.223 167.678 784.658 164.955C782.447 158.141 789.993 157.666 792.313 160.241C795.132 164.753 796.986 166.83 797.874 166.48C798.232 166.34 798.426 165.741 798.465 164.807C798.497 164.092 798.746 163.384 799.26 162.878C799.922 162.217 800.934 161.983 801.993 165.336L807.359 178.794C808.013 180.428 808.34 181.727 807.491 182.326C806.79 182.816 805.895 181.898 804.61 181.672C779.028 177.153 774.239 182.808 787.999 189.109C789.338 189.724 790.803 190.019 792.274 190.012C793.91 190.004 796.308 190.354 797.936 192.198C798.644 192.999 799.026 193.878 799.244 194.617C799.439 198.856 799.633 203.104 799.836 207.343C799.875 208.098 799.267 208.736 798.512 208.736H785.001C784.502 208.736 784.121 209.164 784.168 209.654L784.791 215.652C784.837 216.072 785.055 216.453 785.406 216.694L795.584 223.843C799.945 226.799 814.204 265.617 814.204 265.617C816.828 273.59 817.552 275.014 818.487 275.061C819.281 275.1 819.289 273.17 820.714 272.252C824.966 269.506 827.341 269.989 832.138 268.791C837.815 267.204 842.254 262.949 843.547 257.612C845.26 250.518 841.055 242.785 833.447 239.253C827.388 236.437 823.658 235.13 825.098 228.464C826.274 226.387 830.028 223.789 834.716 228.596C837.558 231.513 839.754 235.037 841.857 236.188C842.62 236.608 843.329 237.114 843.882 237.775C844.668 238.717 845.502 239.611 846.42 240.428C847.464 241.362 848.57 242.505 849.637 243.89C853.032 248.316 854.177 252.859 854.605 255.481C855.594 269.724 856.591 283.976 857.58 298.219C860.944 282.98 862.712 267.149 862.712 250.907C862.712 207.133 849.847 166.355 827.692 132.151L827.66 132.174Z" fill="#6687AD"/>
<path d="M770.641 350.564C771.062 349.04 771.638 347.562 772.316 346.138C774.901 340.708 776.973 337.013 777.642 336.546C778.888 335.683 779.34 336.352 781.668 335.302C783.802 333.691 785.585 331.521 787.719 329.911C791.979 326.651 799.237 320.039 802.765 309.428C803.652 306.768 804.431 306.262 804.462 301.945C804.244 300.98 804.073 299.526 804.493 297.892C804.961 296.087 805.918 294.905 806.425 294.36C807.538 293.131 808.535 291.295 809.843 289.249C810.63 288.02 811.004 287.235 810.809 286.814C810.007 285.562 809.142 286.589 804.859 285.998C804.197 285.826 803.567 285.616 802.959 285.375C793.287 281.501 794.72 269.662 789.082 263.78C788.42 263.236 787.517 262.341 786.738 261.058C784.721 257.752 785.048 254.321 785.235 253.061C785.461 251.085 785.796 247.444 784.994 243.695C784.262 240.28 783.646 238.973 782.151 236.382C781.668 235.542 781.326 234.624 781.154 233.668C779.978 227.211 777.502 222.87 777.712 221.462C777.837 220.622 778.234 219.836 778.818 219.214C779.176 218.833 779.566 218.413 779.854 218.102C780.049 217.884 780.204 217.635 780.29 217.355C780.921 215.363 781.014 213.753 780.913 212.742C780.835 211.902 780.656 211.155 780.453 210.517C780.08 209.373 779.153 208.494 777.993 208.16C770.361 205.982 765.198 203.415 757.566 201.236C756.842 201.026 756.172 200.661 755.604 200.155C754.934 199.883 754.116 199.471 753.275 198.833C751.749 197.681 750.869 196.343 750.394 195.48C749.14 193.66 747.902 192.742 746.983 194.749C746.072 196.74 745.2 198.615 745.2 198.615C744.374 200.272 744.491 202.084 743.759 202.582C742.607 203.36 741.508 202.839 739.18 201.322C737.49 200.217 736.065 199.572 735.224 198.918C733.09 197.254 730.637 194.671 729.376 190.976C729.251 190.602 729.08 190.252 728.799 189.996C728.231 189.474 727.359 189.342 726.58 189.638C725.645 189.988 724.602 189.988 723.636 189.739C723.613 189.739 723.597 189.731 723.574 189.723C722.655 189.482 721.612 189.085 720.56 188.424C718.637 187.218 717.43 185.624 716.69 184.247C716.223 183.391 715.966 182.434 715.919 181.462C715.802 178.825 714.938 172.601 708.451 172.975L691.209 172.788L674.023 172.174C666.258 172.088 663.556 169.677 656.314 176.125C653.9 178.272 652.475 180.738 651.626 182.823C650.691 185.11 648.713 186.798 646.307 187.366C642.102 188.346 635.708 190.89 631.511 197.464C627.882 203.15 627.711 209.008 628.108 212.679C628.318 214.632 627.345 216.538 625.608 217.448C622.89 218.872 621.021 220.98 620.655 223.399C620.616 223.64 620.593 223.913 620.585 224.208C620.569 225.422 620.297 226.62 619.705 227.678C618.07 230.634 616.247 235.076 616.138 240.583C616.107 242.046 616.209 243.399 616.372 244.636C616.52 245.717 616.598 246.814 616.598 247.903V267.748C616.598 268.946 617.174 270.074 618.148 270.774L635.957 283.641C636.728 284.061 638.971 285.158 641.907 284.753C645.692 284.232 646.323 282.093 648.254 281.027C655.006 277.238 657.412 278.164 659.701 278.569C666.282 280.078 674.638 282.754 679.653 281.548C680.556 281.315 681.467 281.61 681.942 282.264C682.339 282.816 682.293 283.438 682.269 283.633C682.23 283.905 681.818 287.413 684.497 289.755C686.537 291.536 689.263 290.875 692.082 290.688C692.705 290.65 696.38 291.256 698.101 294.874C699.339 297.48 698.849 299.86 698.366 300.49C695.267 304.59 694.34 308.37 695.687 309.771C695.975 310.066 696.552 310.051 697.712 310.424C698.304 310.611 698.569 311.054 698.498 312.058C698.436 312.898 697.798 313.365 697.712 313.427C696.715 314.166 696.295 315.457 696.668 316.632C697.027 317.775 698.319 317.931 699.285 318.654C700.687 319.705 700.913 321.058 701.115 323.493C701.279 325.461 700.78 327.001 700.461 327.803C698.389 330.798 695.524 335.745 693.919 342.443C693.117 345.811 692.806 348.907 692.744 351.552C692.681 354.477 692.455 357.402 691.957 360.288C691.412 363.392 691.054 367.048 691.17 371.132C691.295 375.372 691.902 379.059 692.611 382.046C694.488 392.766 696.365 403.478 698.234 414.197C698.755 416.71 698.919 417.854 700.391 419.161C702.634 420.88 706.286 420.592 708.832 418.118C720.965 408.153 727.11 406.823 730.349 406.131C732.545 405.664 734.632 405.415 736.571 405.306C736.906 405.283 740.068 404.979 741.867 402.101C743.634 399.269 742.583 396.352 742.459 396.025C742.116 395.442 742.1 394.726 742.427 394.166C742.817 393.489 743.603 393.334 744.421 393.287C746.609 393.155 747.341 392.284 749.062 390.246C750.939 388.036 751.274 385.656 751.352 384.792C751.36 384.03 751.437 382.832 751.78 381.424C752.8 377.208 755.401 374.462 756.85 373.155C769.279 360.382 769.543 354.135 770.096 352.408C770.299 351.778 770.478 351.163 770.649 350.541L770.641 350.564Z" fill="#6687AD"/>
<path d="M808.556 363.899L808.619 362.086C808.634 361.697 808.198 361.456 807.879 361.681L805.434 363.37C805.106 363.595 804.655 363.556 804.367 363.276L801.579 360.538C801.314 360.273 800.854 360.429 800.808 360.802C800.395 363.704 800.707 365.952 799.562 369.515C798.892 371.592 797.467 374.128 795.442 376.835C793.752 379.083 792.016 380.803 790.536 382.063C790.536 382.063 771.434 394.61 771.434 395.132C769.635 396.089 768.63 398.072 768.949 400.033C769.237 401.845 770.6 403.339 772.415 403.821C777.157 404.505 779.548 403.362 782.554 400.289C782.873 399.963 783.761 399.255 785.108 399.045C786.954 398.765 788.301 399.729 788.644 399.892C790.902 401.005 793.955 400.81 797.74 397.994C801.61 395.116 803.136 388.815 801.602 384.467C801.291 383.587 801.532 381.028 803.105 378.453C804.515 376.143 805.784 374.992 807.295 374.595C809.024 374.144 810.643 373.42 811.157 371.787C811.515 370.627 811.126 368.426 809.724 366.909C808.961 366.084 808.533 365.003 808.572 363.883L808.556 363.899Z" fill="#6687AD"/>
</g>
<path d="M633.762 137.525L520.727 133.158L393.486 117.675C392.1 117.504 390.691 117.776 389.469 118.446L383.88 121.505C382.915 122.034 383.133 123.482 384.215 123.7L522.486 151.024C523.615 151.249 524.751 151.405 525.895 151.491L617.36 158.637C617.874 158.676 618.123 159.291 617.773 159.672L614.27 163.51C613.764 164.062 613.024 164.358 612.277 164.296L580.323 161.774C578.82 161.657 577.443 160.886 576.555 159.672L530.044 96.1124C529.398 95.2327 528.293 94.8202 527.227 95.0615L514.616 97.965C513.122 98.3076 512.203 99.8177 512.584 101.305L520.742 133.151L536.793 175.607C537.066 176.331 536.708 177.148 535.992 177.436L530.519 179.616C530.076 179.795 529.601 179.88 529.118 179.865L446.878 178.495C446.815 178.495 446.761 178.495 446.699 178.518L438.611 180.635C437.895 180.822 437.988 181.865 438.72 181.928L521.575 188.887C522.175 188.941 522.618 189.486 522.525 190.086C522.042 193.2 522.143 198.579 539.191 198.329H600.749C602.656 198.329 604.555 198.041 606.384 197.465L762.38 148.595C762.809 148.463 763.252 148.408 763.696 148.431L770.134 148.774C770.686 148.805 770.819 149.56 770.313 149.778L724.471 169.519C723.28 170.033 722.058 170.461 720.82 170.812L644.831 192.226C644.519 192.312 644.605 192.787 644.932 192.74C662.431 190.483 702.037 183.913 710.639 181.103C749.116 169.239 765.416 164.078 766.055 163.627C766.716 163.159 767.503 162.934 768.312 162.988C776.781 163.502 785.251 164.016 793.72 164.537C794.389 164.576 794.763 165.339 794.381 165.892L792.311 168.904C789.797 172.563 792.521 177.514 796.958 177.358L835.965 175.941C836.712 175.941 845.578 175.513 850.311 168.523C854.616 162.171 852.273 152.806 852.07 152.331C861.988 150.837 872.263 148.789 882.982 146.812C894.004 144.78 903.252 142.904 903.228 142.243C903.275 141.994 903.291 141.643 903.182 141.277C902.839 140.157 901.454 139.378 899.702 139.292L812.924 140.25C812.425 140.25 812.309 139.557 812.776 139.401C832.306 132.613 839.367 130.932 856.492 121.178C865.755 115.908 872.862 107.664 878.14 101.912C890.276 84.2801 877.564 79.4459 875.431 78.0525C875.431 78.0525 871.002 69.0304 854.11 68.1352C847.252 67.7693 838.573 68.1352 833.404 69.3651C814.332 73.5999 717.551 107.081 636.844 137.027C635.863 137.393 634.82 137.557 633.777 137.518L633.762 137.525Z" fill="#6687AD"/>
<path d="M649.12 138.078H669.398C670.301 138.078 671.196 137.923 672.045 137.611L808.417 88.0168C808.899 87.8378 809.405 88.1959 809.405 88.7096V90.6791C809.405 91.1306 809.125 91.5276 808.697 91.6833L680.592 137.386C680.21 137.518 680.312 138.086 680.716 138.086H704.544C705.198 138.086 705.852 138.001 706.482 137.837L779.646 118.898C861.474 97.6617 874.749 86.4578 880.486 81.7015C880.381 81.2829 878.527 79.6084 875.492 78.0984L859.917 78.3953C859.427 78.3953 858.936 78.4731 858.477 78.6366L847.634 82.342C847.019 82.5522 846.489 81.8594 846.855 81.3222L849.891 76.7995C850.117 76.457 850.475 76.2312 850.88 76.1612L857.232 75.1336C857.66 75.0636 858.088 75.0169 858.516 75.0013L868.69 74.542C868.052 73.9504 867.172 73.2732 866.036 72.6893C863.84 71.5606 861.785 71.366 860.571 71.3504C854.367 70.8833 847.385 70.8911 841.36 71.3738C839.024 71.5606 836.72 72.0666 834.509 72.8372L649.003 137.386C648.622 137.518 648.715 138.086 649.12 138.086V138.078Z" fill="#CCD7E4"/>
<path d="M806.176 142.679L801.755 145.66C801.335 145.948 801.56 146.61 802.066 146.579L887.794 141.846C888.285 141.753 888.098 141.34 887.708 141.34C861.164 141.589 834.612 141.838 808.068 142.087C807.391 142.087 806.729 142.297 806.169 142.679H806.176Z" fill="#CCD7E4"/>
<path d="M839.848 146.26C833.932 146.26 829.137 151.927 829.137 158.909C829.137 165.892 833.932 171.559 839.848 171.559C845.764 171.559 850.559 165.892 850.559 158.909C850.559 151.927 845.764 146.26 839.848 146.26ZM840.401 168.258C840.019 168.336 839.755 167.893 840.004 167.597C841.537 165.799 844.97 162.926 845.149 158.162C845.321 153.725 840.891 150.658 839.319 149.093C839.093 148.868 839.288 148.478 839.607 148.525C844.371 149.156 848.092 153.071 848.403 157.796C848.73 162.716 845.266 167.215 840.393 168.266L840.401 168.258Z" fill="#CCD7E4"/>
<path d="M672.9 140.25C666.011 140.25 660.43 145.738 660.43 152.51C660.43 159.283 666.011 164.771 672.9 164.771C679.79 164.771 685.371 159.283 685.371 152.51C685.371 145.738 679.79 140.25 672.9 140.25ZM676.489 161.945C674.193 163.004 673.78 162.202 673.99 161.852C674.8 160.513 676.131 154.83 675.033 151.094C674.193 148.229 671.024 145.855 666.945 144.578C666.618 144.477 667.739 143.543 668.082 143.387C672.223 141.511 679.634 142.437 682.07 148.361C683.892 152.783 681.72 159.54 676.481 161.953L676.489 161.945Z" fill="#CCD7E4"/>
<path d="M626.98 159.867C630.732 156.987 639.232 150.557 641.684 148.712C642.136 148.369 642.595 148.066 643.085 147.793C645.514 146.454 648.511 145.045 652.029 143.839C655.945 142.5 659.502 141.776 662.437 141.371C662.562 141.371 662.834 141.371 662.951 141.542C663.06 141.69 663.075 141.908 662.927 142.079C661.853 143.372 660.724 145.006 659.751 147.007C658.047 150.518 658.747 155.235 659.572 158.621C659.853 159.758 658.895 159.75 658.467 159.049C656.249 155.461 656.054 151.125 656.249 148.976C656.272 148.743 656.093 148.541 655.859 148.533C654.606 148.494 653.213 148.517 651.703 148.657C649.422 148.875 647.406 149.303 645.709 149.794C645.024 149.996 644.362 150.276 643.739 150.627C638.213 153.795 632.693 156.971 627.167 160.139C626.988 160.24 626.816 159.991 626.98 159.867Z" fill="#CCD7E4"/>
<path d="M632.984 141.067L630.034 144.415C629.902 144.57 629.699 144.648 629.497 144.64L521.047 140.336C520.183 140.304 519.319 140.219 518.455 140.079L401.31 121.591C401.061 121.575 400.921 121.396 400.944 121.279C400.959 121.178 401.115 121.085 401.31 121.1C441.297 126.152 481.285 131.205 521.273 136.257C522.098 136.358 522.931 136.428 523.756 136.451L632.494 139.931C633.07 139.946 633.358 140.624 632.984 141.06V141.067Z" fill="#CCD7E4"/>
<path d="M532.977 155.352L540.871 173.357C541.089 173.848 541.657 174.089 542.155 173.894L572.335 162.35C572.903 162.132 573.152 161.463 572.864 160.925L571.393 158.224C571.237 157.928 570.941 157.734 570.606 157.703L533.997 153.935C533.227 153.857 532.658 154.636 532.97 155.344L532.977 155.352Z" fill="#CCD7E4"/>
<path d="M525.903 131.562L549.505 133.33C550.556 133.407 551.218 132.232 550.611 131.376L527.429 98.829C527.102 98.3697 526.502 98.1907 525.973 98.3931L518.702 101.172C518.126 101.39 517.799 101.997 517.932 102.597L523.863 129.803C524.073 130.776 524.899 131.492 525.895 131.57L525.903 131.562Z" fill="#CCD7E4"/>
</g>
<defs>
<clipPath id="clip0_1563_155099">
<rect width="984" height="502" fill="white"/>
</clipPath>
</defs>
</svg>
