<svg width="994" height="512" viewBox="0 0 994 512" fill="none" xmlns="http://www.w3.org/2000/svg">
<g filter="url(#filter0_d_1563_154750)">
<g clip-path="url(#clip0_1563_154750)">
<rect x="5" y="4" width="984" height="502" rx="12" fill="#EFF3F6"/>
<g opacity="0.1">
<path d="M27.8392 -186.515L141.789 7.68982L113.982 -211.105" fill="#7B9586"/>
<path d="M-45.81 141.875L141.789 7.68962L27.8393 -186.516" fill="#91A79A"/>
<path d="M-45.8029 141.876L308.137 312.417L141.796 7.69067" fill="#7B9586"/>
<path d="M141.796 7.69025L308.137 312.416L240.835 -69.2515" fill="#688173"/>
<path d="M688.371 -13.3301L674.064 108.296L581.575 -22.9808L688.371 -13.3301Z" fill="#688173"/>
<path d="M381.885 193.699L532.609 -29.5908L240.833 -69.2515" fill="#A7B8AF"/>
<path d="M240.835 -69.2515L381.887 193.699L308.137 312.416L240.835 -69.2515Z" fill="#91A79A"/>
<path d="M432.765 288.224L381.885 193.7L532.609 -29.59L432.765 288.224Z" fill="#688173"/>
<path d="M308.132 312.416L432.762 288.223L381.882 193.698" fill="#A7B8AF"/>
<path d="M5.48157 291.395L11.9297 169.637L-45.801 141.875" fill="#688173"/>
<path d="M5.47955 291.396L308.137 312.416L11.9277 169.637" fill="#A7B8AF"/>
<path d="M141.786 7.68982L240.824 -69.2519L113.978 -211.105" fill="#A7B8AF"/>
<path d="M581.584 -22.9799L674.074 108.297L532.619 -29.59L581.584 -22.9799Z" fill="#7B9586"/>
<path d="M532.619 -29.59L674.074 108.297L432.775 288.224L532.619 -29.59Z" fill="#91A79A"/>
<path d="M432.775 288.222L674.074 108.295L661.682 234.813L432.775 288.222Z" fill="#A7B8AF"/>
<path d="M661.675 234.813L674.067 108.295L750.336 214.189L661.675 234.813Z" fill="#91A79A"/>
<path d="M674.067 108.295L688.374 -13.3308L750.336 214.189L674.067 108.295Z" fill="#A7B8AF"/>
<path d="M688.373 -13.3308L750.738 16.5469L750.335 214.189" fill="#91A79A"/>
<path d="M687.97 -13.33L750.033 -44.2654L750.738 16.5477" fill="#91A79A"/>
<path d="M542.777 491.814L432.757 288.223L308.127 312.416" fill="#7B9586"/>
<path d="M750.336 214.189L497.148 407.337L432.768 288.223L750.336 214.189Z" fill="#688173"/>
<path d="M750.336 214.189L542.788 491.814L497.148 407.337L750.336 214.189Z" fill="#A7B8AF"/>
<path d="M465.508 432.72L351.759 521.957L308.134 312.416L465.508 432.72Z" fill="#688173"/>
<path d="M351.754 521.956L308.129 312.416L310.647 545.621" fill="#A7B8AF"/>
<path d="M128.396 408.131L308.137 312.416L5.47955 291.396" fill="#7B9586"/>
<path d="M128.397 408.13L310.656 545.621L308.137 312.416" fill="#91A79A"/>
<path d="M-5.105 475.818L128.391 408.131L5.4739 291.396" fill="#688173"/>
<path d="M-164.386 357.629L-1.87438 418.575L5.48047 291.396" fill="#7B9586"/>
<path d="M750.739 16.5474L982.367 -43.208L1033.25 112.394" fill="#688173"/>
<path d="M750.031 -44.2654L982.363 -43.2078L750.736 16.5477" fill="#A7B8AF"/>
<path d="M750.739 16.5481L1033.25 112.395L1010.98 140.95" fill="#7B9586"/>
<path d="M750.74 16.5481L1010.98 140.95L750.337 214.19" fill="#A7B8AF"/>
<path d="M750.337 214.19L1010.98 140.95L885.142 307.128L750.337 214.19Z" fill="#7B9586"/>
<path d="M750.339 214.189L885.145 307.128L672.559 585.149L750.339 214.189Z" fill="#688173"/>
<path d="M750.336 214.189L672.556 585.149L542.788 491.814L750.336 214.189Z" fill="#91A79A"/>
<path d="M1024.58 400.462L885.138 307.128L1010.98 140.95" fill="#688173"/>
<path d="M1024.58 400.463L672.553 585.15L885.138 307.128" fill="#91A79A"/>
<path d="M1153.34 484.544L780.967 644.773L1024.58 400.463" fill="#688173"/>
<path d="M1024.58 400.463L780.961 644.773L672.553 585.15" fill="#A7B8AF"/>
<path d="M465.501 432.719L542.777 491.814L351.753 521.956L465.501 432.719Z" fill="#A7B8AF"/>
<path d="M399.313 623.885L672.551 585.15L542.783 491.815" fill="#A7B8AF"/>
<path d="M351.753 521.957L399.307 623.885L542.777 491.815" fill="#91A79A"/>
<path d="M310.656 545.62L62.2033 441.709L128.397 408.13L310.656 545.62Z" fill="#7B9586"/>
<path d="M310.656 545.621L-5.0986 475.819L62.2033 441.71" fill="#A7B8AF"/>
<path d="M1157.57 586.074L780.962 644.772L1153.34 484.543" fill="#A7B8AF"/>
<path d="M180.09 709.023L-136.471 631.42L-5.09106 475.818" fill="#688173"/>
<path d="M310.656 545.621L180.082 709.023L-5.0986 475.818" fill="#7B9586"/>
</g>
<g opacity="0.3">
<path d="M648.555 474.061C769.419 474.061 867.399 376.011 867.399 255.061C867.399 134.11 769.419 36.0605 648.555 36.0605C527.691 36.0605 429.711 134.11 429.711 255.061C429.711 376.011 527.691 474.061 648.555 474.061Z" fill="#D3DCD7"/>
<path d="M502.33 400.367C507.368 396.804 508.287 396.718 511.589 393.21C516.534 387.943 518.193 384.614 519.882 379.106C520.209 378.04 520.941 375.73 523.067 373.801C526.72 370.495 528.69 371.452 532.093 371.086C533.806 370.907 535.185 370.51 536.275 370.005C545.067 365.936 545.098 355.598 545.526 351.397C546.188 345.376 547.388 343.68 549.591 338.935C551.476 334.882 553.617 331.584 555.557 329.009C556.226 328.122 557.013 327.352 557.838 326.613C559.544 325.08 560.439 322.809 560.19 320.514C559.879 317.682 558.492 316.889 555.12 314.462L548.431 308.962C547.683 308.347 547.193 307.484 547.045 306.535L546.78 304.8C546.648 303.96 546.243 303.174 545.62 302.599C542.505 299.697 539.226 296.974 536.283 293.902C535.473 293.061 534.756 292.019 532.49 291.669C530.395 291.35 530.232 291.583 528.534 291.996C525.162 292.82 521.541 293.326 518.091 293.738C517.577 293.8 517.126 293.349 517.235 292.844C517.344 292.322 517.289 291.786 517.056 291.311C516.666 290.533 515.849 290.028 514.945 289.981C514.532 289.965 514.252 289.561 514.338 289.156C515.202 285.337 516.464 282.676 516.985 278.569C517.235 276.383 517.25 275.784 517.18 275.138C516.744 270.844 511.947 268.658 511.511 268.464L497.867 260.848C496.38 260.016 495.165 258.779 494.363 257.277L491.684 252.237C491.069 251.078 490.181 250.082 489.099 249.343C484.543 246.216 479.995 243.081 475.44 239.953C474.895 239.557 472.823 238.156 469.926 238.382C466.523 238.654 465.768 239.93 464.195 241.385C463.47 242.054 461.897 243.213 459.592 243.734C457.303 244.255 455.34 243.882 454.118 243.501C453.837 243.415 453.643 243.407 453.448 243.508C453.02 243.734 452.498 243.493 452.311 243.049L452.148 242.661C451.968 242.233 451.875 241.774 451.859 241.315L451.634 228.969C451.548 223.329 450.349 224.59 448.752 223.026C448.316 222.598 448.137 221.556 448.075 220.366C448.028 219.494 448.378 218.903 448.643 218.429C450.793 214.5 450.87 210.369 451.867 205.795C452.054 204.955 452.171 204.387 451.673 203.944C451.143 203.477 450.38 203.648 449.733 204.076C446.525 206.192 445.653 208.324 444.368 211.785C444.173 212.151 443.301 213.652 441.424 214.267C440.957 214.422 440.513 214.492 440.108 214.516C439.283 214.562 438.699 213.722 439.041 212.968L453.565 181.727C453.869 181.066 454.725 180.887 455.27 181.353C455.512 181.556 455.753 181.766 455.995 181.968C456.641 182.52 457.653 182.209 457.871 181.384C457.926 181.182 457.98 181.011 458.043 180.848C459.172 177.993 463.182 176.297 468.034 176.678C469.537 176.787 471.009 177.518 473.508 176.305C475.12 175.519 476.078 174.337 477.246 172.952C491.108 159.486 503.435 147.522 517.305 134.056C518.59 132.438 520.825 130.952 522.795 131.738C524.469 132.407 525.528 134.196 525.38 136.087C525.334 136.725 525.809 137.277 526.439 137.339C528.682 137.58 528.807 137.767 531.034 138.14C536.002 138.965 537.871 138.265 538.448 136.662C538.884 135.449 538.144 134.593 536.859 132.827C535.099 130.416 532.981 128.3 531.034 126.028C530.824 125.865 528.215 123.726 528.682 121.913C529.134 120.147 534.694 119.113 537.793 120.388L541.563 122.52C543.72 123.873 545.667 123.601 545.713 123.15C545.846 121.975 543.416 120.707 544.896 120.272C546.492 119.805 551.406 118.949 555.915 117.004C559.894 115.285 562.923 113.13 565.104 111.388C566.194 110.12 568.803 108.315 564.185 108.836C562.487 108.969 560.073 107.6 559.084 104.69C558.321 102.45 558.89 100.279 561.506 97.58C561.81 97.2689 561.514 96.7477 561.086 96.8021L550.16 99.0114C549.327 99.1436 548.813 98.9336 548.883 98.0935L549.093 95.5808C549.241 93.9083 548.633 92.9826 547.606 92.4381C546.196 91.699 544.241 92.1424 542.699 93.3715C541.181 94.5462 541.539 94.165 539.857 95.5419C538.362 96.771 536.695 99.2214 535.512 99.8126C534.608 100.248 533.604 100.404 532.615 100.272L530.847 100.038C530.497 99.9916 530.154 100.202 530.045 100.536L529.375 102.512C528.939 103.796 528.106 104.908 527 105.694C523.69 108.035 517.079 112.407 516.16 113.022C515.366 113.551 514.712 114.258 514.237 115.083C512.274 118.475 510.685 121.073 510.21 120.878C509.595 120.622 508.637 118.833 511.877 111.551C511.978 111.318 511.791 111.069 511.542 111.108C507.057 111.831 503.755 109.677 503.498 107.662C503.287 106.005 505.063 103.951 507.687 102.761C517.873 97.8834 529.531 95.3085 538.237 88.1206C538.993 87.4983 539.522 86.7282 539.281 85.5069C538.985 83.9822 537.513 82.1385 533.915 83.2198L509.65 96.1487C508.949 96.5221 508.108 96.5221 507.407 96.1565L501.193 92.9048C465.721 125.103 440.864 168.767 432.484 218.032L436.137 216.149C436.588 219.113 437.04 222.077 437.492 225.041C437.601 225.749 438.208 226.262 438.925 226.293C439.065 226.293 439.189 226.317 439.306 226.332C439.851 226.418 442.631 227.966 443.114 231.14C443.854 235.846 444.726 239.082 446.517 243.073C448.48 247.46 450.567 250.082 452.467 251.957C453.565 253.038 454.009 254.625 453.604 256.111C449.523 266.426 454.063 265.033 449.741 270.346C449.43 270.689 447.421 272.96 447.95 275.838C448.129 276.819 448.542 277.565 448.869 278.017C449.671 279.16 449.983 279.666 449.874 280.763C449.749 282.007 448.604 282.731 448.347 282.894C446.486 284.388 444.664 285.842 444.89 290.362C445.03 293.124 446.447 295.068 447.514 296.165C448.394 297.06 449.087 298.126 449.57 299.285C451.096 302.956 452.63 306.62 454.157 310.292C454.562 311.265 454.78 312.307 454.819 313.365C454.92 316.212 455.379 319.853 456.75 323.859C459.11 330.759 463.05 335.481 465.783 338.18C466.648 339.036 466.803 340.133 467.092 340.708C469.218 346.566 470.074 345.664 470.588 350.23C470.946 353.412 470.37 356.477 469.981 358.18C468.89 364.38 469.116 366.971 470.253 372.93C471.717 380.623 476.187 389.11 479.769 394.641C486.108 402.272 492.954 409.468 500.258 416.174C500.149 410.425 497.953 403.439 502.322 400.351L502.33 400.367Z" fill="#7B9586"/>
<path d="M572.855 76.8491C570.932 76.5691 569.631 76.8491 568.595 77.1214C568.19 77.2303 567.77 77.2458 567.357 77.1914C566.197 77.0358 563.658 76.9502 561.929 78.7317C561.252 79.4318 560.901 80.2175 560.707 80.8242L558.69 84.5115C558.37 85.095 557.825 85.515 557.179 85.6628C555.956 85.9351 555.559 86.5341 555.474 86.6664C554.601 88.0666 555.715 90.9838 558.931 93.2397C564.266 94.0332 565.262 93.8931 568.151 93.6209C568.883 93.5509 569.569 93.2164 570.067 92.6796L577.263 84.9705C577.605 84.5971 577.855 84.1459 577.964 83.6558C578.08 83.1346 578.166 82.5356 578.197 81.8744C578.26 80.4275 578.641 79.7196 577.761 78.436C576.795 77.9304 574.794 77.1369 572.855 76.8569V76.8491Z" fill="#7B9586"/>
<path d="M625.028 92.8823C625.129 92.8979 625.223 92.929 625.324 92.9601C626.336 93.3335 627.863 93.7302 629.693 93.6291C633.61 93.4113 636.25 91.0698 637.223 90.0818C637.387 89.9107 637.589 89.7862 637.807 89.7007C647.214 86.0056 648.242 88.2926 651.653 88.8761C653.133 89.1328 654.542 89.7707 656.038 89.9185C660.328 90.3386 663.249 90.4241 665.273 90.3386C667.22 90.253 668.24 87.9659 666.994 86.4723C666.2 85.5233 665.53 84.2475 665.312 82.575C665.305 82.505 665.297 82.435 665.297 82.365C665.281 81.0736 666.823 80.3346 667.89 81.0736C668.233 81.307 668.653 81.5404 669.152 81.7193C671.145 82.4116 672.944 81.6648 673.512 81.3926C673.567 81.3615 673.629 81.3381 673.692 81.3148C679.828 79.0666 686.72 77.9542 692.327 74.9048C692.981 74.547 692.794 73.559 692.062 73.4501C684.929 72.151 677.601 70.9219 670.078 69.7861C661.785 68.5259 653.678 67.4368 645.774 66.4956C643.897 66.27 642.02 66.1299 640.136 66.0444C630.962 65.6243 621.306 65.4687 611.205 65.671C605.676 65.7799 600.295 65.9899 595.062 66.2778C593.411 66.3711 592.142 67.7558 592.189 69.3972L592.461 79.4711C592.485 80.3191 593.131 81.0192 593.972 81.1203C601.853 82.0305 605.809 83.0651 605.84 84.2242C605.871 85.3055 602.476 86.4879 595.646 87.7792C595.514 87.8026 595.374 87.8415 595.249 87.9037C591.254 89.7162 591.277 94.0103 592.196 96.6396C593.551 100.506 600.303 103.252 607.538 100C607.662 99.9458 607.787 99.868 607.896 99.7824C617.918 91.9644 620.395 92.0733 625.044 92.8979L625.028 92.8823Z" fill="#7B9586"/>
<path d="M569.042 122.426L564.681 119.704C564.252 118.809 563.684 118.366 563.349 118.148C561.87 117.852 559.868 117.977 557.68 118.918C554.651 119.984 552.992 118.965 551.707 120.357C550.5 121.664 549.815 122.279 549.441 122.971C547.541 123.298 546.365 123.383 546.303 124.301C546.264 124.846 546.871 125.258 548.857 126.892C553.132 131.162 554.736 129.155 557.166 127.677C560.024 125.935 560.335 124.853 563.458 124.169C564.221 123.998 564.946 123.92 565.592 123.897C565.981 123.881 566.363 123.834 566.744 123.741C567.469 123.562 568.193 123.391 568.925 123.212C569.299 123.119 569.377 122.629 569.05 122.426H569.042Z" fill="#7B9586"/>
<path d="M832.664 136.235H827.259C821.909 136.017 817.19 130.463 815.703 128.526C815.274 127.966 814.792 127.445 814.262 126.978C812.51 125.438 809.628 123.376 805.602 122.178C802.067 121.128 798.991 121.151 797.036 121.33C795.767 121.478 792.878 121.735 792.652 121.003C792.411 120.226 799.279 115.963 802.464 113.854C802.783 113.644 802.62 113.147 802.238 113.17L795.043 113.559C794.303 113.598 792.636 113.333 792.037 112.905C792.037 112.905 780.62 106.667 768.947 95.0367C767.024 93.1231 764.828 92.6485 759.104 97.5494C753.279 103.889 746.683 105.375 744.689 101.517C743.731 99.6731 740.266 100.031 740.266 100.031C730.781 101.011 728.18 108.744 729.231 111.661C730.438 114.998 736.038 114.578 738.561 115.06C742.096 116.281 743.077 118.615 742.486 120.155C741.925 121.61 740.694 121.711 738.825 121.851C729.699 122.536 723.001 122.061 714.817 122.108C714.342 122.108 713.882 122.233 713.47 122.474L704.989 127.359C704.467 127.655 704.382 128.362 704.794 128.79C705.285 129.304 705.83 130.027 706.212 131C707.014 133.061 706.656 134.92 706.375 135.441C703.525 140.731 702.614 144.24 703.136 148.674C703.175 149.024 702.84 149.296 702.513 149.179C701.508 148.106 693.9 140.194 686.751 142.334H686.728C685.466 142.723 684.298 143.54 684.103 144.994C681.409 165.329 681.689 168.658 686.821 171.233C687.826 171.739 689.913 172.416 693.596 171.171C694.25 170.945 694.943 170.852 695.636 170.852H701.975C702.497 170.852 702.972 170.564 703.206 170.097C704.062 168.394 705.472 166.13 707.754 163.991C711.671 160.311 715.946 159.036 718.025 158.569C726.467 157.13 725.081 155.014 731.793 156.149C735.57 156.787 738.794 157.915 740.001 159.479C745.04 166.013 748.373 168.713 752.562 173.334C752.804 173.684 754.112 174.718 754.852 174.998C756.378 175.582 757.523 173.038 759.205 172.283C760.809 171.568 761.245 172.898 761.596 173.326L765.521 178.942C766.011 180.28 766.463 180.84 767.483 181.066C768.55 181.299 769.118 179.814 770.232 179.86C771.805 179.922 771.276 179.829 772.327 181.035C772.88 182.933 773.028 183.112 773.861 183.127C774.718 183.143 775.434 182.225 775.465 181.035C775.52 178.942 777.957 178.997 780.893 179.992C783.829 180.895 787.037 179.93 788.976 177.573C790.954 175.154 791.227 171.739 789.662 169.016C787.45 162.202 794.996 161.727 797.317 164.302C800.136 168.814 801.989 170.891 802.877 170.541C803.235 170.401 803.43 169.802 803.469 168.868C803.5 168.153 803.749 167.445 804.263 166.939C804.925 166.278 805.937 166.044 806.996 169.397L812.362 182.855C813.016 184.489 813.343 185.788 812.494 186.387C811.793 186.877 810.898 185.959 809.613 185.733C784.031 181.214 779.242 186.869 793.002 193.17C794.342 193.785 795.806 194.08 797.278 194.073C798.913 194.065 801.312 194.415 802.939 196.259C803.648 197.06 804.029 197.939 804.247 198.678C804.442 202.917 804.637 207.165 804.839 211.405C804.878 212.159 804.271 212.797 803.515 212.797H790.004C789.506 212.797 789.124 213.225 789.171 213.715L789.794 219.713C789.841 220.133 790.059 220.514 790.409 220.755L800.587 227.904C804.948 230.86 819.207 269.678 819.207 269.678C821.831 277.651 822.556 279.075 823.49 279.122C824.284 279.161 824.292 277.231 825.717 276.313C829.969 273.567 832.344 274.05 837.141 272.852C842.818 271.265 847.257 267.01 848.55 261.673C850.263 254.579 846.058 246.846 838.45 243.314C832.391 240.498 828.661 239.191 830.102 232.525C831.277 230.448 835.031 227.85 839.719 232.657C842.561 235.574 844.757 239.098 846.86 240.249C847.623 240.67 848.332 241.175 848.885 241.836C849.671 242.778 850.505 243.672 851.424 244.489C852.467 245.423 853.573 246.566 854.64 247.951C858.035 252.377 859.18 256.92 859.608 259.542C860.597 273.785 861.594 288.037 862.583 302.28C865.947 287.041 867.715 271.21 867.715 254.968C867.715 211.194 854.85 170.416 832.695 136.212L832.664 136.235Z" fill="#7B9586"/>
<path d="M775.637 354.625C776.057 353.1 776.633 351.622 777.311 350.199C779.896 344.769 781.968 341.074 782.638 340.607C783.884 339.744 784.335 340.413 786.664 339.362C788.797 337.752 790.581 335.582 792.714 333.972C796.974 330.712 804.232 324.1 807.76 313.489C808.647 310.829 809.426 310.323 809.457 306.006C809.239 305.041 809.068 303.586 809.488 301.953C809.956 300.148 810.914 298.966 811.42 298.421C812.533 297.192 813.53 295.356 814.838 293.31C815.625 292.081 815.999 291.295 815.804 290.875C815.002 289.623 814.138 290.65 809.855 290.058C809.193 289.887 808.562 289.677 807.954 289.436C798.282 285.562 799.715 273.722 794.077 267.841C793.415 267.297 792.512 266.402 791.733 265.119C789.716 261.812 790.043 258.382 790.23 257.122C790.456 255.146 790.791 251.505 789.989 247.756C789.257 244.341 788.642 243.034 787.146 240.443C786.664 239.603 786.321 238.685 786.15 237.728C784.974 231.272 782.497 226.931 782.708 225.523C782.832 224.683 783.229 223.897 783.813 223.275C784.172 222.894 784.561 222.473 784.849 222.162C785.044 221.945 785.2 221.696 785.285 221.416C785.916 219.424 786.009 217.814 785.908 216.803C785.83 215.962 785.651 215.216 785.449 214.578C785.075 213.434 784.148 212.555 782.988 212.221C775.356 210.042 770.193 207.475 762.562 205.297C761.837 205.087 761.168 204.722 760.599 204.216C759.929 203.944 759.112 203.531 758.271 202.893C756.744 201.742 755.864 200.404 755.389 199.541C754.136 197.72 752.897 196.802 751.978 198.809C751.067 200.801 750.195 202.676 750.195 202.676C749.37 204.333 749.487 206.145 748.755 206.643C747.602 207.421 746.504 206.9 744.176 205.383C742.486 204.278 741.061 203.632 740.22 202.979C738.086 201.314 735.633 198.732 734.371 195.037C734.247 194.663 734.075 194.313 733.795 194.056C733.226 193.535 732.354 193.403 731.576 193.699C730.641 194.049 729.598 194.049 728.632 193.8C728.609 193.8 728.593 193.792 728.57 193.784C727.651 193.543 726.607 193.146 725.556 192.485C723.632 191.279 722.425 189.685 721.685 188.308C721.218 187.452 720.961 186.495 720.915 185.523C720.798 182.886 719.933 176.662 713.446 177.036L696.205 176.849L679.018 176.234C671.254 176.149 668.552 173.737 661.31 180.186C658.896 182.333 657.471 184.799 656.622 186.884C655.687 189.171 653.709 190.859 651.303 191.427C647.098 192.407 640.704 194.951 636.507 201.524C632.878 207.211 632.707 213.069 633.104 216.74C633.314 218.693 632.341 220.599 630.604 221.509C627.886 222.932 626.017 225.041 625.651 227.46C625.612 227.701 625.589 227.973 625.581 228.269C625.566 229.482 625.293 230.68 624.701 231.738C623.066 234.694 621.244 239.136 621.135 244.644C621.103 246.106 621.205 247.46 621.368 248.697C621.516 249.778 621.594 250.875 621.594 251.964V271.809C621.594 273.007 622.17 274.135 623.144 274.835L640.953 287.701C641.724 288.121 643.967 289.218 646.903 288.814C650.688 288.293 651.318 286.153 653.25 285.088C660.001 281.299 662.408 282.225 664.697 282.629C671.278 284.139 679.634 286.815 684.649 285.609C685.552 285.375 686.463 285.671 686.938 286.324C687.335 286.877 687.289 287.499 687.265 287.694C687.226 287.966 686.813 291.474 689.492 293.816C691.533 295.597 694.258 294.936 697.077 294.749C697.7 294.71 701.376 295.317 703.097 298.934C704.335 301.54 703.845 303.921 703.362 304.551C700.262 308.651 699.336 312.431 700.683 313.831C700.971 314.127 701.547 314.111 702.708 314.485C703.299 314.672 703.564 315.115 703.494 316.118C703.432 316.959 702.793 317.425 702.708 317.488C701.711 318.227 701.29 319.518 701.664 320.693C702.022 321.836 703.315 321.992 704.281 322.715C705.682 323.765 705.908 325.119 706.111 327.554C706.274 329.522 705.776 331.062 705.457 331.863C703.385 334.858 700.519 339.806 698.915 346.504C698.113 349.872 697.802 352.968 697.739 355.613C697.677 358.538 697.451 361.463 696.953 364.349C696.408 367.453 696.049 371.109 696.166 375.193C696.291 379.433 696.898 383.12 697.607 386.107C699.484 396.827 701.36 407.539 703.229 418.258C703.751 420.771 703.915 421.914 705.386 423.221C707.629 424.941 711.282 424.653 713.828 422.179C725.961 412.214 732.105 410.884 735.345 410.191C737.541 409.725 739.628 409.476 741.567 409.367C741.902 409.343 745.063 409.04 746.862 406.162C748.63 403.33 747.579 400.413 747.454 400.086C747.111 399.503 747.096 398.787 747.423 398.227C747.812 397.55 748.599 397.395 749.416 397.348C751.605 397.216 752.337 396.344 754.058 394.306C755.935 392.097 756.269 389.717 756.347 388.853C756.355 388.091 756.433 386.893 756.776 385.485C757.796 381.269 760.397 378.523 761.845 377.216C774.274 364.442 774.539 358.196 775.092 356.469C775.294 355.839 775.473 355.224 775.644 354.602L775.637 354.625Z" fill="#7B9586"/>
<path d="M813.56 367.959L813.622 366.147C813.638 365.758 813.202 365.517 812.882 365.742L810.437 367.43C810.11 367.656 809.659 367.617 809.37 367.337L806.582 364.599C806.318 364.334 805.858 364.49 805.812 364.863C805.399 367.765 805.71 370.013 804.566 373.576C803.896 375.653 802.471 378.189 800.446 380.896C798.756 383.144 797.02 384.863 795.54 386.124C795.54 386.124 776.437 398.671 776.437 399.193C774.639 400.149 773.634 402.133 773.953 404.093C774.241 405.906 775.604 407.4 777.419 407.882C782.161 408.566 784.552 407.423 787.558 404.35C787.877 404.023 788.765 403.316 790.112 403.105C791.958 402.825 793.305 403.79 793.648 403.953C795.906 405.066 798.959 404.871 802.743 402.055C806.614 399.177 808.14 392.876 806.606 388.527C806.294 387.648 806.536 385.089 808.109 382.514C809.518 380.204 810.788 379.052 812.298 378.656C814.027 378.205 815.647 377.481 816.161 375.847C816.519 374.688 816.13 372.487 814.728 370.97C813.965 370.145 813.537 369.064 813.576 367.944L813.56 367.959Z" fill="#7B9586"/>
</g>
<path d="M908.528 401.028L906.107 372.362C906.006 371.169 905.492 370.054 904.644 369.212L902.254 366.818C900.814 365.376 900.604 363.115 901.756 361.431L906.231 354.874C907.018 353.721 907.368 352.325 907.204 350.937C908.1 332.749 904.69 310.911 902.02 305.08C901.865 304.744 901.468 303.403 900.666 302.257C900.65 302.234 900.635 302.218 900.619 302.203L898.44 300.02C898.09 299.669 897.833 299.225 897.708 298.741L888.173 261.935C887.994 261.233 888.811 260.703 889.372 261.155L895.085 265.732C897.358 267.821 901.756 268.757 902.199 262.73C902.386 260.165 902.853 256.524 903.04 253.967C903.437 249.352 903.53 248.323 902.199 247.543C896.058 243.98 888.733 243.091 881.962 240.963C881.635 240.862 881.339 240.682 881.098 240.448L881.004 240.308C880.405 238.71 880.288 234.165 871.547 229.307C870.8 228.894 870.013 228.528 869.204 228.232C858.314 224.177 854.298 222.618 840.023 220.396C839.073 220.248 838.178 219.819 837.47 219.172L832.97 215.087C831.351 213.614 829.499 212.413 827.475 211.563C790.167 195.893 743.628 184.518 709.099 182.475C707.589 182.389 706.235 183.38 705.877 184.853C705.869 184.892 705.861 184.931 705.846 184.97C705.713 185.531 705.052 185.983 704.577 185.648C700.171 182.584 692.816 180.472 689.251 179.746C688.317 179.559 687.351 179.575 686.425 179.801C588.038 204.04 495.24 226.914 391.404 252.494C389.832 252.883 388.711 254.31 388.711 255.947V373.734C388.711 375.168 389.871 376.33 391.303 376.33H392.618C394.339 376.33 395.732 377.725 395.732 379.448V391.603C395.732 392.803 396.689 393.778 397.888 393.801L440.605 394.573C441.625 394.589 442.497 395.306 442.707 396.304L444.03 402.479C444.381 403.742 444.855 405.48 446.653 406.883C448.576 408.38 450.802 407.796 451.736 407.445C454.383 412.855 458.352 416.426 462.82 416.792C462.859 416.8 462.89 416.824 462.929 416.824H463.295C463.389 416.824 463.49 416.824 463.583 416.824C463.848 416.824 464.12 416.808 464.385 416.792L474.239 416.59C475.703 416.559 477.096 415.974 478.147 414.953C479.906 413.237 482.428 410.361 484.343 406.79C486.973 413.004 491.293 417.291 496.283 418.04C496.314 418.04 496.337 418.063 496.368 418.063H496.493C496.937 418.126 497.388 418.157 497.847 418.157C498.26 418.157 498.665 418.126 499.069 418.079L510.192 418.149C511.609 418.157 512.987 417.681 514.069 416.769C516.692 414.571 520.755 409.83 523.277 400.108C523.324 399.937 523.472 399.82 523.651 399.82C539.164 400.28 555.346 400.748 570.859 401.208C571.062 401.208 571.225 401.379 571.225 401.59V409.846C571.225 410.057 571.389 410.22 571.599 410.228L616.044 411.054C616.254 411.054 616.433 410.891 616.433 410.672V399.36C616.433 399.142 616.612 398.97 616.83 398.978L646.58 400.124C646.782 400.132 646.946 400.303 646.946 400.506V411.577C646.946 411.787 647.109 411.951 647.319 411.959L705.332 412.887C705.542 412.887 705.721 412.715 705.721 412.505V403.601C705.721 403.367 705.939 403.188 706.165 403.227L707.652 403.5C707.698 403.508 707.729 403.539 707.776 403.57C707.776 403.703 707.768 403.835 707.768 403.968C707.768 422.336 719.514 438.053 736.553 438.053C736.638 438.053 736.864 438.061 736.887 438.061L759.11 437.227C760.83 437.227 762.488 436.618 763.796 435.496C765.127 434.358 769.322 430.748 771.634 426.67C772.117 425.828 773.004 425.298 773.977 425.314C781.784 425.47 789.062 425.618 796.83 425.774C798.216 425.805 799.282 426.959 799.313 428.347C799.337 429.586 800.45 430.522 801.68 430.327L856.096 421.767C856.096 421.767 857.334 427.933 859.957 427.949L872.956 427.138C875.081 427.006 876.996 425.821 878.101 424.004C879.673 421.4 880.234 419.03 880.599 417.923C888.15 416.738 895.708 415.545 903.258 414.36C907.827 413.604 909.182 412.294 908.574 401.044L908.528 401.028Z" fill="#7B9586"/>
<path d="M450.175 370.818H423.368C423.01 370.818 422.699 371.036 422.566 371.37L419.577 379.248C419.422 379.668 419.017 379.94 418.565 379.94H416.876C416.464 379.94 416.121 379.598 416.129 379.185L416.3 369.557C416.3 369.378 416.16 369.222 415.973 369.222H413.81C413.63 369.222 413.49 369.362 413.483 369.534L413.148 379.201C413.132 379.614 412.798 379.933 412.385 379.933H398.849C398.475 379.933 398.172 380.236 398.172 380.61V388.308C398.172 388.674 398.46 388.97 398.826 388.985L443.637 390.62C444.011 390.635 444.322 390.347 444.338 389.974L444.828 380.135C444.851 379.691 444.493 379.318 444.05 379.318H437.893C437.519 379.318 437.262 378.936 437.41 378.594L439.683 373.293C439.823 372.974 440.134 372.772 440.477 372.772H450.175C450.347 372.772 450.479 372.639 450.479 372.468V371.114C450.479 370.942 450.347 370.81 450.175 370.81V370.818ZM437.184 373.153L434.802 379.014C434.631 379.434 434.226 379.715 433.767 379.722L422.091 379.933C421.796 379.933 421.586 379.637 421.695 379.357L424.287 372.99C424.419 372.67 424.73 372.46 425.073 372.46H436.709C437.068 372.46 437.317 372.826 437.176 373.161L437.184 373.153Z" fill="#D3DCD7"/>
<path d="M462.164 406.685C466.837 406.685 470.625 399.646 470.625 390.962C470.625 382.278 466.837 375.239 462.164 375.239C457.491 375.239 453.703 382.278 453.703 390.962C453.703 399.646 457.491 406.685 462.164 406.685Z" fill="#D3DCD7"/>
<path d="M496.871 409.036C501.544 409.036 505.332 401.686 505.332 392.62C505.332 383.553 501.544 376.204 496.871 376.204C492.198 376.204 488.41 383.553 488.41 392.62C488.41 401.686 492.198 409.036 496.871 409.036Z" fill="#D3DCD7"/>
<path d="M481.344 396.091H478.067C477.771 396.091 477.529 396.294 477.467 396.574C476.977 398.839 476.128 401.641 474.618 404.653C472.384 409.121 469.582 412.297 467.403 414.352C467.146 414.593 467.309 415.021 467.66 415.037L474.377 415.356C474.564 415.364 474.743 415.317 474.899 415.216C476.004 414.5 477.413 413.426 478.783 411.853C480.16 410.281 481.048 408.717 481.624 407.463C481.849 406.965 481.966 406.428 481.966 405.875V396.698C481.966 396.356 481.686 396.076 481.344 396.076V396.091Z" fill="#D3DCD7"/>
<path d="M520.702 400.022H514.015C513.79 400.022 513.595 400.178 513.54 400.396C513.081 402.443 512.295 404.981 510.878 407.713C508.878 411.581 506.379 414.376 504.387 416.228C504.068 416.524 504.27 417.046 504.698 417.061L510.248 417.31C510.341 417.31 510.435 417.295 510.513 417.248C514.584 414.991 519.441 407.557 521.176 400.614C521.254 400.31 521.013 400.015 520.702 400.015V400.022Z" fill="#D3DCD7"/>
<path d="M571.81 373.192L533.397 372.374C532.977 372.367 532.603 372.624 532.455 373.013L527.559 386.198C527.443 386.518 527.147 386.736 526.804 386.751L522.43 386.969C522.087 386.985 521.791 386.72 521.784 386.37L521.348 371.331C521.34 371.012 521.083 370.763 520.764 370.763H517.845C517.518 370.763 517.261 371.028 517.261 371.347L517.308 386.292C517.308 386.525 517.121 386.712 516.888 386.712H513.081C512.739 386.712 512.474 387.016 512.521 387.358L513.214 392.208C513.253 392.48 513.478 392.682 513.759 392.69L570.44 394.34C570.759 394.348 571.024 394.091 571.024 393.772V388.386C571.024 388.074 570.775 387.825 570.464 387.817L553.557 387.685C553.285 387.685 553.09 387.421 553.176 387.164L556.352 376.998C556.453 376.663 556.756 376.438 557.107 376.43L571.818 376.15C572.16 376.15 572.433 375.862 572.433 375.527V373.783C572.433 373.441 572.16 373.168 571.818 373.161L571.81 373.192ZM552.351 376.912L549.229 386.907C549.105 387.296 548.739 387.561 548.334 387.553L531.63 387.101C531.233 387.094 530.961 386.697 531.093 386.323L534.479 376.741C534.596 376.399 534.923 376.173 535.281 376.173H551.806C552.187 376.173 552.46 376.547 552.351 376.912Z" fill="#D3DCD7"/>
<path d="M612.99 383.311H579.792C579.684 383.311 579.575 383.342 579.497 383.404C578.321 384.315 574.367 389.117 574.367 396.994V404.918C574.367 405.199 574.593 405.424 574.865 405.432L608.375 406.382C608.709 406.389 608.966 406.094 608.896 405.767C608.336 403.136 607.744 398.497 609.184 393.064C610.243 389.071 612.01 386.074 613.418 384.12C613.668 383.778 613.418 383.311 612.998 383.311H612.99Z" fill="#D3DCD7"/>
<path d="M644.516 389.841H632.326C631.984 389.841 631.704 389.569 631.696 389.226L631.299 370.319C631.299 369.977 631.011 369.705 630.668 369.705H627.843C627.5 369.705 627.212 369.985 627.212 370.327L627.018 389.219C627.018 389.561 626.73 389.841 626.387 389.841H616.556C616.206 389.841 615.926 390.121 615.926 390.472V396.177C615.926 396.52 616.198 396.8 616.533 396.808L644.15 397.812C644.492 397.827 644.788 397.555 644.804 397.213L645.154 390.495C645.169 390.137 644.881 389.833 644.523 389.833L644.516 389.841Z" fill="#D3DCD7"/>
<path d="M705.188 379.1C689.036 378.548 673.072 377.792 657.473 377.792C657.31 377.792 657.154 377.847 657.022 377.948C655.356 379.217 650.188 385.164 650.188 396.053V407.721C650.188 408.126 650.514 408.461 650.919 408.461L698.751 409.037C699.225 409.037 699.583 408.609 699.482 408.141C698.688 404.483 697.863 398.038 699.887 390.503C701.343 385.078 703.763 382.572 705.725 380.338C706.137 379.871 705.818 379.131 705.196 379.108L705.188 379.1Z" fill="#D3DCD7"/>
<path d="M736.988 426.838C748.152 426.838 757.202 416.77 757.202 404.351C757.202 391.931 748.152 381.863 736.988 381.863C725.824 381.863 716.773 391.931 716.773 404.351C716.773 416.77 725.824 426.838 736.988 426.838Z" fill="#D3DCD7"/>
<path d="M771.436 380.08L767.661 366.887C766.984 364.108 763.31 347.303 741.904 343.932C728.104 342.196 718.343 342.383 704.301 343.068C703.997 343.084 703.717 343.278 703.608 343.566L696.735 361.376C696.571 361.812 696.813 362.286 697.264 362.403L712.552 366.357C712.824 366.427 713.112 366.342 713.307 366.139C717.51 361.773 721.659 360.06 724.219 359.313C735.95 355.888 750.147 362.224 759.986 375.254C760.048 375.34 760.134 375.41 760.227 375.464C763.59 377.301 766.952 379.138 770.323 380.975C770.93 381.302 771.631 380.742 771.444 380.08H771.436Z" fill="#D3DCD7"/>
<path d="M802.453 395.088C802.048 393.22 801.208 391.118 799.596 391.032C790.863 390.589 782.106 390.97 773.357 390.962C773.1 390.962 772.867 390.799 772.789 390.55L770.827 384.797C770.742 384.541 770.493 384.369 770.22 384.393L763.168 384.875C762.802 384.899 762.545 385.249 762.623 385.607L770.306 420.471C770.368 420.743 770.602 420.938 770.882 420.945L798.149 421.35C798.39 421.35 798.616 421.21 798.709 420.984L800.024 417.902C800.196 417.505 799.908 417.069 799.48 417.061L774.673 416.688C774.424 416.688 774.198 416.532 774.112 416.291C773.007 413.084 770.446 398.91 773.163 396.551C773.272 396.458 773.419 396.419 773.567 396.426C782.433 396.878 791.299 397.329 800.165 397.773C801.628 397.851 802.757 396.512 802.453 395.08V395.088Z" fill="#D3DCD7"/>
<path d="M710.972 205.17C710.972 205.17 711.027 205.17 711.058 205.17L735.087 203.66C735.398 203.637 735.686 203.481 735.873 203.232L738.768 199.278C739.235 198.64 740.208 198.725 740.559 199.434L746.381 211.195C746.56 211.553 746.918 211.779 747.315 211.779L802.782 212.331C802.992 212.331 803.195 212.402 803.366 212.518L807.865 215.601C807.966 215.671 808.075 215.717 808.192 215.749L830.843 221.719C831.504 221.89 831.94 221.049 831.419 220.613L825.129 215.25C825.044 215.18 824.95 215.118 824.841 215.079C805.717 207.225 782.568 199.465 755.791 193.876C739.469 190.467 724.189 188.373 710.272 187.135C709.797 187.096 709.353 187.384 709.19 187.836L704.411 201.247C703.43 204.088 707.625 205.17 710.965 205.178L710.972 205.17Z" fill="#D3DCD7"/>
<path d="M701.708 324.465L706.464 324.379C707.359 324.364 708.075 323.632 708.075 322.745V288.301C708.075 287.974 708.34 287.71 708.667 287.71H732.338C732.664 287.71 732.929 287.974 732.929 288.301V324.029C732.929 324.558 733.567 324.815 733.941 324.442L738.494 319.779C738.619 319.655 738.79 319.592 738.962 319.6L777.585 323.624C777.834 323.648 778.036 323.811 778.106 324.052L788.957 362.528C789.144 363.182 790.101 363.057 790.109 362.372L790.763 296.568C790.763 296.256 790.521 295.992 790.21 295.976L749.337 292.785C746.434 292.614 744.075 290.372 743.78 287.476L740.238 253.64C739.919 250.566 741.919 247.732 744.924 247.016L753.673 244.915C753.673 244.915 753.727 244.907 753.759 244.899L776.145 242.969C782.878 242.393 788.972 246.962 790.296 253.586L797.223 288.224C797.223 288.224 797.231 288.294 797.231 288.333L797.784 365.236C797.784 365.587 798.095 365.859 798.453 365.812L805.996 364.808C806.136 364.793 806.268 364.723 806.361 364.614L811.475 358.846C811.608 358.69 811.818 358.62 812.012 358.659L832.219 362.107C832.569 362.17 832.896 361.897 832.904 361.539L833.254 335.16C833.27 334.662 833.854 334.405 834.227 334.732L839.225 337.627C839.334 337.721 839.481 337.775 839.629 337.767L896.07 338.125C896.381 338.118 896.646 338.351 896.677 338.663L898.171 355.071C898.218 355.616 898.919 355.802 899.238 355.359C900.203 354.012 901.168 352.673 902.133 351.327C902.203 351.226 902.242 351.101 902.242 350.977C902.164 345.847 901.884 338.6 900.981 329.968C899.712 317.779 898.039 302.919 896.21 302.733C871.333 300.211 823.315 294.046 816.932 294.404C816.659 294.419 816.41 294.233 816.34 293.968L800.002 233.278C799.893 232.865 800.243 232.476 800.664 232.546L873.808 243.988C874.314 244.066 874.672 243.498 874.384 243.078L866.577 231.62C866.491 231.495 866.367 231.41 866.219 231.379L808.276 218.115C808.214 218.099 808.159 218.076 808.105 218.045L802.711 214.807C802.617 214.752 802.516 214.721 802.407 214.721H710.107C703.452 214.721 698.089 220.185 698.221 226.841L700.066 322.861C700.081 323.764 700.829 324.48 701.732 324.465H701.708Z" fill="#D3DCD7"/>
<path d="M872.852 249.149L846.784 291.532C846.449 292.085 846.784 292.793 847.43 292.879L883.983 297.401C884.59 297.479 885.088 296.926 884.956 296.327L874.479 249.429C874.308 248.651 873.28 248.48 872.86 249.157L872.852 249.149Z" fill="#D3DCD7"/>
<path d="M881.115 249.546C881.255 249.896 881.629 250.083 881.995 249.989C883.738 249.538 888.26 248.752 892.324 251.429C894.129 252.62 895.25 254.115 895.912 255.212C896.044 255.438 896.293 255.57 896.55 255.57H897.15C897.578 255.57 897.92 255.212 897.905 254.784L897.617 248.705C897.601 248.363 897.36 248.082 897.025 248.005L880.251 244.3C879.659 244.167 879.161 244.759 879.395 245.319L881.123 249.546H881.115Z" fill="#D3DCD7"/>
<path d="M838.19 349.622C846.861 349.506 855.532 349.397 864.203 349.28C864.359 349.28 864.499 349.21 864.593 349.093C865.262 348.291 868.103 345.24 872.446 345.622C876.167 345.948 878.339 348.548 878.962 349.397C879.063 349.537 879.226 349.615 879.397 349.615C884.566 349.506 889.727 349.389 894.895 349.28C895.175 349.28 895.401 349.046 895.401 348.758V341.994C895.401 341.543 894.872 341.309 894.537 341.605L893.237 342.749C893.136 342.835 893.011 342.882 892.879 342.882L839.124 341.699C839.023 341.699 838.922 341.66 838.836 341.605L836.493 339.963C836.143 339.714 835.66 339.963 835.668 340.399C835.707 341.878 835.902 343.644 836.4 345.59C836.766 347.023 837.233 348.268 837.7 349.319C837.785 349.506 837.972 349.622 838.182 349.622H838.19Z" fill="#D3DCD7"/>
<path d="M845.401 362.325C845.401 362.325 845.44 362.325 845.456 362.325L860.829 363.26C861.187 363.283 861.459 362.956 861.366 362.606C861.062 361.5 860.79 360.037 860.797 358.317C860.797 356.643 861.078 355.219 861.373 354.137C861.467 353.802 861.21 353.475 860.86 353.483C855.201 353.592 849.542 353.709 843.883 353.818C843.79 353.818 843.704 353.794 843.619 353.755L837.991 350.642C837.625 350.44 837.189 350.728 837.22 351.14L837.703 357.196C838.006 359.157 837.633 361.049 845.393 362.318L845.401 362.325Z" fill="#D3DCD7"/>
<path d="M896.286 351.724C896.239 351.28 895.702 351.093 895.391 351.412L894.013 352.829C893.912 352.93 893.772 352.992 893.632 352.985L882.337 352.79C881.956 352.79 881.699 353.164 881.855 353.514C882.252 354.425 882.657 355.608 882.89 357.009C883.186 358.807 883.092 360.364 882.913 361.523C882.859 361.897 883.194 362.201 883.559 362.107C887.879 360.955 892.207 359.795 896.527 358.643C896.776 358.581 896.932 358.34 896.909 358.091L896.286 351.716V351.724Z" fill="#D3DCD7"/>
<path d="M839.792 368.622C850.736 377.612 858.66 374.865 872.811 375.635C874.445 375.721 876.08 375.425 877.567 374.748L896.458 366.123C896.723 365.999 896.839 365.688 896.707 365.423L895.041 361.982C894.924 361.733 894.636 361.624 894.38 361.726L880.937 367.034C880.828 367.081 880.735 367.159 880.672 367.268C880.12 368.248 878.306 370.965 875.527 371.938C870.483 373.596 866.763 372 864.007 368.824C863.922 368.731 863.813 368.669 863.68 368.653C857.375 367.883 851.071 367.112 844.766 366.341C844.68 366.334 844.602 366.302 844.54 366.256L839.2 362.628C838.951 362.465 838.617 362.535 838.461 362.784L837.885 363.726C837.721 363.991 837.667 364.31 837.737 364.613C838.017 365.812 838.391 367.478 839.776 368.614L839.792 368.622Z" fill="#D3DCD7"/>
<path d="M902.284 388.253C902.245 387.872 901.926 387.584 901.544 387.576C900.252 387.545 898.96 387.506 897.66 387.475C897.255 387.467 896.936 387.14 896.921 386.743L896.609 377.971C896.609 377.753 896.687 377.543 896.843 377.395L899.7 374.655C899.863 374.491 899.949 374.266 899.933 374.04L899.427 368.334C899.38 367.805 898.82 367.486 898.337 367.712L873.896 379.364C873.772 379.426 873.632 379.45 873.499 379.434L848.241 377.013C848.155 376.99 848.062 376.967 847.976 376.935L818.515 362.318C818.39 362.247 818.25 362.224 818.11 362.232L811.245 362.676C810.902 362.699 810.622 362.94 810.552 363.275L809.478 366.077C809.439 366.248 809.345 366.396 809.213 366.505L804.8 370.039C804.62 370.187 804.512 370.405 804.512 370.631V404.856C804.512 405.191 804.729 405.494 805.049 405.588C808.256 406.537 812.35 407.44 817.145 407.79C821.963 408.141 826.15 407.837 829.459 407.37C829.661 407.339 829.848 407.23 829.965 407.059C831.794 404.537 833.623 402.007 835.452 399.477C835.592 399.291 835.81 399.174 836.044 399.166L840.488 399.003C840.971 398.987 841.352 399.415 841.267 399.898L839.85 408.001C839.788 408.343 839.5 408.608 839.157 408.631L823.979 410.935C823.403 410.943 822.827 410.958 822.251 410.966L805.204 409.036C804.815 409.02 804.473 409.301 804.418 409.682L802.278 424.043C802.208 424.533 802.604 424.961 803.095 424.915C817.869 423.56 833.382 421.7 849.533 419.201C860.524 417.497 893.223 411.612 900.727 410.351C901.038 410.297 901.28 410.063 901.334 409.76C901.731 407.752 902.066 405.595 902.307 403.291C902.899 397.64 902.743 392.558 902.284 388.253ZM843.197 381.349L841.492 386.011C841.446 386.128 841.438 386.26 841.453 386.385L842.652 394.41C842.714 394.807 842.458 395.173 842.068 395.266L830.19 398.006C830.05 398.037 829.902 398.03 829.77 397.983L815.915 393.219C815.596 393.11 815.385 392.807 815.401 392.464L815.837 382.213C815.853 381.831 816.141 381.528 816.522 381.489L821.356 380.991C822.196 380.905 822.29 379.722 821.48 379.496C820.577 379.247 820.834 377.901 821.768 378.002L842.559 380.321C843.049 380.376 843.36 380.874 843.189 381.341L843.197 381.349ZM893.722 403.346L891.939 401.361C891.776 401.182 891.534 401.089 891.285 401.112L846.645 406.055C846.085 406.117 845.649 405.564 845.843 405.035L851.557 389.6C851.658 389.32 851.923 389.125 852.226 389.102L892.017 386.58C892.414 386.556 892.764 386.836 892.819 387.233L895.029 402.723C895.138 403.47 894.212 403.899 893.706 403.338L893.722 403.346ZM899.956 399.073C899.925 399.656 899.287 399.991 898.789 399.68L896.882 398.489C896.656 398.349 896.524 398.107 896.524 397.843V392.433C896.524 392.013 896.866 391.67 897.287 391.67H899.513C899.949 391.67 900.299 392.036 900.276 392.472L899.956 399.08V399.073Z" fill="#D3DCD7"/>
<path d="M685.896 358.659L687.048 352.378C687.173 351.685 686.628 351.055 685.92 351.086L396.604 363.369C395.841 363.4 395.187 362.839 395.094 362.084L391.326 330.249C391.21 329.283 391.754 328.349 392.65 327.976L409.548 320.822C410.249 320.527 410.973 320.301 411.72 320.153L682.619 265.861C684.09 265.565 685.133 264.242 685.079 262.74L682.378 194.554C682.3 192.631 680.494 191.261 678.626 191.697L388.711 259.151V373.705C388.711 374.577 389.147 375.348 389.808 375.815L389.762 370C389.762 369.362 390.26 368.841 390.898 368.817L684.853 359.554C685.367 359.539 685.803 359.165 685.896 358.652V358.659Z" fill="#D3DCD7"/>
</g>
</g>
<defs>
<filter id="filter0_d_1563_154750" x="0" y="0" width="994" height="512" filterUnits="userSpaceOnUse" color-interpolation-filters="sRGB">
<feFlood flood-opacity="0" result="BackgroundImageFix"/>
<feColorMatrix in="SourceAlpha" type="matrix" values="0 0 0 0 0 0 0 0 0 0 0 0 0 0 0 0 0 0 127 0" result="hardAlpha"/>
<feOffset dy="1"/>
<feGaussianBlur stdDeviation="2.5"/>
<feComposite in2="hardAlpha" operator="out"/>
<feColorMatrix type="matrix" values="0 0 0 0 0 0 0 0 0 0 0 0 0 0 0 0 0 0 0.15 0"/>
<feBlend mode="normal" in2="BackgroundImageFix" result="effect1_dropShadow_1563_154750"/>
<feBlend mode="normal" in="SourceGraphic" in2="effect1_dropShadow_1563_154750" result="shape"/>
</filter>
<clipPath id="clip0_1563_154750">
<rect x="5" y="4" width="984" height="502" rx="12" fill="white"/>
</clipPath>
</defs>
</svg>
