<svg width="994" height="512" viewBox="0 0 994 512" fill="none" xmlns="http://www.w3.org/2000/svg">
<g filter="url(#filter0_d_1563_155099)">
<g clip-path="url(#clip0_1563_155099)">
<rect x="5" y="4" width="984" height="502" rx="12" fill="#EFF3F6"/>
<g opacity="0.1">
<path d="M27.8392 -186.515L141.789 7.68982L113.982 -211.105" fill="#6687AD"/>
<path d="M432.765 288.224L381.885 193.7L532.609 -29.59L432.765 288.224Z" fill="#537399"/>
<path d="M308.132 312.416L432.762 288.223L381.882 193.698" fill="#99AFC8"/>
<path d="M5.48157 291.395L11.9297 169.637L-45.801 141.875" fill="#537399"/>
<path d="M5.47955 291.396L308.137 312.416L11.9277 169.637" fill="#99AFC8"/>
<path d="M141.786 7.68982L240.824 -69.2519L113.978 -211.105" fill="#99AFC8"/>
<path d="M432.775 288.222L674.074 108.295L661.682 234.813L432.775 288.222Z" fill="#99AFC8"/>
<path d="M661.675 234.813L674.067 108.295L750.336 214.189L661.675 234.813Z" fill="#809BBA"/>
<path d="M674.067 108.295L688.374 -13.3308L750.336 214.189L674.067 108.295Z" fill="#99AFC8"/>
<path d="M687.97 -13.33L750.033 -44.2654L750.738 16.5477" fill="#809BBA"/>
<path d="M750.336 214.189L497.148 407.337L432.768 288.223L750.336 214.189Z" fill="#537399"/>
<path d="M128.396 408.131L308.137 312.416L5.47955 291.396" fill="#6687AD"/>
<path d="M-164.386 357.629L-1.87438 418.575L5.48047 291.396" fill="#6687AD"/>
<path d="M750.031 -44.2654L982.363 -43.2078L750.736 16.5477" fill="#99AFC8"/>
<path d="M750.739 16.5481L1033.25 112.395L1010.98 140.95" fill="#6687AD"/>
<path d="M1157.57 586.074L780.962 644.772L1153.34 484.543" fill="#99AFC8"/>
<path d="M-45.81 141.875L141.789 7.68962L27.8393 -186.516" fill="#809BBA"/>
<path d="M-45.8029 141.876L308.137 312.417L141.796 7.69067" fill="#6687AD"/>
<path d="M141.796 7.69025L308.137 312.416L240.835 -69.2515" fill="#537399"/>
<path d="M688.371 -13.3301L674.064 108.296L581.575 -22.9808L688.371 -13.3301Z" fill="#537399"/>
<path d="M381.885 193.699L532.609 -29.5908L240.833 -69.2515" fill="#99AFC8"/>
<path d="M240.835 -69.2515L381.887 193.699L308.137 312.416L240.835 -69.2515Z" fill="#809BBA"/>
<path d="M581.584 -22.9799L674.074 108.297L532.619 -29.59L581.584 -22.9799Z" fill="#6687AD"/>
<path d="M532.619 -29.59L674.074 108.297L432.775 288.224L532.619 -29.59Z" fill="#809BBA"/>
<path d="M688.373 -13.3308L750.738 16.5469L750.335 214.189" fill="#809BBA"/>
<path d="M542.777 491.814L432.757 288.223L308.127 312.416" fill="#6687AD"/>
<path d="M750.336 214.189L542.788 491.814L497.148 407.337L750.336 214.189Z" fill="#99AFC8"/>
<path d="M465.508 432.72L351.759 521.957L308.134 312.416L465.508 432.72Z" fill="#537399"/>
<path d="M351.754 521.956L308.129 312.416L310.647 545.621" fill="#99AFC8"/>
<path d="M128.397 408.13L310.656 545.621L308.137 312.416" fill="#809BBA"/>
<path d="M-5.105 475.818L128.391 408.131L5.4739 291.396" fill="#537399"/>
<path d="M750.739 16.5474L982.367 -43.208L1033.25 112.394" fill="#537399"/>
<path d="M750.74 16.5481L1010.98 140.95L750.337 214.19" fill="#99AFC8"/>
<path d="M750.337 214.19L1010.98 140.95L885.142 307.128L750.337 214.19Z" fill="#6687AD"/>
<path d="M750.339 214.189L885.145 307.128L672.559 585.149L750.339 214.189Z" fill="#537399"/>
<path d="M750.336 214.189L672.556 585.149L542.788 491.814L750.336 214.189Z" fill="#809BBA"/>
<path d="M1024.58 400.462L885.138 307.128L1010.98 140.95" fill="#537399"/>
<path d="M1024.58 400.463L672.553 585.15L885.138 307.128" fill="#809BBA"/>
<path d="M1153.34 484.544L780.967 644.773L1024.58 400.463" fill="#537399"/>
<path d="M1024.58 400.463L780.961 644.773L672.553 585.15" fill="#99AFC8"/>
<path d="M465.501 432.719L542.777 491.814L351.753 521.956L465.501 432.719Z" fill="#99AFC8"/>
<path d="M399.313 623.885L672.551 585.15L542.783 491.815" fill="#99AFC8"/>
<path d="M351.753 521.957L399.307 623.885L542.777 491.815" fill="#809BBA"/>
<path d="M310.656 545.62L62.2033 441.709L128.397 408.13L310.656 545.62Z" fill="#6687AD"/>
<path d="M310.656 545.621L-5.0986 475.819L62.2033 441.71" fill="#99AFC8"/>
<path d="M180.09 709.023L-136.471 631.42L-5.09106 475.818" fill="#537399"/>
<path d="M310.656 545.621L180.082 709.023L-5.0986 475.818" fill="#6687AD"/>
</g>
<g opacity="0.3">
<path d="M648.556 474C769.421 474 867.401 375.95 867.401 255C867.401 134.05 769.421 36 648.556 36C527.691 36 429.711 134.05 429.711 255C429.711 375.95 527.691 474 648.556 474Z" fill="#CCD7E4"/>
<path d="M502.33 400.306C507.368 396.743 508.287 396.657 511.589 393.149C516.534 387.882 518.193 384.553 519.883 379.045C520.21 377.98 520.942 375.669 523.068 373.74C526.72 370.434 528.69 371.391 532.094 371.025C533.807 370.846 535.185 370.449 536.275 369.944C545.067 365.875 545.099 355.537 545.527 351.336C546.189 345.315 547.388 343.619 549.592 338.874C551.477 334.821 553.618 331.523 555.557 328.948C556.227 328.061 557.013 327.291 557.839 326.552C559.544 325.019 560.44 322.748 560.191 320.453C559.879 317.621 558.493 316.828 555.121 314.401L548.432 308.901C547.684 308.286 547.193 307.423 547.045 306.474L546.781 304.739C546.648 303.899 546.243 303.113 545.62 302.538C542.505 299.636 539.227 296.913 536.283 293.841C535.473 293 534.757 291.958 532.491 291.608C530.396 291.289 530.232 291.522 528.535 291.935C525.163 292.759 521.542 293.265 518.092 293.677C517.578 293.74 517.126 293.288 517.235 292.783C517.344 292.261 517.29 291.725 517.056 291.25C516.667 290.472 515.849 289.967 514.946 289.92C514.533 289.904 514.253 289.5 514.338 289.095C515.203 285.276 516.464 282.615 516.986 278.508C517.235 276.322 517.251 275.723 517.181 275.077C516.745 270.783 511.947 268.597 511.511 268.403L497.868 260.787C496.38 259.955 495.166 258.718 494.363 257.217L491.685 252.176C491.069 251.017 490.182 250.021 489.099 249.282C484.543 246.155 479.996 243.02 475.44 239.893C474.895 239.496 472.823 238.096 469.926 238.321C466.523 238.593 465.768 239.869 464.195 241.324C463.471 241.993 461.898 243.152 459.592 243.673C457.303 244.194 455.341 243.821 454.118 243.44C453.838 243.354 453.643 243.346 453.448 243.448C453.02 243.673 452.498 243.432 452.311 242.989L452.148 242.6C451.969 242.172 451.875 241.713 451.86 241.254L451.634 228.908C451.548 223.269 450.349 224.529 448.752 222.965C448.316 222.537 448.137 221.495 448.075 220.305C448.028 219.433 448.379 218.842 448.643 218.368C450.793 214.439 450.871 210.309 451.867 205.734C452.054 204.894 452.171 204.326 451.673 203.883C451.143 203.416 450.38 203.587 449.734 204.015C446.525 206.131 445.653 208.263 444.368 211.724C444.173 212.09 443.301 213.591 441.424 214.206C440.957 214.361 440.513 214.431 440.108 214.455C439.283 214.501 438.699 213.661 439.041 212.907L453.565 181.666C453.869 181.005 454.725 180.826 455.27 181.292C455.512 181.495 455.753 181.705 455.995 181.907C456.641 182.459 457.653 182.148 457.871 181.324C457.926 181.121 457.98 180.95 458.043 180.787C459.172 177.932 463.182 176.236 468.034 176.617C469.537 176.726 471.009 177.457 473.509 176.244C475.121 175.458 476.078 174.276 477.247 172.891C491.108 159.425 503.436 147.461 517.305 133.995C518.59 132.377 520.825 130.892 522.795 131.677C524.47 132.346 525.529 134.135 525.381 136.026C525.334 136.664 525.809 137.216 526.44 137.278C528.683 137.519 528.807 137.706 531.034 138.079C536.003 138.904 537.872 138.204 538.448 136.601C538.884 135.388 538.144 134.532 536.859 132.766C535.1 130.355 532.981 128.239 531.034 125.967C530.824 125.804 528.215 123.665 528.683 121.852C529.134 120.086 534.695 119.052 537.794 120.327L541.563 122.459C543.72 123.813 545.667 123.54 545.714 123.089C545.846 121.914 543.417 120.646 544.896 120.211C546.493 119.744 551.406 118.888 555.915 116.944C559.895 115.224 562.924 113.07 565.105 111.327C566.195 110.059 568.804 108.254 564.186 108.776C562.488 108.908 560.074 107.539 559.085 104.629C558.322 102.389 558.89 100.218 561.507 97.5191C561.81 97.208 561.515 96.6868 561.086 96.7412L550.16 98.9505C549.327 99.0827 548.813 98.8727 548.883 98.0326L549.094 95.5199C549.242 93.8474 548.634 92.9217 547.606 92.3771C546.197 91.6381 544.242 92.0815 542.7 93.3106C541.182 94.4853 541.54 94.1041 539.858 95.481C538.362 96.7101 536.696 99.1605 535.512 99.7517C534.609 100.187 533.604 100.343 532.615 100.211L530.848 99.9773C530.497 99.9307 530.154 100.141 530.045 100.475L529.376 102.451C528.94 103.735 528.106 104.847 527.001 105.633C523.691 107.974 517.079 112.346 516.16 112.961C515.366 113.49 514.712 114.198 514.237 115.022C512.275 118.414 510.686 121.012 510.211 120.818C509.596 120.561 508.638 118.772 511.877 111.49C511.979 111.257 511.792 111.008 511.543 111.047C507.057 111.77 503.755 109.616 503.498 107.601C503.288 105.944 505.063 103.89 507.688 102.7C517.874 97.8225 529.531 95.2476 538.238 88.0597C538.993 87.4374 539.523 86.6673 539.281 85.4459C538.985 83.9212 537.514 82.0776 533.916 83.1589L509.65 96.0878C508.949 96.4612 508.108 96.4612 507.407 96.0956L501.193 92.8439C465.721 125.042 440.864 168.706 432.484 217.971L436.137 216.088C436.588 219.052 437.04 222.016 437.492 224.98C437.601 225.688 438.208 226.201 438.925 226.232C439.065 226.232 439.189 226.256 439.306 226.271C439.851 226.357 442.631 227.905 443.114 231.079C443.854 235.785 444.726 239.021 446.517 243.012C448.48 247.399 450.567 250.021 452.467 251.896C453.565 252.977 454.009 254.564 453.604 256.05C449.523 266.365 454.063 264.972 449.741 270.285C449.43 270.628 447.421 272.899 447.95 275.778C448.129 276.758 448.542 277.505 448.869 277.956C449.671 279.099 449.983 279.605 449.874 280.702C449.749 281.946 448.604 282.67 448.347 282.833C446.486 284.327 444.664 285.781 444.89 290.301C445.03 293.063 446.447 295.008 447.514 296.104C448.394 296.999 449.087 298.065 449.57 299.224C451.096 302.896 452.63 306.559 454.157 310.231C454.562 311.204 454.78 312.246 454.819 313.304C454.92 316.151 455.379 319.792 456.75 323.798C459.11 330.698 463.05 335.42 465.783 338.119C466.648 338.975 466.804 340.072 467.092 340.648C469.218 346.505 470.074 345.603 470.588 350.169C470.947 353.351 470.37 356.416 469.981 358.119C468.891 364.319 469.117 366.91 470.253 372.869C471.718 380.562 476.188 389.049 479.77 394.58C486.109 402.211 492.954 409.407 500.258 416.113C500.149 410.364 497.953 403.378 502.322 400.29L502.33 400.306Z" fill="#6687AD"/>
<path d="M572.855 76.7886C570.932 76.5085 569.631 76.7886 568.595 77.0608C568.19 77.1697 567.77 77.1853 567.357 77.1308C566.197 76.9753 563.658 76.8897 561.929 78.6711C561.252 79.3712 560.901 80.1569 560.707 80.7637L558.69 84.451C558.371 85.0344 557.825 85.4545 557.179 85.6023C555.956 85.8746 555.559 86.4736 555.474 86.6058C554.601 88.006 555.715 90.9232 558.931 93.1792C564.266 93.9726 565.262 93.8326 568.152 93.5603C568.884 93.4903 569.569 93.1558 570.067 92.6191L577.263 84.91C577.605 84.5366 577.855 84.0854 577.964 83.5953C578.081 83.0741 578.166 82.4751 578.197 81.8139C578.26 80.367 578.641 79.6591 577.761 78.3755C576.796 77.8699 574.794 77.0764 572.855 76.7963V76.7886Z" fill="#6687AD"/>
<path d="M625.028 92.821C625.129 92.8366 625.223 92.8677 625.324 92.8988C626.337 93.2722 627.863 93.669 629.693 93.5678C633.61 93.35 636.25 91.0085 637.223 90.0206C637.387 89.8494 637.589 89.725 637.807 89.6394C647.215 85.9443 648.243 88.2314 651.654 88.8148C653.133 89.0715 654.543 89.7094 656.038 89.8572C660.329 90.2773 663.249 90.3628 665.274 90.2773C667.221 90.1917 668.241 87.9046 666.995 86.4111C666.2 85.462 665.531 84.1862 665.313 82.5137C665.305 82.4437 665.297 82.3737 665.297 82.3037C665.282 81.0123 666.823 80.2733 667.89 81.0123C668.233 81.2457 668.654 81.4791 669.152 81.658C671.145 82.3504 672.944 81.6036 673.513 81.3313C673.567 81.3002 673.63 81.2768 673.692 81.2535C679.828 79.0053 686.72 77.8929 692.327 74.8435C692.981 74.4857 692.795 73.4977 692.063 73.3888C684.929 72.0897 677.601 70.8606 670.079 69.7249C661.785 68.4646 653.678 67.3756 645.774 66.4343C643.897 66.2087 642.02 66.0687 640.136 65.9831C630.962 65.563 621.306 65.4074 611.206 65.6097C605.676 65.7186 600.295 65.9286 595.062 66.2165C593.411 66.3098 592.142 67.6945 592.189 69.3359L592.461 79.4099C592.485 80.2578 593.131 80.9579 593.972 81.059C601.853 81.9692 605.809 83.0038 605.84 84.1629C605.871 85.2442 602.476 86.4266 595.646 87.7179C595.514 87.7413 595.374 87.7802 595.249 87.8424C591.254 89.6549 591.277 93.949 592.196 96.5784C593.551 100.445 600.303 103.191 607.538 99.9389C607.662 99.8845 607.787 99.8067 607.896 99.7211C617.918 91.9031 620.395 92.012 625.044 92.8366L625.028 92.821Z" fill="#6687AD"/>
<path d="M569.042 122.366L564.681 119.643C564.253 118.749 563.684 118.305 563.349 118.087C561.87 117.792 559.868 117.916 557.68 118.858C554.651 119.923 552.992 118.904 551.707 120.297C550.5 121.604 549.815 122.218 549.441 122.91C547.541 123.237 546.365 123.323 546.303 124.241C546.264 124.785 546.871 125.198 548.857 126.831C553.132 131.102 554.736 129.095 557.166 127.617C560.024 125.874 560.335 124.793 563.458 124.108C564.221 123.937 564.946 123.86 565.592 123.836C565.981 123.821 566.363 123.774 566.745 123.681C567.469 123.502 568.193 123.331 568.925 123.152C569.299 123.058 569.377 122.568 569.05 122.366H569.042Z" fill="#6687AD"/>
<path d="M832.66 136.174H827.256C821.906 135.956 817.187 130.402 815.699 128.465C815.271 127.905 814.788 127.383 814.259 126.917C812.507 125.376 809.625 123.315 805.599 122.117C802.064 121.067 798.988 121.09 797.033 121.269C795.764 121.417 792.874 121.674 792.649 120.942C792.407 120.164 799.276 115.902 802.461 113.793C802.78 113.583 802.617 113.085 802.235 113.109L795.039 113.498C794.3 113.537 792.633 113.272 792.033 112.844C792.033 112.844 780.617 106.605 768.944 94.9757C767.02 93.062 764.824 92.5875 759.1 97.4884C753.275 103.828 746.679 105.314 744.686 101.456C743.728 99.6121 740.262 99.9699 740.262 99.9699C730.777 100.95 728.176 108.682 729.228 111.6C730.435 114.937 736.034 114.517 738.557 114.999C742.093 116.22 743.074 118.554 742.482 120.094C741.921 121.549 740.691 121.65 738.822 121.79C729.695 122.475 722.998 122 714.813 122.047C714.338 122.047 713.879 122.171 713.466 122.413L704.985 127.298C704.464 127.594 704.378 128.301 704.791 128.729C705.281 129.243 705.826 129.966 706.208 130.939C707.01 133 706.652 134.859 706.372 135.38C703.521 140.67 702.61 144.179 703.132 148.613C703.171 148.963 702.836 149.235 702.509 149.118C701.504 148.045 693.896 140.133 686.747 142.273H686.724C685.462 142.662 684.294 143.478 684.099 144.933C681.405 165.268 681.685 168.597 686.817 171.172C687.822 171.678 689.909 172.355 693.592 171.11C694.246 170.884 694.94 170.791 695.633 170.791H701.972C702.493 170.791 702.968 170.503 703.202 170.036C704.059 168.333 705.468 166.069 707.75 163.93C711.667 160.25 715.942 158.974 718.022 158.508C726.463 157.069 725.077 154.953 731.79 156.088C735.567 156.726 738.791 157.854 739.998 159.418C745.036 165.952 748.369 168.652 752.559 173.272C752.8 173.623 754.109 174.657 754.848 174.937C756.375 175.521 757.519 172.977 759.202 172.222C760.806 171.507 761.242 172.837 761.592 173.265L765.517 178.881C766.008 180.219 766.459 180.779 767.48 181.005C768.546 181.238 769.115 179.752 770.229 179.799C771.802 179.861 771.272 179.768 772.323 180.974C772.876 182.872 773.024 183.051 773.857 183.066C774.714 183.082 775.431 182.164 775.462 180.974C775.516 178.881 777.954 178.936 780.89 179.931C783.825 180.834 787.034 179.869 788.973 177.512C790.951 175.093 791.223 171.678 789.658 168.955C787.447 162.141 794.993 161.666 797.313 164.241C800.132 168.753 801.986 170.83 802.874 170.48C803.232 170.34 803.426 169.741 803.465 168.807C803.497 168.092 803.746 167.384 804.26 166.878C804.922 166.217 805.934 165.983 806.993 169.336L812.359 182.794C813.013 184.428 813.34 185.727 812.491 186.326C811.79 186.816 810.895 185.898 809.61 185.672C784.028 181.153 779.239 186.808 792.999 193.109C794.338 193.724 795.803 194.019 797.274 194.012C798.91 194.004 801.308 194.354 802.936 196.198C803.644 196.999 804.026 197.878 804.244 198.617C804.439 202.856 804.633 207.104 804.836 211.343C804.875 212.098 804.267 212.736 803.512 212.736H790.001C789.502 212.736 789.121 213.164 789.168 213.654L789.791 219.652C789.837 220.072 790.055 220.453 790.406 220.694L800.584 227.843C804.945 230.799 819.204 269.617 819.204 269.617C821.828 277.59 822.552 279.014 823.487 279.061C824.281 279.1 824.289 277.17 825.714 276.252C829.966 273.506 832.341 273.989 837.138 272.791C842.815 271.204 847.254 266.949 848.547 261.612C850.26 254.518 846.055 246.785 838.447 243.253C832.388 240.437 828.658 239.13 830.098 232.464C831.274 230.387 835.028 227.789 839.716 232.596C842.558 235.513 844.754 239.037 846.857 240.188C847.62 240.608 848.329 241.114 848.882 241.775C849.668 242.717 850.502 243.611 851.42 244.428C852.464 245.362 853.57 246.505 854.637 247.89C858.032 252.316 859.177 256.859 859.605 259.481C860.594 273.724 861.591 287.976 862.58 302.219C865.944 286.98 867.712 271.149 867.712 254.907C867.712 211.133 854.847 170.355 832.692 136.151L832.66 136.174Z" fill="#6687AD"/>
<path d="M775.641 354.564C776.062 353.04 776.638 351.562 777.316 350.138C779.901 344.708 781.973 341.013 782.642 340.546C783.888 339.683 784.34 340.352 786.668 339.302C788.802 337.691 790.585 335.521 792.719 333.911C796.979 330.651 804.237 324.039 807.765 313.428C808.652 310.768 809.431 310.262 809.462 305.945C809.244 304.98 809.073 303.526 809.493 301.892C809.961 300.087 810.918 298.905 811.425 298.36C812.538 297.131 813.535 295.295 814.843 293.249C815.63 292.02 816.004 291.235 815.809 290.814C815.007 289.562 814.142 290.589 809.859 289.998C809.197 289.827 808.567 289.616 807.959 289.375C798.287 285.501 799.72 273.662 794.082 267.78C793.42 267.236 792.517 266.341 791.738 265.058C789.721 261.752 790.048 258.321 790.235 257.061C790.461 255.085 790.796 251.444 789.994 247.695C789.262 244.28 788.646 242.973 787.151 240.382C786.668 239.542 786.326 238.624 786.154 237.668C784.978 231.211 782.502 226.87 782.712 225.462C782.837 224.622 783.234 223.836 783.818 223.214C784.176 222.833 784.566 222.413 784.854 222.102C785.049 221.884 785.204 221.635 785.29 221.355C785.921 219.363 786.014 217.753 785.913 216.742C785.835 215.902 785.656 215.155 785.453 214.517C785.08 213.373 784.153 212.494 782.993 212.16C775.361 209.982 770.198 207.415 762.566 205.236C761.842 205.026 761.172 204.661 760.604 204.155C759.934 203.883 759.116 203.471 758.275 202.833C756.749 201.681 755.869 200.343 755.394 199.48C754.14 197.66 752.902 196.742 751.983 198.749C751.072 200.74 750.2 202.615 750.2 202.615C749.374 204.272 749.491 206.084 748.759 206.582C747.607 207.36 746.508 206.839 744.18 205.322C742.49 204.217 741.065 203.572 740.224 202.918C738.09 201.254 735.637 198.671 734.376 194.976C734.251 194.602 734.08 194.252 733.799 193.996C733.231 193.474 732.359 193.342 731.58 193.638C730.645 193.988 729.602 193.988 728.636 193.739C728.613 193.739 728.597 193.731 728.574 193.723C727.655 193.482 726.612 193.085 725.56 192.424C723.637 191.218 722.43 189.624 721.69 188.247C721.223 187.391 720.966 186.434 720.919 185.462C720.802 182.825 719.938 176.601 713.451 176.975L696.209 176.788L679.023 176.174C671.258 176.088 668.556 173.677 661.314 180.125C658.9 182.272 657.475 184.738 656.626 186.823C655.691 189.11 653.713 190.798 651.307 191.366C647.102 192.346 640.708 194.89 636.511 201.464C632.882 207.15 632.711 213.008 633.108 216.679C633.318 218.632 632.345 220.538 630.608 221.448C627.89 222.872 626.021 224.98 625.655 227.399C625.616 227.64 625.593 227.913 625.585 228.208C625.569 229.422 625.297 230.62 624.705 231.678C623.07 234.634 621.247 239.076 621.138 244.583C621.107 246.046 621.209 247.399 621.372 248.636C621.52 249.717 621.598 250.814 621.598 251.903V271.748C621.598 272.946 622.174 274.074 623.148 274.774L640.957 287.641C641.728 288.061 643.971 289.158 646.907 288.753C650.692 288.232 651.323 286.093 653.254 285.027C660.006 281.238 662.412 282.164 664.701 282.569C671.282 284.078 679.638 286.754 684.653 285.548C685.556 285.315 686.467 285.61 686.942 286.264C687.339 286.816 687.293 287.438 687.269 287.633C687.23 287.905 686.818 291.413 689.497 293.755C691.537 295.536 694.263 294.875 697.082 294.688C697.705 294.65 701.38 295.256 703.101 298.874C704.339 301.48 703.849 303.86 703.366 304.49C700.267 308.59 699.34 312.37 700.687 313.771C700.975 314.066 701.552 314.051 702.712 314.424C703.304 314.611 703.569 315.054 703.498 316.058C703.436 316.898 702.798 317.365 702.712 317.427C701.715 318.166 701.295 319.457 701.668 320.632C702.027 321.775 703.319 321.931 704.285 322.654C705.687 323.705 705.913 325.058 706.115 327.493C706.279 329.461 705.78 331.001 705.461 331.803C703.389 334.798 700.524 339.745 698.919 346.443C698.117 349.811 697.806 352.907 697.744 355.552C697.681 358.477 697.455 361.402 696.957 364.288C696.412 367.392 696.054 371.048 696.17 375.132C696.295 379.372 696.902 383.059 697.611 386.046C699.488 396.766 701.365 407.478 703.234 418.197C703.755 420.71 703.919 421.854 705.391 423.161C707.634 424.88 711.286 424.592 713.832 422.118C725.965 412.153 732.11 410.823 735.349 410.131C737.545 409.664 739.632 409.415 741.571 409.306C741.906 409.283 745.068 408.979 746.867 406.101C748.634 403.269 747.583 400.352 747.459 400.025C747.116 399.442 747.1 398.726 747.427 398.166C747.817 397.489 748.603 397.334 749.421 397.287C751.609 397.155 752.341 396.284 754.062 394.246C755.939 392.036 756.274 389.656 756.352 388.792C756.36 388.03 756.437 386.832 756.78 385.424C757.8 381.208 760.401 378.462 761.85 377.155C774.279 364.382 774.543 358.135 775.096 356.408C775.299 355.778 775.478 355.163 775.649 354.541L775.641 354.564Z" fill="#6687AD"/>
<path d="M813.556 367.899L813.619 366.086C813.634 365.697 813.198 365.456 812.879 365.681L810.434 367.37C810.106 367.595 809.655 367.556 809.367 367.276L806.579 364.538C806.314 364.273 805.854 364.429 805.808 364.802C805.395 367.704 805.707 369.952 804.562 373.515C803.892 375.592 802.467 378.128 800.442 380.835C798.752 383.083 797.016 384.803 795.536 386.063C795.536 386.063 776.434 398.61 776.434 399.132C774.635 400.088 773.63 402.072 773.949 404.033C774.237 405.845 775.6 407.339 777.415 407.821C782.157 408.505 784.548 407.362 787.554 404.289C787.873 403.963 788.761 403.255 790.108 403.045C791.954 402.765 793.301 403.729 793.644 403.892C795.902 405.005 798.955 404.81 802.74 401.994C806.61 399.116 808.136 392.815 806.602 388.467C806.291 387.587 806.532 385.028 808.105 382.453C809.515 380.143 810.784 378.992 812.295 378.595C814.024 378.144 815.643 377.42 816.157 375.787C816.515 374.627 816.126 372.426 814.724 370.909C813.961 370.084 813.533 369.003 813.572 367.883L813.556 367.899Z" fill="#6687AD"/>
</g>
<path d="M638.762 141.525L525.727 137.158L398.486 121.675C397.1 121.504 395.691 121.776 394.469 122.446L388.88 125.505C387.915 126.034 388.133 127.482 389.215 127.7L527.486 155.024C528.615 155.249 529.751 155.405 530.895 155.491L622.36 162.637C622.874 162.676 623.123 163.291 622.773 163.672L619.27 167.51C618.764 168.062 618.024 168.358 617.277 168.296L585.323 165.774C583.82 165.657 582.443 164.886 581.555 163.672L535.044 100.112C534.398 99.2327 533.293 98.8202 532.227 99.0615L519.616 101.965C518.122 102.308 517.203 103.818 517.584 105.305L525.742 137.151L541.793 179.607C542.066 180.331 541.708 181.148 540.992 181.436L535.519 183.616C535.076 183.795 534.601 183.88 534.118 183.865L451.878 182.495C451.815 182.495 451.761 182.495 451.699 182.518L443.611 184.635C442.895 184.822 442.988 185.865 443.72 185.928L526.575 192.887C527.175 192.941 527.618 193.486 527.525 194.086C527.042 197.2 527.143 202.579 544.191 202.329H605.749C607.656 202.329 609.555 202.041 611.384 201.465L767.38 152.595C767.809 152.463 768.252 152.408 768.696 152.431L775.134 152.774C775.686 152.805 775.819 153.56 775.313 153.778L729.471 173.519C728.28 174.033 727.058 174.461 725.82 174.812L649.831 196.226C649.519 196.312 649.605 196.787 649.932 196.74C667.431 194.483 707.037 187.913 715.639 185.103C754.116 173.239 770.416 168.078 771.055 167.627C771.716 167.159 772.503 166.934 773.312 166.988C781.781 167.502 790.251 168.016 798.72 168.537C799.389 168.576 799.763 169.339 799.381 169.892L797.311 172.904C794.797 176.563 797.521 181.514 801.958 181.358L840.965 179.941C841.712 179.941 850.578 179.513 855.311 172.523C859.616 166.171 857.273 156.806 857.071 156.331C866.988 154.837 877.263 152.789 887.982 150.812C899.004 148.78 908.252 146.904 908.228 146.243C908.275 145.994 908.291 145.643 908.182 145.277C907.839 144.157 906.454 143.378 904.702 143.292L817.924 144.25C817.425 144.25 817.309 143.557 817.776 143.401C837.306 136.613 844.367 134.932 861.492 125.178C870.755 119.908 877.862 111.664 883.14 105.912C895.276 88.2801 882.564 83.4459 880.431 82.0525C880.431 82.0525 876.002 73.0304 859.11 72.1352C852.252 71.7693 843.573 72.1352 838.404 73.3651C819.332 77.5999 722.551 111.081 641.844 141.027C640.863 141.393 639.82 141.557 638.777 141.518L638.762 141.525Z" fill="#6687AD"/>
<path d="M654.12 142.078H674.398C675.301 142.078 676.196 141.923 677.045 141.611L813.417 92.0168C813.899 91.8378 814.405 92.1959 814.405 92.7096V94.6791C814.405 95.1306 814.125 95.5276 813.697 95.6833L685.592 141.386C685.21 141.518 685.312 142.086 685.716 142.086H709.544C710.198 142.086 710.852 142.001 711.482 141.837L784.646 122.898C866.474 101.662 879.749 90.4578 885.486 85.7015C885.381 85.2829 883.527 83.6084 880.492 82.0984L864.917 82.3953C864.427 82.3953 863.936 82.4731 863.477 82.6366L852.634 86.342C852.019 86.5522 851.489 85.8594 851.855 85.3222L854.891 80.7995C855.117 80.457 855.475 80.2312 855.88 80.1612L862.232 79.1336C862.66 79.0636 863.088 79.0169 863.516 79.0013L873.69 78.542C873.052 77.9504 872.172 77.2732 871.036 76.6893C868.84 75.5606 866.785 75.366 865.571 75.3504C859.367 74.8833 852.385 74.8911 846.36 75.3738C844.024 75.5606 841.72 76.0666 839.509 76.8372L654.003 141.386C653.622 141.518 653.715 142.086 654.12 142.086V142.078Z" fill="#CCD7E4"/>
<path d="M811.176 146.679L806.755 149.66C806.335 149.948 806.56 150.61 807.066 150.579L892.794 145.846C893.285 145.753 893.098 145.34 892.708 145.34C866.164 145.589 839.612 145.838 813.068 146.087C812.391 146.087 811.729 146.297 811.169 146.679H811.176Z" fill="#CCD7E4"/>
<path d="M844.848 150.26C838.932 150.26 834.137 155.927 834.137 162.909C834.137 169.892 838.932 175.559 844.848 175.559C850.764 175.559 855.559 169.892 855.559 162.909C855.559 155.927 850.764 150.26 844.848 150.26ZM845.401 172.258C845.019 172.336 844.755 171.893 845.004 171.597C846.537 169.799 849.97 166.926 850.149 162.162C850.321 157.725 845.891 154.658 844.319 153.093C844.093 152.868 844.288 152.478 844.607 152.525C849.371 153.156 853.092 157.071 853.403 161.796C853.73 166.716 850.266 171.215 845.393 172.266L845.401 172.258Z" fill="#CCD7E4"/>
<path d="M677.9 144.25C671.011 144.25 665.43 149.738 665.43 156.51C665.43 163.283 671.011 168.771 677.9 168.771C684.79 168.771 690.371 163.283 690.371 156.51C690.371 149.738 684.79 144.25 677.9 144.25ZM681.489 165.945C679.193 167.004 678.78 166.202 678.99 165.852C679.8 164.513 681.131 158.83 680.033 155.094C679.193 152.229 676.024 149.855 671.945 148.578C671.618 148.477 672.739 147.543 673.082 147.387C677.223 145.511 684.634 146.437 687.07 152.361C688.892 156.783 686.72 163.54 681.481 165.953L681.489 165.945Z" fill="#CCD7E4"/>
<path d="M631.98 163.867C635.732 160.987 644.232 154.557 646.684 152.712C647.136 152.369 647.595 152.066 648.085 151.793C650.514 150.454 653.511 149.045 657.029 147.839C660.945 146.5 664.502 145.776 667.437 145.371C667.562 145.371 667.834 145.371 667.951 145.542C668.06 145.69 668.075 145.908 667.927 146.079C666.853 147.372 665.724 149.006 664.751 151.007C663.047 154.518 663.747 159.235 664.572 162.621C664.853 163.758 663.895 163.75 663.467 163.049C661.249 159.461 661.054 155.125 661.249 152.976C661.272 152.743 661.093 152.541 660.859 152.533C659.606 152.494 658.213 152.517 656.703 152.657C654.422 152.875 652.406 153.303 650.709 153.794C650.024 153.996 649.362 154.276 648.739 154.627C643.213 157.795 637.693 160.971 632.167 164.139C631.988 164.24 631.816 163.991 631.98 163.867Z" fill="#CCD7E4"/>
<path d="M637.984 145.067L635.034 148.415C634.902 148.57 634.699 148.648 634.497 148.64L526.047 144.336C525.183 144.304 524.319 144.219 523.455 144.079L406.31 125.591C406.061 125.575 405.921 125.396 405.944 125.279C405.959 125.178 406.115 125.085 406.31 125.1C446.297 130.152 486.285 135.205 526.273 140.257C527.098 140.358 527.931 140.428 528.756 140.451L637.494 143.931C638.07 143.946 638.358 144.624 637.984 145.06V145.067Z" fill="#CCD7E4"/>
<path d="M537.977 159.352L545.871 177.357C546.089 177.848 546.657 178.089 547.155 177.894L577.335 166.35C577.903 166.132 578.152 165.463 577.864 164.925L576.393 162.224C576.237 161.928 575.941 161.734 575.606 161.703L538.997 157.935C538.227 157.857 537.658 158.636 537.97 159.344L537.977 159.352Z" fill="#CCD7E4"/>
<path d="M530.903 135.562L554.505 137.33C555.556 137.407 556.218 136.232 555.611 135.376L532.429 102.829C532.102 102.37 531.502 102.191 530.973 102.393L523.702 105.172C523.126 105.39 522.799 105.997 522.932 106.597L528.863 133.803C529.073 134.776 529.899 135.492 530.895 135.57L530.903 135.562Z" fill="#CCD7E4"/>
</g>
</g>
<defs>
<filter id="filter0_d_1563_155099" x="0" y="0" width="994" height="512" filterUnits="userSpaceOnUse" color-interpolation-filters="sRGB">
<feFlood flood-opacity="0" result="BackgroundImageFix"/>
<feColorMatrix in="SourceAlpha" type="matrix" values="0 0 0 0 0 0 0 0 0 0 0 0 0 0 0 0 0 0 127 0" result="hardAlpha"/>
<feOffset dy="1"/>
<feGaussianBlur stdDeviation="2.5"/>
<feComposite in2="hardAlpha" operator="out"/>
<feColorMatrix type="matrix" values="0 0 0 0 0 0 0 0 0 0 0 0 0 0 0 0 0 0 0.15 0"/>
<feBlend mode="normal" in2="BackgroundImageFix" result="effect1_dropShadow_1563_155099"/>
<feBlend mode="normal" in="SourceGraphic" in2="effect1_dropShadow_1563_155099" result="shape"/>
</filter>
<clipPath id="clip0_1563_155099">
<rect x="5" y="4" width="984" height="502" rx="12" fill="white"/>
</clipPath>
</defs>
</svg>
