<svg width="994" height="512" viewBox="0 0 994 512" fill="none" xmlns="http://www.w3.org/2000/svg">
<g filter="url(#filter0_d_1563_154866)">
<g clip-path="url(#clip0_1563_154866)">
<rect x="5" y="4" width="984" height="502" rx="12" fill="#EFF3F6"/>
<g opacity="0.1">
<path d="M27.8392 -186.515L141.789 7.68982L113.982 -211.105" fill="#6687AD"/>
<path d="M-45.81 141.875L141.789 7.68962L27.8393 -186.516" fill="#809BBA"/>
<path d="M-45.8029 141.876L308.137 312.417L141.796 7.69067" fill="#6687AD"/>
<path d="M141.796 7.69025L308.137 312.416L240.835 -69.2515" fill="#537399"/>
<path d="M688.371 -13.3301L674.064 108.296L581.575 -22.9808L688.371 -13.3301Z" fill="#537399"/>
<path d="M381.885 193.699L532.609 -29.5908L240.833 -69.2515" fill="#99AFC8"/>
<path d="M240.835 -69.2515L381.887 193.699L308.137 312.416L240.835 -69.2515Z" fill="#809BBA"/>
<path d="M432.765 288.224L381.885 193.7L532.609 -29.59L432.765 288.224Z" fill="#537399"/>
<path d="M308.132 312.416L432.762 288.223L381.882 193.698" fill="#99AFC8"/>
<path d="M5.48157 291.395L11.9297 169.637L-45.801 141.875" fill="#537399"/>
<path d="M5.47955 291.396L308.137 312.416L11.9277 169.637" fill="#99AFC8"/>
<path d="M141.786 7.68982L240.824 -69.2519L113.978 -211.105" fill="#99AFC8"/>
<path d="M581.584 -22.9799L674.074 108.297L532.619 -29.59L581.584 -22.9799Z" fill="#6687AD"/>
<path d="M532.619 -29.59L674.074 108.297L432.775 288.224L532.619 -29.59Z" fill="#809BBA"/>
<path d="M432.775 288.222L674.074 108.295L661.682 234.813L432.775 288.222Z" fill="#99AFC8"/>
<path d="M661.675 234.813L674.067 108.295L750.336 214.189L661.675 234.813Z" fill="#809BBA"/>
<path d="M674.067 108.295L688.374 -13.3308L750.336 214.189L674.067 108.295Z" fill="#99AFC8"/>
<path d="M688.373 -13.3308L750.738 16.5469L750.335 214.189" fill="#809BBA"/>
<path d="M687.97 -13.33L750.033 -44.2654L750.738 16.5477" fill="#809BBA"/>
<path d="M542.777 491.814L432.757 288.223L308.127 312.416" fill="#6687AD"/>
<path d="M750.336 214.189L497.148 407.337L432.768 288.223L750.336 214.189Z" fill="#537399"/>
<path d="M750.336 214.189L542.788 491.814L497.148 407.337L750.336 214.189Z" fill="#99AFC8"/>
<path d="M465.508 432.72L351.759 521.957L308.134 312.416L465.508 432.72Z" fill="#537399"/>
<path d="M351.754 521.956L308.129 312.416L310.647 545.621" fill="#99AFC8"/>
<path d="M128.396 408.131L308.137 312.416L5.47955 291.396" fill="#6687AD"/>
<path d="M128.397 408.13L310.656 545.621L308.137 312.416" fill="#809BBA"/>
<path d="M-5.105 475.818L128.391 408.131L5.4739 291.396" fill="#537399"/>
<path d="M-164.386 357.629L-1.87438 418.575L5.48047 291.396" fill="#6687AD"/>
<path d="M750.739 16.5474L982.367 -43.208L1033.25 112.394" fill="#537399"/>
<path d="M750.031 -44.2654L982.363 -43.2078L750.736 16.5477" fill="#99AFC8"/>
<path d="M750.739 16.5481L1033.25 112.395L1010.98 140.95" fill="#6687AD"/>
<path d="M750.74 16.5481L1010.98 140.95L750.337 214.19" fill="#99AFC8"/>
<path d="M750.337 214.19L1010.98 140.95L885.142 307.128L750.337 214.19Z" fill="#6687AD"/>
<path d="M750.339 214.189L885.145 307.128L672.559 585.149L750.339 214.189Z" fill="#537399"/>
<path d="M750.336 214.189L672.556 585.149L542.788 491.814L750.336 214.189Z" fill="#809BBA"/>
<path d="M1024.58 400.462L885.138 307.128L1010.98 140.95" fill="#537399"/>
<path d="M1024.58 400.463L672.553 585.15L885.138 307.128" fill="#809BBA"/>
<path d="M1153.34 484.544L780.967 644.773L1024.58 400.463" fill="#537399"/>
<path d="M1024.58 400.463L780.961 644.773L672.553 585.15" fill="#99AFC8"/>
<path d="M465.501 432.719L542.777 491.814L351.753 521.956L465.501 432.719Z" fill="#99AFC8"/>
<path d="M399.313 623.885L672.551 585.15L542.783 491.815" fill="#99AFC8"/>
<path d="M351.753 521.957L399.307 623.885L542.777 491.815" fill="#809BBA"/>
<path d="M310.656 545.62L62.2033 441.709L128.397 408.13L310.656 545.62Z" fill="#6687AD"/>
<path d="M310.656 545.621L-5.0986 475.819L62.2033 441.71" fill="#99AFC8"/>
<path d="M1157.57 586.074L780.962 644.772L1153.34 484.543" fill="#99AFC8"/>
<path d="M180.09 709.023L-136.471 631.42L-5.09106 475.818" fill="#537399"/>
<path d="M310.656 545.621L180.082 709.023L-5.0986 475.818" fill="#6687AD"/>
</g>
<g opacity="0.3">
<path d="M649.076 474C769.94 474 867.921 375.95 867.921 255C867.921 134.05 769.94 36 649.076 36C528.211 36 430.23 134.05 430.23 255C430.23 375.95 528.211 474 649.076 474Z" fill="#CCD7E4"/>
<path d="M502.849 400.306C507.888 396.743 508.807 396.657 512.109 393.149C517.054 387.882 518.713 384.553 520.402 379.045C520.729 377.98 521.461 375.669 523.587 373.74C527.24 370.434 529.21 371.391 532.613 371.025C534.326 370.846 535.705 370.449 536.795 369.944C545.587 365.875 545.618 355.537 546.046 351.336C546.708 345.315 547.908 343.619 550.111 338.874C551.996 334.821 554.138 331.523 556.077 328.948C556.746 328.061 557.533 327.291 558.358 326.552C560.064 325.019 560.959 322.748 560.71 320.453C560.399 317.621 559.013 316.828 555.641 314.401L548.951 308.901C548.204 308.286 547.713 307.423 547.565 306.474L547.3 304.739C547.168 303.899 546.763 303.113 546.14 302.538C543.025 299.636 539.746 296.913 536.803 293.841C535.993 293 535.276 291.958 533.01 291.608C530.915 291.289 530.752 291.522 529.054 291.935C525.682 292.759 522.061 293.265 518.611 293.677C518.097 293.74 517.646 293.288 517.755 292.783C517.864 292.261 517.809 291.725 517.576 291.25C517.186 290.472 516.368 289.967 515.465 289.92C515.052 289.904 514.772 289.5 514.858 289.095C515.722 285.276 516.984 282.615 517.505 278.508C517.755 276.322 517.77 275.723 517.7 275.077C517.264 270.783 512.467 268.597 512.031 268.403L498.387 260.787C496.9 259.955 495.685 258.718 494.883 257.217L492.204 252.176C491.589 251.017 490.701 250.021 489.619 249.282C485.063 246.155 480.515 243.02 475.959 239.893C475.414 239.496 473.343 238.096 470.446 238.321C467.043 238.593 466.287 239.869 464.714 241.324C463.99 241.993 462.417 243.152 460.112 243.673C457.822 244.194 455.86 243.821 454.637 243.44C454.357 243.354 454.162 243.346 453.968 243.448C453.539 243.673 453.018 243.432 452.831 242.989L452.667 242.6C452.488 242.172 452.395 241.713 452.379 241.254L452.153 228.908C452.068 223.269 450.868 224.529 449.272 222.965C448.836 222.537 448.657 221.495 448.594 220.305C448.548 219.433 448.898 218.842 449.163 218.368C451.312 214.439 451.39 210.309 452.387 205.734C452.574 204.894 452.691 204.326 452.192 203.883C451.663 203.416 450.899 203.587 450.253 204.015C447.045 206.131 446.172 208.263 444.888 211.724C444.693 212.09 443.821 213.591 441.944 214.206C441.477 214.361 441.033 214.431 440.628 214.455C439.802 214.501 439.218 213.661 439.561 212.907L454.085 181.666C454.388 181.005 455.245 180.826 455.79 181.292C456.031 181.495 456.273 181.705 456.514 181.907C457.161 182.459 458.173 182.148 458.391 181.324C458.445 181.121 458.5 180.95 458.562 180.787C459.691 177.932 463.702 176.236 468.554 176.617C470.057 176.726 471.528 177.457 474.028 176.244C475.64 175.458 476.598 174.276 477.766 172.891C491.628 159.425 503.955 147.461 517.825 133.995C519.11 132.377 521.345 130.892 523.315 131.677C524.989 132.346 526.048 134.135 525.9 136.026C525.854 136.664 526.329 137.216 526.959 137.278C529.202 137.519 529.327 137.706 531.554 138.079C536.522 138.904 538.391 138.204 538.968 136.601C539.404 135.388 538.664 134.532 537.379 132.766C535.619 130.355 533.501 128.239 531.554 125.967C531.344 125.804 528.735 123.665 529.202 121.852C529.654 120.086 535.214 119.052 538.313 120.327L542.083 122.459C544.24 123.813 546.187 123.54 546.233 123.089C546.366 121.914 543.936 120.646 545.416 120.211C547.012 119.744 551.926 118.888 556.435 116.944C560.414 115.224 563.444 113.07 565.624 111.327C566.714 110.059 569.323 108.254 564.705 108.776C563.007 108.908 560.593 107.539 559.604 104.629C558.841 102.389 559.41 100.218 562.026 97.5191C562.33 97.208 562.034 96.6868 561.606 96.7412L550.68 98.9505C549.847 99.0827 549.333 98.8727 549.403 98.0326L549.613 95.5199C549.761 93.8474 549.154 92.9217 548.126 92.3771C546.716 91.6381 544.762 92.0815 543.22 93.3106C541.701 94.4853 542.059 94.1041 540.377 95.481C538.882 96.7101 537.215 99.1605 536.032 99.7517C535.128 100.187 534.124 100.343 533.135 100.211L531.367 99.9773C531.017 99.9307 530.674 100.141 530.565 100.475L529.895 102.451C529.459 103.735 528.626 104.847 527.52 105.633C524.21 107.974 517.599 112.346 516.68 112.961C515.886 113.49 515.232 114.198 514.756 115.022C512.794 118.414 511.205 121.012 510.73 120.818C510.115 120.561 509.157 118.772 512.397 111.49C512.498 111.257 512.311 111.008 512.062 111.047C507.576 111.77 504.275 109.616 504.018 107.601C503.807 105.944 505.583 103.89 508.207 102.7C518.393 97.8225 530.051 95.2476 538.757 88.0597C539.513 87.4374 540.042 86.6673 539.801 85.4459C539.505 83.9212 538.033 82.0776 534.435 83.1589L510.17 96.0878C509.469 96.4612 508.628 96.4612 507.927 96.0956L501.713 92.8439C466.241 125.042 441.383 168.706 433.004 217.971L436.656 216.088C437.108 219.052 437.56 222.016 438.011 224.98C438.12 225.688 438.728 226.201 439.444 226.232C439.584 226.232 439.709 226.256 439.826 226.271C440.371 226.357 443.151 227.905 443.634 231.079C444.374 235.785 445.246 239.021 447.037 243.012C448.999 247.399 451.086 250.021 452.986 251.896C454.085 252.977 454.528 254.564 454.123 256.05C450.043 266.365 454.583 264.972 450.261 270.285C449.949 270.628 447.94 272.899 448.47 275.778C448.649 276.758 449.062 277.505 449.389 277.956C450.191 279.099 450.502 279.605 450.393 280.702C450.269 281.946 449.124 282.67 448.867 282.833C447.006 284.327 445.183 285.781 445.409 290.301C445.549 293.063 446.967 295.008 448.034 296.104C448.914 296.999 449.607 298.065 450.09 299.224C451.616 302.896 453.15 306.559 454.676 310.231C455.081 311.204 455.299 312.246 455.338 313.304C455.44 316.151 455.899 319.792 457.27 323.798C459.629 330.698 463.57 335.42 466.303 338.119C467.167 338.975 467.323 340.072 467.611 340.648C469.737 346.505 470.594 345.603 471.108 350.169C471.466 353.351 470.89 356.416 470.5 358.119C469.41 364.319 469.636 366.91 470.773 372.869C472.237 380.562 476.707 389.049 480.289 394.58C486.628 402.211 493.473 409.407 500.778 416.113C500.669 410.364 498.473 403.378 502.842 400.29L502.849 400.306Z" fill="#6687AD"/>
<path d="M573.375 76.7886C571.451 76.5085 570.151 76.7886 569.115 77.0608C568.71 77.1697 568.289 77.1853 567.877 77.1308C566.716 76.9753 564.178 76.8897 562.449 78.6711C561.771 79.3712 561.421 80.1569 561.226 80.7637L559.209 84.451C558.89 85.0344 558.345 85.4545 557.699 85.6023C556.476 85.8746 556.079 86.4736 555.993 86.6058C555.121 88.006 556.235 90.9232 559.451 93.1792C564.785 93.9726 565.782 93.8326 568.671 93.5603C569.403 93.4903 570.088 93.1558 570.587 92.6191L577.782 84.91C578.125 84.5366 578.374 84.0854 578.483 83.5953C578.6 83.0741 578.686 82.4751 578.717 81.8139C578.779 80.367 579.161 79.6591 578.281 78.3755C577.315 77.8699 575.314 77.0764 573.375 76.7963V76.7886Z" fill="#6687AD"/>
<path d="M625.548 92.821C625.649 92.8366 625.742 92.8677 625.844 92.8988C626.856 93.2722 628.382 93.669 630.212 93.5678C634.13 93.35 636.769 91.0085 637.743 90.0206C637.906 89.8494 638.109 89.725 638.327 89.6394C647.734 85.9443 648.762 88.2314 652.173 88.8148C653.653 89.0715 655.062 89.7094 656.557 89.8572C660.848 90.2773 663.769 90.3628 665.793 90.2773C667.74 90.1917 668.76 87.9046 667.514 86.4111C666.72 85.462 666.05 84.1862 665.832 82.5137C665.824 82.4437 665.817 82.3737 665.817 82.3037C665.801 81.0123 667.343 80.2733 668.41 81.0123C668.753 81.2457 669.173 81.4791 669.671 81.658C671.665 82.3504 673.464 81.6036 674.032 81.3313C674.087 81.3002 674.149 81.2768 674.212 81.2535C680.348 79.0053 687.24 77.8929 692.847 74.8435C693.501 74.4857 693.314 73.4977 692.582 73.3888C685.449 72.0897 678.121 70.8606 670.598 69.7249C662.305 68.4646 654.198 67.3756 646.294 66.4343C644.417 66.2087 642.54 66.0687 640.655 65.9831C631.482 65.563 621.825 65.4074 611.725 65.6097C606.196 65.7186 600.815 65.9286 595.582 66.2165C593.931 66.3098 592.661 67.6945 592.708 69.3359L592.981 79.4099C593.004 80.2578 593.65 80.9579 594.491 81.059C602.372 81.9692 606.328 83.0038 606.36 84.1629C606.391 85.2442 602.995 86.4266 596.166 87.7179C596.033 87.7413 595.893 87.7802 595.769 87.8424C591.774 89.6549 591.797 93.949 592.716 96.5784C594.071 100.445 600.823 103.191 608.057 99.9389C608.182 99.8845 608.306 99.8067 608.415 99.7211C618.438 91.9031 620.914 92.012 625.563 92.8366L625.548 92.821Z" fill="#6687AD"/>
<path d="M569.561 122.366L565.2 119.643C564.772 118.749 564.204 118.305 563.869 118.087C562.389 117.792 560.388 117.916 558.2 118.858C555.17 119.923 553.511 118.904 552.227 120.297C551.019 121.604 550.334 122.218 549.96 122.91C548.06 123.237 546.884 123.323 546.822 124.241C546.783 124.785 547.391 125.198 549.376 126.831C553.652 131.102 555.256 129.095 557.686 127.617C560.544 125.874 560.855 124.793 563.978 124.108C564.741 123.937 565.465 123.86 566.112 123.836C566.501 123.821 566.883 123.774 567.264 123.681C567.988 123.502 568.713 123.331 569.445 123.152C569.818 123.058 569.896 122.568 569.569 122.366H569.561Z" fill="#6687AD"/>
<path d="M833.18 136.174H827.776C822.426 135.956 817.706 130.402 816.219 128.465C815.791 127.905 815.308 127.383 814.778 126.917C813.026 125.376 810.145 123.315 806.119 122.117C802.583 121.067 799.507 121.09 797.552 121.269C796.283 121.417 793.394 121.674 793.168 120.942C792.927 120.164 799.795 115.902 802.98 113.793C803.3 113.583 803.136 113.085 802.754 113.109L795.559 113.498C794.819 113.537 793.153 113.272 792.553 112.844C792.553 112.844 781.137 106.605 769.463 94.9757C767.54 93.062 765.344 92.5875 759.62 97.4884C753.795 103.828 747.199 105.314 745.205 101.456C744.247 99.6121 740.782 99.9699 740.782 99.9699C731.297 100.95 728.696 108.682 729.747 111.6C730.954 114.937 736.553 114.517 739.077 114.999C742.612 116.22 743.593 118.554 743.001 120.094C742.441 121.549 741.21 121.65 739.341 121.79C730.214 122.475 723.517 122 715.333 122.047C714.858 122.047 714.398 122.171 713.985 122.413L705.505 127.298C704.983 127.594 704.897 128.301 705.31 128.729C705.801 129.243 706.346 129.966 706.728 130.939C707.53 133 707.171 134.859 706.891 135.38C704.041 140.67 703.13 144.179 703.651 148.613C703.69 148.963 703.356 149.235 703.028 149.118C702.024 148.045 694.416 140.133 687.267 142.273H687.243C685.982 142.662 684.814 143.478 684.619 144.933C681.925 165.268 682.205 168.597 687.337 171.172C688.341 171.678 690.428 172.355 694.112 171.11C694.766 170.884 695.459 170.791 696.152 170.791H702.491C703.013 170.791 703.488 170.503 703.722 170.036C704.578 168.333 705.988 166.069 708.269 163.93C712.187 160.25 716.462 158.974 718.541 158.508C726.983 157.069 725.596 154.953 732.309 156.088C736.086 156.726 739.31 157.854 740.517 159.418C745.556 165.952 748.889 168.652 753.078 173.272C753.32 173.623 754.628 174.657 755.368 174.937C756.894 175.521 758.039 172.977 759.721 172.222C761.325 171.507 761.761 172.837 762.112 173.265L766.037 178.881C766.527 180.219 766.979 180.779 767.999 181.005C769.066 181.238 769.634 179.752 770.748 179.799C772.321 179.861 771.792 179.768 772.843 180.974C773.396 182.872 773.544 183.051 774.377 183.066C775.234 183.082 775.95 182.164 775.981 180.974C776.036 178.881 778.473 178.936 781.409 179.931C784.345 180.834 787.553 179.869 789.492 177.512C791.47 175.093 791.743 171.678 790.178 168.955C787.966 162.141 795.512 161.666 797.833 164.241C800.652 168.753 802.505 170.83 803.393 170.48C803.751 170.34 803.946 169.741 803.985 168.807C804.016 168.092 804.265 167.384 804.779 166.878C805.441 166.217 806.453 165.983 807.513 169.336L812.878 182.794C813.532 184.428 813.859 185.727 813.011 186.326C812.31 186.816 811.414 185.898 810.129 185.672C784.547 181.153 779.758 186.808 793.519 193.109C794.858 193.724 796.322 194.019 797.794 194.012C799.429 194.004 801.828 194.354 803.455 196.198C804.164 196.999 804.546 197.878 804.764 198.617C804.958 202.856 805.153 207.104 805.355 211.343C805.394 212.098 804.787 212.736 804.032 212.736H790.52C790.022 212.736 789.64 213.164 789.687 213.654L790.31 219.652C790.357 220.072 790.575 220.453 790.925 220.694L801.104 227.843C805.464 230.799 819.723 269.617 819.723 269.617C822.348 277.59 823.072 279.014 824.006 279.061C824.801 279.1 824.809 277.17 826.234 276.252C830.486 273.506 832.861 273.989 837.658 272.791C843.335 271.204 847.774 266.949 849.066 261.612C850.78 254.518 846.574 246.785 838.966 243.253C832.907 240.437 829.177 239.13 830.618 232.464C831.794 230.387 835.547 227.789 840.235 232.596C843.078 235.513 845.274 239.037 847.376 240.188C848.14 240.608 848.848 241.114 849.401 241.775C850.188 242.717 851.021 243.611 851.94 244.428C852.983 245.362 854.089 246.505 855.156 247.89C858.551 252.316 859.696 256.859 860.125 259.481C861.114 273.724 862.11 287.976 863.099 302.219C866.464 286.98 868.231 271.149 868.231 254.907C868.231 211.133 855.366 170.355 833.211 136.151L833.18 136.174Z" fill="#6687AD"/>
<path d="M776.161 354.564C776.581 353.04 777.158 351.562 777.835 350.138C780.421 344.708 782.492 341.013 783.162 340.546C784.408 339.683 784.859 340.352 787.188 339.302C789.322 337.691 791.105 335.521 793.239 333.911C797.498 330.651 804.756 324.039 808.284 313.428C809.172 310.768 809.951 310.262 809.982 305.945C809.764 304.98 809.592 303.526 810.013 301.892C810.48 300.087 811.438 298.905 811.944 298.36C813.058 297.131 814.055 295.295 815.363 293.249C816.149 292.02 816.523 291.235 816.328 290.814C815.526 289.562 814.662 290.589 810.379 289.998C809.717 289.826 809.086 289.616 808.479 289.375C798.807 285.501 800.24 273.662 794.602 267.78C793.94 267.236 793.036 266.341 792.257 265.058C790.241 261.752 790.568 258.321 790.755 257.061C790.98 255.085 791.315 251.444 790.513 247.695C789.781 244.28 789.166 242.973 787.671 240.382C787.188 239.542 786.845 238.624 786.674 237.668C785.498 231.211 783.022 226.87 783.232 225.462C783.356 224.622 783.754 223.836 784.338 223.214C784.696 222.833 785.085 222.413 785.373 222.102C785.568 221.884 785.724 221.635 785.809 221.355C786.44 219.363 786.534 217.753 786.432 216.742C786.355 215.902 786.175 215.155 785.973 214.517C785.599 213.373 784.673 212.494 783.512 212.16C775.88 209.982 770.717 207.415 763.086 205.236C762.362 205.026 761.692 204.661 761.123 204.155C760.454 203.883 759.636 203.471 758.795 202.833C757.269 201.681 756.389 200.343 755.913 199.48C754.66 197.66 753.421 196.742 752.503 198.749C751.591 200.74 750.719 202.615 750.719 202.615C749.894 204.272 750.011 206.084 749.279 206.582C748.126 207.36 747.028 206.839 744.7 205.322C743.01 204.217 741.585 203.572 740.744 202.918C738.61 201.254 736.157 198.671 734.895 194.976C734.771 194.602 734.599 194.252 734.319 193.996C733.75 193.474 732.878 193.342 732.099 193.638C731.165 193.988 730.121 193.988 729.156 193.739C729.132 193.739 729.117 193.731 729.094 193.723C728.175 193.482 727.131 193.085 726.08 192.424C724.156 191.218 722.949 189.624 722.209 188.247C721.742 187.391 721.485 186.434 721.438 185.462C721.322 182.825 720.457 176.601 713.97 176.975L696.729 176.788L679.542 176.174C671.778 176.088 669.076 173.677 661.833 180.125C659.419 182.272 657.994 184.738 657.145 186.823C656.211 189.11 654.233 190.798 651.827 191.366C647.621 192.346 641.228 194.89 637.03 201.464C633.401 207.15 633.23 213.008 633.627 216.679C633.838 218.632 632.864 220.538 631.127 221.448C628.41 222.872 626.541 224.98 626.175 227.399C626.136 227.64 626.112 227.913 626.105 228.208C626.089 229.422 625.816 230.62 625.225 231.678C623.589 234.634 621.767 239.076 621.658 244.583C621.627 246.046 621.728 247.399 621.892 248.636C622.04 249.717 622.117 250.814 622.117 251.903V271.748C622.117 272.946 622.694 274.074 623.667 274.774L641.477 287.641C642.248 288.061 644.491 289.158 647.427 288.753C651.211 288.232 651.842 286.093 653.773 285.027C660.525 281.238 662.931 282.164 665.221 282.569C671.801 284.078 680.157 286.754 685.172 285.548C686.076 285.315 686.987 285.61 687.462 286.264C687.859 286.816 687.812 287.438 687.789 287.633C687.75 287.905 687.337 291.413 690.016 293.755C692.056 295.536 694.782 294.875 697.601 294.688C698.224 294.65 701.9 295.256 703.621 298.874C704.859 301.48 704.368 303.86 703.886 304.49C700.786 308.59 699.859 312.37 701.207 313.771C701.495 314.066 702.071 314.051 703.231 314.424C703.823 314.611 704.088 315.054 704.018 316.058C703.956 316.898 703.317 317.365 703.231 317.427C702.235 318.166 701.814 319.457 702.188 320.632C702.546 321.775 703.839 321.931 704.804 322.654C706.206 323.705 706.432 325.058 706.635 327.493C706.798 329.461 706.3 331.001 705.98 331.803C703.909 334.798 701.043 339.745 699.439 346.443C698.637 349.811 698.325 352.907 698.263 355.552C698.201 358.477 697.975 361.402 697.477 364.288C696.931 367.392 696.573 371.048 696.69 375.132C696.815 379.372 697.422 383.059 698.131 386.046C700.007 396.766 701.884 407.478 703.753 418.197C704.275 420.71 704.438 421.854 705.91 423.161C708.153 424.88 711.805 424.592 714.352 422.118C726.485 412.153 732.629 410.823 735.869 410.131C738.065 409.664 740.152 409.415 742.091 409.306C742.426 409.283 745.587 408.979 747.386 406.101C749.154 403.269 748.103 400.352 747.978 400.025C747.635 399.442 747.62 398.726 747.947 398.166C748.336 397.489 749.123 397.334 749.941 397.287C752.129 397.155 752.861 396.284 754.582 394.246C756.459 392.036 756.793 389.656 756.871 388.792C756.879 388.03 756.957 386.832 757.3 385.424C758.32 381.208 760.921 378.462 762.369 377.155C774.798 364.382 775.063 358.135 775.616 356.408C775.818 355.778 775.997 355.163 776.169 354.541L776.161 354.564Z" fill="#6687AD"/>
<path d="M814.076 367.899L814.138 366.086C814.154 365.697 813.718 365.456 813.398 365.681L810.953 367.37C810.626 367.595 810.174 367.556 809.886 367.276L807.098 364.538C806.833 364.273 806.374 364.429 806.327 364.802C805.915 367.704 806.226 369.952 805.081 373.515C804.412 375.592 802.986 378.128 800.962 380.835C799.272 383.083 797.535 384.803 796.056 386.063C796.056 386.063 776.953 398.61 776.953 399.132C775.154 400.089 774.15 402.072 774.469 404.033C774.757 405.845 776.12 407.339 777.934 407.821C782.677 408.505 785.068 407.362 788.074 404.289C788.393 403.963 789.281 403.255 790.628 403.045C792.473 402.765 793.821 403.729 794.163 403.892C796.422 405.005 799.474 404.81 803.259 401.994C807.129 399.116 808.656 392.815 807.122 388.467C806.81 387.587 807.052 385.028 808.625 382.453C810.034 380.143 811.303 378.992 812.814 378.595C814.543 378.144 816.163 377.42 816.677 375.787C817.035 374.627 816.646 372.426 815.244 370.909C814.481 370.084 814.052 369.003 814.091 367.883L814.076 367.899Z" fill="#6687AD"/>
</g>
<path fill-rule="evenodd" clip-rule="evenodd" d="M810.645 223.557H877.67C880.527 223.557 882.839 225.869 882.839 228.726C882.839 231.583 880.527 233.895 877.67 233.895H876.257C879.061 237.009 881.662 239.824 884.08 242.446C909.689 270.185 914.174 275.043 904.082 353.861L895.938 423.005C895.488 426.761 892.31 429.597 888.521 429.597H799.772C795.984 429.597 792.795 426.761 792.356 423.005L784.212 353.861C774.109 275.043 778.604 270.185 804.213 242.446C806.632 239.824 809.243 236.998 812.036 233.895H810.634C807.777 233.895 805.465 231.583 805.465 228.726C805.465 225.869 807.788 223.557 810.645 223.557Z" fill="#6687AD"/>
<path d="M870.133 241.761H818.177C815.929 241.761 813.767 242.714 812.248 244.383C784.466 274.84 779.147 274.915 789.036 352.075L796.527 415.653C796.934 419.11 799.866 421.711 803.344 421.711H884.955C888.433 421.711 891.366 419.11 891.772 415.653L899.263 352.075C909.152 274.904 903.833 274.84 876.051 244.383C874.532 242.724 872.391 241.761 870.133 241.761Z" fill="#CCD7E4"/>
<path d="M885.048 294.339H803.244C801.072 294.339 799.316 296.094 799.316 298.267V316.075C799.316 318.247 801.072 320.002 803.244 320.002H885.048C887.22 320.002 888.975 318.247 888.975 316.075V298.267C888.975 296.094 887.22 294.339 885.048 294.339Z" fill="#6687AD"/>
<path fill-rule="evenodd" clip-rule="evenodd" d="M834.2 298.546C829.599 298.546 826.388 302.152 826.388 307.311C826.388 312.469 829.502 315.797 833.965 315.797C837.85 315.797 841.777 313.079 841.777 307.011C841.777 301.949 838.727 298.546 834.2 298.546ZM838.567 307.097C838.567 310.072 837.175 313.068 834.083 313.068C830.99 313.068 829.62 310.061 829.62 307.257C829.62 304.271 831.011 301.264 834.104 301.264C837.197 301.264 838.567 304.293 838.567 307.097ZM827.276 298.803H814.605V301.596H819.368V315.54H822.482V301.596H827.276V298.803ZM851.43 298.803H855.026L849.921 306.968L855.122 315.54H851.516L849.365 311.805C848.83 310.938 848.401 310.221 848.016 309.547C847.684 310.179 847.299 310.874 846.732 311.837L844.709 315.54H841.124L846.24 307.075L841.317 298.803H844.923L847.149 302.752C847.278 302.987 847.406 303.212 847.524 303.426C847.749 303.833 847.952 304.196 848.145 304.55C848.444 303.95 848.755 303.394 849.14 302.741L851.43 298.803ZM859.093 298.803H856V315.54H859.093V298.803ZM869.313 313.004C870.447 313.004 871.624 312.768 872.384 312.405H872.363L872.951 312.126L873.647 314.78L873.262 314.973C872.491 315.358 870.929 315.776 868.885 315.776C863.865 315.776 860.612 312.469 860.612 307.311C860.612 302.152 864.197 298.546 869.323 298.546C871.667 298.546 872.951 299.124 873.294 299.306L873.69 299.509L872.898 302.184L872.331 301.906C871.881 301.682 870.886 301.307 869.409 301.307C865.92 301.307 863.833 303.619 863.833 307.236C863.833 310.853 865.877 313.004 869.313 313.004Z" fill="#CCD7E4"/>
<path fill-rule="evenodd" clip-rule="evenodd" d="M838.446 353.862V351.401C837.965 351.144 837.462 351.133 836.948 351.122C835.161 351.069 833.384 351.015 832.849 340.87C832.774 339.383 833.095 337.906 833.823 336.6C834.283 335.787 834.904 334.899 835.76 334.064C839.046 330.864 843.23 330.843 844.129 330.864C845.028 330.843 849.202 330.864 852.498 334.064C853.354 334.899 853.975 335.776 854.435 336.6C855.152 337.895 855.483 339.383 855.409 340.87C854.873 351.015 853.097 351.069 851.299 351.122C850.785 351.133 850.282 351.155 849.801 351.401V353.862C849.801 355.061 848.827 356.035 847.628 356.035H840.619C839.42 356.035 838.446 355.061 838.446 353.862ZM849.062 341.566C848.089 340.902 846.366 341.116 845.67 341.908H845.681C845.456 342.165 845.37 342.561 845.392 343C845.435 344.081 846.034 345.055 846.89 345.697C847.425 346.103 847.907 346.36 848.848 346.713C849.844 347.099 851.973 346.178 851.01 343.963C850.368 342.818 849.972 342.336 849.062 341.566ZM846.537 347.955L844.247 345.322H844.268C844.054 345.087 843.69 345.087 843.487 345.322L841.197 347.955C841.025 348.147 841.004 348.426 841.132 348.64L841.71 349.603C841.849 349.817 842.085 349.956 842.342 349.956H845.392C845.649 349.956 845.895 349.828 846.023 349.603L846.601 348.64C846.729 348.426 846.708 348.147 846.537 347.955ZM838.66 341.566C837.751 342.336 837.355 342.818 836.713 343.963C835.75 346.178 837.879 347.099 838.874 346.713C839.816 346.36 840.298 346.103 840.833 345.697C841.689 345.044 842.288 344.07 842.331 343C842.352 342.572 842.267 342.165 842.042 341.908C841.347 341.116 839.624 340.902 838.66 341.566ZM858.501 367.592C858.908 366.8 859.818 366.308 860.813 366.565C861.509 366.747 862.065 367.325 862.226 368.02C862.418 368.855 862.076 369.636 861.476 370.086C861.262 370.246 861.123 370.482 861.123 370.749C861.134 371.145 861.006 371.584 860.524 372.098C860.117 372.537 859.55 372.836 858.951 372.783C857.934 372.697 857.142 371.841 857.142 370.803C857.142 370.418 857.26 370.054 857.453 369.743L844.14 363.387L830.827 369.743C831.019 370.054 831.137 370.407 831.137 370.803C831.137 371.83 830.345 372.686 829.328 372.783C828.729 372.836 828.173 372.537 827.755 372.098C827.274 371.584 827.145 371.145 827.156 370.749C827.156 370.482 827.017 370.246 826.803 370.086C826.204 369.647 825.861 368.866 826.054 368.02C826.214 367.325 826.771 366.747 827.466 366.565C828.462 366.308 829.371 366.8 829.778 367.592L841.368 362.06L829.831 356.548C829.468 357.415 828.515 357.972 827.477 357.704C826.781 357.522 826.225 356.944 826.064 356.249C825.872 355.414 826.214 354.633 826.814 354.183C827.028 354.023 827.167 353.787 827.167 353.52C827.145 353.124 827.284 352.685 827.766 352.171C828.173 351.732 828.74 351.433 829.339 351.486C830.356 351.572 831.148 352.428 831.148 353.466C831.148 353.809 831.041 354.119 830.891 354.397L844.14 360.722L857.388 354.397C857.239 354.119 857.132 353.809 857.132 353.466C857.132 352.439 857.923 351.583 858.94 351.486C859.539 351.433 860.096 351.732 860.513 352.171C860.995 352.685 861.123 353.124 861.113 353.52C861.113 353.787 861.252 354.023 861.466 354.183C862.065 354.622 862.407 355.403 862.215 356.249C862.054 356.944 861.498 357.522 860.802 357.704C859.764 357.972 858.812 357.415 858.448 356.548L846.911 362.06L858.501 367.592Z" fill="#6687AD"/>
<path d="M714.792 234.964C717.083 234.964 718.891 232.91 718.485 230.545C718.163 228.715 716.441 227.473 714.589 227.473H713.166C713.091 227.473 713.016 227.409 713.016 227.323V170.294C713.016 170.219 713.08 170.144 713.166 170.144H714.589C716.441 170.144 718.174 168.892 718.485 167.073C718.891 164.708 717.083 162.653 714.792 162.653H555.669C553.881 162.653 552.255 163.862 551.902 165.617C551.42 168.025 553.25 170.144 555.572 170.144H557.36V227.462H555.679C553.892 227.462 552.266 228.672 551.912 230.427C551.431 232.835 553.261 234.954 555.583 234.954H557.37V339.253H555.54C554.117 339.253 552.758 340.044 552.191 341.35C551.003 344.09 552.993 346.744 555.583 346.744H557.37V404.062H555.54C554.117 404.062 552.758 404.854 552.191 406.16C551.003 408.899 552.993 411.553 555.583 411.553H714.739C716.366 411.553 717.885 410.558 718.378 409.006C719.18 406.427 717.275 404.062 714.825 404.062H713.037V346.744H714.75C716.376 346.744 717.896 345.748 718.388 344.197C719.191 341.618 717.286 339.253 714.835 339.253H713.048V235.103C713.048 235.029 713.112 234.954 713.198 234.954L714.792 234.964Z" fill="#6687AD"/>
<path fill-rule="evenodd" clip-rule="evenodd" d="M705.453 173.654H564.79C563.152 173.654 561.836 174.992 561.836 176.619V224.231C561.836 225.868 563.163 227.184 564.79 227.184H705.453C707.165 227.184 708.556 225.793 708.556 224.081V176.758C708.556 175.046 707.165 173.654 705.453 173.654ZM705.465 238.415H564.801C563.164 238.415 561.848 239.742 561.848 241.369V332.847C561.848 334.484 563.175 335.801 564.801 335.801H705.604C707.241 335.801 708.557 334.474 708.557 332.847V241.508C708.557 239.796 707.177 238.415 705.465 238.415ZM564.79 347.033H705.603C707.229 347.033 708.556 348.36 708.556 349.986V397.598C708.556 399.225 707.229 400.552 705.603 400.552H564.79C563.152 400.552 561.836 399.225 561.836 397.598V349.986C561.836 348.36 563.152 347.033 564.79 347.033Z" fill="#CCD7E4"/>
<path d="M635.2 253.04C616.387 253.04 601.137 268.29 601.137 287.103C601.137 305.917 616.387 321.167 635.2 321.167C654.014 321.167 669.264 305.917 669.264 287.103C669.264 268.29 654.014 253.04 635.2 253.04Z" fill="#6687AD"/>
<path d="M608.98 297.736C610.767 291.015 616.096 286.595 621.49 286.617C621.383 287.312 621.308 288.019 621.308 288.746C621.308 294.322 624.626 299.127 629.377 301.332V301.353C626.819 306.201 620.27 308.759 613.442 307.004C618.568 310.953 624.829 312.076 629.613 309.679C631.871 308.555 633.369 306.854 634.311 305.463C635.092 306.308 638.837 310.128 644.948 310.46C651.797 310.835 656.26 306.522 656.955 305.826C650.556 308.898 643.503 307.239 640.304 302.68C640.111 302.402 639.94 302.124 639.779 301.845C645.184 299.94 649.068 294.804 649.068 288.757C649.068 288.029 648.993 287.323 648.886 286.628C654.28 286.595 659.631 291.015 661.418 297.736C662.349 291.326 660.262 285.322 655.832 282.325C653.734 280.913 651.53 280.442 649.85 280.303C650.203 279.201 651.701 274.064 648.993 268.574C645.954 262.42 640.004 260.644 639.062 260.376C644.863 264.443 646.874 271.41 644.467 276.429C644.231 276.91 643.964 277.349 643.675 277.767C641.32 275.947 638.399 274.856 635.199 274.856C631.999 274.856 629.067 275.947 626.723 277.767C626.434 277.349 626.167 276.91 625.931 276.429C623.513 271.41 625.535 264.443 631.336 260.376C630.383 260.644 624.433 262.42 621.404 268.574C618.708 274.064 620.206 279.211 620.548 280.303C618.868 280.431 616.664 280.913 614.566 282.325C610.135 285.333 608.049 291.326 608.98 297.736ZM623.609 286.863C626.755 287.569 628.938 289.635 629.72 290.437L634.15 282.561C633.529 282.411 630.533 281.662 628.114 279.393C630.083 277.906 632.534 277.007 635.188 277.007C637.842 277.007 640.293 277.895 642.262 279.393C639.843 281.662 636.847 282.411 636.226 282.561L640.657 290.437C641.449 289.624 643.621 287.58 646.757 286.874C646.864 287.484 646.928 288.115 646.928 288.757C646.928 293.915 643.589 298.292 638.955 299.866C637.917 296.441 638.816 293.145 638.998 292.503H629.966C630.276 293.541 630.972 296.345 630.158 299.341C626.199 297.447 623.448 293.412 623.448 288.746C623.448 288.104 623.513 287.473 623.609 286.863Z" fill="#CCD7E4"/>
<path d="M574.683 274.443C577.006 274.443 578.836 272.324 578.354 269.916C578.001 268.161 576.374 266.952 574.587 266.952H572.907V209.633H574.587C576.374 209.633 578.001 208.424 578.354 206.669C578.836 204.261 577.006 202.142 574.683 202.142H425.673C423.885 202.142 422.259 203.351 421.906 205.106C421.424 207.514 423.254 209.633 425.576 209.633H427.363V266.952H425.683C423.896 266.952 422.269 268.161 421.916 269.916C421.435 272.324 423.265 274.443 425.587 274.443H427.374V360.656H425.694C423.907 360.656 422.28 361.865 421.927 363.62C421.445 366.028 423.275 368.147 425.598 368.147H427.385V425.465H425.705C423.917 425.465 422.291 426.675 421.938 428.43C421.456 430.838 423.286 432.957 425.608 432.957H574.758C576.182 432.957 577.541 432.165 578.108 430.859C579.296 428.12 577.305 425.465 574.715 425.465H572.928V368.147H574.758C576.182 368.147 577.541 367.355 578.108 366.05C579.296 363.31 577.305 360.656 574.715 360.656H572.928V274.443H574.683Z" fill="#6687AD"/>
<path fill-rule="evenodd" clip-rule="evenodd" d="M565.663 212.977H434.623C432.993 212.977 431.676 214.294 431.676 215.925V263.419C431.676 265.049 432.993 266.366 434.623 266.366H565.663C567.293 266.366 568.61 265.049 568.61 263.419V215.925C568.61 214.294 567.293 212.977 565.663 212.977ZM565.663 277.49H434.623C432.993 277.49 431.676 278.808 431.676 280.438V354.85C431.676 356.48 432.993 357.798 434.623 357.798H565.663C567.293 357.798 568.61 356.48 568.61 354.85V280.438C568.61 278.808 567.293 277.49 565.663 277.49ZM434.623 368.922H565.663C567.293 368.922 568.61 370.239 568.61 371.869V419.364C568.61 420.994 567.293 422.311 565.663 422.311H434.623C432.993 422.311 431.676 420.994 431.676 419.364V371.869C431.676 370.239 432.993 368.922 434.623 368.922Z" fill="#CCD7E4"/>
<path fill-rule="evenodd" clip-rule="evenodd" d="M513.402 292.939C509.443 290.895 504.937 289.729 500.164 289.729C494.717 289.729 489.634 291.237 485.289 293.849L486.312 295.53C478.591 300.179 473.38 308.589 473.234 318.206H471.281V318.624C471.281 329.336 477.124 338.689 485.782 343.676L486.718 341.956C490.678 344.247 495.272 345.559 500.167 345.559C505.357 345.559 510.209 344.084 514.325 341.531L515.351 343.216C523.591 338.122 529.07 329.015 529.07 318.623V318.206H527.1C526.943 307.956 521.034 299.077 512.465 294.661L513.402 292.939ZM486.863 296.435C479.45 300.898 474.447 308.972 474.304 318.206H493.02C493.162 315.73 494.561 313.591 496.589 312.416L486.863 296.435ZM487.234 341.009C491.04 343.215 495.458 344.479 500.167 344.479C505.152 344.479 509.812 343.062 513.765 340.61L504.057 324.655C502.939 325.376 501.607 325.794 500.178 325.794C498.696 325.794 497.319 325.345 496.176 324.574L487.234 341.009ZM526.03 318.206H507.336C507.176 315.431 505.438 313.078 503.005 312.033L511.958 295.592C520.195 299.828 525.877 308.357 526.03 318.206Z" fill="#6687AD"/>
<path fill-rule="evenodd" clip-rule="evenodd" d="M412.455 335.317H431.161C432.381 335.317 433.376 336.312 433.376 337.532C433.376 338.752 432.381 339.748 431.161 339.748H430.637V340.807C430.637 342.316 430.936 343.825 431.557 345.206C431.932 346.03 432.424 346.918 433.087 347.817C433.794 348.758 434.522 349.497 435.196 350.075C435.613 350.439 436.063 350.76 436.523 351.059C439.123 352.761 441.713 354.463 444.314 356.175C446.903 357.876 449.504 359.578 452.094 361.28C455.882 363.773 455.026 369.081 451.484 370.772V426.089C453.335 427.223 454.577 429.246 454.577 431.579C454.577 435.121 451.698 438 448.155 438H395.503C391.961 438 389.082 435.121 389.082 431.579C389.082 429.257 390.313 427.223 392.164 426.1V370.772C388.622 369.081 387.766 363.762 391.554 361.28C394.155 359.578 396.744 357.876 399.345 356.175C401.945 354.473 404.535 352.761 407.125 351.059C407.585 350.76 408.035 350.439 408.452 350.075C409.126 349.508 409.865 348.758 410.56 347.817C411.224 346.918 411.716 346.03 412.091 345.206C412.711 343.825 413.011 342.327 413.011 340.807V339.748H412.455C411.235 339.748 410.239 338.752 410.239 337.532C410.239 336.312 411.235 335.317 412.455 335.317Z" fill="#6687AD"/>
<path fill-rule="evenodd" clip-rule="evenodd" d="M448.213 361.001C445.955 359.514 443.686 358.037 441.418 356.549C439.159 355.062 436.891 353.574 434.622 352.098C434.215 351.83 433.83 351.552 433.466 351.241C432.878 350.738 432.235 350.086 431.636 349.272C431.037 348.459 430.598 347.667 430.266 346.907C429.731 345.719 429.496 344.424 429.496 343.13C429.496 342.113 428.672 341.289 427.655 341.289H415.958C414.941 341.289 414.117 342.113 414.117 343.13C414.117 344.467 413.861 345.773 413.315 346.982C412.994 347.699 412.555 348.48 411.977 349.262C411.367 350.086 410.725 350.728 410.147 351.231C409.783 351.541 409.398 351.83 408.991 352.087C406.723 353.564 404.465 355.051 402.206 356.539L400.698 357.748C399.221 358.925 397.573 359.835 395.892 360.712C391.323 363.099 393.11 369.734 398.022 369.734H445.57C450.3 369.734 452.13 363.591 448.181 360.991L448.213 361.001ZM445.795 371.286H397.851C396.813 371.286 395.967 372.131 395.967 373.169V421.723C395.967 422.761 396.813 423.606 397.851 423.606H445.795C446.833 423.606 447.678 422.761 447.678 421.723V373.169C447.678 372.131 446.833 371.286 445.795 371.286ZM397.99 425.158H445.409C448.449 425.158 451.156 427.373 451.445 430.402C451.777 433.869 449.059 436.78 445.666 436.78H398.247C395.208 436.78 392.5 434.565 392.211 431.536C391.879 428.069 394.598 425.158 397.99 425.158Z" fill="#CCD7E4"/>
<path d="M435.565 373.673H408.094C406.842 373.673 405.836 374.679 405.836 375.931V418.962C405.836 420.214 406.842 421.22 408.094 421.22H435.565C436.807 421.22 437.823 420.214 437.823 418.962V375.931C437.823 374.679 436.807 373.673 435.565 373.673Z" fill="#6687AD"/>
<path fill-rule="evenodd" clip-rule="evenodd" d="M414.797 393.245C413.267 398.007 416.831 402.876 421.828 402.876C426.837 402.876 430.379 398.007 428.859 393.245L422.556 377.503C422.299 376.85 421.368 376.85 421.111 377.503L414.797 393.245ZM409.992 411.941C409.992 408.345 412.24 405.83 415.461 405.83C418.682 405.83 420.769 408.259 420.769 411.737C420.769 415.975 418.018 417.869 415.3 417.869C412.175 417.869 409.992 415.536 409.992 411.941ZM415.386 415.676C417.366 415.676 418.254 413.728 418.254 411.802C418.254 409.875 417.376 408.013 415.397 408.013C413.417 408.013 412.529 409.972 412.529 411.909C412.529 413.717 413.406 415.676 415.386 415.676ZM424.44 406.183H422V417.88H424.44V406.183ZM429.127 406.183V415.654H433.675V417.869H426.687V406.183H429.127Z" fill="#CCD7E4"/>
<path fill-rule="evenodd" clip-rule="evenodd" d="M735.144 276.864H752.973C757.543 276.864 761.245 280.567 761.245 285.136C761.245 288.646 759.062 291.632 755.991 292.841V294.864C755.991 296.448 756.975 297.861 758.463 298.417L785.399 308.455C791.125 310.596 794.924 316.053 794.924 322.164L794.892 328.296C794.892 332.695 791.478 336.258 787.079 336.258C791.403 336.258 794.902 339.768 794.902 344.081V362.349C794.902 366.673 791.392 370.172 787.079 370.172C791.403 370.172 794.902 373.682 794.902 377.995V396.263C794.902 400.586 791.392 404.086 787.079 404.086C791.403 404.086 794.902 407.596 794.902 411.909V430.177C794.902 434.5 791.392 437.999 787.079 437.999H700.995C696.671 437.999 693.172 434.489 693.172 430.177V411.909C693.172 407.585 696.682 404.086 700.995 404.086C696.671 404.086 693.172 400.576 693.172 396.263V377.995C693.172 373.672 696.682 370.172 700.995 370.172C696.671 370.172 693.172 366.662 693.172 362.349V344.081C693.172 339.758 696.682 336.258 700.995 336.258C696.596 336.258 693.183 332.695 693.183 328.296V322.164C693.183 316.053 696.982 310.585 702.707 308.455L729.643 298.417C731.131 297.871 732.115 296.448 732.115 294.864V292.831C729.044 291.621 726.872 288.625 726.872 285.136C726.872 280.567 730.574 276.864 735.144 276.864Z" fill="#6687AD"/>
<path fill-rule="evenodd" clip-rule="evenodd" d="M788.866 322.217V327.621C788.866 331.013 786.458 333.849 783.258 334.502H704.836C701.636 333.849 699.228 331.013 699.228 327.621V322.217C699.228 316.834 702.578 312.018 707.618 310.134L731.355 301.284C732.66 300.792 733.527 299.55 733.527 298.148C733.527 296.875 734.565 295.837 735.839 295.837H752.255C753.528 295.837 754.567 296.875 754.567 298.148C754.567 299.55 755.433 300.792 756.739 301.284L780.475 310.134C785.516 312.018 788.866 316.834 788.866 322.217ZM705.788 338.109H782.327C786.169 338.109 789.283 341.223 789.283 345.065V361.299C789.283 365.141 786.169 368.255 782.327 368.255H705.788C701.946 368.255 698.832 365.141 698.832 361.299V345.065C698.832 341.223 701.946 338.109 705.788 338.109ZM782.327 371.776H705.788C701.946 371.776 698.832 374.89 698.832 378.732V394.967C698.832 398.809 701.946 401.923 705.788 401.923H782.327C786.169 401.923 789.283 398.809 789.283 394.967V378.732C789.283 374.89 786.169 371.776 782.327 371.776ZM705.788 405.444H782.327C786.169 405.444 789.283 408.558 789.283 412.4V428.635C789.283 432.476 786.169 435.591 782.327 435.591H705.788C701.946 435.591 698.832 432.476 698.832 428.635V412.4C698.832 408.558 701.946 405.444 705.788 405.444Z" fill="#CCD7E4"/>
<path d="M765.462 332.305H722.633C720.279 332.305 718.363 334.22 718.363 336.575V405.269C718.363 407.623 720.279 409.539 722.633 409.539H765.462C767.816 409.539 769.732 407.623 769.732 405.269V336.575C769.732 334.22 767.816 332.305 765.462 332.305Z" fill="#6687AD"/>
<path fill-rule="evenodd" clip-rule="evenodd" d="M737.705 373.198L737.684 370.448C737.149 370.17 736.571 370.159 736.004 370.137C734.013 370.084 732.023 370.03 731.434 358.719C731.348 357.06 731.723 355.401 732.526 353.957C733.039 353.036 733.735 352.052 734.687 351.121C738.358 347.557 743.013 347.535 744.019 347.557C745.025 347.535 749.681 347.557 753.351 351.121C754.304 352.052 754.999 353.036 755.513 353.957C756.326 355.401 756.69 357.06 756.605 358.719C756.005 370.02 754.025 370.084 752.035 370.137C751.468 370.159 750.901 370.17 750.355 370.448V373.198C750.355 374.536 749.274 375.617 747.936 375.617H740.124C738.786 375.617 737.705 374.536 737.705 373.198ZM749.541 359.489C748.461 358.751 746.545 358.986 745.764 359.875C745.507 360.164 745.432 360.613 745.453 361.095C745.496 362.282 746.17 363.374 747.123 364.091C747.722 364.551 748.257 364.84 749.306 365.225C750.419 365.653 752.784 364.637 751.714 362.165C750.997 360.891 750.547 360.356 749.541 359.489ZM746.716 366.617L744.169 363.684C743.944 363.417 743.527 363.417 743.302 363.684L740.755 366.617C740.573 366.831 740.541 367.141 740.691 367.387L741.333 368.457C741.472 368.703 741.74 368.853 742.029 368.853H745.432C745.71 368.853 745.978 368.703 746.128 368.457L746.77 367.387C746.919 367.141 746.898 366.831 746.716 366.617ZM737.941 359.489C736.924 360.356 736.485 360.891 735.768 362.165C734.698 364.626 737.074 365.653 738.187 365.225C739.236 364.829 739.771 364.54 740.37 364.091C741.322 363.374 741.986 362.293 742.04 361.095C742.061 360.613 741.975 360.164 741.718 359.875C740.937 358.997 739.022 358.751 737.941 359.489ZM760.05 388.491C760.5 387.603 761.517 387.057 762.619 387.346C763.389 387.549 764.01 388.191 764.192 388.973C764.406 389.914 764.032 390.781 763.357 391.284C763.122 391.455 762.972 391.723 762.972 392.023C762.972 392.461 762.833 392.954 762.298 393.521C761.838 394.002 761.217 394.345 760.543 394.281C759.419 394.174 758.531 393.221 758.531 392.065C758.531 391.637 758.67 391.231 758.884 390.888L744.051 383.804L729.219 390.888C729.444 391.231 729.572 391.627 729.572 392.065C729.572 393.221 728.684 394.174 727.56 394.281C726.897 394.345 726.265 394.013 725.805 393.521C725.27 392.954 725.12 392.461 725.131 392.023C725.141 391.734 724.981 391.466 724.746 391.284C724.082 390.781 723.697 389.914 723.911 388.973C724.093 388.191 724.713 387.549 725.484 387.346C726.586 387.068 727.603 387.613 728.052 388.491L740.959 382.327L728.106 376.184C727.699 377.147 726.64 377.768 725.473 377.468C724.703 377.265 724.082 376.623 723.9 375.842C723.686 374.9 724.061 374.033 724.735 373.53C724.97 373.359 725.12 373.091 725.12 372.792C725.12 372.353 725.259 371.86 725.794 371.293C726.254 370.812 726.875 370.469 727.549 370.533C728.673 370.64 729.561 371.593 729.561 372.749C729.561 373.123 729.454 373.476 729.283 373.787L744.051 380.839L758.82 373.787C758.659 373.476 758.542 373.134 758.542 372.749C758.542 371.593 759.43 370.64 760.553 370.533C761.217 370.469 761.848 370.801 762.309 371.293C762.844 371.86 762.993 372.353 762.983 372.792C762.983 373.08 763.133 373.348 763.368 373.53C764.032 374.033 764.417 374.9 764.203 375.842C764.021 376.623 763.4 377.265 762.63 377.468C761.463 377.768 760.404 377.147 759.997 376.184L747.144 382.327L760.05 388.491Z" fill="#CCD7E4"/>
</g>
</g>
<defs>
<filter id="filter0_d_1563_154866" x="0" y="0" width="994" height="512" filterUnits="userSpaceOnUse" color-interpolation-filters="sRGB">
<feFlood flood-opacity="0" result="BackgroundImageFix"/>
<feColorMatrix in="SourceAlpha" type="matrix" values="0 0 0 0 0 0 0 0 0 0 0 0 0 0 0 0 0 0 127 0" result="hardAlpha"/>
<feOffset dy="1"/>
<feGaussianBlur stdDeviation="2.5"/>
<feComposite in2="hardAlpha" operator="out"/>
<feColorMatrix type="matrix" values="0 0 0 0 0 0 0 0 0 0 0 0 0 0 0 0 0 0 0.15 0"/>
<feBlend mode="normal" in2="BackgroundImageFix" result="effect1_dropShadow_1563_154866"/>
<feBlend mode="normal" in="SourceGraphic" in2="effect1_dropShadow_1563_154866" result="shape"/>
</filter>
<clipPath id="clip0_1563_154866">
<rect x="5" y="4" width="984" height="502" rx="12" fill="white"/>
</clipPath>
</defs>
</svg>
