<svg width="104" height="80" viewBox="0 0 104 80" fill="none" xmlns="http://www.w3.org/2000/svg">
<path d="M37.0014 70.5051L22.9848 71.54C22.3388 71.5875 21.7813 71.0887 21.7575 70.444L21.6419 67.319C21.6181 66.6539 21.3529 66.0194 20.894 65.5342L6.71074 50.4961C5.34409 49.0472 4.44659 47.215 3.79046 45.1554L0.156255 21.8584C-0.0273246 20.6742 0.380632 19.4459 1.31553 18.696C1.64869 18.428 2.02265 18.2345 2.42721 18.1429C3.81765 17.8274 5.37469 18.7741 5.75545 20.3722C7.0983 26.0014 7.63884 30.9926 8.58054 36.3028C8.66553 36.7812 8.84911 37.2393 9.12108 37.6464L18.572 51.9144C19.0582 52.7185 19.9353 52.9357 20.3501 52.6744C20.7852 52.3962 20.9586 51.4257 20.3093 50.6318C17.8309 46.9095 15.3492 43.1874 12.8709 39.4651C11.7286 38.1249 11.7014 36.2892 12.5751 35.2509C13.663 33.9581 16.1787 33.8598 17.6745 35.6106C20.7784 39.1224 23.8823 42.6309 26.9861 46.1427C30.2328 48.9895 32.0584 48.942 34.7747 52.7932C37.0218 55.9827 37.8547 59.0874 38.1947 60.8925C38.2321 63.6205 38.2695 66.3486 38.3069 69.0766C38.3171 69.8231 37.746 70.4474 37.0014 70.5051Z" fill="#A1A3A6"/>
<path d="M38.2252 72.9143L22.1789 74.302C21.567 74.3563 21.1046 74.8721 21.1182 75.4828L21.193 78.8657C21.2066 79.5172 21.754 80.0262 22.4033 79.999L38.3 79.3204C38.9153 79.2933 39.4014 78.7945 39.4116 78.1837L39.4864 74.0916C39.5 73.4028 38.9119 72.8566 38.2252 72.9143Z" fill="#A1A3A6"/>
<path d="M12.333 32.3805L10.7624 33.3611C10.5652 33.4832 10.3068 33.3577 10.2864 33.1235C10.1606 31.6543 9.98384 30.1037 9.73567 28.4852C9.34811 25.9574 8.84836 23.6331 8.29762 21.5328C8.60699 21.6787 8.91636 21.8279 9.22232 21.9738C9.4569 22.191 9.74587 22.5066 10.0076 22.9341C10.368 23.5313 10.5142 24.0912 10.5788 24.461C11.2111 26.9889 11.84 29.5133 12.4724 32.0412C12.5064 32.1735 12.4486 32.3092 12.333 32.3805Z" fill="#A1A3A6"/>
<path d="M14.777 31.8816C14.5595 30.8162 14.2909 29.6897 13.9577 28.5089C13.543 27.0431 13.0874 25.6927 12.6149 24.461C12.7509 24.461 12.9378 24.4745 13.152 24.5458C13.475 24.6476 13.6926 24.824 13.8116 24.936C13.9611 25.092 14.1209 25.2787 14.2773 25.4958C14.5901 25.9335 14.7873 26.3577 14.913 26.7004C15.4604 28.3766 16.0043 30.0527 16.5517 31.7255C16.6128 31.9122 16.4565 32.0988 16.2627 32.075L14.777 31.8816Z" fill="#A1A3A6"/>
<path d="M66.3294 70.5051L80.3427 71.54C80.9886 71.5875 81.5462 71.0887 81.5699 70.444L81.6855 67.319C81.7093 66.6539 81.9745 66.0194 82.4334 65.5342L96.6167 50.4961C97.9833 49.0472 98.8809 47.215 99.537 45.1554L103.171 21.8584C103.355 20.6742 102.947 19.4459 102.012 18.696C101.679 18.428 101.305 18.2345 100.9 18.1429C99.5098 17.8274 97.9528 18.7741 97.572 20.3722C96.2292 26.0014 95.6886 30.9926 94.7469 36.3028C94.6619 36.7812 94.4783 37.2393 94.2064 37.6464L84.7554 51.9144C84.2693 52.7185 83.3921 52.9357 82.9774 52.6744C82.5422 52.3962 82.3688 51.4257 83.0182 50.6318C85.4965 46.9095 87.9782 43.1874 90.4566 39.4651C91.5988 38.1249 91.626 36.2892 90.7523 35.2509C89.6644 33.9581 87.1487 33.8598 85.6529 35.6106C82.549 39.1224 79.4452 42.6309 76.3413 46.1427C73.0947 48.9895 71.2691 48.942 68.5528 52.7932C66.3056 55.9827 65.4727 59.0874 65.1327 60.8925C65.0953 63.6205 65.0579 66.3486 65.0206 69.0766C65.0104 69.8231 65.5849 70.4474 66.3294 70.5051Z" fill="#A1A3A6"/>
<path d="M65.1013 72.9143L81.1476 74.302C81.7595 74.3563 82.2219 74.8721 82.2083 75.4828L82.1335 78.8657C82.1199 79.5172 81.5725 80.0262 80.9232 79.999L65.0265 79.3204C64.4112 79.2933 63.9251 78.7945 63.9149 78.1837L63.8401 74.0916C63.8265 73.4028 64.4146 72.8566 65.1013 72.9143Z" fill="#A1A3A6"/>
<path d="M90.9934 32.3805L92.564 33.3611C92.7612 33.4832 93.0196 33.3577 93.04 33.1235C93.1657 31.6543 93.3425 30.1037 93.5907 28.4852C93.9783 25.9574 94.478 23.6331 95.0287 21.5328C94.7194 21.6787 94.41 21.8279 94.104 21.9738C93.8695 22.191 93.5805 22.5066 93.3187 22.9341C92.9584 23.5313 92.8122 24.0912 92.7476 24.461C92.1153 26.9889 91.4863 29.5133 90.854 32.0412C90.82 32.1735 90.8778 32.3092 90.9934 32.3805Z" fill="#A1A3A6"/>
<path d="M88.5488 31.8816C88.7664 30.8162 89.035 29.6897 89.3682 28.5089C89.7829 27.0431 90.2385 25.6927 90.711 24.461C90.575 24.461 90.3881 24.4745 90.1739 24.5458C89.8509 24.6476 89.6333 24.824 89.5143 24.936C89.3648 25.092 89.205 25.2787 89.0486 25.4958C88.7358 25.9335 88.5387 26.3577 88.4129 26.7004C87.8655 28.3766 87.3216 30.0527 86.7742 31.7255C86.7131 31.9122 86.8694 32.0988 87.0632 32.075L88.5488 31.8816Z" fill="#A1A3A6"/>
<path d="M75.9009 0.074707H27.3202C25.7562 0.074707 24.4883 1.34015 24.4883 2.90116V36.0788C24.4883 37.6398 25.7562 38.9052 27.3202 38.9052H75.9009C77.4649 38.9052 78.7328 37.6398 78.7328 36.0788V2.90116C78.7328 1.34015 77.4649 0.074707 75.9009 0.074707Z" fill="#456080"/>
<path d="M45.7132 0H56.2146V16.3445C56.2146 16.979 55.6979 17.4914 55.0656 17.4914H46.8623C46.2265 17.4914 45.7132 16.9756 45.7132 16.3445V0Z" fill="#537399"/>
<path d="M38.6158 3.72229H29.175C28.6943 3.72229 28.3047 4.11119 28.3047 4.59092V8.88659C28.3047 9.36632 28.6943 9.75519 29.175 9.75519H38.6158C39.0964 9.75519 39.4861 9.36632 39.4861 8.88659V4.59092C39.4861 4.11119 39.0964 3.72229 38.6158 3.72229Z" fill="#537399"/>
</svg>
