<svg width="520" height="439" viewBox="0 0 520 439" fill="none" xmlns="http://www.w3.org/2000/svg">
<g opacity="0.3">
<path d="M259.844 438.061C380.708 438.061 478.688 340.011 478.688 219.061C478.688 98.1102 380.708 0.0605469 259.844 0.0605469C138.98 0.0605469 41 98.1102 41 219.061C41 340.011 138.98 438.061 259.844 438.061Z" fill="#D3DCD7"/>
<path d="M113.619 364.367C118.657 360.804 119.576 360.718 122.878 357.21C127.823 351.943 129.482 348.614 131.171 343.106C131.499 342.04 132.231 339.73 134.357 337.801C138.009 334.495 139.979 335.452 143.382 335.086C145.095 334.907 146.474 334.51 147.564 334.005C156.356 329.936 156.387 319.598 156.815 315.397C157.477 309.376 158.677 307.68 160.88 302.935C162.765 298.882 164.907 295.584 166.846 293.009C167.515 292.122 168.302 291.352 169.127 290.613C170.833 289.08 171.728 286.809 171.479 284.514C171.168 281.682 169.781 280.889 166.409 278.462L159.72 272.962C158.972 272.347 158.482 271.484 158.334 270.535L158.069 268.8C157.937 267.96 157.532 267.174 156.909 266.599C153.794 263.697 150.515 260.974 147.572 257.902C146.762 257.061 146.045 256.019 143.779 255.669C141.684 255.35 141.521 255.583 139.823 255.996C136.451 256.82 132.83 257.326 129.38 257.738C128.866 257.8 128.415 257.349 128.524 256.844C128.633 256.322 128.578 255.786 128.345 255.311C127.955 254.533 127.138 254.028 126.234 253.981C125.822 253.965 125.541 253.561 125.627 253.156C126.491 249.337 127.753 246.676 128.275 242.569C128.524 240.383 128.539 239.784 128.469 239.138C128.033 234.844 123.236 232.658 122.8 232.464L109.156 224.848C107.669 224.016 106.454 222.779 105.652 221.277L102.973 216.237C102.358 215.078 101.47 214.082 100.388 213.343C95.8322 210.216 91.2844 207.081 86.7288 203.953C86.1836 203.557 84.1122 202.156 81.2153 202.382C77.8122 202.654 77.0568 203.93 75.4837 205.385C74.7595 206.054 73.1865 207.213 70.8814 207.734C68.5919 208.255 66.6295 207.882 65.4068 207.501C65.1265 207.415 64.9318 207.407 64.7371 207.508C64.3088 207.734 63.7871 207.493 63.6002 207.049L63.4366 206.661C63.2575 206.233 63.1641 205.774 63.1485 205.315L62.9227 192.969C62.837 187.329 61.6377 188.59 60.0413 187.026C59.6052 186.598 59.4261 185.556 59.3638 184.366C59.3171 183.494 59.6675 182.903 59.9323 182.429C62.0816 178.5 62.1595 174.369 63.1563 169.795C63.3432 168.955 63.46 168.387 62.9616 167.944C62.4321 167.477 61.6689 167.648 61.0225 168.076C57.8141 170.192 56.9419 172.324 55.657 175.785C55.4623 176.151 54.5901 177.652 52.7134 178.267C52.2461 178.422 51.8022 178.492 51.3973 178.516C50.5718 178.562 49.9878 177.722 50.3304 176.968L64.8539 145.727C65.1576 145.066 66.0143 144.887 66.5594 145.353C66.8008 145.556 67.0422 145.766 67.2836 145.968C67.93 146.52 68.9423 146.209 69.1604 145.384C69.2149 145.182 69.2694 145.011 69.3317 144.848C70.4609 141.993 74.4714 140.297 79.3229 140.678C80.8259 140.787 82.2977 141.518 84.7975 140.305C86.4095 139.519 87.3673 138.337 88.5354 136.952C102.397 123.486 114.724 111.522 128.594 98.0563C129.879 96.4383 132.114 94.9524 134.084 95.7381C135.758 96.4071 136.817 98.1963 136.669 100.087C136.623 100.725 137.098 101.277 137.728 101.339C139.971 101.58 140.096 101.767 142.323 102.14C147.291 102.965 149.16 102.265 149.737 100.662C150.173 99.4488 149.433 98.5931 148.148 96.8272C146.388 94.4157 144.27 92.2998 142.323 90.0283C142.113 89.8649 139.504 87.7256 139.971 85.9131C140.423 84.1472 145.983 83.1126 149.082 84.3884L152.852 86.5199C155.009 87.8735 156.956 87.6012 157.002 87.15C157.135 85.9754 154.705 84.7074 156.185 84.2717C157.781 83.805 162.695 82.9493 167.204 81.0045C171.183 79.2853 174.212 77.1305 176.393 75.388C177.483 74.12 180.092 72.3152 175.474 72.8364C173.776 72.9687 171.362 71.5995 170.373 68.6902C169.61 66.4498 170.179 64.2794 172.795 61.58C173.099 61.2689 172.803 60.7477 172.375 60.8021L161.449 63.0114C160.616 63.1436 160.102 62.9336 160.172 62.0935L160.382 59.5808C160.53 57.9083 159.923 56.9826 158.895 56.4381C157.485 55.699 155.53 56.1424 153.989 57.3715C152.47 58.5462 152.828 58.165 151.146 59.5419C149.651 60.771 147.984 63.2214 146.801 63.8126C145.897 64.2483 144.893 64.4039 143.904 64.2716L142.136 64.0382C141.786 63.9916 141.443 64.2016 141.334 64.5361L140.664 66.512C140.228 67.7956 139.395 68.908 138.289 69.6937C134.98 72.0352 128.368 76.407 127.449 77.0216C126.655 77.5506 126.001 78.2585 125.526 79.083C123.563 82.4747 121.975 85.073 121.5 84.8785C120.884 84.6218 119.926 82.8326 123.166 75.5513C123.267 75.318 123.08 75.069 122.831 75.1079C118.346 75.8314 115.044 73.6766 114.787 71.6618C114.577 70.0048 116.352 67.9511 118.976 66.7609C129.162 61.8834 140.82 59.3085 149.526 52.1206C150.282 51.4983 150.811 50.7282 150.57 49.5069C150.274 47.9822 148.802 46.1385 145.204 47.2198L120.939 60.1487C120.238 60.5221 119.397 60.5221 118.696 60.1565L112.482 56.9048C77.0101 89.1026 52.1527 132.767 43.7734 182.032L47.4257 180.149C47.8774 183.113 48.3291 186.077 48.7807 189.041C48.8898 189.749 49.4972 190.262 50.2136 190.293C50.3538 190.293 50.4784 190.317 50.5952 190.332C51.1403 190.418 53.9204 191.966 54.4032 195.14C55.143 199.846 56.0152 203.082 57.8063 207.073C59.7688 211.46 61.8558 214.082 63.7559 215.957C64.8539 217.038 65.2978 218.625 64.8929 220.111C60.8123 230.426 65.3523 229.033 61.0303 234.346C60.7188 234.689 58.7097 236.96 59.2392 239.838C59.4183 240.819 59.8311 241.565 60.1581 242.017C60.9602 243.16 61.2717 243.666 61.1627 244.763C61.0381 246.007 59.8934 246.731 59.6364 246.894C57.7752 248.388 55.9529 249.842 56.1788 254.362C56.3189 257.124 57.7363 259.068 58.8031 260.165C59.6831 261.06 60.3762 262.126 60.859 263.285C62.3853 266.956 63.9194 270.62 65.4458 274.292C65.8507 275.265 66.0688 276.307 66.1077 277.365C66.2089 280.212 66.6684 283.853 68.039 287.859C70.3986 294.759 74.339 299.481 77.0724 302.18C77.9368 303.036 78.0925 304.133 78.3807 304.708C80.5066 310.566 81.3632 309.664 81.8772 314.23C82.2354 317.412 81.6592 320.477 81.2698 322.18C80.1795 328.38 80.4054 330.971 81.5423 336.93C83.0064 344.623 87.4763 353.11 91.0585 358.641C97.3975 366.272 104.243 373.468 111.547 380.174C111.438 374.425 109.242 367.439 113.611 364.351L113.619 364.367Z" fill="#7B9586"/>
<path d="M184.144 40.8491C182.221 40.5691 180.92 40.8491 179.884 41.1214C179.479 41.2303 179.059 41.2458 178.646 41.1914C177.486 41.0358 174.947 40.9502 173.218 42.7317C172.541 43.4318 172.19 44.2175 171.996 44.8242L169.979 48.5115C169.66 49.095 169.114 49.515 168.468 49.6628C167.245 49.9351 166.848 50.5341 166.763 50.6664C165.89 52.0666 167.004 54.9838 170.22 57.2397C175.555 58.0332 176.551 57.8931 179.441 57.6209C180.173 57.5509 180.858 57.2164 181.356 56.6796L188.552 48.9705C188.894 48.5971 189.144 48.1459 189.253 47.6558C189.369 47.1346 189.455 46.5356 189.486 45.8744C189.549 44.4275 189.93 43.7196 189.05 42.436C188.085 41.9304 186.083 41.1369 184.144 40.8569V40.8491Z" fill="#7B9586"/>
<path d="M236.317 56.8823C236.418 56.8979 236.512 56.929 236.613 56.9601C237.625 57.3335 239.152 57.7302 240.982 57.6291C244.899 57.4113 247.539 55.0698 248.512 54.0818C248.676 53.9107 248.878 53.7862 249.096 53.7007C258.503 50.0056 259.531 52.2926 262.942 52.8761C264.422 53.1328 265.831 53.7707 267.327 53.9185C271.617 54.3386 274.538 54.4241 276.562 54.3385C278.509 54.253 279.529 51.9659 278.283 50.4723C277.489 49.5233 276.819 48.2475 276.601 46.575C276.594 46.505 276.586 46.435 276.586 46.365C276.57 45.0736 278.112 44.3346 279.179 45.0736C279.522 45.307 279.942 45.5404 280.441 45.7193C282.434 46.4116 284.233 45.6648 284.802 45.3926C284.856 45.3615 284.918 45.3381 284.981 45.3148C291.117 43.0666 298.009 41.9542 303.616 38.9048C304.27 38.547 304.083 37.559 303.351 37.4501C296.218 36.151 288.89 34.9219 281.367 33.7861C273.074 32.5259 264.967 31.4368 257.063 30.4956C255.186 30.27 253.309 30.1299 251.425 30.0444C242.251 29.6243 232.595 29.4687 222.495 29.671C216.965 29.7799 211.584 29.9899 206.351 30.2778C204.7 30.3711 203.431 31.7558 203.478 33.3972L203.75 43.4711C203.774 44.3191 204.42 45.0192 205.261 45.1203C213.142 46.0305 217.098 47.0651 217.129 48.2242C217.16 49.3055 213.765 50.4879 206.935 51.7792C206.803 51.8026 206.663 51.8415 206.538 51.9037C202.543 53.7162 202.567 58.0103 203.485 60.6396C204.84 64.5059 211.592 67.2519 218.827 64.0002C218.951 63.9458 219.076 63.868 219.185 63.7824C229.207 55.9644 231.684 56.0733 236.333 56.8979L236.317 56.8823Z" fill="#7B9586"/>
<path d="M180.331 86.4264L175.97 83.7037C175.542 82.8091 174.973 82.3657 174.638 82.1479C173.159 81.8523 171.157 81.9767 168.969 82.918C165.94 83.9837 164.281 82.9647 162.996 84.3571C161.789 85.664 161.104 86.2786 160.73 86.9709C158.83 87.2976 157.654 87.3832 157.592 88.3011C157.553 88.8457 158.16 89.258 160.146 90.8916C164.421 95.1623 166.025 93.1553 168.455 91.6773C171.313 89.9348 171.624 88.8535 174.747 88.1689C175.51 87.9978 176.235 87.92 176.881 87.8966C177.27 87.8811 177.652 87.8344 178.034 87.741C178.758 87.5621 179.482 87.391 180.214 87.2121C180.588 87.1187 180.666 86.6286 180.339 86.4264H180.331Z" fill="#7B9586"/>
<path d="M443.953 100.235H438.548C433.198 100.017 428.479 94.4628 426.992 92.5258C426.563 91.9657 426.081 91.4445 425.551 90.9778C423.799 89.4375 420.918 87.3761 416.891 86.1781C413.356 85.1279 410.28 85.1512 408.325 85.3301C407.056 85.4779 404.167 85.7347 403.941 85.0034C403.7 84.2255 410.568 79.9626 413.753 77.8544C414.072 77.6444 413.909 77.1465 413.527 77.1699L406.332 77.5588C405.592 77.5977 403.925 77.3332 403.326 76.9054C403.326 76.9054 391.909 70.6665 380.236 59.0367C378.313 57.1231 376.117 56.6485 370.393 61.5494C364.568 67.8894 357.972 69.3752 355.978 65.5167C355.021 63.6731 351.555 64.0309 351.555 64.0309C342.07 65.0111 339.469 72.7435 340.52 75.6607C341.727 78.9979 347.327 78.5779 349.85 79.0602C353.385 80.2815 354.366 82.6152 353.775 84.1555C353.214 85.6102 351.983 85.7113 350.114 85.8513C340.988 86.5359 334.29 86.0614 326.106 86.108C325.631 86.108 325.171 86.2325 324.759 86.4737L316.278 91.359C315.756 91.6546 315.671 92.3625 316.084 92.7903C316.574 93.3037 317.119 94.0272 317.501 94.9996C318.303 97.061 317.945 98.9203 317.664 99.4415C314.814 104.731 313.903 108.24 314.425 112.674C314.464 113.024 314.129 113.296 313.802 113.179C312.797 112.106 305.189 104.194 298.04 106.334H298.017C296.755 106.723 295.587 107.54 295.392 108.994C292.698 129.329 292.978 132.658 298.11 135.233C299.115 135.739 301.202 136.416 304.885 135.171C305.539 134.945 306.232 134.852 306.926 134.852H313.264C313.786 134.852 314.261 134.564 314.495 134.097C315.352 132.394 316.761 130.13 319.043 127.991C322.96 124.311 327.235 123.036 329.314 122.569C337.756 121.13 336.37 119.014 343.082 120.149C346.859 120.787 350.083 121.915 351.29 123.479C356.329 130.013 359.662 132.713 363.851 137.334C364.093 137.684 365.401 138.718 366.141 138.998C367.667 139.582 368.812 137.038 370.494 136.283C372.098 135.568 372.534 136.898 372.885 137.326L376.81 142.942C377.3 144.28 377.752 144.84 378.772 145.066C379.839 145.299 380.407 143.814 381.521 143.86C383.094 143.922 382.565 143.829 383.616 145.035C384.169 146.933 384.317 147.112 385.15 147.127C386.007 147.143 386.723 146.225 386.754 145.035C386.809 142.942 389.246 142.997 392.182 143.992C395.118 144.895 398.326 143.93 400.265 141.573C402.243 139.154 402.516 135.739 400.951 133.016C398.739 126.202 406.285 125.727 408.606 128.302C411.425 132.814 413.278 134.891 414.166 134.541C414.524 134.401 414.719 133.802 414.758 132.868C414.789 132.153 415.038 131.445 415.552 130.939C416.214 130.278 417.226 130.044 418.285 133.397L423.651 146.855C424.305 148.489 424.632 149.788 423.783 150.387C423.082 150.877 422.187 149.959 420.902 149.733C395.32 145.214 390.531 150.869 404.291 157.17C405.631 157.785 407.095 158.08 408.567 158.073C410.202 158.065 412.601 158.415 414.228 160.259C414.937 161.06 415.318 161.939 415.536 162.678C415.731 166.917 415.926 171.165 416.128 175.405C416.167 176.159 415.56 176.797 414.804 176.797H401.293C400.795 176.797 400.413 177.225 400.46 177.715L401.083 183.713C401.13 184.133 401.348 184.514 401.698 184.755L411.876 191.904C416.237 194.86 430.496 233.678 430.496 233.678C433.12 241.651 433.845 243.075 434.779 243.122C435.573 243.161 435.581 241.231 437.006 240.313C441.258 237.567 443.633 238.05 448.43 236.852C454.107 235.265 458.546 231.01 459.839 225.673C461.552 218.579 457.347 210.846 449.739 207.314C443.68 204.498 439.95 203.192 441.391 196.525C442.567 194.448 446.32 191.85 451.008 196.657C453.85 199.574 456.047 203.098 458.149 204.249C458.912 204.67 459.621 205.175 460.174 205.836C460.96 206.778 461.794 207.672 462.713 208.489C463.756 209.423 464.862 210.566 465.929 211.951C469.324 216.377 470.469 220.92 470.897 223.542C471.886 237.785 472.883 252.037 473.872 266.28C477.236 251.041 479.004 235.21 479.004 218.968C479.004 175.194 466.139 134.416 443.984 100.212L443.953 100.235Z" fill="#7B9586"/>
<path d="M386.926 318.625C387.346 317.1 387.922 315.622 388.6 314.199C391.185 308.769 393.257 305.074 393.927 304.607C395.173 303.744 395.624 304.413 397.953 303.362C400.086 301.752 401.87 299.582 404.003 297.972C408.263 294.712 415.521 288.1 419.049 277.489C419.937 274.829 420.715 274.323 420.746 270.006C420.528 269.041 420.357 267.586 420.778 265.953C421.245 264.148 422.203 262.966 422.709 262.421C423.822 261.192 424.819 259.356 426.127 257.31C426.914 256.081 427.288 255.295 427.093 254.875C426.291 253.623 425.427 254.65 421.144 254.058C420.482 253.887 419.851 253.677 419.243 253.436C409.571 249.562 411.004 237.722 405.366 231.841C404.704 231.297 403.801 230.402 403.022 229.119C401.005 225.812 401.332 222.382 401.519 221.122C401.745 219.146 402.08 215.505 401.278 211.756C400.546 208.341 399.931 207.034 398.435 204.443C397.953 203.603 397.61 202.685 397.439 201.728C396.263 195.272 393.786 190.931 393.997 189.523C394.121 188.683 394.518 187.897 395.102 187.275C395.461 186.894 395.85 186.473 396.138 186.162C396.333 185.945 396.489 185.696 396.574 185.416C397.205 183.424 397.299 181.814 397.197 180.803C397.119 179.962 396.94 179.216 396.738 178.578C396.364 177.434 395.437 176.555 394.277 176.221C386.645 174.042 381.482 171.475 373.851 169.297C373.126 169.087 372.457 168.722 371.888 168.216C371.218 167.944 370.401 167.531 369.56 166.893C368.033 165.742 367.153 164.404 366.678 163.541C365.425 161.72 364.186 160.802 363.268 162.809C362.356 164.801 361.484 166.676 361.484 166.676C360.659 168.333 360.776 170.145 360.044 170.643C358.891 171.421 357.793 170.9 355.465 169.383C353.775 168.278 352.35 167.632 351.509 166.979C349.375 165.314 346.922 162.732 345.66 159.037C345.536 158.663 345.364 158.313 345.084 158.056C344.516 157.535 343.643 157.403 342.865 157.699C341.93 158.049 340.887 158.049 339.921 157.8C339.898 157.8 339.882 157.792 339.859 157.784C338.94 157.543 337.896 157.146 336.845 156.485C334.921 155.279 333.714 153.685 332.975 152.308C332.507 151.452 332.25 150.495 332.204 149.523C332.087 146.886 331.222 140.662 324.735 141.036L307.494 140.849L290.307 140.234C282.543 140.149 279.841 137.737 272.599 144.186C270.185 146.333 268.76 148.799 267.911 150.884C266.976 153.171 264.998 154.859 262.592 155.427C258.387 156.407 251.993 158.951 247.796 165.524C244.167 171.211 243.996 177.069 244.393 180.74C244.603 182.693 243.63 184.599 241.893 185.509C239.175 186.932 237.306 189.041 236.94 191.46C236.901 191.701 236.878 191.973 236.87 192.269C236.855 193.482 236.582 194.68 235.99 195.738C234.355 198.694 232.533 203.136 232.424 208.644C232.392 210.106 232.494 211.46 232.657 212.697C232.805 213.778 232.883 214.875 232.883 215.964V235.809C232.883 237.007 233.459 238.135 234.433 238.835L252.243 251.701C253.013 252.121 255.256 253.218 258.192 252.814C261.977 252.293 262.608 250.153 264.539 249.088C271.291 245.299 273.697 246.225 275.986 246.629C282.567 248.139 290.923 250.815 295.938 249.609C296.841 249.375 297.752 249.671 298.227 250.324C298.624 250.877 298.578 251.499 298.554 251.694C298.515 251.966 298.103 255.474 300.781 257.816C302.822 259.597 305.547 258.936 308.366 258.749C308.989 258.71 312.665 259.317 314.386 262.934C315.624 265.54 315.134 267.921 314.651 268.551C311.551 272.651 310.625 276.431 311.972 277.831C312.26 278.127 312.836 278.111 313.997 278.485C314.588 278.672 314.853 279.115 314.783 280.118C314.721 280.959 314.082 281.425 313.997 281.488C313 282.227 312.579 283.518 312.953 284.693C313.311 285.836 314.604 285.992 315.57 286.715C316.971 287.765 317.197 289.119 317.4 291.554C317.563 293.522 317.065 295.062 316.746 295.863C314.674 298.858 311.808 303.806 310.204 310.504C309.402 313.872 309.091 316.968 309.028 319.613C308.966 322.538 308.74 325.463 308.242 328.349C307.697 331.453 307.338 335.109 307.455 339.193C307.58 343.433 308.187 347.12 308.896 350.107C310.773 360.827 312.649 371.539 314.518 382.258C315.04 384.771 315.204 385.914 316.676 387.221C318.918 388.941 322.571 388.653 325.117 386.179C337.25 376.214 343.394 374.884 346.634 374.191C348.83 373.725 350.917 373.476 352.856 373.367C353.191 373.343 356.352 373.04 358.151 370.162C359.919 367.33 358.868 364.413 358.743 364.086C358.4 363.503 358.385 362.787 358.712 362.227C359.101 361.55 359.888 361.395 360.706 361.348C362.894 361.216 363.626 360.345 365.347 358.306C367.224 356.097 367.558 353.717 367.636 352.853C367.644 352.091 367.722 350.893 368.065 349.485C369.085 345.269 371.686 342.523 373.134 341.216C385.563 328.442 385.828 322.196 386.381 320.469C386.583 319.839 386.762 319.224 386.933 318.602L386.926 318.625Z" fill="#7B9586"/>
<path d="M424.849 331.959L424.911 330.147C424.927 329.758 424.491 329.517 424.172 329.742L421.726 331.43C421.399 331.656 420.948 331.617 420.659 331.337L417.872 328.599C417.607 328.334 417.147 328.49 417.101 328.863C416.688 331.765 416.999 334.013 415.855 337.576C415.185 339.653 413.76 342.189 411.735 344.896C410.045 347.144 408.309 348.863 406.829 350.124C406.829 350.124 387.726 362.671 387.726 363.193C385.928 364.149 384.923 366.133 385.242 368.093C385.53 369.906 386.893 371.4 388.708 371.882C393.45 372.566 395.841 371.423 398.847 368.35C399.166 368.023 400.054 367.316 401.401 367.105C403.247 366.825 404.594 367.79 404.937 367.953C407.195 369.066 410.248 368.871 414.032 366.055C417.903 363.177 419.429 356.876 417.895 352.527C417.583 351.648 417.825 349.089 419.398 346.514C420.807 344.204 422.077 343.052 423.588 342.656C425.316 342.205 426.936 341.481 427.45 339.847C427.808 338.688 427.419 336.487 426.017 334.97C425.254 334.145 424.826 333.064 424.865 331.944L424.849 331.959Z" fill="#7B9586"/>
</g>
<path d="M519.817 365.028L517.396 336.362C517.295 335.169 516.781 334.054 515.933 333.212L513.543 330.818C512.103 329.376 511.893 327.115 513.045 325.431L517.521 318.874C518.307 317.721 518.657 316.325 518.493 314.937C519.389 296.749 515.979 274.911 513.309 269.08C513.154 268.744 512.757 267.403 511.955 266.257C511.94 266.234 511.924 266.218 511.908 266.203L509.729 264.02C509.379 263.669 509.122 263.225 508.997 262.741L499.462 225.935C499.283 225.233 500.1 224.703 500.661 225.155L506.374 229.732C508.647 231.821 513.045 232.757 513.489 226.73C513.675 224.165 514.142 220.524 514.329 217.967C514.726 213.352 514.82 212.323 513.489 211.543C507.347 207.98 500.023 207.091 493.251 204.963C492.924 204.862 492.628 204.682 492.387 204.448L492.293 204.308C491.694 202.71 491.577 198.165 482.836 193.307C482.089 192.894 481.303 192.528 480.493 192.232C469.604 188.177 465.587 186.618 451.312 184.396C450.362 184.248 449.467 183.819 448.759 183.172L444.26 179.087C442.64 177.614 440.788 176.413 438.764 175.563C401.456 159.893 354.917 148.518 320.388 146.475C318.878 146.389 317.524 147.38 317.166 148.853C317.158 148.892 317.15 148.931 317.135 148.97C317.002 149.531 316.341 149.983 315.866 149.648C311.46 146.584 304.105 144.472 300.54 143.746C299.606 143.559 298.64 143.575 297.714 143.801C199.327 168.04 106.529 190.914 2.69319 216.494C1.12087 216.883 0 218.31 0 219.947V337.734C0 339.168 1.15978 340.33 2.592 340.33H3.90746C5.62768 340.33 7.02097 341.725 7.02097 343.448V355.603C7.02097 356.803 7.97838 357.778 9.17708 357.801L51.8945 358.573C52.9142 358.589 53.786 359.306 53.9961 360.304L55.3194 366.479C55.6696 367.742 56.1444 369.48 57.9425 370.883C59.8651 372.38 62.0913 371.796 63.0253 371.445C65.6718 376.855 69.6415 380.426 74.1094 380.792C74.1483 380.8 74.1795 380.824 74.2184 380.824H74.5842C74.6776 380.824 74.7788 380.824 74.8722 380.824C75.1369 380.824 75.4093 380.808 75.674 380.792L85.5282 380.59C86.9916 380.559 88.3849 379.974 89.4357 378.953C91.1948 377.237 93.7168 374.361 95.6316 370.79C98.2625 377.004 102.582 381.291 107.572 382.04C107.603 382.04 107.626 382.063 107.658 382.063H107.782C108.226 382.126 108.677 382.157 109.136 382.157C109.549 382.157 109.954 382.126 110.359 382.079L121.482 382.149C122.898 382.157 124.276 381.681 125.358 380.769C127.981 378.571 132.044 373.83 134.566 364.108C134.613 363.937 134.761 363.82 134.94 363.82C150.453 364.28 166.635 364.748 182.148 365.208C182.351 365.208 182.514 365.379 182.514 365.59V373.846C182.514 374.057 182.678 374.22 182.888 374.228L227.333 375.054C227.543 375.054 227.722 374.891 227.722 374.672V363.36C227.722 363.142 227.901 362.97 228.119 362.978L257.869 364.124C258.071 364.132 258.235 364.303 258.235 364.506V375.577C258.235 375.787 258.398 375.951 258.608 375.959L316.621 376.887C316.831 376.887 317.01 376.715 317.01 376.505V367.601C317.01 367.367 317.228 367.188 317.454 367.227L318.941 367.5C318.987 367.508 319.018 367.539 319.065 367.57C319.065 367.703 319.057 367.835 319.057 367.968C319.057 386.336 330.803 402.053 347.842 402.053C347.927 402.053 348.153 402.061 348.176 402.061L370.399 401.227C372.119 401.227 373.777 400.618 375.085 399.496C376.416 398.358 380.612 394.748 382.923 390.67C383.406 389.828 384.293 389.298 385.266 389.314C393.073 389.47 400.351 389.618 408.119 389.774C409.505 389.805 410.571 390.959 410.602 392.347C410.626 393.586 411.739 394.522 412.969 394.327L467.385 385.767C467.385 385.767 468.623 391.933 471.246 391.949L484.245 391.138C486.37 391.006 488.285 389.821 489.39 388.004C490.962 385.4 491.523 383.03 491.889 381.923C499.439 380.738 506.997 379.545 514.547 378.36C519.116 377.604 520.471 376.294 519.863 365.044L519.817 365.028Z" fill="#7B9586"/>
<path d="M61.4645 334.818H34.6571C34.299 334.818 33.9877 335.036 33.8554 335.37L30.8664 343.248C30.7107 343.668 30.3059 343.94 29.8545 343.94H28.1654C27.7529 343.94 27.4104 343.598 27.4182 343.185L27.5894 333.557C27.5894 333.378 27.4493 333.222 27.2625 333.222H25.0986C24.9196 333.222 24.7794 333.362 24.7717 333.534L24.437 343.201C24.4214 343.614 24.0867 343.933 23.6741 343.933H10.1381C9.76451 343.933 9.46094 344.236 9.46094 344.61V352.308C9.46094 352.674 9.74894 352.97 10.1148 352.985L54.9261 354.62C55.2997 354.635 55.6111 354.347 55.6266 353.974L56.117 344.135C56.1404 343.691 55.7823 343.318 55.3386 343.318H49.1816C48.808 343.318 48.5512 342.936 48.6991 342.594L50.9719 337.293C51.112 336.974 51.4234 336.772 51.7659 336.772H61.4645C61.6357 336.772 61.768 336.639 61.768 336.468V335.114C61.768 334.942 61.6357 334.81 61.4645 334.81V334.818ZM48.4733 337.153L46.0915 343.014C45.9202 343.434 45.5155 343.715 45.0562 343.722L33.3805 343.933C33.0848 343.933 32.8746 343.637 32.9836 343.357L35.5756 336.99C35.7079 336.67 36.0192 336.46 36.3617 336.46H47.9985C48.3566 336.46 48.6056 336.826 48.4655 337.161L48.4733 337.153Z" fill="#D3DCD7"/>
<path d="M73.4532 370.685C78.126 370.685 81.9142 363.646 81.9142 354.962C81.9142 346.278 78.126 339.239 73.4532 339.239C68.7803 339.239 64.9922 346.278 64.9922 354.962C64.9922 363.646 68.7803 370.685 73.4532 370.685Z" fill="#D3DCD7"/>
<path d="M108.16 373.036C112.833 373.036 116.621 365.686 116.621 356.62C116.621 347.553 112.833 340.204 108.16 340.204C103.487 340.204 99.6992 347.553 99.6992 356.62C99.6992 365.686 103.487 373.036 108.16 373.036Z" fill="#D3DCD7"/>
<path d="M92.6326 360.091H89.3556C89.0598 360.091 88.8185 360.294 88.7563 360.574C88.2659 362.839 87.4175 365.641 85.9074 368.653C83.6735 373.121 80.8713 376.297 78.6918 378.352C78.435 378.593 78.5984 379.021 78.9487 379.037L85.6661 379.356C85.8529 379.364 86.0319 379.317 86.1876 379.216C87.2929 378.5 88.7018 377.426 90.0717 375.853C91.4495 374.281 92.3368 372.717 92.9128 371.463C93.1386 370.965 93.2553 370.428 93.2553 369.875V360.698C93.2553 360.356 92.9751 360.076 92.6326 360.076V360.091Z" fill="#D3DCD7"/>
<path d="M131.991 364.022H125.304C125.079 364.022 124.884 364.178 124.83 364.396C124.37 366.443 123.584 368.981 122.167 371.713C120.167 375.581 117.668 378.376 115.676 380.228C115.357 380.524 115.559 381.046 115.987 381.061L121.537 381.31C121.63 381.31 121.724 381.295 121.802 381.248C125.873 378.991 130.73 371.557 132.465 364.614C132.543 364.31 132.302 364.015 131.991 364.015V364.022Z" fill="#D3DCD7"/>
<path d="M183.099 337.192L144.686 336.374C144.266 336.367 143.892 336.624 143.744 337.013L138.848 350.198C138.732 350.518 138.436 350.736 138.093 350.751L133.719 350.969C133.376 350.985 133.081 350.72 133.073 350.37L132.637 335.331C132.629 335.012 132.372 334.763 132.053 334.763H129.134C128.807 334.763 128.55 335.028 128.55 335.347L128.597 350.292C128.597 350.525 128.41 350.712 128.177 350.712H124.37C124.028 350.712 123.763 351.016 123.81 351.358L124.503 356.208C124.542 356.48 124.767 356.682 125.048 356.69L181.729 358.34C182.048 358.348 182.313 358.091 182.313 357.772V352.386C182.313 352.074 182.064 351.825 181.753 351.817L164.846 351.685C164.574 351.685 164.379 351.421 164.465 351.164L167.641 340.998C167.742 340.663 168.045 340.438 168.396 340.43L183.107 340.15C183.449 340.15 183.722 339.862 183.722 339.527V337.783C183.722 337.441 183.449 337.168 183.107 337.161L183.099 337.192ZM163.64 340.912L160.518 350.907C160.394 351.296 160.028 351.561 159.623 351.553L142.919 351.101C142.522 351.094 142.25 350.697 142.382 350.323L145.768 340.741C145.885 340.399 146.212 340.173 146.57 340.173H163.095C163.476 340.173 163.749 340.547 163.64 340.912Z" fill="#D3DCD7"/>
<path d="M224.279 347.311H191.082C190.973 347.311 190.864 347.342 190.786 347.404C189.61 348.315 185.656 353.117 185.656 360.994V368.918C185.656 369.199 185.882 369.424 186.154 369.432L219.664 370.382C219.998 370.389 220.255 370.094 220.185 369.767C219.625 367.136 219.033 362.497 220.473 357.064C221.532 353.071 223.299 350.074 224.708 348.12C224.957 347.778 224.708 347.311 224.287 347.311H224.279Z" fill="#D3DCD7"/>
<path d="M255.805 353.841H243.615C243.273 353.841 242.993 353.569 242.985 353.226L242.588 334.319C242.588 333.977 242.3 333.705 241.957 333.705H239.132C238.789 333.705 238.501 333.985 238.501 334.327L238.307 353.219C238.307 353.561 238.019 353.841 237.676 353.841H227.845C227.495 353.841 227.215 354.121 227.215 354.472V360.177C227.215 360.52 227.487 360.8 227.822 360.808L255.439 361.812C255.781 361.827 256.077 361.555 256.093 361.213L256.443 354.495C256.459 354.137 256.171 353.833 255.812 353.833L255.805 353.841Z" fill="#D3DCD7"/>
<path d="M316.477 343.1C300.325 342.548 284.361 341.792 268.762 341.792C268.599 341.792 268.443 341.847 268.311 341.948C266.645 343.217 261.477 349.164 261.477 360.053V371.721C261.477 372.126 261.803 372.461 262.208 372.461L310.04 373.037C310.514 373.037 310.873 372.609 310.771 372.141C309.977 368.483 309.152 362.038 311.176 354.503C312.632 349.078 315.052 346.572 317.014 344.338C317.426 343.871 317.107 343.131 316.485 343.108L316.477 343.1Z" fill="#D3DCD7"/>
<path d="M348.277 390.838C359.441 390.838 368.492 380.77 368.492 368.351C368.492 355.931 359.441 345.863 348.277 345.863C337.113 345.863 328.062 355.931 328.062 368.351C328.062 380.77 337.113 390.838 348.277 390.838Z" fill="#D3DCD7"/>
<path d="M382.725 344.08L378.95 330.887C378.273 328.108 374.599 311.303 353.193 307.932C339.393 306.196 329.632 306.383 315.59 307.068C315.286 307.084 315.006 307.278 314.897 307.566L308.024 325.376C307.86 325.812 308.102 326.286 308.553 326.403L323.841 330.357C324.113 330.427 324.401 330.342 324.596 330.139C328.799 325.773 332.948 324.06 335.508 323.313C347.239 319.888 361.436 326.224 371.275 339.254C371.337 339.34 371.423 339.41 371.516 339.464C374.879 341.301 378.242 343.138 381.612 344.975C382.219 345.302 382.92 344.742 382.733 344.08H382.725Z" fill="#D3DCD7"/>
<path d="M413.742 359.088C413.337 357.22 412.497 355.118 410.885 355.032C402.152 354.589 393.395 354.97 384.646 354.962C384.389 354.962 384.156 354.799 384.078 354.55L382.117 348.797C382.031 348.541 381.782 348.369 381.509 348.393L374.457 348.875C374.091 348.899 373.835 349.249 373.912 349.607L381.595 384.471C381.657 384.743 381.891 384.938 382.171 384.945L409.438 385.35C409.679 385.35 409.905 385.21 409.998 384.984L411.314 381.902C411.485 381.505 411.197 381.069 410.769 381.061L385.962 380.688C385.713 380.688 385.487 380.532 385.401 380.291C384.296 377.084 381.735 362.91 384.452 360.551C384.561 360.458 384.709 360.419 384.856 360.426C393.722 360.878 402.588 361.329 411.454 361.773C412.917 361.851 414.046 360.512 413.742 359.08V359.088Z" fill="#D3DCD7"/>
<path d="M322.261 169.17C322.261 169.17 322.316 169.17 322.347 169.17L346.376 167.66C346.687 167.637 346.975 167.481 347.162 167.232L350.057 163.278C350.524 162.64 351.497 162.725 351.848 163.434L357.67 175.195C357.849 175.553 358.207 175.779 358.604 175.779L414.071 176.331C414.281 176.331 414.484 176.402 414.655 176.518L419.154 179.601C419.255 179.671 419.364 179.717 419.481 179.749L442.132 185.719C442.793 185.89 443.229 185.049 442.708 184.613L436.419 179.25C436.333 179.18 436.24 179.118 436.131 179.079C417.006 171.225 393.857 163.465 367.081 157.876C350.758 154.467 335.478 152.373 321.561 151.135C321.086 151.096 320.642 151.384 320.479 151.836L315.7 165.247C314.719 168.088 318.914 169.17 322.254 169.178L322.261 169.17Z" fill="#D3DCD7"/>
<path d="M312.997 288.465L317.753 288.379C318.648 288.364 319.364 287.632 319.364 286.745V252.301C319.364 251.974 319.629 251.71 319.956 251.71H343.627C343.953 251.71 344.218 251.974 344.218 252.301V288.029C344.218 288.558 344.856 288.815 345.23 288.442L349.784 283.779C349.908 283.655 350.079 283.592 350.251 283.6L388.874 287.624C389.123 287.648 389.325 287.811 389.395 288.052L400.246 326.528C400.433 327.182 401.39 327.057 401.398 326.372L402.052 260.568C402.052 260.256 401.81 259.992 401.499 259.976L360.626 256.785C357.723 256.614 355.365 254.372 355.069 251.476L351.527 217.64C351.208 214.566 353.208 211.732 356.213 211.016L364.962 208.915C364.962 208.915 365.016 208.907 365.048 208.899L387.434 206.969C394.167 206.393 400.261 210.962 401.585 217.586L408.512 252.224C408.512 252.224 408.52 252.294 408.52 252.333L409.073 329.236C409.073 329.587 409.384 329.859 409.742 329.812L417.285 328.808C417.425 328.793 417.557 328.723 417.65 328.614L422.764 322.846C422.897 322.69 423.107 322.62 423.302 322.659L443.508 326.107C443.859 326.17 444.185 325.897 444.193 325.539L444.543 299.16C444.559 298.662 445.143 298.405 445.516 298.732L450.514 301.627C450.623 301.721 450.77 301.775 450.918 301.767L507.359 302.125C507.67 302.118 507.935 302.351 507.966 302.663L509.46 319.071C509.507 319.616 510.208 319.802 510.527 319.359C511.492 318.012 512.457 316.673 513.422 315.327C513.492 315.226 513.531 315.101 513.531 314.977C513.453 309.847 513.173 302.6 512.27 293.968C511.002 281.779 509.328 266.919 507.499 266.733C482.622 264.211 434.604 258.046 428.221 258.404C427.948 258.419 427.699 258.233 427.629 257.968L411.291 197.278C411.182 196.865 411.532 196.476 411.953 196.546L485.097 207.988C485.603 208.066 485.961 207.498 485.673 207.078L477.866 195.62C477.78 195.495 477.656 195.41 477.508 195.379L419.565 182.115C419.503 182.099 419.449 182.076 419.394 182.045L414 178.807C413.906 178.752 413.805 178.721 413.696 178.721H321.396C314.741 178.721 309.378 184.185 309.51 190.841L311.355 286.861C311.371 287.764 312.118 288.481 313.021 288.465H312.997Z" fill="#D3DCD7"/>
<path d="M484.141 213.149L458.073 255.532C457.738 256.085 458.073 256.793 458.719 256.879L495.272 261.401C495.879 261.479 496.377 260.926 496.245 260.327L485.768 213.429C485.597 212.651 484.569 212.48 484.149 213.157L484.141 213.149Z" fill="#D3DCD7"/>
<path d="M492.404 213.546C492.544 213.896 492.918 214.083 493.284 213.989C495.027 213.538 499.55 212.752 503.613 215.429C505.419 216.62 506.539 218.115 507.201 219.212C507.333 219.438 507.582 219.57 507.839 219.57H508.439C508.867 219.57 509.209 219.212 509.194 218.784L508.906 212.705C508.89 212.363 508.649 212.082 508.314 212.005L491.54 208.3C490.948 208.167 490.45 208.759 490.684 209.319L492.412 213.546H492.404Z" fill="#D3DCD7"/>
<path d="M449.479 313.622C458.15 313.506 466.821 313.397 475.493 313.28C475.648 313.28 475.788 313.21 475.882 313.093C476.551 312.291 479.392 309.24 483.736 309.622C487.456 309.948 489.628 312.548 490.251 313.397C490.352 313.537 490.515 313.615 490.687 313.615C495.855 313.506 501.016 313.389 506.184 313.28C506.464 313.28 506.69 313.046 506.69 312.758V305.994C506.69 305.543 506.161 305.309 505.826 305.605L504.526 306.749C504.425 306.835 504.3 306.882 504.168 306.882L450.413 305.699C450.312 305.699 450.211 305.66 450.125 305.605L447.782 303.963C447.432 303.714 446.949 303.963 446.957 304.399C446.996 305.878 447.191 307.644 447.689 309.59C448.055 311.023 448.522 312.268 448.989 313.319C449.074 313.506 449.261 313.622 449.471 313.622H449.479Z" fill="#D3DCD7"/>
<path d="M456.69 326.325C456.69 326.325 456.729 326.325 456.745 326.325L472.118 327.26C472.476 327.283 472.748 326.956 472.655 326.606C472.351 325.5 472.079 324.037 472.086 322.317C472.086 320.643 472.367 319.219 472.662 318.137C472.756 317.802 472.499 317.475 472.149 317.483C466.49 317.592 460.831 317.709 455.172 317.818C455.079 317.818 454.993 317.794 454.908 317.755L449.28 314.642C448.914 314.44 448.478 314.728 448.509 315.14L448.992 321.196C449.296 323.157 448.922 325.049 456.682 326.318L456.69 326.325Z" fill="#D3DCD7"/>
<path d="M507.575 315.724C507.528 315.28 506.991 315.093 506.68 315.412L505.302 316.829C505.201 316.93 505.061 316.992 504.921 316.985L493.626 316.79C493.245 316.79 492.988 317.164 493.144 317.514C493.541 318.425 493.946 319.608 494.179 321.009C494.475 322.807 494.381 324.364 494.202 325.523C494.148 325.897 494.483 326.201 494.849 326.107C499.169 324.955 503.496 323.795 507.816 322.643C508.065 322.581 508.221 322.34 508.198 322.091L507.575 315.716V315.724Z" fill="#D3DCD7"/>
<path d="M451.081 332.622C462.025 341.612 469.949 338.865 484.1 339.635C485.734 339.721 487.369 339.425 488.856 338.748L507.747 330.123C508.012 329.999 508.128 329.688 507.996 329.423L506.33 325.982C506.214 325.733 505.926 325.624 505.669 325.726L492.226 331.034C492.117 331.081 492.024 331.159 491.961 331.268C491.409 332.248 489.595 334.965 486.816 335.938C481.772 337.596 478.052 336 475.296 332.824C475.211 332.731 475.102 332.669 474.969 332.653C468.665 331.883 462.36 331.112 456.055 330.341C455.969 330.334 455.891 330.302 455.829 330.256L450.489 326.628C450.24 326.465 449.906 326.535 449.75 326.784L449.174 327.726C449.01 327.991 448.956 328.31 449.026 328.613C449.306 329.812 449.68 331.478 451.065 332.614L451.081 332.622Z" fill="#D3DCD7"/>
<path d="M513.573 352.253C513.534 351.872 513.215 351.584 512.833 351.576C511.541 351.545 510.249 351.506 508.949 351.475C508.544 351.467 508.225 351.14 508.21 350.743L507.898 341.971C507.898 341.753 507.976 341.543 508.132 341.395L510.989 338.655C511.152 338.491 511.238 338.266 511.222 338.04L510.716 332.334C510.669 331.805 510.109 331.486 509.626 331.712L485.185 343.364C485.061 343.426 484.921 343.45 484.788 343.434L459.53 341.013C459.444 340.99 459.351 340.967 459.265 340.935L429.804 326.318C429.679 326.247 429.539 326.224 429.399 326.232L422.534 326.676C422.191 326.699 421.911 326.94 421.841 327.275L420.767 330.077C420.728 330.248 420.634 330.396 420.502 330.505L416.089 334.039C415.91 334.187 415.801 334.405 415.801 334.631V368.856C415.801 369.191 416.019 369.494 416.338 369.588C419.545 370.537 423.639 371.44 428.434 371.79C433.252 372.141 437.44 371.837 440.748 371.37C440.95 371.339 441.137 371.23 441.254 371.059C443.083 368.537 444.912 366.007 446.741 363.477C446.881 363.291 447.099 363.174 447.333 363.166L451.777 363.003C452.26 362.987 452.641 363.415 452.556 363.898L451.139 372.001C451.077 372.343 450.789 372.608 450.446 372.631L435.268 374.935C434.692 374.943 434.116 374.958 433.54 374.966L416.493 373.036C416.104 373.02 415.762 373.301 415.707 373.682L413.567 388.043C413.497 388.533 413.894 388.961 414.384 388.915C429.158 387.56 444.671 385.7 460.822 383.201C471.813 381.497 504.512 375.612 512.016 374.351C512.327 374.297 512.569 374.063 512.623 373.76C513.02 371.752 513.355 369.595 513.596 367.291C514.188 361.64 514.032 356.558 513.573 352.253ZM454.486 345.349L452.781 350.011C452.735 350.128 452.727 350.26 452.742 350.385L453.941 358.41C454.003 358.807 453.747 359.173 453.357 359.266L441.479 362.006C441.339 362.037 441.191 362.03 441.059 361.983L427.204 357.219C426.885 357.11 426.675 356.807 426.69 356.464L427.126 346.213C427.142 345.831 427.43 345.528 427.811 345.489L432.645 344.991C433.485 344.905 433.579 343.722 432.769 343.496C431.866 343.247 432.123 341.901 433.057 342.002L453.848 344.321C454.338 344.376 454.65 344.874 454.478 345.341L454.486 345.349ZM505.011 367.346L503.228 365.361C503.065 365.182 502.823 365.089 502.574 365.112L457.934 370.055C457.374 370.117 456.938 369.564 457.133 369.035L462.846 353.6C462.947 353.32 463.212 353.125 463.515 353.102L503.306 350.58C503.703 350.556 504.053 350.836 504.108 351.233L506.318 366.723C506.427 367.47 505.501 367.899 504.995 367.338L505.011 367.346ZM511.245 363.073C511.214 363.656 510.576 363.991 510.078 363.68L508.171 362.489C507.945 362.349 507.813 362.107 507.813 361.843V356.433C507.813 356.013 508.155 355.67 508.576 355.67H510.802C511.238 355.67 511.588 356.036 511.565 356.472L511.245 363.08V363.073Z" fill="#D3DCD7"/>
<path d="M297.185 322.659L298.337 316.378C298.462 315.685 297.917 315.055 297.209 315.086L7.89277 327.369C7.12996 327.4 6.47612 326.839 6.38271 326.084L2.61536 294.249C2.4986 293.283 3.04346 292.349 3.9386 291.976L20.8372 284.822C21.5378 284.527 22.2617 284.301 23.0089 284.153L293.908 229.861C295.379 229.565 296.422 228.242 296.368 226.74L293.667 158.554C293.589 156.631 291.783 155.261 289.915 155.697L0 223.151V337.705C0 338.577 0.435892 339.348 1.09752 339.815L1.05081 334C1.05081 333.362 1.54898 332.841 2.18725 332.817L296.142 323.554C296.656 323.539 297.092 323.165 297.185 322.652V322.659Z" fill="#D3DCD7"/>
</svg>
