<svg width="1160" height="681" viewBox="0 0 1160 681" fill="none" xmlns="http://www.w3.org/2000/svg">
<g clip-path="url(#clip0_1572_157497)">
<rect width="1160" height="681" fill="#EFF3F6"/>
<g opacity="0.1">
<path d="M26.9228 -274.38L161.254 5.31384L128.473 -309.794" fill="#6687AD"/>
<path d="M-59.8994 198.567L161.254 5.3136L26.9229 -274.38" fill="#809BBA"/>
<path d="M-59.9998 198.253L357.246 443.866L161.154 5" fill="#6687AD"/>
<path d="M161.267 5.31484L357.359 444.181L278.02 -105.496" fill="#537399"/>
<path d="M805.602 -24.9588L788.736 150.207L679.703 -38.8578L805.602 -24.9588Z" fill="#537399"/>
<path d="M444.298 273.204L621.98 -48.3772L278.017 -105.496" fill="#99AFC8"/>
<path d="M278.02 -105.496L444.301 273.204L357.36 444.181L278.02 -105.496Z" fill="#809BBA"/>
<path d="M504.277 409.339L444.298 273.205L621.98 -48.3762L504.277 409.339Z" fill="#537399"/>
<path d="M357.353 444.18L504.273 409.338L444.294 273.203" fill="#99AFC8"/>
<path d="M0.566525 413.906L8.16797 238.55L-59.8885 198.567" fill="#537399"/>
<path d="M0.56839 413.907L357.359 444.18L8.16983 238.551" fill="#99AFC8"/>
<path d="M161.255 5.31384L278.008 -105.497L128.474 -309.794" fill="#99AFC8"/>
<path d="M679.713 -38.8563L788.746 150.208L621.99 -48.3762L679.713 -38.8563Z" fill="#6687AD"/>
<path d="M621.99 -48.3762L788.746 150.208L504.287 409.339L621.99 -48.3762Z" fill="#809BBA"/>
<path d="M504.287 409.337L788.746 150.206L774.137 332.416L504.287 409.337Z" fill="#99AFC8"/>
<path d="M774.129 332.416L788.738 150.206L878.648 302.714L774.129 332.416Z" fill="#809BBA"/>
<path d="M788.738 150.206L805.604 -24.96L878.648 302.714L788.738 150.206Z" fill="#99AFC8"/>
<path d="M805.605 -24.9599L879.125 18.0699L878.65 302.714" fill="#809BBA"/>
<path d="M805.13 -24.9588L878.294 -69.5118L879.125 18.071" fill="#809BBA"/>
<path d="M633.969 702.549L504.27 409.337L357.349 444.18" fill="#6687AD"/>
<path d="M878.648 302.715L580.174 580.886L504.279 409.337L878.648 302.715Z" fill="#537399"/>
<path d="M878.648 302.715L633.978 702.549L580.174 580.885L878.648 302.715Z" fill="#99AFC8"/>
<path d="M542.879 617.442L408.785 745.96L357.357 444.18L542.879 617.442Z" fill="#537399"/>
<path d="M408.773 745.96L357.345 444.18L360.314 780.041" fill="#99AFC8"/>
<path d="M145.47 582.029L357.359 444.181L0.56839 413.908" fill="#6687AD"/>
<path d="M145.47 582.028L360.328 780.041L357.359 444.18" fill="#809BBA"/>
<path d="M-11.9081 679.512L145.465 582.029L0.563004 413.908" fill="#537399"/>
<path d="M-199.679 509.297L-8.10003 597.07L0.570312 413.908" fill="#6687AD"/>
<path d="M879.128 18.0707L1152.18 -67.9889L1212.16 156.109" fill="#537399"/>
<path d="M878.292 -69.512L1152.18 -67.9888L879.123 18.0708" fill="#99AFC8"/>
<path d="M879.128 18.0717L1212.16 156.11L1185.92 197.235" fill="#6687AD"/>
<path d="M879.126 18.0717L1185.91 197.236L878.651 302.716" fill="#99AFC8"/>
<path d="M878.651 302.715L1185.91 197.234L1037.57 436.564L878.651 302.715Z" fill="#6687AD"/>
<path d="M878.653 302.715L1037.57 436.564L786.961 836.97L878.653 302.715Z" fill="#537399"/>
<path d="M878.648 302.715L786.956 836.97L633.978 702.549L878.648 302.715Z" fill="#809BBA"/>
<path d="M1201.95 570.984L1037.56 436.564L1185.91 197.234" fill="#537399"/>
<path d="M1201.95 570.985L786.956 836.97L1037.56 436.565" fill="#809BBA"/>
<path d="M1353.74 692.079L914.757 922.841L1201.95 570.986" fill="#537399"/>
<path d="M1201.95 570.986L914.755 922.841L786.956 836.971" fill="#99AFC8"/>
<path d="M542.871 617.441L633.969 702.548L408.777 745.959L542.871 617.441Z" fill="#99AFC8"/>
<path d="M360.328 780.04L67.4364 630.388L145.47 582.027L360.328 780.04Z" fill="#6687AD"/>
<path d="M360.328 780.042L-11.9032 679.513L67.4365 630.39" fill="#99AFC8"/>
<path d="M206.406 1015.37L-166.775 903.609L-11.8964 679.511" fill="#537399"/>
<path d="M360.328 780.041L206.4 1015.37L-11.9032 679.511" fill="#6687AD"/>
</g>
</g>
<defs>
<clipPath id="clip0_1572_157497">
<rect width="1160" height="681" fill="white"/>
</clipPath>
</defs>
</svg>
