<svg width="561" height="473" viewBox="0 0 561 473" fill="none" xmlns="http://www.w3.org/2000/svg">
<path opacity="0.5" d="M279.988 472.064C410.222 472.064 515.797 366.404 515.797 236.064C515.797 105.725 410.222 0.0644531 279.988 0.0644531C149.755 0.0644531 44.1797 105.725 44.1797 236.064C44.1797 366.404 149.755 472.064 279.988 472.064Z" fill="#91A79A"/>
<path d="M122.427 392.65C127.857 388.811 128.847 388.718 132.404 384.938C137.733 379.262 139.52 375.674 141.341 369.739C141.693 368.591 142.482 366.101 144.773 364.022C148.708 360.459 150.831 361.491 154.498 361.096C156.344 360.904 157.829 360.476 159.004 359.931C168.478 355.547 168.511 344.406 168.973 339.879C169.686 333.391 170.978 331.563 173.353 326.45C175.384 322.082 177.691 318.528 179.78 315.753C180.502 314.797 181.35 313.967 182.239 313.171C184.077 311.52 185.042 309.072 184.773 306.599C184.438 303.547 182.944 302.692 179.311 300.077L172.103 294.15C171.297 293.488 170.768 292.557 170.609 291.535L170.324 289.665C170.181 288.76 169.745 287.913 169.073 287.293C165.717 284.166 162.184 281.232 159.013 277.921C158.14 277.015 157.368 275.892 154.926 275.515C152.669 275.171 152.493 275.423 150.663 275.867C147.03 276.755 143.128 277.3 139.411 277.745C138.857 277.812 138.371 277.325 138.488 276.781C138.605 276.219 138.547 275.64 138.295 275.129C137.875 274.291 136.994 273.746 136.021 273.696C135.576 273.679 135.274 273.243 135.367 272.807C136.298 268.691 137.657 265.824 138.219 261.398C138.488 259.042 138.505 258.397 138.429 257.701C137.959 253.074 132.79 250.718 132.321 250.508L117.619 242.301C116.017 241.404 114.708 240.072 113.843 238.454L110.957 233.021C110.294 231.772 109.337 230.699 108.171 229.903C103.262 226.533 98.3619 223.155 93.4531 219.785C92.8657 219.357 90.6337 217.848 87.5122 218.091C83.8453 218.385 83.0314 219.76 81.3364 221.327C80.556 222.048 78.861 223.297 76.3773 223.859C73.9103 224.421 71.7958 224.018 70.4784 223.607C70.1763 223.515 69.9665 223.507 69.7567 223.616C69.2952 223.859 68.733 223.599 68.5316 223.121L68.3554 222.702C68.1624 222.241 68.0617 221.746 68.045 221.252L67.8016 207.948C67.7093 201.87 66.4171 203.228 64.6969 201.543C64.227 201.082 64.034 199.959 63.9669 198.676C63.9165 197.738 64.2941 197.1 64.5794 196.589C66.8954 192.356 66.9793 187.904 68.0533 182.975C68.2547 182.07 68.3806 181.458 67.8436 180.98C67.273 180.477 66.4506 180.661 65.7542 181.122C62.2971 183.403 61.3573 185.7 59.9727 189.43C59.763 189.824 58.8232 191.442 56.8009 192.104C56.2975 192.272 55.8192 192.347 55.3828 192.372C54.4934 192.423 53.864 191.517 54.2333 190.704L69.8826 157.038C70.2098 156.326 71.1329 156.133 71.7202 156.636C71.9804 156.854 72.2405 157.08 72.5006 157.298C73.1971 157.893 74.2879 157.558 74.5229 156.669C74.5816 156.451 74.6403 156.267 74.7075 156.091C75.9242 153.014 80.2456 151.187 85.4732 151.598C87.0927 151.715 88.6786 152.503 91.3721 151.195C93.1091 150.349 94.1412 149.074 95.3998 147.582C110.336 133.071 123.619 120.178 138.564 105.667C139.948 103.924 142.356 102.323 144.479 103.169C146.283 103.89 147.424 105.818 147.265 107.855C147.215 108.543 147.727 109.138 148.406 109.205C150.823 109.465 150.957 109.666 153.357 110.068C158.71 110.957 160.724 110.203 161.345 108.476C161.815 107.168 161.018 106.246 159.633 104.343C157.737 101.744 155.455 99.4639 153.357 97.0161C153.13 96.8401 150.319 94.5348 150.823 92.5815C151.31 90.6786 157.301 89.5637 160.64 90.9385L164.702 93.2354C167.026 94.694 169.124 94.4006 169.174 93.9144C169.317 92.6486 166.699 91.2822 168.293 90.8127C170.013 90.3097 175.308 89.3876 180.166 87.2919C184.454 85.4392 187.718 83.1171 190.068 81.2394C191.243 79.8729 194.054 77.9281 189.078 78.4897C187.249 78.6323 184.647 77.1569 183.582 74.0216C182.759 71.6073 183.372 69.2685 186.191 66.3596C186.518 66.0243 186.2 65.4626 185.738 65.5213L173.965 67.9021C173.068 68.0446 172.514 67.8182 172.589 66.9129L172.816 64.2052C172.975 62.4028 172.321 61.4053 171.213 60.8184C169.694 60.0221 167.588 60.4999 165.927 61.8244C164.291 63.0902 164.677 62.6795 162.864 64.1632C161.253 65.4878 159.457 68.1284 158.182 68.7655C157.208 69.2349 156.126 69.4026 155.06 69.2601L153.156 69.0086C152.778 68.9583 152.409 69.1846 152.291 69.5451L151.57 71.6744C151.1 73.0576 150.202 74.2563 149.01 75.103C145.444 77.6263 138.32 82.3375 137.33 82.9998C136.474 83.5698 135.769 84.3327 135.257 85.2213C133.143 88.8762 131.431 91.6762 130.919 91.4666C130.256 91.19 129.224 89.2619 132.715 81.4154C132.824 81.1639 132.623 80.8957 132.354 80.9376C127.521 81.7172 123.963 79.3951 123.686 77.2239C123.46 75.4383 125.373 73.2252 128.201 71.9426C139.176 66.6865 151.738 63.9118 161.119 56.1659C161.933 55.4953 162.503 54.6653 162.243 53.3492C161.924 51.7062 160.338 49.7194 156.462 50.8846L130.315 64.8171C129.56 65.2195 128.654 65.2195 127.898 64.8255L121.202 61.3214C82.9811 96.0185 56.1968 143.072 47.168 196.162L51.1034 194.133C51.5901 197.327 52.0767 200.521 52.5634 203.715C52.6809 204.477 53.3354 205.031 54.1074 205.064C54.2584 205.064 54.3927 205.089 54.5185 205.106C55.1059 205.198 58.1015 206.867 58.6218 210.287C59.4189 215.359 60.3587 218.846 62.2887 223.146C64.4032 227.874 66.652 230.699 68.6995 232.72C69.8826 233.885 70.3609 235.595 69.9246 237.196C65.5276 248.312 70.4196 246.811 65.7626 252.537C65.4269 252.906 63.262 255.354 63.8326 258.455C64.0256 259.512 64.4704 260.316 64.8228 260.803C65.6871 262.035 66.0227 262.58 65.9052 263.762C65.771 265.103 64.5375 265.883 64.2606 266.059C62.2551 267.668 60.2916 269.236 60.5349 274.106C60.686 277.082 62.2132 279.178 63.3627 280.36C64.3109 281.324 65.0577 282.473 65.578 283.722C67.2226 287.678 68.8757 291.627 70.5203 295.584C70.9567 296.631 71.1916 297.755 71.2336 298.895C71.3426 301.963 71.8377 305.886 73.3145 310.203C75.857 317.639 80.1029 322.728 83.0482 325.637C83.9796 326.559 84.1474 327.741 84.4579 328.361C86.7487 334.673 87.6717 333.701 88.2255 338.622C88.6115 342.05 87.9905 345.353 87.571 347.189C86.3962 353.87 86.6396 356.662 87.8647 363.083C89.4422 371.374 94.2587 380.52 98.1186 386.48C104.949 394.704 112.325 402.458 120.195 409.684C120.078 403.489 117.712 395.961 122.419 392.633L122.427 392.65Z" fill="#7B9586"/>
<path d="M198.42 44.0197C196.347 43.718 194.946 44.0197 193.83 44.3132C193.394 44.4305 192.941 44.4473 192.496 44.3886C191.246 44.2209 188.51 44.1287 186.647 46.0484C185.917 46.8029 185.54 47.6496 185.33 48.3034L183.157 52.277C182.813 52.9057 182.225 53.3584 181.529 53.5177C180.211 53.8111 179.783 54.4566 179.691 54.5991C178.751 56.108 179.951 59.2516 183.417 61.6827C189.165 62.5377 190.239 62.3868 193.352 62.0934C194.141 62.018 194.879 61.6575 195.416 61.0791L203.169 52.7716C203.539 52.3692 203.807 51.883 203.924 51.3548C204.05 50.7932 204.143 50.1477 204.176 49.4351C204.243 47.8759 204.655 47.1131 203.706 45.7299C202.666 45.185 200.509 44.3299 198.42 44.0281V44.0197Z" fill="#7B9586"/>
<path d="M254.636 61.2973C254.745 61.3141 254.846 61.3476 254.955 61.3812C256.045 61.7836 257.69 62.2111 259.662 62.1021C263.883 61.8674 266.727 59.3441 267.776 58.2795C267.952 58.0951 268.171 57.9609 268.405 57.8687C278.542 53.8868 279.65 56.3514 283.325 56.9801C284.919 57.2568 286.438 57.9442 288.049 58.1034C292.672 58.5561 295.819 58.6483 298.001 58.5561C300.099 58.4639 301.198 55.9993 299.855 54.3898C298.999 53.3671 298.278 51.9922 298.043 50.1899C298.034 50.1145 298.026 50.039 298.026 49.9636C298.009 48.572 299.671 47.7756 300.82 48.572C301.189 48.8235 301.643 49.075 302.18 49.2678C304.328 50.0139 306.266 49.2091 306.879 48.9157C306.937 48.8822 307.004 48.857 307.072 48.8319C313.684 46.4092 321.11 45.2104 327.151 41.9243C327.856 41.5387 327.655 40.474 326.866 40.3567C319.18 38.9567 311.284 37.6322 303.178 36.4083C294.242 35.0503 285.507 33.8766 276.99 32.8623C274.967 32.6192 272.945 32.4683 270.914 32.3761C261.03 31.9234 250.625 31.7557 239.742 31.9737C233.784 32.0911 227.986 32.3174 222.347 32.6276C220.568 32.7282 219.2 34.2203 219.251 35.9892L219.544 46.8451C219.569 47.7588 220.266 48.5133 221.172 48.6223C229.664 49.6031 233.927 50.718 233.96 51.9671C233.994 53.1323 230.335 54.4065 222.976 55.7981C222.834 55.8233 222.683 55.8652 222.548 55.9322C218.244 57.8855 218.269 62.5129 219.259 65.3463C220.719 69.5127 227.994 72.4718 235.789 68.9678C235.924 68.9091 236.058 68.8253 236.175 68.733C246.975 60.3082 249.643 60.4255 254.653 61.3141L254.636 61.2973Z" fill="#7B9586"/>
<path d="M194.312 93.1347L189.613 90.2007C189.152 89.2367 188.539 88.7588 188.179 88.5241C186.584 88.2056 184.428 88.3397 182.07 89.354C178.806 90.5025 177.018 89.4043 175.634 90.9049C174.333 92.3132 173.595 92.9755 173.192 93.7216C171.145 94.0736 169.878 94.1659 169.81 95.155C169.769 95.7419 170.423 96.1862 172.563 97.9466C177.169 102.549 178.898 100.386 181.516 98.7933C184.596 96.9155 184.931 95.7502 188.296 95.0125C189.118 94.8281 189.899 94.7443 190.595 94.7191C191.015 94.7024 191.426 94.6521 191.837 94.5515C192.617 94.3587 193.398 94.1742 194.187 93.9814C194.589 93.8808 194.673 93.3527 194.321 93.1347H194.312Z" fill="#7B9586"/>
<path d="M478.369 108.016H472.546C466.781 107.781 461.696 101.796 460.093 99.7084C459.632 99.1048 459.112 98.5432 458.541 98.0402C456.653 96.3804 453.548 94.1589 449.21 92.8679C445.401 91.7362 442.086 91.7613 439.98 91.9541C438.612 92.1134 435.499 92.3901 435.256 91.6021C434.996 90.7638 442.397 86.1699 445.828 83.8981C446.173 83.6718 445.996 83.1353 445.585 83.1604L437.832 83.5796C437.035 83.6215 435.239 83.3364 434.593 82.8754C434.593 82.8754 422.292 76.1522 409.713 63.6197C407.641 61.5575 405.274 61.0461 399.107 66.3274C392.83 73.1595 385.723 74.7607 383.575 70.6027C382.543 68.6159 378.809 69.0016 378.809 69.0016C368.589 70.0578 365.786 78.3905 366.919 81.5341C368.219 85.1304 374.253 84.6777 376.971 85.1975C380.781 86.5136 381.838 89.0285 381.2 90.6883C380.596 92.2559 379.27 92.3649 377.257 92.5158C367.422 93.2535 360.206 92.7421 351.387 92.7924C350.875 92.7924 350.38 92.9266 349.935 93.1864L340.797 98.4509C340.235 98.7695 340.143 99.5324 340.588 99.9934C341.116 100.547 341.704 101.326 342.115 102.374C342.979 104.596 342.593 106.599 342.291 107.161C339.22 112.861 338.238 116.642 338.8 121.42C338.842 121.798 338.481 122.091 338.129 121.965C337.047 120.808 328.849 112.283 321.146 114.588H321.12C319.761 115.007 318.502 115.888 318.293 117.455C315.389 139.368 315.691 142.956 321.221 145.731C322.303 146.276 324.552 147.005 328.521 145.664C329.226 145.421 329.973 145.32 330.72 145.32H337.55C338.112 145.32 338.624 145.01 338.876 144.507C339.799 142.671 341.318 140.232 343.776 137.926C347.997 133.961 352.604 132.586 354.844 132.083C363.94 130.533 362.446 128.252 369.679 129.476C373.749 130.164 377.223 131.379 378.524 133.064C383.953 140.106 387.544 143.015 392.058 147.994C392.319 148.372 393.728 149.486 394.525 149.788C396.17 150.417 397.404 147.676 399.216 146.863C400.945 146.091 401.415 147.525 401.792 147.986L406.021 154.038C406.55 155.48 407.037 156.084 408.136 156.327C409.285 156.578 409.898 154.977 411.098 155.028C412.793 155.095 412.222 154.994 413.355 156.293C413.951 158.339 414.11 158.532 415.008 158.548C415.931 158.565 416.703 157.576 416.737 156.293C416.795 154.038 419.422 154.097 422.585 155.17C425.749 156.143 429.206 155.103 431.295 152.563C433.426 149.956 433.72 146.276 432.034 143.342C429.65 135.998 437.781 135.487 440.282 138.262C443.32 143.124 445.317 145.362 446.273 144.985C446.659 144.834 446.869 144.188 446.911 143.182C446.945 142.411 447.213 141.648 447.767 141.104C448.48 140.391 449.571 140.139 450.712 143.753L456.494 158.255C457.198 160.016 457.551 161.415 456.636 162.061C455.881 162.589 454.916 161.6 453.532 161.357C425.967 156.486 420.806 162.581 435.633 169.371C437.077 170.033 438.654 170.352 440.24 170.343C442.002 170.335 444.587 170.712 446.34 172.699C447.104 173.562 447.515 174.51 447.75 175.306C447.96 179.875 448.17 184.452 448.388 189.021C448.43 189.834 447.775 190.521 446.961 190.521H432.403C431.866 190.521 431.455 190.982 431.505 191.51L432.176 197.974C432.227 198.426 432.461 198.837 432.839 199.097L443.806 206.801C448.505 209.986 463.869 251.817 463.869 251.817C466.697 260.41 467.477 261.944 468.484 261.994C469.34 262.036 469.349 259.957 470.884 258.968C475.466 256.009 478.025 256.529 483.194 255.238C489.311 253.528 494.094 248.942 495.487 243.191C497.333 235.546 492.802 227.213 484.604 223.408C478.075 220.373 474.056 218.965 475.608 211.78C476.875 209.542 480.92 206.742 485.971 211.923C489.034 215.066 491.4 218.864 493.666 220.105C494.488 220.557 495.252 221.102 495.848 221.815C496.695 222.829 497.593 223.793 498.583 224.673C499.708 225.679 500.899 226.912 502.049 228.404C505.707 233.174 506.941 238.069 507.402 240.894C508.468 256.244 509.542 271.601 510.608 286.95C514.232 270.528 516.137 253.469 516.137 235.965C516.137 188.794 502.275 144.851 478.403 107.991L478.369 108.016Z" fill="#7B9586"/>
<path d="M416.922 343.358C417.376 341.715 417.996 340.122 418.727 338.588C421.512 332.736 423.744 328.755 424.466 328.252C425.809 327.321 426.295 328.042 428.804 326.91C431.103 325.175 433.025 322.836 435.324 321.101C439.914 317.588 447.734 310.463 451.536 299.029C452.492 296.162 453.331 295.617 453.365 290.964C453.13 289.925 452.945 288.357 453.398 286.597C453.902 284.652 454.934 283.378 455.479 282.791C456.679 281.466 457.753 279.488 459.163 277.283C460.011 275.959 460.413 275.112 460.204 274.659C459.339 273.31 458.408 274.416 453.793 273.779C453.08 273.595 452.4 273.368 451.745 273.108C441.324 268.934 442.868 256.175 436.793 249.837C436.079 249.25 435.106 248.286 434.267 246.903C432.094 243.34 432.446 239.644 432.647 238.285C432.891 236.156 433.251 232.233 432.387 228.192C431.598 224.512 430.936 223.104 429.324 220.312C428.804 219.407 428.435 218.418 428.25 217.387C426.983 210.429 424.315 205.751 424.542 204.234C424.676 203.328 425.104 202.482 425.733 201.811C426.119 201.4 426.539 200.948 426.849 200.612C427.059 200.378 427.227 200.109 427.319 199.808C427.999 197.662 428.099 195.926 427.99 194.837C427.906 193.931 427.713 193.126 427.495 192.439C427.092 191.207 426.094 190.259 424.844 189.899C416.62 187.552 411.057 184.785 402.834 182.438C402.053 182.212 401.332 181.818 400.719 181.273C399.998 180.979 399.117 180.535 398.21 179.848C396.566 178.607 395.618 177.165 395.106 176.235C393.755 174.273 392.421 173.284 391.43 175.447C390.449 177.593 389.509 179.613 389.509 179.613C388.619 181.399 388.745 183.352 387.956 183.888C386.715 184.727 385.531 184.165 383.023 182.53C381.202 181.34 379.666 180.644 378.76 179.94C376.461 178.146 373.818 175.363 372.458 171.381C372.324 170.979 372.139 170.601 371.837 170.325C371.225 169.763 370.285 169.621 369.446 169.939C368.439 170.316 367.314 170.316 366.274 170.048C366.249 170.048 366.232 170.04 366.207 170.031C365.217 169.771 364.092 169.344 362.959 168.631C360.887 167.332 359.586 165.614 358.789 164.13C358.286 163.208 358.009 162.176 357.958 161.129C357.833 158.287 356.901 151.58 349.911 151.983L331.333 151.782L312.814 151.119C304.449 151.027 301.537 148.428 293.733 155.378C291.132 157.692 289.596 160.349 288.682 162.596C287.675 165.06 285.543 166.879 282.951 167.491C278.419 168.548 271.53 171.289 267.008 178.372C263.097 184.5 262.913 190.813 263.341 194.769C263.567 196.874 262.518 198.927 260.647 199.908C257.719 201.442 255.705 203.714 255.31 206.321C255.268 206.581 255.243 206.874 255.235 207.193C255.218 208.501 254.924 209.792 254.287 210.932C252.525 214.117 250.561 218.904 250.444 224.839C250.41 226.415 250.519 227.874 250.695 229.207C250.855 230.372 250.939 231.554 250.939 232.728V254.113C250.939 255.404 251.56 256.619 252.608 257.374L271.799 271.239C272.63 271.692 275.046 272.874 278.21 272.438C282.288 271.876 282.967 269.571 285.048 268.422C292.323 264.34 294.916 265.337 297.383 265.773C304.474 267.4 313.477 270.283 318.881 268.984C319.854 268.732 320.836 269.051 321.348 269.755C321.776 270.35 321.726 271.021 321.701 271.231C321.659 271.524 321.214 275.305 324.1 277.828C326.299 279.748 329.236 279.035 332.273 278.834C332.945 278.792 336.905 279.446 338.76 283.344C340.094 286.152 339.565 288.717 339.045 289.396C335.705 293.814 334.707 297.888 336.158 299.397C336.469 299.716 337.09 299.699 338.34 300.102C338.978 300.303 339.263 300.781 339.188 301.862C339.12 302.767 338.432 303.27 338.34 303.337C337.266 304.134 336.813 305.525 337.216 306.791C337.602 308.023 338.995 308.191 340.035 308.971C341.545 310.102 341.789 311.561 342.007 314.185C342.183 316.306 341.646 317.966 341.302 318.829C339.07 322.057 335.982 327.388 334.254 334.606C333.389 338.236 333.054 341.572 332.987 344.422C332.919 347.574 332.676 350.726 332.139 353.836C331.552 357.181 331.166 361.121 331.292 365.522C331.426 370.091 332.08 374.065 332.844 377.284C334.866 388.835 336.888 400.379 338.902 411.93C339.464 414.638 339.641 415.87 341.227 417.279C343.643 419.131 347.579 418.821 350.322 416.155C363.396 405.417 370.016 403.983 373.507 403.237C375.873 402.734 378.122 402.466 380.211 402.349C380.572 402.324 383.979 401.997 385.917 398.895C387.822 395.844 386.689 392.7 386.555 392.348C386.186 391.719 386.169 390.948 386.522 390.344C386.941 389.615 387.789 389.447 388.67 389.397C391.028 389.254 391.816 388.316 393.671 386.119C395.693 383.738 396.054 381.173 396.138 380.243C396.146 379.421 396.23 378.13 396.599 376.613C397.698 372.069 400.501 369.11 402.062 367.702C415.454 353.937 415.739 347.205 416.335 345.344C416.553 344.665 416.746 344.003 416.931 343.333L416.922 343.358Z" fill="#7B9586"/>
<path d="M457.783 357.727L457.85 355.773C457.867 355.354 457.397 355.094 457.053 355.337L454.418 357.157C454.066 357.4 453.579 357.358 453.269 357.056L450.265 354.105C449.98 353.82 449.484 353.988 449.434 354.39C448.989 357.517 449.325 359.94 448.092 363.779C447.37 366.017 445.834 368.75 443.653 371.668C441.832 374.09 439.961 375.943 438.366 377.301C438.366 377.301 417.783 390.823 417.783 391.384C415.845 392.415 414.762 394.553 415.106 396.666C415.417 398.619 416.885 400.228 418.84 400.748C423.95 401.486 426.526 400.253 429.765 396.942C430.109 396.59 431.066 395.827 432.518 395.601C434.506 395.299 435.958 396.339 436.327 396.515C438.761 397.713 442.05 397.504 446.128 394.469C450.298 391.367 451.943 384.577 450.29 379.891C449.954 378.944 450.214 376.186 451.909 373.411C453.428 370.921 454.796 369.681 456.424 369.253C458.287 368.767 460.032 367.987 460.586 366.227C460.972 364.978 460.552 362.606 459.042 360.971C458.22 360.082 457.758 358.917 457.8 357.71L457.783 357.727Z" fill="#7B9586"/>
<path d="M560.112 393.364L557.504 362.471C557.395 361.186 556.841 359.984 555.927 359.077L553.352 356.498C551.8 354.944 551.574 352.507 552.815 350.692L557.638 343.627C558.485 342.383 558.862 340.88 558.686 339.384C559.651 319.783 555.977 296.251 553.1 289.967C552.933 289.605 552.505 288.16 551.641 286.925C551.624 286.9 551.608 286.883 551.591 286.866L549.242 284.514C548.865 284.136 548.588 283.657 548.454 283.136L538.18 243.473C537.987 242.717 538.867 242.145 539.471 242.633L545.628 247.564C548.077 249.816 552.815 250.824 553.293 244.33C553.495 241.566 553.998 237.642 554.199 234.886C554.627 229.913 554.728 228.804 553.293 227.964C546.676 224.124 538.784 223.166 531.487 220.873C531.134 220.764 530.816 220.57 530.556 220.318L530.455 220.167C529.809 218.445 529.683 213.547 520.265 208.313C519.46 207.867 518.612 207.472 517.74 207.153C506.006 202.784 501.679 201.104 486.297 198.71C485.273 198.55 484.309 198.088 483.546 197.391L478.698 192.988C476.953 191.4 474.957 190.107 472.777 189.191C432.577 172.304 382.43 160.046 345.224 157.845C343.597 157.753 342.138 158.819 341.752 160.407C341.744 160.449 341.735 160.491 341.719 160.533C341.576 161.138 340.863 161.626 340.351 161.264C335.604 157.963 327.678 155.686 323.837 154.904C322.831 154.703 321.791 154.72 320.793 154.963C214.779 181.083 114.787 205.733 2.90196 233.299C1.20775 233.719 0 235.256 0 237.02V363.95C0 365.496 1.24969 366.748 2.79293 366.748H4.21036C6.06393 366.748 7.56523 368.252 7.56523 370.108V383.206C7.56523 384.5 8.59685 385.55 9.88848 385.575L55.9173 386.407C57.016 386.424 57.9554 387.197 58.1818 388.272L59.6076 394.926C59.9851 396.287 60.4967 398.161 62.4341 399.673C64.5057 401.286 66.9045 400.656 67.9109 400.278C70.7626 406.109 75.04 409.956 79.8543 410.351C79.8962 410.36 79.9297 410.385 79.9717 410.385H80.3659C80.4665 410.385 80.5756 410.385 80.6762 410.385C80.9614 410.385 81.2549 410.368 81.5401 410.351L92.1582 410.133C93.735 410.099 95.2363 409.469 96.3686 408.369C98.2641 406.52 100.982 403.42 103.045 399.572C105.88 406.268 110.535 410.889 115.911 411.696C115.944 411.696 115.969 411.721 116.003 411.721H116.137C116.615 411.788 117.102 411.822 117.597 411.822C118.041 411.822 118.477 411.788 118.913 411.738L130.899 411.813C132.425 411.822 133.91 411.309 135.075 410.326C137.902 407.957 142.28 402.849 144.997 392.372C145.048 392.187 145.207 392.061 145.4 392.061C162.116 392.557 179.553 393.061 196.268 393.557C196.486 393.557 196.662 393.742 196.662 393.968V402.866C196.662 403.092 196.839 403.269 197.065 403.277L244.956 404.168C245.182 404.168 245.375 403.991 245.375 403.756V391.566C245.375 391.33 245.568 391.146 245.803 391.154L277.859 392.389C278.077 392.397 278.253 392.582 278.253 392.801V404.731C278.253 404.958 278.429 405.134 278.655 405.142L341.165 406.142C341.391 406.142 341.584 405.957 341.584 405.73V396.136C341.584 395.884 341.819 395.691 342.062 395.733L343.664 396.027C343.715 396.035 343.748 396.069 343.799 396.102C343.799 396.245 343.79 396.388 343.79 396.531C343.79 416.325 356.446 433.262 374.806 433.262C374.898 433.262 375.141 433.271 375.167 433.271L399.112 432.372C400.966 432.372 402.752 431.716 404.161 430.506C405.595 429.28 410.116 425.39 412.607 420.996C413.127 420.089 414.083 419.517 415.131 419.534C423.544 419.702 431.386 419.862 439.756 420.03C441.249 420.063 442.398 421.307 442.432 422.802C442.457 424.138 443.656 425.146 444.981 424.936L503.616 415.711C503.616 415.711 504.95 422.357 507.776 422.374L521.783 421.5C524.072 421.357 526.136 420.08 527.327 418.123C529.021 415.317 529.625 412.763 530.019 411.57C538.155 410.292 546.298 409.007 554.434 407.73C559.357 406.915 560.817 405.504 560.162 393.38L560.112 393.364Z" fill="#566B5F"/>
<path d="M66.2301 360.807H37.3446C36.9588 360.807 36.6233 361.042 36.4807 361.403L33.2601 369.892C33.0923 370.345 32.6562 370.638 32.1697 370.638H30.3497C29.9052 370.638 29.5362 370.269 29.5445 369.825L29.7291 359.449C29.7291 359.256 29.5781 359.088 29.3768 359.088H27.0452C26.8523 359.088 26.7013 359.239 26.6929 359.423L26.3323 369.841C26.3155 370.286 25.9548 370.63 25.5103 370.63H10.925C10.5224 370.63 10.1953 370.957 10.1953 371.36V379.655C10.1953 380.05 10.5056 380.368 10.8998 380.385L59.1848 382.147C59.5874 382.163 59.9229 381.853 59.9397 381.45L60.4681 370.848C60.4932 370.37 60.1074 369.967 59.6294 369.967H52.9951C52.5925 369.967 52.3158 369.556 52.4751 369.187L54.9242 363.475C55.0751 363.131 55.4106 362.913 55.7797 362.913H66.2301C66.4146 362.913 66.5572 362.77 66.5572 362.586V361.126C66.5572 360.942 66.4146 360.799 66.2301 360.799V360.807ZM52.2319 363.324L49.6654 369.64C49.4809 370.093 49.0448 370.395 48.5499 370.403L35.9691 370.63C35.6504 370.63 35.424 370.311 35.5414 370.009L38.3343 363.148C38.4769 362.804 38.8124 362.577 39.1814 362.577H51.7203C52.1061 362.577 52.3745 362.972 52.2235 363.332L52.2319 363.324Z" fill="#91A79A"/>
<path d="M79.1481 399.46C84.1832 399.46 88.265 391.874 88.265 382.516C88.265 373.158 84.1832 365.572 79.1481 365.572C74.113 365.572 70.0312 373.158 70.0312 382.516C70.0312 391.874 74.113 399.46 79.1481 399.46Z" fill="#91A79A"/>
<path d="M116.547 401.992C121.582 401.992 125.663 394.072 125.663 384.302C125.663 374.532 121.582 366.611 116.547 366.611C111.511 366.611 107.43 374.532 107.43 384.302C107.43 394.072 111.511 401.992 116.547 401.992Z" fill="#91A79A"/>
<path d="M99.8128 388.044H96.2818C95.9631 388.044 95.7031 388.262 95.636 388.564C95.1076 391.005 94.1934 394.025 92.5663 397.271C90.1592 402.086 87.1398 405.508 84.7914 407.722C84.5146 407.982 84.6907 408.444 85.0682 408.461L92.3063 408.804C92.5076 408.813 92.7005 408.763 92.8682 408.653C94.0592 407.882 95.5773 406.724 97.0535 405.03C98.538 403.335 99.4941 401.649 100.115 400.299C100.358 399.762 100.484 399.183 100.484 398.588V388.698C100.484 388.329 100.182 388.027 99.8128 388.027V388.044Z" fill="#91A79A"/>
<path d="M142.221 392.28H135.016C134.773 392.28 134.563 392.448 134.504 392.682C134.01 394.889 133.162 397.623 131.636 400.567C129.48 404.736 126.788 407.747 124.641 409.744C124.297 410.062 124.515 410.624 124.977 410.641L130.957 410.91C131.057 410.91 131.158 410.893 131.242 410.843C135.628 408.41 140.862 400.399 142.732 392.917C142.816 392.59 142.556 392.271 142.221 392.271V392.28Z" fill="#91A79A"/>
<path d="M197.293 363.367L155.903 362.486C155.45 362.478 155.047 362.755 154.888 363.174L149.612 377.383C149.486 377.727 149.168 377.962 148.799 377.979L144.085 378.214C143.716 378.231 143.397 377.945 143.389 377.568L142.919 361.362C142.911 361.018 142.634 360.75 142.29 360.75H139.145C138.793 360.75 138.516 361.035 138.516 361.379L138.566 377.484C138.566 377.736 138.365 377.937 138.113 377.937H134.012C133.643 377.937 133.358 378.264 133.408 378.633L134.155 383.859C134.197 384.153 134.44 384.371 134.742 384.379L195.817 386.157C196.161 386.166 196.446 385.889 196.446 385.545V379.74C196.446 379.405 196.178 379.137 195.842 379.128L177.625 378.986C177.332 378.986 177.122 378.7 177.214 378.424L180.636 367.469C180.745 367.108 181.072 366.865 181.45 366.856L197.302 366.555C197.671 366.555 197.964 366.244 197.964 365.883V364.005C197.964 363.635 197.671 363.342 197.302 363.334L197.293 363.367ZM176.325 367.377L172.962 378.147C172.828 378.566 172.434 378.851 171.998 378.843L153.999 378.356C153.571 378.348 153.277 377.92 153.42 377.518L157.068 367.192C157.194 366.823 157.546 366.58 157.932 366.58H175.738C176.149 366.58 176.443 366.982 176.325 367.377Z" fill="#91A79A"/>
<path d="M241.664 374.27H205.893C205.775 374.27 205.658 374.303 205.574 374.37C204.308 375.352 200.047 380.527 200.047 389.016V397.555C200.047 397.857 200.29 398.1 200.584 398.108L236.69 399.132C237.051 399.14 237.328 398.821 237.252 398.469C236.649 395.634 236.011 390.635 237.563 384.78C238.703 380.477 240.607 377.247 242.125 375.142C242.394 374.773 242.125 374.27 241.672 374.27H241.664Z" fill="#91A79A"/>
<path d="M275.634 381.307H262.5C262.131 381.307 261.829 381.014 261.821 380.645L261.393 360.27C261.393 359.901 261.082 359.607 260.713 359.607H257.669C257.3 359.607 256.99 359.909 256.99 360.278L256.78 380.636C256.78 381.005 256.47 381.307 256.101 381.307H245.507C245.13 381.307 244.828 381.609 244.828 381.987V388.135C244.828 388.504 245.122 388.806 245.482 388.814L275.24 389.897C275.609 389.913 275.928 389.62 275.945 389.251L276.322 382.012C276.339 381.626 276.028 381.299 275.643 381.299L275.634 381.307Z" fill="#91A79A"/>
<path d="M341.01 369.733C323.607 369.138 306.404 368.324 289.597 368.324C289.42 368.324 289.253 368.383 289.11 368.492C287.315 369.859 281.746 376.268 281.746 388.003V400.576C281.746 401.012 282.098 401.373 282.534 401.373L334.074 401.994C334.585 401.994 334.971 401.532 334.862 401.029C334.007 397.087 333.118 390.141 335.298 382.022C336.867 376.175 339.475 373.474 341.589 371.067C342.033 370.564 341.689 369.767 341.018 369.742L341.01 369.733Z" fill="#91A79A"/>
<path d="M375.274 421.177C387.303 421.177 397.055 410.327 397.055 396.944C397.055 383.56 387.303 372.711 375.274 372.711C363.244 372.711 353.492 383.56 353.492 396.944C353.492 410.327 363.244 421.177 375.274 421.177Z" fill="#91A79A"/>
<path d="M412.395 370.789L408.327 356.571C407.597 353.576 403.638 335.467 380.574 331.835C365.703 329.964 355.186 330.165 340.055 330.904C339.728 330.92 339.426 331.13 339.309 331.44L331.903 350.632C331.727 351.102 331.987 351.614 332.473 351.739L348.946 356C349.239 356.076 349.55 355.984 349.759 355.766C354.288 351.06 358.759 349.215 361.518 348.409C374.157 344.719 389.456 351.546 400.057 365.588C400.124 365.68 400.216 365.756 400.317 365.814C403.94 367.794 407.564 369.774 411.195 371.753C411.849 372.105 412.604 371.502 412.403 370.789H412.395Z" fill="#91A79A"/>
<path d="M445.815 386.961C445.379 384.948 444.473 382.683 442.737 382.591C433.327 382.113 423.891 382.524 414.464 382.515C414.187 382.515 413.935 382.339 413.852 382.071L411.738 375.872C411.646 375.595 411.377 375.411 411.084 375.436L403.485 375.956C403.091 375.981 402.814 376.359 402.898 376.744L411.176 414.314C411.243 414.608 411.495 414.818 411.797 414.826L441.177 415.262C441.437 415.262 441.68 415.111 441.781 414.868L443.198 411.546C443.383 411.119 443.072 410.649 442.611 410.64L415.881 410.238C415.613 410.238 415.37 410.07 415.277 409.81C414.086 406.354 411.327 391.08 414.254 388.538C414.372 388.437 414.531 388.395 414.69 388.404C424.243 388.89 433.796 389.377 443.349 389.855C444.926 389.939 446.142 388.496 445.815 386.953V386.961Z" fill="#91A79A"/>
<path d="M347.242 182.302C347.242 182.302 347.301 182.302 347.335 182.302L373.226 180.675C373.561 180.65 373.872 180.482 374.073 180.213L377.193 175.952C377.696 175.265 378.744 175.357 379.122 176.12L385.396 188.794C385.588 189.18 385.974 189.424 386.402 189.424L446.169 190.019C446.395 190.019 446.614 190.095 446.798 190.22L451.646 193.542C451.755 193.618 451.872 193.668 451.998 193.701L476.405 200.135C477.118 200.32 477.587 199.414 477.026 198.944L470.249 193.165C470.156 193.089 470.056 193.022 469.938 192.98C449.331 184.517 424.388 176.154 395.536 170.131C377.948 166.457 361.484 164.201 346.487 162.867C345.976 162.825 345.498 163.135 345.322 163.622L340.172 178.075C339.115 181.136 343.636 182.302 347.234 182.31L347.242 182.302Z" fill="#91A79A"/>
<path d="M337.26 310.856L342.385 310.764C343.349 310.747 344.121 309.959 344.121 309.003V271.886C344.121 271.533 344.406 271.248 344.758 271.248H370.264C370.616 271.248 370.901 271.533 370.901 271.886V310.387C370.901 310.957 371.589 311.234 371.991 310.831L376.898 305.807C377.032 305.673 377.217 305.606 377.401 305.614L419.018 309.95C419.287 309.976 419.505 310.152 419.58 310.412L431.272 351.874C431.473 352.578 432.505 352.444 432.513 351.706L433.218 280.794C433.218 280.458 432.958 280.173 432.622 280.156L388.581 276.717C385.453 276.533 382.911 274.117 382.593 270.997L378.777 234.534C378.433 231.221 380.588 228.167 383.826 227.396L393.253 225.131C393.253 225.131 393.312 225.122 393.345 225.114L417.467 223.034C424.722 222.413 431.289 227.337 432.715 234.475L440.179 271.802C440.179 271.802 440.188 271.877 440.188 271.919L440.783 354.793C440.783 355.17 441.119 355.464 441.504 355.414L449.632 354.331C449.783 354.315 449.925 354.239 450.026 354.122L455.536 347.906C455.679 347.738 455.905 347.663 456.115 347.705L477.888 351.421C478.265 351.488 478.618 351.194 478.626 350.809L479.003 322.382C479.02 321.845 479.649 321.568 480.052 321.92L485.436 325.041C485.554 325.141 485.713 325.2 485.873 325.192L546.688 325.577C547.023 325.569 547.309 325.821 547.342 326.156L548.953 343.838C549.003 344.425 549.758 344.627 550.102 344.148C551.142 342.697 552.182 341.255 553.222 339.803C553.297 339.694 553.339 339.56 553.339 339.426C553.255 333.898 552.953 326.089 551.98 316.787C550.613 303.651 548.81 287.638 546.839 287.437C520.034 284.719 468.293 278.076 461.416 278.462C461.122 278.479 460.854 278.277 460.778 277.992L443.173 212.591C443.056 212.146 443.433 211.727 443.886 211.802L522.701 224.133C523.246 224.217 523.632 223.604 523.321 223.151L514.909 210.804C514.817 210.67 514.683 210.578 514.523 210.544L452.089 196.251C452.022 196.234 451.963 196.209 451.904 196.175L446.092 192.686C445.991 192.627 445.882 192.594 445.765 192.594H346.31C339.139 192.594 333.36 198.482 333.503 205.654L335.49 309.128C335.507 310.101 336.312 310.873 337.285 310.856H337.26Z" fill="#91A79A"/>
<path d="M521.672 229.695L493.583 275.367C493.223 275.963 493.583 276.726 494.28 276.818L533.666 281.692C534.32 281.776 534.857 281.18 534.714 280.534L523.425 229.997C523.24 229.158 522.133 228.973 521.68 229.703L521.672 229.695Z" fill="#91A79A"/>
<path d="M530.573 230.123C530.724 230.5 531.127 230.702 531.521 230.601C533.4 230.115 538.273 229.267 542.651 232.153C544.597 233.436 545.804 235.047 546.517 236.229C546.66 236.473 546.928 236.615 547.205 236.615H547.851C548.312 236.615 548.681 236.229 548.664 235.768L548.354 229.217C548.337 228.848 548.077 228.546 547.717 228.462L529.642 224.469C529.005 224.327 528.468 224.964 528.72 225.568L530.582 230.123H530.573Z" fill="#91A79A"/>
<path d="M484.323 337.967C493.666 337.842 503.01 337.724 512.353 337.598C512.521 337.598 512.672 337.523 512.772 337.397C513.494 336.533 516.555 333.245 521.235 333.656C525.244 334.008 527.584 336.81 528.255 337.724C528.364 337.875 528.54 337.959 528.725 337.959C534.294 337.842 539.855 337.716 545.424 337.598C545.726 337.598 545.969 337.347 545.969 337.036V329.747C545.969 329.261 545.398 329.009 545.038 329.328L543.637 330.561C543.528 330.653 543.394 330.703 543.251 330.703L485.329 329.428C485.22 329.428 485.111 329.386 485.019 329.328L482.495 327.558C482.117 327.289 481.597 327.558 481.606 328.028C481.648 329.621 481.857 331.525 482.394 333.622C482.788 335.166 483.291 336.508 483.795 337.64C483.887 337.842 484.088 337.967 484.315 337.967H484.323Z" fill="#91A79A"/>
<path d="M492.094 351.656C492.094 351.656 492.136 351.656 492.153 351.656L508.717 352.663C509.103 352.688 509.397 352.335 509.296 351.958C508.969 350.767 508.675 349.19 508.684 347.336C508.684 345.533 508.986 343.998 509.304 342.832C509.405 342.471 509.128 342.119 508.751 342.127C502.653 342.245 496.556 342.37 490.458 342.488C490.358 342.488 490.266 342.463 490.173 342.421L484.109 339.066C483.715 338.847 483.245 339.158 483.279 339.602L483.799 346.128C484.126 348.242 483.724 350.28 492.086 351.648L492.094 351.656Z" fill="#91A79A"/>
<path d="M546.92 340.232C546.87 339.754 546.291 339.553 545.955 339.897L544.471 341.423C544.362 341.533 544.211 341.6 544.06 341.591L531.89 341.382C531.479 341.382 531.202 341.784 531.37 342.162C531.798 343.143 532.234 344.418 532.486 345.928C532.804 347.866 532.704 349.543 532.511 350.793C532.452 351.196 532.813 351.523 533.207 351.422C537.862 350.181 542.525 348.931 547.18 347.689C547.448 347.622 547.616 347.362 547.591 347.094L546.92 340.224V340.232Z" fill="#91A79A"/>
<path d="M486.047 358.441C497.84 368.129 506.378 365.168 521.626 365.999C523.387 366.091 525.148 365.772 526.75 365.042L547.106 355.748C547.391 355.614 547.517 355.279 547.374 354.994L545.579 351.286C545.454 351.018 545.143 350.9 544.867 351.009L530.382 356.73C530.264 356.78 530.164 356.864 530.097 356.982C529.501 358.038 527.547 360.966 524.553 362.014C519.118 363.801 515.109 362.081 512.14 358.659C512.048 358.558 511.93 358.491 511.788 358.475C504.994 357.644 498.2 356.814 491.407 355.983C491.314 355.975 491.23 355.941 491.163 355.891L485.41 351.982C485.141 351.806 484.781 351.882 484.613 352.15L483.992 353.165C483.816 353.45 483.758 353.794 483.833 354.121C484.135 355.413 484.538 357.208 486.03 358.433L486.047 358.441Z" fill="#91A79A"/>
<path d="M553.384 379.597C553.342 379.186 552.999 378.876 552.588 378.868C551.195 378.834 549.803 378.792 548.402 378.759C547.966 378.75 547.622 378.398 547.606 377.97L547.27 368.517C547.27 368.282 547.354 368.055 547.522 367.896L550.6 364.943C550.776 364.767 550.868 364.524 550.851 364.281L550.306 358.132C550.256 357.562 549.652 357.218 549.132 357.461L522.796 370.018C522.662 370.085 522.511 370.111 522.369 370.094L495.152 367.485C495.06 367.46 494.959 367.435 494.867 367.401L463.122 351.648C462.987 351.573 462.836 351.548 462.685 351.556L455.288 352.034C454.919 352.06 454.617 352.32 454.541 352.68L453.384 355.7C453.342 355.884 453.241 356.044 453.099 356.161L448.343 359.969C448.15 360.129 448.033 360.364 448.033 360.607V397.489C448.033 397.85 448.268 398.177 448.612 398.277C452.067 399.301 456.479 400.274 461.645 400.651C466.837 401.029 471.349 400.702 474.914 400.198C475.132 400.165 475.333 400.047 475.459 399.863C477.43 397.145 479.401 394.419 481.372 391.693C481.523 391.492 481.758 391.366 482.009 391.357L486.799 391.181C487.319 391.164 487.729 391.626 487.637 392.146L486.111 400.878C486.044 401.247 485.733 401.532 485.364 401.557L469.009 404.04C468.389 404.048 467.768 404.065 467.147 404.074L448.779 401.993C448.36 401.977 447.991 402.279 447.932 402.69L445.626 418.165C445.55 418.694 445.978 419.155 446.507 419.105C462.425 417.645 479.141 415.641 496.544 412.948C508.387 411.111 543.622 404.77 551.707 403.411C552.042 403.352 552.302 403.101 552.361 402.773C552.789 400.609 553.15 398.286 553.41 395.803C554.047 389.713 553.879 384.236 553.384 379.597ZM489.717 372.157L487.88 377.182C487.83 377.307 487.822 377.45 487.839 377.584L489.13 386.232C489.197 386.66 488.92 387.054 488.501 387.155L475.702 390.108C475.551 390.141 475.392 390.133 475.249 390.082L460.32 384.949C459.976 384.831 459.75 384.504 459.767 384.135L460.236 373.088C460.253 372.677 460.563 372.35 460.974 372.308L466.183 371.771C467.089 371.679 467.189 370.404 466.317 370.161C465.344 369.892 465.621 368.441 466.627 368.55L489.03 371.05C489.558 371.109 489.893 371.646 489.709 372.149L489.717 372.157ZM544.158 395.862L542.238 393.723C542.062 393.53 541.802 393.429 541.533 393.454L493.433 398.781C492.829 398.848 492.359 398.252 492.569 397.682L498.725 381.049C498.834 380.747 499.119 380.537 499.446 380.512L542.322 377.794C542.749 377.769 543.127 378.071 543.186 378.499L545.568 395.191C545.685 395.996 544.687 396.457 544.142 395.853L544.158 395.862ZM550.877 391.257C550.843 391.886 550.155 392.246 549.619 391.911L547.564 390.628C547.32 390.477 547.178 390.217 547.178 389.931V384.102C547.178 383.649 547.547 383.28 548 383.28H550.399C550.868 383.28 551.246 383.674 551.22 384.144L550.877 391.265V391.257Z" fill="#91A79A"/>
<path d="M320.223 347.706L321.464 340.937C321.598 340.19 321.011 339.511 320.248 339.544L8.5046 352.781C7.68266 352.814 6.97814 352.21 6.87749 351.397L2.81809 317.09C2.69229 316.049 3.27939 315.043 4.24391 314.64L22.4525 306.932C23.2073 306.613 23.9873 306.37 24.7925 306.21L316.692 247.704C318.277 247.385 319.401 245.959 319.342 244.34L316.432 170.861C316.348 168.789 314.402 167.313 312.389 167.783L0 240.473V363.92C0 364.859 0.469682 365.69 1.18259 366.193L1.13227 359.927C1.13227 359.239 1.66905 358.677 2.3568 358.652L319.099 348.67C319.652 348.654 320.122 348.251 320.223 347.697V347.706Z" fill="#91A79A"/>
</svg>
