<svg width="1160" height="411" viewBox="0 0 1160 411" fill="none" xmlns="http://www.w3.org/2000/svg">
<g clip-path="url(#clip0_1572_157636)">
<rect width="1160" height="411" fill="#EFF3F6"/>
<g opacity="0.1">
<path d="M26.9228 -300.658L161.254 5.82275L128.473 -339.464" fill="#7B9586"/>
<path d="M-59.8994 217.585L161.254 5.82275L26.9229 -300.658" fill="#91A79A"/>
<path d="M-59.8865 217.586L357.359 486.722L161.267 5.8241" fill="#7B9586"/>
<path d="M161.267 5.82407L357.359 486.722L278.02 -115.6" fill="#688173"/>
<path d="M805.602 -27.3489L788.736 164.593L679.703 -42.5791L805.602 -27.3489Z" fill="#688173"/>
<path d="M444.298 299.37L621.98 -53.0103L278.017 -115.6" fill="#A7B8AF"/>
<path d="M278.02 -115.6L444.301 299.37L357.36 486.722L278.02 -115.6Z" fill="#91A79A"/>
<path d="M504.277 448.543L444.298 299.371L621.98 -53.0094L504.277 448.543Z" fill="#688173"/>
<path d="M357.353 486.721L504.273 448.541L444.294 299.369" fill="#A7B8AF"/>
<path d="M0.566525 453.548L8.16797 261.397L-59.8885 217.584" fill="#688173"/>
<path d="M0.56839 453.548L357.359 486.721L8.16983 261.398" fill="#A7B8AF"/>
<path d="M161.255 5.82275L278.008 -115.601L128.474 -339.464" fill="#A7B8AF"/>
<path d="M679.713 -42.5778L788.746 164.594L621.99 -53.0094L679.713 -42.5778Z" fill="#7B9586"/>
<path d="M621.99 -53.0094L788.746 164.594L504.287 448.543L621.99 -53.0094Z" fill="#91A79A"/>
<path d="M504.287 448.541L788.746 164.592L774.137 364.253L504.287 448.541Z" fill="#A7B8AF"/>
<path d="M774.129 364.253L788.738 164.592L878.648 331.706L774.129 364.253Z" fill="#91A79A"/>
<path d="M788.738 164.592L805.604 -27.3503L878.648 331.706L788.738 164.592Z" fill="#A7B8AF"/>
<path d="M805.605 -27.3499L879.125 19.801L878.65 331.707" fill="#91A79A"/>
<path d="M805.13 -27.3491L878.294 -76.1691L879.125 19.8019" fill="#91A79A"/>
<path d="M878.648 331.707L580.174 636.519L504.279 448.541L878.648 331.707Z" fill="#688173"/>
<path d="M878.648 331.707L633.978 769.835L580.174 636.519L878.648 331.707Z" fill="#A7B8AF"/>
<path d="M879.128 19.8015L1152.18 -74.5004L1212.16 171.06" fill="#688173"/>
<path d="M878.292 -76.1691L1152.18 -74.5001L879.123 19.8019" fill="#A7B8AF"/>
<path d="M879.128 19.8025L1212.16 171.061L1185.92 216.125" fill="#7B9586"/>
<path d="M879.126 19.8025L1185.91 216.126L878.651 331.708" fill="#A7B8AF"/>
<path d="M878.651 331.707L1185.91 216.124L1037.57 478.375L878.651 331.707Z" fill="#7B9586"/>
<path d="M878.653 331.707L1037.57 478.375L786.961 917.129L878.653 331.707Z" fill="#688173"/>
<path d="M878.648 331.707L786.956 917.129L633.978 769.835L878.648 331.707Z" fill="#91A79A"/>
<path d="M1201.95 625.67L1037.56 478.375L1185.91 216.124" fill="#688173"/>
</g>
</g>
<defs>
<clipPath id="clip0_1572_157636">
<rect width="1160" height="411" fill="white"/>
</clipPath>
</defs>
</svg>
