<svg width="341" height="289" viewBox="0 0 341 289" fill="none" xmlns="http://www.w3.org/2000/svg">
<path d="M170.896 288.086C249.923 288.086 313.987 223.668 313.987 144.203C313.987 64.7393 249.923 0.320801 170.896 0.320801C91.8687 0.320801 27.8047 64.7393 27.8047 144.203C27.8047 223.668 91.8687 288.086 170.896 288.086Z" fill="#CCD7E4"/>
<path d="M75.2855 239.669C78.5798 237.328 79.1807 237.272 81.3396 234.967C84.5729 231.507 85.6574 229.32 86.7623 225.701C86.9762 225.001 87.4548 223.483 88.8449 222.215C91.2329 220.043 92.5212 220.672 94.7463 220.432C95.8665 220.314 96.7677 220.054 97.4806 219.721C103.229 217.048 103.25 210.256 103.53 207.496C103.962 203.54 104.747 202.426 106.188 199.309C107.42 196.646 108.82 194.479 110.088 192.787C110.526 192.204 111.04 191.698 111.58 191.213C112.695 190.206 113.28 188.714 113.117 187.206C112.914 185.346 112.007 184.824 109.803 183.23L105.429 179.616C104.94 179.213 104.619 178.645 104.523 178.022L104.349 176.882C104.263 176.33 103.998 175.814 103.591 175.436C101.554 173.529 99.4104 171.741 97.4857 169.722C96.9561 169.17 96.4877 168.485 95.006 168.255C93.6363 168.045 93.5293 168.199 92.4193 168.47C90.2146 169.011 87.8469 169.344 85.5912 169.614C85.2552 169.655 84.9599 169.359 85.0311 169.027C85.1024 168.684 85.0668 168.332 84.914 168.02C84.6594 167.509 84.1248 167.177 83.5342 167.146C83.2643 167.136 83.081 166.87 83.137 166.604C83.7022 164.095 84.5271 162.347 84.8682 159.648C85.0311 158.212 85.0413 157.819 84.9955 157.394C84.7104 154.573 81.5738 153.137 81.2887 153.009L72.3679 148.006C71.3953 147.459 70.601 146.646 70.0766 145.66L68.325 142.348C67.9227 141.586 67.3423 140.932 66.6345 140.447C63.6558 138.392 60.6822 136.332 57.7035 134.278C57.3471 134.017 55.9927 133.097 54.0985 133.245C51.8734 133.424 51.3795 134.263 50.351 135.218C49.8774 135.658 48.8489 136.419 47.3417 136.762C45.8447 137.104 44.5616 136.859 43.7622 136.608C43.5789 136.552 43.4516 136.547 43.3243 136.614C43.0442 136.762 42.7031 136.603 42.5809 136.312L42.474 136.056C42.3568 135.775 42.2957 135.474 42.2856 135.172L42.1379 127.061C42.0819 123.356 41.2978 124.184 40.2539 123.157C39.9688 122.876 39.8517 122.191 39.811 121.409C39.7804 120.836 40.0095 120.448 40.1826 120.136C41.588 117.555 41.6389 114.841 42.2907 111.836C42.4129 111.284 42.4892 110.911 42.1634 110.62C41.8171 110.313 41.3181 110.425 40.8955 110.707C38.7977 112.097 38.2274 113.497 37.3873 115.771C37.26 116.012 36.6897 116.998 35.4626 117.402C35.1571 117.504 34.8668 117.55 34.602 117.565C34.0623 117.596 33.6804 117.044 33.9045 116.548L43.4007 96.023C43.5992 95.5886 44.1593 95.4711 44.5158 95.7777C44.6736 95.9106 44.8315 96.0486 44.9893 96.1815C45.4119 96.5443 46.0739 96.3399 46.2164 95.7982C46.2521 95.6653 46.2877 95.5528 46.3284 95.4455C47.0667 93.5698 49.689 92.4556 52.8612 92.7061C53.8439 92.7776 54.8063 93.2581 56.4407 92.4608C57.4947 91.9446 58.121 91.1677 58.8848 90.258C67.9482 81.4111 76.0085 73.5505 85.077 64.7036C85.9171 63.6406 87.3785 62.6644 88.6667 63.1806C89.7614 63.6201 90.4539 64.7956 90.3572 66.0376C90.3266 66.4567 90.6372 66.8195 91.0496 66.8604C92.5161 67.0189 92.5975 67.1415 94.0538 67.3868C97.3024 67.9286 98.5244 67.4686 98.9012 66.4158C99.1863 65.6185 98.7026 65.0563 97.8624 63.8961C96.7117 62.3118 95.3267 60.9216 94.0538 59.4292C93.9163 59.3219 92.2106 57.9164 92.5161 56.7256C92.8114 55.5654 96.4469 54.8857 98.4735 55.7238L100.938 57.1242C102.348 58.0135 103.621 57.8346 103.652 57.5382C103.738 56.7665 102.15 55.9334 103.117 55.6472C104.161 55.3405 107.374 54.7783 110.322 53.5006C112.924 52.3711 114.905 50.9554 116.33 49.8106C117.043 48.9775 118.749 47.7918 115.73 48.1342C114.62 48.2211 113.041 47.3216 112.394 45.4101C111.895 43.9382 112.267 42.5123 113.978 40.7388C114.177 40.5344 113.983 40.1919 113.703 40.2277L106.559 41.6792C106.014 41.7661 105.678 41.6281 105.724 41.0761L105.862 39.4253C105.958 38.3265 105.561 37.7183 104.889 37.3605C103.968 36.875 102.689 37.1663 101.681 37.9738C100.688 38.7455 100.923 38.4951 99.8228 39.3997C98.8452 40.2073 97.7555 41.8172 96.9816 42.2056C96.3909 42.4918 95.7341 42.594 95.0874 42.5071L93.9316 42.3538C93.7025 42.3232 93.4784 42.4611 93.4071 42.6809L92.9692 43.9791C92.6841 44.8224 92.1393 45.5532 91.4162 46.0694C89.2522 47.6078 84.9293 50.4801 84.3285 50.8839C83.8091 51.2314 83.3814 51.6965 83.0708 52.2382C81.7877 54.4666 80.7489 56.1736 80.4383 56.0458C80.0361 55.8772 79.4098 54.7017 81.528 49.9179C81.5942 49.7646 81.472 49.601 81.309 49.6266C78.3762 50.1019 76.2173 48.6862 76.0492 47.3625C75.9117 46.2739 77.0727 44.9246 78.7886 44.1426C85.4487 40.9381 93.0711 39.2464 98.7637 34.524C99.2576 34.1151 99.6038 33.6091 99.446 32.8067C99.2525 31.805 98.2902 30.5937 95.9378 31.3041L80.0717 39.7984C79.6135 40.0437 79.0636 40.0437 78.6053 39.8035L74.542 37.6672C51.3489 58.821 35.096 87.5083 29.6172 119.875L32.0052 118.639C32.3006 120.586 32.5959 122.533 32.8912 124.48C32.9625 124.945 33.3597 125.283 33.8281 125.303C33.9198 125.303 34.0012 125.319 34.0776 125.329C34.434 125.385 36.2518 126.402 36.5675 128.487C37.0512 131.579 37.6215 133.705 38.7926 136.327C40.0757 139.21 41.4403 140.932 42.6827 142.164C43.4007 142.874 43.6909 143.917 43.4261 144.893C40.758 151.67 43.7265 150.755 40.9006 154.246C40.6969 154.471 39.3832 155.963 39.7295 157.854C39.8466 158.498 40.1165 158.989 40.3303 159.285C40.8548 160.037 41.0584 160.369 40.9872 161.089C40.9057 161.907 40.1572 162.383 39.9892 162.49C38.7722 163.471 37.5807 164.427 37.7284 167.396C37.8201 169.211 38.7468 170.488 39.4443 171.209C40.0197 171.797 40.4729 172.497 40.7886 173.258C41.7866 175.671 42.7896 178.078 43.7876 180.49C44.0524 181.129 44.195 181.814 44.2204 182.509C44.2866 184.38 44.587 186.772 45.4832 189.404C47.026 193.937 49.6025 197.039 51.3897 198.813C51.9549 199.375 52.0567 200.096 52.2451 200.474C53.6352 204.322 54.1953 203.729 54.5313 206.73C54.7655 208.82 54.3887 210.834 54.1342 211.953C53.4213 216.026 53.569 217.728 54.3124 221.643C55.2696 226.698 58.1923 232.274 60.5345 235.907C64.6793 240.921 69.1549 245.649 73.931 250.054C73.8597 246.277 72.4239 241.688 75.2804 239.659L75.2855 239.669Z" fill="#B3C3D6"/>
<path d="M121.4 27.1188C120.142 26.9348 119.292 27.1188 118.614 27.2977C118.35 27.3693 118.075 27.3795 117.805 27.3437C117.046 27.2415 115.386 27.1853 114.256 28.3556C113.813 28.8156 113.584 29.3318 113.456 29.7305L112.138 32.153C111.929 32.5363 111.572 32.8123 111.15 32.9094C110.35 33.0883 110.091 33.4819 110.035 33.5687C109.464 34.4887 110.193 36.4053 112.295 37.8874C115.783 38.4087 116.435 38.3167 118.324 38.1378C118.803 38.0919 119.251 37.8721 119.577 37.5194L124.282 32.4546C124.506 32.2092 124.669 31.9128 124.74 31.5908C124.816 31.2484 124.872 30.8549 124.893 30.4204C124.933 29.4698 125.183 29.0047 124.607 28.1614C123.976 27.8292 122.667 27.3079 121.4 27.1239V27.1188Z" fill="#B3C3D6"/>
<path d="M155.512 37.6522C155.578 37.6624 155.639 37.6828 155.705 37.7033C156.367 37.9486 157.365 38.2092 158.562 38.1428C161.123 37.9997 162.849 36.4613 163.486 35.8123C163.593 35.6998 163.725 35.618 163.868 35.5618C170.019 33.1342 170.691 34.6368 172.921 35.0201C173.888 35.1887 174.81 35.6078 175.788 35.7049C178.593 35.9809 180.503 36.0371 181.826 35.9809C183.099 35.9247 183.766 34.4221 182.952 33.4408C182.432 32.8173 181.994 31.9791 181.852 30.8803C181.847 30.8343 181.842 30.7883 181.842 30.7423C181.831 29.8939 182.84 29.4083 183.537 29.8939C183.761 30.0472 184.036 30.2005 184.362 30.3181C185.666 30.7729 186.842 30.2823 187.213 30.1034C187.249 30.083 187.29 30.0676 187.331 30.0523C191.343 28.5753 195.849 27.8444 199.515 25.8409C199.943 25.6058 199.821 24.9568 199.342 24.8852C194.678 24.0317 189.887 23.2242 184.968 22.478C179.545 21.65 174.245 20.9345 169.077 20.3161C167.849 20.1679 166.622 20.0759 165.39 20.0197C159.392 19.7437 153.078 19.6415 146.474 19.7744C142.859 19.8459 139.34 19.9839 135.919 20.173C134.839 20.2343 134.009 21.1441 134.04 22.2225L134.218 28.841C134.233 29.3981 134.656 29.8581 135.206 29.9245C140.359 30.5225 142.945 31.2023 142.966 31.9638C142.986 32.6742 140.766 33.451 136.301 34.2994C136.214 34.3148 136.122 34.3403 136.041 34.3812C133.429 35.572 133.444 38.3932 134.045 40.1207C134.931 42.6608 139.346 44.4649 144.076 42.3286C144.157 42.2928 144.239 42.2417 144.31 42.1855C150.863 37.0491 152.482 37.1206 155.522 37.6624L155.512 37.6522Z" fill="#B3C3D6"/>
<path d="M118.904 57.0632L116.053 55.2744C115.773 54.6867 115.401 54.3953 115.182 54.2522C114.215 54.058 112.906 54.1398 111.475 54.7582C109.495 55.4584 108.41 54.7889 107.57 55.7037C106.781 56.5623 106.333 56.9661 106.088 57.421C104.846 57.6356 104.077 57.6918 104.036 58.2949C104.011 58.6527 104.408 58.9236 105.706 59.9968C108.502 62.8027 109.551 61.4841 111.139 60.513C113.008 59.3682 113.212 58.6578 115.254 58.208C115.753 58.0956 116.226 58.0445 116.649 58.0292C116.903 58.0189 117.153 57.9883 117.402 57.9269C117.876 57.8094 118.349 57.697 118.828 57.5794C119.072 57.5181 119.123 57.1961 118.909 57.0632H118.904Z" fill="#6687AD"/>
<path d="M291.269 66.1349H287.736C284.238 65.9918 281.152 62.3426 280.179 61.07C279.899 60.7021 279.584 60.3596 279.237 60.053C278.092 59.041 276.208 57.6866 273.575 56.8996C271.264 56.2096 269.252 56.2249 267.974 56.3425C267.144 56.4396 265.255 56.6082 265.108 56.1278C264.95 55.6167 269.441 52.816 271.523 51.4309C271.732 51.293 271.625 50.9659 271.376 50.9812L266.671 51.2367C266.187 51.2623 265.098 51.0885 264.705 50.8074C264.705 50.8074 257.241 46.7085 249.608 39.0678C248.351 37.8105 246.915 37.4987 243.172 40.7186C239.364 44.8839 235.051 45.8601 233.747 43.3251C233.121 42.1138 230.855 42.3489 230.855 42.3489C224.653 42.9929 222.953 48.0731 223.64 49.9897C224.429 52.1822 228.09 51.9063 229.74 52.2231C232.052 53.0255 232.693 54.5588 232.306 55.5707C231.94 56.5265 231.135 56.5929 229.913 56.6849C223.946 57.1347 219.567 56.8229 214.215 56.8536C213.905 56.8536 213.604 56.9353 213.334 57.0938L207.789 60.3034C207.448 60.4976 207.392 60.9627 207.662 61.2438C207.983 61.5811 208.339 62.0564 208.589 62.6953C209.113 64.0497 208.879 65.2712 208.696 65.6136C206.832 69.089 206.236 71.394 206.578 74.3072C206.603 74.5372 206.384 74.7161 206.17 74.6394C205.513 73.9341 200.539 68.7363 195.864 70.1418H195.849C195.024 70.3974 194.261 70.934 194.133 71.8897C192.371 85.2496 192.555 87.437 195.91 89.1287C196.567 89.4609 197.932 89.9056 200.34 89.0878C200.768 88.9396 201.221 88.8783 201.674 88.8783H205.819C206.16 88.8783 206.471 88.6892 206.623 88.3825C207.183 87.2632 208.105 85.776 209.597 84.3705C212.158 81.953 214.954 81.1149 216.313 80.8082C221.833 79.8627 220.926 78.4725 225.315 79.2187C227.785 79.6378 229.893 80.3789 230.682 81.4062C233.976 85.6993 236.156 87.4728 238.895 90.5086C239.053 90.7386 239.908 91.4184 240.392 91.6024C241.39 91.9857 242.139 90.3144 243.238 89.8187C244.287 89.3485 244.572 90.2224 244.802 90.5035L247.368 94.1936C247.689 95.0726 247.984 95.4406 248.651 95.5888C249.349 95.7422 249.72 94.766 250.448 94.7966C251.477 94.8375 251.131 94.7762 251.818 95.5684C252.18 96.8154 252.276 96.933 252.821 96.9432C253.381 96.9534 253.85 96.3504 253.87 95.5684C253.906 94.1936 255.499 94.2293 257.419 94.8835C259.339 95.4764 261.437 94.8426 262.704 93.2941C263.998 91.7046 264.176 89.4609 263.152 87.6721C261.706 83.195 266.64 82.8832 268.158 84.5749C270.001 87.5392 271.213 88.9038 271.793 88.6738C272.027 88.5818 272.155 88.1883 272.18 87.575C272.201 87.1048 272.363 86.6397 272.7 86.3075C273.132 85.8731 273.794 85.7198 274.487 87.9225L277.995 96.7643C278.423 97.8376 278.637 98.6911 278.082 99.0847C277.623 99.4067 277.038 98.8036 276.198 98.6554C259.471 95.6859 256.34 99.4015 265.337 103.541C266.213 103.945 267.17 104.139 268.132 104.134C269.201 104.129 270.77 104.359 271.834 105.57C272.297 106.097 272.547 106.674 272.689 107.16C272.817 109.945 272.944 112.736 273.076 115.521C273.102 116.017 272.705 116.436 272.211 116.436H263.376C263.051 116.436 262.801 116.717 262.832 117.039L263.239 120.98C263.27 121.256 263.412 121.506 263.641 121.664L270.296 126.361C273.148 128.303 282.471 153.807 282.471 153.807C284.187 159.045 284.66 159.981 285.271 160.011C285.791 160.037 285.796 158.769 286.727 158.166C289.508 156.362 291.061 156.679 294.197 155.892C297.909 154.849 300.811 152.054 301.657 148.548C302.777 143.887 300.027 138.806 295.052 136.486C291.091 134.636 288.652 133.777 289.594 129.397C290.363 128.033 292.817 126.326 295.882 129.484C297.741 131.401 299.177 133.716 300.552 134.472C301.051 134.748 301.514 135.08 301.876 135.515C302.39 136.133 302.935 136.721 303.535 137.258C304.218 137.871 304.941 138.622 305.638 139.532C307.858 142.44 308.607 145.425 308.887 147.147C309.534 156.505 310.185 165.868 310.832 175.226C313.032 165.214 314.187 154.814 314.187 144.142C314.187 115.383 305.776 88.5921 291.29 66.1196L291.269 66.1349Z" fill="#B3C3D6"/>
<path d="M253.99 209.617C254.265 208.615 254.641 207.644 255.084 206.709C256.775 203.142 258.129 200.714 258.567 200.407C259.382 199.84 259.677 200.28 261.2 199.59C262.595 198.532 263.761 197.106 265.156 196.048C267.941 193.906 272.687 189.562 274.993 182.591C275.574 180.843 276.083 180.511 276.103 177.674C275.961 177.041 275.849 176.085 276.124 175.011C276.429 173.826 277.055 173.049 277.386 172.691C278.115 171.884 278.766 170.677 279.622 169.333C280.136 168.526 280.38 168.01 280.253 167.734C279.729 166.911 279.163 167.585 276.363 167.197C275.93 167.085 275.518 166.947 275.121 166.788C268.797 164.243 269.733 156.464 266.047 152.6C265.614 152.243 265.024 151.655 264.514 150.812C263.196 148.639 263.409 146.386 263.532 145.558C263.679 144.259 263.898 141.868 263.374 139.404C262.895 137.16 262.493 136.302 261.515 134.6C261.2 134.048 260.976 133.445 260.864 132.816C260.095 128.574 258.476 125.722 258.613 124.797C258.694 124.245 258.954 123.729 259.336 123.32C259.57 123.07 259.825 122.794 260.013 122.589C260.141 122.446 260.242 122.283 260.298 122.099C260.711 120.79 260.772 119.732 260.706 119.068C260.655 118.516 260.538 118.025 260.405 117.606C260.161 116.855 259.555 116.277 258.796 116.058C253.806 114.627 250.43 112.94 245.441 111.509C244.967 111.371 244.529 111.131 244.157 110.799C243.719 110.62 243.185 110.349 242.635 109.93C241.637 109.173 241.062 108.294 240.751 107.727C239.931 106.531 239.122 105.928 238.521 107.247C237.925 108.555 237.355 109.787 237.355 109.787C236.815 110.875 236.891 112.066 236.413 112.393C235.659 112.904 234.941 112.562 233.419 111.565C232.314 110.839 231.382 110.415 230.832 109.986C229.437 108.892 227.833 107.195 227.008 104.768C226.927 104.522 226.815 104.292 226.631 104.124C226.26 103.781 225.689 103.694 225.18 103.889C224.569 104.119 223.887 104.119 223.256 103.955C223.24 103.955 223.23 103.95 223.215 103.945C222.614 103.786 221.932 103.526 221.244 103.091C219.987 102.299 219.197 101.251 218.714 100.347C218.408 99.7846 218.24 99.156 218.21 98.5172C218.133 96.7846 217.568 92.6959 213.327 92.9412L202.053 92.8185L190.816 92.4148C185.739 92.3586 183.972 90.7742 179.237 95.0111C177.659 96.4217 176.727 98.0418 176.172 99.4116C175.561 100.914 174.267 102.023 172.694 102.396C169.945 103.04 165.764 104.712 163.02 109.03C160.647 112.766 160.535 116.615 160.795 119.027C160.932 120.31 160.296 121.562 159.16 122.16C157.383 123.095 156.161 124.48 155.922 126.07C155.896 126.228 155.881 126.407 155.876 126.601C155.866 127.399 155.688 128.186 155.301 128.881C154.231 130.823 153.04 133.741 152.969 137.36C152.948 138.321 153.014 139.21 153.121 140.023C153.218 140.733 153.269 141.454 153.269 142.169V155.207C153.269 155.994 153.646 156.735 154.282 157.195L165.927 165.648C166.431 165.924 167.898 166.645 169.817 166.379C172.292 166.037 172.704 164.631 173.967 163.931C178.382 161.442 179.955 162.05 181.452 162.316C185.755 163.308 191.218 165.066 194.497 164.274C195.088 164.12 195.684 164.314 195.994 164.744C196.254 165.107 196.223 165.516 196.208 165.643C196.183 165.822 195.913 168.127 197.664 169.666C198.998 170.836 200.78 170.401 202.624 170.279C203.031 170.253 205.434 170.652 206.56 173.028C207.369 174.741 207.048 176.305 206.733 176.719C204.706 179.412 204.1 181.896 204.981 182.816C205.17 183.01 205.546 183 206.305 183.245C206.692 183.368 206.865 183.659 206.819 184.318C206.779 184.87 206.361 185.177 206.305 185.218C205.653 185.703 205.378 186.552 205.623 187.324C205.857 188.075 206.702 188.177 207.334 188.652C208.25 189.342 208.398 190.232 208.53 191.831C208.637 193.124 208.311 194.136 208.102 194.663C206.748 196.63 204.874 199.881 203.825 204.281C203.301 206.494 203.097 208.529 203.056 210.266C203.016 212.188 202.868 214.11 202.542 216.006C202.186 218.045 201.952 220.447 202.028 223.13C202.109 225.916 202.507 228.338 202.97 230.301C204.197 237.344 205.424 244.381 206.646 251.424C206.987 253.075 207.094 253.826 208.057 254.685C209.523 255.814 211.911 255.625 213.576 254C221.509 247.453 225.527 246.579 227.645 246.124C229.081 245.817 230.445 245.654 231.713 245.582C231.932 245.567 233.999 245.368 235.175 243.477C236.331 241.616 235.644 239.7 235.562 239.485C235.338 239.102 235.328 238.632 235.542 238.264C235.797 237.819 236.311 237.717 236.846 237.686C238.276 237.599 238.755 237.027 239.88 235.688C241.107 234.236 241.326 232.672 241.377 232.105C241.382 231.604 241.433 230.817 241.657 229.892C242.324 227.122 244.025 225.318 244.972 224.459C253.099 216.067 253.272 211.963 253.633 210.828C253.766 210.414 253.883 210.011 253.995 209.602L253.99 209.617Z" fill="#B3C3D6"/>
<path d="M278.779 218.378L278.82 217.187C278.83 216.931 278.545 216.773 278.336 216.921L276.737 218.03C276.523 218.178 276.228 218.153 276.04 217.969L274.217 216.17C274.044 215.996 273.743 216.098 273.713 216.344C273.443 218.25 273.646 219.727 272.898 222.068C272.46 223.432 271.528 225.098 270.204 226.877C269.099 228.354 267.964 229.484 266.997 230.312C266.997 230.312 254.506 238.555 254.506 238.898C253.33 239.526 252.673 240.83 252.882 242.118C253.071 243.308 253.962 244.29 255.148 244.607C258.249 245.056 259.812 244.305 261.777 242.286C261.986 242.072 262.567 241.607 263.448 241.469C264.654 241.285 265.535 241.918 265.759 242.026C267.236 242.757 269.232 242.629 271.706 240.779C274.237 238.888 275.235 234.748 274.232 231.891C274.028 231.313 274.186 229.632 275.215 227.94C276.136 226.422 276.966 225.666 277.954 225.405C279.085 225.109 280.144 224.633 280.48 223.56C280.714 222.799 280.459 221.352 279.543 220.356C279.044 219.814 278.764 219.103 278.789 218.367L278.779 218.378Z" fill="#B3C3D6"/>
<path d="M164.493 69.6507L90.5855 66.7816L7.38934 56.6092C6.48337 56.4967 5.56215 56.6757 4.76307 57.1155L1.10865 59.1254C0.477524 59.4732 0.620062 60.4245 1.32753 60.5677L91.7357 78.519C92.4737 78.6673 93.2168 78.7696 93.965 78.8259L153.769 83.5208C154.105 83.5464 154.268 83.9505 154.039 84.2011L151.748 86.7224C151.417 87.0855 150.934 87.2799 150.445 87.239L129.552 85.5819C128.57 85.5052 127.669 84.9989 127.089 84.2011L96.6778 42.4424C96.2554 41.8645 95.5326 41.5935 94.8353 41.752L86.5901 43.6596C85.6128 43.8847 85.0123 44.8769 85.2617 45.8537L90.5956 66.7765L101.091 94.6701C101.269 95.1458 101.035 95.6828 100.566 95.872L96.9883 97.304C96.6982 97.4216 96.3877 97.4779 96.0722 97.4677L42.2995 96.5675C42.2588 96.5675 42.2232 96.5675 42.1825 96.5829L36.8943 97.974C36.426 98.0967 36.4871 98.7821 36.9656 98.823L91.1402 103.395C91.5321 103.431 91.8222 103.789 91.7611 104.183C91.4456 106.229 91.5118 109.763 102.658 109.599H142.907C144.154 109.599 145.396 109.41 146.592 109.031L248.59 76.9233C248.87 76.8364 249.16 76.8006 249.45 76.8159L253.659 77.041C254.021 77.0614 254.107 77.5575 253.776 77.7007L223.803 90.6707C223.024 91.0083 222.225 91.2895 221.416 91.5197L171.73 105.589C171.527 105.646 171.583 105.957 171.797 105.927C183.238 104.444 209.135 100.127 214.759 98.2809C239.917 90.4866 250.575 87.0958 250.992 86.7991C251.425 86.4923 251.939 86.344 252.468 86.3798C258.006 86.7173 263.543 87.0549 269.081 87.3975C269.519 87.4231 269.763 87.9243 269.514 88.2874L268.16 90.2667C266.516 92.6704 268.297 95.9231 271.198 95.8209L296.703 94.89C297.191 94.89 302.988 94.6087 306.083 90.0161C308.898 85.8428 307.366 79.6902 307.233 79.3782C313.718 78.3963 320.436 77.0512 327.444 75.7522C334.651 74.4173 340.698 73.1848 340.683 72.75C340.713 72.5864 340.723 72.3562 340.652 72.1159C340.428 71.3794 339.522 70.868 338.377 70.8117L281.637 71.4408C281.311 71.4408 281.235 70.9856 281.54 70.8833C294.311 66.4236 298.927 65.3189 310.124 58.9106C316.181 55.4482 320.828 50.0321 324.279 46.2526C332.213 34.6686 323.902 31.4926 322.507 30.5772C322.507 30.5772 319.611 24.6496 308.567 24.0615C304.083 23.8211 298.408 24.0615 295.028 24.8695C282.558 27.6518 219.278 49.6485 166.508 69.3234C165.867 69.5638 165.185 69.6712 164.503 69.6456L164.493 69.6507Z" fill="#6687AD"/>
<path d="M174.535 70.014H187.794C188.384 70.014 188.97 69.9118 189.524 69.7072L278.691 37.1237C279.006 37.0061 279.337 37.2413 279.337 37.5789V38.8728C279.337 39.1694 279.154 39.4303 278.874 39.5325L195.113 69.5589C194.863 69.6458 194.93 70.0192 195.194 70.0192H210.774C211.201 70.0192 211.629 69.9629 212.041 69.8555L259.879 57.4123C313.382 43.4604 322.061 36.0994 325.813 32.9745C325.744 32.6995 324.532 31.5994 322.548 30.6073L312.364 30.8024C312.043 30.8024 311.723 30.8535 311.422 30.9609L304.332 33.3953C303.93 33.5334 303.584 33.0782 303.823 32.7254L305.808 29.7539C305.956 29.5289 306.19 29.3806 306.455 29.3345L310.608 28.6595C310.888 28.6134 311.168 28.5827 311.448 28.5725L318.1 28.2708C317.683 27.8821 317.108 27.4371 316.364 27.0535C314.929 26.312 313.586 26.1841 312.792 26.1739C308.735 25.867 304.17 25.8721 300.23 26.1892C298.703 26.312 297.197 26.6444 295.751 27.1507L174.459 69.5589C174.209 69.6458 174.27 70.0192 174.535 70.0192V70.014Z" fill="#CCD7E4"/>
<path d="M277.226 73.0367L274.335 74.9954C274.06 75.1847 274.208 75.6194 274.539 75.5989L330.591 72.4894C330.912 72.428 330.79 72.157 330.536 72.157C313.18 72.3206 295.819 72.4843 278.463 72.648C278.02 72.648 277.587 72.786 277.221 73.0367H277.226Z" fill="#CCD7E4"/>
<path d="M299.242 75.3892C295.374 75.3892 292.238 79.1124 292.238 83.7C292.238 88.2875 295.374 92.0108 299.242 92.0108C303.11 92.0108 306.245 88.2875 306.245 83.7C306.245 79.1124 303.11 75.3892 299.242 75.3892ZM299.603 89.8423C299.354 89.8934 299.181 89.6019 299.344 89.4076C300.346 88.2262 302.591 86.339 302.708 83.209C302.82 80.2938 299.924 78.2788 298.896 77.2508C298.748 77.1025 298.875 76.8467 299.084 76.8774C302.199 77.2917 304.632 79.8642 304.836 82.9686C305.049 86.2009 302.784 89.157 299.598 89.8474L299.603 89.8423Z" fill="#CCD7E4"/>
<path d="M190.084 71.4409C185.579 71.4409 181.93 75.0465 181.93 79.496C181.93 83.9455 185.579 87.5511 190.084 87.5511C194.588 87.5511 198.237 83.9455 198.237 79.496C198.237 75.0465 194.588 71.4409 190.084 71.4409ZM192.43 85.6946C190.928 86.3902 190.659 85.8634 190.796 85.6332C191.325 84.7536 192.196 81.0201 191.478 78.5652C190.928 76.6831 188.857 75.1232 186.19 74.2845C185.976 74.218 186.709 73.6043 186.933 73.502C189.641 72.2694 194.486 72.878 196.079 76.7701C197.27 79.675 195.85 84.1143 192.425 85.6997L192.43 85.6946Z" fill="#CCD7E4"/>
<path d="M160.059 84.3289C162.512 82.4366 168.07 78.2122 169.673 77.0001C169.968 76.775 170.269 76.5756 170.589 76.3966C172.177 75.5169 174.137 74.5912 176.437 73.7985C178.997 72.9188 181.323 72.4432 183.242 72.1772C183.324 72.1772 183.502 72.1772 183.578 72.2898C183.649 72.3869 183.659 72.5301 183.563 72.6426C182.86 73.4916 182.122 74.5656 181.486 75.88C180.372 78.1866 180.83 81.2859 181.369 83.5106C181.552 84.2573 180.926 84.2522 180.646 83.7919C179.196 81.4342 179.069 78.5855 179.196 77.174C179.211 77.0205 179.094 76.8876 178.941 76.8824C178.122 76.8569 177.211 76.8722 176.223 76.9643C174.732 77.1075 173.414 77.3888 172.304 77.711C171.857 77.8439 171.424 78.0281 171.017 78.2582C167.403 80.3397 163.794 82.4264 160.181 84.5079C160.064 84.5744 159.952 84.4108 160.059 84.3289Z" fill="#CCD7E4"/>
<path d="M163.986 71.9778L162.057 74.177C161.97 74.2793 161.838 74.3304 161.706 74.3253L90.7961 71.4971C90.2312 71.4766 89.6662 71.4204 89.1012 71.3283L12.5065 59.1817C12.3436 59.1715 12.252 59.0539 12.2673 58.9772C12.2775 58.9107 12.3792 58.8493 12.5065 58.8595C38.6522 62.1787 64.798 65.4979 90.9437 68.8171C91.4832 68.8836 92.0278 68.9297 92.5674 68.945L163.665 71.2311C164.042 71.2413 164.23 71.6863 163.986 71.9727V71.9778Z" fill="#CCD7E4"/>
<path d="M98.5971 81.3626L103.758 93.1921C103.901 93.5143 104.272 93.6728 104.598 93.5449L124.33 85.9604C124.702 85.8172 124.865 85.3773 124.677 85.0244L123.715 83.2498C123.613 83.0554 123.419 82.9276 123.201 82.9071L99.2638 80.4318C98.7599 80.3806 98.3884 80.8921 98.592 81.3575L98.5971 81.3626Z" fill="#CCD7E4"/>
<path d="M93.9694 65.7332L109.402 66.8941C110.089 66.9453 110.521 66.173 110.124 65.6104L94.967 44.2274C94.7532 43.9256 94.3613 43.808 94.0152 43.9409L89.2613 45.7668C88.8847 45.91 88.6709 46.3089 88.7574 46.7027L92.6358 64.5773C92.7733 65.2166 93.3128 65.6871 93.9643 65.7383L93.9694 65.7332Z" fill="#CCD7E4"/>
</svg>
