<svg width="561" height="472" viewBox="0 0 561 472" fill="none" xmlns="http://www.w3.org/2000/svg">
<path opacity="0.5" d="M280.548 472C410.782 472 516.358 366.339 516.358 236C516.358 105.661 410.782 0 280.548 0C150.314 0 44.7383 105.661 44.7383 236C44.7383 366.339 150.314 472 280.548 472Z" fill="#809BBA"/>
<path d="M122.986 392.584C128.416 388.744 129.406 388.652 132.964 384.871C138.292 379.196 140.079 375.608 141.9 369.673C142.252 368.525 143.041 366.035 145.332 363.956C149.267 360.393 151.39 361.424 155.057 361.03C156.903 360.837 158.389 360.41 159.563 359.865C169.037 355.481 169.07 344.34 169.532 339.813C170.245 333.324 171.537 331.497 173.912 326.383C175.943 322.016 178.25 318.461 180.34 315.687C181.061 314.731 181.909 313.901 182.798 313.105C184.636 311.453 185.601 309.005 185.332 306.532C184.997 303.481 183.503 302.626 179.87 300.01L172.662 294.084C171.856 293.421 171.328 292.491 171.168 291.468L170.883 289.599C170.74 288.693 170.304 287.847 169.633 287.226C166.276 284.1 162.744 281.166 159.572 277.854C158.699 276.949 157.927 275.826 155.485 275.448C153.228 275.105 153.052 275.356 151.223 275.8C147.589 276.689 143.687 277.234 139.97 277.678C139.416 277.745 138.93 277.259 139.047 276.714C139.165 276.153 139.106 275.574 138.854 275.063C138.435 274.224 137.553 273.68 136.58 273.629C136.135 273.612 135.833 273.177 135.926 272.741C136.857 268.625 138.216 265.758 138.779 261.331C139.047 258.976 139.064 258.33 138.988 257.635C138.518 253.007 133.349 250.652 132.88 250.442L118.178 242.235C116.576 241.338 115.267 240.005 114.402 238.387L111.516 232.955C110.853 231.706 109.896 230.633 108.73 229.837C103.821 226.467 98.9208 223.088 94.012 219.718C93.4246 219.291 91.1925 217.782 88.071 218.025C84.4041 218.318 83.5902 219.693 81.8952 221.261C81.1148 221.982 79.4198 223.231 76.936 223.792C74.469 224.354 72.3545 223.952 71.0371 223.541C70.735 223.449 70.5252 223.44 70.3154 223.549C69.8539 223.792 69.2917 223.533 69.0903 223.055L68.9141 222.636C68.7211 222.175 68.6204 221.68 68.6037 221.185L68.3603 207.882C68.268 201.804 66.9758 203.162 65.2556 201.477C64.7857 201.016 64.5927 199.893 64.5256 198.61C64.4752 197.671 64.8528 197.034 65.1381 196.523C67.4541 192.289 67.538 187.838 68.612 182.909C68.8134 182.003 68.9393 181.391 68.4023 180.914C67.8317 180.411 67.0093 180.595 66.3129 181.056C62.8557 183.336 61.9159 185.633 60.5314 189.364C60.3216 189.758 59.3818 191.376 57.3596 192.038C56.8561 192.205 56.3778 192.281 55.9415 192.306C55.052 192.356 54.4227 191.451 54.7919 190.638L70.4413 156.972C70.7686 156.259 71.6916 156.066 72.279 156.569C72.5391 156.787 72.7992 157.014 73.0593 157.232C73.7558 157.827 74.8466 157.492 75.0816 156.603C75.1403 156.385 75.1991 156.201 75.2662 156.025C76.4829 152.948 80.8043 151.12 86.032 151.531C87.6515 151.649 89.2374 152.437 91.931 151.129C93.6679 150.282 94.7 149.008 95.9587 147.516C110.895 133.005 124.178 120.112 139.123 105.601C140.507 103.857 142.915 102.256 145.038 103.103C146.842 103.824 147.984 105.752 147.824 107.789C147.774 108.476 148.286 109.071 148.965 109.139C151.382 109.398 151.516 109.6 153.916 110.002C159.27 110.891 161.284 110.136 161.904 108.409C162.374 107.101 161.577 106.179 160.193 104.276C158.296 101.678 156.014 99.3975 153.916 96.9497C153.69 96.7737 150.879 94.4683 151.382 92.5151C151.869 90.6122 157.86 89.4973 161.2 90.8721L165.261 93.169C167.585 94.6276 169.683 94.3342 169.733 93.848C169.876 92.5822 167.258 91.2158 168.852 90.7463C170.572 90.2433 175.867 89.3212 180.726 87.2255C185.014 85.3728 188.278 83.0507 190.627 81.173C191.802 79.8065 194.613 77.8617 189.637 78.4233C187.808 78.5659 185.207 77.0905 184.141 73.9552C183.319 71.5409 183.931 69.2021 186.751 66.2932C187.078 65.9579 186.759 65.3962 186.297 65.4549L174.525 67.8356C173.627 67.9782 173.073 67.7518 173.149 66.8465L173.375 64.1388C173.535 62.3364 172.88 61.3388 171.772 60.752C170.254 59.9557 168.147 60.4335 166.486 61.758C164.85 63.0238 165.236 62.6131 163.423 64.0968C161.812 65.4214 160.016 68.062 158.741 68.6991C157.768 69.1685 156.685 69.3362 155.62 69.1937L153.715 68.9422C153.337 68.8919 152.968 69.1182 152.85 69.4787L152.129 71.608C151.659 72.9912 150.761 74.1899 149.57 75.0366C146.003 77.5599 138.879 82.2711 137.889 82.9334C137.033 83.5034 136.328 84.2663 135.816 85.1549C133.702 88.8098 131.99 91.6098 131.478 91.4002C130.815 91.1236 129.783 89.1955 133.274 81.349C133.383 81.0975 133.182 80.8293 132.913 80.8712C128.08 81.6508 124.522 79.3287 124.245 77.1575C124.019 75.3719 125.932 73.1588 128.76 71.8762C139.735 66.6201 152.297 63.8454 161.678 56.0995C162.492 55.4288 163.062 54.5989 162.802 53.2828C162.483 51.6397 160.898 49.653 157.021 50.8182L130.874 64.7507C130.119 65.1531 129.213 65.1531 128.457 64.7591L121.761 61.255C83.5398 95.9521 56.7554 143.006 47.7266 196.095L51.662 194.066C52.1487 197.26 52.6354 200.454 53.122 203.648C53.2395 204.411 53.894 204.964 54.666 204.998C54.8171 204.998 54.9513 205.023 55.0772 205.04C55.6646 205.132 58.6602 206.8 59.1804 210.22C59.9776 215.292 60.9174 218.779 62.8474 223.08C64.9619 227.808 67.2107 230.633 69.2582 232.653C70.4413 233.819 70.9196 235.529 70.4833 237.13C66.0863 248.246 70.9783 246.745 66.3213 252.471C65.9856 252.839 63.8207 255.287 64.3913 258.389C64.5843 259.445 65.029 260.25 65.3815 260.736C66.2458 261.969 66.5814 262.513 66.4639 263.695C66.3297 265.037 65.0962 265.816 64.8193 265.992C62.8138 267.602 60.8503 269.17 61.0936 274.04C61.2446 277.016 62.7718 279.112 63.9214 280.294C64.8696 281.258 65.6164 282.406 66.1367 283.655C67.7813 287.612 69.4344 291.56 71.079 295.517C71.5154 296.565 71.7503 297.688 71.7923 298.828C71.9014 301.897 72.3964 305.82 73.8733 310.137C76.4158 317.573 80.6617 322.661 83.607 325.57C84.5384 326.492 84.7062 327.674 85.0167 328.295C87.3074 334.607 88.2305 333.635 88.7843 338.555C89.1703 341.984 88.5493 345.287 88.1298 347.123C86.955 353.804 87.1984 356.596 88.4235 363.017C90.001 371.308 94.8175 380.453 98.6774 386.414C105.508 394.637 112.884 402.392 120.754 409.618C120.637 403.423 118.271 395.895 122.978 392.567L122.986 392.584Z" fill="#6687AD"/>
<path d="M198.979 43.9533C196.906 43.6516 195.505 43.9533 194.389 44.2467C193.952 44.3641 193.499 44.3809 193.054 44.3222C191.804 44.1545 189.069 44.0623 187.206 45.982C186.476 46.7365 186.098 47.5832 185.888 48.237L183.715 52.2106C183.371 52.8393 182.784 53.292 182.087 53.4513C180.77 53.7447 180.342 54.3901 180.25 54.5327C179.31 56.0416 180.51 59.1852 183.975 61.6163C189.723 62.4713 190.797 62.3204 193.91 62.027C194.699 61.9516 195.438 61.5911 195.975 61.0127L203.728 52.7052C204.097 52.3028 204.366 51.8166 204.483 51.2884C204.609 50.7268 204.701 50.0813 204.735 49.3687C204.802 47.8095 205.213 47.0467 204.265 45.6635C203.225 45.1186 201.068 44.2635 198.979 43.9617V43.9533Z" fill="#6687AD"/>
<path d="M255.195 61.2309C255.304 61.2477 255.404 61.2812 255.513 61.3148C256.604 61.7172 258.249 62.1447 260.221 62.0357C264.442 61.801 267.286 59.2777 268.335 58.2131C268.511 58.0286 268.729 57.8945 268.964 57.8023C279.101 53.8204 280.208 56.285 283.884 56.9137C285.478 57.1903 286.997 57.8778 288.608 58.037C293.231 58.4897 296.378 58.5819 298.56 58.4897C300.658 58.3975 301.757 55.9329 300.414 54.3234C299.558 53.3007 298.837 51.9258 298.602 50.1235C298.593 50.0481 298.585 49.9726 298.585 49.8972C298.568 48.5056 300.23 47.7092 301.379 48.5056C301.748 48.7571 302.202 49.0086 302.739 49.2014C304.887 49.9475 306.825 49.1427 307.438 48.8493C307.496 48.8158 307.563 48.7906 307.631 48.7655C314.243 46.3428 321.669 45.144 327.711 41.8579C328.415 41.4723 328.214 40.4076 327.425 40.2903C319.739 38.8903 311.843 37.5658 303.737 36.3419C294.801 34.9839 286.065 33.8102 277.548 32.7959C275.526 32.5528 273.504 32.4019 271.473 32.3097C261.589 31.857 251.184 31.6893 240.3 31.9073C234.343 32.0247 228.544 32.251 222.905 32.5612C221.127 32.6618 219.759 34.1539 219.809 35.9227L220.103 46.7787C220.128 47.6924 220.824 48.4469 221.731 48.5559C230.223 49.5367 234.485 50.6516 234.519 51.9007C234.552 53.0659 230.894 54.3401 223.535 55.7317C223.392 55.7569 223.241 55.7988 223.107 55.8658C218.802 57.8191 218.827 62.4465 219.818 65.2799C221.278 69.4463 228.553 72.4054 236.348 68.9014C236.482 68.8427 236.617 68.7589 236.734 68.6666C247.533 60.2418 250.202 60.3591 255.211 61.2477L255.195 61.2309Z" fill="#6687AD"/>
<path d="M194.871 93.0683L190.172 90.1343C189.711 89.1703 189.098 88.6924 188.737 88.4577C187.143 88.1392 184.986 88.2733 182.628 89.2876C179.364 90.4361 177.577 89.3379 176.192 90.8385C174.892 92.2468 174.153 92.9091 173.751 93.6552C171.703 94.0072 170.436 94.0995 170.369 95.0886C170.327 95.6755 170.982 96.1198 173.121 97.8802C177.728 102.482 179.457 100.32 182.075 98.7269C185.154 96.8491 185.49 95.6838 188.855 94.9461C189.677 94.7617 190.457 94.6779 191.154 94.6527C191.573 94.636 191.985 94.5857 192.396 94.4851C193.176 94.2923 193.956 94.1078 194.745 93.915C195.148 93.8144 195.232 93.2863 194.879 93.0683H194.871Z" fill="#6687AD"/>
<path d="M478.925 107.95H473.101C467.336 107.715 462.251 101.729 460.649 99.642C460.187 99.0384 459.667 98.4768 459.096 97.9738C457.208 96.3139 454.104 94.0925 449.765 92.8015C445.956 91.6698 442.641 91.6949 440.535 91.8877C439.167 92.047 436.054 92.3236 435.811 91.5356C435.551 90.6973 442.952 86.1035 446.384 83.8317C446.728 83.6054 446.552 83.0688 446.14 83.094L438.387 83.5131C437.59 83.5551 435.794 83.27 435.148 82.809C435.148 82.809 422.847 76.0858 410.268 63.5533C408.196 61.4911 405.83 60.9797 399.662 66.261C393.386 73.0931 386.278 74.6943 384.13 70.5363C383.098 68.5495 379.364 68.9352 379.364 68.9352C369.144 69.9914 366.341 78.3241 367.474 81.4677C368.774 85.064 374.808 84.6113 377.526 85.1311C381.336 86.4472 382.393 88.9621 381.755 90.6219C381.151 92.1895 379.825 92.2985 377.812 92.4494C367.977 93.1871 360.761 92.6757 351.942 92.726C351.43 92.726 350.935 92.8602 350.49 93.12L341.352 98.3845C340.79 98.7031 340.698 99.4659 341.142 99.927C341.671 100.48 342.258 101.26 342.67 102.308C343.534 104.529 343.148 106.533 342.846 107.094C339.775 112.795 338.793 116.576 339.355 121.354C339.397 121.731 339.036 122.025 338.684 121.899C337.601 120.742 329.403 112.216 321.7 114.522H321.675C320.316 114.941 319.057 115.821 318.847 117.389C315.944 139.302 316.246 142.89 321.776 145.665C322.858 146.209 325.107 146.939 329.076 145.597C329.781 145.354 330.528 145.254 331.275 145.254H338.105C338.667 145.254 339.179 144.944 339.431 144.441C340.354 142.605 341.872 140.165 344.331 137.86C348.552 133.895 353.159 132.52 355.399 132.017C364.495 130.466 363.001 128.186 370.234 129.41C374.304 130.097 377.778 131.313 379.079 132.998C384.508 140.04 388.099 142.948 392.614 147.928C392.874 148.305 394.283 149.42 395.081 149.722C396.725 150.351 397.959 147.609 399.771 146.796C401.5 146.025 401.97 147.458 402.347 147.92L406.576 153.972C407.105 155.414 407.592 156.017 408.691 156.261C409.84 156.512 410.453 154.911 411.653 154.961C413.348 155.028 412.777 154.928 413.91 156.227C414.506 158.272 414.665 158.465 415.563 158.482C416.486 158.499 417.258 157.51 417.292 156.227C417.351 153.972 419.977 154.031 423.14 155.104C426.304 156.076 429.761 155.037 431.85 152.497C433.982 149.89 434.275 146.209 432.589 143.275C430.206 135.932 438.337 135.421 440.837 138.195C443.875 143.057 445.872 145.296 446.829 144.918C447.215 144.768 447.424 144.122 447.466 143.116C447.5 142.345 447.768 141.582 448.322 141.037C449.035 140.325 450.126 140.073 451.267 143.686L457.049 158.189C457.754 159.949 458.106 161.349 457.192 161.995C456.436 162.523 455.471 161.533 454.087 161.29C426.522 156.42 421.362 162.514 436.189 169.304C437.632 169.967 439.209 170.285 440.795 170.277C442.557 170.269 445.142 170.646 446.896 172.633C447.659 173.496 448.07 174.443 448.305 175.24C448.515 179.808 448.725 184.385 448.943 188.954C448.985 189.767 448.331 190.455 447.517 190.455H432.958C432.421 190.455 432.01 190.916 432.06 191.444L432.731 197.907C432.782 198.36 433.017 198.771 433.394 199.031L444.362 206.734C449.061 209.92 464.425 251.751 464.425 251.751C467.252 260.344 468.033 261.878 469.04 261.928C469.896 261.97 469.904 259.891 471.44 258.902C476.021 255.943 478.581 256.462 483.749 255.171C489.867 253.461 494.65 248.876 496.042 243.125C497.888 235.48 493.357 227.147 485.159 223.341C478.631 220.306 474.612 218.898 476.164 211.714C477.431 209.476 481.475 206.676 486.527 211.856C489.59 215 491.956 218.798 494.222 220.038C495.044 220.491 495.807 221.036 496.403 221.748C497.251 222.763 498.149 223.727 499.139 224.607C500.263 225.613 501.455 226.845 502.604 228.337C506.263 233.107 507.496 238.003 507.958 240.828C509.023 256.177 510.098 271.535 511.163 286.884C514.788 270.462 516.693 253.402 516.693 235.899C516.693 188.728 502.831 144.784 478.958 107.924L478.925 107.95Z" fill="#6687AD"/>
<path d="M417.486 343.291C417.939 341.648 418.56 340.055 419.29 338.521C422.076 332.67 424.308 328.688 425.029 328.185C426.372 327.255 426.859 327.976 429.368 326.844C431.667 325.109 433.588 322.77 435.888 321.034C440.477 317.522 448.298 310.396 452.099 298.962C453.056 296.095 453.895 295.55 453.928 290.898C453.693 289.858 453.509 288.291 453.962 286.53C454.465 284.585 455.498 283.311 456.043 282.724C457.243 281.4 458.317 279.421 459.727 277.217C460.574 275.892 460.977 275.045 460.767 274.593C459.903 273.243 458.971 274.35 454.356 273.713C453.643 273.528 452.963 273.302 452.309 273.042C441.887 268.867 443.431 256.108 437.356 249.771C436.643 249.184 435.669 248.22 434.83 246.837C432.657 243.274 433.009 239.577 433.211 238.219C433.454 236.09 433.815 232.167 432.951 228.126C432.162 224.446 431.499 223.038 429.888 220.246C429.368 219.341 428.998 218.351 428.814 217.32C427.547 210.362 424.878 205.685 425.105 204.167C425.239 203.262 425.667 202.415 426.296 201.745C426.682 201.334 427.102 200.881 427.412 200.546C427.622 200.311 427.79 200.043 427.882 199.741C428.562 197.595 428.663 195.86 428.554 194.77C428.47 193.865 428.277 193.06 428.059 192.373C427.656 191.14 426.657 190.193 425.407 189.833C417.184 187.485 411.62 184.719 403.397 182.372C402.617 182.145 401.895 181.751 401.283 181.206C400.561 180.913 399.68 180.469 398.774 179.781C397.129 178.541 396.181 177.099 395.669 176.168C394.318 174.207 392.984 173.218 391.994 175.38C391.012 177.526 390.072 179.547 390.072 179.547C389.183 181.332 389.308 183.285 388.52 183.822C387.278 184.66 386.095 184.099 383.586 182.464C381.765 181.274 380.229 180.578 379.323 179.874C377.024 178.08 374.381 175.296 373.021 171.315C372.887 170.912 372.702 170.535 372.4 170.258C371.788 169.697 370.848 169.554 370.009 169.873C369.002 170.25 367.878 170.25 366.837 169.982C366.812 169.982 366.795 169.973 366.77 169.965C365.78 169.705 364.655 169.278 363.523 168.565C361.45 167.266 360.149 165.547 359.352 164.063C358.849 163.141 358.572 162.11 358.521 161.062C358.396 158.22 357.464 151.514 350.474 151.916L331.896 151.715L313.377 151.053C305.011 150.961 302.1 148.362 294.296 155.311C291.695 157.625 290.159 160.283 289.244 162.529C288.237 164.994 286.106 166.813 283.513 167.425C278.982 168.481 272.093 171.222 267.57 178.306C263.66 184.434 263.475 190.746 263.903 194.703C264.13 196.807 263.081 198.861 261.21 199.842C258.281 201.376 256.267 203.648 255.873 206.255C255.831 206.515 255.806 206.808 255.797 207.127C255.781 208.434 255.487 209.725 254.849 210.865C253.087 214.051 251.124 218.838 251.006 224.773C250.972 226.349 251.082 227.807 251.258 229.14C251.417 230.306 251.501 231.488 251.501 232.661V254.046C251.501 255.337 252.122 256.553 253.171 257.307L272.361 271.173C273.192 271.625 275.609 272.807 278.772 272.371C282.85 271.81 283.53 269.504 285.611 268.356C292.886 264.273 295.479 265.271 297.946 265.707C305.036 267.333 314.04 270.217 319.444 268.918C320.417 268.666 321.399 268.985 321.911 269.689C322.339 270.284 322.289 270.955 322.263 271.164C322.221 271.458 321.777 275.238 324.663 277.762C326.862 279.681 329.799 278.969 332.836 278.768C333.507 278.726 337.468 279.379 339.323 283.278C340.657 286.086 340.128 288.651 339.608 289.33C336.268 293.748 335.27 297.822 336.721 299.331C337.032 299.65 337.653 299.633 338.903 300.035C339.541 300.236 339.826 300.714 339.75 301.796C339.683 302.701 338.995 303.204 338.903 303.271C337.829 304.067 337.376 305.459 337.779 306.725C338.165 307.957 339.557 308.125 340.598 308.904C342.108 310.036 342.352 311.495 342.57 314.119C342.746 316.239 342.209 317.899 341.865 318.763C339.633 321.99 336.545 327.322 334.817 334.539C333.952 338.169 333.617 341.506 333.549 344.356C333.482 347.508 333.239 350.66 332.702 353.77C332.115 357.115 331.729 361.055 331.854 365.456C331.989 370.025 332.643 373.998 333.407 377.217C335.429 388.769 337.451 400.312 339.465 411.864C340.027 414.572 340.204 415.804 341.79 417.212C344.206 419.065 348.142 418.755 350.885 416.089C363.959 405.35 370.579 403.917 374.07 403.171C376.436 402.668 378.685 402.4 380.775 402.282C381.135 402.257 384.542 401.93 386.481 398.828C388.385 395.777 387.253 392.633 387.118 392.281C386.749 391.653 386.732 390.881 387.085 390.278C387.504 389.549 388.352 389.381 389.233 389.331C391.591 389.188 392.38 388.249 394.234 386.053C396.256 383.672 396.617 381.107 396.701 380.176C396.709 379.355 396.793 378.064 397.162 376.547C398.262 372.003 401.064 369.044 402.625 367.635C416.017 353.871 416.303 347.139 416.898 345.278C417.117 344.599 417.31 343.937 417.494 343.266L417.486 343.291Z" fill="#6687AD"/>
<path d="M458.338 357.662L458.405 355.709C458.422 355.29 457.952 355.03 457.608 355.273L454.973 357.092C454.621 357.335 454.134 357.293 453.824 356.992L450.82 354.041C450.534 353.756 450.039 353.923 449.989 354.326C449.544 357.453 449.88 359.875 448.646 363.715C447.925 365.953 446.389 368.686 444.207 371.603C442.387 374.026 440.515 375.878 438.921 377.236C438.921 377.236 418.338 390.758 418.338 391.32C416.399 392.351 415.317 394.489 415.661 396.601C415.971 398.554 417.44 400.164 419.395 400.684C424.505 401.421 427.081 400.189 430.32 396.878C430.664 396.526 431.621 395.763 433.072 395.536C435.061 395.235 436.513 396.274 436.882 396.45C439.315 397.649 442.605 397.439 446.683 394.405C450.853 391.303 452.498 384.513 450.845 379.827C450.509 378.879 450.769 376.121 452.464 373.347C453.983 370.857 455.351 369.616 456.979 369.189C458.842 368.703 460.587 367.923 461.141 366.163C461.527 364.913 461.107 362.541 459.597 360.906C458.774 360.018 458.313 358.853 458.355 357.645L458.338 357.662Z" fill="#809BBA"/>
<path fill-rule="evenodd" clip-rule="evenodd" d="M454.64 202.117H526.861C529.94 202.117 532.431 204.608 532.431 207.687C532.431 210.767 529.94 213.258 526.861 213.258H525.339C528.36 216.613 531.162 219.647 533.768 222.472C561.363 252.364 566.194 257.6 555.32 342.536L546.545 417.047C546.061 421.095 542.636 424.151 538.554 424.151H442.925C438.843 424.151 435.406 421.095 434.933 417.047L426.158 342.536C415.273 257.6 420.116 252.364 447.71 222.472C450.316 219.647 453.13 216.602 456.139 213.258H454.629C451.55 213.258 449.059 210.767 449.059 207.687C449.059 204.608 451.562 202.117 454.64 202.117Z" fill="#456080"/>
<path d="M518.741 221.734H462.757C460.335 221.734 458.006 222.761 456.368 224.56C426.433 257.381 420.702 257.462 431.357 340.611L439.429 409.125C439.867 412.85 443.027 415.652 446.774 415.652H534.712C538.46 415.652 541.619 412.85 542.058 409.125L550.129 340.611C560.784 257.45 555.053 257.381 525.118 224.56C523.481 222.772 521.174 221.734 518.741 221.734Z" fill="#809BBA"/>
<path d="M534.811 278.395H446.666C444.325 278.395 442.434 280.286 442.434 282.627V301.817C442.434 304.158 444.325 306.049 446.666 306.049H534.811C537.152 306.049 539.043 304.158 539.043 301.817V282.627C539.043 280.286 537.152 278.395 534.811 278.395Z" fill="#456080"/>
<path fill-rule="evenodd" clip-rule="evenodd" d="M480.02 282.928C475.062 282.928 471.602 286.814 471.602 292.373C471.602 297.931 474.958 301.518 479.766 301.518C483.952 301.518 488.184 298.589 488.184 292.05C488.184 286.595 484.898 282.928 480.02 282.928ZM484.725 292.142C484.725 295.348 483.226 298.577 479.893 298.577C476.561 298.577 475.085 295.337 475.085 292.315C475.085 289.098 476.584 285.857 479.916 285.857C483.249 285.857 484.725 289.121 484.725 292.142ZM472.559 283.205H458.906V286.214H464.038V301.241H467.393V286.214H472.559V283.205ZM498.585 283.205H502.46L496.96 292.004L502.564 301.241H498.678L496.36 297.216C495.783 296.282 495.322 295.51 494.907 294.783C494.55 295.464 494.134 296.213 493.523 297.251L491.344 301.241H487.481L492.993 292.119L487.688 283.205H491.574L493.973 287.46C494.111 287.714 494.25 287.956 494.377 288.187C494.619 288.625 494.838 289.017 495.045 289.397C495.368 288.752 495.703 288.152 496.118 287.448L498.585 283.205ZM506.842 283.205H503.509V301.241H506.842V283.205ZM517.854 298.508C519.077 298.508 520.345 298.254 521.164 297.862H521.141L521.775 297.562L522.524 300.422L522.109 300.63C521.279 301.045 519.595 301.495 517.393 301.495C511.985 301.495 508.479 297.931 508.479 292.373C508.479 286.814 512.342 282.928 517.866 282.928C520.391 282.928 521.775 283.55 522.144 283.747L522.571 283.966L521.717 286.849L521.106 286.549C520.622 286.307 519.549 285.903 517.958 285.903C514.199 285.903 511.95 288.394 511.95 292.292C511.95 296.19 514.153 298.508 517.854 298.508Z" fill="#809BBA"/>
<path fill-rule="evenodd" clip-rule="evenodd" d="M484.599 342.538V339.886C484.08 339.609 483.538 339.597 482.984 339.586C481.059 339.528 479.144 339.471 478.568 328.538C478.487 326.935 478.833 325.343 479.617 323.936C480.113 323.06 480.782 322.103 481.704 321.203C485.244 317.755 489.753 317.732 490.722 317.755C491.69 317.732 496.188 317.755 499.739 321.203C500.662 322.103 501.331 323.048 501.826 323.936C502.599 325.332 502.956 326.935 502.876 328.538C502.299 339.471 500.385 339.528 498.448 339.586C497.894 339.597 497.352 339.62 496.833 339.886V342.538C496.833 343.83 495.784 344.879 494.493 344.879H486.94C485.648 344.879 484.599 343.83 484.599 342.538ZM496.038 329.287C494.988 328.572 493.132 328.803 492.382 329.656H492.394C492.152 329.933 492.059 330.36 492.082 330.833C492.129 331.998 492.774 333.047 493.697 333.739C494.273 334.177 494.792 334.454 495.807 334.834C496.879 335.25 499.174 334.258 498.136 331.871C497.445 330.637 497.018 330.118 496.038 329.287ZM493.316 336.172L490.849 333.335H490.872C490.641 333.082 490.249 333.082 490.03 333.335L487.562 336.172C487.378 336.38 487.355 336.68 487.493 336.91L488.116 337.948C488.266 338.179 488.519 338.329 488.796 338.329H492.082C492.359 338.329 492.624 338.19 492.763 337.948L493.385 336.91C493.524 336.68 493.501 336.38 493.316 336.172ZM484.829 329.287C483.849 330.118 483.422 330.637 482.731 331.871C481.693 334.258 483.987 335.25 485.06 334.834C486.075 334.454 486.594 334.177 487.17 333.739C488.093 333.035 488.738 331.986 488.785 330.833C488.808 330.371 488.715 329.933 488.473 329.656C487.724 328.803 485.867 328.572 484.829 329.287ZM506.208 357.334C506.646 356.481 507.627 355.95 508.699 356.227C509.449 356.423 510.048 357.046 510.221 357.796C510.429 358.695 510.06 359.537 509.414 360.021C509.183 360.194 509.033 360.448 509.033 360.736C509.045 361.163 508.907 361.636 508.388 362.189C507.95 362.662 507.338 362.985 506.693 362.928C505.597 362.835 504.744 361.913 504.744 360.794C504.744 360.379 504.871 359.987 505.078 359.652L490.733 352.802L476.388 359.652C476.596 359.987 476.723 360.367 476.723 360.794C476.723 361.901 475.869 362.824 474.774 362.928C474.128 362.985 473.529 362.662 473.079 362.189C472.56 361.636 472.422 361.163 472.433 360.736C472.433 360.448 472.283 360.194 472.053 360.021C471.407 359.548 471.038 358.707 471.245 357.796C471.418 357.046 472.018 356.423 472.768 356.227C473.84 355.95 474.82 356.481 475.258 357.334L487.747 351.372L475.316 345.433C474.924 346.367 473.898 346.967 472.779 346.678C472.03 346.482 471.43 345.86 471.257 345.11C471.049 344.21 471.418 343.369 472.064 342.884C472.295 342.711 472.445 342.457 472.445 342.169C472.422 341.742 472.571 341.27 473.09 340.716C473.529 340.243 474.14 339.92 474.786 339.978C475.881 340.07 476.734 340.993 476.734 342.111C476.734 342.48 476.619 342.815 476.458 343.115L490.733 349.93L505.009 343.115C504.848 342.815 504.732 342.48 504.732 342.111C504.732 341.004 505.586 340.082 506.681 339.978C507.327 339.92 507.926 340.243 508.376 340.716C508.895 341.27 509.033 341.742 509.022 342.169C509.022 342.457 509.172 342.711 509.402 342.884C510.048 343.357 510.417 344.199 510.21 345.11C510.037 345.86 509.437 346.482 508.688 346.678C507.569 346.967 506.543 346.367 506.151 345.433L493.72 351.372L506.208 357.334Z" fill="#456080"/>
<path d="M351.359 214.409C353.827 214.409 355.776 212.195 355.337 209.646C354.991 207.674 353.135 206.336 351.14 206.336H349.606C349.526 206.336 349.445 206.267 349.445 206.175V144.719C349.445 144.638 349.514 144.557 349.606 144.557H351.14C353.135 144.557 355.003 143.208 355.337 141.247C355.776 138.699 353.827 136.484 351.359 136.484H179.9C177.975 136.484 176.222 137.788 175.841 139.679C175.322 142.274 177.294 144.557 179.796 144.557H181.722V206.325H179.912C177.986 206.325 176.233 207.628 175.853 209.519C175.334 212.114 177.306 214.398 179.808 214.398H181.734V326.793H179.762C178.228 326.793 176.764 327.646 176.153 329.053C174.873 332.005 177.017 334.865 179.808 334.865H181.734V396.633H179.762C178.228 396.633 176.764 397.487 176.153 398.894C174.873 401.846 177.017 404.706 179.808 404.706H351.301C353.054 404.706 354.692 403.633 355.222 401.961C356.087 399.182 354.034 396.633 351.394 396.633H349.468V334.865H351.313C353.066 334.865 354.703 333.793 355.234 332.121C356.098 329.341 354.046 326.793 351.405 326.793H349.48V214.559C349.48 214.478 349.549 214.398 349.641 214.398L351.359 214.409Z" fill="#456080"/>
<path fill-rule="evenodd" clip-rule="evenodd" d="M341.297 148.34H189.73C187.965 148.34 186.547 149.781 186.547 151.534V202.842C186.547 204.607 187.977 206.025 189.73 206.025H341.297C343.142 206.025 344.641 204.526 344.641 202.681V151.684C344.641 149.839 343.142 148.34 341.297 148.34ZM341.31 218.128H189.742C187.978 218.128 186.559 219.558 186.559 221.311V319.89C186.559 321.654 187.989 323.073 189.742 323.073H341.459C343.224 323.073 344.642 321.643 344.642 319.89V221.461C344.642 219.615 343.155 218.128 341.31 218.128ZM189.73 335.177H341.458C343.211 335.177 344.641 336.607 344.641 338.36V389.667C344.641 391.42 343.211 392.85 341.458 392.85H189.73C187.965 392.85 186.547 391.42 186.547 389.667V338.36C186.547 336.607 187.965 335.177 189.73 335.177Z" fill="#809BBA"/>
<path d="M265.599 233.887C245.327 233.887 228.895 250.32 228.895 270.594C228.895 290.869 245.327 307.302 265.599 307.302C285.871 307.302 302.303 290.869 302.303 270.594C302.303 250.32 285.871 233.887 265.599 233.887Z" fill="#456080"/>
<path d="M237.344 282.053C239.27 274.81 245.013 270.047 250.824 270.071C250.709 270.82 250.628 271.581 250.628 272.365C250.628 278.374 254.203 283.552 259.323 285.928V285.951C256.567 291.175 249.51 293.931 242.153 292.04C247.676 296.295 254.422 297.506 259.577 294.923C262.01 293.712 263.624 291.878 264.639 290.379C265.481 291.29 269.517 295.407 276.101 295.765C283.481 296.168 288.29 291.521 289.039 290.771C282.143 294.081 274.544 292.294 271.096 287.381C270.889 287.081 270.704 286.781 270.531 286.481C276.355 284.428 280.54 278.893 280.54 272.377C280.54 271.593 280.46 270.832 280.344 270.082C286.156 270.047 291.922 274.81 293.848 282.053C294.851 275.145 292.602 268.675 287.828 265.446C285.568 263.924 283.193 263.416 281.382 263.266C281.763 262.079 283.377 256.543 280.46 250.627C277.185 243.996 270.773 242.081 269.759 241.793C276.009 246.175 278.177 253.683 275.582 259.092C275.328 259.611 275.04 260.083 274.729 260.533C272.192 258.573 269.044 257.396 265.596 257.396C262.148 257.396 258.988 258.573 256.463 260.533C256.152 260.083 255.864 259.611 255.61 259.092C253.004 253.683 255.183 246.175 261.433 241.793C260.407 242.081 253.995 243.996 250.732 250.627C247.826 256.543 249.441 262.09 249.81 263.266C247.999 263.405 245.624 263.924 243.364 265.446C238.59 268.687 236.341 275.145 237.344 282.053ZM253.108 270.336C256.498 271.097 258.85 273.323 259.692 274.188L264.466 265.7C263.797 265.538 260.568 264.731 257.962 262.286C260.084 260.683 262.725 259.714 265.584 259.714C268.444 259.714 271.085 260.672 273.207 262.286C270.601 264.731 267.372 265.538 266.703 265.7L271.477 274.188C272.33 273.311 274.671 271.108 278.05 270.347C278.165 271.005 278.234 271.685 278.234 272.377C278.234 277.936 274.636 282.652 269.643 284.348C268.525 280.657 269.494 277.105 269.69 276.413H259.957C260.292 277.532 261.041 280.554 260.165 283.783C255.898 281.741 252.935 277.394 252.935 272.365C252.935 271.674 253.004 270.993 253.108 270.336Z" fill="#809BBA"/>
<path d="M200.388 256.952C202.89 256.952 204.862 254.669 204.343 252.074C203.963 250.183 202.21 248.88 200.284 248.88H198.474V187.112H200.284C202.21 187.112 203.963 185.809 204.343 183.917C204.862 181.322 202.89 179.039 200.388 179.039H39.8261C37.9003 179.039 36.1476 180.342 35.767 182.234C35.2481 184.828 37.22 187.112 39.7223 187.112H41.648V248.88H39.8376C37.9119 248.88 36.1591 250.183 35.7786 252.074C35.2597 254.669 37.2315 256.952 39.7338 256.952H41.6595V349.858H39.8491C37.9234 349.858 36.1706 351.161 35.7901 353.052C35.2712 355.647 37.243 357.93 39.7453 357.93H41.6711V419.698H39.8606C37.9349 419.698 36.1822 421.001 35.8016 422.893C35.2827 425.487 37.2546 427.771 39.7569 427.771H200.469C202.002 427.771 203.467 426.917 204.078 425.51C205.358 422.558 203.213 419.698 200.422 419.698H198.497V357.93H200.469C202.002 357.93 203.467 357.077 204.078 355.67C205.358 352.718 203.213 349.858 200.422 349.858H198.497V256.952H200.388Z" fill="#456080"/>
<path fill-rule="evenodd" clip-rule="evenodd" d="M190.67 190.715H49.4728C47.7164 190.715 46.2969 192.135 46.2969 193.891V245.072C46.2969 246.829 47.7164 248.249 49.4728 248.249H190.67C192.427 248.249 193.846 246.829 193.846 245.072V193.891C193.846 192.135 192.427 190.715 190.67 190.715ZM190.67 260.236H49.4728C47.7164 260.236 46.2969 261.656 46.2969 263.412V343.601C46.2969 345.358 47.7164 346.777 49.4728 346.777H190.67C192.427 346.777 193.846 345.358 193.846 343.601V263.412C193.846 261.656 192.427 260.236 190.67 260.236ZM49.4728 358.765H190.67C192.427 358.765 193.846 360.184 193.846 361.941V413.122C193.846 414.879 192.427 416.299 190.67 416.299H49.4728C47.7164 416.299 46.2969 414.879 46.2969 413.122V361.941C46.2969 360.184 47.7164 358.765 49.4728 358.765Z" fill="#809BBA"/>
<path fill-rule="evenodd" clip-rule="evenodd" d="M134.355 276.884C130.089 274.681 125.234 273.424 120.091 273.424C114.221 273.424 108.744 275.05 104.062 277.864L105.165 279.675C96.8453 284.685 91.2305 293.748 91.0725 304.112H88.9688V304.562C88.9688 316.106 95.2648 326.185 104.594 331.559L105.602 329.706C109.869 332.175 114.819 333.589 120.093 333.589C125.686 333.589 130.914 331.999 135.35 329.247L136.454 331.063C145.333 325.574 151.237 315.76 151.237 304.562V304.112H149.114C148.946 293.066 142.578 283.498 133.345 278.739L134.355 276.884ZM105.759 280.651C97.7706 285.461 92.3795 294.161 92.2256 304.112H112.392C112.546 301.444 114.053 299.138 116.238 297.872L105.759 280.651ZM106.158 328.685C110.259 331.062 115.02 332.424 120.093 332.424C125.465 332.424 130.486 330.897 134.746 328.255L124.285 311.062C123.08 311.838 121.645 312.289 120.105 312.289C118.509 312.289 117.025 311.805 115.793 310.974L106.158 328.685ZM147.961 304.112H127.818C127.646 301.121 125.773 298.586 123.151 297.46L132.798 279.743C141.675 284.307 147.797 293.498 147.961 304.112Z" fill="#456080"/>
<path fill-rule="evenodd" clip-rule="evenodd" d="M25.5828 322.553H45.7395C47.0541 322.553 48.1265 323.625 48.1265 324.94C48.1265 326.255 47.0541 327.327 45.7395 327.327H45.1744V328.469C45.1744 330.095 45.4973 331.721 46.1661 333.209C46.5697 334.097 47.1002 335.054 47.8151 336.023C48.5762 337.037 49.3603 337.833 50.0868 338.456C50.5365 338.848 51.0208 339.194 51.5167 339.517C54.3188 341.351 57.1093 343.184 59.9114 345.029C62.702 346.863 65.5041 348.697 68.2947 350.53C72.3768 353.217 71.4543 358.938 67.6374 360.76V420.371C69.6323 421.593 70.97 423.773 70.97 426.287C70.97 430.104 67.868 433.207 64.0512 433.207H7.31722C3.50036 433.207 0.398438 430.104 0.398438 426.287C0.398438 423.785 1.72452 421.593 3.71944 420.382V360.76C-0.0974202 358.938 -1.01991 353.206 3.06216 350.53C5.86427 348.697 8.65484 346.863 11.4569 345.029C14.2591 343.196 17.0496 341.351 19.8402 339.517C20.336 339.194 20.8204 338.848 21.2701 338.456C21.9965 337.845 22.7922 337.037 23.5417 336.023C24.2567 335.054 24.7871 334.097 25.1907 333.209C25.8595 331.721 26.1824 330.106 26.1824 328.469V327.327H25.5828C24.2682 327.327 23.1958 326.255 23.1958 324.94C23.1958 323.625 24.2682 322.553 25.5828 322.553Z" fill="#456080"/>
<path fill-rule="evenodd" clip-rule="evenodd" d="M64.1151 350.231C61.682 348.628 59.2373 347.037 56.7927 345.434C54.3596 343.831 51.9149 342.228 49.4703 340.636C49.0321 340.348 48.617 340.048 48.2249 339.713C47.5907 339.171 46.8988 338.468 46.2531 337.591C45.6073 336.715 45.1345 335.862 44.7771 335.043C44.2005 333.763 43.9468 332.367 43.9468 330.972C43.9468 329.876 43.0589 328.988 41.9634 328.988H29.3597C28.2642 328.988 27.3763 329.876 27.3763 330.972C27.3763 332.413 27.0996 333.82 26.5115 335.124C26.1656 335.896 25.6928 336.738 25.0701 337.58C24.4128 338.468 23.7209 339.16 23.0982 339.702C22.7062 340.036 22.291 340.348 21.8528 340.625C19.4082 342.216 16.9751 343.819 14.542 345.422L12.9161 346.725C11.3248 347.994 9.54894 348.974 7.73853 349.92C2.81466 352.491 4.7404 359.642 10.0333 359.642H61.2668C66.3637 359.642 68.3355 353.022 64.0804 350.22L64.1151 350.231ZM61.509 361.314H9.84876C8.73022 361.314 7.81925 362.225 7.81925 363.343V415.666C7.81925 416.785 8.73022 417.696 9.84876 417.696H61.509C62.6275 417.696 63.5385 416.785 63.5385 415.666V363.343C63.5385 362.225 62.6275 361.314 61.509 361.314ZM9.99867 419.368H61.0938C64.3687 419.368 67.2862 421.755 67.5975 425.019C67.955 428.755 65.026 431.892 61.3706 431.892H10.2754C7.00054 431.892 4.08312 429.505 3.77178 426.241C3.4143 422.505 6.34325 419.368 9.99867 419.368Z" fill="#809BBA"/>
<path d="M50.4832 363.885H20.8823C19.5332 363.885 18.4492 364.969 18.4492 366.318V412.69C18.4492 414.039 19.5332 415.123 20.8823 415.123H50.4832C51.8208 415.123 52.9163 414.039 52.9163 412.69V366.318C52.9163 364.969 51.8208 363.885 50.4832 363.885Z" fill="#456080"/>
<path fill-rule="evenodd" clip-rule="evenodd" d="M28.1033 384.976C26.4544 390.108 30.2943 395.355 35.6794 395.355C41.076 395.355 44.8929 390.108 43.2555 384.976L36.4635 368.012C36.1868 367.309 35.1836 367.309 34.9068 368.012L28.1033 384.976ZM22.9258 405.123C22.9258 401.248 25.3474 398.538 28.8183 398.538C32.2892 398.538 34.5378 401.156 34.5378 404.904C34.5378 409.471 31.5743 411.512 28.6453 411.512C25.2782 411.512 22.9258 408.998 22.9258 405.123ZM28.7376 409.148C30.8709 409.148 31.8279 407.049 31.8279 404.973C31.8279 402.898 30.8824 400.891 28.7491 400.891C26.6158 400.891 25.6587 403.001 25.6587 405.089C25.6587 407.038 26.6043 409.148 28.7376 409.148ZM38.493 398.919H35.8639V411.524H38.493V398.919ZM43.5438 398.919V409.125H48.4446V411.512H40.9146V398.919H43.5438Z" fill="#809BBA"/>
<path fill-rule="evenodd" clip-rule="evenodd" d="M373.288 259.561H392.499C397.423 259.561 401.413 263.551 401.413 268.475C401.413 272.258 399.061 275.475 395.751 276.778V278.958C395.751 280.665 396.812 282.187 398.415 282.787L427.439 293.604C433.608 295.911 437.702 301.792 437.702 308.377L437.667 314.985C437.667 319.725 433.989 323.566 429.25 323.566C433.908 323.566 437.679 327.348 437.679 331.996V351.682C437.679 356.341 433.897 360.112 429.25 360.112C433.908 360.112 437.679 363.895 437.679 368.542V388.228C437.679 392.887 433.897 396.658 429.25 396.658C433.908 396.658 437.679 400.441 437.679 405.088V424.774C437.679 429.433 433.897 433.205 429.25 433.205H336.492C331.833 433.205 328.062 429.422 328.062 424.774V405.088C328.062 400.429 331.845 396.658 336.492 396.658C331.833 396.658 328.062 392.876 328.062 388.228V368.542C328.062 363.883 331.845 360.112 336.492 360.112C331.833 360.112 328.062 356.329 328.062 351.682V331.996C328.062 327.337 331.845 323.566 336.492 323.566C331.753 323.566 328.074 319.725 328.074 314.985V308.377C328.074 301.792 332.168 295.899 338.337 293.604L367.361 282.787C368.964 282.199 370.025 280.665 370.025 278.958V276.767C366.715 275.464 364.375 272.235 364.375 268.475C364.375 263.551 368.364 259.561 373.288 259.561Z" fill="#456080"/>
<path fill-rule="evenodd" clip-rule="evenodd" d="M431.173 308.433V314.257C431.173 317.913 428.578 320.969 425.131 321.673H340.629C337.181 320.969 334.587 317.913 334.587 314.257V308.433C334.587 302.633 338.196 297.443 343.627 295.413L369.204 285.876C370.611 285.345 371.545 284.008 371.545 282.497C371.545 281.125 372.663 280.006 374.035 280.006H391.724C393.097 280.006 394.215 281.125 394.215 282.497C394.215 284.008 395.149 285.345 396.556 285.876L422.132 295.413C427.564 297.443 431.173 302.633 431.173 308.433ZM341.655 325.559H424.127C428.267 325.559 431.623 328.915 431.623 333.055V350.55C431.623 354.69 428.267 358.046 424.127 358.046H341.655C337.516 358.046 334.16 354.69 334.16 350.55V333.055C334.16 328.915 337.516 325.559 341.655 325.559ZM424.127 361.84H341.655C337.516 361.84 334.16 365.196 334.16 369.336V386.831C334.16 390.971 337.516 394.327 341.655 394.327H424.127C428.267 394.327 431.623 390.971 431.623 386.831V369.336C431.623 365.196 428.267 361.84 424.127 361.84ZM341.655 398.121H424.127C428.267 398.121 431.623 401.477 431.623 405.617V423.112C431.623 427.252 428.267 430.608 424.127 430.608H341.655C337.516 430.608 334.16 427.252 334.16 423.112V405.617C334.16 401.477 337.516 398.121 341.655 398.121Z" fill="#809BBA"/>
<path d="M405.956 319.305H359.808C357.271 319.305 355.207 321.369 355.207 323.906V397.933C355.207 400.47 357.271 402.534 359.808 402.534H405.956C408.493 402.534 410.557 400.47 410.557 397.933V323.906C410.557 321.369 408.493 319.305 405.956 319.305Z" fill="#456080"/>
<path fill-rule="evenodd" clip-rule="evenodd" d="M376.05 363.373L376.027 360.409C375.45 360.109 374.827 360.098 374.216 360.075C372.071 360.017 369.927 359.959 369.292 347.77C369.2 345.982 369.604 344.194 370.469 342.638C371.022 341.646 371.772 340.585 372.798 339.581C376.753 335.741 381.769 335.718 382.853 335.741C383.937 335.718 388.953 335.741 392.908 339.581C393.935 340.585 394.684 341.646 395.238 342.638C396.114 344.194 396.506 345.982 396.414 347.77C395.768 359.948 393.635 360.017 391.49 360.075C390.879 360.098 390.268 360.109 389.68 360.409V363.373C389.68 364.814 388.515 365.979 387.074 365.979H378.656C377.214 365.979 376.05 364.814 376.05 363.373ZM388.803 348.6C387.639 347.804 385.575 348.058 384.733 349.015C384.456 349.326 384.375 349.811 384.398 350.33C384.444 351.61 385.171 352.786 386.197 353.559C386.843 354.055 387.42 354.366 388.55 354.781C389.749 355.243 392.297 354.147 391.144 351.483C390.372 350.111 389.887 349.534 388.803 348.6ZM385.759 356.28L383.015 353.121C382.772 352.832 382.323 352.832 382.081 353.121L379.336 356.28C379.14 356.511 379.105 356.846 379.267 357.111L379.959 358.264C380.109 358.529 380.397 358.691 380.708 358.691H384.375C384.675 358.691 384.963 358.529 385.125 358.264L385.817 357.111C385.978 356.846 385.955 356.511 385.759 356.28ZM376.303 348.6C375.208 349.534 374.735 350.111 373.962 351.483C372.809 354.135 375.369 355.243 376.569 354.781C377.699 354.355 378.275 354.043 378.921 353.559C379.947 352.786 380.662 351.621 380.72 350.33C380.743 349.811 380.651 349.326 380.374 349.015C379.532 348.069 377.468 347.804 376.303 348.6ZM400.127 379.853C400.611 378.896 401.707 378.307 402.895 378.619C403.725 378.838 404.394 379.53 404.59 380.372C404.82 381.387 404.417 382.321 403.69 382.863C403.437 383.047 403.275 383.336 403.275 383.658C403.275 384.131 403.125 384.662 402.549 385.273C402.053 385.792 401.384 386.161 400.657 386.092C399.447 385.977 398.49 384.95 398.49 383.705C398.49 383.243 398.639 382.805 398.87 382.436L382.888 374.802L366.905 382.436C367.147 382.805 367.286 383.232 367.286 383.705C367.286 384.95 366.329 385.977 365.118 386.092C364.403 386.161 363.723 385.804 363.227 385.273C362.65 384.662 362.489 384.131 362.5 383.658C362.512 383.347 362.339 383.059 362.085 382.863C361.37 382.321 360.955 381.387 361.186 380.372C361.382 379.53 362.051 378.838 362.881 378.619C364.069 378.319 365.164 378.907 365.648 379.853L379.555 373.21L365.706 366.59C365.268 367.628 364.126 368.297 362.869 367.974C362.039 367.755 361.37 367.063 361.174 366.221C360.944 365.207 361.347 364.272 362.074 363.73C362.327 363.546 362.489 363.258 362.489 362.935C362.489 362.462 362.639 361.931 363.215 361.32C363.711 360.801 364.38 360.432 365.106 360.501C366.317 360.617 367.274 361.643 367.274 362.889C367.274 363.292 367.159 363.673 366.975 364.007L382.888 371.607L398.801 364.007C398.628 363.673 398.501 363.304 398.501 362.889C398.501 361.643 399.458 360.617 400.669 360.501C401.384 360.432 402.064 360.79 402.56 361.32C403.137 361.931 403.298 362.462 403.287 362.935C403.287 363.246 403.448 363.534 403.702 363.73C404.417 364.272 404.832 365.207 404.601 366.221C404.405 367.063 403.736 367.755 402.906 367.974C401.649 368.297 400.508 367.628 400.069 366.59L386.22 373.21L400.127 379.853Z" fill="#809BBA"/>
</svg>
