<svg width="340" height="289" viewBox="0 0 340 289" fill="none" xmlns="http://www.w3.org/2000/svg">
<path d="M169.899 288.768C248.925 288.768 312.989 224.349 312.989 144.885C312.989 65.4207 248.925 1.0022 169.899 1.0022C90.8723 1.0022 26.8086 65.4207 26.8086 144.885C26.8086 224.349 90.8723 288.768 169.899 288.768Z" fill="#D3DCD7"/>
<path d="M74.2891 240.351C77.5835 238.01 78.1843 237.954 80.3432 235.649C83.5765 232.189 84.661 230.001 85.766 226.383C85.9798 225.682 86.4584 224.165 87.8485 222.897C90.2365 220.725 91.5247 221.354 93.7498 221.113C94.87 220.996 95.7713 220.735 96.4841 220.403C102.233 217.73 102.253 210.938 102.533 208.178C102.966 204.222 103.75 203.108 105.191 199.99C106.423 197.327 107.823 195.16 109.091 193.469C109.529 192.886 110.043 192.38 110.583 191.895C111.698 190.888 112.284 189.395 112.121 187.888C111.917 186.027 111.011 185.506 108.806 183.911L104.432 180.298C103.944 179.894 103.623 179.327 103.526 178.703L103.353 177.564C103.266 177.012 103.002 176.496 102.594 176.117C100.558 174.211 98.4139 172.422 96.4892 170.403C95.9597 169.851 95.4912 169.167 94.0095 168.937C92.6398 168.727 92.5329 168.88 91.4229 169.151C89.2182 169.693 86.8505 170.025 84.5949 170.296C84.2588 170.337 83.9635 170.04 84.0348 169.708C84.106 169.366 84.0704 169.013 83.9177 168.701C83.6631 168.19 83.1284 167.858 82.5378 167.827C82.2679 167.817 82.0846 167.551 82.1406 167.286C82.7058 164.776 83.5307 163.028 83.8718 160.33C84.0348 158.894 84.0449 158.5 83.9991 158.076C83.714 155.255 80.5774 153.819 80.2923 153.691L71.3715 148.687C70.399 148.14 69.6047 147.328 69.0803 146.341L67.3287 143.03C66.9264 142.268 66.346 141.614 65.6382 141.128C62.6595 139.074 59.6859 137.014 56.7073 134.96C56.3508 134.699 54.9964 133.779 53.1023 133.927C50.8772 134.106 50.3833 134.944 49.3548 135.9C48.8812 136.339 47.8527 137.101 46.3455 137.443C44.8485 137.786 43.5654 137.54 42.766 137.29C42.5827 137.234 42.4554 137.229 42.3281 137.295C42.0481 137.443 41.7069 137.285 41.5847 136.994L41.4778 136.738C41.3607 136.457 41.2996 136.155 41.2894 135.854L41.1417 127.743C41.0857 124.038 40.3016 124.866 39.2578 123.838C38.9726 123.557 38.8555 122.872 38.8148 122.09C38.7843 121.518 39.0134 121.13 39.1865 120.818C40.5918 118.237 40.6427 115.523 41.2945 112.518C41.4167 111.966 41.4931 111.593 41.1672 111.301C40.821 110.995 40.322 111.107 39.8993 111.388C37.8015 112.778 37.2313 114.179 36.3911 116.453C36.2638 116.693 35.6936 117.68 34.4664 118.083C34.1609 118.186 33.8707 118.232 33.6059 118.247C33.0662 118.278 32.6843 117.726 32.9084 117.23L42.4045 96.7047C42.6031 96.2702 43.1632 96.1527 43.5196 96.4593C43.6774 96.5922 43.8353 96.7302 43.9931 96.8631C44.4157 97.226 45.0777 97.0215 45.2202 96.4798C45.2559 96.3469 45.2915 96.2345 45.3323 96.1271C46.0706 94.2515 48.6928 93.1373 51.865 93.3877C52.8477 93.4593 53.81 93.9397 55.4445 93.1424C56.4985 92.6262 57.1248 91.8493 57.8886 90.9396C66.9519 82.0927 75.0122 74.2322 84.0806 65.3853C84.9207 64.3222 86.3821 63.346 87.6703 63.8622C88.765 64.3018 89.4575 65.4773 89.3607 66.7192C89.3302 67.1383 89.6408 67.5012 90.0532 67.5421C91.5197 67.7005 91.6011 67.8232 93.0574 68.0685C96.3059 68.6102 97.5279 68.1503 97.9047 67.0974C98.1899 66.3001 97.7061 65.7379 96.866 64.5778C95.7153 62.9934 94.3303 61.6032 93.0574 60.1109C92.9199 60.0035 91.2141 58.598 91.5197 57.4072C91.815 56.247 95.4505 55.5673 97.477 56.4055L99.9414 57.8059C101.352 58.6952 102.625 58.5163 102.655 58.2198C102.742 57.4481 101.153 56.615 102.121 56.3288C103.165 56.0222 106.377 55.46 109.326 54.1823C111.927 53.0528 113.908 51.637 115.334 50.4922C116.047 49.6591 117.752 48.4734 114.733 48.8158C113.623 48.9027 112.045 48.0032 111.398 46.0918C110.899 44.6198 111.271 43.1939 112.981 41.4204C113.18 41.216 112.987 40.8736 112.706 40.9093L105.563 42.3608C105.018 42.4477 104.682 42.3097 104.728 41.7577L104.865 40.1069C104.962 39.0081 104.565 38.3999 103.893 38.0421C102.971 37.5566 101.693 37.8479 100.685 38.6554C99.6919 39.4272 99.9262 39.1768 98.8263 40.0814C97.8487 40.8889 96.7591 42.4988 95.9851 42.8872C95.3945 43.1734 94.7376 43.2757 94.091 43.1888L92.9352 43.0355C92.706 43.0048 92.482 43.1428 92.4107 43.3626L91.9728 44.6607C91.6877 45.504 91.1429 46.2349 90.4198 46.7511C88.2558 48.2894 83.9329 51.1617 83.3321 51.5655C82.8127 51.913 82.385 52.3781 82.0744 52.9199C80.7913 55.1482 79.7526 56.8552 79.442 56.7275C79.0397 56.5588 78.4134 55.3833 80.5316 50.5995C80.5978 50.4462 80.4756 50.2827 80.3127 50.3082C77.3798 50.7835 75.2209 49.3678 75.0529 48.0441C74.9154 46.9555 76.0763 45.6062 77.7923 44.8243C84.4523 41.6197 92.0747 39.928 97.7672 35.2056C98.2611 34.7967 98.6074 34.2908 98.4495 33.4884C98.2561 32.4866 97.2937 31.2754 94.9413 31.9858L79.0754 40.48C78.6171 40.7253 78.0672 40.7253 77.609 40.4851L73.5457 38.3488C50.3527 59.5027 34.0998 88.19 28.6211 120.557L31.0091 119.32C31.3045 121.267 31.5998 123.215 31.8951 125.162C31.9664 125.627 32.3635 125.964 32.832 125.985C32.9236 125.985 33.0051 126 33.0815 126.01C33.4379 126.067 35.2557 127.084 35.5714 129.169C36.0551 132.261 36.6253 134.387 37.7965 137.009C39.0796 139.891 40.4442 141.614 41.6866 142.846C42.4045 143.556 42.6947 144.599 42.43 145.575C39.7619 152.352 42.7304 151.437 39.9044 154.928C39.7008 155.153 38.3871 156.645 38.7333 158.536C38.8504 159.18 39.1203 159.671 39.3342 159.967C39.8586 160.718 40.0623 161.05 39.991 161.771C39.9095 162.589 39.161 163.064 38.993 163.171C37.7761 164.153 36.5846 165.108 36.7323 168.078C36.8239 169.892 37.7506 171.17 38.4482 171.891C39.0236 172.478 39.4767 173.179 39.7924 173.94C40.7904 176.352 41.7935 178.76 42.7915 181.172C43.0562 181.811 43.1988 182.496 43.2243 183.191C43.2905 185.061 43.5909 187.453 44.487 190.085C46.0298 194.619 48.6063 197.721 50.3935 199.494C50.9587 200.057 51.0605 200.777 51.2489 201.155C52.6389 205.004 53.199 204.411 53.5351 207.411C53.7693 209.501 53.3925 211.515 53.1379 212.634C52.4251 216.708 52.5727 218.41 53.3161 222.325C54.2734 227.379 57.1961 232.955 59.5383 236.589C63.683 241.603 68.1586 246.33 72.9347 250.736C72.8634 246.959 71.4276 242.369 74.284 240.34L74.2891 240.351Z" fill="#BDCAC3"/>
<path d="M120.403 27.8002C119.146 27.6162 118.295 27.8002 117.618 27.9791C117.353 28.0506 117.079 28.0609 116.809 28.0251C116.05 27.9229 114.39 27.8667 113.26 29.037C112.817 29.497 112.588 30.0132 112.46 30.4119L111.142 32.8344C110.933 33.2177 110.576 33.4937 110.154 33.5908C109.354 33.7697 109.095 34.1632 109.039 34.2501C108.468 35.1701 109.196 37.0867 111.299 38.5688C114.787 39.0901 115.439 38.9981 117.328 38.8192C117.807 38.7732 118.255 38.5535 118.581 38.2008L123.285 33.136C123.509 32.8906 123.672 32.5942 123.744 32.2722C123.82 31.9298 123.876 31.5363 123.896 31.1018C123.937 30.1512 124.187 29.6861 123.611 28.8428C122.98 28.5106 121.671 27.9893 120.403 27.8053V27.8002Z" fill="#BDCAC3"/>
<path d="M154.516 38.334C154.582 38.3443 154.643 38.3647 154.709 38.3852C155.371 38.6305 156.369 38.8911 157.566 38.8247C160.127 38.6816 161.853 37.1432 162.49 36.4941C162.596 36.3817 162.729 36.2999 162.871 36.2437C169.022 33.816 169.694 35.3186 171.925 35.702C172.892 35.8706 173.814 36.2897 174.791 36.3868C177.597 36.6628 179.506 36.719 180.83 36.6628C182.103 36.6066 182.77 35.104 181.955 34.1227C181.436 33.4992 180.998 32.661 180.856 31.5621C180.85 31.5162 180.845 31.4702 180.845 31.4242C180.835 30.5757 181.843 30.0902 182.541 30.5758C182.765 30.7291 183.04 30.8824 183.366 31C184.669 31.4548 185.845 30.9642 186.217 30.7853C186.253 30.7649 186.294 30.7495 186.334 30.7342C190.347 29.2571 194.853 28.5263 198.519 26.5228C198.947 26.2877 198.824 25.6387 198.346 25.5671C193.682 24.7136 188.89 23.9061 183.972 23.1599C178.549 22.3319 173.248 21.6164 168.08 20.998C166.853 20.8498 165.626 20.7578 164.394 20.7016C158.396 20.4256 152.082 20.3234 145.478 20.4562C141.863 20.5278 138.344 20.6658 134.923 20.8549C133.843 20.9162 133.013 21.8259 133.044 22.9043L133.222 29.5229C133.237 30.08 133.66 30.54 134.21 30.6064C139.363 31.2044 141.949 31.8841 141.97 32.6457C141.99 33.3561 139.77 34.1329 135.305 34.9813C135.218 34.9967 135.126 35.0222 135.045 35.0631C132.433 36.2539 132.448 39.0751 133.049 40.8026C133.935 43.3427 138.349 45.1468 143.08 43.0105C143.161 42.9747 143.243 42.9236 143.314 42.8674C149.867 37.731 151.486 37.8025 154.526 38.3443L154.516 38.334Z" fill="#BDCAC3"/>
<path d="M117.908 57.7444L115.057 55.9556C114.777 55.3678 114.405 55.0765 114.186 54.9334C113.219 54.7392 111.91 54.8209 110.479 55.4394C108.499 56.1395 107.414 55.47 106.574 56.3849C105.785 57.2435 105.337 57.6472 105.092 58.1021C103.85 58.3168 103.081 58.373 103.04 58.9761C103.015 59.3338 103.412 59.6047 104.71 60.678C107.506 63.4839 108.555 62.1653 110.143 61.1942C112.012 60.0494 112.216 59.339 114.257 58.8892C114.756 58.7768 115.23 58.7256 115.652 58.7103C115.907 58.7001 116.157 58.6694 116.406 58.6081C116.88 58.4905 117.353 58.3781 117.832 58.2606C118.076 58.1992 118.127 57.8772 117.913 57.7444H117.908Z" fill="#BDCAC3"/>
<path d="M290.277 66.8165H286.743C283.245 66.6734 280.159 63.0243 279.187 61.7517C278.907 61.3837 278.591 61.0413 278.245 60.7346C277.099 59.7227 275.215 58.3683 272.583 57.5812C270.271 56.8912 268.26 56.9066 266.982 57.0241C266.152 57.1212 264.263 57.2899 264.115 56.8095C263.957 56.2984 268.448 53.4976 270.531 52.1126C270.739 51.9746 270.633 51.6475 270.383 51.6628L265.678 51.9184C265.195 51.9439 264.105 51.7702 263.713 51.4891C263.713 51.4891 256.248 47.3901 248.616 39.7494C247.358 38.4921 245.922 38.1804 242.18 41.4002C238.371 45.5656 234.058 46.5417 232.755 44.0067C232.129 42.7955 229.863 43.0306 229.863 43.0306C223.661 43.6745 221.96 48.7547 222.648 50.6713C223.437 52.8639 227.098 52.5879 228.748 52.9048C231.059 53.7072 231.701 55.2404 231.314 56.2524C230.947 57.2081 230.143 57.2746 228.921 57.3666C222.953 57.8163 218.574 57.5045 213.223 57.5352C212.912 57.5352 212.612 57.617 212.342 57.7754L206.797 60.985C206.456 61.1793 206.4 61.6444 206.67 61.9254C206.991 62.2628 207.347 62.7381 207.597 63.3769C208.121 64.7313 207.887 65.9528 207.703 66.2952C205.84 69.7706 205.244 72.0756 205.585 74.9888C205.611 75.2188 205.392 75.3977 205.178 75.321C204.521 74.6157 199.546 69.418 194.872 70.8235H194.857C194.032 71.079 193.268 71.6157 193.141 72.5714C191.379 85.9312 191.563 88.1186 194.918 89.8103C195.575 90.1425 196.939 90.5872 199.348 89.7694C199.776 89.6212 200.229 89.5599 200.682 89.5599H204.827C205.168 89.5599 205.478 89.3708 205.631 89.0641C206.191 87.9449 207.113 86.4576 208.605 85.0521C211.166 82.6347 213.961 81.7965 215.321 81.4898C220.84 80.5443 219.934 79.1542 224.323 79.9004C226.792 80.3195 228.9 81.0605 229.69 82.0878C232.984 86.3809 235.163 88.1544 237.903 91.1903C238.061 91.4203 238.916 92.1 239.4 92.284C240.398 92.6673 241.146 90.9961 242.246 90.5003C243.295 90.0301 243.58 90.9041 243.809 91.1852L246.375 94.8752C246.696 95.7543 246.992 96.1223 247.659 96.2705C248.356 96.4238 248.728 95.4476 249.456 95.4783C250.484 95.5192 250.138 95.4578 250.826 96.25C251.187 97.4971 251.284 97.6146 251.829 97.6248C252.389 97.6351 252.857 97.032 252.878 96.25C252.913 94.8752 254.507 94.911 256.427 95.5652C258.346 96.158 260.444 95.5243 261.712 93.9757C263.005 92.3862 263.183 90.1425 262.16 88.3537C260.714 83.8766 265.648 83.5649 267.165 85.2566C269.008 88.2209 270.22 89.5855 270.801 89.3555C271.035 89.2635 271.162 88.8699 271.188 88.2566C271.208 87.7864 271.371 87.3213 271.707 86.9891C272.14 86.5547 272.802 86.4014 273.494 88.6042L277.002 97.446C277.43 98.5193 277.644 99.3728 277.089 99.7663C276.631 100.088 276.045 99.4852 275.205 99.337C258.479 96.3676 255.347 100.083 264.344 104.223C265.22 104.627 266.177 104.821 267.14 104.816C268.209 104.811 269.777 105.041 270.841 106.252C271.305 106.778 271.554 107.356 271.697 107.841C271.824 110.627 271.951 113.417 272.084 116.203C272.109 116.699 271.712 117.118 271.218 117.118H262.384C262.058 117.118 261.809 117.399 261.839 117.721L262.246 121.661C262.277 121.937 262.42 122.188 262.649 122.346L269.304 127.043C272.155 128.985 281.478 154.488 281.478 154.488C283.194 159.727 283.667 160.662 284.278 160.693C284.798 160.718 284.803 159.451 285.735 158.848C288.515 157.044 290.068 157.361 293.204 156.574C296.916 155.531 299.819 152.735 300.664 149.229C301.784 144.568 299.034 139.488 294.06 137.168C290.098 135.317 287.659 134.459 288.601 130.079C289.37 128.714 291.824 127.007 294.89 130.166C296.748 132.082 298.184 134.398 299.559 135.154C300.058 135.43 300.521 135.762 300.883 136.197C301.397 136.815 301.942 137.403 302.543 137.939C303.225 138.553 303.948 139.304 304.646 140.214C306.866 143.122 307.614 146.107 307.894 147.829C308.541 157.187 309.192 166.55 309.839 175.908C312.039 165.896 313.195 155.495 313.195 144.824C313.195 116.065 304.783 89.2737 290.297 66.8012L290.277 66.8165Z" fill="#BDCAC3"/>
<path d="M252.989 210.299C253.264 209.297 253.641 208.326 254.084 207.39C255.774 203.823 257.129 201.395 257.567 201.089C258.381 200.521 258.677 200.961 260.199 200.271C261.594 199.213 262.76 197.787 264.155 196.729C266.941 194.588 271.686 190.244 273.993 183.272C274.573 181.524 275.082 181.192 275.103 178.356C274.96 177.722 274.848 176.766 275.123 175.693C275.429 174.507 276.055 173.73 276.386 173.373C277.114 172.565 277.766 171.359 278.621 170.015C279.135 169.207 279.38 168.691 279.252 168.415C278.728 167.592 278.163 168.267 275.362 167.878C274.93 167.766 274.517 167.628 274.12 167.47C267.796 164.924 268.733 157.146 265.046 153.282C264.614 152.924 264.023 152.336 263.514 151.493C262.195 149.321 262.409 147.067 262.531 146.239C262.679 144.941 262.898 142.549 262.373 140.085C261.895 137.842 261.492 136.983 260.515 135.281C260.199 134.729 259.975 134.126 259.863 133.498C259.094 129.256 257.475 126.404 257.612 125.479C257.694 124.927 257.954 124.41 258.335 124.002C258.57 123.751 258.824 123.475 259.013 123.271C259.14 123.128 259.242 122.964 259.298 122.78C259.71 121.472 259.771 120.414 259.705 119.749C259.654 119.197 259.537 118.707 259.405 118.288C259.16 117.536 258.554 116.959 257.796 116.739C252.806 115.308 249.43 113.621 244.44 112.19C243.967 112.052 243.529 111.812 243.157 111.48C242.719 111.301 242.184 111.03 241.634 110.611C240.637 109.855 240.061 108.976 239.751 108.408C238.931 107.212 238.121 106.609 237.52 107.928C236.925 109.236 236.354 110.468 236.354 110.468C235.815 111.557 235.891 112.747 235.412 113.075C234.659 113.586 233.941 113.243 232.418 112.247C231.313 111.521 230.382 111.097 229.832 110.667C228.437 109.574 226.833 107.877 226.008 105.449C225.926 105.204 225.814 104.974 225.631 104.805C225.259 104.463 224.689 104.376 224.18 104.57C223.569 104.8 222.887 104.8 222.255 104.637C222.24 104.637 222.23 104.631 222.214 104.626C221.614 104.468 220.931 104.207 220.244 103.773C218.986 102.981 218.197 101.933 217.713 101.028C217.408 100.466 217.24 99.8374 217.209 99.1985C217.133 97.466 216.568 93.3773 212.326 93.6226L201.053 93.4999L189.816 93.0962C184.739 93.04 182.972 91.4556 178.237 95.6925C176.658 97.1031 175.727 98.7232 175.172 100.093C174.561 101.596 173.267 102.705 171.694 103.078C168.944 103.722 164.764 105.393 162.02 109.712C159.647 113.448 159.535 117.296 159.795 119.708C159.932 120.991 159.296 122.243 158.16 122.841C156.383 123.777 155.161 125.162 154.922 126.751C154.896 126.91 154.881 127.089 154.876 127.283C154.866 128.08 154.688 128.867 154.301 129.562C153.231 131.504 152.04 134.423 151.969 138.041C151.948 139.002 152.014 139.891 152.121 140.704C152.218 141.414 152.269 142.135 152.269 142.85V155.888C152.269 156.675 152.646 157.416 153.282 157.876L164.927 166.33C165.431 166.606 166.898 167.326 168.817 167.061C171.292 166.718 171.704 165.313 172.967 164.613C177.382 162.124 178.955 162.732 180.452 162.997C184.754 163.989 190.218 165.747 193.497 164.955C194.088 164.802 194.683 164.996 194.994 165.425C195.254 165.788 195.223 166.197 195.208 166.325C195.182 166.504 194.912 168.809 196.664 170.347C197.998 171.517 199.78 171.083 201.623 170.96C202.031 170.935 204.434 171.333 205.559 173.71C206.369 175.422 206.048 176.986 205.732 177.4C203.706 180.093 203.1 182.577 203.981 183.497C204.169 183.691 204.546 183.681 205.305 183.927C205.692 184.049 205.865 184.34 205.819 185C205.778 185.552 205.361 185.858 205.305 185.899C204.653 186.385 204.378 187.233 204.622 188.005C204.857 188.756 205.702 188.858 206.333 189.334C207.25 190.024 207.397 190.913 207.53 192.513C207.637 193.806 207.311 194.818 207.102 195.344C205.748 197.312 203.874 200.562 202.825 204.963C202.301 207.176 202.097 209.21 202.056 210.948C202.015 212.869 201.868 214.791 201.542 216.687C201.186 218.726 200.951 221.129 201.028 223.812C201.109 226.597 201.506 229.02 201.97 230.982C203.197 238.025 204.424 245.063 205.646 252.105C205.987 253.756 206.094 254.508 207.056 255.366C208.523 256.496 210.911 256.307 212.576 254.681C220.509 248.134 224.526 247.26 226.644 246.806C228.08 246.499 229.445 246.335 230.713 246.264C230.932 246.248 232.999 246.049 234.175 244.158C235.331 242.298 234.643 240.381 234.562 240.166C234.338 239.783 234.328 239.313 234.542 238.945C234.796 238.5 235.311 238.398 235.845 238.367C237.276 238.281 237.755 237.708 238.88 236.369C240.107 234.918 240.326 233.354 240.377 232.786C240.382 232.286 240.433 231.498 240.657 230.573C241.324 227.803 243.025 225.999 243.972 225.141C252.098 216.748 252.271 212.644 252.633 211.51C252.765 211.096 252.882 210.692 252.994 210.283L252.989 210.299Z" fill="#7B9586"/>
<path d="M277.787 219.059L277.827 217.868C277.838 217.613 277.552 217.454 277.344 217.603L275.745 218.712C275.531 218.86 275.236 218.834 275.047 218.65L273.224 216.851C273.051 216.678 272.751 216.78 272.72 217.025C272.45 218.932 272.654 220.409 271.906 222.749C271.468 224.114 270.536 225.78 269.212 227.559C268.107 229.036 266.972 230.165 266.004 230.993C266.004 230.993 253.514 239.237 253.514 239.579C252.338 240.208 251.681 241.511 251.89 242.799C252.078 243.99 252.969 244.971 254.156 245.288C257.257 245.738 258.82 244.987 260.785 242.968C260.994 242.753 261.574 242.288 262.455 242.15C263.662 241.966 264.543 242.6 264.767 242.707C266.244 243.438 268.24 243.31 270.714 241.46C273.245 239.569 274.243 235.429 273.24 232.572C273.036 231.995 273.194 230.313 274.222 228.622C275.144 227.104 275.974 226.347 276.962 226.087C278.092 225.79 279.151 225.315 279.487 224.242C279.722 223.48 279.467 222.034 278.55 221.037C278.051 220.495 277.771 219.785 277.797 219.049L277.787 219.059Z" fill="#7B9586"/>
<path d="M339.88 240.786L338.297 221.952C338.231 221.168 337.895 220.435 337.341 219.882L335.778 218.31C334.837 217.362 334.699 215.877 335.452 214.77L338.379 210.463C338.893 209.704 339.122 208.788 339.015 207.876C339.6 195.926 337.371 181.579 335.625 177.747C335.524 177.527 335.264 176.646 334.74 175.893C334.73 175.878 334.719 175.868 334.709 175.857L333.284 174.423C333.055 174.193 332.887 173.901 332.806 173.583L326.571 149.401C326.454 148.94 326.989 148.592 327.355 148.889L331.091 151.896C332.577 153.269 335.452 153.883 335.742 149.924C335.865 148.239 336.17 145.847 336.292 144.167C336.552 141.134 336.613 140.458 335.742 139.946C331.727 137.605 326.938 137.021 322.51 135.623C322.296 135.556 322.103 135.438 321.945 135.285L321.884 135.193C321.492 134.143 321.416 131.156 315.7 127.965C315.212 127.694 314.698 127.453 314.168 127.258C307.048 124.595 304.422 123.57 295.088 122.111C294.467 122.013 293.882 121.732 293.419 121.306L290.477 118.622C289.419 117.654 288.207 116.866 286.884 116.307C262.491 106.012 232.061 98.5385 209.485 97.1965C208.497 97.1401 207.612 97.7906 207.378 98.7587C207.373 98.7843 207.367 98.8099 207.357 98.8355C207.271 99.2043 206.838 99.5014 206.528 99.2812C203.647 97.2682 198.838 95.8801 196.507 95.4037C195.896 95.2808 195.265 95.291 194.659 95.4396C130.329 111.364 69.6535 126.393 1.76093 143.198C0.732873 143.455 0 144.392 0 145.468V222.853C0 223.795 0.75832 224.559 1.69477 224.559H2.55488C3.67963 224.559 4.59064 225.476 4.59064 226.608V234.593C4.59064 235.382 5.21663 236.022 6.0004 236.037L33.931 236.544C34.5977 236.555 35.1677 237.026 35.3052 237.682L36.1703 241.738C36.3994 242.568 36.7098 243.71 37.8855 244.632C39.1426 245.616 40.5981 245.232 41.2089 245.001C42.9392 248.556 45.5348 250.902 48.4562 251.143C48.4816 251.148 48.502 251.163 48.5274 251.163H48.7666C48.8277 251.163 48.8938 251.163 48.9549 251.163C49.128 251.163 49.3061 251.153 49.4791 251.143L55.9223 251.009C56.8791 250.989 57.7901 250.605 58.4772 249.934C59.6274 248.807 61.2763 246.917 62.5283 244.571C64.2486 248.653 67.0732 251.47 70.3355 251.962C70.3558 251.962 70.3711 251.978 70.3915 251.978H70.4729C70.763 252.018 71.0582 252.039 71.3584 252.039C71.6282 252.039 71.8928 252.019 72.1575 251.988L79.4302 252.034C80.3565 252.039 81.2573 251.727 81.9647 251.127C83.6799 249.683 86.3365 246.569 87.9855 240.181C88.016 240.069 88.1127 239.992 88.2298 239.992C98.373 240.294 108.954 240.601 119.097 240.903C119.229 240.903 119.336 241.016 119.336 241.154V246.579C119.336 246.717 119.443 246.825 119.58 246.83L148.641 247.373C148.778 247.373 148.895 247.265 148.895 247.122V239.689C148.895 239.546 149.012 239.433 149.155 239.439L168.607 240.191C168.739 240.197 168.846 240.309 168.846 240.442V247.716C168.846 247.854 168.953 247.962 169.09 247.967L207.021 248.576C207.159 248.576 207.276 248.464 207.276 248.325V242.476C207.276 242.322 207.418 242.204 207.566 242.23L208.538 242.409C208.569 242.414 208.589 242.435 208.619 242.455C208.619 242.543 208.614 242.63 208.614 242.717C208.614 254.784 216.294 265.111 227.435 265.111C227.491 265.111 227.639 265.116 227.654 265.116L242.184 264.568C243.309 264.568 244.393 264.168 245.248 263.431C246.118 262.683 248.861 260.311 250.373 257.632C250.688 257.079 251.269 256.731 251.905 256.741C257.009 256.844 261.768 256.941 266.847 257.043C267.753 257.064 268.45 257.822 268.471 258.734C268.486 259.548 269.214 260.163 270.018 260.035L305.598 254.411C305.598 254.411 306.407 258.462 308.122 258.472L316.622 257.94C318.011 257.853 319.263 257.074 319.986 255.881C321.014 254.17 321.38 252.613 321.619 251.885C326.556 251.107 331.498 250.323 336.435 249.544C339.422 249.048 340.308 248.187 339.911 240.796L339.88 240.786Z" fill="#7B9586"/>
<path d="M40.1898 220.937H22.6619C22.4278 220.937 22.2242 221.08 22.1377 221.3L20.1834 226.476C20.0816 226.752 19.8169 226.931 19.5217 226.931H18.4173C18.1476 226.931 17.9237 226.706 17.9288 226.435L18.0407 220.109C18.0407 219.991 17.9491 219.889 17.827 219.889H16.4121C16.2951 219.889 16.2034 219.981 16.1984 220.093L15.9795 226.445C15.9693 226.716 15.7505 226.926 15.4808 226.926H6.63028C6.38599 226.926 6.1875 227.125 6.1875 227.371V232.428C6.1875 232.669 6.37581 232.863 6.61501 232.873L35.9147 233.947C36.159 233.957 36.3626 233.768 36.3728 233.523L36.6934 227.059C36.7087 226.767 36.4745 226.522 36.1844 226.522H32.1587C31.9144 226.522 31.7465 226.271 31.8432 226.046L33.3293 222.563C33.4209 222.354 33.6245 222.221 33.8484 222.221H40.1898C40.3018 222.221 40.3883 222.134 40.3883 222.021V221.132C40.3883 221.019 40.3018 220.932 40.1898 220.932V220.937ZM31.6956 222.471L30.1382 226.322C30.0263 226.598 29.7616 226.783 29.4613 226.788L21.8272 226.926C21.6338 226.926 21.4964 226.731 21.5677 226.547L23.2625 222.364C23.349 222.154 23.5525 222.016 23.7765 222.016H31.3851C31.6193 222.016 31.7821 222.257 31.6905 222.477L31.6956 222.471Z" fill="#D3DCD7"/>
<path d="M48.0283 244.502C51.0836 244.502 53.5605 239.877 53.5605 234.172C53.5605 228.467 51.0836 223.842 48.0283 223.842C44.9729 223.842 42.4961 228.467 42.4961 234.172C42.4961 239.877 44.9729 244.502 48.0283 244.502Z" fill="#D3DCD7"/>
<path d="M70.7197 246.046C73.775 246.046 76.2519 241.218 76.2519 235.261C76.2519 229.305 73.775 224.476 70.7197 224.476C67.6643 224.476 65.1875 229.305 65.1875 235.261C65.1875 241.218 67.6643 246.046 70.7197 246.046Z" fill="#D3DCD7"/>
<path d="M60.5682 237.542H58.4256C58.2322 237.542 58.0744 237.675 58.0337 237.859C57.7131 239.347 57.1583 241.188 56.171 243.167C54.7103 246.103 52.8781 248.189 51.4531 249.539C51.2851 249.698 51.392 249.979 51.6211 249.989L56.0132 250.199C56.1353 250.204 56.2524 250.173 56.3542 250.107C57.0769 249.636 57.9981 248.931 58.8938 247.898C59.7946 246.865 60.3748 245.837 60.7514 245.013C60.899 244.686 60.9754 244.333 60.9754 243.97V237.941C60.9754 237.716 60.7922 237.532 60.5682 237.532V237.542Z" fill="#D3DCD7"/>
<path d="M86.3008 240.125H81.929C81.7814 240.125 81.6542 240.227 81.6186 240.37C81.3183 241.715 80.8043 243.382 79.878 245.177C78.57 247.719 76.9363 249.555 75.6334 250.772C75.4248 250.966 75.5571 251.309 75.837 251.319L79.4658 251.483C79.5268 251.483 79.5879 251.473 79.6388 251.442C82.3006 249.959 85.4763 245.075 86.6113 240.513C86.6622 240.314 86.5044 240.12 86.3008 240.12V240.125Z" fill="#D3DCD7"/>
<path d="M119.719 222.497L94.6025 221.96C94.3277 221.955 94.0834 222.124 93.9867 222.379L90.7855 231.042C90.7091 231.252 90.5157 231.395 90.2918 231.405L87.4315 231.549C87.2076 231.559 87.0142 231.385 87.0091 231.155L86.7241 221.275C86.719 221.065 86.5511 220.901 86.3424 220.901H84.4339C84.2201 220.901 84.0522 221.075 84.0522 221.285L84.0827 231.104C84.0827 231.257 83.9606 231.38 83.8079 231.38H81.3192C81.0952 231.38 80.9222 231.579 80.9527 231.804L81.4057 234.99C81.4311 235.169 81.5787 235.302 81.7619 235.307L118.823 236.392C119.032 236.397 119.205 236.228 119.205 236.018V232.479C119.205 232.275 119.042 232.111 118.838 232.106L107.784 232.019C107.606 232.019 107.479 231.845 107.535 231.676L109.611 224.998C109.677 224.778 109.876 224.629 110.105 224.624L119.724 224.44C119.948 224.44 120.126 224.251 120.126 224.031V222.886C120.126 222.661 119.948 222.482 119.724 222.476L119.719 222.497ZM106.995 224.941L104.954 231.508C104.873 231.763 104.634 231.937 104.369 231.932L93.4472 231.636C93.1876 231.63 93.0095 231.37 93.096 231.124L95.3099 224.829C95.3863 224.604 95.6 224.456 95.8341 224.456H106.639C106.888 224.456 107.066 224.701 106.995 224.941Z" fill="#D3DCD7"/>
<path d="M146.644 229.145H124.938C124.867 229.145 124.795 229.165 124.745 229.206C123.976 229.805 121.391 232.96 121.391 238.135V243.341C121.391 243.525 121.538 243.674 121.716 243.679L143.626 244.303C143.845 244.308 144.013 244.114 143.967 243.899C143.601 242.17 143.214 239.122 144.156 235.553C144.848 232.929 146.003 230.96 146.924 229.677C147.087 229.452 146.924 229.145 146.649 229.145H146.644Z" fill="#D3DCD7"/>
<path d="M167.256 233.436H159.286C159.062 233.436 158.879 233.257 158.874 233.032L158.614 220.61C158.614 220.385 158.426 220.206 158.202 220.206H156.354C156.13 220.206 155.942 220.39 155.942 220.615L155.815 233.026C155.815 233.251 155.627 233.436 155.403 233.436H148.975C148.746 233.436 148.562 233.62 148.562 233.85V237.598C148.562 237.823 148.741 238.007 148.959 238.013L167.017 238.672C167.241 238.682 167.434 238.503 167.444 238.278L167.673 233.865C167.683 233.63 167.495 233.43 167.261 233.43L167.256 233.436Z" fill="#D3DCD7"/>
<path d="M206.927 226.379C196.366 226.016 185.928 225.52 175.729 225.52C175.622 225.52 175.52 225.555 175.433 225.622C174.344 226.455 170.965 230.362 170.965 237.517V245.183C170.965 245.449 171.179 245.668 171.443 245.668L202.718 246.047C203.028 246.047 203.262 245.766 203.196 245.459C202.677 243.055 202.137 238.821 203.461 233.871C204.412 230.306 205.995 228.659 207.278 227.192C207.547 226.885 207.339 226.399 206.932 226.384L206.927 226.379Z" fill="#D3DCD7"/>
<path d="M227.721 257.742C235.021 257.742 240.938 251.128 240.938 242.968C240.938 234.809 235.021 228.194 227.721 228.194C220.421 228.194 214.504 234.809 214.504 242.968C214.504 251.128 220.421 257.742 227.721 257.742Z" fill="#D3DCD7"/>
<path d="M250.244 227.023L247.775 218.355C247.333 216.529 244.93 205.488 230.935 203.274C221.911 202.133 215.529 202.256 206.348 202.706C206.149 202.716 205.966 202.844 205.895 203.033L201.401 214.734C201.294 215.02 201.452 215.332 201.747 215.409L211.742 218.007C211.92 218.053 212.109 217.997 212.236 217.864C214.984 214.995 217.697 213.87 219.371 213.379C227.041 211.129 236.324 215.291 242.757 223.852C242.798 223.908 242.854 223.954 242.915 223.99C245.114 225.197 247.312 226.404 249.516 227.611C249.913 227.826 250.371 227.457 250.249 227.023H250.244Z" fill="#D3DCD7"/>
<path d="M270.524 236.882C270.26 235.655 269.71 234.274 268.656 234.218C262.946 233.927 257.221 234.177 251.5 234.172C251.332 234.172 251.179 234.065 251.129 233.901L249.846 230.122C249.79 229.953 249.627 229.841 249.449 229.856L244.838 230.173C244.599 230.188 244.431 230.418 244.482 230.654L249.505 253.559C249.546 253.738 249.698 253.866 249.882 253.871L267.71 254.137C267.868 254.137 268.015 254.045 268.076 253.897L268.936 251.871C269.048 251.611 268.86 251.324 268.58 251.319L252.36 251.074C252.197 251.074 252.05 250.971 251.994 250.813C251.271 248.706 249.597 239.393 251.373 237.844C251.444 237.782 251.541 237.757 251.637 237.762C257.434 238.059 263.231 238.355 269.028 238.647C269.985 238.698 270.723 237.818 270.524 236.877V236.882Z" fill="#D3DCD7"/>
<path d="M210.709 112.107C210.709 112.107 210.745 112.107 210.765 112.107L226.476 111.115C226.68 111.1 226.868 110.997 226.99 110.834L228.884 108.236C229.189 107.817 229.825 107.873 230.054 108.338L233.861 116.065C233.978 116.301 234.212 116.449 234.472 116.449L270.739 116.812C270.876 116.812 271.009 116.858 271.121 116.935L274.062 118.96C274.128 119.006 274.2 119.037 274.276 119.057L289.086 122.979C289.519 123.092 289.804 122.54 289.463 122.253L285.351 118.73C285.295 118.684 285.234 118.643 285.162 118.617C272.658 113.457 257.522 108.359 240.014 104.687C229.342 102.447 219.351 101.071 210.251 100.258C209.941 100.233 209.651 100.422 209.544 100.718L206.419 109.53C205.778 111.396 208.521 112.107 210.704 112.112L210.709 112.107Z" fill="#D3DCD7"/>
<path d="M204.653 190.484L207.762 190.427C208.348 190.417 208.816 189.936 208.816 189.353V166.724C208.816 166.509 208.989 166.336 209.203 166.336H224.68C224.893 166.336 225.066 166.509 225.066 166.724V190.197C225.066 190.545 225.484 190.714 225.728 190.468L228.705 187.405C228.787 187.323 228.899 187.282 229.011 187.287L254.264 189.931C254.427 189.947 254.559 190.054 254.605 190.213L261.7 215.491C261.822 215.92 262.448 215.838 262.453 215.388L262.881 172.155C262.881 171.951 262.723 171.777 262.519 171.767L235.795 169.67C233.896 169.557 232.354 168.084 232.161 166.182L229.845 143.952C229.637 141.932 230.945 140.07 232.909 139.6L238.63 138.219C238.63 138.219 238.665 138.214 238.686 138.209L253.323 136.941C257.725 136.562 261.71 139.564 262.575 143.916L267.105 166.673C267.105 166.673 267.11 166.719 267.11 166.745L267.471 217.27C267.471 217.501 267.675 217.68 267.909 217.649L272.841 216.989C272.932 216.979 273.019 216.933 273.08 216.861L276.423 213.072C276.51 212.97 276.647 212.924 276.775 212.949L289.987 215.215C290.216 215.255 290.43 215.076 290.435 214.841L290.664 197.51C290.674 197.183 291.056 197.014 291.3 197.229L294.567 199.131C294.638 199.193 294.735 199.228 294.832 199.223L331.735 199.459C331.939 199.453 332.112 199.607 332.132 199.811L333.109 210.592C333.14 210.95 333.598 211.072 333.807 210.781C334.438 209.896 335.069 209.016 335.7 208.132C335.746 208.065 335.771 207.983 335.771 207.902C335.72 204.532 335.537 199.77 334.947 194.099C334.117 186.091 333.023 176.328 331.827 176.205C315.561 174.549 284.164 170.498 279.991 170.734C279.813 170.744 279.65 170.621 279.604 170.447L268.922 130.574C268.85 130.303 269.079 130.047 269.354 130.093L317.179 137.611C317.51 137.662 317.744 137.288 317.556 137.012L312.451 129.484C312.395 129.403 312.314 129.346 312.217 129.326L274.332 120.612C274.291 120.602 274.255 120.586 274.22 120.566L270.693 118.438C270.632 118.403 270.566 118.382 270.494 118.382H210.144C205.793 118.382 202.286 121.972 202.373 126.344L203.579 189.43C203.589 190.023 204.078 190.494 204.668 190.484H204.653Z" fill="#D3DCD7"/>
<path d="M316.552 141.001L299.508 168.847C299.289 169.21 299.508 169.675 299.93 169.731L323.83 172.703C324.227 172.754 324.553 172.391 324.466 171.997L317.616 141.185C317.504 140.674 316.832 140.561 316.558 141.006L316.552 141.001Z" fill="#D3DCD7"/>
<path d="M321.956 141.262C322.048 141.492 322.292 141.615 322.531 141.553C323.671 141.257 326.628 140.74 329.285 142.499C330.466 143.282 331.199 144.264 331.631 144.985C331.718 145.133 331.88 145.22 332.048 145.22H332.44C332.72 145.22 332.944 144.985 332.934 144.704L332.746 140.71C332.736 140.485 332.578 140.3 332.359 140.249L321.391 137.815C321.004 137.728 320.679 138.117 320.831 138.485L321.961 141.262H321.956Z" fill="#D3DCD7"/>
<path d="M293.891 207.012C299.561 206.935 305.23 206.864 310.9 206.787C311.002 206.787 311.093 206.741 311.154 206.664C311.592 206.138 313.45 204.133 316.29 204.383C318.722 204.598 320.142 206.306 320.55 206.864C320.616 206.956 320.723 207.007 320.835 207.007C324.214 206.935 327.588 206.859 330.968 206.787C331.151 206.787 331.298 206.634 331.298 206.444V202C331.298 201.704 330.952 201.55 330.733 201.745L329.883 202.496C329.817 202.553 329.736 202.583 329.649 202.583L294.502 201.806C294.436 201.806 294.37 201.78 294.314 201.745L292.782 200.666C292.553 200.502 292.237 200.666 292.242 200.952C292.268 201.924 292.395 203.084 292.721 204.363C292.96 205.304 293.265 206.122 293.571 206.813C293.627 206.935 293.749 207.012 293.886 207.012H293.891Z" fill="#D3DCD7"/>
<path d="M298.604 215.358C298.604 215.358 298.629 215.358 298.64 215.358L308.691 215.971C308.925 215.987 309.103 215.772 309.042 215.542C308.844 214.816 308.666 213.854 308.671 212.724C308.671 211.625 308.854 210.689 309.047 209.978C309.108 209.758 308.94 209.543 308.711 209.548C305.011 209.62 301.311 209.697 297.611 209.768C297.55 209.768 297.494 209.753 297.438 209.727L293.759 207.682C293.52 207.549 293.235 207.738 293.255 208.009L293.57 211.988C293.769 213.276 293.525 214.519 298.599 215.353L298.604 215.358Z" fill="#D3DCD7"/>
<path d="M331.876 208.392C331.846 208.101 331.494 207.978 331.291 208.188L330.39 209.119C330.324 209.185 330.232 209.226 330.141 209.221L322.756 209.093C322.507 209.093 322.339 209.338 322.44 209.569C322.7 210.167 322.965 210.944 323.117 211.865C323.311 213.046 323.25 214.069 323.133 214.831C323.097 215.076 323.316 215.276 323.555 215.214C326.38 214.457 329.209 213.696 332.034 212.939C332.197 212.898 332.299 212.739 332.283 212.576L331.876 208.387V208.392Z" fill="#D3DCD7"/>
<path d="M294.937 219.495C302.093 225.401 307.274 223.596 316.527 224.102C317.595 224.159 318.664 223.964 319.636 223.519L331.988 217.853C332.161 217.771 332.238 217.567 332.151 217.393L331.062 215.132C330.986 214.969 330.797 214.897 330.629 214.964L321.84 218.451C321.769 218.482 321.708 218.533 321.667 218.605C321.306 219.249 320.12 221.034 318.303 221.673C315.005 222.762 312.572 221.714 310.771 219.628C310.715 219.566 310.643 219.525 310.557 219.515C306.434 219.009 302.312 218.503 298.19 217.996C298.134 217.991 298.083 217.971 298.042 217.94L294.551 215.557C294.388 215.449 294.169 215.495 294.067 215.659L293.69 216.278C293.584 216.452 293.548 216.661 293.594 216.861C293.777 217.648 294.021 218.743 294.927 219.489L294.937 219.495Z" fill="#D3DCD7"/>
<path d="M335.796 232.392C335.771 232.142 335.562 231.952 335.313 231.947C334.468 231.927 333.623 231.901 332.773 231.881C332.509 231.876 332.3 231.661 332.29 231.4L332.086 225.637C332.086 225.494 332.137 225.355 332.239 225.258L334.107 223.458C334.213 223.351 334.269 223.202 334.259 223.054L333.928 219.306C333.898 218.958 333.531 218.748 333.216 218.897L317.235 226.552C317.154 226.593 317.062 226.608 316.976 226.598L300.461 225.008C300.405 224.992 300.343 224.977 300.288 224.957L281.024 215.353C280.943 215.307 280.851 215.291 280.759 215.296L276.271 215.588C276.047 215.603 275.863 215.762 275.818 215.982L275.115 217.823C275.09 217.935 275.029 218.032 274.942 218.104L272.057 220.426C271.94 220.523 271.868 220.666 271.868 220.814V243.3C271.868 243.52 272.011 243.72 272.219 243.781C274.316 244.405 276.993 244.998 280.128 245.228C283.279 245.458 286.017 245.259 288.18 244.952C288.312 244.932 288.434 244.86 288.511 244.748C289.707 243.091 290.903 241.429 292.099 239.767C292.19 239.644 292.333 239.567 292.485 239.562L295.391 239.455C295.707 239.444 295.956 239.726 295.9 240.043L294.974 245.366C294.933 245.591 294.745 245.765 294.521 245.781L284.597 247.294C284.22 247.299 283.844 247.31 283.467 247.315L272.321 246.046C272.067 246.036 271.843 246.22 271.807 246.471L270.408 255.906C270.362 256.228 270.621 256.51 270.942 256.479C280.602 255.589 290.745 254.367 301.305 252.725C308.492 251.605 329.872 247.739 334.778 246.911C334.982 246.875 335.14 246.722 335.175 246.522C335.435 245.203 335.654 243.786 335.812 242.272C336.198 238.56 336.097 235.22 335.796 232.392ZM297.163 227.856L296.048 230.919C296.017 230.996 296.012 231.083 296.023 231.165L296.806 236.437C296.847 236.698 296.679 236.939 296.425 237L288.658 238.8C288.567 238.82 288.47 238.815 288.383 238.785L279.324 235.655C279.116 235.583 278.978 235.384 278.988 235.159L279.273 228.424C279.284 228.173 279.472 227.974 279.721 227.948L282.882 227.621C283.431 227.565 283.492 226.787 282.963 226.639C282.373 226.475 282.541 225.591 283.151 225.657L296.745 227.181C297.066 227.217 297.269 227.544 297.158 227.851L297.163 227.856ZM330.198 242.308L329.032 241.004C328.926 240.887 328.768 240.825 328.605 240.84L299.417 244.088C299.051 244.129 298.766 243.766 298.893 243.418L302.629 233.277C302.695 233.093 302.868 232.965 303.066 232.95L329.083 231.293C329.343 231.277 329.572 231.462 329.608 231.722L331.053 241.899C331.124 242.39 330.519 242.671 330.188 242.303L330.198 242.308ZM334.275 239.501C334.254 239.884 333.837 240.104 333.511 239.9L332.264 239.117C332.117 239.025 332.03 238.867 332.03 238.693V235.138C332.03 234.862 332.254 234.637 332.529 234.637H333.984C334.269 234.637 334.498 234.878 334.483 235.164L334.275 239.506V239.501Z" fill="#D3DCD7"/>
<path d="M194.313 212.949L195.067 208.822C195.148 208.367 194.792 207.953 194.329 207.973L5.16066 216.043C4.66189 216.063 4.23438 215.695 4.17331 215.199L1.71004 194.283C1.6337 193.649 1.98996 193.035 2.57524 192.79L13.6243 188.09C14.0824 187.896 14.5557 187.748 15.0443 187.65L192.171 151.981C193.133 151.786 193.815 150.917 193.779 149.93L192.013 105.132C191.962 103.869 190.781 102.969 189.56 103.255L0 147.572V222.834C0 223.407 0.285007 223.913 0.717606 224.22L0.68707 220.4C0.68707 219.981 1.01279 219.638 1.43012 219.623L193.631 213.537C193.967 213.527 194.252 213.281 194.313 212.944V212.949Z" fill="#D3DCD7"/>
</svg>
