<svg width="562" height="472" viewBox="0 0 562 472" fill="none" xmlns="http://www.w3.org/2000/svg">
<path opacity="0.5" d="M280.985 472C411.219 472 516.795 366.339 516.795 236C516.795 105.661 411.219 0 280.985 0C150.751 0 45.1758 105.661 45.1758 236C45.1758 366.339 150.751 472 280.985 472Z" fill="#809BBA"/>
<path d="M123.424 392.584C128.853 388.744 129.843 388.652 133.401 384.871C138.729 379.196 140.517 375.608 142.338 369.673C142.69 368.525 143.479 366.035 145.77 363.956C149.705 360.393 151.828 361.424 155.495 361.03C157.341 360.837 158.826 360.41 160.001 359.865C169.474 355.481 169.508 344.34 169.969 339.813C170.683 333.324 171.975 331.497 174.35 326.383C176.38 322.016 178.688 318.461 180.777 315.687C181.499 314.731 182.346 313.901 183.236 313.105C185.074 311.453 186.038 309.005 185.77 306.532C185.434 303.481 183.941 302.626 180.307 300.01L173.099 294.084C172.294 293.421 171.765 292.491 171.606 291.468L171.32 289.599C171.178 288.693 170.741 287.847 170.07 287.226C166.714 284.1 163.181 281.166 160.009 277.854C159.137 276.949 158.365 275.826 155.923 275.448C153.666 275.105 153.489 275.356 151.66 275.8C148.027 276.689 144.125 277.234 140.408 277.678C139.854 277.745 139.367 277.259 139.485 276.714C139.602 276.153 139.543 275.574 139.292 275.063C138.872 274.224 137.991 273.68 137.018 273.629C136.573 273.612 136.271 273.177 136.363 272.741C137.294 268.625 138.654 265.758 139.216 261.331C139.485 258.976 139.501 258.33 139.426 257.635C138.956 253.007 133.787 250.652 133.317 250.442L118.616 242.235C117.013 241.338 115.704 240.005 114.84 238.387L111.953 232.955C111.29 231.706 110.334 230.633 109.167 229.837C104.259 226.467 99.3583 223.088 94.4495 219.718C93.8621 219.291 91.63 217.782 88.5085 218.025C84.8416 218.318 84.0277 219.693 82.3327 221.261C81.5523 221.982 79.8573 223.231 77.3735 223.792C74.9065 224.354 72.792 223.952 71.4746 223.541C71.1725 223.449 70.9627 223.44 70.7529 223.549C70.2914 223.792 69.7292 223.533 69.5278 223.055L69.3516 222.636C69.1586 222.175 69.0579 221.68 69.0412 221.185L68.7978 207.882C68.7055 201.804 67.4133 203.162 65.6931 201.477C65.2232 201.016 65.0302 199.893 64.9631 198.61C64.9127 197.671 65.2903 197.034 65.5756 196.523C67.8916 192.289 67.9755 187.838 69.0495 182.909C69.2509 182.003 69.3768 181.391 68.8398 180.914C68.2692 180.411 67.4468 180.595 66.7504 181.056C63.2932 183.336 62.3534 185.633 60.9689 189.364C60.7591 189.758 59.8193 191.376 57.7971 192.038C57.2936 192.205 56.8153 192.281 56.379 192.306C55.4895 192.356 54.8602 191.451 55.2294 190.638L70.8788 156.972C71.2061 156.259 72.1291 156.066 72.7165 156.569C72.9766 156.787 73.2367 157.014 73.4968 157.232C74.1933 157.827 75.2841 157.492 75.5191 156.603C75.5778 156.385 75.6366 156.201 75.7037 156.025C76.9204 152.948 81.2418 151.12 86.4695 151.531C88.089 151.649 89.6749 152.437 92.3685 151.129C94.1054 150.282 95.1375 149.008 96.3962 147.516C111.332 133.005 124.616 120.112 139.56 105.601C140.945 103.857 143.353 102.256 145.476 103.103C147.28 103.824 148.421 105.752 148.262 107.789C148.211 108.476 148.723 109.071 149.403 109.139C151.82 109.398 151.954 109.6 154.354 110.002C159.707 110.891 161.721 110.136 162.342 108.409C162.812 107.101 162.015 106.179 160.63 104.276C158.734 101.678 156.451 99.3975 154.354 96.9497C154.127 96.7737 151.316 94.4683 151.82 92.5151C152.306 90.6122 158.297 89.4973 161.637 90.8721L165.698 93.169C168.023 94.6276 170.121 94.3342 170.171 93.848C170.314 92.5822 167.696 91.2158 169.29 90.7463C171.01 90.2433 176.305 89.3212 181.163 87.2255C185.451 85.3728 188.715 83.0507 191.065 81.173C192.24 79.8065 195.051 77.8617 190.075 78.4233C188.245 78.5659 185.644 77.0905 184.578 73.9552C183.756 71.5409 184.369 69.2021 187.188 66.2932C187.515 65.9579 187.196 65.3962 186.735 65.4549L174.962 67.8356C174.064 67.9782 173.511 67.7518 173.586 66.8465L173.813 64.1388C173.972 62.3364 173.318 61.3388 172.21 60.752C170.691 59.9557 168.585 60.4335 166.924 61.758C165.287 63.0238 165.673 62.6131 163.861 64.0968C162.25 65.4214 160.454 68.062 159.179 68.6991C158.205 69.1685 157.123 69.3362 156.057 69.1937L154.152 68.9422C153.775 68.8919 153.405 69.1182 153.288 69.4787L152.566 71.608C152.096 72.9912 151.199 74.1899 150.007 75.0366C146.441 77.5599 139.317 82.2711 138.327 82.9334C137.471 83.5034 136.766 84.2663 136.254 85.1549C134.139 88.8098 132.428 91.6098 131.916 91.4002C131.253 91.1236 130.221 89.1955 133.711 81.349C133.821 81.0975 133.619 80.8293 133.351 80.8712C128.517 81.6508 124.96 79.3287 124.683 77.1575C124.456 75.3719 126.369 73.1588 129.197 71.8762C140.173 66.6201 152.734 63.8454 162.115 56.0995C162.929 55.4288 163.5 54.5989 163.24 53.2828C162.921 51.6397 161.335 49.653 157.458 50.8182L131.312 64.7507C130.556 65.1531 129.65 65.1531 128.895 64.7591L122.199 61.255C83.9773 95.9521 57.1929 143.006 48.1641 196.095L52.0995 194.066C52.5862 197.26 53.0729 200.454 53.5595 203.648C53.677 204.411 54.3315 204.964 55.1035 204.998C55.2546 204.998 55.3888 205.023 55.5147 205.04C56.1021 205.132 59.0977 206.8 59.6179 210.22C60.4151 215.292 61.3549 218.779 63.2849 223.08C65.3994 227.808 67.6482 230.633 69.6957 232.653C70.8788 233.819 71.3571 235.529 70.9208 237.13C66.5238 248.246 71.4158 246.745 66.7588 252.471C66.4231 252.839 64.2582 255.287 64.8288 258.389C65.0218 259.445 65.4665 260.25 65.819 260.736C66.6833 261.969 67.0189 262.513 66.9014 263.695C66.7672 265.037 65.5337 265.816 65.2568 265.992C63.2513 267.602 61.2878 269.17 61.5311 274.04C61.6821 277.016 63.2093 279.112 64.3589 280.294C65.3071 281.258 66.0539 282.406 66.5742 283.655C68.2188 287.612 69.8719 291.56 71.5165 295.517C71.9529 296.565 72.1878 297.688 72.2298 298.828C72.3389 301.897 72.8339 305.82 74.3108 310.137C76.8533 317.573 81.0992 322.661 84.0445 325.57C84.9759 326.492 85.1437 327.674 85.4542 328.295C87.7449 334.607 88.668 333.635 89.2218 338.555C89.6078 341.984 88.9868 345.287 88.5673 347.123C87.3925 353.804 87.6359 356.596 88.861 363.017C90.4385 371.308 95.255 380.453 99.1149 386.414C105.945 394.637 113.321 402.392 121.192 409.618C121.074 403.423 118.708 395.895 123.416 392.567L123.424 392.584Z" fill="#6687AD"/>
<path d="M199.416 43.9533C197.344 43.6516 195.942 43.9533 194.826 44.2467C194.39 44.3641 193.937 44.3809 193.492 44.3222C192.242 44.1545 189.506 44.0623 187.643 45.982C186.913 46.7365 186.536 47.5832 186.326 48.237L184.153 52.2106C183.809 52.8393 183.221 53.292 182.525 53.4513C181.207 53.7447 180.779 54.3901 180.687 54.5327C179.747 56.0416 180.947 59.1852 184.413 61.6163C190.161 62.4713 191.235 62.3204 194.348 62.027C195.137 61.9516 195.875 61.5911 196.412 61.0127L204.166 52.7052C204.535 52.3028 204.803 51.8166 204.921 51.2884C205.047 50.7268 205.139 50.0813 205.172 49.3687C205.24 47.8095 205.651 47.0467 204.703 45.6635C203.662 45.1186 201.506 44.2635 199.416 43.9617V43.9533Z" fill="#6687AD"/>
<path d="M255.632 61.2309C255.741 61.2477 255.842 61.2812 255.951 61.3148C257.042 61.7172 258.686 62.1447 260.658 62.0357C264.879 61.801 267.724 59.2777 268.773 58.2131C268.949 58.0286 269.167 57.8945 269.402 57.8023C279.538 53.8204 280.646 56.285 284.321 56.9137C285.916 57.1903 287.434 57.8778 289.045 58.037C293.669 58.4897 296.816 58.5819 298.997 58.4897C301.095 58.3975 302.194 55.9329 300.852 54.3234C299.996 53.3007 299.274 51.9258 299.039 50.1235C299.031 50.0481 299.022 49.9726 299.022 49.8972C299.006 48.5056 300.667 47.7092 301.817 48.5056C302.186 48.7571 302.639 49.0086 303.176 49.2014C305.324 49.9475 307.263 49.1427 307.875 48.8493C307.934 48.8158 308.001 48.7906 308.068 48.7655C314.68 46.3428 322.106 45.144 328.148 41.8579C328.853 41.4723 328.652 40.4076 327.863 40.2903C320.176 38.8903 312.28 37.5658 304.175 36.3419C295.238 34.9839 286.503 33.8102 277.986 32.7959C275.964 32.5528 273.941 32.4019 271.911 32.3097C262.026 31.857 251.621 31.6893 240.738 31.9073C234.78 32.0247 228.982 32.251 223.343 32.5612C221.564 32.6618 220.196 34.1539 220.247 35.9227L220.54 46.7787C220.566 47.6924 221.262 48.4469 222.168 48.5559C230.66 49.5367 234.923 50.6516 234.956 51.9007C234.99 53.0659 231.331 54.3401 223.972 55.7317C223.83 55.7569 223.679 55.7988 223.544 55.8658C219.24 57.8191 219.265 62.4465 220.255 65.2799C221.715 69.4463 228.99 72.4054 236.786 68.9014C236.92 68.8427 237.054 68.7589 237.172 68.6666C247.971 60.2418 250.639 60.3591 255.649 61.2477L255.632 61.2309Z" fill="#6687AD"/>
<path d="M195.309 93.0683L190.61 90.1343C190.148 89.1703 189.536 88.6924 189.175 88.4577C187.58 88.1392 185.424 88.2733 183.066 89.2876C179.802 90.4361 178.015 89.3379 176.63 90.8385C175.329 92.2468 174.591 92.9091 174.188 93.6552C172.141 94.0072 170.874 94.0995 170.807 95.0886C170.765 95.6755 171.419 96.1198 173.559 97.8802C178.166 102.482 179.894 100.32 182.512 98.7269C185.592 96.8491 185.927 95.6838 189.292 94.9461C190.115 94.7617 190.895 94.6779 191.591 94.6527C192.011 94.636 192.422 94.5857 192.833 94.4851C193.614 94.2923 194.394 94.1078 195.183 93.915C195.586 93.8144 195.669 93.2863 195.317 93.0683H195.309Z" fill="#456080"/>
<path d="M479.362 107.95H473.539C467.774 107.715 462.689 101.729 461.086 99.642C460.625 99.0384 460.104 98.4768 459.534 97.9738C457.646 96.3139 454.541 94.0925 450.203 92.8015C446.393 91.6698 443.079 91.6949 440.973 91.8877C439.605 92.047 436.492 92.3236 436.248 91.5356C435.988 90.6973 443.389 86.1035 446.821 83.8317C447.165 83.6054 446.989 83.0688 446.578 83.094L438.825 83.5131C438.027 83.5551 436.232 83.27 435.586 82.809C435.586 82.809 423.284 76.0858 410.706 63.5533C408.633 61.4911 406.267 60.9797 400.1 66.261C393.823 73.0931 386.716 74.6943 384.568 70.5363C383.536 68.5495 379.801 68.9352 379.801 68.9352C369.581 69.9914 366.778 78.3241 367.911 81.4677C369.212 85.064 375.245 84.6113 377.964 85.1311C381.773 86.4472 382.831 88.9621 382.193 90.6219C381.589 92.1895 380.263 92.2985 378.249 92.4494C368.415 93.1871 361.198 92.6757 352.379 92.726C351.867 92.726 351.372 92.8602 350.928 93.12L341.79 98.3845C341.228 98.7031 341.135 99.4659 341.58 99.927C342.109 100.48 342.696 101.26 343.107 102.308C343.971 104.529 343.585 106.533 343.283 107.094C340.212 112.795 339.23 116.576 339.793 121.354C339.835 121.731 339.474 122.025 339.121 121.899C338.039 120.742 329.841 112.216 322.138 114.522H322.113C320.753 114.941 319.495 115.821 319.285 117.389C316.381 139.302 316.684 142.89 322.213 145.665C323.296 146.209 325.545 146.939 329.514 145.597C330.218 145.354 330.965 145.254 331.712 145.254H338.542C339.105 145.254 339.616 144.944 339.868 144.441C340.791 142.605 342.31 140.165 344.769 137.86C348.989 133.895 353.596 132.52 355.836 132.017C364.932 130.466 363.439 128.186 370.672 129.41C374.742 130.097 378.216 131.313 379.516 132.998C384.945 140.04 388.537 142.948 393.051 147.928C393.311 148.305 394.721 149.42 395.518 149.722C397.163 150.351 398.396 147.609 400.209 146.796C401.937 146.025 402.407 147.458 402.785 147.92L407.014 153.972C407.542 155.414 408.029 156.017 409.128 156.261C410.278 156.512 410.891 154.911 412.09 154.961C413.785 155.028 413.215 154.928 414.348 156.227C414.943 158.272 415.103 158.465 416.001 158.482C416.924 158.499 417.696 157.51 417.729 156.227C417.788 153.972 420.414 154.031 423.578 155.104C426.741 156.076 430.199 155.037 432.288 152.497C434.419 149.89 434.713 146.209 433.026 143.275C430.643 135.932 438.774 135.421 441.275 138.195C444.312 143.057 446.309 145.296 447.266 144.918C447.652 144.768 447.862 144.122 447.904 143.116C447.937 142.345 448.206 141.582 448.76 141.037C449.473 140.325 450.564 140.073 451.705 143.686L457.486 158.189C458.191 159.949 458.544 161.349 457.629 161.995C456.874 162.523 455.909 161.533 454.524 161.29C426.96 156.42 421.799 162.514 436.626 169.304C438.069 169.967 439.647 170.285 441.233 170.277C442.995 170.269 445.579 170.646 447.333 172.633C448.097 173.496 448.508 174.443 448.743 175.24C448.953 179.808 449.162 184.385 449.381 188.954C449.423 189.767 448.768 190.455 447.954 190.455H433.396C432.858 190.455 432.447 190.916 432.498 191.444L433.169 197.907C433.219 198.36 433.454 198.771 433.832 199.031L444.799 206.734C449.498 209.92 464.862 251.751 464.862 251.751C467.69 260.344 468.47 261.878 469.477 261.928C470.333 261.97 470.342 259.891 471.877 258.902C476.459 255.943 479.018 256.462 484.187 255.171C490.304 253.461 495.087 248.876 496.48 243.125C498.326 235.48 493.795 227.147 485.597 223.341C479.068 220.306 475.049 218.898 476.601 211.714C477.868 209.476 481.913 206.676 486.964 211.856C490.027 215 492.393 218.798 494.659 220.038C495.481 220.491 496.245 221.036 496.841 221.748C497.688 222.763 498.586 223.727 499.576 224.607C500.701 225.613 501.892 226.845 503.042 228.337C506.7 233.107 507.934 238.003 508.395 240.828C509.461 256.177 510.535 271.535 511.601 286.884C515.226 270.462 517.13 253.402 517.13 235.899C517.13 188.728 503.268 144.784 479.396 107.924L479.362 107.95Z" fill="#6687AD"/>
<path d="M417.923 343.291C418.376 341.648 418.997 340.055 419.727 338.521C422.513 332.67 424.745 328.688 425.467 328.185C426.809 327.255 427.296 327.976 429.805 326.844C432.104 325.109 434.026 322.77 436.325 321.034C440.915 317.522 448.735 310.396 452.537 298.962C453.493 296.095 454.332 295.55 454.366 290.898C454.131 289.858 453.946 288.291 454.399 286.53C454.903 284.585 455.935 283.311 456.48 282.724C457.68 281.4 458.754 279.421 460.164 277.217C461.012 275.892 461.414 275.045 461.205 274.593C460.34 273.243 459.409 274.35 454.794 273.713C454.081 273.528 453.401 273.302 452.746 273.042C442.325 268.867 443.869 256.108 437.793 249.771C437.08 249.184 436.107 248.22 435.268 246.837C433.094 243.274 433.447 239.577 433.648 238.219C433.892 236.09 434.252 232.167 433.388 228.126C432.599 224.446 431.936 223.038 430.325 220.246C429.805 219.341 429.436 218.351 429.251 217.32C427.984 210.362 425.316 205.685 425.542 204.167C425.677 203.262 426.105 202.415 426.734 201.745C427.12 201.334 427.539 200.881 427.85 200.546C428.06 200.311 428.228 200.043 428.32 199.741C429 197.595 429.1 195.86 428.991 194.77C428.907 193.865 428.714 193.06 428.496 192.373C428.093 191.14 427.095 190.193 425.844 189.833C417.621 187.485 412.058 184.719 403.835 182.372C403.054 182.145 402.333 181.751 401.72 181.206C400.998 180.913 400.117 180.469 399.211 179.781C397.566 178.541 396.618 177.099 396.106 176.168C394.755 174.207 393.421 173.218 392.431 175.38C391.449 177.526 390.51 179.547 390.51 179.547C389.62 181.332 389.746 183.285 388.957 183.822C387.715 184.66 386.532 184.099 384.023 182.464C382.202 181.274 380.667 180.578 379.76 179.874C377.461 178.08 374.818 175.296 373.459 171.315C373.324 170.912 373.14 170.535 372.838 170.258C372.225 169.697 371.285 169.554 370.446 169.873C369.439 170.25 368.315 170.25 367.275 169.982C367.249 169.982 367.233 169.973 367.207 169.965C366.217 169.705 365.093 169.278 363.96 168.565C361.887 167.266 360.587 165.547 359.79 164.063C359.286 163.141 359.009 162.11 358.959 161.062C358.833 158.22 357.902 151.514 350.912 151.916L332.334 151.715L313.815 151.053C305.449 150.961 302.537 148.362 294.733 155.311C292.132 157.625 290.597 160.283 289.682 162.529C288.675 164.994 286.544 166.813 283.951 167.425C279.42 168.481 272.53 171.222 268.008 178.306C264.097 184.434 263.913 190.746 264.341 194.703C264.567 196.807 263.518 198.861 261.647 199.842C258.719 201.376 256.705 203.648 256.31 206.255C256.268 206.515 256.243 206.808 256.235 207.127C256.218 208.434 255.924 209.725 255.287 210.865C253.525 214.051 251.561 218.838 251.444 224.773C251.41 226.349 251.519 227.807 251.695 229.14C251.855 230.306 251.939 231.488 251.939 232.661V254.046C251.939 255.337 252.56 256.553 253.608 257.307L272.799 271.173C273.63 271.625 276.046 272.807 279.21 272.371C283.288 271.81 283.968 269.504 286.049 268.356C293.324 264.273 295.916 265.271 298.383 265.707C305.474 267.333 314.478 270.217 319.881 268.918C320.855 268.666 321.837 268.985 322.348 269.689C322.776 270.284 322.726 270.955 322.701 271.164C322.659 271.458 322.214 275.238 325.101 277.762C327.299 279.681 330.236 278.969 333.274 278.768C333.945 278.726 337.906 279.379 339.76 283.278C341.094 286.086 340.566 288.651 340.045 289.33C336.706 293.748 335.707 297.822 337.159 299.331C337.469 299.65 338.09 299.633 339.34 300.035C339.978 300.236 340.264 300.714 340.188 301.796C340.121 302.701 339.433 303.204 339.34 303.271C338.266 304.067 337.813 305.459 338.216 306.725C338.602 307.957 339.995 308.125 341.035 308.904C342.546 310.036 342.789 311.495 343.007 314.119C343.184 316.239 342.647 317.899 342.303 318.763C340.071 321.99 336.983 327.322 335.254 334.539C334.39 338.169 334.054 341.506 333.987 344.356C333.92 347.508 333.676 350.66 333.139 353.77C332.552 357.115 332.166 361.055 332.292 365.456C332.426 370.025 333.081 373.998 333.844 377.217C335.867 388.769 337.889 400.312 339.903 411.864C340.465 414.572 340.641 415.804 342.227 417.212C344.644 419.065 348.579 418.755 351.323 416.089C364.396 405.35 371.017 403.917 374.508 403.171C376.874 402.668 379.123 402.4 381.212 402.282C381.573 402.257 384.98 401.93 386.918 398.828C388.823 395.777 387.69 392.633 387.556 392.281C387.187 391.653 387.17 390.881 387.522 390.278C387.942 389.549 388.789 389.381 389.67 389.331C392.028 389.188 392.817 388.249 394.671 386.053C396.694 383.672 397.055 381.107 397.138 380.176C397.147 379.355 397.231 378.064 397.6 376.547C398.699 372.003 401.502 369.044 403.063 367.635C416.455 353.871 416.74 347.139 417.336 345.278C417.554 344.599 417.747 343.937 417.932 343.266L417.923 343.291Z" fill="#6687AD"/>
<path d="M458.776 357.662L458.843 355.709C458.86 355.29 458.39 355.03 458.046 355.273L455.411 357.092C455.058 357.335 454.572 357.293 454.261 356.992L451.257 354.041C450.972 353.756 450.477 353.923 450.426 354.326C449.982 357.453 450.317 359.875 449.084 363.715C448.362 365.953 446.827 368.686 444.645 371.603C442.824 374.026 440.953 375.878 439.359 377.236C439.359 377.236 418.775 390.758 418.775 391.32C416.837 392.351 415.754 394.489 416.098 396.601C416.409 398.554 417.877 400.164 419.832 400.684C424.943 401.421 427.519 400.189 430.758 396.878C431.102 396.526 432.058 395.763 433.51 395.536C435.499 395.235 436.95 396.274 437.32 396.45C439.753 397.649 443.042 397.439 447.12 394.405C451.291 391.303 452.935 384.513 451.282 379.827C450.947 378.879 451.207 376.121 452.902 373.347C454.421 370.857 455.788 369.616 457.416 369.189C459.279 368.703 461.024 367.923 461.578 366.163C461.964 364.913 461.545 362.541 460.034 360.906C459.212 360.018 458.75 358.853 458.792 357.645L458.776 357.662Z" fill="#6687AD"/>
<path d="M270.434 113.717L148.636 109.011L11.5318 92.3261C10.0388 92.1416 8.52062 92.4352 7.20376 93.1566L1.18138 96.4534C0.14131 97.0238 0.376209 98.5841 1.54209 98.819L150.532 128.263C151.748 128.507 152.973 128.674 154.206 128.767L252.761 136.467C253.314 136.509 253.583 137.172 253.205 137.583L249.431 141.719C248.886 142.314 248.089 142.633 247.284 142.566L212.852 139.848C211.233 139.722 209.749 138.892 208.793 137.583L158.676 69.0895C157.98 68.1416 156.789 67.697 155.64 67.957L142.052 71.086C140.442 71.4551 139.452 73.0825 139.863 74.6848L148.653 109.003L165.949 154.755C166.242 155.535 165.856 156.416 165.085 156.726L159.188 159.075C158.71 159.268 158.198 159.36 157.678 159.343L69.0627 157.867C68.9956 157.867 68.9369 157.867 68.8698 157.892L60.155 160.174C59.3834 160.375 59.484 161.499 60.2725 161.566L149.551 169.066C150.197 169.124 150.675 169.712 150.574 170.358C150.054 173.713 150.163 179.51 168.532 179.241H234.861C236.916 179.241 238.963 178.931 240.934 178.31L409.023 125.646C409.484 125.503 409.962 125.445 410.44 125.47L417.377 125.839C417.972 125.872 418.115 126.686 417.57 126.921L368.175 148.195C366.892 148.748 365.575 149.21 364.241 149.587L282.361 172.665C282.025 172.757 282.118 173.268 282.47 173.218C301.325 170.785 344.002 163.705 353.27 160.677C394.73 147.893 412.294 142.331 412.982 141.845C413.695 141.341 414.542 141.098 415.414 141.157C424.54 141.71 433.666 142.264 442.792 142.826C443.513 142.868 443.915 143.69 443.504 144.286L441.273 147.532C438.564 151.475 441.5 156.81 446.281 156.642L488.311 155.115C489.117 155.115 498.67 154.654 503.77 147.121C508.408 140.276 505.884 130.184 505.665 129.673C516.351 128.062 527.423 125.856 538.973 123.725C550.85 121.536 560.814 119.514 560.789 118.801C560.839 118.532 560.856 118.155 560.739 117.761C560.37 116.553 558.877 115.714 556.989 115.622L463.484 116.653C462.947 116.653 462.821 115.907 463.324 115.739C484.369 108.424 491.977 106.612 510.43 96.1011C520.411 90.4219 528.069 81.5383 533.756 75.3391C546.832 56.3387 533.135 51.1294 530.837 49.6278C530.837 49.6278 526.064 39.9053 507.863 38.9406C500.473 38.5463 491.121 38.9406 485.552 40.266C465.002 44.8295 360.718 80.9092 273.755 113.18C272.698 113.575 271.574 113.751 270.45 113.709L270.434 113.717Z" fill="#456080"/>
<path d="M286.984 114.312H308.834C309.807 114.312 310.771 114.144 311.686 113.809L458.629 60.3647C459.149 60.1717 459.694 60.5576 459.694 61.1113V63.2336C459.694 63.7201 459.392 64.148 458.931 64.3157L320.895 113.566C320.484 113.708 320.593 114.321 321.029 114.321H346.704C347.409 114.321 348.113 114.228 348.793 114.052L427.628 93.6425C515.799 70.7582 530.103 58.6846 536.284 53.5591C536.172 53.108 534.174 51.3035 530.904 49.6763L514.122 49.9963C513.593 49.9963 513.065 50.0801 512.57 50.2563L500.886 54.2493C500.223 54.4758 499.653 53.7292 500.047 53.1504L503.318 48.2766C503.562 47.9075 503.947 47.6642 504.384 47.5887L511.228 46.4814C511.689 46.4059 512.15 46.3556 512.612 46.3388L523.575 45.8439C522.887 45.2063 521.939 44.4765 520.714 43.8474C518.349 42.631 516.135 42.4213 514.826 42.4045C508.141 41.9012 500.618 41.9096 494.126 42.4297C491.609 42.631 489.126 43.1763 486.744 44.0067L286.858 113.566C286.447 113.708 286.548 114.321 286.984 114.321V114.312Z" fill="#809BBA"/>
<path d="M456.216 119.269L451.452 122.482C450.999 122.792 451.242 123.505 451.787 123.472L544.16 118.371C544.689 118.271 544.488 117.826 544.068 117.826C515.466 118.095 486.856 118.363 458.254 118.631C457.524 118.631 456.811 118.858 456.208 119.269H456.216Z" fill="#809BBA"/>
<path d="M492.495 123.129C486.12 123.129 480.953 129.236 480.953 136.761C480.953 144.285 486.12 150.392 492.495 150.392C498.87 150.392 504.036 144.285 504.036 136.761C504.036 129.236 498.87 123.129 492.495 123.129ZM493.09 146.835C492.679 146.919 492.394 146.441 492.663 146.122C494.315 144.184 498.014 141.089 498.207 135.955C498.392 131.174 493.619 127.869 491.924 126.182C491.681 125.939 491.891 125.52 492.235 125.57C497.368 126.249 501.378 130.469 501.713 135.561C502.065 140.863 498.333 145.711 493.082 146.844L493.09 146.835Z" fill="#809BBA"/>
<path d="M312.605 116.652C305.182 116.652 299.168 122.566 299.168 129.865C299.168 137.163 305.182 143.077 312.605 143.077C320.029 143.077 326.043 137.163 326.043 129.865C326.043 122.566 320.029 116.652 312.605 116.652ZM316.472 140.032C313.998 141.172 313.553 140.308 313.78 139.931C314.652 138.488 316.086 132.364 314.904 128.338C313.998 125.251 310.584 122.692 306.189 121.316C305.836 121.207 307.044 120.201 307.413 120.033C311.876 118.011 319.861 119.01 322.486 125.393C324.449 130.158 322.109 137.439 316.464 140.04L316.472 140.032Z" fill="#809BBA"/>
<path d="M263.126 137.793C267.168 134.689 276.328 127.76 278.97 125.772C279.456 125.403 279.951 125.076 280.48 124.782C283.097 123.339 286.326 121.821 290.117 120.521C294.336 119.078 298.169 118.298 301.331 117.861C301.465 117.861 301.759 117.861 301.885 118.046C302.002 118.205 302.019 118.44 301.86 118.625C300.702 120.017 299.486 121.779 298.438 123.935C296.601 127.718 297.356 132.802 298.245 136.451C298.547 137.675 297.515 137.667 297.054 136.912C294.663 133.045 294.453 128.372 294.663 126.057C294.688 125.805 294.495 125.587 294.244 125.579C292.893 125.537 291.392 125.562 289.765 125.713C287.307 125.948 285.135 126.409 283.306 126.938C282.568 127.156 281.855 127.458 281.184 127.835C275.229 131.25 269.282 134.672 263.327 138.086C263.134 138.195 262.949 137.927 263.126 137.793Z" fill="#809BBA"/>
<path d="M269.597 117.532L266.418 121.14C266.275 121.307 266.057 121.391 265.839 121.383L148.982 116.744C148.051 116.71 147.12 116.618 146.189 116.467L19.9633 96.544C19.6949 96.5272 19.544 96.3343 19.5691 96.2085C19.5859 96.0994 19.7536 95.9987 19.9633 96.0155C63.0507 101.46 106.138 106.904 149.225 112.348C150.115 112.457 151.012 112.533 151.901 112.558L269.068 116.308C269.689 116.324 269.999 117.054 269.597 117.524V117.532Z" fill="#809BBA"/>
<path d="M161.836 132.927L170.341 152.33C170.576 152.859 171.189 153.119 171.725 152.909L204.244 140.469C204.857 140.234 205.125 139.512 204.815 138.933L203.229 136.023C203.062 135.704 202.743 135.494 202.382 135.46L162.935 131.4C162.105 131.316 161.492 132.155 161.828 132.919L161.836 132.927Z" fill="#809BBA"/>
<path d="M154.214 107.29L179.646 109.194C180.779 109.278 181.492 108.012 180.837 107.089L155.858 72.0157C155.506 71.5208 154.86 71.3279 154.29 71.546L146.456 74.5407C145.835 74.7756 145.483 75.4299 145.625 76.0759L152.017 105.394C152.243 106.443 153.132 107.215 154.206 107.299L154.214 107.29Z" fill="#809BBA"/>
</svg>
