<svg width="341" height="289" viewBox="0 0 341 289" fill="none" xmlns="http://www.w3.org/2000/svg">
<path d="M170.239 288.086C249.266 288.086 313.33 223.668 313.33 144.203C313.33 64.7393 249.266 0.320801 170.239 0.320801C91.2125 0.320801 27.1484 64.7393 27.1484 144.203C27.1484 223.668 91.2125 288.086 170.239 288.086Z" fill="#CCD7E4"/>
<path d="M74.6292 239.669C77.9236 237.328 78.5244 237.272 80.6833 234.967C83.9166 231.507 85.0012 229.32 86.1061 225.701C86.3199 225.001 86.7986 223.483 88.1886 222.215C90.5767 220.043 91.8649 220.672 94.09 220.432C95.2102 220.314 96.1115 220.054 96.8243 219.721C102.573 217.048 102.593 210.256 102.873 207.496C103.306 203.54 104.09 202.426 105.531 199.309C106.763 196.646 108.164 194.479 109.432 192.787C109.869 192.204 110.384 191.698 110.923 191.213C112.039 190.206 112.624 188.714 112.461 187.206C112.258 185.346 111.351 184.824 109.146 183.23L104.773 179.616C104.284 179.213 103.963 178.645 103.866 178.022L103.693 176.882C103.607 176.33 103.342 175.814 102.934 175.436C100.898 173.529 98.7541 171.741 96.8294 169.722C96.2999 169.17 95.8314 168.485 94.3497 168.255C92.98 168.045 92.8731 168.199 91.7631 168.47C89.5583 169.011 87.1907 169.344 84.935 169.614C84.5989 169.655 84.3036 169.359 84.3749 169.027C84.4462 168.684 84.4105 168.332 84.2578 168.02C84.0032 167.509 83.4685 167.177 82.8779 167.146C82.608 167.136 82.4247 166.87 82.4807 166.604C83.0459 164.095 83.8708 162.347 84.212 159.648C84.3749 158.212 84.3851 157.819 84.3393 157.394C84.0541 154.573 80.9176 153.137 80.6324 153.009L71.7116 148.006C70.7391 147.459 69.9448 146.646 69.4203 145.66L67.6687 142.348C67.2665 141.586 66.686 140.932 65.9782 140.447C62.9996 138.392 60.0259 136.332 57.0473 134.278C56.6908 134.017 55.3364 133.097 53.4423 133.245C51.2172 133.424 50.7232 134.263 49.6947 135.218C49.2212 135.658 48.1926 136.419 46.6855 136.762C45.1885 137.104 43.9053 136.859 43.1059 136.608C42.9226 136.552 42.7953 136.547 42.668 136.614C42.388 136.762 42.0468 136.603 41.9246 136.312L41.8177 136.056C41.7006 135.775 41.6395 135.474 41.6293 135.172L41.4816 127.061C41.4256 123.356 40.6415 124.184 39.5977 123.157C39.3125 122.876 39.1954 122.191 39.1547 121.409C39.1242 120.836 39.3533 120.448 39.5264 120.136C40.9317 117.555 40.9827 114.841 41.6344 111.836C41.7566 111.284 41.833 110.911 41.5071 110.62C41.1609 110.313 40.6619 110.425 40.2393 110.707C38.1414 112.097 37.5712 113.497 36.731 115.771C36.6037 116.012 36.0334 116.998 34.8063 117.402C34.5008 117.504 34.2106 117.55 33.9458 117.565C33.4061 117.596 33.0242 117.044 33.2482 116.548L42.7444 96.023C42.943 95.5886 43.5031 95.4711 43.8595 95.7777C44.0174 95.9106 44.1752 96.0486 44.3331 96.1815C44.7557 96.5443 45.4176 96.3399 45.5602 95.7982C45.5958 95.6653 45.6315 95.5528 45.6722 95.4455C46.4105 93.5698 49.0328 92.4556 52.205 92.7061C53.1877 92.7776 54.15 93.2581 55.7845 92.4608C56.8385 91.9446 57.4648 91.1677 58.2285 90.258C67.2919 81.4111 75.3522 73.5505 84.4207 64.7036C85.2609 63.6406 86.7222 62.6644 88.0104 63.1806C89.1052 63.6201 89.7976 64.7956 89.7009 66.0376C89.6704 66.4567 89.981 66.8195 90.3934 66.8604C91.8598 67.0189 91.9413 67.1415 93.3975 67.3868C96.6461 67.9286 97.8681 67.4686 98.2449 66.4158C98.5301 65.6185 98.0463 65.0563 97.2062 63.8961C96.0555 62.3118 94.6705 60.9216 93.3975 59.4292C93.2601 59.3219 91.5543 57.9164 91.8598 56.7256C92.1551 55.5654 95.7907 54.8857 97.8172 55.7238L100.282 57.1242C101.692 58.0135 102.965 57.8346 102.996 57.5382C103.082 56.7665 101.493 55.9334 102.461 55.6472C103.505 55.3405 106.718 54.7783 109.666 53.5006C112.268 52.3711 114.248 50.9554 115.674 49.8106C116.387 48.9775 118.093 47.7918 115.073 48.1342C113.963 48.2211 112.385 47.3216 111.738 45.4101C111.239 43.9382 111.611 42.5123 113.322 40.7388C113.52 40.5344 113.327 40.1919 113.047 40.2277L105.903 41.6792C105.358 41.7661 105.022 41.6281 105.068 41.0761L105.205 39.4253C105.302 38.3265 104.905 37.7183 104.233 37.3605C103.311 36.875 102.033 37.1663 101.025 37.9738C100.032 38.7455 100.266 38.4951 99.1665 39.3997C98.1889 40.2073 97.0993 41.8172 96.3253 42.2056C95.7347 42.4918 95.0778 42.594 94.4312 42.5071L93.2753 42.3538C93.0462 42.3232 92.8222 42.4611 92.7509 42.6809L92.313 43.9791C92.0278 44.8224 91.483 45.5532 90.76 46.0694C88.596 47.6078 84.2731 50.4801 83.6722 50.8839C83.1529 51.2314 82.7251 51.6965 82.4145 52.2382C81.1314 54.4666 80.0927 56.1736 79.7821 56.0458C79.3798 55.8772 78.7536 54.7017 80.8717 49.9179C80.9379 49.7646 80.8157 49.601 80.6528 49.6266C77.7199 50.1019 75.561 48.6862 75.393 47.3625C75.2555 46.2739 76.4164 44.9246 78.1324 44.1426C84.7924 40.9381 92.4148 39.2464 98.1074 34.524C98.6014 34.1151 98.9476 33.6091 98.7897 32.8067C98.5963 31.805 97.6339 30.5937 95.2815 31.3041L79.4155 39.7984C78.9572 40.0437 78.4073 40.0437 77.9491 39.8035L73.8858 37.6672C50.6927 58.821 34.4397 87.5083 28.9609 119.875L31.349 118.639C31.6443 120.586 31.9396 122.533 32.235 124.48C32.3062 124.945 32.7034 125.283 33.1718 125.303C33.2635 125.303 33.345 125.319 33.4213 125.329C33.7778 125.385 35.5955 126.402 35.9112 128.487C36.3949 131.579 36.9652 133.705 38.1363 136.327C39.4195 139.21 40.7841 140.932 42.0265 142.164C42.7444 142.874 43.0346 143.917 42.7699 144.893C40.1018 151.67 43.0703 150.755 40.2443 154.246C40.0407 154.471 38.727 155.963 39.0732 157.854C39.1903 158.498 39.4602 158.989 39.6741 159.285C40.1985 160.037 40.4022 160.369 40.3309 161.089C40.2494 161.907 39.5009 162.383 39.3329 162.49C38.116 163.471 36.9245 164.427 37.0722 167.396C37.1638 169.211 38.0905 170.488 38.7881 171.209C39.3635 171.797 39.8166 172.497 40.1323 173.258C41.1303 175.671 42.1334 178.078 43.1314 180.49C43.3962 181.129 43.5387 181.814 43.5642 182.509C43.6304 184.38 43.9308 186.772 44.827 189.404C46.3698 193.937 48.9462 197.039 50.7334 198.813C51.2986 199.375 51.4005 200.096 51.5889 200.474C52.9789 204.322 53.539 203.729 53.8751 206.73C54.1093 208.82 53.7325 210.834 53.4779 211.953C52.7651 216.026 52.9127 217.728 53.6561 221.643C54.6134 226.698 57.5361 232.274 59.8783 235.907C64.023 240.921 68.4987 245.649 73.2748 250.054C73.2035 246.277 71.7676 241.688 74.6241 239.659L74.6292 239.669Z" fill="#B3C3D6"/>
<path d="M120.743 27.1188C119.486 26.9348 118.635 27.1188 117.958 27.2977C117.693 27.3693 117.418 27.3795 117.149 27.3437C116.39 27.2415 114.73 27.1853 113.6 28.3556C113.157 28.8156 112.927 29.3318 112.8 29.7305L111.481 32.153C111.273 32.5363 110.916 32.8123 110.494 32.9094C109.694 33.0883 109.434 33.4819 109.378 33.5687C108.808 34.4887 109.536 36.4053 111.639 37.8874C115.127 38.4087 115.779 38.3167 117.668 38.1378C118.147 38.0919 118.595 37.8721 118.92 37.5194L123.625 32.4546C123.849 32.2092 124.012 31.9128 124.084 31.5908C124.16 31.2484 124.216 30.8549 124.236 30.4204C124.277 29.4698 124.527 29.0047 123.951 28.1614C123.32 27.8292 122.011 27.3079 120.743 27.1239V27.1188Z" fill="#B3C3D6"/>
<path d="M154.856 37.6522C154.922 37.6624 154.983 37.6828 155.049 37.7033C155.711 37.9486 156.709 38.2092 157.906 38.1428C160.467 37.9997 162.193 36.4613 162.83 35.8123C162.936 35.6998 163.069 35.618 163.211 35.5618C169.362 33.1342 170.034 34.6368 172.265 35.0201C173.232 35.1887 174.154 35.6078 175.131 35.7049C177.937 35.9809 179.846 36.0371 181.17 35.9809C182.443 35.9247 183.11 34.4221 182.295 33.4408C181.776 32.8173 181.338 31.9791 181.196 30.8803C181.19 30.8343 181.185 30.7883 181.185 30.7423C181.175 29.8939 182.183 29.4083 182.881 29.8939C183.105 30.0472 183.38 30.2005 183.706 30.3181C185.009 30.7729 186.186 30.2823 186.557 30.1034C186.593 30.083 186.634 30.0676 186.674 30.0523C190.687 28.5753 195.193 27.8444 198.859 25.8409C199.287 25.6058 199.165 24.9568 198.686 24.8852C194.022 24.0317 189.23 23.2242 184.312 22.478C178.889 21.65 173.588 20.9345 168.42 20.3161C167.193 20.1679 165.966 20.0759 164.734 20.0197C158.736 19.7437 152.422 19.6415 145.818 19.7744C142.203 19.8459 138.684 19.9839 135.263 20.173C134.183 20.2343 133.353 21.1441 133.384 22.2225L133.562 28.841C133.577 29.3981 134 29.8581 134.55 29.9245C139.703 30.5225 142.289 31.2023 142.31 31.9638C142.33 32.6742 140.11 33.451 135.644 34.2994C135.558 34.3148 135.466 34.3403 135.385 34.3812C132.773 35.572 132.788 38.3932 133.389 40.1207C134.275 42.6608 138.689 44.4649 143.42 42.3286C143.501 42.2928 143.583 42.2417 143.654 42.1855C150.207 37.0491 151.826 37.1206 154.866 37.6624L154.856 37.6522Z" fill="#B3C3D6"/>
<path d="M118.248 57.0632L115.397 55.2744C115.117 54.6867 114.745 54.3953 114.526 54.2522C113.559 54.058 112.25 54.1398 110.819 54.7582C108.838 55.4584 107.754 54.7889 106.914 55.7037C106.125 56.5623 105.676 56.9661 105.432 57.421C104.19 57.6356 103.421 57.6918 103.38 58.2949C103.355 58.6527 103.752 58.9236 105.05 59.9968C107.846 62.8027 108.894 61.4841 110.483 60.513C112.352 59.3682 112.555 58.6578 114.597 58.208C115.096 58.0956 115.57 58.0445 115.992 58.0292C116.247 58.0189 116.496 57.9883 116.746 57.9269C117.22 57.8094 117.693 57.697 118.172 57.5794C118.416 57.5181 118.467 57.1961 118.253 57.0632H118.248Z" fill="#B3C3D6"/>
<path d="M290.613 66.1349H287.079C283.581 65.9918 280.496 62.3426 279.523 61.07C279.243 60.7021 278.927 60.3596 278.581 60.053C277.435 59.041 275.552 57.6866 272.919 56.8996C270.607 56.2096 268.596 56.2249 267.318 56.3425C266.488 56.4396 264.599 56.6082 264.451 56.1278C264.294 55.6167 268.785 52.816 270.867 51.4309C271.076 51.293 270.969 50.9659 270.719 50.9812L266.015 51.2367C265.531 51.2623 264.441 51.0885 264.049 50.8074C264.049 50.8074 256.585 46.7085 248.952 39.0678C247.694 37.8105 246.258 37.4987 242.516 40.7186C238.707 44.8839 234.395 45.8601 233.091 43.3251C232.465 42.1138 230.199 42.3489 230.199 42.3489C223.997 42.9929 222.296 48.0731 222.984 49.9897C223.773 52.1822 227.434 51.9063 229.084 52.2231C231.396 53.0255 232.037 54.5588 231.65 55.5707C231.284 56.5265 230.479 56.5929 229.257 56.6849C223.289 57.1347 218.91 56.8229 213.559 56.8536C213.248 56.8536 212.948 56.9353 212.678 57.0938L207.133 60.3034C206.792 60.4976 206.736 60.9627 207.006 61.2438C207.327 61.5811 207.683 62.0564 207.933 62.6953C208.457 64.0497 208.223 65.2712 208.039 65.6136C206.176 69.089 205.58 71.394 205.921 74.3072C205.947 74.5372 205.728 74.7161 205.514 74.6394C204.857 73.9341 199.882 68.7363 195.208 70.1418H195.193C194.368 70.3974 193.604 70.934 193.477 71.8897C191.715 85.2496 191.899 87.437 195.254 89.1287C195.911 89.4609 197.275 89.9056 199.684 89.0878C200.112 88.9396 200.565 88.8783 201.018 88.8783H205.163C205.504 88.8783 205.814 88.6892 205.967 88.3825C206.527 87.2632 207.449 85.776 208.941 84.3705C211.502 81.953 214.297 81.1149 215.657 80.8082C221.176 79.8627 220.27 78.4725 224.659 79.2187C227.129 79.6378 229.237 80.3789 230.026 81.4062C233.32 85.6993 235.499 87.4728 238.239 90.5086C238.397 90.7386 239.252 91.4184 239.736 91.6024C240.734 91.9857 241.482 90.3144 242.582 89.8187C243.631 89.3485 243.916 90.2224 244.145 90.5035L246.712 94.1936C247.032 95.0726 247.328 95.4406 247.995 95.5888C248.692 95.7422 249.064 94.766 249.792 94.7966C250.821 94.8375 250.474 94.7762 251.162 95.5684C251.523 96.8154 251.62 96.933 252.165 96.9432C252.725 96.9534 253.193 96.3504 253.214 95.5684C253.249 94.1936 254.843 94.2293 256.763 94.8835C258.682 95.4764 260.78 94.8426 262.048 93.2941C263.341 91.7046 263.52 89.4609 262.496 87.6721C261.05 83.195 265.984 82.8832 267.501 84.5749C269.345 87.5392 270.556 88.9038 271.137 88.6738C271.371 88.5818 271.498 88.1883 271.524 87.575C271.544 87.1048 271.707 86.6397 272.043 86.3075C272.476 85.8731 273.138 85.7198 273.83 87.9225L277.339 96.7643C277.766 97.8376 277.98 98.6911 277.425 99.0847C276.967 99.4067 276.381 98.8036 275.541 98.6554C258.815 95.6859 255.683 99.4015 264.681 103.541C265.556 103.945 266.514 104.139 267.476 104.134C268.545 104.129 270.113 104.359 271.178 105.57C271.641 106.097 271.891 106.674 272.033 107.16C272.16 109.945 272.288 112.736 272.42 115.521C272.446 116.017 272.048 116.436 271.554 116.436H262.72C262.394 116.436 262.145 116.717 262.175 117.039L262.583 120.98C262.613 121.256 262.756 121.506 262.985 121.664L269.64 126.361C272.491 128.303 281.814 153.807 281.814 153.807C283.53 159.045 284.004 159.981 284.615 160.011C285.134 160.037 285.139 158.769 286.071 158.166C288.851 156.362 290.404 156.679 293.541 155.892C297.253 154.849 300.155 152.054 301 148.548C302.12 143.887 299.371 138.806 294.396 136.486C290.435 134.636 287.996 133.777 288.938 129.397C289.707 128.033 292.161 126.326 295.226 129.484C297.085 131.401 298.521 133.716 299.895 134.472C300.394 134.748 300.858 135.08 301.219 135.515C301.733 136.133 302.278 136.721 302.879 137.258C303.561 137.871 304.284 138.622 304.982 139.532C307.202 142.44 307.951 145.425 308.231 147.147C308.877 156.505 309.529 165.868 310.176 175.226C312.375 165.214 313.531 154.814 313.531 144.142C313.531 115.383 305.12 88.5921 290.633 66.1196L290.613 66.1349Z" fill="#B3C3D6"/>
<path d="M253.333 209.617C253.608 208.615 253.985 207.644 254.428 206.709C256.119 203.142 257.473 200.714 257.911 200.407C258.726 199.84 259.021 200.28 260.543 199.59C261.939 198.532 263.105 197.106 264.5 196.048C267.285 193.906 272.03 189.562 274.337 182.591C274.917 180.843 275.427 180.511 275.447 177.674C275.304 177.041 275.192 176.085 275.467 175.011C275.773 173.826 276.399 173.049 276.73 172.691C277.458 171.884 278.11 170.677 278.965 169.333C279.48 168.526 279.724 168.01 279.597 167.734C279.072 166.911 278.507 167.585 275.707 167.197C275.274 167.085 274.861 166.947 274.464 166.788C268.14 164.243 269.077 156.464 265.391 152.6C264.958 152.243 264.367 151.655 263.858 150.812C262.539 148.639 262.753 146.386 262.875 145.558C263.023 144.259 263.242 141.868 262.718 139.404C262.239 137.16 261.837 136.302 260.859 134.6C260.543 134.048 260.319 133.445 260.207 132.816C259.438 128.574 257.819 125.722 257.957 124.797C258.038 124.245 258.298 123.729 258.68 123.32C258.914 123.07 259.169 122.794 259.357 122.589C259.484 122.446 259.586 122.283 259.642 122.099C260.055 120.79 260.116 119.732 260.049 119.068C259.999 118.516 259.881 118.025 259.749 117.606C259.505 116.855 258.899 116.277 258.14 116.058C253.15 114.627 249.774 112.94 244.784 111.509C244.311 111.371 243.873 111.131 243.501 110.799C243.063 110.62 242.529 110.349 241.979 109.93C240.981 109.173 240.405 108.294 240.095 107.727C239.275 106.531 238.465 105.928 237.865 107.247C237.269 108.555 236.699 109.787 236.699 109.787C236.159 110.875 236.235 112.066 235.757 112.393C235.003 112.904 234.285 112.562 232.763 111.565C231.658 110.839 230.726 110.415 230.176 109.986C228.781 108.892 227.177 107.195 226.352 104.768C226.271 104.522 226.159 104.292 225.975 104.124C225.604 103.781 225.033 103.694 224.524 103.889C223.913 104.119 223.231 104.119 222.599 103.955C222.584 103.955 222.574 103.95 222.559 103.945C221.958 103.786 221.275 103.526 220.588 103.091C219.33 102.299 218.541 101.251 218.057 100.347C217.752 99.7846 217.584 99.156 217.553 98.5172C217.477 96.7846 216.912 92.6959 212.67 92.9412L201.397 92.8185L190.16 92.4148C185.083 92.3586 183.316 90.7742 178.581 95.0111C177.002 96.4217 176.071 98.0418 175.516 99.4116C174.905 100.914 173.611 102.023 172.038 102.396C169.288 103.04 165.108 104.712 162.363 109.03C159.991 112.766 159.879 116.615 160.138 119.027C160.276 120.31 159.639 121.562 158.504 122.16C156.727 123.095 155.505 124.48 155.265 126.07C155.24 126.228 155.225 126.407 155.22 126.601C155.209 127.399 155.031 128.186 154.644 128.881C153.575 130.823 152.384 133.741 152.312 137.36C152.292 138.321 152.358 139.21 152.465 140.023C152.562 140.733 152.613 141.454 152.613 142.169V155.207C152.613 155.994 152.989 156.735 153.626 157.195L165.271 165.648C165.775 165.924 167.241 166.645 169.161 166.379C171.636 166.037 172.048 164.631 173.311 163.931C177.725 161.442 179.299 162.05 180.796 162.316C185.098 163.308 190.562 165.066 193.841 164.274C194.432 164.12 195.027 164.314 195.338 164.744C195.598 165.107 195.567 165.516 195.552 165.643C195.526 165.822 195.256 168.127 197.008 169.666C198.342 170.836 200.124 170.401 201.967 170.279C202.375 170.253 204.778 170.652 205.903 173.028C206.713 174.741 206.392 176.305 206.076 176.719C204.05 179.412 203.444 181.896 204.325 182.816C204.513 183.01 204.89 183 205.649 183.245C206.036 183.368 206.209 183.659 206.163 184.318C206.122 184.87 205.705 185.177 205.649 185.218C204.997 185.703 204.722 186.552 204.966 187.324C205.201 188.075 206.046 188.177 206.677 188.652C207.594 189.342 207.741 190.232 207.874 191.831C207.981 193.124 207.655 194.136 207.446 194.663C206.092 196.63 204.218 199.881 203.169 204.281C202.645 206.494 202.441 208.529 202.4 210.266C202.359 212.188 202.212 214.11 201.886 216.006C201.53 218.045 201.295 220.447 201.372 223.13C201.453 225.916 201.85 228.338 202.314 230.301C203.541 237.344 204.768 244.381 205.99 251.424C206.331 253.075 206.438 253.826 207.4 254.685C208.867 255.814 211.255 255.625 212.92 254C220.853 247.453 224.87 246.579 226.988 246.124C228.424 245.817 229.789 245.654 231.057 245.582C231.276 245.567 233.343 245.368 234.519 243.477C235.675 241.616 234.988 239.7 234.906 239.485C234.682 239.102 234.672 238.632 234.886 238.264C235.14 237.819 235.655 237.717 236.189 237.686C237.62 237.599 238.099 237.027 239.224 235.688C240.451 234.236 240.67 232.672 240.721 232.105C240.726 231.604 240.777 230.817 241.001 229.892C241.668 227.122 243.369 225.318 244.316 224.459C252.442 216.067 252.615 211.963 252.977 210.828C253.109 210.414 253.226 210.011 253.338 209.602L253.333 209.617Z" fill="#B3C3D6"/>
<path d="M278.123 218.378L278.163 217.187C278.174 216.931 277.889 216.773 277.68 216.921L276.081 218.03C275.867 218.178 275.572 218.153 275.383 217.969L273.56 216.17C273.387 215.996 273.087 216.098 273.056 216.344C272.787 218.25 272.99 219.727 272.242 222.068C271.804 223.432 270.872 225.098 269.548 226.877C268.443 228.354 267.308 229.484 266.34 230.312C266.34 230.312 253.85 238.555 253.85 238.898C252.674 239.526 252.017 240.83 252.226 242.118C252.414 243.308 253.305 244.29 254.492 244.607C257.593 245.056 259.156 244.305 261.121 242.286C261.33 242.072 261.91 241.607 262.791 241.469C263.998 241.285 264.879 241.918 265.103 242.026C266.58 242.757 268.576 242.629 271.05 240.779C273.581 238.888 274.579 234.748 273.576 231.891C273.372 231.313 273.53 229.632 274.558 227.94C275.48 226.422 276.31 225.666 277.298 225.405C278.428 225.109 279.487 224.633 279.823 223.56C280.058 222.799 279.803 221.352 278.886 220.356C278.388 219.814 278.107 219.103 278.133 218.367L278.123 218.378Z" fill="#B3C3D6"/>
<path fill-rule="evenodd" clip-rule="evenodd" d="M275.881 123.545H319.705C321.573 123.545 323.085 125.064 323.085 126.941C323.085 128.819 321.573 130.337 319.705 130.337H318.782C320.615 132.383 322.315 134.233 323.897 135.955C340.641 154.18 343.573 157.372 336.974 209.155L331.65 254.582C331.356 257.05 329.277 258.913 326.8 258.913H268.772C266.295 258.913 264.21 257.05 263.923 254.582L258.598 209.155C251.993 157.372 254.931 154.18 271.676 135.955C273.257 134.233 274.965 132.376 276.791 130.337H275.874C274.006 130.337 272.495 128.819 272.495 126.941C272.495 125.064 274.013 123.545 275.881 123.545Z" fill="#6687AD"/>
<path d="M314.778 135.505H280.806C279.337 135.505 277.923 136.131 276.93 137.228C258.765 157.238 255.287 157.287 261.753 207.981L266.651 249.752C266.917 252.023 268.834 253.732 271.108 253.732H324.469C326.743 253.732 328.661 252.023 328.927 249.752L333.825 207.981C340.29 157.28 336.812 157.238 318.648 137.228C317.654 136.138 316.254 135.505 314.778 135.505Z" fill="#CCD7E4"/>
<path d="M324.528 170.049H271.041C269.62 170.049 268.473 171.202 268.473 172.63V184.329C268.473 185.757 269.62 186.91 271.041 186.91H324.528C325.948 186.91 327.096 185.757 327.096 184.329V172.63C327.096 171.202 325.948 170.049 324.528 170.049Z" fill="#6687AD"/>
<path fill-rule="evenodd" clip-rule="evenodd" d="M291.281 172.813C288.272 172.813 286.173 175.182 286.173 178.571C286.173 181.96 288.209 184.147 291.127 184.147C293.667 184.147 296.235 182.361 296.235 178.375C296.235 175.049 294.241 172.813 291.281 172.813ZM294.136 178.431C294.136 180.385 293.226 182.354 291.204 182.354C289.182 182.354 288.286 180.378 288.286 178.536C288.286 176.575 289.196 174.599 291.218 174.599C293.24 174.599 294.136 176.589 294.136 178.431ZM286.754 172.982H278.469V174.817H281.583V183.978H283.619V174.817H286.754V172.982ZM302.546 172.982H304.897L301.56 178.346L304.96 183.978H302.602L301.196 181.524C300.846 180.955 300.566 180.484 300.314 180.041C300.097 180.456 299.845 180.913 299.475 181.546L298.152 183.978H295.808L299.153 178.417L295.934 172.982H298.292L299.747 175.576C299.831 175.731 299.915 175.879 299.992 176.019C300.139 176.286 300.272 176.525 300.398 176.757C300.594 176.364 300.797 175.998 301.049 175.569L302.546 172.982ZM307.556 172.982H305.534V183.978H307.556V172.982ZM314.239 182.312C314.981 182.312 315.75 182.157 316.247 181.918H316.233L316.618 181.735L317.073 183.479L316.821 183.606C316.317 183.859 315.295 184.133 313.959 184.133C310.677 184.133 308.55 181.96 308.55 178.571C308.55 175.182 310.894 172.813 314.246 172.813C315.778 172.813 316.618 173.193 316.842 173.312L317.101 173.446L316.583 175.204L316.212 175.021C315.918 174.873 315.267 174.627 314.302 174.627C312.021 174.627 310.656 176.146 310.656 178.522C310.656 180.899 311.993 182.312 314.239 182.312Z" fill="#CCD7E4"/>
<path fill-rule="evenodd" clip-rule="evenodd" d="M294.056 209.156V207.539C293.741 207.37 293.412 207.363 293.076 207.356C291.908 207.321 290.746 207.285 290.396 200.62C290.347 199.643 290.557 198.672 291.033 197.815C291.334 197.28 291.74 196.697 292.3 196.148C294.448 194.046 297.184 194.032 297.772 194.046C298.359 194.032 301.088 194.046 303.243 196.148C303.803 196.697 304.209 197.273 304.51 197.815C304.979 198.665 305.196 199.643 305.147 200.62C304.797 207.285 303.635 207.321 302.46 207.356C302.124 207.363 301.795 207.377 301.48 207.539V209.156C301.48 209.943 300.843 210.583 300.06 210.583H295.476C294.693 210.583 294.056 209.943 294.056 209.156ZM300.997 201.077C300.361 200.641 299.234 200.782 298.779 201.302H298.786C298.639 201.471 298.583 201.731 298.597 202.019C298.625 202.729 299.017 203.369 299.577 203.791C299.927 204.058 300.242 204.227 300.857 204.459C301.508 204.712 302.901 204.107 302.271 202.652C301.851 201.9 301.592 201.583 300.997 201.077ZM299.346 205.275L297.848 203.545H297.862C297.723 203.39 297.485 203.39 297.352 203.545L295.854 205.275C295.742 205.401 295.728 205.584 295.812 205.725L296.19 206.357C296.281 206.498 296.435 206.589 296.603 206.589H298.597C298.765 206.589 298.926 206.505 299.01 206.357L299.388 205.725C299.472 205.584 299.458 205.401 299.346 205.275ZM294.196 201.077C293.601 201.583 293.342 201.9 292.922 202.652C292.293 204.107 293.685 204.712 294.336 204.459C294.952 204.227 295.266 204.058 295.616 203.791C296.176 203.362 296.568 202.722 296.596 202.019C296.61 201.738 296.554 201.471 296.407 201.302C295.952 200.782 294.826 200.641 294.196 201.077ZM307.169 218.176C307.435 217.656 308.03 217.333 308.68 217.501C309.135 217.621 309.499 218.001 309.604 218.458C309.73 219.006 309.506 219.519 309.114 219.815C308.974 219.92 308.883 220.075 308.883 220.251C308.89 220.511 308.806 220.799 308.491 221.137C308.225 221.425 307.855 221.622 307.463 221.587C306.798 221.53 306.28 220.968 306.28 220.286C306.28 220.033 306.357 219.794 306.483 219.59L297.779 215.413L289.074 219.59C289.2 219.794 289.277 220.026 289.277 220.286C289.277 220.961 288.759 221.523 288.094 221.587C287.702 221.622 287.339 221.425 287.066 221.137C286.751 220.799 286.667 220.511 286.674 220.251C286.674 220.075 286.583 219.92 286.443 219.815C286.051 219.526 285.827 219.013 285.953 218.458C286.058 218.001 286.422 217.621 286.877 217.501C287.527 217.333 288.122 217.656 288.388 218.176L295.966 214.541L288.423 210.92C288.185 211.49 287.562 211.856 286.884 211.68C286.429 211.56 286.065 211.181 285.96 210.724C285.834 210.175 286.058 209.662 286.45 209.367C286.59 209.261 286.681 209.106 286.681 208.931C286.667 208.671 286.758 208.382 287.073 208.045C287.339 207.756 287.709 207.56 288.101 207.595C288.766 207.651 289.284 208.214 289.284 208.896C289.284 209.121 289.214 209.324 289.116 209.507L297.779 213.663L306.441 209.507C306.343 209.324 306.273 209.121 306.273 208.896C306.273 208.221 306.791 207.658 307.456 207.595C307.848 207.56 308.211 207.756 308.484 208.045C308.799 208.382 308.883 208.671 308.876 208.931C308.876 209.106 308.967 209.261 309.107 209.367C309.499 209.655 309.723 210.168 309.597 210.724C309.492 211.181 309.128 211.56 308.673 211.68C307.995 211.856 307.372 211.49 307.134 210.92L299.591 214.541L307.169 218.176Z" fill="#6687AD"/>
<path d="M213.209 131.04C214.706 131.04 215.888 129.69 215.623 128.136C215.413 126.934 214.286 126.118 213.076 126.118H212.145C212.096 126.118 212.047 126.076 212.047 126.02V88.5516C212.047 88.5024 212.089 88.4532 212.145 88.4532H213.076C214.286 88.4532 215.42 87.6306 215.623 86.4353C215.888 84.8815 214.706 83.5315 213.209 83.5315H109.166C107.997 83.5315 106.934 84.326 106.703 85.4791C106.388 87.0611 107.585 88.4532 109.103 88.4532H110.272V126.111H109.173C108.004 126.111 106.941 126.906 106.71 128.059C106.395 129.641 107.592 131.033 109.11 131.033H110.279V199.557H109.082C108.151 199.557 107.263 200.078 106.892 200.935C106.115 202.735 107.417 204.479 109.11 204.479H110.279V242.137H109.082C108.151 242.137 107.263 242.657 106.892 243.515C106.115 245.315 107.417 247.059 109.11 247.059H213.174C214.237 247.059 215.231 246.405 215.553 245.385C216.077 243.691 214.832 242.137 213.23 242.137H212.061V204.479H213.181C214.244 204.479 215.238 203.825 215.56 202.806C216.084 201.111 214.839 199.557 213.236 199.557H212.068V131.131C212.068 131.082 212.11 131.033 212.166 131.033L213.209 131.04Z" fill="#6687AD"/>
<path fill-rule="evenodd" clip-rule="evenodd" d="M207.103 90.7595H115.13C114.06 90.7595 113.199 91.6384 113.199 92.7071V123.988C113.199 125.064 114.067 125.929 115.13 125.929H207.103C208.222 125.929 209.132 125.015 209.132 123.89V92.7985C209.132 91.6736 208.222 90.7595 207.103 90.7595ZM207.11 133.307H115.138C114.068 133.307 113.207 134.179 113.207 135.248V195.349C113.207 196.425 114.075 197.289 115.138 197.289H207.201C208.272 197.289 209.133 196.418 209.133 195.349V135.339C209.133 134.214 208.23 133.307 207.11 133.307ZM115.13 204.669H207.201C208.264 204.669 209.132 205.541 209.132 206.609V237.89C209.132 238.959 208.264 239.831 207.201 239.831H115.13C114.06 239.831 113.199 238.959 113.199 237.89V206.609C113.199 205.541 114.06 204.669 115.13 204.669Z" fill="#CCD7E4"/>
<path d="M161.167 142.916C148.866 142.916 138.895 152.935 138.895 165.295C138.895 177.656 148.866 187.675 161.167 187.675C173.468 187.675 183.439 177.656 183.439 165.295C183.439 152.935 173.468 142.916 161.167 142.916Z" fill="#6687AD"/>
<path d="M144.021 172.281C145.19 167.865 148.675 164.962 152.201 164.976C152.131 165.433 152.082 165.897 152.082 166.375C152.082 170.038 154.251 173.195 157.358 174.643V174.657C155.686 177.842 151.404 179.523 146.939 178.37C150.291 180.964 154.384 181.702 157.512 180.127C158.989 179.389 159.968 178.271 160.584 177.357C161.095 177.913 163.544 180.423 167.539 180.641C172.018 180.887 174.935 178.053 175.39 177.596C171.206 179.614 166.595 178.524 164.502 175.529C164.377 175.346 164.265 175.164 164.16 174.981C167.693 173.729 170.233 170.354 170.233 166.382C170.233 165.904 170.184 165.44 170.114 164.983C173.641 164.962 177.14 167.865 178.308 172.281C178.917 168.069 177.552 164.125 174.656 162.156C173.284 161.228 171.843 160.919 170.744 160.827C170.975 160.103 171.955 156.728 170.184 153.121C168.197 149.079 164.307 147.911 163.691 147.736C167.483 150.407 168.799 154.985 167.224 158.282C167.07 158.599 166.896 158.887 166.707 159.161C165.167 157.966 163.257 157.249 161.165 157.249C159.073 157.249 157.155 157.966 155.623 159.161C155.434 158.887 155.259 158.599 155.105 158.282C153.524 154.985 154.846 150.407 158.639 147.736C158.016 147.911 154.125 149.079 152.145 153.121C150.382 156.728 151.362 160.11 151.585 160.827C150.487 160.912 149.045 161.228 147.674 162.156C144.777 164.132 143.413 168.069 144.021 172.281ZM153.587 165.137C155.644 165.601 157.071 166.958 157.582 167.486L160.479 162.311C160.073 162.212 158.114 161.72 156.533 160.23C157.82 159.252 159.422 158.662 161.158 158.662C162.893 158.662 164.495 159.245 165.783 160.23C164.202 161.72 162.242 162.212 161.836 162.311L164.733 167.486C165.251 166.951 166.672 165.608 168.722 165.144C168.792 165.545 168.834 165.96 168.834 166.382C168.834 169.771 166.651 172.646 163.621 173.68C162.942 171.43 163.53 169.265 163.649 168.843H157.743C157.946 169.525 158.401 171.367 157.869 173.336C155.28 172.091 153.482 169.44 153.482 166.375C153.482 165.953 153.524 165.538 153.587 165.137Z" fill="#CCD7E4"/>
<path d="M121.596 156.977C123.115 156.977 124.311 155.585 123.996 154.003C123.765 152.85 122.702 152.056 121.533 152.056H120.435V114.398H121.533C122.702 114.398 123.765 113.603 123.996 112.45C124.311 110.868 123.115 109.476 121.596 109.476H24.166C22.9975 109.476 21.9339 110.27 21.703 111.423C21.3881 113.005 22.5846 114.398 24.103 114.398H25.2716V152.056H24.173C23.0045 152.056 21.9409 152.85 21.71 154.003C21.3951 155.585 22.5916 156.977 24.11 156.977H25.2786V213.619H24.18C23.0115 213.619 21.9479 214.414 21.717 215.567C21.4021 217.149 22.5986 218.541 24.117 218.541H25.2856V256.199H24.187C23.0185 256.199 21.9549 256.993 21.724 258.147C21.4091 259.729 22.6056 261.121 24.124 261.121H121.645C122.576 261.121 123.464 260.6 123.835 259.743C124.612 257.943 123.31 256.199 121.617 256.199H120.449V218.541H121.645C122.576 218.541 123.464 218.021 123.835 217.163C124.612 215.363 123.31 213.619 121.617 213.619H120.449V156.977H121.596Z" fill="#6687AD"/>
<path fill-rule="evenodd" clip-rule="evenodd" d="M115.701 116.594H30.0209C28.9551 116.594 28.0938 117.46 28.0938 118.531V149.735C28.0938 150.806 28.9551 151.671 30.0209 151.671H115.701C116.767 151.671 117.628 150.806 117.628 149.735V118.531C117.628 117.46 116.767 116.594 115.701 116.594ZM115.701 158.98H30.0209C28.9551 158.98 28.0938 159.845 28.0938 160.916V209.805C28.0938 210.876 28.9551 211.741 30.0209 211.741H115.701C116.767 211.741 117.628 210.876 117.628 209.805V160.916C117.628 159.845 116.767 158.98 115.701 158.98ZM30.0209 219.05H115.701C116.767 219.05 117.628 219.915 117.628 220.986V252.19C117.628 253.261 116.767 254.127 115.701 254.127H30.0209C28.9551 254.127 28.0938 253.261 28.0938 252.19V220.986C28.0938 219.915 28.9551 219.05 30.0209 219.05Z" fill="#CCD7E4"/>
<path fill-rule="evenodd" clip-rule="evenodd" d="M81.5291 169.129C78.9401 167.786 75.9942 167.02 72.8735 167.02C69.3118 167.02 65.9881 168.011 63.1472 169.727L63.8161 170.831C58.7678 173.886 55.3607 179.411 55.2648 185.73H53.9883V186.004C53.9883 193.042 57.8088 199.187 63.4696 202.464L64.0815 201.334C66.6706 202.839 69.6743 203.701 72.8749 203.701C76.2686 203.701 79.4411 202.732 82.1325 201.054L82.8029 202.161C88.1908 198.814 91.7734 192.831 91.7734 186.004V185.73H90.485C90.3827 178.995 86.5191 173.162 80.9159 170.261L81.5291 169.129ZM64.1765 171.426C59.3293 174.358 56.058 179.663 55.9646 185.73H68.2018C68.2949 184.103 69.2097 182.697 70.5354 181.926L64.1765 171.426ZM64.4187 200.711C66.9076 202.16 69.7963 202.991 72.8749 202.991C76.1345 202.991 79.1813 202.06 81.766 200.449L75.4185 189.967C74.6874 190.44 73.8167 190.715 72.8822 190.715C71.9132 190.715 71.0129 190.42 70.2655 189.914L64.4187 200.711ZM89.7853 185.73H77.5625C77.4581 183.906 76.3213 182.361 74.7306 181.674L80.5844 170.873C85.9707 173.655 89.6856 179.259 89.7853 185.73Z" fill="#6687AD"/>
<path fill-rule="evenodd" clip-rule="evenodd" d="M15.5242 196.972H27.7555C28.5532 196.972 29.2039 197.626 29.2039 198.427C29.2039 199.229 28.5532 199.883 27.7555 199.883H27.4126V200.579C27.4126 201.57 27.6085 202.561 28.0144 203.468C28.2593 204.01 28.5812 204.593 29.015 205.184C29.4768 205.803 29.9526 206.288 30.3934 206.667C30.6663 206.906 30.9602 207.117 31.2611 207.314C32.9614 208.432 34.6548 209.55 36.3551 210.675C38.0485 211.793 39.7488 212.911 41.4421 214.029C43.9192 215.667 43.3594 219.155 41.0433 220.265V256.609C42.2538 257.354 43.0655 258.683 43.0655 260.216C43.0655 262.543 41.1832 264.434 38.8671 264.434H4.44055C2.12445 264.434 0.242188 262.543 0.242188 260.216C0.242188 258.69 1.04687 257.354 2.2574 256.616V220.265C-0.0587026 219.155 -0.618479 215.66 1.85856 214.029C3.55889 212.911 5.25223 211.793 6.95257 210.675C8.65291 209.557 10.3462 208.432 12.0396 207.314C12.3405 207.117 12.6344 206.906 12.9073 206.667C13.3481 206.295 13.8309 205.803 14.2857 205.184C14.7195 204.593 15.0414 204.01 15.2863 203.468C15.6922 202.561 15.8881 201.577 15.8881 200.579V199.883H15.5242C14.7265 199.883 14.0758 199.229 14.0758 198.427C14.0758 197.626 14.7265 196.972 15.5242 196.972Z" fill="#6687AD"/>
<path fill-rule="evenodd" clip-rule="evenodd" d="M38.9042 213.846C37.4278 212.869 35.9444 211.899 34.461 210.921C32.9845 209.944 31.5011 208.967 30.0177 207.996C29.7518 207.821 29.4999 207.638 29.262 207.434C28.8771 207.103 28.4573 206.675 28.0654 206.14C27.6736 205.606 27.3867 205.086 27.1698 204.586C26.8199 203.806 26.666 202.955 26.666 202.104C26.666 201.436 26.1272 200.895 25.4625 200.895H17.8144C17.1497 200.895 16.6109 201.436 16.6109 202.104C16.6109 202.983 16.443 203.841 16.0861 204.636C15.8762 205.107 15.5893 205.62 15.2115 206.133C14.8126 206.675 14.3928 207.096 14.0149 207.427C13.777 207.631 13.5251 207.821 13.2592 207.989C11.7758 208.96 10.2994 209.937 8.82294 210.914L7.83632 211.709C6.8707 212.482 5.79311 213.08 4.69454 213.656C1.7067 215.224 2.87525 219.583 6.087 219.583H37.1759C40.2687 219.583 41.4652 215.548 38.8832 213.839L38.9042 213.846ZM37.3228 220.603H5.97504C5.29631 220.603 4.74353 221.158 4.74353 221.84V253.74C4.74353 254.422 5.29631 254.978 5.97504 254.978H37.3228C38.0016 254.978 38.5544 254.422 38.5544 253.74V221.84C38.5544 221.158 38.0016 220.603 37.3228 220.603ZM6.06601 255.997H37.0709C39.0582 255.997 40.8285 257.452 41.0174 259.442C41.2343 261.72 39.457 263.633 37.2389 263.633H6.23395C4.24672 263.633 2.47641 262.177 2.28749 260.188C2.07057 257.909 3.84787 255.997 6.06601 255.997Z" fill="#CCD7E4"/>
<path d="M30.6337 222.171H12.6717C11.8531 222.171 11.1953 222.832 11.1953 223.655V251.926C11.1953 252.749 11.8531 253.41 12.6717 253.41H30.6337C31.4454 253.41 32.1102 252.749 32.1102 251.926V223.655C32.1102 222.832 31.4454 222.171 30.6337 222.171Z" fill="#6687AD"/>
<path fill-rule="evenodd" clip-rule="evenodd" d="M17.0558 235.03C16.0552 238.159 18.3853 241.358 21.653 241.358C24.9278 241.358 27.2439 238.159 26.2503 235.03L22.1289 224.687C21.9609 224.258 21.3522 224.258 21.1842 224.687L17.0558 235.03ZM13.9141 247.313C13.9141 244.951 15.3835 243.298 17.4897 243.298C19.5959 243.298 20.9603 244.895 20.9603 247.18C20.9603 249.964 19.162 251.208 17.3847 251.208C15.3415 251.208 13.9141 249.676 13.9141 247.313ZM17.4407 249.767C18.7352 249.767 19.316 248.487 19.316 247.222C19.316 245.956 18.7422 244.733 17.4477 244.733C16.1532 244.733 15.5724 246.019 15.5724 247.292C15.5724 248.48 16.1462 249.767 17.4407 249.767ZM23.3604 243.531H21.765V251.215H23.3604V243.531ZM26.4252 243.531V249.753H29.399V251.208H24.8298V243.531H26.4252Z" fill="#CCD7E4"/>
<path fill-rule="evenodd" clip-rule="evenodd" d="M226.514 158.568H238.171C241.159 158.568 243.58 161.001 243.58 164.003C243.58 166.309 242.153 168.271 240.144 169.065V170.394C240.144 171.435 240.788 172.363 241.761 172.728L259.373 179.323C263.116 180.73 265.6 184.315 265.6 188.33L265.579 192.359C265.579 195.249 263.347 197.59 260.471 197.59C263.298 197.59 265.586 199.896 265.586 202.73V214.732C265.586 217.572 263.291 219.871 260.471 219.871C263.298 219.871 265.586 222.177 265.586 225.011V237.013C265.586 239.853 263.291 242.153 260.471 242.153C263.298 242.153 265.586 244.459 265.586 247.292V259.294C265.586 262.135 263.291 264.434 260.471 264.434H204.185C201.358 264.434 199.07 262.128 199.07 259.294V247.292C199.07 244.452 201.365 242.153 204.185 242.153C201.358 242.153 199.07 239.846 199.07 237.013V225.011C199.07 222.17 201.365 219.871 204.185 219.871C201.358 219.871 199.07 217.565 199.07 214.732V202.73C199.07 199.889 201.365 197.59 204.185 197.59C201.309 197.59 199.077 195.249 199.077 192.359V188.33C199.077 184.315 201.561 180.723 205.305 179.323L222.917 172.728C223.89 172.37 224.533 171.435 224.533 170.394V169.058C222.525 168.264 221.105 166.295 221.105 164.003C221.105 161.001 223.526 158.568 226.514 158.568Z" fill="#6687AD"/>
<path fill-rule="evenodd" clip-rule="evenodd" d="M261.638 188.365V191.915C261.638 194.144 260.063 196.007 257.971 196.436H206.695C204.603 196.007 203.028 194.144 203.028 191.915V188.365C203.028 184.828 205.219 181.664 208.514 180.427L224.034 174.612C224.888 174.289 225.455 173.473 225.455 172.552C225.455 171.715 226.133 171.033 226.966 171.033H237.7C238.533 171.033 239.211 171.715 239.211 172.552C239.211 173.473 239.778 174.289 240.632 174.612L256.152 180.427C259.447 181.664 261.638 184.828 261.638 188.365ZM207.318 198.806H257.362C259.874 198.806 261.91 200.852 261.91 203.376V214.042C261.91 216.566 259.874 218.612 257.362 218.612H207.318C204.806 218.612 202.77 216.566 202.77 214.042V203.376C202.77 200.852 204.806 198.806 207.318 198.806ZM257.362 220.925H207.318C204.806 220.925 202.77 222.971 202.77 225.495V236.161C202.77 238.686 204.806 240.732 207.318 240.732H257.362C259.874 240.732 261.91 238.686 261.91 236.161V225.495C261.91 222.971 259.874 220.925 257.362 220.925ZM207.318 243.045H257.362C259.874 243.045 261.91 245.091 261.91 247.615V258.281C261.91 260.805 259.874 262.851 257.362 262.851H207.318C204.806 262.851 202.77 260.805 202.77 258.281V247.615C202.77 245.091 204.806 243.045 207.318 243.045Z" fill="#CCD7E4"/>
<path d="M246.338 194.992H218.335C216.795 194.992 215.543 196.251 215.543 197.798V242.93C215.543 244.477 216.795 245.735 218.335 245.735H246.338C247.877 245.735 249.13 244.477 249.13 242.93V197.798C249.13 196.251 247.877 194.992 246.338 194.992Z" fill="#6687AD"/>
<path fill-rule="evenodd" clip-rule="evenodd" d="M228.191 221.859L228.177 220.052C227.827 219.87 227.449 219.862 227.078 219.848C225.777 219.813 224.475 219.778 224.09 212.346C224.034 211.257 224.279 210.167 224.804 209.218C225.14 208.613 225.595 207.966 226.218 207.354C228.618 205.013 231.662 204.999 232.319 205.013C232.977 204.999 236.021 205.013 238.421 207.354C239.044 207.966 239.498 208.613 239.834 209.218C240.366 210.167 240.604 211.257 240.548 212.346C240.156 219.771 238.862 219.813 237.56 219.848C237.189 219.862 236.819 219.87 236.462 220.052V221.859C236.462 222.738 235.755 223.448 234.88 223.448H229.772C228.898 223.448 228.191 222.738 228.191 221.859ZM235.93 212.853C235.223 212.367 233.971 212.522 233.46 213.106C233.292 213.296 233.243 213.591 233.257 213.907C233.285 214.688 233.726 215.405 234.348 215.876C234.74 216.178 235.09 216.368 235.776 216.621C236.504 216.902 238.05 216.234 237.35 214.61C236.881 213.774 236.588 213.422 235.93 212.853ZM234.083 217.535L232.417 215.609C232.27 215.433 231.997 215.433 231.85 215.609L230.185 217.535C230.066 217.676 230.045 217.88 230.143 218.041L230.563 218.745C230.654 218.906 230.829 219.005 231.018 219.005H233.243C233.425 219.005 233.6 218.906 233.698 218.745L234.118 218.041C234.216 217.88 234.202 217.676 234.083 217.535ZM228.345 212.853C227.68 213.422 227.393 213.774 226.924 214.61C226.225 216.227 227.778 216.902 228.506 216.621C229.191 216.361 229.541 216.171 229.933 215.876C230.556 215.405 230.99 214.695 231.025 213.907C231.039 213.591 230.983 213.296 230.815 213.106C230.304 212.529 229.052 212.367 228.345 212.853ZM242.801 231.907C243.095 231.323 243.76 230.964 244.481 231.154C244.984 231.288 245.39 231.71 245.509 232.223C245.649 232.842 245.404 233.411 244.963 233.742C244.809 233.854 244.711 234.03 244.711 234.227C244.711 234.515 244.62 234.839 244.271 235.211C243.97 235.528 243.564 235.753 243.123 235.71C242.388 235.64 241.808 235.014 241.808 234.255C241.808 233.974 241.899 233.707 242.038 233.482L232.34 228.827L222.642 233.482C222.789 233.707 222.873 233.967 222.873 234.255C222.873 235.014 222.292 235.64 221.557 235.71C221.124 235.753 220.711 235.535 220.41 235.211C220.06 234.839 219.962 234.515 219.969 234.227C219.976 234.037 219.871 233.861 219.717 233.742C219.283 233.411 219.031 232.842 219.171 232.223C219.29 231.71 219.696 231.288 220.2 231.154C220.921 230.971 221.585 231.33 221.879 231.907L230.318 227.857L221.914 223.821C221.648 224.454 220.956 224.862 220.193 224.665C219.689 224.531 219.283 224.109 219.164 223.596C219.024 222.977 219.269 222.408 219.71 222.077C219.864 221.965 219.962 221.789 219.962 221.592C219.962 221.304 220.053 220.98 220.403 220.608C220.704 220.291 221.11 220.066 221.55 220.109C222.285 220.179 222.866 220.805 222.866 221.564C222.866 221.81 222.796 222.042 222.684 222.246L232.34 226.879L241.997 222.246C241.892 222.042 241.815 221.817 241.815 221.564C241.815 220.805 242.395 220.179 243.13 220.109C243.564 220.066 243.977 220.284 244.278 220.608C244.627 220.98 244.725 221.304 244.718 221.592C244.718 221.782 244.816 221.958 244.97 222.077C245.404 222.408 245.656 222.977 245.516 223.596C245.397 224.109 244.991 224.531 244.488 224.665C243.725 224.862 243.032 224.454 242.766 223.821L234.362 227.857L242.801 231.907Z" fill="#CCD7E4"/>
</svg>
