<svg width="1160" height="403" viewBox="0 0 1160 403" fill="none" xmlns="http://www.w3.org/2000/svg">
<g clip-path="url(#clip0_1572_157743)">
<rect width="1160" height="403" fill="#EFF3F6"/>
<g opacity="0.1">
<path d="M26.9228 -294.806L161.254 5.70941L128.473 -332.856" fill="#6687AD"/>
<path d="M-59.8994 213.349L161.254 5.70917L26.9229 -294.806" fill="#809BBA"/>
<path d="M-59.8865 213.351L357.359 477.248L161.267 5.71082" fill="#6687AD"/>
<path d="M161.267 5.71066L357.359 477.248L278.02 -113.35" fill="#537399"/>
<path d="M805.602 -26.8166L788.736 161.389L679.703 -41.7503L805.602 -26.8166Z" fill="#537399"/>
<path d="M444.298 293.543L621.98 -51.9785L278.017 -113.35" fill="#99AFC8"/>
<path d="M278.02 -113.35L444.301 293.543L357.36 477.248L278.02 -113.35Z" fill="#809BBA"/>
<path d="M504.277 439.813L444.298 293.544L621.98 -51.9775L504.277 439.813Z" fill="#537399"/>
<path d="M357.353 477.247L504.273 439.811L444.294 293.542" fill="#99AFC8"/>
<path d="M0.566525 444.72L8.16797 256.309L-59.8885 213.349" fill="#537399"/>
<path d="M0.56839 444.72L357.359 477.247L8.16983 256.31" fill="#99AFC8"/>
<path d="M161.255 5.70941L278.008 -113.351L128.474 -332.856" fill="#99AFC8"/>
<path d="M679.713 -41.7489L788.746 161.391L621.99 -51.9775L679.713 -41.7489Z" fill="#6687AD"/>
<path d="M621.99 -51.9775L788.746 161.391L504.287 439.813L621.99 -51.9775Z" fill="#809BBA"/>
<path d="M504.287 439.81L788.746 161.388L774.137 357.163L504.287 439.81Z" fill="#99AFC8"/>
<path d="M774.129 357.163L788.738 161.388L878.648 325.25L774.129 357.163Z" fill="#809BBA"/>
<path d="M788.738 161.388L805.604 -26.8179L878.648 325.25L788.738 161.388Z" fill="#99AFC8"/>
<path d="M805.605 -26.8177L879.125 19.4155L878.65 325.25" fill="#809BBA"/>
<path d="M805.13 -26.8168L878.294 -74.6866L879.125 19.4164" fill="#809BBA"/>
<path d="M878.648 325.25L580.174 624.129L504.279 439.81L878.648 325.25Z" fill="#537399"/>
<path d="M878.648 325.25L633.978 754.85L580.174 624.129L878.648 325.25Z" fill="#99AFC8"/>
<path d="M879.128 19.4161L1152.18 -73.0502L1212.16 167.73" fill="#537399"/>
<path d="M878.292 -74.6866L1152.18 -73.05L879.123 19.4164" fill="#99AFC8"/>
<path d="M879.128 19.4171L1212.16 167.731L1185.92 211.919" fill="#6687AD"/>
<path d="M879.126 19.4171L1185.91 211.919L878.651 325.251" fill="#99AFC8"/>
<path d="M878.651 325.25L1185.91 211.918L1037.57 469.064L878.651 325.25Z" fill="#6687AD"/>
<path d="M878.653 325.25L1037.57 469.064L786.961 899.278L878.653 325.25Z" fill="#537399"/>
<path d="M878.648 325.25L786.956 899.278L633.978 754.85L878.648 325.25Z" fill="#809BBA"/>
<path d="M1201.95 613.491L1037.56 469.064L1185.91 211.918" fill="#537399"/>
</g>
</g>
<defs>
<clipPath id="clip0_1572_157743">
<rect width="1160" height="403" fill="white"/>
</clipPath>
</defs>
</svg>
