<svg width="48" height="49" viewBox="0 0 48 49" fill="none" xmlns="http://www.w3.org/2000/svg">
<g clip-path="url(#clip0_1801_147278)">
<path d="M48 24.5C48 37.7548 37.2548 48.5 24 48.5C10.7452 48.5 0 37.7548 0 24.5C0 11.2452 10.7452 0.5 24 0.5C37.2548 0.5 48 11.2452 48 24.5ZM3.6 24.5C3.6 35.7666 12.7334 44.9 24 44.9C35.2666 44.9 44.4 35.7666 44.4 24.5C44.4 13.2334 35.2666 4.1 24 4.1C12.7334 4.1 3.6 13.2334 3.6 24.5Z" fill="#D9DADC"/>
<path d="M48 24.5C48 37.7548 37.2548 48.5 24 48.5C10.7452 48.5 0 37.7548 0 24.5C0 11.2452 10.7452 0.5 24 0.5C37.2548 0.5 48 11.2452 48 24.5ZM3.6 24.5C3.6 35.7666 12.7334 44.9 24 44.9C35.2666 44.9 44.4 35.7666 44.4 24.5C44.4 13.2334 35.2666 4.1 24 4.1C12.7334 4.1 3.6 13.2334 3.6 24.5Z" fill="#456080"/>
</g>
<defs>
<clipPath id="clip0_1801_147278">
<rect width="48" height="48" fill="white" transform="translate(0 0.5)"/>
</clipPath>
</defs>
</svg>
