<svg width="48" height="49" viewBox="0 0 48 49" fill="none" xmlns="http://www.w3.org/2000/svg">
<g clip-path="url(#clip0_1801_93357)">
<path d="M48 24.5C48 37.7548 37.2548 48.5 24 48.5C10.7452 48.5 0 37.7548 0 24.5C0 11.2452 10.7452 0.5 24 0.5C37.2548 0.5 48 11.2452 48 24.5ZM3.6 24.5C3.6 35.7666 12.7334 44.9 24 44.9C35.2666 44.9 44.4 35.7666 44.4 24.5C44.4 13.2334 35.2666 4.1 24 4.1C12.7334 4.1 3.6 13.2334 3.6 24.5Z" fill="#D9DADC"/>
<path d="M24 2.3C24 1.30589 24.8071 0.492975 25.7984 0.567456C30.229 0.900338 34.4933 2.45818 38.1068 5.08359C42.2072 8.06267 45.2592 12.2634 46.8254 17.0836C48.3915 21.9038 48.3915 27.0962 46.8254 31.9164C45.2592 36.7367 42.2072 40.9373 38.1068 43.9164C34.0065 46.8955 29.0683 48.5 24 48.5C18.9317 48.5 13.9935 46.8955 9.89315 43.9164C5.79281 40.9373 2.74083 36.7366 1.17464 31.9164C-0.205616 27.6684 -0.369474 23.1314 0.683066 18.8148C0.918565 17.849 1.94109 17.3326 2.88655 17.6398C3.832 17.947 4.34107 18.9615 4.11838 19.9303C3.29317 23.5205 3.4532 27.2792 4.59844 30.8039C5.92971 34.9011 8.52389 38.4717 12.0092 41.0039C15.4945 43.5362 19.6919 44.9 24 44.9C28.3081 44.9 32.5055 43.5362 35.9908 41.0039C39.4761 38.4717 42.0703 34.9012 43.4016 30.8039C44.7328 26.7067 44.7328 22.2933 43.4016 18.1961C42.0703 14.0988 39.4761 10.5283 35.9908 7.99605C32.9925 5.81766 29.4672 4.50394 25.7978 4.17935C24.8075 4.09175 24 3.29411 24 2.3Z" fill="#456080"/>
</g>
<defs>
<clipPath id="clip0_1801_93357">
<rect width="48" height="48" fill="white" transform="translate(0 0.5)"/>
</clipPath>
</defs>
</svg>
