<svg width="48" height="49" viewBox="0 0 48 49" fill="none" xmlns="http://www.w3.org/2000/svg">
<g clip-path="url(#clip0_1801_93306)">
<path d="M48 24.5C48 37.7548 37.2548 48.5 24 48.5C10.7452 48.5 0 37.7548 0 24.5C0 11.2452 10.7452 0.5 24 0.5C37.2548 0.5 48 11.2452 48 24.5ZM3.6 24.5C3.6 35.7666 12.7334 44.9 24 44.9C35.2666 44.9 44.4 35.7666 44.4 24.5C44.4 13.2334 35.2666 4.1 24 4.1C12.7334 4.1 3.6 13.2334 3.6 24.5Z" fill="#D9DADC"/>
<path d="M24 2.3C24 1.30589 24.8071 0.492975 25.7984 0.567456C30.229 0.900338 34.4933 2.45818 38.1068 5.08359C41.7204 7.709 44.5197 11.2832 46.2055 15.3941C46.5826 16.3139 46.0589 17.3326 45.1135 17.6398C44.168 17.947 43.1599 17.4255 42.7706 16.5108C41.3279 13.1213 38.9891 10.1744 35.9908 7.99605C32.9925 5.81766 29.4672 4.50394 25.7978 4.17935C24.8075 4.09175 24 3.29411 24 2.3Z" fill="#456080"/>
</g>
<defs>
<clipPath id="clip0_1801_93306">
<rect width="48" height="48" fill="white" transform="translate(0 0.5)"/>
</clipPath>
</defs>
</svg>
