<svg width="48" height="49" viewBox="0 0 48 49" fill="none" xmlns="http://www.w3.org/2000/svg">
<g clip-path="url(#clip0_1801_93277)">
<path d="M48 24.5C48 37.7548 37.2548 48.5 24 48.5C10.7452 48.5 0 37.7548 0 24.5C0 11.2452 10.7452 0.5 24 0.5C37.2548 0.5 48 11.2452 48 24.5ZM3.6 24.5C3.6 35.7666 12.7334 44.9 24 44.9C35.2666 44.9 44.4 35.7666 44.4 24.5C44.4 13.2334 35.2666 4.1 24 4.1C12.7334 4.1 3.6 13.2334 3.6 24.5Z" fill="#D9DADC"/>
<path d="M24 2.3C24 1.30589 24.807 0.492978 25.7983 0.567466C28.9637 0.805316 32.0568 1.66932 34.8958 3.11584C38.2704 4.83531 41.1902 7.32904 43.4164 10.3932C45.6426 13.4573 47.112 17.0048 47.7045 20.7456C48.297 24.4864 47.9957 28.3143 46.8254 31.9164C45.655 35.5185 43.6487 38.7924 40.9706 41.4706C38.2924 44.1487 35.0185 46.155 31.4164 47.3254C27.8143 48.4957 23.9864 48.797 20.2456 48.2045C17.0986 47.7061 14.0884 46.587 11.3877 44.9189C10.5419 44.3964 10.3668 43.2644 10.9512 42.4602C11.5355 41.6559 12.6576 41.4852 13.5102 41.9964C15.746 43.3369 18.223 44.2393 20.8087 44.6488C23.9884 45.1525 27.2422 44.8964 30.304 43.9016C33.3657 42.9067 36.1486 41.2014 38.425 38.925C40.7014 36.6486 42.4067 33.8657 43.4016 30.8039C44.3964 27.7422 44.6525 24.4884 44.1488 21.3087C43.6452 18.129 42.3962 15.1137 40.5039 12.5092C38.6117 9.90468 36.1299 7.78501 33.2614 6.32347C30.9288 5.13494 28.3944 4.40907 25.7977 4.17936C24.8074 4.09175 24 3.29411 24 2.3Z" fill="#456080"/>
</g>
<defs>
<clipPath id="clip0_1801_93277">
<rect width="48" height="48" fill="white" transform="translate(0 0.5)"/>
</clipPath>
</defs>
</svg>
