<svg width="521" height="438" viewBox="0 0 521 438" fill="none" xmlns="http://www.w3.org/2000/svg">
<g opacity="0.3">
<path d="M260.365 438C381.229 438 479.21 339.95 479.21 219C479.21 98.0496 381.229 0 260.365 0C139.5 0 41.5195 98.0496 41.5195 219C41.5195 339.95 139.5 438 260.365 438Z" fill="#F3EADE"/>
<path d="M114.139 364.306C119.177 360.743 120.096 360.657 123.398 357.149C128.343 351.882 130.002 348.553 131.691 343.045C132.019 341.98 132.751 339.669 134.877 337.74C138.529 334.434 140.499 335.391 143.902 335.025C145.615 334.846 146.994 334.449 148.084 333.944C156.876 329.875 156.907 319.537 157.335 315.336C157.997 309.315 159.197 307.619 161.401 302.874C163.285 298.821 165.427 295.523 167.366 292.948C168.035 292.061 168.822 291.291 169.647 290.552C171.353 289.019 172.248 286.748 171.999 284.453C171.688 281.621 170.302 280.828 166.93 278.401L160.24 272.901C159.493 272.287 159.002 271.423 158.854 270.474L158.589 268.739C158.457 267.899 158.052 267.113 157.429 266.538C154.314 263.636 151.035 260.913 148.092 257.841C147.282 257.001 146.565 255.958 144.299 255.608C142.204 255.289 142.041 255.523 140.343 255.935C136.971 256.759 133.35 257.265 129.9 257.677C129.386 257.74 128.935 257.288 129.044 256.783C129.153 256.262 129.098 255.725 128.865 255.25C128.475 254.472 127.658 253.967 126.754 253.92C126.341 253.904 126.061 253.5 126.147 253.095C127.011 249.276 128.273 246.615 128.795 242.508C129.044 240.322 129.059 239.723 128.989 239.078C128.553 234.783 123.756 232.598 123.32 232.403L109.676 224.787C108.189 223.955 106.974 222.718 106.172 221.217L103.493 216.176C102.878 215.017 101.99 214.021 100.908 213.282C96.352 210.155 91.8042 207.02 87.2485 203.893C86.7034 203.496 84.6319 202.096 81.735 202.321C78.3319 202.593 77.5765 203.869 76.0034 205.324C75.2792 205.993 73.7061 207.152 71.4011 207.673C69.1116 208.194 67.1491 207.821 65.9265 207.44C65.6461 207.354 65.4515 207.346 65.2568 207.448C64.8285 207.673 64.3067 207.432 64.1198 206.989L63.9563 206.6C63.7771 206.172 63.6837 205.713 63.6681 205.254L63.4423 192.908C63.3566 187.269 62.1574 188.529 60.5609 186.965C60.1248 186.537 59.9457 185.495 59.8834 184.305C59.8367 183.433 60.1871 182.842 60.4519 182.368C62.6012 178.439 62.6791 174.309 63.6759 169.734C63.8628 168.894 63.9796 168.326 63.4812 167.883C62.9517 167.416 62.1885 167.587 61.5422 168.015C58.3337 170.131 57.4615 172.263 56.1766 175.724C55.9819 176.09 55.1097 177.591 53.233 178.206C52.7657 178.362 52.3218 178.432 51.9169 178.455C51.0914 178.502 50.5074 177.661 50.85 176.907L65.3736 145.666C65.6773 145.005 66.5339 144.826 67.079 145.292C67.3204 145.495 67.5618 145.705 67.8033 145.907C68.4496 146.459 69.462 146.148 69.68 145.324C69.7345 145.121 69.7891 144.95 69.8514 144.787C70.9805 141.932 74.9911 140.236 79.8426 140.617C81.3456 140.726 82.8174 141.457 85.3172 140.244C86.9292 139.458 87.8871 138.276 89.0552 136.891C102.917 123.425 115.244 111.461 129.114 97.9955C130.399 96.3774 132.634 94.8916 134.604 95.6773C136.278 96.3463 137.337 98.1355 137.189 100.026C137.143 100.664 137.618 101.216 138.248 101.278C140.491 101.519 140.616 101.706 142.843 102.08C147.811 102.904 149.68 102.204 150.257 100.601C150.693 99.3879 149.953 98.5322 148.668 96.7664C146.908 94.3549 144.79 92.2389 142.843 89.9674C142.633 89.8041 140.024 87.6648 140.491 85.8523C140.943 84.0864 146.503 83.0518 149.603 84.3276L153.372 86.4591C155.529 87.8126 157.476 87.5403 157.522 87.0892C157.655 85.9145 155.225 84.6465 156.705 84.2109C158.301 83.7441 163.215 82.8884 167.724 80.9437C171.703 79.2245 174.733 77.0697 176.913 75.3271C178.003 74.0591 180.612 72.2544 175.994 72.7756C174.297 72.9078 171.882 71.5387 170.893 68.6293C170.13 66.3889 170.699 64.2186 173.315 61.5192C173.619 61.208 173.323 60.6868 172.895 60.7413L161.969 62.9506C161.136 63.0828 160.622 62.8728 160.692 62.0326L160.902 59.52C161.05 57.8475 160.443 56.9217 159.415 56.3772C158.005 55.6382 156.051 56.0816 154.509 57.3107C152.99 58.4853 153.348 58.1042 151.666 59.4811C150.171 60.7102 148.505 63.1606 147.321 63.7518C146.418 64.1874 145.413 64.343 144.424 64.2108L142.656 63.9774C142.306 63.9307 141.963 64.1408 141.854 64.4753L141.184 66.4512C140.748 67.7347 139.915 68.8471 138.809 69.6328C135.5 71.9743 128.888 76.3462 127.969 76.9607C127.175 77.4897 126.521 78.1976 126.046 79.0222C124.083 82.4139 122.494 85.0121 122.019 84.8177C121.404 84.5609 120.446 82.7717 123.686 75.4905C123.787 75.2571 123.6 75.0082 123.351 75.0471C118.866 75.7705 115.564 73.6157 115.307 71.6009C115.096 69.944 116.872 67.8903 119.496 66.7001C129.682 61.8226 141.34 59.2477 150.046 52.0598C150.802 51.4375 151.331 50.6673 151.09 49.446C150.794 47.9213 149.322 46.0777 145.724 47.159L121.459 60.0878C120.758 60.4612 119.917 60.4612 119.216 60.0956L113.002 56.844C77.5298 89.0417 52.6723 132.706 44.293 181.971L47.9453 180.088C48.397 183.052 48.8486 186.016 49.3003 188.98C49.4093 189.688 50.0167 190.201 50.7332 190.232C50.8734 190.232 50.998 190.256 51.1148 190.271C51.6599 190.357 54.44 191.905 54.9228 195.079C55.6626 199.785 56.5348 203.021 58.3259 207.012C60.2884 211.399 62.3754 214.021 64.2755 215.896C65.3736 216.977 65.8175 218.564 65.4125 220.05C61.3319 230.365 65.872 228.972 61.5499 234.286C61.2384 234.628 59.2293 236.899 59.7588 239.778C59.9379 240.758 60.3507 241.505 60.6777 241.956C61.4799 243.099 61.7914 243.605 61.6823 244.702C61.5577 245.946 60.413 246.67 60.156 246.833C58.2948 248.327 56.4725 249.782 56.6984 254.301C56.8385 257.063 58.2559 259.008 59.3227 260.104C60.2027 260.999 60.8958 262.065 61.3786 263.224C62.905 266.896 64.4391 270.56 65.9654 274.231C66.3704 275.204 66.5884 276.246 66.6274 277.304C66.7286 280.151 67.1881 283.792 68.5586 287.798C70.9182 294.698 74.8587 299.42 77.5921 302.119C78.4565 302.975 78.6122 304.072 78.9004 304.648C81.0263 310.505 81.883 309.603 82.3969 314.169C82.7551 317.351 82.1789 320.416 81.7895 322.12C80.6993 328.319 80.9251 330.91 82.0621 336.869C83.5261 344.562 87.9961 353.049 91.5783 358.58C97.9173 366.212 104.762 373.407 112.067 380.113C111.958 374.364 109.762 367.378 114.131 364.29L114.139 364.306Z" fill="#DABF9D"/>
<path d="M184.664 40.7885C182.74 40.5085 181.44 40.7885 180.404 41.0608C179.999 41.1697 179.579 41.1853 179.166 41.1308C178.005 40.9752 175.467 40.8897 173.738 42.6711C173.06 43.3712 172.71 44.1569 172.515 44.7637L170.498 48.451C170.179 49.0344 169.634 49.4545 168.988 49.6023C167.765 49.8745 167.368 50.4735 167.282 50.6058C166.41 52.006 167.524 54.9232 170.74 57.1791C176.074 57.9726 177.071 57.8326 179.96 57.5603C180.692 57.4903 181.377 57.1558 181.876 56.619L189.071 48.9099C189.414 48.5365 189.663 48.0853 189.772 47.5953C189.889 47.0741 189.975 46.4751 190.006 45.8138C190.068 44.3669 190.45 43.659 189.57 42.3755C188.604 41.8698 186.603 41.0764 184.664 40.7963V40.7885Z" fill="#DABF9D"/>
<path d="M236.837 56.8211C236.938 56.8367 237.032 56.8678 237.133 56.8989C238.145 57.2723 239.671 57.669 241.502 57.5679C245.419 57.3501 248.059 55.0086 249.032 54.0206C249.196 53.8495 249.398 53.725 249.616 53.6394C259.023 49.9444 260.051 52.2314 263.462 52.8149C264.942 53.0716 266.351 53.7095 267.846 53.8573C272.137 54.2773 275.058 54.3629 277.082 54.2773C279.029 54.1918 280.049 51.9047 278.803 50.4111C278.009 49.4621 277.339 48.1863 277.121 46.5138C277.114 46.4438 277.106 46.3738 277.106 46.3037C277.09 45.0124 278.632 44.2734 279.699 45.0124C280.042 45.2458 280.462 45.4792 280.961 45.6581C282.954 46.3504 284.753 45.6036 285.321 45.3314C285.376 45.3002 285.438 45.2769 285.501 45.2536C291.637 43.0054 298.529 41.893 304.136 38.8436C304.79 38.4857 304.603 37.4978 303.871 37.3889C296.738 36.0898 289.41 34.8607 281.887 33.7249C273.594 32.4647 265.487 31.3756 257.583 30.4344C255.706 30.2088 253.829 30.0687 251.944 29.9832C242.771 29.5631 233.114 29.4075 223.014 29.6098C217.485 29.7187 212.104 29.9287 206.871 30.2165C205.22 30.3099 203.95 31.6946 203.997 33.336L204.27 43.4099C204.293 44.2578 204.939 44.958 205.781 45.0591C213.661 45.9692 217.617 47.0039 217.649 48.163C217.68 49.2443 214.284 50.4267 207.455 51.718C207.322 51.7413 207.182 51.7802 207.058 51.8425C203.063 53.655 203.086 57.9491 204.005 60.5784C205.36 64.4446 212.112 67.1907 219.346 63.939C219.471 63.8845 219.595 63.8068 219.704 63.7212C229.727 55.9032 232.203 56.0121 236.852 56.8367L236.837 56.8211Z" fill="#DABF9D"/>
<path d="M180.85 86.366L176.489 83.6433C176.061 82.7487 175.493 82.3053 175.158 82.0875C173.678 81.7919 171.677 81.9164 169.489 82.8576C166.459 83.9234 164.801 82.9043 163.516 84.2968C162.309 85.6036 161.623 86.2182 161.249 86.9105C159.349 87.2373 158.173 87.3228 158.111 88.2408C158.072 88.7853 158.68 89.1976 160.665 90.8312C164.941 95.102 166.545 93.0949 168.975 91.6169C171.833 89.8744 172.144 88.7931 175.267 88.1085C176.03 87.9374 176.754 87.8596 177.401 87.8363C177.79 87.8207 178.172 87.774 178.553 87.6807C179.277 87.5018 180.002 87.3306 180.734 87.1517C181.107 87.0583 181.185 86.5683 180.858 86.366H180.85Z" fill="#DABF9D"/>
<path d="M444.469 100.174H439.065C433.715 99.9562 428.995 94.4019 427.508 92.4649C427.08 91.9048 426.597 91.3836 426.067 90.9168C424.315 89.3766 421.434 87.3151 417.408 86.1171C413.872 85.0669 410.796 85.0903 408.842 85.2692C407.572 85.417 404.683 85.6737 404.457 84.9425C404.216 84.1646 411.084 79.9016 414.269 77.7935C414.589 77.5834 414.425 77.0856 414.044 77.1089L406.848 77.4979C406.108 77.5368 404.442 77.2723 403.842 76.8444C403.842 76.8444 392.426 70.6056 380.752 58.9758C378.829 57.0621 376.633 56.5876 370.909 61.4884C365.084 67.8284 358.488 69.3142 356.494 65.4558C355.536 63.6121 352.071 63.97 352.071 63.97C342.586 64.9502 339.985 72.6826 341.036 75.5998C342.243 78.937 347.842 78.5169 350.366 78.9992C353.901 80.2205 354.882 82.5543 354.29 84.0946C353.73 85.5492 352.499 85.6504 350.63 85.7904C341.503 86.475 334.806 86.0004 326.622 86.0471C326.147 86.0471 325.687 86.1716 325.274 86.4127L316.794 91.298C316.272 91.5936 316.187 92.3015 316.599 92.7294C317.09 93.2428 317.635 93.9663 318.017 94.9386C318.819 97.0001 318.46 98.8593 318.18 99.3805C315.33 104.67 314.419 108.179 314.941 112.613C314.979 112.963 314.645 113.235 314.318 113.118C313.313 112.045 305.705 104.134 298.556 106.273H298.532C297.271 106.662 296.103 107.479 295.908 108.933C293.214 129.268 293.494 132.597 298.626 135.172C299.63 135.678 301.717 136.355 305.401 135.11C306.055 134.884 306.748 134.791 307.441 134.791H313.78C314.302 134.791 314.777 134.503 315.011 134.036C315.867 132.333 317.277 130.069 319.558 127.93C323.476 124.25 327.751 122.975 329.83 122.508C338.272 121.069 336.886 118.953 343.598 120.089C347.375 120.726 350.599 121.854 351.806 123.418C356.845 129.952 360.178 132.652 364.367 137.273C364.609 137.623 365.917 138.657 366.657 138.937C368.183 139.521 369.328 136.977 371.01 136.222C372.614 135.507 373.05 136.837 373.401 137.265L377.326 142.881C377.816 144.219 378.268 144.779 379.288 145.005C380.355 145.238 380.924 143.753 382.037 143.799C383.61 143.861 383.081 143.768 384.132 144.974C384.685 146.872 384.833 147.051 385.666 147.066C386.523 147.082 387.239 146.164 387.27 144.974C387.325 142.881 389.762 142.936 392.698 143.932C395.634 144.834 398.842 143.869 400.782 141.512C402.76 139.093 403.032 135.678 401.467 132.955C399.255 126.141 406.801 125.666 409.122 128.241C411.941 132.753 413.794 134.83 414.682 134.48C415.04 134.34 415.235 133.741 415.274 132.807C415.305 132.092 415.554 131.384 416.068 130.878C416.73 130.217 417.743 129.984 418.802 133.336L424.167 146.794C424.821 148.428 425.148 149.727 424.3 150.326C423.599 150.816 422.703 149.898 421.418 149.672C395.837 145.153 391.047 150.808 404.808 157.109C406.147 157.724 407.611 158.019 409.083 158.012C410.718 158.004 413.117 158.354 414.744 160.198C415.453 160.999 415.835 161.878 416.053 162.617C416.247 166.857 416.442 171.104 416.645 175.344C416.683 176.098 416.076 176.736 415.321 176.736H401.809C401.311 176.736 400.929 177.164 400.976 177.654L401.599 183.652C401.646 184.072 401.864 184.453 402.214 184.694L412.393 191.843C416.754 194.799 431.012 233.617 431.012 233.617C433.637 241.591 434.361 243.014 435.295 243.061C436.09 243.1 436.098 241.17 437.523 240.253C441.775 237.506 444.15 237.989 448.947 236.791C454.624 235.204 459.063 230.949 460.355 225.612C462.069 218.518 457.863 210.785 450.255 207.253C444.196 204.437 440.466 203.131 441.907 196.464C443.083 194.387 446.836 191.789 451.524 196.596C454.367 199.513 456.563 203.037 458.666 204.189C459.429 204.609 460.137 205.114 460.69 205.775C461.477 206.717 462.31 207.611 463.229 208.428C464.273 209.362 465.378 210.505 466.445 211.89C469.841 216.316 470.985 220.859 471.414 223.481C472.403 237.724 473.399 251.976 474.388 266.219C477.753 250.98 479.52 235.149 479.52 218.907C479.52 175.134 466.655 134.355 444.5 100.151L444.469 100.174Z" fill="#DABF9D"/>
<path d="M387.45 318.564C387.87 317.04 388.447 315.562 389.124 314.138C391.71 308.708 393.781 305.013 394.451 304.546C395.697 303.683 396.148 304.352 398.477 303.302C400.611 301.691 402.394 299.521 404.528 297.911C408.788 294.651 416.045 288.039 419.573 277.428C420.461 274.768 421.24 274.262 421.271 269.945C421.053 268.98 420.881 267.526 421.302 265.892C421.769 264.087 422.727 262.905 423.233 262.36C424.347 261.131 425.344 259.295 426.652 257.249C427.438 256.02 427.812 255.235 427.618 254.815C426.815 253.562 425.951 254.589 421.668 253.998C421.006 253.827 420.375 253.617 419.768 253.375C410.096 249.501 411.529 237.662 405.891 231.781C405.229 231.236 404.325 230.341 403.547 229.058C401.53 225.752 401.857 222.321 402.044 221.061C402.269 219.085 402.604 215.444 401.802 211.695C401.07 208.28 400.455 206.973 398.96 204.383C398.477 203.542 398.134 202.624 397.963 201.668C396.787 195.211 394.311 190.87 394.521 189.462C394.646 188.622 395.043 187.836 395.627 187.214C395.985 186.833 396.374 186.413 396.662 186.102C396.857 185.884 397.013 185.635 397.099 185.355C397.729 183.363 397.823 181.753 397.722 180.742C397.644 179.902 397.465 179.155 397.262 178.517C396.888 177.373 395.962 176.494 394.801 176.16C387.17 173.982 382.006 171.415 374.375 169.236C373.651 169.026 372.981 168.661 372.412 168.155C371.743 167.883 370.925 167.471 370.084 166.833C368.558 165.681 367.678 164.343 367.203 163.48C365.949 161.66 364.711 160.742 363.792 162.749C362.881 164.74 362.008 166.615 362.008 166.615C361.183 168.272 361.3 170.084 360.568 170.582C359.415 171.36 358.317 170.839 355.989 169.322C354.299 168.217 352.874 167.572 352.033 166.918C349.899 165.254 347.446 162.671 346.184 158.976C346.06 158.602 345.888 158.252 345.608 157.996C345.039 157.474 344.167 157.342 343.389 157.638C342.454 157.988 341.411 157.988 340.445 157.739C340.422 157.739 340.406 157.731 340.383 157.723C339.464 157.482 338.42 157.086 337.369 156.424C335.445 155.219 334.238 153.624 333.498 152.247C333.031 151.391 332.774 150.434 332.728 149.462C332.611 146.825 331.746 140.602 325.259 140.975L308.018 140.788L290.831 140.174C283.067 140.088 280.365 137.677 273.122 144.125C270.708 146.273 269.283 148.739 268.434 150.823C267.5 153.11 265.522 154.798 263.116 155.366C258.91 156.346 252.517 158.89 248.319 165.464C244.69 171.15 244.519 177.008 244.916 180.68C245.127 182.632 244.153 184.538 242.417 185.448C239.699 186.872 237.83 188.98 237.464 191.399C237.425 191.64 237.401 191.913 237.394 192.208C237.378 193.422 237.106 194.62 236.514 195.678C234.878 198.634 233.056 203.076 232.947 208.583C232.916 210.046 233.017 211.399 233.181 212.636C233.329 213.717 233.406 214.814 233.406 215.903V235.748C233.406 236.946 233.983 238.074 234.956 238.774L252.766 251.641C253.537 252.061 255.78 253.158 258.716 252.753C262.5 252.232 263.131 250.093 265.062 249.027C271.814 245.238 274.22 246.164 276.51 246.569C283.09 248.078 291.446 250.754 296.461 249.548C297.365 249.315 298.276 249.61 298.751 250.264C299.148 250.816 299.101 251.438 299.078 251.633C299.039 251.905 298.626 255.414 301.305 257.755C303.346 259.536 306.071 258.875 308.89 258.689C309.513 258.65 313.189 259.256 314.91 262.874C316.148 265.48 315.657 267.86 315.175 268.49C312.075 272.59 311.149 276.37 312.496 277.771C312.784 278.066 313.36 278.051 314.52 278.424C315.112 278.611 315.377 279.054 315.307 280.058C315.245 280.898 314.606 281.365 314.52 281.427C313.524 282.166 313.103 283.457 313.477 284.632C313.835 285.775 315.128 285.931 316.094 286.654C317.495 287.705 317.721 289.058 317.924 291.493C318.087 293.461 317.589 295.001 317.269 295.803C315.198 298.798 312.332 303.745 310.728 310.443C309.926 313.811 309.614 316.907 309.552 319.552C309.49 322.477 309.264 325.402 308.766 328.288C308.22 331.392 307.862 335.048 307.979 339.132C308.104 343.372 308.711 347.059 309.42 350.046C311.296 360.766 313.173 371.478 315.042 382.198C315.564 384.71 315.728 385.854 317.199 387.161C319.442 388.88 323.094 388.592 325.641 386.118C337.774 376.153 343.918 374.823 347.158 374.131C349.354 373.664 351.441 373.415 353.38 373.306C353.715 373.283 356.876 372.979 358.675 370.101C360.443 367.269 359.392 364.352 359.267 364.026C358.924 363.442 358.909 362.726 359.236 362.166C359.625 361.49 360.412 361.334 361.23 361.287C363.418 361.155 364.15 360.284 365.871 358.246C367.748 356.036 368.083 353.656 368.16 352.792C368.168 352.03 368.246 350.832 368.589 349.424C369.609 345.208 372.21 342.462 373.658 341.155C386.087 328.382 386.352 322.135 386.905 320.408C387.107 319.778 387.286 319.163 387.458 318.541L387.45 318.564Z" fill="#DABF9D"/>
<path d="M425.365 331.899L425.427 330.086C425.443 329.697 425.007 329.456 424.687 329.681L422.242 331.37C421.915 331.595 421.463 331.556 421.175 331.276L418.387 328.538C418.123 328.273 417.663 328.429 417.616 328.802C417.204 331.704 417.515 333.952 416.37 337.515C415.701 339.592 414.276 342.128 412.251 344.835C410.561 347.083 408.824 348.803 407.345 350.063C407.345 350.063 388.242 362.61 388.242 363.132C386.443 364.088 385.439 366.072 385.758 368.033C386.046 369.845 387.409 371.339 389.223 371.821C393.966 372.505 396.357 371.362 399.363 368.289C399.682 367.963 400.57 367.255 401.917 367.045C403.762 366.765 405.11 367.729 405.452 367.892C407.711 369.005 410.763 368.81 414.548 365.994C418.418 363.116 419.945 356.815 418.411 352.467C418.099 351.587 418.341 349.028 419.914 346.453C421.323 344.143 422.593 342.992 424.103 342.595C425.832 342.144 427.452 341.42 427.966 339.787C428.324 338.627 427.935 336.426 426.533 334.909C425.77 334.084 425.341 333.003 425.38 331.883L425.365 331.899Z" fill="#DABF9D"/>
</g>
<path fill-rule="evenodd" clip-rule="evenodd" d="M421.934 187.557H488.959C491.816 187.557 494.128 189.869 494.128 192.726C494.128 195.583 491.816 197.895 488.959 197.895H487.546C490.35 201.009 492.951 203.824 495.369 206.446C520.979 234.185 525.463 239.043 515.371 317.861L507.227 387.005C506.777 390.761 503.599 393.597 499.811 393.597H411.061C407.273 393.597 404.084 390.761 403.645 387.005L395.501 317.861C385.398 239.043 389.893 234.185 415.502 206.446C417.921 203.824 420.532 200.998 423.325 197.895H421.923C419.066 197.895 416.755 195.583 416.755 192.726C416.755 189.869 419.077 187.557 421.934 187.557Z" fill="#DABF9D"/>
<path d="M481.422 205.761H429.466C427.218 205.761 425.056 206.714 423.537 208.383C395.755 238.84 390.436 238.915 400.325 316.075L407.816 379.653C408.223 383.11 411.155 385.711 414.633 385.711H496.244C499.722 385.711 502.655 383.11 503.061 379.653L510.552 316.075C520.441 238.904 515.122 238.84 487.34 208.383C485.821 206.724 483.68 205.761 481.422 205.761Z" fill="#F3EADE"/>
<path d="M496.337 258.339H414.533C412.361 258.339 410.605 260.094 410.605 262.267V280.075C410.605 282.247 412.361 284.002 414.533 284.002H496.337C498.509 284.002 500.264 282.247 500.264 280.075V262.267C500.264 260.094 498.509 258.339 496.337 258.339Z" fill="#DABF9D"/>
<path fill-rule="evenodd" clip-rule="evenodd" d="M445.489 262.546C440.888 262.546 437.677 266.152 437.677 271.311C437.677 276.469 440.791 279.797 445.254 279.797C449.139 279.797 453.066 277.079 453.066 271.011C453.066 265.949 450.016 262.546 445.489 262.546ZM449.856 271.097C449.856 274.072 448.464 277.068 445.372 277.068C442.279 277.068 440.909 274.061 440.909 271.257C440.909 268.271 442.3 265.264 445.393 265.264C448.486 265.264 449.856 268.293 449.856 271.097ZM438.565 262.803H425.895V265.596H430.657V279.54H433.771V265.596H438.565V262.803ZM462.719 262.803H466.315L461.21 270.968L466.411 279.54H462.805L460.654 275.805C460.119 274.938 459.691 274.221 459.305 273.547C458.974 274.179 458.588 274.874 458.021 275.837L455.998 279.54H452.413L457.529 271.075L452.606 262.803H456.212L458.438 266.752C458.567 266.987 458.695 267.212 458.813 267.426C459.038 267.833 459.241 268.196 459.434 268.55C459.733 267.95 460.044 267.394 460.429 266.741L462.719 262.803ZM470.382 262.803H467.289V279.54H470.382V262.803ZM480.602 277.004C481.736 277.004 482.913 276.768 483.673 276.405H483.652L484.24 276.126L484.936 278.78L484.551 278.973C483.78 279.358 482.218 279.776 480.174 279.776C475.155 279.776 471.901 276.469 471.901 271.311C471.901 266.152 475.486 262.546 480.612 262.546C482.956 262.546 484.24 263.124 484.583 263.306L484.979 263.509L484.187 266.184L483.62 265.906C483.17 265.682 482.175 265.307 480.698 265.307C477.209 265.307 475.122 267.619 475.122 271.236C475.122 274.853 477.166 277.004 480.602 277.004Z" fill="#F3EADE"/>
<path fill-rule="evenodd" clip-rule="evenodd" d="M449.735 317.862V315.401C449.254 315.144 448.751 315.133 448.237 315.122C446.45 315.069 444.673 315.015 444.138 304.87C444.063 303.383 444.385 301.906 445.112 300.6C445.572 299.787 446.193 298.899 447.049 298.064C450.335 294.864 454.519 294.843 455.418 294.864C456.317 294.843 460.491 294.864 463.787 298.064C464.643 298.899 465.264 299.776 465.724 300.6C466.441 301.895 466.773 303.383 466.698 304.87C466.163 315.015 464.386 315.069 462.588 315.122C462.074 315.133 461.572 315.155 461.09 315.401V317.862C461.09 319.061 460.116 320.035 458.917 320.035H451.908C450.709 320.035 449.735 319.061 449.735 317.862ZM460.352 305.566C459.378 304.902 457.655 305.116 456.959 305.908H456.97C456.745 306.165 456.659 306.561 456.681 307C456.724 308.081 457.323 309.055 458.179 309.697C458.714 310.103 459.196 310.36 460.137 310.713C461.133 311.099 463.262 310.178 462.299 307.963C461.657 306.818 461.261 306.336 460.352 305.566ZM457.826 311.955L455.536 309.322H455.557C455.343 309.087 454.979 309.087 454.776 309.322L452.486 311.955C452.315 312.147 452.293 312.426 452.422 312.64L452.999 313.603C453.139 313.817 453.374 313.956 453.631 313.956H456.681C456.938 313.956 457.184 313.828 457.312 313.603L457.89 312.64C458.019 312.426 457.997 312.147 457.826 311.955ZM449.949 305.566C449.04 306.336 448.644 306.818 448.002 307.963C447.039 310.178 449.168 311.099 450.163 310.713C451.105 310.36 451.587 310.103 452.122 309.697C452.978 309.044 453.577 308.07 453.62 307C453.642 306.572 453.556 306.165 453.331 305.908C452.636 305.116 450.913 304.902 449.949 305.566ZM469.79 331.592C470.197 330.8 471.107 330.308 472.102 330.565C472.798 330.747 473.354 331.325 473.515 332.02C473.707 332.855 473.365 333.636 472.765 334.086C472.551 334.246 472.412 334.482 472.412 334.749C472.423 335.145 472.295 335.584 471.813 336.098C471.406 336.537 470.839 336.836 470.24 336.783C469.223 336.697 468.431 335.841 468.431 334.803C468.431 334.418 468.549 334.054 468.742 333.743L455.429 327.387L442.116 333.743C442.308 334.054 442.426 334.407 442.426 334.803C442.426 335.83 441.634 336.686 440.618 336.783C440.018 336.836 439.462 336.537 439.044 336.098C438.563 335.584 438.434 335.145 438.445 334.749C438.445 334.482 438.306 334.246 438.092 334.086C437.493 333.647 437.15 332.866 437.343 332.02C437.503 331.325 438.06 330.747 438.755 330.565C439.751 330.308 440.66 330.8 441.067 331.592L452.657 326.06L441.121 320.548C440.757 321.415 439.804 321.972 438.766 321.704C438.071 321.522 437.514 320.944 437.354 320.249C437.161 319.414 437.503 318.633 438.103 318.183C438.317 318.023 438.456 317.787 438.456 317.52C438.434 317.124 438.573 316.685 439.055 316.171C439.462 315.732 440.029 315.433 440.628 315.486C441.645 315.572 442.437 316.428 442.437 317.466C442.437 317.809 442.33 318.119 442.18 318.397L455.429 324.722L468.677 318.397C468.528 318.119 468.421 317.809 468.421 317.466C468.421 316.439 469.213 315.583 470.229 315.486C470.828 315.433 471.385 315.732 471.802 316.171C472.284 316.685 472.412 317.124 472.402 317.52C472.402 317.787 472.541 318.023 472.755 318.183C473.354 318.622 473.697 319.403 473.504 320.249C473.343 320.944 472.787 321.522 472.091 321.704C471.053 321.972 470.101 321.415 469.737 320.548L458.2 326.06L469.79 331.592Z" fill="#DABF9D"/>
<path d="M326.082 198.964C328.372 198.964 330.18 196.91 329.774 194.545C329.453 192.715 327.73 191.473 325.878 191.473H324.455C324.38 191.473 324.305 191.409 324.305 191.323V134.294C324.305 134.219 324.369 134.144 324.455 134.144H325.878C327.73 134.144 329.463 132.892 329.774 131.073C330.18 128.708 328.372 126.653 326.082 126.653H166.958C165.171 126.653 163.544 127.862 163.191 129.617C162.709 132.025 164.539 134.144 166.861 134.144H168.649V191.462H166.968C165.181 191.462 163.555 192.672 163.201 194.427C162.72 196.835 164.55 198.954 166.872 198.954H168.659V303.253H166.829C165.406 303.253 164.047 304.044 163.48 305.35C162.292 308.09 164.282 310.744 166.872 310.744H168.659V368.062H166.829C165.406 368.062 164.047 368.854 163.48 370.16C162.292 372.899 164.282 375.553 166.872 375.553H326.028C327.655 375.553 329.174 374.558 329.667 373.006C330.469 370.427 328.564 368.062 326.114 368.062H324.326V310.744H326.039C327.665 310.744 329.185 309.748 329.677 308.197C330.48 305.618 328.575 303.253 326.124 303.253H324.337V199.103C324.337 199.029 324.401 198.954 324.487 198.954L326.082 198.964Z" fill="#DABF9D"/>
<path fill-rule="evenodd" clip-rule="evenodd" d="M316.742 137.654H176.079C174.441 137.654 173.125 138.992 173.125 140.619V188.231C173.125 189.868 174.452 191.184 176.079 191.184H316.742C318.454 191.184 319.846 189.793 319.846 188.081V140.758C319.846 139.046 318.454 137.654 316.742 137.654ZM316.754 202.415H176.09C174.453 202.415 173.137 203.742 173.137 205.369V296.847C173.137 298.484 174.464 299.801 176.09 299.801H316.893C318.53 299.801 319.847 298.474 319.847 296.847V205.508C319.847 203.796 318.466 202.415 316.754 202.415ZM176.079 311.033H316.892C318.519 311.033 319.846 312.36 319.846 313.986V361.598C319.846 363.225 318.519 364.552 316.892 364.552H176.079C174.441 364.552 173.125 363.225 173.125 361.598V313.986C173.125 312.36 174.441 311.033 176.079 311.033Z" fill="#F3EADE"/>
<path d="M246.489 217.04C227.676 217.04 212.426 232.29 212.426 251.103C212.426 269.917 227.676 285.167 246.489 285.167C265.303 285.167 280.553 269.917 280.553 251.103C280.553 232.29 265.303 217.04 246.489 217.04Z" fill="#DABF9D"/>
<path d="M220.269 261.736C222.056 255.015 227.385 250.595 232.779 250.617C232.672 251.312 232.597 252.019 232.597 252.746C232.597 258.322 235.915 263.127 240.666 265.332V265.353C238.109 270.201 231.559 272.759 224.731 271.004C229.857 274.952 236.118 276.076 240.902 273.679C243.16 272.555 244.658 270.854 245.6 269.463C246.381 270.308 250.127 274.128 256.237 274.46C263.086 274.835 267.549 270.522 268.245 269.826C261.845 272.898 254.792 271.239 251.593 266.68C251.4 266.402 251.229 266.124 251.068 265.845C256.473 263.94 260.357 258.804 260.357 252.757C260.357 252.029 260.282 251.323 260.175 250.628C265.569 250.595 270.92 255.015 272.707 261.736C273.638 255.326 271.551 249.322 267.121 246.325C265.023 244.913 262.819 244.442 261.139 244.303C261.492 243.201 262.99 238.064 260.282 232.574C257.243 226.42 251.293 224.644 250.351 224.376C256.152 228.443 258.164 235.41 255.756 240.429C255.52 240.91 255.253 241.349 254.964 241.766C252.609 239.947 249.688 238.856 246.488 238.856C243.288 238.856 240.356 239.947 238.012 241.766C237.723 241.349 237.456 240.91 237.22 240.429C234.802 235.41 236.824 228.443 242.625 224.376C241.672 224.644 235.722 226.42 232.693 232.574C229.997 238.064 231.495 243.211 231.837 244.303C230.157 244.431 227.953 244.913 225.855 246.325C221.425 249.333 219.338 255.326 220.269 261.736ZM234.898 250.863C238.044 251.569 240.227 253.635 241.009 254.437L245.439 246.561C244.818 246.411 241.822 245.662 239.403 243.393C241.373 241.906 243.823 241.007 246.477 241.007C249.131 241.007 251.582 241.895 253.551 243.393C251.132 245.662 248.136 246.411 247.515 246.561L251.946 254.437C252.738 253.624 254.91 251.58 258.046 250.874C258.153 251.484 258.217 252.115 258.217 252.757C258.217 257.915 254.878 262.292 250.244 263.866C249.206 260.441 250.105 257.145 250.287 256.503H241.255C241.565 257.541 242.261 260.345 241.447 263.341C237.488 261.447 234.737 257.412 234.737 252.746C234.737 252.104 234.802 251.473 234.898 250.863Z" fill="#F3EADE"/>
<path d="M185.972 238.443C188.295 238.443 190.125 236.324 189.643 233.916C189.29 232.161 187.663 230.952 185.876 230.952H184.196V173.633H185.876C187.663 173.633 189.29 172.424 189.643 170.669C190.125 168.261 188.295 166.142 185.972 166.142H36.9616C35.1744 166.142 33.5478 167.351 33.1946 169.106C32.7131 171.514 34.543 173.633 36.8653 173.633H38.6525V230.952H36.9723C35.1851 230.952 33.5585 232.161 33.2053 233.916C32.7238 236.324 34.5537 238.443 36.876 238.443H38.6632V324.656H36.983C35.1958 324.656 33.5692 325.865 33.216 327.62C32.7345 330.028 34.5644 332.147 36.8867 332.147H38.6739V389.465H36.9937C35.2066 389.465 33.5799 390.675 33.2267 392.43C32.7452 394.838 34.5751 396.957 36.8974 396.957H186.047C187.471 396.957 188.83 396.165 189.397 394.859C190.585 392.12 188.594 389.465 186.004 389.465H184.217V332.147H186.047C187.471 332.147 188.83 331.355 189.397 330.05C190.585 327.31 188.594 324.656 186.004 324.656H184.217V238.443H185.972Z" fill="#DABF9D"/>
<path fill-rule="evenodd" clip-rule="evenodd" d="M176.952 176.977H45.9123C44.2823 176.977 42.9648 178.294 42.9648 179.925V227.419C42.9648 229.049 44.2823 230.366 45.9123 230.366H176.952C178.582 230.366 179.899 229.049 179.899 227.419V179.925C179.899 178.294 178.582 176.977 176.952 176.977ZM176.952 241.49H45.9123C44.2823 241.49 42.9648 242.808 42.9648 244.438V318.85C42.9648 320.48 44.2823 321.798 45.9123 321.798H176.952C178.582 321.798 179.899 320.48 179.899 318.85V244.438C179.899 242.808 178.582 241.49 176.952 241.49ZM45.9123 332.922H176.952C178.582 332.922 179.899 334.239 179.899 335.869V383.364C179.899 384.994 178.582 386.311 176.952 386.311H45.9123C44.2823 386.311 42.9648 384.994 42.9648 383.364V335.869C42.9648 334.239 44.2823 332.922 45.9123 332.922Z" fill="#F3EADE"/>
<path fill-rule="evenodd" clip-rule="evenodd" d="M124.692 256.939C120.732 254.895 116.226 253.729 111.454 253.729C106.006 253.729 100.923 255.237 96.5781 257.849L97.6011 259.53C89.8802 264.179 84.6694 272.589 84.5227 282.206H82.5703V282.624C82.5703 293.336 88.4134 302.689 97.0711 307.676L98.007 305.956C101.967 308.247 106.561 309.559 111.456 309.559C116.646 309.559 121.498 308.084 125.614 305.531L126.64 307.216C134.88 302.122 140.359 293.015 140.359 282.623V282.206H138.389C138.232 271.956 132.323 263.077 123.754 258.661L124.692 256.939ZM98.1523 260.435C90.7389 264.898 85.7357 272.972 85.5928 282.206H104.309C104.451 279.73 105.85 277.591 107.878 276.416L98.1523 260.435ZM98.5227 305.009C102.329 307.215 106.747 308.479 111.456 308.479C116.441 308.479 121.101 307.062 125.054 304.61L115.346 288.655C114.228 289.376 112.896 289.794 111.467 289.794C109.985 289.794 108.608 289.345 107.465 288.574L98.5227 305.009ZM137.319 282.206H118.625C118.465 279.431 116.727 277.078 114.294 276.033L123.247 259.592C131.485 263.828 137.166 272.357 137.319 282.206Z" fill="#DABF9D"/>
<path fill-rule="evenodd" clip-rule="evenodd" d="M23.7436 299.317H42.4502C43.6702 299.317 44.6655 300.312 44.6655 301.532C44.6655 302.752 43.6702 303.748 42.4502 303.748H41.9258V304.807C41.9258 306.316 42.2255 307.825 42.8462 309.206C43.2208 310.03 43.713 310.918 44.3765 311.817C45.0829 312.758 45.8106 313.497 46.4848 314.075C46.9022 314.439 47.3516 314.76 47.8118 315.059C50.4123 316.761 53.0021 318.463 55.6026 320.175C58.1924 321.876 60.793 323.578 63.3828 325.28C67.1712 327.773 66.3151 333.081 62.7728 334.772V390.089C64.6242 391.223 65.8656 393.246 65.8656 395.579C65.8656 399.121 62.9868 402 59.4446 402H6.79212C3.24986 402 0.371094 399.121 0.371094 395.579C0.371094 393.257 1.60178 391.223 3.45318 390.1V334.772C-0.0890911 333.081 -0.94522 327.762 2.84319 325.28C5.4437 323.578 8.03352 321.876 10.634 320.175C13.2346 318.473 15.8244 316.761 18.4142 315.059C18.8743 314.76 19.3238 314.439 19.7412 314.075C20.4154 313.508 21.1538 312.758 21.8494 311.817C22.5129 310.918 23.0052 310.03 23.3798 309.206C24.0005 307.825 24.3001 306.327 24.3001 304.807V303.748H23.7436C22.5236 303.748 21.5284 302.752 21.5284 301.532C21.5284 300.312 22.5236 299.317 23.7436 299.317Z" fill="#DABF9D"/>
<path fill-rule="evenodd" clip-rule="evenodd" d="M59.5022 325.001C57.2441 323.514 54.9754 322.037 52.7066 320.549C50.4485 319.062 48.1798 317.574 45.911 316.098C45.5043 315.83 45.1191 315.552 44.7552 315.241C44.1666 314.738 43.5245 314.086 42.9252 313.272C42.3259 312.459 41.8872 311.667 41.5554 310.907C41.0203 309.719 40.7849 308.424 40.7849 307.13C40.7849 306.113 39.9609 305.289 38.9442 305.289H27.2472C26.2305 305.289 25.4065 306.113 25.4065 307.13C25.4065 308.467 25.1497 309.773 24.6039 310.982C24.2828 311.699 23.8441 312.48 23.2662 313.262C22.6562 314.086 22.0141 314.728 21.4362 315.231C21.0723 315.541 20.6871 315.83 20.2804 316.087C18.0116 317.564 15.7536 319.051 13.4955 320.539L11.9866 321.748C10.5097 322.925 8.86166 323.835 7.18149 324.712C2.61186 327.099 4.39905 333.734 9.31114 333.734H56.8589C61.589 333.734 63.419 327.591 59.4701 324.991L59.5022 325.001ZM57.0836 335.286H9.13991C8.10184 335.286 7.25641 336.131 7.25641 337.169V385.723C7.25641 386.761 8.10184 387.606 9.13991 387.606H57.0836C58.1217 387.606 58.9671 386.761 58.9671 385.723V337.169C58.9671 336.131 58.1217 335.286 57.0836 335.286ZM9.27904 389.158H56.6983C59.7376 389.158 62.4452 391.373 62.7341 394.402C63.0659 397.869 60.3476 400.78 56.9552 400.78H9.53588C6.4966 400.78 3.78906 398.565 3.50012 395.536C3.16836 392.069 5.88659 389.158 9.27904 389.158Z" fill="#F3EADE"/>
<path d="M46.8544 337.673H19.3831C18.131 337.673 17.125 338.679 17.125 339.931V382.962C17.125 384.214 18.131 385.22 19.3831 385.22H46.8544C48.0958 385.22 49.1124 384.214 49.1124 382.962V339.931C49.1124 338.679 48.0958 337.673 46.8544 337.673Z" fill="#DABF9D"/>
<path fill-rule="evenodd" clip-rule="evenodd" d="M26.0863 357.245C24.556 362.007 28.1196 366.876 33.1173 366.876C38.1257 366.876 41.668 362.007 40.1484 357.245L33.8451 341.503C33.5882 340.85 32.6572 340.85 32.4003 341.503L26.0863 357.245ZM21.2812 375.941C21.2812 372.345 23.5286 369.83 26.7498 369.83C29.971 369.83 32.0579 372.259 32.0579 375.737C32.0579 379.975 29.3075 381.869 26.5893 381.869C23.4644 381.869 21.2812 379.536 21.2812 375.941ZM26.6749 379.676C28.6547 379.676 29.543 377.728 29.543 375.802C29.543 373.875 28.6654 372.013 26.6856 372.013C24.7058 372.013 23.8176 373.972 23.8176 375.909C23.8176 377.717 24.6951 379.676 26.6749 379.676ZM35.7286 370.183H33.2886V381.88H35.7286V370.183ZM40.4159 370.183V379.654H44.9642V381.869H37.9759V370.183H40.4159Z" fill="#F3EADE"/>
<path fill-rule="evenodd" clip-rule="evenodd" d="M346.433 240.864H364.262C368.832 240.864 372.535 244.567 372.535 249.136C372.535 252.646 370.351 255.632 367.28 256.841V258.864C367.28 260.448 368.265 261.861 369.752 262.417L396.688 272.455C402.414 274.596 406.213 280.053 406.213 286.164L406.181 292.296C406.181 296.695 402.767 300.258 398.369 300.258C402.692 300.258 406.191 303.768 406.191 308.081V326.349C406.191 330.673 402.681 334.172 398.369 334.172C402.692 334.172 406.191 337.682 406.191 341.995V360.263C406.191 364.586 402.681 368.086 398.369 368.086C402.692 368.086 406.191 371.596 406.191 375.909V394.177C406.191 398.5 402.681 401.999 398.369 401.999H312.284C307.96 401.999 304.461 398.489 304.461 394.177V375.909C304.461 371.585 307.971 368.086 312.284 368.086C307.96 368.086 304.461 364.576 304.461 360.263V341.995C304.461 337.672 307.971 334.172 312.284 334.172C307.96 334.172 304.461 330.662 304.461 326.349V308.081C304.461 303.758 307.971 300.258 312.284 300.258C307.886 300.258 304.472 296.695 304.472 292.296V286.164C304.472 280.053 308.271 274.585 313.996 272.455L340.932 262.417C342.42 261.871 343.404 260.448 343.404 258.864V256.831C340.333 255.621 338.161 252.625 338.161 249.136C338.161 244.567 341.863 240.864 346.433 240.864Z" fill="#DABF9D"/>
<path fill-rule="evenodd" clip-rule="evenodd" d="M400.155 286.217V291.621C400.155 295.013 397.747 297.849 394.547 298.502H316.125C312.925 297.849 310.517 295.013 310.517 291.621V286.217C310.517 280.834 313.867 276.018 318.907 274.134L342.644 265.284C343.949 264.792 344.816 263.55 344.816 262.148C344.816 260.875 345.854 259.837 347.128 259.837H363.544C364.818 259.837 365.856 260.875 365.856 262.148C365.856 263.55 366.722 264.792 368.028 265.284L391.764 274.134C396.805 276.018 400.155 280.834 400.155 286.217ZM317.077 302.109H393.616C397.458 302.109 400.572 305.223 400.572 309.065V325.299C400.572 329.141 397.458 332.255 393.616 332.255H317.077C313.235 332.255 310.121 329.141 310.121 325.299V309.065C310.121 305.223 313.235 302.109 317.077 302.109ZM393.616 335.776H317.077C313.235 335.776 310.121 338.89 310.121 342.732V358.967C310.121 362.809 313.235 365.923 317.077 365.923H393.616C397.458 365.923 400.572 362.809 400.572 358.967V342.732C400.572 338.89 397.458 335.776 393.616 335.776ZM317.077 369.444H393.616C397.458 369.444 400.572 372.558 400.572 376.4V392.635C400.572 396.476 397.458 399.591 393.616 399.591H317.077C313.235 399.591 310.121 396.476 310.121 392.635V376.4C310.121 372.558 313.235 369.444 317.077 369.444Z" fill="#F3EADE"/>
<path d="M376.751 296.305H333.922C331.568 296.305 329.652 298.22 329.652 300.575V369.269C329.652 371.623 331.568 373.539 333.922 373.539H376.751C379.105 373.539 381.021 371.623 381.021 369.269V300.575C381.021 298.22 379.105 296.305 376.751 296.305Z" fill="#DABF9D"/>
<path fill-rule="evenodd" clip-rule="evenodd" d="M348.994 337.198L348.973 334.448C348.438 334.17 347.86 334.159 347.293 334.137C345.302 334.084 343.312 334.03 342.723 322.719C342.638 321.06 343.012 319.401 343.815 317.957C344.328 317.036 345.024 316.052 345.976 315.121C349.647 311.557 354.302 311.535 355.308 311.557C356.314 311.535 360.97 311.557 364.64 315.121C365.593 316.052 366.288 317.036 366.802 317.957C367.615 319.401 367.979 321.06 367.894 322.719C367.294 334.02 365.314 334.084 363.324 334.137C362.757 334.159 362.19 334.17 361.644 334.448V337.198C361.644 338.536 360.563 339.617 359.225 339.617H351.413C350.075 339.617 348.994 338.536 348.994 337.198ZM360.83 323.489C359.75 322.751 357.834 322.986 357.053 323.875C356.796 324.164 356.721 324.613 356.742 325.095C356.785 326.282 357.459 327.374 358.412 328.091C359.011 328.551 359.546 328.84 360.595 329.225C361.708 329.653 364.073 328.637 363.003 326.165C362.286 324.891 361.836 324.356 360.83 323.489ZM358.005 330.617L355.458 327.684C355.233 327.417 354.816 327.417 354.591 327.684L352.044 330.617C351.862 330.831 351.83 331.141 351.98 331.387L352.622 332.457C352.761 332.703 353.029 332.853 353.318 332.853H356.721C356.999 332.853 357.267 332.703 357.417 332.457L358.059 331.387C358.209 331.141 358.187 330.831 358.005 330.617ZM349.23 323.489C348.213 324.356 347.774 324.891 347.057 326.165C345.987 328.626 348.363 329.653 349.476 329.225C350.525 328.829 351.06 328.54 351.659 328.091C352.612 327.374 353.275 326.293 353.329 325.095C353.35 324.613 353.264 324.164 353.007 323.875C352.226 322.997 350.311 322.751 349.23 323.489ZM371.34 352.491C371.789 351.603 372.806 351.057 373.908 351.346C374.678 351.549 375.299 352.191 375.481 352.973C375.695 353.914 375.321 354.781 374.646 355.284C374.411 355.455 374.261 355.723 374.261 356.023C374.261 356.461 374.122 356.954 373.587 357.521C373.127 358.002 372.506 358.345 371.832 358.281C370.708 358.174 369.82 357.221 369.82 356.065C369.82 355.637 369.959 355.231 370.173 354.888L355.34 347.804L340.508 354.888C340.733 355.231 340.861 355.627 340.861 356.065C340.861 357.221 339.973 358.174 338.849 358.281C338.186 358.345 337.554 358.013 337.094 357.521C336.559 356.954 336.409 356.461 336.42 356.023C336.431 355.734 336.27 355.466 336.035 355.284C335.371 354.781 334.986 353.914 335.2 352.973C335.382 352.191 336.002 351.549 336.773 351.346C337.875 351.068 338.892 351.613 339.341 352.491L352.248 346.327L339.395 340.184C338.988 341.147 337.929 341.768 336.762 341.468C335.992 341.265 335.371 340.623 335.189 339.842C334.975 338.9 335.35 338.033 336.024 337.53C336.259 337.359 336.409 337.091 336.409 336.792C336.409 336.353 336.548 335.86 337.083 335.293C337.544 334.812 338.164 334.469 338.838 334.533C339.962 334.64 340.85 335.593 340.85 336.749C340.85 337.123 340.743 337.476 340.572 337.787L355.34 344.839L370.109 337.787C369.948 337.476 369.831 337.134 369.831 336.749C369.831 335.593 370.719 334.64 371.843 334.533C372.506 334.469 373.137 334.801 373.598 335.293C374.133 335.86 374.283 336.353 374.272 336.792C374.272 337.08 374.422 337.348 374.657 337.53C375.321 338.033 375.706 338.9 375.492 339.842C375.31 340.623 374.689 341.265 373.919 341.468C372.752 341.768 371.693 341.147 371.286 340.184L358.433 346.327L371.34 352.491Z" fill="#F3EADE"/>
</svg>
