<svg width="8" height="8" viewBox="0 0 8 8" fill="none" xmlns="http://www.w3.org/2000/svg">
<path d="M4.70937 3.99612L6.87604 1.82945C7.06938 1.63612 7.06938 1.31612 6.87604 1.12278C6.68271 0.92945 6.36271 0.92945 6.16937 1.12278L4.00271 3.28945L1.83604 1.12278C1.64271 0.92945 1.32271 0.92945 1.12938 1.12278C0.936042 1.31612 0.936042 1.63612 1.12938 1.82945L3.29604 3.99612L1.12938 6.16278C0.936042 6.35612 0.936042 6.67612 1.12938 6.86945C1.22938 6.96945 1.35604 7.01612 1.48271 7.01612C1.60937 7.01612 1.73604 6.96945 1.83604 6.86945L4.00271 4.70278L6.16937 6.86945C6.26937 6.96945 6.39604 7.01612 6.52271 7.01612C6.64937 7.01612 6.77604 6.96945 6.87604 6.86945C7.06938 6.67612 7.06938 6.35612 6.87604 6.16278L4.70937 3.99612Z" fill="#FBFBFB"/>
</svg>
