<svg width="1762" height="2262" viewBox="0 0 1762 2262" fill="none" xmlns="http://www.w3.org/2000/svg">
<g opacity="0.12">
<path d="M1244.23 461.915L1001.35 885.732L893.681 704.38L1244.23 461.915Z" fill="#456080"/>
<path d="M1170.08 958.552L1001.35 885.733L1244.23 461.915L1170.08 958.552Z" fill="#6687AD"/>
<path d="M487.27 0L765.955 170.043L817.375 569.058L487.27 0Z" fill="#3C5470"/>
<path d="M664.288 606.758L893.711 704.379L606.139 874.62L664.288 606.758Z" fill="#3C5470"/>
<path d="M418.48 277.586L664.281 606.759L587.976 173.616" fill="#3C5470"/>
<path d="M446.285 661.719L606.132 874.62L664.281 606.758" fill="#537399"/>
<path d="M82.657 929.583L337.727 698.626L237.552 384.731" fill="#3C5470"/>
<path d="M337.712 698.625L446.266 661.719L364.755 556.559" fill="#6687AD"/>
<path d="M337.709 698.624L481.305 990.098L446.263 661.719" fill="#456080"/>
<path d="M244.899 1191.49L481.305 990.098L337.709 698.624" fill="#537399"/>
<path d="M664.257 606.76L817.375 569.061L712.757 388.7" fill="#6687AD"/>
<path d="M817.376 569.06L1244.23 461.915L893.681 704.38L817.376 569.06Z" fill="#3C5470"/>
<path d="M244.915 1191.49L690.938 1447.45L481.321 990.1" fill="#456080"/>
<path d="M481.321 990.099L690.938 1447.45L606.126 874.621" fill="#3C5470"/>
<path d="M893.687 704.38L1001.35 885.732L606.114 874.621L893.687 704.38Z" fill="#6687AD"/>
<path d="M1170.09 958.551L1152.06 1141.09L1035.5 944.066L1170.09 958.551Z" fill="#3C5470"/>
<path d="M783.867 1269.27L973.805 934.146L606.119 874.621" fill="#6687AD"/>
<path d="M606.126 874.621L783.875 1269.27L690.938 1447.45L606.126 874.621Z" fill="#537399"/>
<path d="M847.984 1411.14L783.867 1269.27L973.805 934.147L847.984 1411.14Z" fill="#3C5470"/>
<path d="M690.923 1447.45L847.977 1411.14L783.86 1269.27" fill="#6687AD"/>
<path d="M309.531 1415.9L317.656 1233.16L244.906 1191.49" fill="#3C5470"/>
<path d="M309.539 1415.9L690.938 1447.45L317.665 1233.16" fill="#6687AD"/>
<path d="M1035.5 944.068L1170.09 958.552L1001.35 885.733" fill="#537399"/>
<path d="M481.304 990.098L606.109 874.62L446.263 661.719" fill="#6687AD"/>
<path d="M418.48 277.587L446.285 661.721L664.281 606.76" fill="#456080"/>
<path d="M237.533 384.731L337.707 698.626L364.75 556.56" fill="#537399"/>
<path d="M364.755 556.56L446.266 661.721L418.461 277.587" fill="#3C5470"/>
<path d="M664.256 606.759L712.883 388.7L587.951 173.616" fill="#456080"/>
<path d="M664.288 606.759L893.711 704.38L817.406 569.06" fill="#537399"/>
<path d="M1001.36 885.732L1035.52 944.067L606.125 874.621L1001.36 885.732Z" fill="#537399"/>
<path d="M1035.52 944.068L1152.07 1141.1L973.814 934.147L1035.52 944.068Z" fill="#456080"/>
<path d="M973.814 934.147L1152.07 1141.1L847.993 1411.14L973.814 934.147Z" fill="#537399"/>
<path d="M847.993 1411.14L1152.07 1141.09L1136.45 1330.98L847.993 1411.14Z" fill="#6687AD"/>
<path d="M1136.44 1330.98L1152.06 1141.09L1248.17 1300.02L1136.44 1330.98Z" fill="#537399"/>
<path d="M1152.06 1141.09L1170.09 958.55L1248.17 1300.02L1152.06 1141.09Z" fill="#6687AD"/>
<path d="M1170.1 958.551L1248.69 1003.39L1248.18 1300.03" fill="#537399"/>
<path d="M1169.59 958.551L1247.8 912.121L1248.69 1003.39" fill="#537399"/>
<path d="M1170.09 958.55L1248.17 785.729L1247.79 912.121" fill="#537399"/>
<path d="M1170.09 958.552L1244.24 461.915L1248.17 785.731" fill="#537399"/>
<path d="M986.625 1716.7L847.981 1411.14L690.927 1447.45" fill="#456080"/>
<path d="M1248.17 1300.03L929.113 1589.91L847.983 1411.14L1248.17 1300.03Z" fill="#3C5470"/>
<path d="M1248.17 1300.03L986.627 1716.7L929.113 1589.91L1248.17 1300.03Z" fill="#6687AD"/>
<path d="M889.25 1628.01L745.908 1761.94L690.933 1447.45L889.25 1628.01Z" fill="#3C5470"/>
<path d="M745.891 1761.94L690.915 1447.45L694.09 1797.46" fill="#6687AD"/>
<path d="M464.435 1591.1L690.938 1447.45L309.539 1415.9" fill="#456080"/>
<path d="M464.433 1591.1L694.109 1797.46L690.935 1447.45" fill="#537399"/>
<path d="M296.195 1692.69L464.422 1591.1L309.526 1415.9" fill="#3C5470"/>
<path d="M95.4708 1515.31L300.263 1606.78L309.531 1415.9" fill="#456080"/>
<path d="M95.4737 1515.31L296.203 1692.69L300.266 1606.78" fill="#6687AD"/>
<path d="M1635.92 422.628L1711.72 717.078L1244.24 461.914L1635.92 422.628Z" fill="#3C5470"/>
<path d="M1244.24 461.915L1662.84 690.491L1467.31 795.056" fill="#456080"/>
<path d="M1244.23 461.915L1319.52 574.417L1248.16 785.731" fill="#3C5470"/>
<path d="M1319.53 574.417L1394.31 685.927L1248.18 785.73" fill="#537399"/>
<path d="M1394.31 685.927L1467.31 795.056L1247.79 912.122" fill="#3C5470"/>
<path d="M1394.31 685.927L1247.8 912.122L1248.18 785.73" fill="#6687AD"/>
<path d="M1662.84 690.491L1711.72 717.079L1467.31 795.057" fill="#537399"/>
<path d="M1467.31 795.054L1711.72 717.076L1540.57 913.707" fill="#6687AD"/>
<path d="M1247.79 912.122L1467.31 795.057L1540.57 913.71" fill="#456080"/>
<path d="M1248.68 1003.39L1540.57 913.708L1604.69 1147.24" fill="#3C5470"/>
<path d="M1247.79 912.121L1540.57 913.708L1248.68 1003.39" fill="#6687AD"/>
<path d="M1248.68 1003.39L1604.69 1147.25L1576.63 1190.1" fill="#456080"/>
<path d="M1248.68 1003.39L1576.62 1190.1L1248.17 1300.03" fill="#6687AD"/>
<path d="M1248.17 1300.02L1576.62 1190.1L1418.05 1439.51L1248.17 1300.02Z" fill="#456080"/>
<path d="M1248.18 1300.03L1418.05 1439.51L1150.16 1856.78L1248.18 1300.03Z" fill="#3C5470"/>
<path d="M1248.17 1300.03L1150.16 1856.78L986.627 1716.7L1248.17 1300.03Z" fill="#537399"/>
<path d="M1593.77 1579.59L1418.05 1439.51L1576.63 1190.1" fill="#3C5470"/>
<path d="M799.22 427.986L1244.23 461.916L817.376 569.06L799.22 427.986Z" fill="#537399"/>
<path d="M1593.77 1579.59L1150.16 1856.78L1418.05 1439.51" fill="#537399"/>
<path d="M1756.03 1705.79L1286.77 1946.27L1593.77 1579.6" fill="#3C5470"/>
<path d="M1593.77 1579.6L1286.77 1946.27L1150.16 1856.78" fill="#6687AD"/>
<path d="M889.244 1628.01L986.625 1716.7L745.902 1761.94L889.244 1628.01Z" fill="#6687AD"/>
<path d="M805.839 1914.92L1150.16 1856.78L986.635 1716.7" fill="#6687AD"/>
<path d="M745.902 1761.94L805.829 1914.92L986.625 1716.7" fill="#537399"/>
<path d="M694.109 1797.45L381.018 1641.5L464.433 1591.1L694.109 1797.45Z" fill="#456080"/>
<path d="M805.836 1914.92L694.108 1797.46L745.909 1761.94" fill="#456080"/>
<path d="M694.109 1797.46L296.206 1692.69L381.018 1641.5" fill="#6687AD"/>
<path d="M296.203 1692.69L95.474 1515.31L-0.00262451 1574.83" fill="#3C5470"/>
<path d="M1761.36 1858.17L1286.77 1946.27L1756.03 1705.79" fill="#6687AD"/>
<path d="M1733.56 2069.68L1538.55 2056.79L1521.79 1902.62" fill="#456080"/>
<path d="M1733.56 2069.68L1521.79 1902.62L1676.43 1983.57" fill="#6687AD"/>
<path d="M1676.42 1983.57L1521.78 1902.62L1761.36 1858.17" fill="#456080"/>
<path d="M1478.61 2252.03L1356.34 2139.53L1521.77 1902.62" fill="#3C5470"/>
<path d="M1538.53 2056.79L1478.6 2252.03L1521.77 1902.62" fill="#537399"/>
<path d="M651.83 2155.2L529.565 2042.7L694.109 1797.46" fill="#537399"/>
<path d="M1286.77 1946.27L986.251 2092.9L1150.16 1856.78" fill="#3C5470"/>
<path d="M529.578 2042.7L130.659 1926.23L296.22 1692.69" fill="#3C5470"/>
<path d="M130.643 1926.23L112.233 1796.66L296.203 1692.69" fill="#537399"/>
<path d="M694.109 1797.46L529.565 2042.7L296.206 1692.69" fill="#456080"/>
<path d="M1150.16 1856.78L651.832 2155.2L805.839 1914.92" fill="#3C5470"/>
<path d="M1150.16 1856.78L986.254 2092.9L651.832 2155.2" fill="#456080"/>
<path d="M694.108 1797.46L805.836 1914.92L651.829 2155.2" fill="#456080"/>
<path d="M1356.34 2139.53L1286.76 1946.27L1521.77 1902.62" fill="#537399"/>
<path d="M651.82 2155.2L246.934 2143.69L529.555 2042.7" fill="#3C5470"/>
<path d="M1356.35 2139.52L986.253 2092.9L1286.78 1946.27" fill="#6687AD"/>
<path d="M1478.62 2252.03H1214.28L1356.35 2139.53" fill="#537399"/>
<path d="M1356.35 2139.52L1214.28 2252.03L986.253 2092.9" fill="#456080"/>
<path d="M1214.27 2252.03L881.241 2261.75L986.239 2092.9" fill="#3C5470"/>
<path d="M986.25 2092.9L881.251 2261.75L651.828 2155.2" fill="#537399"/>
</g>
</svg>
