<svg width="601" height="181" viewBox="0 0 601 181" fill="none" xmlns="http://www.w3.org/2000/svg">
<g clip-path="url(#clip0_46_6361)">
<rect width="600" height="180" transform="translate(0.305664 0.510742)" fill="white"/>
<path d="M562.546 61.019H38.0652C34.3338 61.019 31.3057 64.0295 31.3057 67.7393V182.79C31.3057 186.5 34.3338 189.511 38.0652 189.511H562.546C566.278 189.511 569.306 186.5 569.306 182.79V67.7393C569.306 64.0295 566.278 61.019 562.546 61.019Z" fill="#EFF3F6"/>
<path d="M474.433 134.523H126.178C125.57 134.523 125.069 135.009 125.069 135.625V155.233C125.069 155.838 125.558 156.336 126.178 156.336H474.445C475.053 156.336 475.554 155.85 475.554 155.233V135.625C475.554 135.021 475.041 134.523 474.433 134.523Z" fill="#E6EBF1"/>
<path d="M142.296 142.904H190.626C191.067 142.904 191.425 143.259 191.425 143.698V147.159C191.425 147.597 191.067 147.953 190.626 147.953H142.296C141.855 147.953 141.497 147.597 141.497 147.159V143.698C141.497 143.259 141.855 142.904 142.296 142.904Z" fill="#CDD8E4"/>
<path d="M210.142 142.904H198.768C198.327 142.904 197.97 143.259 197.97 143.698V147.159C197.97 147.597 198.327 147.953 198.768 147.953H210.142C210.583 147.953 210.94 147.597 210.94 147.159V143.698C210.94 143.259 210.583 142.904 210.142 142.904Z" fill="#CDD8E4"/>
<path d="M243.713 142.904H218.284C217.843 142.904 217.485 143.259 217.485 143.698V147.159C217.485 147.597 217.843 147.953 218.284 147.953H243.713C244.154 147.953 244.512 147.597 244.512 147.159V143.698C244.512 143.259 244.154 142.904 243.713 142.904Z" fill="#CDD8E4"/>
<path d="M306.54 142.904H251.855C251.414 142.904 251.057 143.259 251.057 143.698V147.159C251.057 147.597 251.414 147.953 251.855 147.953H306.54C306.981 147.953 307.339 147.597 307.339 147.159V143.698C307.339 143.259 306.981 142.904 306.54 142.904Z" fill="#CDD8E4"/>
<path d="M319.62 142.904H314.684C314.243 142.904 313.885 143.259 313.885 143.698V147.159C313.885 147.597 314.243 147.953 314.684 147.953H319.62C320.061 147.953 320.418 147.597 320.418 147.159V143.698C320.418 143.259 320.061 142.904 319.62 142.904Z" fill="#CDD8E4"/>
<path d="M355.968 142.904H327.762C327.321 142.904 326.963 143.259 326.963 143.698V147.159C326.963 147.597 327.321 147.953 327.762 147.953H355.968C356.409 147.953 356.767 147.597 356.767 147.159V143.698C356.767 143.259 356.409 142.904 355.968 142.904Z" fill="#CDD8E4"/>
<path d="M379.704 142.904H364.098C363.657 142.904 363.299 143.259 363.299 143.698V147.159C363.299 147.597 363.657 147.953 364.098 147.953H379.704C380.145 147.953 380.502 147.597 380.502 147.159V143.698C380.502 143.259 380.145 142.904 379.704 142.904Z" fill="#CDD8E4"/>
<path d="M392.4 142.904H387.846C387.405 142.904 387.047 143.259 387.047 143.698V147.159C387.047 147.597 387.405 147.953 387.846 147.953H392.4C392.841 147.953 393.199 147.597 393.199 147.159V143.698C393.199 143.259 392.841 142.904 392.4 142.904Z" fill="#CDD8E4"/>
<path d="M333.049 40.0757H267.561C267.275 40.0757 267.049 40.3009 267.049 40.5853C267.049 40.8698 267.275 41.095 267.561 41.095H333.049C333.335 41.095 333.562 40.8698 333.562 40.5853C333.562 40.3009 333.335 40.0757 333.049 40.0757Z" fill="#466181"/>
<path d="M385.067 103.45H126.178C125.57 103.45 125.069 103.936 125.069 104.552V116.843C125.069 117.448 125.558 117.946 126.178 117.946H385.067C385.675 117.946 386.175 117.46 386.175 116.843V104.552C386.175 103.948 385.675 103.45 385.067 103.45Z" fill="#E6EBF1"/>
<path d="M143.607 94.1201H125.88C125.439 94.1201 125.081 94.4757 125.081 94.9142V98.3751C125.081 98.8136 125.439 99.1692 125.88 99.1692H143.607C144.048 99.1692 144.406 98.8136 144.406 98.3751V94.9142C144.406 94.4757 144.048 94.1201 143.607 94.1201Z" fill="#CDD8E4"/>
<path d="M158.617 94.1201H149.616C149.175 94.1201 148.817 94.4757 148.817 94.9142V98.3751C148.817 98.8136 149.175 99.1692 149.616 99.1692H158.617C159.058 99.1692 159.416 98.8136 159.416 98.3751V94.9142C159.416 94.4757 159.058 94.1201 158.617 94.1201Z" fill="#CDD8E4"/>
<path d="M474.446 103.122H396.466C395.858 103.122 395.357 103.608 395.357 104.224L395.358 116.837C395.358 117.442 395.846 117.94 396.466 117.94H474.446C475.054 117.94 475.555 117.454 475.555 116.837L475.554 104.224C475.554 103.62 475.054 103.122 474.446 103.122Z" fill="#466181"/>
<rect x="411.865" y="108.816" width="47.1824" height="3.42867" rx="0.5" fill="#B3C3D6"/>
<path d="M267.395 25.0107C267.395 24.7346 267.619 24.5107 267.895 24.5107H332.74C333.016 24.5107 333.24 24.7346 333.24 25.0107V36.0111C333.24 36.2872 333.016 36.5111 332.74 36.5111H267.895C267.619 36.5111 267.395 36.2872 267.395 36.0111V25.0107Z" fill="#3C5470"/>
</g>
<defs>
<clipPath id="clip0_46_6361">
<rect width="600" height="180" fill="white" transform="translate(0.305664 0.510742)"/>
</clipPath>
</defs>
</svg>
