<svg width="601" height="181" viewBox="0 0 601 181" fill="none" xmlns="http://www.w3.org/2000/svg">
<g clip-path="url(#clip0_46_6281)">
<rect width="600" height="180" transform="translate(0.305664 0.510742)" fill="white"/>
<g filter="url(#filter0_d_46_6281)">
<path d="M486.506 50.4868H114.105C111.456 50.4868 109.306 52.6288 109.306 55.2684V281.729C109.306 284.369 111.456 286.511 114.105 286.511H486.506C489.156 286.511 491.306 284.369 491.306 281.729V55.2684C491.306 52.6288 489.156 50.4868 486.506 50.4868Z" fill="#EFF3F6"/>
</g>
<path d="M296.107 180.11H176.669C176.237 180.11 175.881 180.456 175.881 180.895V189.64C175.881 190.07 176.228 190.424 176.669 190.424H296.107C296.539 190.424 296.894 190.078 296.894 189.64V180.895C296.894 180.465 296.547 180.11 296.107 180.11Z" fill="#E6EBF1"/>
<path d="M183.271 173.473H176.448C176.135 173.473 175.881 173.726 175.881 174.038V176.501C175.881 176.813 176.135 177.066 176.448 177.066H183.271C183.584 177.066 183.838 176.813 183.838 176.501V174.038C183.838 173.726 183.584 173.473 183.271 173.473Z" fill="#CDD8E4"/>
<path d="M296.107 156.38H176.669C176.237 156.38 175.881 156.726 175.881 157.164V165.909C175.881 166.339 176.228 166.693 176.669 166.693H296.107C296.539 166.693 296.894 166.348 296.894 165.909V157.164C296.894 156.734 296.547 156.38 296.107 156.38Z" fill="#E6EBF1"/>
<path d="M205.889 159.736H179.936C179.623 159.736 179.369 159.989 179.369 160.301V162.764C179.369 163.076 179.623 163.329 179.936 163.329H205.889C206.203 163.329 206.457 163.076 206.457 162.764V160.301C206.457 159.989 206.203 159.736 205.889 159.736Z" fill="#E6EBF1"/>
<path d="M206.38 159.736H180.427C180.114 159.736 179.86 159.989 179.86 160.301V162.764C179.86 163.076 180.114 163.329 180.427 163.329H206.38C206.693 163.329 206.947 163.076 206.947 162.764V160.301C206.947 159.989 206.693 159.736 206.38 159.736Z" fill="#CDD8E4"/>
<path d="M194.089 149.734H176.457C176.144 149.734 175.89 149.987 175.89 150.299V152.762C175.89 153.074 176.144 153.327 176.457 153.327H194.089C194.402 153.327 194.656 153.074 194.656 152.762V150.299C194.656 149.987 194.402 149.734 194.089 149.734Z" fill="#CDD8E4"/>
<path d="M206.947 149.734H199.312C198.999 149.734 198.745 149.987 198.745 150.299V152.762C198.745 153.074 198.999 153.327 199.312 153.327H206.947C207.26 153.327 207.514 153.074 207.514 152.762V150.299C207.514 149.987 207.26 149.734 206.947 149.734Z" fill="#CDD8E4"/>
<path d="M423.943 156.38H304.504C304.072 156.38 303.717 156.726 303.717 157.164V165.909C303.717 166.339 304.064 166.693 304.504 166.693H423.943C424.374 166.693 424.73 166.348 424.73 165.909V157.164C424.73 156.734 424.374 156.38 423.943 156.38Z" fill="#E6EBF1"/>
<path d="M333.733 159.736H307.78C307.467 159.736 307.213 159.989 307.213 160.301V162.764C307.213 163.076 307.467 163.329 307.78 163.329H333.733C334.046 163.329 334.3 163.076 334.3 162.764V160.301C334.3 159.989 334.046 159.736 333.733 159.736Z" fill="#CDD8E4"/>
<path d="M423.943 180.11H304.504C304.072 180.11 303.717 180.456 303.717 180.895V189.64C303.717 190.07 304.064 190.424 304.504 190.424H423.943C424.374 190.424 424.73 190.078 424.73 189.64V180.895C424.73 180.465 424.374 180.11 423.943 180.11Z" fill="#E6EBF1"/>
<path d="M316.879 173.473H304.292C303.979 173.473 303.725 173.726 303.725 174.038V176.501C303.725 176.813 303.979 177.066 304.292 177.066H316.879C317.193 177.066 317.447 176.813 317.447 176.501V174.038C317.447 173.726 317.193 173.473 316.879 173.473Z" fill="#CDD8E4"/>
<path d="M327.537 173.473H321.146C320.833 173.473 320.579 173.726 320.579 174.038V176.501C320.579 176.813 320.833 177.066 321.146 177.066H327.537C327.85 177.066 328.104 176.813 328.104 176.501V174.038C328.104 173.726 327.85 173.473 327.537 173.473Z" fill="#CDD8E4"/>
<path d="M321.417 149.734H304.292C303.979 149.734 303.725 149.987 303.725 150.299V152.762C303.725 153.074 303.979 153.327 304.292 153.327H321.417C321.73 153.327 321.984 153.074 321.984 152.762V150.299C321.984 149.987 321.73 149.734 321.417 149.734Z" fill="#CDD8E4"/>
<path d="M423.943 114.24H176.669C176.237 114.24 175.881 114.586 175.881 115.024V137.566C175.881 137.996 176.228 138.35 176.669 138.35H423.951C424.383 138.35 424.738 138.004 424.738 137.566V115.024C424.738 114.594 424.374 114.24 423.943 114.24Z" fill="#E6EBF1"/>
<path d="M188.113 120.143H222.429C222.743 120.143 222.997 120.396 222.997 120.708V123.171C222.997 123.483 222.743 123.736 222.429 123.736H188.113C187.8 123.736 187.546 123.483 187.546 123.171V120.708C187.546 120.396 187.8 120.143 188.113 120.143Z" fill="#CDD8E4"/>
<path d="M236.286 120.143H228.211C227.897 120.143 227.644 120.396 227.644 120.708V123.171C227.644 123.483 227.897 123.736 228.211 123.736H236.286C236.599 123.736 236.853 123.483 236.853 123.171V120.708C236.853 120.396 236.599 120.143 236.286 120.143Z" fill="#CDD8E4"/>
<path d="M260.123 120.143H242.068C241.754 120.143 241.5 120.396 241.5 120.708V123.171C241.5 123.483 241.754 123.736 242.068 123.736H260.123C260.436 123.736 260.69 123.483 260.69 123.171V120.708C260.69 120.396 260.436 120.143 260.123 120.143Z" fill="#CDD8E4"/>
<path d="M304.733 120.143H265.905C265.591 120.143 265.337 120.396 265.337 120.708V123.171C265.337 123.483 265.591 123.736 265.905 123.736H304.733C305.046 123.736 305.3 123.483 305.3 123.171V120.708C305.3 120.396 305.046 120.143 304.733 120.143Z" fill="#CDD8E4"/>
<path d="M314.019 120.143H310.514C310.201 120.143 309.947 120.396 309.947 120.708V123.171C309.947 123.483 310.201 123.736 310.514 123.736H314.019C314.332 123.736 314.586 123.483 314.586 123.171V120.708C314.586 120.396 314.332 120.143 314.019 120.143Z" fill="#CDD8E4"/>
<path d="M339.828 120.143H319.8C319.487 120.143 319.233 120.396 319.233 120.708V123.171C319.233 123.483 319.487 123.736 319.8 123.736H339.828C340.141 123.736 340.395 123.483 340.395 123.171V120.708C340.395 120.396 340.141 120.143 339.828 120.143Z" fill="#CDD8E4"/>
<path d="M356.681 120.143H345.601C345.288 120.143 345.034 120.396 345.034 120.708V123.171C345.034 123.483 345.288 123.736 345.601 123.736H356.681C356.994 123.736 357.248 123.483 357.248 123.171V120.708C357.248 120.396 356.994 120.143 356.681 120.143Z" fill="#CDD8E4"/>
<path d="M365.696 120.143H362.463C362.149 120.143 361.896 120.396 361.896 120.708V123.171C361.896 123.483 362.149 123.736 362.463 123.736H365.696C366.009 123.736 366.263 123.483 366.263 123.171V120.708C366.263 120.396 366.009 120.143 365.696 120.143Z" fill="#CDD8E4"/>
<path d="M407.944 120.143H371.554C371.19 120.143 370.902 120.396 370.902 120.708V123.171C370.902 123.483 371.199 123.736 371.554 123.736H407.944C408.308 123.736 408.596 123.483 408.596 123.171V120.708C408.596 120.396 408.3 120.143 407.944 120.143Z" fill="#CDD8E4"/>
<path d="M408.037 128.837H394.739C394.426 128.837 394.172 129.09 394.172 129.402V131.865C394.172 132.177 394.426 132.43 394.739 132.43H408.037C408.35 132.43 408.604 132.177 408.604 131.865V129.402C408.604 129.09 408.35 128.837 408.037 128.837Z" fill="#CDD8E4"/>
<path d="M370.157 128.837H388.772C389.085 128.837 389.339 129.09 389.339 129.402V131.865C389.339 132.177 389.085 132.43 388.772 132.43H370.157C369.844 132.43 369.59 132.177 369.59 131.865V129.402C369.59 129.09 369.844 128.837 370.157 128.837Z" fill="#CDD8E4"/>
<path d="M364.207 128.837H357.469C357.155 128.837 356.901 129.09 356.901 129.402V131.865C356.901 132.177 357.155 132.43 357.469 132.43H364.207C364.52 132.43 364.774 132.177 364.774 131.865V129.402C364.774 129.09 364.52 128.837 364.207 128.837Z" fill="#CDD8E4"/>
<path d="M330.017 128.837H351.518C351.831 128.837 352.085 129.09 352.085 129.402V131.865C352.085 132.177 351.831 132.43 351.518 132.43H330.017C329.704 132.43 329.45 132.177 329.45 131.865V129.402C329.45 129.09 329.704 128.837 330.017 128.837Z" fill="#CDD8E4"/>
<path d="M324.058 128.837H303.7C303.387 128.837 303.133 129.09 303.133 129.402V131.865C303.133 132.177 303.387 132.43 303.7 132.43H324.058C324.371 132.43 324.625 132.177 324.625 131.865V129.402C324.625 129.09 324.371 128.837 324.058 128.837Z" fill="#CDD8E4"/>
<path d="M297.75 128.837H277.722C277.409 128.837 277.155 129.09 277.155 129.402V131.865C277.155 132.177 277.409 132.43 277.722 132.43H297.75C298.063 132.43 298.317 132.177 298.317 131.865V129.402C298.317 129.09 298.063 128.837 297.75 128.837Z" fill="#CDD8E4"/>
<path d="M251.523 128.837H271.771C272.084 128.837 272.338 129.09 272.338 129.402V131.865C272.338 132.177 272.084 132.43 271.771 132.43H251.523C251.21 132.43 250.956 132.177 250.956 131.865V129.402C250.956 129.09 251.21 128.837 251.523 128.837Z" fill="#CDD8E4"/>
<path d="M245.563 128.837H213.905C213.592 128.837 213.338 129.09 213.338 129.402V131.865C213.338 132.177 213.592 132.43 213.905 132.43H245.563C245.877 132.43 246.131 132.177 246.131 131.865V129.402C246.131 129.09 245.877 128.837 245.563 128.837Z" fill="#CDD8E4"/>
<path d="M207.955 128.837H188.138C187.825 128.837 187.571 129.09 187.571 129.402V131.865C187.571 132.177 187.825 132.43 188.138 132.43H207.955C208.268 132.43 208.522 132.177 208.522 131.865V129.402C208.522 129.09 208.268 128.837 207.955 128.837Z" fill="#CDD8E4"/>
<path d="M178.268 80.7104C178.065 80.7104 177.904 80.8707 177.904 81.0731C177.904 81.2755 178.065 81.4357 178.268 81.4357H228.617C228.6 81.1911 228.592 80.955 228.592 80.7104H178.26H178.268Z" fill="#D9DADC"/>
<path d="M241.212 81.4357H291.764C291.79 81.1911 291.807 80.955 291.815 80.7104H241.246C241.246 80.955 241.238 81.1911 241.212 81.4357Z" fill="#D9DADC"/>
<path d="M304.402 80.7104C304.402 80.9213 304.368 81.1321 304.326 81.3261C304.326 81.3598 304.309 81.3935 304.301 81.4357H354.81C354.802 81.1911 354.793 80.955 354.793 80.7104H304.394H304.402Z" fill="#D9DADC"/>
<path d="M418.035 80.7104H367.356C367.356 80.955 367.356 81.1911 367.339 81.4357H418.035C418.238 81.4357 418.399 81.2755 418.399 81.0731C418.399 80.8707 418.238 80.7104 418.035 80.7104Z" fill="#D9DADC"/>
<path d="M203.468 80.7104H178.04V81.4357H203.468V80.7104Z" fill="#466181"/>
<path d="M171.92 87.7258C168.238 87.7258 165.241 84.7405 165.241 81.0721C165.241 77.4038 168.238 74.4185 171.92 74.4185C175.602 74.4185 178.599 77.4038 178.599 81.0721C178.599 84.7405 175.602 87.7258 171.92 87.7258ZM171.92 75.3208C168.746 75.3208 166.155 77.9013 166.155 81.0637C166.155 84.2261 168.746 86.8066 171.92 86.8066C175.094 86.8066 177.684 84.2261 177.684 81.0637C177.684 77.9013 175.094 75.3208 171.92 75.3208Z" fill="#466181"/>
<path d="M171.92 83.813C173.444 83.813 174.671 82.5818 174.671 81.0723C174.671 79.5628 173.435 78.3315 171.92 78.3315C170.405 78.3315 169.169 79.5628 169.169 81.0723C169.169 82.5818 170.405 83.813 171.92 83.813Z" fill="#466181"/>
<path d="M234.949 87.7258C231.267 87.7258 228.27 84.7405 228.27 81.0721C228.27 77.4038 231.267 74.4185 234.949 74.4185C238.631 74.4185 241.627 77.4038 241.627 81.0721C241.627 84.7405 238.631 87.7258 234.949 87.7258ZM234.949 75.3208C231.774 75.3208 229.184 77.9013 229.184 81.0637C229.184 84.2261 231.774 86.8066 234.949 86.8066C238.123 86.8066 240.713 84.2261 240.713 81.0637C240.713 77.9013 238.123 75.3208 234.949 75.3208Z" fill="#D9DADC"/>
<path d="M298.071 87.7258C294.389 87.7258 291.392 84.7405 291.392 81.0721C291.392 77.4038 294.389 74.4185 298.071 74.4185C301.753 74.4185 304.75 77.4038 304.75 81.0721C304.75 84.7405 301.753 87.7258 298.071 87.7258ZM298.071 75.3208C294.897 75.3208 292.306 77.9013 292.306 81.0637C292.306 84.2261 294.897 86.8066 298.071 86.8066C301.245 86.8066 303.835 84.2261 303.835 81.0637C303.835 77.9013 301.245 75.3208 298.071 75.3208Z" fill="#D9DADC"/>
<path d="M361.193 87.7258C357.511 87.7258 354.514 84.7405 354.514 81.0721C354.514 77.4038 357.511 74.4185 361.193 74.4185C364.875 74.4185 367.872 77.4038 367.872 81.0721C367.872 84.7405 364.875 87.7258 361.193 87.7258ZM361.193 75.3208C358.019 75.3208 355.428 77.9013 355.428 81.0637C355.428 84.2261 358.019 86.8066 361.193 86.8066C364.367 86.8066 366.957 84.2261 366.957 81.0637C366.957 77.9013 364.367 75.3208 361.193 75.3208Z" fill="#D9DADC"/>
<path d="M424.231 87.7258C420.548 87.7258 417.552 84.7405 417.552 81.0721C417.552 77.4038 420.548 74.4185 424.231 74.4185C427.913 74.4185 430.909 77.4038 430.909 81.0721C430.909 84.7405 427.913 87.7258 424.231 87.7258ZM424.231 75.3208C421.056 75.3208 418.466 77.9013 418.466 81.0637C418.466 84.2261 421.056 86.8066 424.231 86.8066C427.405 86.8066 429.995 84.2261 429.995 81.0637C429.995 77.9013 427.405 75.3208 424.231 75.3208Z" fill="#D9DADC"/>
<path d="M183.059 94.228H161.322C161.008 94.228 160.754 94.481 160.754 94.793V98.6722C160.754 98.9843 161.008 99.2373 161.322 99.2373H183.059C183.372 99.2373 183.626 98.9843 183.626 98.6722V94.793C183.626 94.481 183.372 94.228 183.059 94.228Z" fill="#3C5470"/>
<path d="M212.644 94.228H257.88C258.193 94.228 258.447 94.481 258.447 94.793V98.6807C258.447 98.9927 258.193 99.2457 257.88 99.2457H212.644C212.331 99.2457 212.077 98.9927 212.077 98.6807V94.793C212.077 94.481 212.331 94.228 212.644 94.228Z" fill="#D9DADC"/>
<path d="M284.459 94.228H311.818C312.131 94.228 312.385 94.481 312.385 94.793V98.6807C312.385 98.9927 312.131 99.2457 311.818 99.2457H284.459C284.146 99.2457 283.892 98.9927 283.892 98.6807V94.793C283.892 94.481 284.146 94.228 284.459 94.228Z" fill="#D9DADC"/>
<path d="M374.982 94.228H347.624C347.311 94.228 347.057 94.481 347.057 94.793V98.6722C347.057 98.9843 347.311 99.2373 347.624 99.2373H374.982C375.295 99.2373 375.549 98.9843 375.549 98.6722V94.793C375.549 94.481 375.295 94.228 374.982 94.228Z" fill="#D9DADC"/>
<path d="M409.714 94.228H439.281C439.594 94.228 439.848 94.481 439.848 94.793V98.6807C439.848 98.9927 439.594 99.2457 439.281 99.2457H409.714C409.4 99.2457 409.146 98.9927 409.146 98.6807V94.793C409.146 94.481 409.4 94.228 409.714 94.228Z" fill="#D9DADC"/>
<path d="M316.397 35.585H284.205C284.002 35.585 283.841 35.7452 283.841 35.9476C283.841 36.15 284.002 36.3102 284.205 36.3102H316.397C316.6 36.3102 316.761 36.15 316.761 35.9476C316.761 35.7452 316.6 35.585 316.397 35.585Z" fill="#466181"/>
<rect x="284.087" y="24.5107" width="32.4455" height="8.53835" rx="0.5" fill="#3C5470"/>
</g>
<defs>
<filter id="filter0_d_46_6281" x="107.306" y="49.4868" width="386" height="240.024" filterUnits="userSpaceOnUse" color-interpolation-filters="sRGB">
<feFlood flood-opacity="0" result="BackgroundImageFix"/>
<feColorMatrix in="SourceAlpha" type="matrix" values="0 0 0 0 0 0 0 0 0 0 0 0 0 0 0 0 0 0 127 0" result="hardAlpha"/>
<feOffset dy="1"/>
<feGaussianBlur stdDeviation="1"/>
<feComposite in2="hardAlpha" operator="out"/>
<feColorMatrix type="matrix" values="0 0 0 0 0 0 0 0 0 0 0 0 0 0 0 0 0 0 0.05 0"/>
<feBlend mode="normal" in2="BackgroundImageFix" result="effect1_dropShadow_46_6281"/>
<feBlend mode="normal" in="SourceGraphic" in2="effect1_dropShadow_46_6281" result="shape"/>
</filter>
<clipPath id="clip0_46_6281">
<rect width="600" height="180" fill="white" transform="translate(0.305664 0.510742)"/>
</clipPath>
</defs>
</svg>
