<svg width="601" height="181" viewBox="0 0 601 181" fill="none" xmlns="http://www.w3.org/2000/svg">
<g clip-path="url(#clip0_46_6073)">
<rect width="600" height="180" transform="translate(0.305664 0.510742)" fill="white"/>
<g opacity="0.7" filter="url(#filter0_d_46_6073)">
<path d="M390.863 24.5107H123.748C121.848 24.5107 120.306 26.0283 120.306 27.8983V102.123C120.306 103.993 121.848 105.511 123.748 105.511H390.863C392.763 105.511 394.306 103.993 394.306 102.123V27.8983C394.306 26.0283 392.763 24.5107 390.863 24.5107Z" fill="#E6EBF1"/>
<rect x="120.306" y="32.8662" width="274" height="64.3093" fill="#EFF3F6"/>
<path d="M168.465 49.9468H193.08C193.304 49.9468 193.487 50.126 193.487 50.3471V52.0917C193.487 52.3127 193.304 52.492 193.08 52.492H168.465C168.241 52.492 168.059 52.3127 168.059 52.0917V50.3471C168.059 50.126 168.241 49.9468 168.465 49.9468Z" fill="#CDD8E4"/>
<path d="M203.019 49.9468H197.227C197.002 49.9468 196.82 50.126 196.82 50.3471V52.0917C196.82 52.3127 197.002 52.492 197.227 52.492H203.019C203.244 52.492 203.426 52.3127 203.426 52.0917V50.3471C203.426 50.126 203.244 49.9468 203.019 49.9468Z" fill="#CDD8E4"/>
<path d="M220.117 49.9468H207.166C206.941 49.9468 206.759 50.126 206.759 50.3471V52.0917C206.759 52.3127 206.941 52.492 207.166 52.492H220.117C220.341 52.492 220.524 52.3127 220.524 52.0917V50.3471C220.524 50.126 220.341 49.9468 220.117 49.9468Z" fill="#CDD8E4"/>
<path d="M252.114 49.9468H224.264C224.039 49.9468 223.857 50.126 223.857 50.3471V52.0917C223.857 52.3127 224.039 52.492 224.264 52.492H252.114C252.339 52.492 252.521 52.3127 252.521 52.0917V50.3471C252.521 50.126 252.339 49.9468 252.114 49.9468Z" fill="#CDD8E4"/>
<path d="M258.775 49.9468H256.262C256.037 49.9468 255.855 50.126 255.855 50.3471V52.0917C255.855 52.3127 256.037 52.492 256.262 52.492H258.775C259 52.492 259.182 52.3127 259.182 52.0917V50.3471C259.182 50.126 259 49.9468 258.775 49.9468Z" fill="#CDD8E4"/>
<path d="M277.288 49.9468H262.922C262.698 49.9468 262.516 50.126 262.516 50.3471V52.0917C262.516 52.3127 262.698 52.492 262.922 52.492H277.288C277.513 52.492 277.695 52.3127 277.695 52.0917V50.3471C277.695 50.126 277.513 49.9468 277.288 49.9468Z" fill="#CDD8E4"/>
<path d="M168.465 72.8711H193.08C193.304 72.8711 193.487 73.0503 193.487 73.2714V75.016C193.487 75.237 193.304 75.4163 193.08 75.4163H168.465C168.241 75.4163 168.059 75.237 168.059 75.016V73.2714C168.059 73.0503 168.241 72.8711 168.465 72.8711Z" fill="#CDD8E4"/>
<path d="M203.019 72.8711H197.227C197.002 72.8711 196.82 73.0503 196.82 73.2714V75.016C196.82 75.237 197.002 75.4163 197.227 75.4163H203.019C203.244 75.4163 203.426 75.237 203.426 75.016V73.2714C203.426 73.0503 203.244 72.8711 203.019 72.8711Z" fill="#CDD8E4"/>
<path d="M220.117 72.8711H207.166C206.941 72.8711 206.759 73.0503 206.759 73.2714V75.016C206.759 75.237 206.941 75.4163 207.166 75.4163H220.117C220.341 75.4163 220.524 75.237 220.524 75.016V73.2714C220.524 73.0503 220.341 72.8711 220.117 72.8711Z" fill="#CDD8E4"/>
<path d="M252.114 72.8711H224.264C224.039 72.8711 223.857 73.0503 223.857 73.2714V75.016C223.857 75.237 224.039 75.4163 224.264 75.4163H252.114C252.339 75.4163 252.521 75.237 252.521 75.016V73.2714C252.521 73.0503 252.339 72.8711 252.114 72.8711Z" fill="#CDD8E4"/>
<path d="M258.775 72.8711H256.262C256.037 72.8711 255.855 73.0503 255.855 73.2714V75.016C255.855 75.237 256.037 75.4163 256.262 75.4163H258.775C259 75.4163 259.182 75.237 259.182 75.016V73.2714C259.182 73.0503 259 72.8711 258.775 72.8711Z" fill="#CDD8E4"/>
<path d="M277.288 72.8711H262.922C262.698 72.8711 262.516 73.0503 262.516 73.2714V75.016C262.516 75.237 262.698 75.4163 262.922 75.4163H277.288C277.513 75.4163 277.695 75.237 277.695 75.016V73.2714C277.695 73.0503 277.513 72.8711 277.288 72.8711Z" fill="#CDD8E4"/>
<path d="M289.376 72.8711H281.428C281.204 72.8711 281.021 73.0503 281.021 73.2714V75.016C281.021 75.237 281.204 75.4163 281.428 75.4163H289.376C289.601 75.4163 289.783 75.237 289.783 75.016V73.2714C289.783 73.0503 289.601 72.8711 289.376 72.8711Z" fill="#CDD8E4"/>
<path d="M346.18 56.0728H321.565C321.341 56.0728 321.158 56.252 321.158 56.4731V58.2176C321.158 58.4387 321.341 58.6179 321.565 58.6179H346.18C346.404 58.6179 346.586 58.4387 346.586 58.2176V56.4731C346.586 56.252 346.404 56.0728 346.18 56.0728Z" fill="#CDD8E4"/>
<path d="M311.626 56.0728H317.418C317.643 56.0728 317.825 56.252 317.825 56.4731V58.2176C317.825 58.4387 317.643 58.6179 317.418 58.6179H311.626C311.401 58.6179 311.219 58.4387 311.219 58.2176V56.4731C311.219 56.252 311.401 56.0728 311.626 56.0728Z" fill="#CDD8E4"/>
<path d="M294.528 56.0728H307.479C307.704 56.0728 307.886 56.252 307.886 56.4731V58.2176C307.886 58.4387 307.704 58.6179 307.479 58.6179H294.528C294.304 58.6179 294.121 58.4387 294.121 58.2176V56.4731C294.121 56.252 294.304 56.0728 294.528 56.0728Z" fill="#CDD8E4"/>
<path d="M262.531 56.0728H290.382C290.606 56.0728 290.789 56.252 290.789 56.4731V58.2176C290.789 58.4387 290.606 58.6179 290.382 58.6179H262.531C262.307 58.6179 262.124 58.4387 262.124 58.2176V56.4731C262.124 56.252 262.307 56.0728 262.531 56.0728Z" fill="#CDD8E4"/>
<path d="M255.87 56.0728H258.384C258.608 56.0728 258.791 56.252 258.791 56.4731V58.2176C258.791 58.4387 258.608 58.6179 258.384 58.6179H255.87C255.645 58.6179 255.463 58.4387 255.463 58.2176V56.4731C255.463 56.252 255.645 56.0728 255.87 56.0728Z" fill="#CDD8E4"/>
<path d="M237.358 56.0728H251.723C251.948 56.0728 252.13 56.252 252.13 56.4731V58.2176C252.13 58.4387 251.948 58.6179 251.723 58.6179H237.358C237.133 58.6179 236.951 58.4387 236.951 58.2176V56.4731C236.951 56.252 237.133 56.0728 237.358 56.0728Z" fill="#CDD8E4"/>
<path d="M225.269 56.0728H233.217C233.442 56.0728 233.624 56.252 233.624 56.4731V58.2176C233.624 58.4387 233.442 58.6179 233.217 58.6179H225.269C225.045 58.6179 224.863 58.4387 224.863 58.2176V56.4731C224.863 56.252 225.045 56.0728 225.269 56.0728Z" fill="#CDD8E4"/>
<path d="M218.803 56.0728H221.122C221.347 56.0728 221.529 56.252 221.529 56.4731V58.2176C221.529 58.4387 221.347 58.6179 221.122 58.6179H218.803C218.578 58.6179 218.396 58.4387 218.396 58.2176V56.4731C218.396 56.252 218.578 56.0728 218.803 56.0728Z" fill="#CDD8E4"/>
<path d="M197.111 56.0728H214.823C215.048 56.0728 215.23 56.252 215.23 56.4731V58.2176C215.23 58.4387 215.048 58.6179 214.823 58.6179H197.111C196.886 58.6179 196.704 58.4387 196.704 58.2176V56.4731C196.704 56.252 196.886 56.0728 197.111 56.0728Z" fill="#CDD8E4"/>
<path d="M168.466 56.0728H192.486C192.711 56.0728 192.893 56.252 192.893 56.4731V58.2176C192.893 58.4387 192.711 58.6179 192.486 58.6179H168.466C168.241 58.6179 168.059 58.4387 168.059 58.2176V56.4731C168.059 56.252 168.241 56.0728 168.466 56.0728Z" fill="#CDD8E4"/>
<path d="M218.803 67.2715H221.122C221.347 67.2715 221.529 67.4507 221.529 67.6718V69.4164C221.529 69.6374 221.347 69.8167 221.122 69.8167H218.803C218.578 69.8167 218.396 69.6374 218.396 69.4164V67.6718C218.396 67.4507 218.578 67.2715 218.803 67.2715Z" fill="#CDD8E4"/>
<path d="M197.111 67.2715H214.823C215.048 67.2715 215.23 67.4507 215.23 67.6718V69.4164C215.23 69.6374 215.048 69.8167 214.823 69.8167H197.111C196.886 69.8167 196.704 69.6374 196.704 69.4164V67.6718C196.704 67.4507 196.886 67.2715 197.111 67.2715Z" fill="#CDD8E4"/>
<path d="M168.466 67.2715H192.486C192.711 67.2715 192.893 67.4507 192.893 67.6718V69.4164C192.893 69.6374 192.711 69.8167 192.486 69.8167H168.466C168.241 69.8167 168.059 69.6374 168.059 69.4164V67.6718C168.059 67.4507 168.241 67.2715 168.466 67.2715Z" fill="#CDD8E4"/>
<path d="M346.18 61.6719H342.09C341.865 61.6719 341.683 61.8511 341.683 62.0722V63.8168C341.683 64.0378 341.865 64.2171 342.09 64.2171H346.18C346.404 64.2171 346.586 64.0378 346.586 63.8168V62.0722C346.586 61.8511 346.404 61.6719 346.18 61.6719Z" fill="#CDD8E4"/>
<path d="M318.601 61.6719H337.734C337.958 61.6719 338.141 61.8511 338.141 62.0722V63.8168C338.141 64.0378 337.958 64.2171 337.734 64.2171H318.601C318.376 64.2171 318.194 64.0378 318.194 63.8168V62.0722C318.194 61.8511 318.376 61.6719 318.601 61.6719Z" fill="#CDD8E4"/>
<path d="M301.294 61.6719H314.245C314.469 61.6719 314.651 61.8511 314.651 62.0722V63.8168C314.651 64.0378 314.469 64.2171 314.245 64.2171H301.294C301.069 64.2171 300.887 64.0378 300.887 63.8168V62.0722C300.887 61.8511 301.069 61.6719 301.294 61.6719Z" fill="#CDD8E4"/>
<path d="M262.531 61.6719H297.565C297.79 61.6719 297.972 61.8511 297.972 62.0722V63.8168C297.972 64.0378 297.79 64.2171 297.565 64.2171H262.531C262.307 64.2171 262.125 64.0378 262.125 63.8168V62.0722C262.125 61.8511 262.307 61.6719 262.531 61.6719Z" fill="#CDD8E4"/>
<path d="M244.41 61.6719H258.775C259 61.6719 259.182 61.8511 259.182 62.0722V63.8168C259.182 64.0378 259 64.2171 258.775 64.2171H244.41C244.185 64.2171 244.003 64.0378 244.003 63.8168V62.0722C244.003 61.8511 244.185 61.6719 244.41 61.6719Z" fill="#CDD8E4"/>
<path d="M236.838 61.6719H240.681C240.905 61.6719 241.087 61.8511 241.087 62.0722V63.8168C241.087 64.0378 240.905 64.2171 240.681 64.2171H236.838C236.613 64.2171 236.431 64.0378 236.431 63.8168V62.0722C236.431 61.8511 236.613 61.6719 236.838 61.6719Z" fill="#CDD8E4"/>
<path d="M220.527 61.6719H233.109C233.333 61.6719 233.516 61.8511 233.516 62.0722V63.8168C233.516 64.0378 233.333 64.2171 233.109 64.2171H220.527C220.303 64.2171 220.12 64.0378 220.12 63.8168V62.0722C220.12 61.8511 220.303 61.6719 220.527 61.6719Z" fill="#CDD8E4"/>
<path d="M209.348 61.6719H216.799C217.023 61.6719 217.206 61.8511 217.206 62.0722V63.8168C217.206 64.0378 217.023 64.2171 216.799 64.2171L209.348 64.2171C209.124 64.2171 208.942 64.0378 208.942 63.8168V62.0722C208.942 61.8511 209.124 61.6719 209.348 61.6719Z" fill="#CDD8E4"/>
<path d="M168.466 61.6719H205.827C206.052 61.6719 206.234 61.8511 206.234 62.0722V63.8168C206.234 64.0378 206.052 64.2171 205.827 64.2171H168.466C168.241 64.2171 168.059 64.0378 168.059 63.8168V62.0722C168.059 61.8511 168.241 61.6719 168.466 61.6719Z" fill="#CDD8E4"/>
<path d="M208.338 81.812H168.623C168.314 81.812 168.059 82.057 168.059 82.3676L168.059 88.7258C168.059 89.0305 168.308 89.2814 168.623 89.2814H208.338C208.648 89.2814 208.903 89.0364 208.903 88.7258L208.902 82.3676C208.902 82.0629 208.647 81.812 208.338 81.812Z" fill="#466181"/>
<rect x="176.466" y="84.6826" width="24.0297" height="1.72835" rx="0.5" fill="#B3C3D6"/>
<path d="M265.101 40.6626H249.509C249.285 40.6626 249.103 40.8418 249.103 41.0629V43.8112C249.103 44.0323 249.285 44.2115 249.509 44.2115H265.101C265.326 44.2115 265.508 44.0323 265.508 43.8112V41.0629C265.508 40.8418 265.326 40.6626 265.101 40.6626Z" fill="#3C5470"/>
</g>
<g filter="url(#filter1_d_46_6073)">
<path d="M294.863 81.5107H27.7483C25.8479 81.5107 24.3057 83.0375 24.3057 84.9188V185.103C24.3057 186.984 25.8479 188.511 27.7483 188.511H294.863C296.763 188.511 298.306 186.984 298.306 185.103V84.9188C298.306 83.0375 296.763 81.5107 294.863 81.5107Z" fill="#EFF3F6"/>
<rect x="24.3057" y="89.9165" width="274" height="90.4268" fill="#E6EBF1"/>
<path d="M72.4654 107.101H97.0797C97.3044 107.101 97.4865 107.281 97.4865 107.503V109.258C97.4865 109.481 97.3044 109.661 97.0797 109.661H72.4654C72.2407 109.661 72.0586 109.481 72.0586 109.258V107.503C72.0586 107.281 72.2407 107.101 72.4654 107.101Z" fill="#CDD8E4"/>
<path d="M107.019 107.101H101.227C101.002 107.101 100.82 107.281 100.82 107.503V109.258C100.82 109.481 101.002 109.661 101.227 109.661H107.019C107.244 109.661 107.426 109.481 107.426 109.258V107.503C107.426 107.281 107.244 107.101 107.019 107.101Z" fill="#CDD8E4"/>
<path d="M124.117 107.101H111.166C110.941 107.101 110.759 107.281 110.759 107.503V109.258C110.759 109.481 110.941 109.661 111.166 109.661H124.117C124.341 109.661 124.524 109.481 124.524 109.258V107.503C124.524 107.281 124.341 107.101 124.117 107.101Z" fill="#CDD8E4"/>
<path d="M156.114 107.101H128.264C128.039 107.101 127.857 107.281 127.857 107.503V109.258C127.857 109.481 128.039 109.661 128.264 109.661H156.114C156.339 109.661 156.521 109.481 156.521 109.258V107.503C156.521 107.281 156.339 107.101 156.114 107.101Z" fill="#CDD8E4"/>
<path d="M162.775 107.101H160.262C160.037 107.101 159.855 107.281 159.855 107.503V109.258C159.855 109.481 160.037 109.661 160.262 109.661H162.775C163 109.661 163.182 109.481 163.182 109.258V107.503C163.182 107.281 163 107.101 162.775 107.101Z" fill="#CDD8E4"/>
<path d="M181.288 107.101H166.922C166.698 107.101 166.516 107.281 166.516 107.503V109.258C166.516 109.481 166.698 109.661 166.922 109.661H181.288C181.513 109.661 181.695 109.481 181.695 109.258V107.503C181.695 107.281 181.513 107.101 181.288 107.101Z" fill="#CDD8E4"/>
<path d="M72.4654 130.163H97.0797C97.3044 130.163 97.4865 130.343 97.4865 130.566V132.321C97.4865 132.543 97.3044 132.724 97.0797 132.724H72.4654C72.2407 132.724 72.0586 132.543 72.0586 132.321V130.566C72.0586 130.343 72.2407 130.163 72.4654 130.163Z" fill="#CDD8E4"/>
<path d="M107.019 130.163H101.227C101.002 130.163 100.82 130.343 100.82 130.566V132.321C100.82 132.543 101.002 132.724 101.227 132.724H107.019C107.244 132.724 107.426 132.543 107.426 132.321V130.566C107.426 130.343 107.244 130.163 107.019 130.163Z" fill="#CDD8E4"/>
<path d="M124.117 130.163H111.166C110.941 130.163 110.759 130.343 110.759 130.566V132.321C110.759 132.543 110.941 132.724 111.166 132.724H124.117C124.341 132.724 124.524 132.543 124.524 132.321V130.566C124.524 130.343 124.341 130.163 124.117 130.163Z" fill="#CDD8E4"/>
<path d="M156.114 130.163H128.264C128.039 130.163 127.857 130.343 127.857 130.566V132.321C127.857 132.543 128.039 132.724 128.264 132.724H156.114C156.339 132.724 156.521 132.543 156.521 132.321V130.566C156.521 130.343 156.339 130.163 156.114 130.163Z" fill="#CDD8E4"/>
<path d="M152.868 141.43H177.482C177.707 141.43 177.889 141.61 177.889 141.832V143.588C177.889 143.81 177.707 143.99 177.482 143.99H152.868C152.643 143.99 152.461 143.81 152.461 143.588V141.832C152.461 141.61 152.643 141.43 152.868 141.43Z" fill="#CDD8E4"/>
<path d="M187.421 141.43H181.629C181.404 141.43 181.222 141.61 181.222 141.832V143.588C181.222 143.81 181.404 143.99 181.629 143.99H187.421C187.646 143.99 187.828 143.81 187.828 143.588V141.832C187.828 141.61 187.646 141.43 187.421 141.43Z" fill="#CDD8E4"/>
<path d="M204.519 141.43H191.568C191.344 141.43 191.162 141.61 191.162 141.832V143.588C191.162 143.81 191.344 143.99 191.568 143.99H204.519C204.744 143.99 204.926 143.81 204.926 143.588V141.832C204.926 141.61 204.744 141.43 204.519 141.43Z" fill="#CDD8E4"/>
<path d="M236.516 141.43H208.666C208.441 141.43 208.259 141.61 208.259 141.832V143.588C208.259 143.81 208.441 143.99 208.666 143.99H236.516C236.741 143.99 236.923 143.81 236.923 143.588V141.832C236.923 141.61 236.741 141.43 236.516 141.43Z" fill="#CDD8E4"/>
<path d="M162.775 130.163H160.262C160.037 130.163 159.855 130.343 159.855 130.566V132.321C159.855 132.543 160.037 132.724 160.262 132.724H162.775C163 132.724 163.182 132.543 163.182 132.321V130.566C163.182 130.343 163 130.163 162.775 130.163Z" fill="#CDD8E4"/>
<path d="M181.288 130.163H166.922C166.698 130.163 166.516 130.343 166.516 130.566V132.321C166.516 132.543 166.698 132.724 166.922 132.724H181.288C181.513 132.724 181.695 132.543 181.695 132.321V130.566C181.695 130.343 181.513 130.163 181.288 130.163Z" fill="#CDD8E4"/>
<path d="M193.376 130.163H185.428C185.204 130.163 185.021 130.343 185.021 130.566V132.321C185.021 132.543 185.204 132.724 185.428 132.724H193.376C193.601 132.724 193.783 132.543 193.783 132.321V130.566C193.783 130.343 193.601 130.163 193.376 130.163Z" fill="#CDD8E4"/>
<path d="M250.152 130.163H235.021C234.796 130.163 234.614 130.343 234.614 130.566V132.321C234.614 132.543 234.796 132.724 235.021 132.724H250.152C250.376 132.724 250.559 132.543 250.559 132.321V130.566C250.559 130.343 250.376 130.163 250.152 130.163Z" fill="#CDD8E4"/>
<path d="M217.09 130.163H197.854C197.629 130.163 197.447 130.343 197.447 130.566V132.321C197.447 132.543 197.629 132.724 197.854 132.724H217.09C217.314 132.724 217.497 132.543 217.497 132.321V130.566C217.497 130.343 217.314 130.163 217.09 130.163Z" fill="#CDD8E4"/>
<path d="M230.758 130.163H221.784C221.559 130.163 221.377 130.343 221.377 130.566V132.321C221.377 132.543 221.559 132.724 221.784 132.724H230.758C230.982 132.724 231.165 132.543 231.165 132.321V130.566C231.165 130.343 230.982 130.163 230.758 130.163Z" fill="#CDD8E4"/>
<path d="M250.18 113.263H225.565C225.341 113.263 225.158 113.444 225.158 113.666V115.421C225.158 115.643 225.341 115.824 225.565 115.824H250.18C250.404 115.824 250.586 115.643 250.586 115.421V113.666C250.586 113.444 250.404 113.263 250.18 113.263Z" fill="#CDD8E4"/>
<path d="M215.626 113.263H221.418C221.643 113.263 221.825 113.444 221.825 113.666V115.421C221.825 115.643 221.643 115.824 221.418 115.824H215.626C215.401 115.824 215.219 115.643 215.219 115.421V113.666C215.219 113.444 215.401 113.263 215.626 113.263Z" fill="#CDD8E4"/>
<path d="M198.528 113.263H211.479C211.704 113.263 211.886 113.444 211.886 113.666V115.421C211.886 115.643 211.704 115.824 211.479 115.824H198.528C198.304 115.824 198.121 115.643 198.121 115.421V113.666C198.121 113.444 198.304 113.263 198.528 113.263Z" fill="#CDD8E4"/>
<path d="M113.855 147.063H99.5027C99.2781 147.063 99.096 147.243 99.096 147.466V149.221C99.096 149.443 99.2781 149.624 99.5027 149.624H113.855C114.08 149.624 114.262 149.443 114.262 149.221V147.466C114.262 147.243 114.08 147.063 113.855 147.063Z" fill="#CDD8E4"/>
<path d="M89.5636 147.063H95.3559C95.5806 147.063 95.7627 147.243 95.7627 147.466V149.221C95.7627 149.443 95.5806 149.624 95.3559 149.624H89.5636C89.3389 149.624 89.1568 149.443 89.1568 149.221V147.466C89.1568 147.243 89.3389 147.063 89.5636 147.063Z" fill="#CDD8E4"/>
<path d="M72.4657 147.063H85.4165C85.6411 147.063 85.8232 147.243 85.8232 147.466V149.221C85.8232 149.443 85.6411 149.624 85.4165 149.624H72.4657C72.241 149.624 72.0589 149.443 72.0589 149.221V147.466C72.0589 147.243 72.241 147.063 72.4657 147.063Z" fill="#CDD8E4"/>
<path d="M166.531 113.263H194.382C194.606 113.263 194.789 113.444 194.789 113.666V115.421C194.789 115.643 194.606 115.824 194.382 115.824H166.531C166.307 115.824 166.124 115.643 166.124 115.421V113.666C166.124 113.444 166.307 113.263 166.531 113.263Z" fill="#CDD8E4"/>
<path d="M159.87 113.263H162.384C162.608 113.263 162.791 113.444 162.791 113.666V115.421C162.791 115.643 162.608 115.824 162.384 115.824H159.87C159.645 115.824 159.463 115.643 159.463 115.421V113.666C159.463 113.444 159.645 113.263 159.87 113.263Z" fill="#CDD8E4"/>
<path d="M141.358 113.263H155.723C155.948 113.263 156.13 113.444 156.13 113.666V115.421C156.13 115.643 155.948 115.824 155.723 115.824H141.358C141.133 115.824 140.951 115.643 140.951 115.421V113.666C140.951 113.444 141.133 113.263 141.358 113.263Z" fill="#CDD8E4"/>
<path d="M129.269 113.263H137.217C137.442 113.263 137.624 113.444 137.624 113.666V115.421C137.624 115.643 137.442 115.824 137.217 115.824H129.269C129.045 115.824 128.863 115.643 128.863 115.421V113.666C128.863 113.444 129.045 113.263 129.269 113.263Z" fill="#CDD8E4"/>
<path d="M122.803 113.263H125.122C125.347 113.263 125.529 113.444 125.529 113.666V115.421C125.529 115.643 125.347 115.824 125.122 115.824H122.803C122.578 115.824 122.396 115.643 122.396 115.421V113.666C122.396 113.444 122.578 113.263 122.803 113.263Z" fill="#CDD8E4"/>
<path d="M101.111 113.263H118.823C119.048 113.263 119.23 113.444 119.23 113.666V115.421C119.23 115.643 119.048 115.824 118.823 115.824H101.111C100.886 115.824 100.704 115.643 100.704 115.421V113.666C100.704 113.444 100.886 113.263 101.111 113.263Z" fill="#CDD8E4"/>
<path d="M72.4658 113.263H96.4863C96.7109 113.263 96.8931 113.444 96.8931 113.666V115.421C96.8931 115.643 96.7109 115.824 96.4863 115.824H72.4658C72.2412 115.824 72.0591 115.643 72.0591 115.421V113.666C72.0591 113.444 72.2412 113.263 72.4658 113.263Z" fill="#CDD8E4"/>
<path d="M122.803 124.53H125.122C125.347 124.53 125.529 124.71 125.529 124.933V126.688C125.529 126.91 125.347 127.09 125.122 127.09H122.803C122.578 127.09 122.396 126.91 122.396 126.688V124.933C122.396 124.71 122.578 124.53 122.803 124.53Z" fill="#CDD8E4"/>
<path d="M101.111 124.53H118.823C119.048 124.53 119.23 124.71 119.23 124.933V126.688C119.23 126.91 119.048 127.09 118.823 127.09H101.111C100.886 127.09 100.704 126.91 100.704 126.688V124.933C100.704 124.71 100.886 124.53 101.111 124.53Z" fill="#CDD8E4"/>
<path d="M72.4658 124.53H96.4863C96.7109 124.53 96.8931 124.71 96.8931 124.933V126.688C96.8931 126.91 96.7109 127.09 96.4863 127.09H72.4658C72.2412 127.09 72.0591 126.91 72.0591 126.688V124.933C72.0591 124.71 72.2412 124.53 72.4658 124.53Z" fill="#CDD8E4"/>
<path d="M100.226 141.43H102.546C102.77 141.43 102.953 141.61 102.953 141.832V143.588C102.953 143.81 102.77 143.99 102.546 143.99H100.226C100.002 143.99 99.8197 143.81 99.8197 143.588V141.832C99.8197 141.61 100.002 141.43 100.226 141.43Z" fill="#CDD8E4"/>
<path d="M84.6907 141.43H96.246C96.4707 141.43 96.6528 141.61 96.6528 141.832V143.588C96.6528 143.81 96.4707 143.99 96.246 143.99H84.6907C84.4661 143.99 84.2839 143.81 84.2839 143.588V141.832C84.2839 141.61 84.4661 141.43 84.6907 141.43Z" fill="#CDD8E4"/>
<path d="M72.4659 141.43H80.0668C80.2915 141.43 80.4736 141.61 80.4736 141.832V143.588C80.4736 143.81 80.2915 143.99 80.0668 143.99H72.4659C72.2412 143.99 72.0591 143.81 72.0591 143.588V141.832C72.0591 141.61 72.2412 141.43 72.4659 141.43Z" fill="#CDD8E4"/>
<path d="M131.503 141.43H133.823C134.047 141.43 134.229 141.61 134.229 141.832V143.588C134.229 143.81 134.047 143.99 133.823 143.99H131.503C131.279 143.99 131.097 143.81 131.097 143.588V141.832C131.097 141.61 131.279 141.43 131.503 141.43Z" fill="#CDD8E4"/>
<path d="M137.715 141.43H149.27C149.495 141.43 149.677 141.61 149.677 141.832V143.588C149.677 143.81 149.495 143.99 149.27 143.99H137.715C137.49 143.99 137.308 143.81 137.308 143.588V141.832C137.308 141.61 137.49 141.43 137.715 141.43Z" fill="#CDD8E4"/>
<path d="M106.526 141.43H127.468C127.693 141.43 127.875 141.61 127.875 141.832V143.588C127.875 143.81 127.693 143.99 127.468 143.99H106.526C106.302 143.99 106.12 143.81 106.12 143.588V141.832C106.12 141.61 106.302 141.43 106.526 141.43Z" fill="#CDD8E4"/>
<path d="M250.18 118.896H246.09C245.865 118.896 245.683 119.077 245.683 119.299V121.054C245.683 121.277 245.865 121.457 246.09 121.457H250.18C250.404 121.457 250.586 121.277 250.586 121.054V119.299C250.586 119.077 250.404 118.896 250.18 118.896Z" fill="#CDD8E4"/>
<path d="M222.601 118.896H241.734C241.958 118.896 242.141 119.077 242.141 119.299V121.054C242.141 121.277 241.958 121.457 241.734 121.457H222.601C222.376 121.457 222.194 121.277 222.194 121.054V119.299C222.194 119.077 222.376 118.896 222.601 118.896Z" fill="#CDD8E4"/>
<path d="M205.294 118.896H218.245C218.469 118.896 218.651 119.077 218.651 119.299V121.054C218.651 121.277 218.469 121.457 218.245 121.457H205.294C205.069 121.457 204.887 121.277 204.887 121.054V119.299C204.887 119.077 205.069 118.896 205.294 118.896Z" fill="#CDD8E4"/>
<path d="M166.531 118.896H201.565C201.79 118.896 201.972 119.077 201.972 119.299V121.054C201.972 121.277 201.79 121.457 201.565 121.457H166.531C166.307 121.457 166.125 121.277 166.125 121.054V119.299C166.125 119.077 166.307 118.896 166.531 118.896Z" fill="#CDD8E4"/>
<path d="M148.41 118.896H162.775C163 118.896 163.182 119.077 163.182 119.299V121.054C163.182 121.277 163 121.457 162.775 121.457H148.41C148.185 121.457 148.003 121.277 148.003 121.054V119.299C148.003 119.077 148.185 118.896 148.41 118.896Z" fill="#CDD8E4"/>
<path d="M140.838 118.896H144.681C144.905 118.896 145.087 119.077 145.087 119.299V121.054C145.087 121.277 144.905 121.457 144.681 121.457H140.838C140.613 121.457 140.431 121.277 140.431 121.054V119.299C140.431 119.077 140.613 118.896 140.838 118.896Z" fill="#CDD8E4"/>
<path d="M124.527 118.896H137.109C137.333 118.896 137.516 119.077 137.516 119.299V121.054C137.516 121.277 137.333 121.457 137.109 121.457H124.527C124.303 121.457 124.12 121.277 124.12 121.054V119.299C124.12 119.077 124.303 118.896 124.527 118.896Z" fill="#CDD8E4"/>
<path d="M113.348 118.896H120.799C121.023 118.896 121.206 119.077 121.206 119.299V121.054C121.206 121.277 121.023 121.457 120.799 121.457L113.348 121.457C113.124 121.457 112.942 121.277 112.942 121.054V119.299C112.942 119.077 113.124 118.896 113.348 118.896Z" fill="#CDD8E4"/>
<path d="M72.4658 118.896H109.827C110.052 118.896 110.234 119.077 110.234 119.299V121.054C110.234 121.277 110.052 121.457 109.827 121.457H72.4658C72.2412 121.457 72.0591 121.277 72.0591 121.054V119.299C72.0591 119.077 72.2412 118.896 72.4658 118.896Z" fill="#CDD8E4"/>
<path d="M250.18 135.796H246.09C245.865 135.796 245.683 135.977 245.683 136.199V137.954C245.683 138.177 245.865 138.357 246.09 138.357H250.18C250.404 138.357 250.586 138.177 250.586 137.954V136.199C250.586 135.977 250.404 135.796 250.18 135.796Z" fill="#CDD8E4"/>
<path d="M222.601 135.796H241.734C241.958 135.796 242.141 135.977 242.141 136.199V137.954C242.141 138.177 241.958 138.357 241.734 138.357H222.601C222.376 138.357 222.194 138.177 222.194 137.954V136.199C222.194 135.977 222.376 135.796 222.601 135.796Z" fill="#CDD8E4"/>
<path d="M205.294 135.796H218.245C218.469 135.796 218.651 135.977 218.651 136.199V137.954C218.651 138.177 218.469 138.357 218.245 138.357H205.294C205.069 138.357 204.887 138.177 204.887 137.954V136.199C204.887 135.977 205.069 135.796 205.294 135.796Z" fill="#CDD8E4"/>
<path d="M166.531 135.796H201.565C201.79 135.796 201.972 135.977 201.972 136.199V137.954C201.972 138.177 201.79 138.357 201.565 138.357H166.531C166.307 138.357 166.125 138.177 166.125 137.954V136.199C166.125 135.977 166.307 135.796 166.531 135.796Z" fill="#CDD8E4"/>
<path d="M148.41 135.796H162.775C163 135.796 163.182 135.977 163.182 136.199V137.954C163.182 138.177 163 138.357 162.775 138.357H148.41C148.185 138.357 148.003 138.177 148.003 137.954V136.199C148.003 135.977 148.185 135.796 148.41 135.796Z" fill="#CDD8E4"/>
<path d="M140.838 135.796H144.681C144.905 135.796 145.087 135.977 145.087 136.199V137.954C145.087 138.177 144.905 138.357 144.681 138.357H140.838C140.613 138.357 140.431 138.177 140.431 137.954V136.199C140.431 135.977 140.613 135.796 140.838 135.796Z" fill="#CDD8E4"/>
<path d="M124.527 135.796H137.109C137.333 135.796 137.516 135.977 137.516 136.199V137.954C137.516 138.177 137.333 138.357 137.109 138.357H124.527C124.303 138.357 124.12 138.177 124.12 137.954V136.199C124.12 135.977 124.303 135.796 124.527 135.796Z" fill="#CDD8E4"/>
<path d="M113.348 135.796H120.799C121.023 135.796 121.206 135.977 121.206 136.199V137.954C121.206 138.177 121.023 138.357 120.799 138.357L113.348 138.357C113.124 138.357 112.942 138.177 112.942 137.954V136.199C112.942 135.977 113.124 135.796 113.348 135.796Z" fill="#CDD8E4"/>
<path d="M72.4658 135.796H109.827C110.052 135.796 110.234 135.977 110.234 136.199V137.954C110.234 138.177 110.052 138.357 109.827 138.357H72.4658C72.2412 138.357 72.0591 138.177 72.0591 137.954V136.199C72.0591 135.977 72.2412 135.796 72.4658 135.796Z" fill="#CDD8E4"/>
<path d="M112.338 156.044H72.6232C72.3136 156.044 72.0586 156.29 72.0586 156.603L72.0587 162.999C72.0587 163.306 72.3077 163.558 72.6234 163.558H112.338C112.648 163.558 112.903 163.312 112.903 162.999L112.902 156.603C112.902 156.296 112.647 156.044 112.338 156.044Z" fill="#466181"/>
<rect x="80.4658" y="158.932" width="24.0297" height="1.73878" rx="0.5" fill="#B3C3D6"/>
<path d="M169.101 97.7603H153.509C153.285 97.7603 153.103 97.9406 153.103 98.163V100.928C153.103 101.15 153.285 101.331 153.509 101.331H169.101C169.326 101.331 169.508 101.15 169.508 100.928V98.163C169.508 97.9406 169.326 97.7603 169.101 97.7603Z" fill="#3C5470"/>
</g>
<g filter="url(#filter2_d_46_6073)">
<path d="M573.102 55.5107H324.51C322.741 55.5107 321.306 56.9335 321.306 58.6868V185.335C321.306 187.088 322.741 188.511 324.51 188.511H573.102C574.87 188.511 576.306 187.088 576.306 185.335V58.6868C576.306 56.9335 574.87 55.5107 573.102 55.5107Z" fill="#E6EBF1"/>
<rect x="321.306" y="63.3442" width="255" height="117.024" fill="#EFF3F6"/>
<path d="M366.126 79.3584H389.034C389.243 79.3584 389.412 79.5265 389.412 79.7337V81.3693C389.412 81.5766 389.243 81.7446 389.034 81.7446H366.126C365.917 81.7446 365.748 81.5766 365.748 81.3693V79.7337C365.748 79.5265 365.917 79.3584 366.126 79.3584Z" fill="#CDD8E4"/>
<path d="M398.283 79.3584H392.893C392.684 79.3584 392.514 79.5265 392.514 79.7337V81.3693C392.514 81.5766 392.684 81.7446 392.893 81.7446H398.283C398.492 81.7446 398.662 81.5766 398.662 81.3693V79.7337C398.662 79.5265 398.492 79.3584 398.283 79.3584Z" fill="#CDD8E4"/>
<path d="M414.196 79.3584H402.143C401.934 79.3584 401.765 79.5265 401.765 79.7337V81.3693C401.765 81.5766 401.934 81.7446 402.143 81.7446H414.196C414.405 81.7446 414.575 81.5766 414.575 81.3693V79.7337C414.575 79.5265 414.405 79.3584 414.196 79.3584Z" fill="#CDD8E4"/>
<path d="M443.974 79.3584H418.055C417.846 79.3584 417.676 79.5265 417.676 79.7337V81.3693C417.676 81.5766 417.846 81.7446 418.055 81.7446H443.974C444.183 81.7446 444.353 81.5766 444.353 81.3693V79.7337C444.353 79.5265 444.183 79.3584 443.974 79.3584Z" fill="#CDD8E4"/>
<path d="M450.174 79.3584H447.834C447.625 79.3584 447.456 79.5265 447.456 79.7337V81.3693C447.456 81.5766 447.625 81.7446 447.834 81.7446H450.174C450.383 81.7446 450.552 81.5766 450.552 81.3693V79.7337C450.552 79.5265 450.383 79.3584 450.174 79.3584Z" fill="#CDD8E4"/>
<path d="M467.402 79.3584H454.033C453.824 79.3584 453.654 79.5265 453.654 79.7337V81.3693C453.654 81.5766 453.824 81.7446 454.033 81.7446H467.402C467.611 81.7446 467.781 81.5766 467.781 81.3693V79.7337C467.781 79.5265 467.611 79.3584 467.402 79.3584Z" fill="#CDD8E4"/>
<path d="M525.786 85.1016H502.879C502.67 85.1016 502.5 85.2696 502.5 85.4769V87.1125C502.5 87.3198 502.67 87.4878 502.879 87.4878H525.786C525.996 87.4878 526.165 87.3198 526.165 87.1125V85.4769C526.165 85.2696 525.996 85.1016 525.786 85.1016Z" fill="#CDD8E4"/>
<path d="M493.629 85.1016H499.02C499.229 85.1016 499.398 85.2696 499.398 85.4769V87.1125C499.398 87.3198 499.229 87.4878 499.02 87.4878H493.629C493.42 87.4878 493.251 87.3198 493.251 87.1125V85.4769C493.251 85.2696 493.42 85.1016 493.629 85.1016Z" fill="#CDD8E4"/>
<path d="M477.717 85.1016H489.77C489.979 85.1016 490.148 85.2696 490.148 85.4769V87.1125C490.148 87.3198 489.979 87.4878 489.77 87.4878H477.717C477.508 87.4878 477.339 87.3198 477.339 87.1125V85.4769C477.339 85.2696 477.508 85.1016 477.717 85.1016Z" fill="#CDD8E4"/>
<path d="M447.938 85.1016H473.858C474.067 85.1016 474.236 85.2696 474.236 85.4769V87.1125C474.236 87.3198 474.067 87.4878 473.858 87.4878H447.938C447.729 87.4878 447.56 87.3198 447.56 87.1125V85.4769C447.56 85.2696 447.729 85.1016 447.938 85.1016Z" fill="#CDD8E4"/>
<path d="M430.241 85.1016H443.61C443.819 85.1016 443.989 85.2696 443.989 85.4769V87.1125C443.989 87.3198 443.819 87.4878 443.61 87.4878H430.241C430.032 87.4878 429.862 87.3198 429.862 87.1125V85.4769C429.862 85.2696 430.032 85.1016 430.241 85.1016Z" fill="#CDD8E4"/>
<path d="M418.991 85.1016H426.388C426.597 85.1016 426.766 85.2696 426.766 85.4769V87.1125C426.766 87.3198 426.597 87.4878 426.388 87.4878H418.991C418.782 87.4878 418.612 87.3198 418.612 87.1125V85.4769C418.612 85.2696 418.782 85.1016 418.991 85.1016Z" fill="#CDD8E4"/>
<path d="M412.973 85.1016H415.132C415.341 85.1016 415.51 85.2696 415.51 85.4769V87.1125C415.51 87.3198 415.341 87.4878 415.132 87.4878H412.973C412.764 87.4878 412.595 87.3198 412.595 87.1125V85.4769C412.595 85.2696 412.764 85.1016 412.973 85.1016Z" fill="#CDD8E4"/>
<path d="M392.784 85.1016H409.269C409.478 85.1016 409.647 85.2696 409.647 85.4769V87.1125C409.647 87.3198 409.478 87.4878 409.269 87.4878H392.784C392.575 87.4878 392.406 87.3198 392.406 87.1125V85.4769C392.406 85.2696 392.575 85.1016 392.784 85.1016Z" fill="#CDD8E4"/>
<path d="M366.126 85.1016H388.481C388.69 85.1016 388.859 85.2696 388.859 85.4769V87.1125C388.859 87.3198 388.69 87.4878 388.481 87.4878H366.126C365.917 87.4878 365.747 87.3198 365.747 87.1125V85.4769C365.747 85.2696 365.917 85.1016 366.126 85.1016Z" fill="#CDD8E4"/>
<path d="M447.938 122.577H473.858C474.067 122.577 474.236 122.745 474.236 122.952V124.588C474.236 124.795 474.067 124.963 473.858 124.963H447.938C447.729 124.963 447.56 124.795 447.56 124.588V122.952C447.56 122.745 447.729 122.577 447.938 122.577Z" fill="#CDD8E4"/>
<path d="M430.241 122.577H443.61C443.819 122.577 443.989 122.745 443.989 122.952V124.588C443.989 124.795 443.819 124.963 443.61 124.963H430.241C430.032 124.963 429.862 124.795 429.862 124.588V122.952C429.862 122.745 430.032 122.577 430.241 122.577Z" fill="#CDD8E4"/>
<path d="M418.991 122.577H426.388C426.597 122.577 426.766 122.745 426.766 122.952V124.588C426.766 124.795 426.597 124.963 426.388 124.963H418.991C418.782 124.963 418.612 124.795 418.612 124.588V122.952C418.612 122.745 418.782 122.577 418.991 122.577Z" fill="#CDD8E4"/>
<path d="M412.973 122.577H415.132C415.341 122.577 415.51 122.745 415.51 122.952V124.588C415.51 124.795 415.341 124.963 415.132 124.963H412.973C412.764 124.963 412.595 124.795 412.595 124.588V122.952C412.595 122.745 412.764 122.577 412.973 122.577Z" fill="#CDD8E4"/>
<path d="M392.784 122.577H409.269C409.478 122.577 409.647 122.745 409.647 122.952V124.588C409.647 124.795 409.478 124.963 409.269 124.963H392.784C392.575 124.963 392.406 124.795 392.406 124.588V122.952C392.406 122.745 392.575 122.577 392.784 122.577Z" fill="#CDD8E4"/>
<path d="M366.126 122.577H388.481C388.69 122.577 388.859 122.745 388.859 122.952V124.588C388.859 124.795 388.69 124.963 388.481 124.963H366.126C365.917 124.963 365.747 124.795 365.747 124.588V122.952C365.747 122.745 365.917 122.577 366.126 122.577Z" fill="#CDD8E4"/>
<path d="M366.126 127.827H378.93C379.14 127.827 379.309 127.995 379.309 128.202V129.838C379.309 130.045 379.14 130.213 378.93 130.213H366.126C365.917 130.213 365.748 130.045 365.748 129.838V128.202C365.748 127.995 365.917 127.827 366.126 127.827Z" fill="#CDD8E4"/>
<path d="M382.403 127.827H404.758C404.967 127.827 405.137 127.995 405.137 128.202V129.838C405.137 130.045 404.967 130.213 404.758 130.213H382.403C382.194 130.213 382.025 130.045 382.025 129.838V128.202C382.025 127.995 382.194 127.827 382.403 127.827Z" fill="#CDD8E4"/>
<path d="M408.23 127.827H420.079C420.288 127.827 420.458 127.995 420.458 128.202V129.838C420.458 130.045 420.288 130.213 420.079 130.213H408.23C408.021 130.213 407.852 130.045 407.852 129.838V128.202C407.852 127.995 408.021 127.827 408.23 127.827Z" fill="#CDD8E4"/>
<path d="M423.552 127.827H426.805C427.015 127.827 427.184 127.995 427.184 128.202V129.838C427.184 130.045 427.015 130.213 426.805 130.213H423.552C423.343 130.213 423.173 130.045 423.173 129.838V128.202C423.173 127.995 423.343 127.827 423.552 127.827Z" fill="#CDD8E4"/>
<path d="M430.278 127.827H439.262C439.471 127.827 439.64 127.995 439.64 128.202V129.838C439.64 130.045 439.471 130.213 439.262 130.213H430.278C430.068 130.213 429.899 130.045 429.899 129.838V128.202C429.899 127.995 430.068 127.827 430.278 127.827Z" fill="#CDD8E4"/>
<path d="M442.734 127.827H461.268C461.477 127.827 461.647 127.995 461.647 128.202V129.838C461.647 130.045 461.477 130.213 461.268 130.213H442.734C442.525 130.213 442.355 130.045 442.355 129.838V128.202C442.355 127.995 442.525 127.827 442.734 127.827Z" fill="#CDD8E4"/>
<path d="M465.391 127.827H478.195C478.404 127.827 478.574 127.995 478.574 128.202V129.838C478.574 130.045 478.404 130.213 478.195 130.213H465.391C465.182 130.213 465.012 130.045 465.012 129.838V128.202C465.012 127.995 465.182 127.827 465.391 127.827Z" fill="#CDD8E4"/>
<path d="M481.668 127.827H483.011C483.22 127.827 483.39 127.995 483.39 128.202V129.838C483.39 130.045 483.22 130.213 483.011 130.213H481.668C481.458 130.213 481.289 130.045 481.289 129.838V128.202C481.289 127.995 481.458 127.827 481.668 127.827Z" fill="#CDD8E4"/>
<path d="M486.484 127.827H492.602C492.811 127.827 492.981 127.995 492.981 128.202V129.838C492.981 130.045 492.811 130.213 492.602 130.213H486.484C486.274 130.213 486.105 130.045 486.105 129.838V128.202C486.105 127.995 486.274 127.827 486.484 127.827Z" fill="#CDD8E4"/>
<path d="M528.263 127.827H531.517C531.726 127.827 531.896 127.995 531.896 128.202V129.838C531.896 130.045 531.726 130.213 531.517 130.213H528.263C528.054 130.213 527.885 130.045 527.885 129.838V128.202C527.885 127.995 528.054 127.827 528.263 127.827Z" fill="#CDD8E4"/>
<path d="M514.879 127.827H524.818C525.027 127.827 525.196 127.995 525.196 128.202V129.838C525.196 130.045 525.027 130.213 524.818 130.213H514.879C514.67 130.213 514.5 130.045 514.5 129.838V128.202C514.5 127.995 514.67 127.827 514.879 127.827Z" fill="#CDD8E4"/>
<path d="M496.075 127.827L511.341 127.827C511.55 127.827 511.719 127.995 511.719 128.202V129.838C511.719 130.045 511.55 130.213 511.341 130.213H496.075C495.866 130.213 495.696 130.045 495.696 129.838V128.202C495.696 127.995 495.866 127.827 496.075 127.827Z" fill="#CDD8E4"/>
<path d="M366.126 133.077H384.661C384.87 133.077 385.04 133.245 385.04 133.452V135.088C385.04 135.295 384.87 135.463 384.661 135.463H366.126C365.917 135.463 365.748 135.295 365.748 135.088V133.452C365.748 133.245 365.917 133.077 366.126 133.077Z" fill="#CDD8E4"/>
<path d="M388.783 133.077H401.587C401.796 133.077 401.966 133.245 401.966 133.452V135.088C401.966 135.295 401.796 135.463 401.587 135.463H388.783C388.574 135.463 388.404 135.295 388.404 135.088V133.452C388.404 133.245 388.574 133.077 388.783 133.077Z" fill="#CDD8E4"/>
<path d="M405.06 133.077H406.403C406.612 133.077 406.782 133.245 406.782 133.452V135.088C406.782 135.295 406.612 135.463 406.403 135.463H405.06C404.851 135.463 404.681 135.295 404.681 135.088V133.452C404.681 133.245 404.851 133.077 405.06 133.077Z" fill="#CDD8E4"/>
<path d="M409.876 133.077H415.994C416.204 133.077 416.373 133.245 416.373 133.452V135.088C416.373 135.295 416.204 135.463 415.994 135.463H409.876C409.667 135.463 409.497 135.295 409.497 135.088V133.452C409.497 133.245 409.667 133.077 409.876 133.077Z" fill="#CDD8E4"/>
<path d="M419.467 133.077L434.733 133.077C434.942 133.077 435.111 133.245 435.111 133.452V135.088C435.111 135.295 434.942 135.463 434.733 135.463H419.467C419.258 135.463 419.089 135.295 419.089 135.088V133.452C419.089 133.245 419.258 133.077 419.467 133.077Z" fill="#CDD8E4"/>
<path d="M429.757 90.3516H433.334C433.543 90.3516 433.712 90.5196 433.712 90.7269V92.3625C433.712 92.5698 433.543 92.7378 433.334 92.7378H429.757C429.548 92.7378 429.379 92.5698 429.379 92.3625V90.7269C429.379 90.5196 429.548 90.3516 429.757 90.3516Z" fill="#CDD8E4"/>
<path d="M414.578 90.3516H426.287C426.496 90.3516 426.666 90.5196 426.666 90.7269V92.3625C426.666 92.5698 426.496 92.7378 426.287 92.7378H414.578C414.369 92.7378 414.199 92.5698 414.199 92.3625V90.7269C414.199 90.5196 414.369 90.3516 414.578 90.3516Z" fill="#CDD8E4"/>
<path d="M404.174 90.3516H411.108C411.317 90.3516 411.486 90.5196 411.486 90.7269V92.3625C411.486 92.5698 411.317 92.7378 411.108 92.7378L404.174 92.7378C403.965 92.7378 403.795 92.5698 403.795 92.3625V90.7269C403.795 90.5196 403.965 90.3516 404.174 90.3516Z" fill="#CDD8E4"/>
<path d="M366.126 90.3516H400.897C401.106 90.3516 401.275 90.5196 401.275 90.7269V92.3625C401.275 92.5698 401.106 92.7378 400.897 92.7378H366.126C365.917 92.7378 365.748 92.5698 365.748 92.3625V90.7269C365.748 90.5196 365.917 90.3516 366.126 90.3516Z" fill="#CDD8E4"/>
<path d="M402.392 165.688H365.431C365.143 165.688 364.906 165.918 364.906 166.209L364.906 172.17C364.906 172.456 365.138 172.691 365.431 172.691H402.392C402.68 172.691 402.917 172.462 402.917 172.17L402.917 166.209C402.917 165.924 402.68 165.688 402.392 165.688Z" fill="#466181"/>
<rect x="372.73" y="168.38" width="22.3634" height="1.62041" rx="0.5" fill="#B3C3D6"/>
<path d="M456.061 70.6538H441.55C441.341 70.6538 441.171 70.8219 441.171 71.0291V73.6058C441.171 73.813 441.341 73.9811 441.55 73.9811H456.061C456.27 73.9811 456.439 73.813 456.439 73.6058V71.0291C456.439 70.8219 456.27 70.6538 456.061 70.6538Z" fill="#3C5470"/>
<rect x="365.748" y="97.8589" width="40.678" height="5.70585" rx="0.5" fill="#6687AD"/>
<rect x="407.571" y="97.8589" width="40.678" height="5.70585" rx="0.5" fill="#6687AD"/>
<rect x="449.394" y="97.8589" width="40.678" height="5.70585" rx="0.5" fill="#6687AD"/>
<rect x="491.217" y="97.8589" width="40.678" height="5.70585" rx="0.5" fill="#6687AD"/>
<rect x="365.748" y="104.615" width="40.678" height="5.70585" rx="0.5" fill="#EFF3F6"/>
<rect x="407.571" y="104.615" width="40.678" height="5.70585" rx="0.5" fill="#EFF3F6"/>
<rect x="449.394" y="104.615" width="40.678" height="5.70585" rx="0.5" fill="#EFF3F6"/>
<rect x="491.217" y="104.615" width="40.678" height="5.70585" rx="0.5" fill="#EFF3F6"/>
<rect x="365.748" y="111.549" width="40.678" height="5.70585" rx="0.5" fill="#EFF3F6"/>
<rect x="407.571" y="111.549" width="40.678" height="5.70585" rx="0.5" fill="#EFF3F6"/>
<rect x="449.394" y="111.549" width="40.678" height="5.70585" rx="0.5" fill="#EFF3F6"/>
<rect x="491.217" y="111.549" width="40.678" height="5.70585" rx="0.5" fill="#EFF3F6"/>
<path d="M397.407 99.9937H368.552C368.343 99.9937 368.174 100.162 368.174 100.369V101.054C368.174 101.261 368.343 101.429 368.552 101.429H397.407C397.616 101.429 397.785 101.261 397.785 101.054V100.369C397.785 100.162 397.616 99.9937 397.407 99.9937Z" fill="#CDD8E4"/>
<path d="M392.632 106.75H368.552C368.343 106.75 368.174 106.918 368.174 107.125V107.81C368.174 108.017 368.343 108.185 368.552 108.185H392.632C392.841 108.185 393.01 108.017 393.01 107.81V107.125C393.01 106.918 392.841 106.75 392.632 106.75Z" fill="#6687AD"/>
<path d="M384.036 113.685H368.552C368.343 113.685 368.174 113.853 368.174 114.06V114.745C368.174 114.952 368.343 115.12 368.552 115.12H384.036C384.245 115.12 384.415 114.952 384.415 114.745V114.06C384.415 113.853 384.245 113.685 384.036 113.685Z" fill="#6687AD"/>
<path d="M420.44 99.9937H410.687C410.478 99.9937 410.309 100.162 410.309 100.369V101.054C410.309 101.261 410.478 101.429 410.687 101.429H420.44C420.65 101.429 420.819 101.261 420.819 101.054V100.369C420.819 100.162 420.65 99.9937 420.44 99.9937Z" fill="#CDD8E4"/>
<path d="M420.44 99.9937H410.687C410.478 99.9937 410.309 100.162 410.309 100.369V101.054C410.309 101.261 410.478 101.429 410.687 101.429H420.44C420.65 101.429 420.819 101.261 420.819 101.054V100.369C420.819 100.162 420.65 99.9937 420.44 99.9937Z" fill="#CDD8E4"/>
<path d="M426.171 106.75H410.687C410.478 106.75 410.309 106.918 410.309 107.125V107.81C410.309 108.017 410.478 108.185 410.687 108.185H426.171C426.38 108.185 426.549 108.017 426.549 107.81V107.125C426.549 106.918 426.38 106.75 426.171 106.75Z" fill="#6687AD"/>
<path d="M430.946 113.685H410.687C410.478 113.685 410.309 113.853 410.309 114.06V114.745C410.309 114.952 410.478 115.12 410.687 115.12H430.946C431.155 115.12 431.325 114.952 431.325 114.745V114.06C431.325 113.853 431.155 113.685 430.946 113.685Z" fill="#6687AD"/>
<path d="M468.949 106.75H452.51C452.301 106.75 452.132 106.918 452.132 107.125V107.81C452.132 108.017 452.301 108.185 452.51 108.185H468.949C469.158 108.185 469.328 108.017 469.328 107.81V107.125C469.328 106.918 469.158 106.75 468.949 106.75Z" fill="#6687AD"/>
<path d="M462.264 113.685H452.51C452.301 113.685 452.132 113.853 452.132 114.06V114.745C452.132 114.952 452.301 115.12 452.51 115.12H462.264C462.473 115.12 462.642 114.952 462.642 114.745V114.06C462.642 113.853 462.473 113.685 462.264 113.685Z" fill="#6687AD"/>
<path d="M510.773 113.891H494.334C494.125 113.891 493.956 114.059 493.956 114.266V114.951C493.956 115.158 494.125 115.326 494.334 115.326H510.773C510.982 115.326 511.151 115.158 511.151 114.951V114.266C511.151 114.059 510.982 113.891 510.773 113.891Z" fill="#6687AD"/>
<path d="M504.087 106.75H494.334C494.125 106.75 493.956 106.918 493.956 107.125V107.81C493.956 108.017 494.125 108.185 494.334 108.185H504.087C504.297 108.185 504.466 108.017 504.466 107.81V107.125C504.466 106.918 504.297 106.75 504.087 106.75Z" fill="#6687AD"/>
<path d="M429.922 99.9937H423.033C422.824 99.9937 422.655 100.162 422.655 100.369V101.054C422.655 101.261 422.824 101.429 423.033 101.429H429.922C430.131 101.429 430.3 101.261 430.3 101.054V100.369C430.3 100.162 430.131 99.9937 429.922 99.9937Z" fill="#CDD8E4"/>
<path d="M462.264 99.9937H452.51C452.301 99.9937 452.132 100.162 452.132 100.369V101.054C452.132 101.261 452.301 101.429 452.51 101.429H462.264C462.473 101.429 462.642 101.261 462.642 101.054V100.369C462.642 100.162 462.473 99.9937 462.264 99.9937Z" fill="#CDD8E4"/>
<path d="M471.745 99.9937H464.857C464.648 99.9937 464.479 100.162 464.479 100.369V101.054C464.479 101.261 464.648 101.429 464.857 101.429H471.745C471.954 101.429 472.124 101.261 472.124 101.054V100.369C472.124 100.162 471.954 99.9937 471.745 99.9937Z" fill="#CDD8E4"/>
<path d="M504.087 99.9937H494.334C494.125 99.9937 493.956 100.162 493.956 100.369V101.054C493.956 101.261 494.125 101.429 494.334 101.429H504.087C504.297 101.429 504.466 101.261 504.466 101.054V100.369C504.466 100.162 504.297 99.9937 504.087 99.9937Z" fill="#CDD8E4"/>
<path d="M516.434 99.9937H506.68C506.471 99.9937 506.302 100.162 506.302 100.369V101.054C506.302 101.261 506.471 101.429 506.68 101.429H516.434C516.643 101.429 516.812 101.261 516.812 101.054V100.369C516.812 100.162 516.643 99.9937 516.434 99.9937Z" fill="#CDD8E4"/>
<path d="M530.595 140.784H366.362C366.025 140.784 365.748 141.053 365.748 141.395V158.969C365.748 159.305 366.018 159.581 366.362 159.581H530.602C530.938 159.581 531.216 159.311 531.216 158.969V141.395C531.216 141.06 530.932 140.784 530.595 140.784Z" fill="#E6EBF1"/>
<path d="M375.289 145.386H402.057C402.301 145.386 402.499 145.583 402.499 145.827V147.747C402.499 147.99 402.301 148.187 402.057 148.187H375.289C375.044 148.187 374.846 147.99 374.846 147.747V145.827C374.846 145.583 375.044 145.386 375.289 145.386Z" fill="#CDD8E4"/>
<path d="M412.866 145.386H406.567C406.323 145.386 406.125 145.583 406.125 145.827V147.747C406.125 147.99 406.323 148.187 406.567 148.187H412.866C413.11 148.187 413.309 147.99 413.309 147.747V145.827C413.309 145.583 413.11 145.386 412.866 145.386Z" fill="#CDD8E4"/>
<path d="M431.46 145.386H417.376C417.132 145.386 416.934 145.583 416.934 145.827V147.747C416.934 147.99 417.132 148.187 417.376 148.187H431.46C431.704 148.187 431.902 147.99 431.902 147.747V145.827C431.902 145.583 431.704 145.386 431.46 145.386Z" fill="#CDD8E4"/>
<path d="M466.257 145.386H435.97C435.725 145.386 435.527 145.583 435.527 145.827V147.747C435.527 147.99 435.725 148.187 435.97 148.187H466.257C466.502 148.187 466.7 147.99 466.7 147.747V145.827C466.7 145.583 466.502 145.386 466.257 145.386Z" fill="#CDD8E4"/>
<path d="M473.501 145.386H470.768C470.523 145.386 470.325 145.583 470.325 145.827V147.747C470.325 147.99 470.523 148.187 470.768 148.187H473.501C473.746 148.187 473.944 147.99 473.944 147.747V145.827C473.944 145.583 473.746 145.386 473.501 145.386Z" fill="#CDD8E4"/>
<path d="M493.633 145.386H478.011C477.766 145.386 477.568 145.583 477.568 145.827V147.747C477.568 147.99 477.766 148.187 478.011 148.187H493.633C493.878 148.187 494.076 147.99 494.076 147.747V145.827C494.076 145.583 493.878 145.386 493.633 145.386Z" fill="#CDD8E4"/>
<path d="M506.78 145.386H498.136C497.892 145.386 497.694 145.583 497.694 145.827V147.747C497.694 147.99 497.892 148.187 498.136 148.187H506.78C507.024 148.187 507.222 147.99 507.222 147.747V145.827C507.222 145.583 507.024 145.386 506.78 145.386Z" fill="#CDD8E4"/>
<path d="M521.452 145.386H511.29C511.045 145.386 510.847 145.583 510.847 145.827V147.747C510.847 147.99 511.045 148.187 511.29 148.187H521.452C521.697 148.187 521.895 147.99 521.895 147.747V145.827C521.895 145.583 521.697 145.386 521.452 145.386Z" fill="#CDD8E4"/>
<path d="M512.65 152.165H507.394C507.149 152.165 506.951 152.362 506.951 152.605V154.525C506.951 154.768 507.149 154.965 507.394 154.965H512.65C512.894 154.965 513.092 154.768 513.092 154.525V152.605C513.092 152.362 512.894 152.165 512.65 152.165Z" fill="#CDD8E4"/>
<path d="M485.98 152.165H502.752C502.996 152.165 503.194 152.362 503.194 152.605V154.525C503.194 154.768 502.996 154.965 502.752 154.965H485.98C485.736 154.965 485.538 154.768 485.538 154.525V152.605C485.538 152.362 485.736 152.165 485.98 152.165Z" fill="#CDD8E4"/>
<path d="M481.332 152.165H465.452C465.207 152.165 465.009 152.362 465.009 152.605V154.525C465.009 154.768 465.207 154.965 465.452 154.965H481.332C481.576 154.965 481.774 154.768 481.774 154.525V152.605C481.774 152.362 481.576 152.165 481.332 152.165Z" fill="#CDD8E4"/>
<path d="M460.81 152.165H445.188C444.943 152.165 444.745 152.362 444.745 152.605V154.525C444.745 154.768 444.943 154.965 445.188 154.965H460.81C461.054 154.965 461.252 154.768 461.252 154.525V152.605C461.252 152.362 461.054 152.165 460.81 152.165Z" fill="#CDD8E4"/>
<path d="M424.751 152.165H440.546C440.79 152.165 440.988 152.362 440.988 152.605V154.525C440.988 154.768 440.79 154.965 440.546 154.965H424.751C424.507 154.965 424.309 154.768 424.309 154.525V152.605C424.309 152.362 424.507 152.165 424.751 152.165Z" fill="#CDD8E4"/>
<path d="M420.103 152.165H395.408C395.163 152.165 394.965 152.362 394.965 152.605V154.525C394.965 154.768 395.163 154.965 395.408 154.965H420.103C420.347 154.965 420.545 154.768 420.545 154.525V152.605C420.545 152.362 420.347 152.165 420.103 152.165Z" fill="#CDD8E4"/>
<path d="M390.766 152.165H375.309C375.064 152.165 374.866 152.362 374.866 152.605V154.525C374.866 154.768 375.064 154.965 375.309 154.965H390.766C391.01 154.965 391.208 154.768 391.208 154.525V152.605C391.208 152.362 391.01 152.165 390.766 152.165Z" fill="#CDD8E4"/>
</g>
</g>
<defs>
<filter id="filter0_d_46_6073" x="119.306" y="24.5107" width="276" height="83" filterUnits="userSpaceOnUse" color-interpolation-filters="sRGB">
<feFlood flood-opacity="0" result="BackgroundImageFix"/>
<feColorMatrix in="SourceAlpha" type="matrix" values="0 0 0 0 0 0 0 0 0 0 0 0 0 0 0 0 0 0 127 0" result="hardAlpha"/>
<feOffset dy="1"/>
<feGaussianBlur stdDeviation="0.5"/>
<feComposite in2="hardAlpha" operator="out"/>
<feColorMatrix type="matrix" values="0 0 0 0 0 0 0 0 0 0 0 0 0 0 0 0 0 0 0.05 0"/>
<feBlend mode="normal" in2="BackgroundImageFix" result="effect1_dropShadow_46_6073"/>
<feBlend mode="normal" in="SourceGraphic" in2="effect1_dropShadow_46_6073" result="shape"/>
</filter>
<filter id="filter1_d_46_6073" x="23.3057" y="81.5107" width="276" height="109" filterUnits="userSpaceOnUse" color-interpolation-filters="sRGB">
<feFlood flood-opacity="0" result="BackgroundImageFix"/>
<feColorMatrix in="SourceAlpha" type="matrix" values="0 0 0 0 0 0 0 0 0 0 0 0 0 0 0 0 0 0 127 0" result="hardAlpha"/>
<feOffset dy="1"/>
<feGaussianBlur stdDeviation="0.5"/>
<feComposite in2="hardAlpha" operator="out"/>
<feColorMatrix type="matrix" values="0 0 0 0 0 0 0 0 0 0 0 0 0 0 0 0 0 0 0.05 0"/>
<feBlend mode="normal" in2="BackgroundImageFix" result="effect1_dropShadow_46_6073"/>
<feBlend mode="normal" in="SourceGraphic" in2="effect1_dropShadow_46_6073" result="shape"/>
</filter>
<filter id="filter2_d_46_6073" x="320.306" y="55.5107" width="257" height="135" filterUnits="userSpaceOnUse" color-interpolation-filters="sRGB">
<feFlood flood-opacity="0" result="BackgroundImageFix"/>
<feColorMatrix in="SourceAlpha" type="matrix" values="0 0 0 0 0 0 0 0 0 0 0 0 0 0 0 0 0 0 127 0" result="hardAlpha"/>
<feOffset dy="1"/>
<feGaussianBlur stdDeviation="0.5"/>
<feComposite in2="hardAlpha" operator="out"/>
<feColorMatrix type="matrix" values="0 0 0 0 0 0 0 0 0 0 0 0 0 0 0 0 0 0 0.05 0"/>
<feBlend mode="normal" in2="BackgroundImageFix" result="effect1_dropShadow_46_6073"/>
<feBlend mode="normal" in="SourceGraphic" in2="effect1_dropShadow_46_6073" result="shape"/>
</filter>
<clipPath id="clip0_46_6073">
<rect width="600" height="180" fill="white" transform="translate(0.305664 0.510742)"/>
</clipPath>
</defs>
</svg>
