<svg width="151" height="15" viewBox="0 0 151 15" fill="none" xmlns="http://www.w3.org/2000/svg">
<path d="M5.958 14.18C4.758 14.18 3.762 14.012 2.97 13.676C2.178 13.328 1.578 12.878 1.17 12.326C0.762 11.774 0.546 11.186 0.522 10.562C0.522 10.466 0.558 10.382 0.63 10.31C0.714 10.226 0.81 10.184 0.918 10.184H3.186C3.354 10.184 3.48 10.214 3.564 10.274C3.66 10.334 3.744 10.412 3.816 10.508C3.912 10.688 4.044 10.862 4.212 11.03C4.392 11.198 4.62 11.336 4.896 11.444C5.184 11.54 5.538 11.588 5.958 11.588C6.654 11.588 7.176 11.48 7.524 11.264C7.884 11.048 8.064 10.754 8.064 10.382C8.064 10.118 7.968 9.902 7.776 9.734C7.584 9.554 7.272 9.398 6.84 9.266C6.42 9.122 5.856 8.978 5.148 8.834C4.236 8.642 3.456 8.396 2.808 8.096C2.172 7.784 1.686 7.382 1.35 6.89C1.014 6.386 0.846 5.762 0.846 5.018C0.846 4.286 1.05 3.632 1.458 3.056C1.878 2.48 2.46 2.03 3.204 1.706C3.948 1.382 4.83 1.22 5.85 1.22C6.678 1.22 7.404 1.328 8.028 1.544C8.664 1.76 9.198 2.048 9.63 2.408C10.062 2.768 10.386 3.152 10.602 3.56C10.83 3.956 10.95 4.346 10.962 4.73C10.962 4.826 10.926 4.916 10.854 5C10.782 5.072 10.692 5.108 10.584 5.108H8.208C8.076 5.108 7.962 5.084 7.866 5.036C7.77 4.988 7.686 4.91 7.614 4.802C7.542 4.538 7.35 4.31 7.038 4.118C6.738 3.914 6.342 3.812 5.85 3.812C5.322 3.812 4.908 3.908 4.608 4.1C4.32 4.28 4.176 4.562 4.176 4.946C4.176 5.186 4.254 5.396 4.41 5.576C4.578 5.756 4.848 5.912 5.22 6.044C5.604 6.176 6.126 6.314 6.786 6.458C7.878 6.662 8.76 6.92 9.432 7.232C10.104 7.532 10.596 7.928 10.908 8.42C11.22 8.9 11.376 9.506 11.376 10.238C11.376 11.054 11.142 11.762 10.674 12.362C10.218 12.95 9.582 13.4 8.766 13.712C7.95 14.024 7.014 14.18 5.958 14.18ZM17.408 14.18C16.4 14.18 15.548 14.018 14.852 13.694C14.168 13.37 13.64 12.908 13.268 12.308C12.908 11.696 12.704 10.97 12.656 10.13C12.644 9.89 12.638 9.62 12.638 9.32C12.638 9.008 12.644 8.738 12.656 8.51C12.704 7.658 12.92 6.932 13.304 6.332C13.688 5.732 14.222 5.27 14.906 4.946C15.602 4.622 16.436 4.46 17.408 4.46C18.392 4.46 19.226 4.622 19.91 4.946C20.606 5.27 21.146 5.732 21.53 6.332C21.914 6.932 22.13 7.658 22.178 8.51C22.19 8.738 22.196 9.008 22.196 9.32C22.196 9.62 22.19 9.89 22.178 10.13C22.13 10.97 21.92 11.696 21.548 12.308C21.188 12.908 20.66 13.37 19.964 13.694C19.28 14.018 18.428 14.18 17.408 14.18ZM17.408 11.984C17.948 11.984 18.338 11.822 18.578 11.498C18.83 11.174 18.974 10.688 19.01 10.04C19.022 9.86 19.028 9.62 19.028 9.32C19.028 9.02 19.022 8.78 19.01 8.6C18.974 7.964 18.83 7.484 18.578 7.16C18.338 6.824 17.948 6.656 17.408 6.656C16.88 6.656 16.49 6.824 16.238 7.16C15.986 7.484 15.848 7.964 15.824 8.6C15.812 8.78 15.806 9.02 15.806 9.32C15.806 9.62 15.812 9.86 15.824 10.04C15.848 10.688 15.986 11.174 16.238 11.498C16.49 11.822 16.88 11.984 17.408 11.984ZM25.3904 14C25.2704 14 25.1624 13.958 25.0664 13.874C24.9824 13.79 24.9404 13.682 24.9404 13.55V6.998H23.5724C23.4404 6.998 23.3324 6.956 23.2484 6.872C23.1644 6.788 23.1224 6.68 23.1224 6.548V5.09C23.1224 4.958 23.1644 4.85 23.2484 4.766C23.3324 4.682 23.4404 4.64 23.5724 4.64H24.9404V4.064C24.9404 3.248 25.0964 2.594 25.4084 2.102C25.7324 1.598 26.1884 1.238 26.7764 1.022C27.3644 0.794 28.0664 0.68 28.8824 0.68H30.2864C30.4064 0.68 30.5084 0.722 30.5924 0.805999C30.6884 0.89 30.7364 0.998 30.7364 1.13V2.588C30.7364 2.72 30.6884 2.828 30.5924 2.912C30.5084 2.996 30.4064 3.038 30.2864 3.038H29.0264C28.6184 3.038 28.3304 3.134 28.1624 3.326C28.0064 3.518 27.9284 3.794 27.9284 4.154V4.64H30.1064C30.2264 4.64 30.3284 4.682 30.4124 4.766C30.5084 4.85 30.5564 4.958 30.5564 5.09V6.548C30.5564 6.68 30.5084 6.788 30.4124 6.872C30.3284 6.956 30.2264 6.998 30.1064 6.998H27.9284V13.55C27.9284 13.682 27.8864 13.79 27.8024 13.874C27.7184 13.958 27.6104 14 27.4784 14H25.3904ZM33.4339 14C33.3019 14 33.1939 13.958 33.1099 13.874C33.0259 13.79 32.9839 13.682 32.9839 13.55V5.09C32.9839 4.958 33.0259 4.85 33.1099 4.766C33.1939 4.682 33.3019 4.64 33.4339 4.64H35.5579C35.6779 4.64 35.7799 4.682 35.8639 4.766C35.9599 4.85 36.0079 4.958 36.0079 5.09V13.55C36.0079 13.682 35.9599 13.79 35.8639 13.874C35.7799 13.958 35.6779 14 35.5579 14H33.4339ZM33.4159 3.29C33.2839 3.29 33.1759 3.248 33.0919 3.164C33.0079 3.08 32.9659 2.972 32.9659 2.84V1.238C32.9659 1.106 33.0079 0.997999 33.0919 0.913999C33.1759 0.817999 33.2839 0.77 33.4159 0.77H35.5579C35.6899 0.77 35.7979 0.817999 35.8819 0.913999C35.9779 0.997999 36.0259 1.106 36.0259 1.238V2.84C36.0259 2.972 35.9779 3.08 35.8819 3.164C35.7979 3.248 35.6899 3.29 35.5579 3.29H33.4159ZM38.5843 14C38.4523 14 38.3443 13.958 38.2603 13.874C38.1763 13.79 38.1343 13.682 38.1343 13.55V5.09C38.1343 4.958 38.1763 4.85 38.2603 4.766C38.3443 4.682 38.4523 4.64 38.5843 4.64H40.7083C40.8283 4.64 40.9303 4.682 41.0143 4.766C41.1103 4.85 41.1583 4.958 41.1583 5.09V13.55C41.1583 13.682 41.1103 13.79 41.0143 13.874C40.9303 13.958 40.8283 14 40.7083 14H38.5843ZM38.5663 3.29C38.4343 3.29 38.3263 3.248 38.2423 3.164C38.1583 3.08 38.1163 2.972 38.1163 2.84V1.238C38.1163 1.106 38.1583 0.997999 38.2423 0.913999C38.3263 0.817999 38.4343 0.77 38.5663 0.77H40.7083C40.8403 0.77 40.9483 0.817999 41.0323 0.913999C41.1283 0.997999 41.1763 1.106 41.1763 1.238V2.84C41.1763 2.972 41.1283 3.08 41.0323 3.164C40.9483 3.248 40.8403 3.29 40.7083 3.29H38.5663ZM46.0751 14.18C45.4271 14.18 44.8451 14.06 44.3291 13.82C43.8251 13.568 43.4231 13.232 43.1231 12.812C42.8231 12.392 42.6731 11.918 42.6731 11.39C42.6731 10.538 43.0211 9.866 43.7171 9.374C44.4131 8.87 45.3371 8.528 46.4891 8.348L48.7391 8.006V7.754C48.7391 7.322 48.6491 6.992 48.4691 6.764C48.2891 6.536 47.9591 6.422 47.4791 6.422C47.1431 6.422 46.8671 6.488 46.6511 6.62C46.4471 6.752 46.2851 6.932 46.1651 7.16C46.0571 7.316 45.9071 7.394 45.7151 7.394H43.6991C43.5671 7.394 43.4651 7.358 43.3931 7.286C43.3211 7.202 43.2911 7.106 43.3031 6.998C43.3031 6.782 43.3811 6.536 43.5371 6.26C43.7051 5.972 43.9571 5.69 44.2931 5.414C44.6291 5.138 45.0611 4.91 45.5891 4.73C46.1171 4.55 46.7531 4.46 47.4971 4.46C48.2771 4.46 48.9431 4.55 49.4951 4.73C50.0471 4.91 50.4911 5.162 50.8271 5.486C51.1751 5.81 51.4331 6.194 51.6011 6.638C51.7691 7.07 51.8531 7.55 51.8531 8.078V13.55C51.8531 13.682 51.8051 13.79 51.7091 13.874C51.6251 13.958 51.5231 14 51.4031 14H49.3151C49.1831 14 49.0751 13.958 48.9911 13.874C48.9071 13.79 48.8651 13.682 48.8651 13.55V12.92C48.7091 13.148 48.4991 13.358 48.2351 13.55C47.9711 13.742 47.6591 13.892 47.2991 14C46.9511 14.12 46.5431 14.18 46.0751 14.18ZM46.9211 12.128C47.2691 12.128 47.5811 12.056 47.8571 11.912C48.1451 11.756 48.3671 11.522 48.5231 11.21C48.6911 10.886 48.7751 10.484 48.7751 10.004V9.752L47.2451 10.022C46.6811 10.118 46.2671 10.268 46.0031 10.472C45.7511 10.664 45.6251 10.892 45.6251 11.156C45.6251 11.36 45.6851 11.534 45.8051 11.678C45.9251 11.822 46.0811 11.936 46.2731 12.02C46.4651 12.092 46.6811 12.128 46.9211 12.128ZM58.3643 14C58.2323 14 58.1243 13.958 58.0403 13.874C57.9563 13.79 57.9143 13.682 57.9143 13.55V1.85C57.9143 1.718 57.9563 1.61 58.0403 1.526C58.1243 1.442 58.2323 1.4 58.3643 1.4H60.6863C60.8183 1.4 60.9263 1.442 61.0103 1.526C61.0943 1.61 61.1363 1.718 61.1363 1.85V6.188H65.5823V1.85C65.5823 1.718 65.6243 1.61 65.7083 1.526C65.7923 1.442 65.9003 1.4 66.0323 1.4H68.3543C68.4863 1.4 68.5943 1.442 68.6783 1.526C68.7623 1.61 68.8043 1.718 68.8043 1.85V13.55C68.8043 13.682 68.7623 13.79 68.6783 13.874C68.5943 13.958 68.4863 14 68.3543 14H66.0323C65.9003 14 65.7923 13.958 65.7083 13.874C65.6243 13.79 65.5823 13.682 65.5823 13.55V9.068H61.1363V13.55C61.1363 13.682 61.0943 13.79 61.0103 13.874C60.9263 13.958 60.8183 14 60.6863 14H58.3643ZM75.5564 14.18C74.5484 14.18 73.6964 14.018 73.0004 13.694C72.3164 13.37 71.7884 12.908 71.4164 12.308C71.0564 11.696 70.8524 10.97 70.8044 10.13C70.7924 9.89 70.7864 9.62 70.7864 9.32C70.7864 9.008 70.7924 8.738 70.8044 8.51C70.8524 7.658 71.0684 6.932 71.4524 6.332C71.8364 5.732 72.3704 5.27 73.0544 4.946C73.7504 4.622 74.5844 4.46 75.5564 4.46C76.5404 4.46 77.3744 4.622 78.0584 4.946C78.7544 5.27 79.2944 5.732 79.6784 6.332C80.0624 6.932 80.2784 7.658 80.3264 8.51C80.3384 8.738 80.3444 9.008 80.3444 9.32C80.3444 9.62 80.3384 9.89 80.3264 10.13C80.2784 10.97 80.0684 11.696 79.6964 12.308C79.3364 12.908 78.8084 13.37 78.1124 13.694C77.4284 14.018 76.5764 14.18 75.5564 14.18ZM75.5564 11.984C76.0964 11.984 76.4864 11.822 76.7264 11.498C76.9784 11.174 77.1224 10.688 77.1584 10.04C77.1704 9.86 77.1764 9.62 77.1764 9.32C77.1764 9.02 77.1704 8.78 77.1584 8.6C77.1224 7.964 76.9784 7.484 76.7264 7.16C76.4864 6.824 76.0964 6.656 75.5564 6.656C75.0284 6.656 74.6384 6.824 74.3864 7.16C74.1344 7.484 73.9964 7.964 73.9724 8.6C73.9604 8.78 73.9544 9.02 73.9544 9.32C73.9544 9.62 73.9604 9.86 73.9724 10.04C73.9964 10.688 74.1344 11.174 74.3864 11.498C74.6384 11.822 75.0284 11.984 75.5564 11.984ZM82.5647 14C82.4327 14 82.3247 13.958 82.2407 13.874C82.1567 13.79 82.1147 13.682 82.1147 13.55V1.67C82.1147 1.538 82.1567 1.43 82.2407 1.346C82.3247 1.262 82.4327 1.22 82.5647 1.22H84.6887C84.8207 1.22 84.9287 1.262 85.0127 1.346C85.0967 1.43 85.1387 1.538 85.1387 1.67V13.55C85.1387 13.682 85.0967 13.79 85.0127 13.874C84.9287 13.958 84.8207 14 84.6887 14H82.5647ZM91.5851 14.18C90.1691 14.18 89.0411 13.796 88.2011 13.028C87.3611 12.26 86.9231 11.12 86.8871 9.608C86.8871 9.524 86.8871 9.416 86.8871 9.284C86.8871 9.152 86.8871 9.05 86.8871 8.978C86.9231 8.03 87.1331 7.22 87.5171 6.548C87.9131 5.864 88.4531 5.348 89.1371 5C89.8331 4.64 90.6431 4.46 91.5671 4.46C92.6231 4.46 93.4931 4.67 94.1771 5.09C94.8731 5.51 95.3951 6.08 95.7431 6.8C96.0911 7.52 96.2651 8.342 96.2651 9.266V9.698C96.2651 9.83 96.2171 9.938 96.1211 10.022C96.0371 10.106 95.9351 10.148 95.8151 10.148H90.0551C90.0551 10.16 90.0551 10.178 90.0551 10.202C90.0551 10.226 90.0551 10.25 90.0551 10.274C90.0671 10.622 90.1271 10.94 90.2351 11.228C90.3431 11.516 90.5111 11.744 90.7391 11.912C90.9671 12.08 91.2431 12.164 91.5671 12.164C91.8071 12.164 92.0051 12.128 92.1611 12.056C92.3291 11.972 92.4671 11.882 92.5751 11.786C92.6831 11.678 92.7671 11.588 92.8271 11.516C92.9351 11.396 93.0191 11.324 93.0791 11.3C93.1511 11.264 93.2591 11.246 93.4031 11.246H95.6351C95.7551 11.246 95.8511 11.282 95.9231 11.354C96.0071 11.414 96.0431 11.504 96.0311 11.624C96.0191 11.828 95.9171 12.074 95.7251 12.362C95.5331 12.65 95.2511 12.938 94.8791 13.226C94.5191 13.502 94.0631 13.73 93.5111 13.91C92.9591 14.09 92.3171 14.18 91.5851 14.18ZM90.0551 8.366H93.0971V8.33C93.0971 7.946 93.0371 7.61 92.9171 7.322C92.8091 7.034 92.6351 6.812 92.3951 6.656C92.1671 6.5 91.8911 6.422 91.5671 6.422C91.2431 6.422 90.9671 6.5 90.7391 6.656C90.5231 6.812 90.3551 7.034 90.2351 7.322C90.1151 7.61 90.0551 7.946 90.0551 8.33V8.366ZM98.4026 14C98.2706 14 98.1626 13.958 98.0786 13.874C97.9946 13.79 97.9526 13.682 97.9526 13.55V1.67C97.9526 1.538 97.9946 1.43 98.0786 1.346C98.1626 1.262 98.2706 1.22 98.4026 1.22H100.491C100.611 1.22 100.713 1.262 100.797 1.346C100.893 1.43 100.941 1.538 100.941 1.67V7.7L103.443 4.946C103.515 4.862 103.593 4.79 103.677 4.73C103.761 4.67 103.881 4.64 104.037 4.64H106.449C106.557 4.64 106.647 4.682 106.719 4.766C106.803 4.838 106.845 4.928 106.845 5.036C106.845 5.084 106.833 5.138 106.809 5.198C106.785 5.258 106.749 5.306 106.701 5.342L103.461 8.834L107.151 13.316C107.247 13.412 107.295 13.508 107.295 13.604C107.295 13.712 107.253 13.808 107.169 13.892C107.097 13.964 107.001 14 106.881 14H104.415C104.235 14 104.103 13.97 104.019 13.91C103.935 13.838 103.857 13.766 103.785 13.694L100.941 10.274V13.55C100.941 13.682 100.893 13.79 100.797 13.874C100.713 13.958 100.611 14 100.491 14H98.4026ZM111.079 14.18C110.431 14.18 109.849 14.06 109.333 13.82C108.829 13.568 108.427 13.232 108.127 12.812C107.827 12.392 107.677 11.918 107.677 11.39C107.677 10.538 108.025 9.866 108.721 9.374C109.417 8.87 110.341 8.528 111.493 8.348L113.743 8.006V7.754C113.743 7.322 113.653 6.992 113.473 6.764C113.293 6.536 112.963 6.422 112.483 6.422C112.147 6.422 111.871 6.488 111.655 6.62C111.451 6.752 111.289 6.932 111.169 7.16C111.061 7.316 110.911 7.394 110.719 7.394H108.703C108.571 7.394 108.469 7.358 108.397 7.286C108.325 7.202 108.295 7.106 108.307 6.998C108.307 6.782 108.385 6.536 108.541 6.26C108.709 5.972 108.961 5.69 109.297 5.414C109.633 5.138 110.065 4.91 110.593 4.73C111.121 4.55 111.757 4.46 112.501 4.46C113.281 4.46 113.947 4.55 114.499 4.73C115.051 4.91 115.495 5.162 115.831 5.486C116.179 5.81 116.437 6.194 116.605 6.638C116.773 7.07 116.857 7.55 116.857 8.078V13.55C116.857 13.682 116.809 13.79 116.713 13.874C116.629 13.958 116.527 14 116.407 14H114.319C114.187 14 114.079 13.958 113.995 13.874C113.911 13.79 113.869 13.682 113.869 13.55V12.92C113.713 13.148 113.503 13.358 113.239 13.55C112.975 13.742 112.663 13.892 112.303 14C111.955 14.12 111.547 14.18 111.079 14.18ZM111.925 12.128C112.273 12.128 112.585 12.056 112.861 11.912C113.149 11.756 113.371 11.522 113.527 11.21C113.695 10.886 113.779 10.484 113.779 10.004V9.752L112.249 10.022C111.685 10.118 111.271 10.268 111.007 10.472C110.755 10.664 110.629 10.892 110.629 11.156C110.629 11.36 110.689 11.534 110.809 11.678C110.929 11.822 111.085 11.936 111.277 12.02C111.469 12.092 111.685 12.128 111.925 12.128Z" fill="#456080"/>
<path opacity="0.5" d="M127.958 14.18C126.758 14.18 125.762 14.012 124.97 13.676C124.178 13.328 123.578 12.878 123.17 12.326C122.762 11.774 122.546 11.186 122.522 10.562C122.522 10.466 122.558 10.382 122.63 10.31C122.714 10.226 122.81 10.184 122.918 10.184H125.186C125.354 10.184 125.48 10.214 125.564 10.274C125.66 10.334 125.744 10.412 125.816 10.508C125.912 10.688 126.044 10.862 126.212 11.03C126.392 11.198 126.62 11.336 126.896 11.444C127.184 11.54 127.538 11.588 127.958 11.588C128.654 11.588 129.176 11.48 129.524 11.264C129.884 11.048 130.064 10.754 130.064 10.382C130.064 10.118 129.968 9.902 129.776 9.734C129.584 9.554 129.272 9.398 128.84 9.266C128.42 9.122 127.856 8.978 127.148 8.834C126.236 8.642 125.456 8.396 124.808 8.096C124.172 7.784 123.686 7.382 123.35 6.89C123.014 6.386 122.846 5.762 122.846 5.018C122.846 4.286 123.05 3.632 123.458 3.056C123.878 2.48 124.46 2.03 125.204 1.706C125.948 1.382 126.83 1.22 127.85 1.22C128.678 1.22 129.404 1.328 130.028 1.544C130.664 1.76 131.198 2.048 131.63 2.408C132.062 2.768 132.386 3.152 132.602 3.56C132.83 3.956 132.95 4.346 132.962 4.73C132.962 4.826 132.926 4.916 132.854 5C132.782 5.072 132.692 5.108 132.584 5.108H130.208C130.076 5.108 129.962 5.084 129.866 5.036C129.77 4.988 129.686 4.91 129.614 4.802C129.542 4.538 129.35 4.31 129.038 4.118C128.738 3.914 128.342 3.812 127.85 3.812C127.322 3.812 126.908 3.908 126.608 4.1C126.32 4.28 126.176 4.562 126.176 4.946C126.176 5.186 126.254 5.396 126.41 5.576C126.578 5.756 126.848 5.912 127.22 6.044C127.604 6.176 128.126 6.314 128.786 6.458C129.878 6.662 130.76 6.92 131.432 7.232C132.104 7.532 132.596 7.928 132.908 8.42C133.22 8.9 133.376 9.506 133.376 10.238C133.376 11.054 133.142 11.762 132.674 12.362C132.218 12.95 131.582 13.4 130.766 13.712C129.95 14.024 129.014 14.18 127.958 14.18ZM135.43 14C135.298 14 135.19 13.958 135.106 13.874C135.022 13.79 134.98 13.682 134.98 13.55V1.67C134.98 1.538 135.022 1.43 135.106 1.346C135.19 1.262 135.298 1.22 135.43 1.22H137.734C137.866 1.22 137.974 1.262 138.058 1.346C138.142 1.43 138.184 1.538 138.184 1.67V5.684C138.508 5.312 138.904 5.018 139.372 4.802C139.852 4.574 140.404 4.46 141.028 4.46C141.724 4.46 142.342 4.616 142.882 4.928C143.434 5.24 143.866 5.702 144.178 6.314C144.49 6.914 144.646 7.652 144.646 8.528V13.55C144.646 13.682 144.604 13.79 144.52 13.874C144.436 13.958 144.328 14 144.196 14H141.874C141.754 14 141.646 13.958 141.55 13.874C141.466 13.79 141.424 13.682 141.424 13.55V8.636C141.424 8.072 141.286 7.64 141.01 7.34C140.746 7.028 140.35 6.872 139.822 6.872C139.33 6.872 138.934 7.028 138.634 7.34C138.334 7.64 138.184 8.072 138.184 8.636V13.55C138.184 13.682 138.142 13.79 138.058 13.874C137.974 13.958 137.866 14 137.734 14H135.43ZM147.047 14C146.915 14 146.807 13.958 146.723 13.874C146.639 13.79 146.597 13.682 146.597 13.55V11.264C146.597 11.144 146.639 11.042 146.723 10.958C146.807 10.862 146.915 10.814 147.047 10.814H149.315C149.447 10.814 149.555 10.862 149.639 10.958C149.735 11.042 149.783 11.144 149.783 11.264V13.55C149.783 13.682 149.735 13.79 149.639 13.874C149.555 13.958 149.447 14 149.315 14H147.047Z" fill="#456080"/>
</svg>
